<?xml version="1.0" standalone="no"?>
<!DOCTYPE svg PUBLIC "-//W3C//DTD SVG 20010904//EN"
 "http://www.w3.org/TR/2001/REC-SVG-20010904/DTD/svg10.dtd">
<svg version="1.0" xmlns="http://www.w3.org/2000/svg"
 width="225.000000pt" height="152.000000pt" viewBox="0 0 225.000000 152.000000"
 preserveAspectRatio="xMidYMid meet">
<g transform="translate(0.000000,152.000000) scale(0.100000,-0.100000)"
fill="#ffffff" stroke="none">
<path d="M868 1385 c-2 -3 -33 -16 -69 -29 -35 -13 -113 -45 -174 -71 -60 -25
-125 -52 -144 -58 -18 -6 -37 -20 -41 -32 -4 -11 -17 -41 -29 -66 -12 -24 -25
-58 -30 -74 -5 -17 -32 -84 -60 -150 -28 -66 -51 -124 -51 -130 0 -11 102
-275 148 -382 22 -52 32 -64 66 -80 22 -10 43 -18 46 -18 3 0 31 -13 64 -28
32 -15 63 -27 68 -27 5 0 32 -12 61 -26 28 -15 75 -35 105 -45 46 -16 57 -17
85 -5 18 8 64 27 102 44 39 16 120 51 182 77 l112 47 25 62 c14 33 41 99 61
146 20 47 46 110 57 140 11 30 25 60 30 66 9 12 -8 62 -78 229 -18 44 -46 114
-63 155 -23 58 -36 77 -58 87 -15 6 -66 28 -113 48 -143 61 -203 86 -248 106
-47 21 -47 21 -54 14z m-88 -100 l-74 -75 -111 1 c-60 0 -103 3 -95 6 15 5
286 116 325 133 11 5 22 9 25 9 2 1 -29 -33 -70 -74z m171 -1 c41 -41 75 -79
77 -83 1 -4 -31 -43 -72 -87 l-75 -79 -83 82 -83 83 80 80 c44 44 80 80 81 80
1 0 35 -34 75 -76z m144 -6 c39 -16 91 -37 118 -47 26 -10 50 -20 53 -23 3 -3
-45 -5 -106 -4 l-111 2 -55 55 c-29 30 -61 64 -69 76 -15 23 -15 23 42 -3 32
-14 90 -39 128 -56z m-475 -87 l75 -1 -3 -115 -3 -115 -100 0 c-59 0 -99 -4
-99 -10 0 -6 43 -10 110 -10 l110 0 0 122 0 122 83 -88 82 -87 84 85 c46 47
84 86 85 86 0 0 -1 -54 -2 -120 l-4 -120 121 0 c67 0 121 -2 121 -4 0 -3 -36
-42 -80 -88 l-79 -83 84 -85 85 -85 -125 3 -125 4 0 -121 0 -121 -82 86 -82
85 -39 -41 c-39 -41 -40 -41 -54 -20 -11 16 -23 20 -47 18 l-31 -3 -3 57 -3
57 -114 3 -115 3 80 80 c44 44 78 83 77 86 -6 18 -149 161 -154 155 -4 -4 25
-39 65 -79 l72 -72 -78 -83 -78 -82 -82 82 -82 82 81 82 c46 46 87 82 92 81 5
-1 12 4 14 11 3 6 0 12 -6 12 -7 0 -11 40 -11 119 l0 119 43 -3 c23 -1 76 -3
117 -4z m676 -121 l-1 -120 -117 0 -118 0 0 120 0 120 119 0 118 0 -1 -120z
m-854 -16 l-3 -102 -66 -71 c-36 -39 -67 -70 -69 -68 -2 2 12 41 32 88 20 46
47 111 59 144 43 111 46 118 48 114 1 -2 1 -50 -1 -105z m959 -114 c17 -41 37
-90 45 -108 8 -18 14 -34 14 -36 0 -2 -34 31 -75 73 l-75 77 0 110 1 109 30
-75 c17 -41 44 -109 60 -150z m-17 -91 l78 -80 -49 -52 c-26 -29 -61 -67 -78
-84 l-30 -33 -82 82 -83 82 78 82 c42 45 79 82 82 83 3 0 41 -35 84 -80z
m-945 -359 l0 -105 -20 50 c-12 28 -32 77 -46 110 -14 33 -33 83 -43 110 -10
28 -21 59 -26 70 -4 11 24 -14 64 -55 l71 -75 0 -105z m985 159 c-20 -46 -44
-104 -54 -129 -10 -25 -27 -67 -39 -95 l-20 -50 0 105 0 105 72 76 c40 42 73
76 74 75 2 -1 -13 -40 -33 -87z m-734 -181 l0 -118 -118 0 -117 0 2 118 c2 64
3 118 3 119 0 0 52 0 115 0 l115 -2 0 -117z m604 -4 l-1 -115 -117 -2 -116 -2
0 118 0 117 118 0 117 0 -1 -116z m-353 -22 c30 -32 63 -68 73 -81 l20 -22
-69 -69 c-38 -38 -65 -73 -61 -77 4 -4 38 25 74 65 l67 73 110 -1 110 -1 -60
-24 c-33 -12 -107 -44 -165 -70 -153 -69 -151 -69 -245 25 l-78 79 26 30 c26
31 27 71 2 71 -8 0 -16 8 -18 18 -3 9 -5 1 -6 -19 0 -19 4 -40 9 -45 7 -7 4
-16 -10 -29 -20 -18 -20 -18 -20 29 0 81 25 105 71 66 20 -16 22 -21 9 -29 -8
-6 -11 -13 -7 -17 4 -4 26 13 50 38 23 26 47 47 53 47 6 1 35 -25 65 -57z
m-191 -33 c0 -11 -4 -17 -10 -14 -5 3 -10 13 -10 21 0 8 5 14 10 14 6 0 10 -9
10 -21z m-144 -94 c4 -11 13 -28 21 -37 16 -18 4 -14 -112 42 l-40 19 63 -2
c53 -2 63 -5 68 -22z m124 -10 l32 -33 -32 -10 c-46 -17 -95 9 -113 60 -5 15
0 17 38 16 35 0 49 -7 75 -33z m85 -85 c21 -22 36 -40 33 -40 -3 0 -36 13 -73
29 -67 28 -68 28 -39 39 16 6 31 11 34 11 3 1 24 -17 45 -39z"/>
<path d="M776 1193 c-6 -14 -5 -15 5 -6 7 7 10 15 7 18 -3 3 -9 -2 -12 -12z"/>
<path d="M1140 666 c0 -2 8 -10 18 -17 15 -13 16 -12 3 4 -13 16 -21 21 -21
13z"/>
<path d="M670 295 c0 -18 5 -25 19 -25 14 0 17 6 13 25 -2 14 -11 25 -18 25
-8 0 -14 -10 -14 -25z m17 -7 c-3 -8 -6 -5 -6 6 -1 11 2 17 5 13 3 -3 4 -12 1
-19z"/>
<path d="M1695 1180 c0 -23 5 -40 11 -40 7 0 9 11 7 28 l-5 27 26 -30 25 -30
1 43 c0 23 -4 42 -9 42 -4 0 -6 -12 -3 -27 l5 -28 -22 28 c-30 36 -36 34 -36
-13z"/>
<path d="M1782 1208 c-16 -16 -15 -43 2 -57 20 -16 56 3 56 29 0 10 5 22 11
26 8 5 10 -4 7 -30 -3 -28 0 -36 12 -36 12 0 15 8 12 35 -4 30 -2 34 14 28 12
-4 15 -3 10 5 -9 16 -66 15 -66 0 0 -9 -3 -9 -12 0 -7 7 -17 12 -23 12 -6 0
-16 -5 -23 -12z m38 -28 c0 -25 -18 -36 -26 -16 -8 21 3 49 16 41 5 -3 10 -15
10 -25z"/>
<path d="M1925 1210 c-3 -6 1 -7 10 -4 12 5 14 0 11 -30 -4 -25 -1 -36 7 -36
9 0 12 12 9 36 -3 26 -1 35 7 30 6 -4 11 -2 11 3 0 14 -47 14 -55 1z"/>
<path d="M1988 1195 c-11 -24 -10 -29 7 -41 22 -17 34 -14 49 9 8 12 8 22 0
35 -18 28 -42 26 -56 -3z m46 -2 c4 -9 0 -23 -8 -32 -14 -13 -16 -13 -22 2 -7
20 1 47 15 47 5 0 12 -8 15 -17z"/>
<path d="M1707 1093 c-2 -5 -5 -23 -5 -41 -1 -26 3 -33 16 -30 22 4 29 78 7
78 -8 0 -16 -3 -18 -7z m23 -13 c0 -5 -4 -10 -10 -10 -5 0 -10 5 -10 10 0 6 5
10 10 10 6 0 10 -4 10 -10z m0 -40 c0 -5 -4 -10 -10 -10 -5 0 -10 5 -10 10 0
6 5 10 10 10 6 0 10 -4 10 -10z"/>
<path d="M1762 1088 c-16 -16 -15 -43 3 -58 16 -14 45 -7 45 11 0 8 -4 8 -15
-1 -12 -10 -16 -9 -21 4 -3 9 -3 23 0 32 5 13 9 14 21 4 12 -10 15 -9 15 4 0
19 -31 21 -48 4z"/>
<path d="M1836 1068 c-19 -44 -19 -48 -6 -48 6 0 10 7 10 15 0 19 16 20 23 0
9 -22 143 -20 152 3 5 14 4 15 -6 5 -15 -15 -39 -17 -39 -3 0 6 7 10 15 10 8
0 15 4 15 10 0 5 -7 7 -15 4 -10 -4 -15 0 -15 11 0 12 6 16 20 12 11 -3 20 -1
20 4 0 5 -13 9 -29 9 -29 0 -30 -1 -25 -37 4 -29 3 -34 -5 -23 -7 10 -11 11
-11 3 0 -7 -7 -13 -16 -13 -13 0 -15 8 -12 35 2 21 0 35 -7 35 -7 0 -9 -14 -7
-35 5 -46 -12 -45 -31 3 l-15 37 -16 -37z"/>
<path d="M1423 1025 c0 -8 4 -12 9 -9 5 3 6 10 3 15 -9 13 -12 11 -12 -6z"/>
</g>
</svg>
