<?xml version="1.0" standalone="no"?>
<!DOCTYPE svg PUBLIC "-//W3C//DTD SVG 20010904//EN"
 "http://www.w3.org/TR/2001/REC-SVG-20010904/DTD/svg10.dtd">
<svg version="1.0" xmlns="http://www.w3.org/2000/svg"
 width="900.000000pt" height="608.000000pt" viewBox="0 0 900.000000 608.000000"
 preserveAspectRatio="xMidYMid meet">
<g transform="translate(0.000000,608.000000) scale(0.100000,-0.100000)"
fill="#ffffff" stroke="none">
<path d="M3700 5785 c-12 -13 -41 -37 -64 -52 -22 -15 -62 -44 -87 -65 -26
-21 -51 -38 -56 -38 -6 0 -18 -9 -28 -20 -10 -11 -22 -20 -26 -20 -12 0 -143
-93 -257 -182 -33 -27 -64 -48 -67 -48 -4 0 -22 -12 -40 -27 -17 -16 -42 -35
-55 -43 -13 -8 -71 -50 -129 -93 -58 -44 -115 -84 -126 -89 -11 -6 -22 -14
-25 -17 -3 -4 -30 -23 -60 -43 -30 -20 -75 -56 -100 -79 -25 -23 -58 -48 -75
-55 -16 -7 -48 -29 -69 -48 -22 -20 -43 -36 -47 -36 -4 0 -41 -26 -81 -58 -40
-32 -91 -68 -113 -81 -22 -13 -44 -29 -50 -35 -5 -7 -43 -33 -83 -59 -40 -27
-92 -66 -114 -88 -22 -21 -44 -39 -48 -39 -5 0 -31 -18 -59 -40 -28 -22 -53
-40 -55 -40 -9 0 -93 -60 -107 -76 -7 -9 -43 -36 -80 -60 -37 -24 -97 -66
-133 -94 -36 -27 -69 -50 -73 -50 -5 0 -16 -8 -25 -17 -8 -10 -26 -26 -39 -36
-13 -9 -38 -28 -55 -42 -18 -14 -35 -25 -39 -25 -4 0 -27 -18 -51 -40 -24 -22
-49 -40 -56 -40 -6 0 -37 -22 -67 -48 -31 -27 -71 -57 -88 -66 -37 -19 -47
-84 -18 -122 8 -10 15 -29 15 -41 0 -12 9 -46 19 -75 11 -29 23 -71 27 -93 4
-22 12 -51 19 -65 7 -14 18 -47 24 -75 7 -27 16 -54 21 -60 4 -5 11 -26 15
-45 4 -19 13 -44 20 -55 7 -11 16 -36 20 -55 4 -19 16 -51 26 -70 11 -19 19
-45 19 -57 0 -12 5 -34 12 -50 11 -28 40 -124 59 -198 5 -22 18 -62 28 -90 30
-81 42 -117 53 -160 6 -22 16 -47 23 -55 7 -8 16 -32 19 -54 4 -21 16 -55 27
-75 10 -20 19 -48 19 -64 0 -16 5 -38 12 -50 6 -12 17 -44 25 -72 35 -137 54
-199 61 -209 5 -6 14 -29 20 -51 18 -67 43 -139 57 -165 7 -14 16 -42 20 -62
4 -21 13 -42 21 -49 8 -6 14 -23 14 -38 1 -14 8 -44 16 -66 20 -52 63 -199 73
-247 5 -21 13 -43 19 -50 5 -7 13 -31 17 -53 4 -22 13 -49 20 -60 7 -11 16
-36 20 -55 4 -19 13 -46 20 -60 15 -28 41 -105 57 -165 6 -22 16 -53 24 -70 8
-16 18 -50 24 -75 12 -59 47 -166 68 -210 17 -34 19 -35 91 -42 40 -4 823 -7
1738 -5 l1665 2 19 24 c11 13 22 35 25 50 3 14 12 46 20 71 9 25 19 65 25 89
5 24 14 50 20 58 7 7 16 34 20 60 5 25 16 54 24 63 8 9 15 24 15 34 0 9 8 38
18 64 29 73 52 143 66 197 7 28 17 59 23 70 6 11 14 40 18 65 4 25 14 57 21
72 8 15 14 39 14 53 0 14 8 43 19 63 21 41 47 116 62 176 5 21 16 48 24 60 8
11 15 32 15 46 1 14 9 43 20 65 11 22 19 46 20 54 0 14 38 144 62 216 5 17 14
49 19 73 5 24 15 53 24 65 8 12 15 31 15 42 0 11 9 37 20 58 11 20 20 47 20
58 0 12 8 40 19 63 10 23 31 82 46 131 15 50 35 114 46 143 10 30 19 66 19 80
0 15 7 36 15 46 8 11 15 34 15 51 0 16 8 46 19 65 10 19 22 51 26 70 4 19 14
44 21 55 8 11 14 29 14 40 0 11 9 38 20 60 11 22 20 53 20 70 1 16 8 48 16 70
9 22 20 60 26 85 6 25 14 50 19 56 5 6 14 38 20 70 6 32 17 71 25 86 8 15 14
36 14 47 0 11 10 39 21 61 24 45 14 94 -21 105 -10 3 -31 17 -46 30 -64 55
-121 98 -214 160 -24 17 -52 37 -61 45 -8 8 -26 22 -38 30 -13 8 -49 35 -81
60 -33 25 -84 63 -115 85 -31 22 -89 65 -128 96 -40 31 -103 77 -142 102 -38
25 -77 53 -86 62 -9 8 -19 15 -23 15 -5 0 -43 29 -85 63 -42 35 -87 70 -100
76 -13 7 -49 33 -81 57 -32 24 -62 44 -67 44 -4 0 -26 17 -48 39 -38 36 -88
73 -245 179 -36 24 -78 55 -95 70 -16 15 -37 32 -46 37 -36 22 -76 50 -114 80
-22 18 -49 35 -60 39 -11 3 -47 31 -80 61 -33 30 -63 55 -66 55 -4 0 -41 27
-84 60 -43 33 -82 60 -88 60 -5 0 -31 19 -57 43 -57 51 -191 146 -272 192 -15
8 -40 27 -55 41 -15 14 -52 42 -81 61 -28 19 -55 41 -60 48 -24 40 -98 46
-132 10z m80 -140 c0 -13 5 -36 11 -52 7 -15 20 -59 30 -98 34 -136 50 -190
65 -222 7 -17 14 -39 14 -50 1 -10 9 -36 20 -58 11 -22 19 -48 20 -58 0 -9 9
-34 20 -54 11 -21 20 -46 20 -56 0 -11 6 -31 14 -45 13 -25 33 -95 56 -198 5
-22 15 -56 24 -75 16 -37 40 -107 61 -179 7 -25 20 -58 29 -75 9 -16 16 -42
16 -56 0 -15 7 -32 15 -39 8 -7 17 -28 20 -49 3 -20 12 -49 20 -66 8 -16 19
-53 25 -82 5 -29 14 -60 19 -70 6 -10 17 -40 25 -68 19 -64 44 -134 57 -161
21 -41 8 -59 -41 -58 -25 1 -296 2 -604 3 l-558 2 5 32 c2 18 10 48 17 67 7
19 20 58 29 85 10 28 25 73 35 100 10 28 22 72 26 99 5 27 16 56 24 65 8 9 18
34 21 56 4 22 13 47 20 55 7 8 16 33 19 54 4 21 13 48 21 60 7 12 16 39 20 61
4 22 11 45 16 51 4 5 15 37 23 70 40 156 56 208 65 217 6 6 11 22 11 36 0 14
8 43 18 65 24 53 51 131 63 181 6 21 14 44 19 50 5 6 15 37 24 70 28 113 38
150 57 211 11 33 19 70 19 82 0 11 4 23 9 27 5 3 17 28 26 55 17 51 35 59 35
15z m-116 -27 c-4 -18 -14 -47 -24 -63 -9 -17 -20 -44 -24 -60 -4 -17 -14 -37
-22 -46 -8 -9 -20 -44 -26 -79 -10 -51 -16 -64 -37 -71 -18 -7 -21 -13 -13
-21 21 -21 13 -73 -17 -115 -19 -27 -26 -44 -20 -55 13 -23 -1 -58 -24 -58
-18 0 -19 -4 -14 -45 7 -51 1 -75 -19 -75 -9 0 -14 -12 -14 -36 0 -19 -8 -52
-19 -72 -45 -89 -81 -196 -81 -240 0 -17 -4 -34 -10 -37 -5 -3 -10 -30 -10
-59 0 -40 -5 -57 -20 -71 -12 -11 -20 -31 -20 -49 0 -17 -9 -44 -20 -61 -11
-16 -20 -43 -20 -59 0 -16 -7 -37 -15 -46 -9 -10 -19 -35 -22 -56 -3 -22 -14
-48 -24 -59 -11 -13 -18 -35 -17 -61 0 -24 -7 -53 -18 -69 -10 -15 -20 -55
-23 -93 l-6 -67 -102 2 c-56 1 -110 6 -120 11 -10 5 -48 6 -88 2 -38 -4 -358
-8 -710 -9 -352 0 -706 -3 -787 -5 -81 -3 -150 -1 -152 3 -6 10 33 39 94 70
25 13 61 37 81 55 73 63 157 126 169 126 6 0 31 16 54 35 24 19 50 35 58 35 9
0 18 9 21 19 2 10 20 26 38 35 45 22 64 37 72 58 3 9 24 22 47 29 23 7 50 23
60 36 20 26 55 31 64 8 10 -27 26 -15 26 20 0 30 6 38 40 60 22 14 40 29 40
33 0 11 124 111 148 119 9 3 36 21 59 40 41 32 73 43 73 23 0 -5 5 -10 11 -10
7 0 8 11 4 30 -5 23 -3 30 8 30 8 0 20 7 27 15 7 9 28 22 46 31 18 9 49 31 69
50 20 19 43 35 51 35 38 4 64 19 64 38 0 10 22 32 50 50 28 18 50 37 50 42 0
5 7 9 15 9 22 0 65 28 102 67 35 36 51 41 59 18 9 -23 44 -19 44 5 0 12 -7 20
-16 20 -13 0 -10 6 10 25 15 14 33 25 41 25 7 0 42 28 78 63 40 39 82 70 111
81 26 10 53 27 59 38 7 10 28 29 47 41 19 11 47 33 62 47 62 59 108 90 135 90
10 0 36 21 57 45 22 25 45 45 52 45 6 0 14 6 17 14 3 8 22 22 42 31 19 10 45
30 56 46 28 40 50 39 43 -3z m250 -8 c24 -22 46 -40 49 -40 4 0 17 -9 29 -20
87 -77 117 -100 130 -100 8 0 23 -9 33 -20 10 -11 24 -20 31 -20 7 0 32 -18
56 -41 69 -64 81 -74 123 -99 22 -13 44 -30 48 -37 4 -7 14 -13 22 -13 18 0
85 -61 85 -77 0 -6 12 -13 27 -15 18 -2 29 -10 32 -23 4 -24 19 -35 48 -35 13
0 28 -9 35 -21 15 -24 93 -79 112 -79 7 0 32 -18 57 -40 24 -22 52 -42 61 -45
9 -4 20 -15 23 -26 4 -11 16 -19 28 -19 14 -1 35 -18 59 -49 31 -40 45 -50 78
-55 39 -6 41 -8 35 -35 -7 -31 11 -53 21 -27 12 32 91 -7 129 -64 11 -16 32
-34 48 -39 16 -6 27 -17 27 -29 0 -25 29 -61 36 -44 8 18 19 15 74 -20 34 -23
52 -42 56 -61 6 -24 11 -28 31 -24 15 3 27 -1 29 -8 3 -7 14 -15 26 -18 15 -4
18 -11 13 -26 -5 -18 -2 -21 20 -21 40 0 135 -68 135 -96 0 -17 25 -24 59 -18
23 5 30 2 36 -15 3 -12 10 -21 15 -21 4 0 22 -13 39 -29 17 -16 55 -45 84 -64
28 -19 61 -44 71 -56 11 -12 27 -21 36 -21 9 0 33 -16 53 -35 20 -19 40 -35
46 -35 5 0 30 -17 54 -37 24 -21 62 -49 85 -63 23 -14 40 -29 38 -35 -3 -12
-148 -12 -476 -1 -129 4 -246 8 -260 8 -405 -5 -964 -1 -978 7 -12 6 -22 7
-28 1 -5 -5 -51 -12 -102 -15 l-92 -5 0 38 c0 20 -9 55 -19 78 -10 23 -22 65
-26 95 -4 30 -14 63 -21 74 -8 11 -14 37 -14 59 0 24 -6 43 -16 50 -8 6 -19
27 -24 46 -12 49 -39 127 -61 178 -11 23 -19 55 -19 70 0 16 -8 32 -20 40 -21
13 -28 60 -11 77 6 6 -1 32 -19 70 -16 33 -30 74 -30 90 0 17 -10 46 -21 65
-16 26 -20 44 -15 77 5 38 3 43 -14 43 -13 0 -22 9 -26 28 -4 15 -13 37 -21
50 -7 12 -18 44 -24 70 -5 26 -11 53 -12 60 -2 7 -9 18 -15 24 -7 7 -12 23
-12 37 0 15 -7 39 -15 55 -8 16 -18 47 -22 70 -3 22 -11 50 -18 61 -7 11 -17
40 -24 65 -7 25 -19 59 -27 75 -24 54 -42 115 -33 115 5 0 29 -18 53 -40z
m-866 -1910 c19 0 14 -34 -8 -63 -11 -14 -20 -34 -20 -44 0 -10 -9 -35 -20
-56 -11 -20 -20 -44 -20 -53 0 -9 -9 -35 -19 -58 -10 -23 -33 -88 -51 -146
-18 -58 -39 -124 -46 -148 -8 -23 -14 -53 -14 -65 0 -13 -7 -32 -15 -43 -8
-10 -15 -33 -15 -49 0 -17 -8 -46 -18 -65 -11 -19 -22 -51 -25 -70 -4 -19 -13
-48 -21 -65 -15 -33 -52 -153 -61 -197 -9 -48 -46 -37 -139 39 -44 38 -85 71
-91 76 -45 34 -86 64 -105 77 -13 8 -48 34 -79 58 -134 103 -270 202 -275 202
-6 0 -72 51 -159 123 -21 17 -60 45 -87 62 -73 46 -97 64 -195 140 -118 91
-152 115 -165 115 -6 0 -29 17 -53 38 -23 21 -60 49 -82 62 -22 13 -55 37 -74
53 -19 16 -50 36 -69 44 -88 37 -48 38 950 35 529 -1 969 -3 976 -2z m3377
-18 c0 -7 -10 -18 -22 -25 -12 -7 -58 -39 -103 -72 -45 -33 -103 -74 -129 -92
-87 -60 -193 -138 -250 -183 -31 -24 -72 -53 -92 -65 -37 -20 -217 -154 -248
-184 -10 -9 -35 -25 -56 -36 -21 -11 -59 -38 -84 -60 -25 -22 -57 -46 -71 -52
-14 -6 -53 -36 -88 -67 -34 -31 -67 -56 -72 -56 -11 0 -224 -159 -228 -171 -6
-15 -108 -79 -126 -79 -9 0 -18 6 -20 13 -2 6 -18 62 -36 122 -59 206 -87 292
-107 330 -9 17 -19 48 -23 70 -5 22 -12 54 -18 70 -5 17 -22 71 -38 120 -15
50 -39 126 -55 170 -15 44 -33 96 -39 115 -7 19 -21 52 -31 72 -21 40 -25 74
-9 80 34 11 1945 -8 1945 -20z m-2019 -4 c7 -11 25 -120 28 -175 2 -27 14 -58
31 -83 22 -32 26 -47 22 -75 -4 -25 1 -47 19 -80 13 -25 24 -57 24 -70 0 -14
9 -39 20 -57 11 -18 20 -41 20 -52 0 -10 9 -34 21 -52 16 -27 19 -42 14 -79
-7 -43 -6 -45 16 -43 22 3 24 -1 25 -41 1 -30 7 -48 19 -58 14 -9 20 -30 23
-73 2 -34 10 -64 18 -71 8 -6 14 -23 14 -38 0 -14 9 -41 21 -60 40 -66 41 -78
11 -106 -15 -14 -32 -25 -39 -25 -7 0 -17 -9 -23 -20 -10 -20 -58 -28 -74 -13
-8 9 -96 13 -96 4 0 -3 9 -12 20 -19 17 -10 18 -16 10 -32 -14 -26 -40 -26
-47 1 -4 15 -12 19 -31 17 -31 -4 -61 -80 -41 -104 13 -16 -16 -60 -44 -70
-11 -3 -37 -24 -58 -45 -21 -21 -45 -39 -52 -39 -8 0 -24 -9 -37 -20 -35 -31
-60 -26 -60 11 0 24 -4 30 -17 27 -28 -5 -29 -54 -2 -61 26 -7 20 -31 -10 -35
-12 -2 -41 -22 -64 -45 -48 -48 -186 -157 -198 -157 -4 0 -27 -18 -51 -40 -45
-41 -77 -50 -97 -26 -6 7 -24 16 -39 20 -18 4 -37 21 -55 51 -24 38 -32 44
-52 39 -19 -5 -35 6 -84 55 -34 34 -67 61 -73 61 -25 0 -108 102 -108 133 0
21 51 5 60 -19 12 -29 30 -23 30 10 0 15 7 26 20 29 21 5 28 37 8 37 -6 0 -20
-7 -30 -16 -17 -16 -19 -14 -37 27 l-20 43 -11 -29 c-20 -56 -29 -72 -29 -53
-1 9 -14 21 -31 27 -38 13 -37 17 1 36 26 14 29 20 24 44 -4 21 -2 30 9 34 9
4 16 13 16 22 0 21 -29 19 -37 -2 -6 -16 -28 -48 -65 -92 -8 -10 -8 -18 1 -30
6 -9 14 -24 18 -34 3 -10 16 -23 29 -28 24 -8 34 -39 14 -39 -31 0 -160 107
-160 133 0 15 -5 18 -23 13 -33 -8 -86 46 -67 69 14 17 0 21 -16 5 -15 -15
-121 41 -164 85 -18 19 -38 35 -42 35 -5 0 -22 10 -38 22 -38 28 -44 110 -10
128 16 8 20 21 20 56 0 31 7 54 20 71 11 14 20 36 20 49 0 13 9 41 20 61 11
21 20 48 20 61 0 13 9 35 20 49 11 14 20 31 20 38 0 7 9 32 20 56 11 24 20 56
20 71 0 15 9 35 19 45 15 14 19 31 19 73 -1 39 5 68 20 98 26 48 44 53 68 17
18 -28 45 -32 64 -10 10 13 9 15 -9 15 -13 0 -28 12 -39 30 -17 27 -20 28 -35
13 -28 -28 -35 31 -8 67 13 18 21 44 21 67 0 22 9 56 20 78 11 22 20 49 20 60
0 12 3 25 7 28 10 10 1273 5 1279 -5z m-3275 -103 c24 -24 49 -45 55 -45 28 0
96 -81 90 -106 -6 -24 7 -33 19 -14 11 17 34 11 57 -15 12 -14 29 -25 39 -25
9 0 19 -6 22 -13 3 -8 30 -31 61 -51 31 -20 56 -41 56 -47 0 -5 7 -9 15 -9 8
0 35 -20 59 -45 25 -25 52 -45 62 -45 9 0 22 -7 28 -15 6 -8 31 -25 56 -38 33
-18 45 -30 44 -46 -1 -18 3 -21 21 -17 15 4 32 -4 60 -30 21 -19 60 -49 87
-66 26 -17 48 -35 48 -39 0 -4 21 -18 46 -31 26 -13 53 -33 61 -44 18 -28 126
-104 148 -104 9 0 19 -9 22 -20 3 -11 14 -20 24 -20 11 0 24 -11 30 -24 10
-22 65 -56 91 -56 6 0 30 -17 54 -37 62 -55 101 -83 113 -83 25 0 42 -58 26
-90 -8 -16 -15 -36 -15 -45 0 -9 -9 -33 -20 -55 -11 -22 -20 -55 -20 -74 0
-25 -6 -38 -20 -46 -15 -8 -20 -21 -20 -54 0 -26 -6 -48 -15 -56 -8 -7 -20
-30 -25 -51 -6 -22 -15 -39 -20 -39 -6 0 -10 -10 -10 -22 -1 -29 -23 -115 -33
-124 -4 -4 -7 -19 -7 -33 0 -31 -27 -110 -43 -130 -7 -8 -12 -35 -12 -62 0
-31 -6 -54 -18 -66 -11 -13 -17 -36 -17 -70 0 -34 -5 -53 -14 -56 -19 -8 -26
1 -26 35 0 33 -16 37 -25 7 -4 -13 -1 -27 10 -39 18 -20 17 -81 -2 -87 -6 -2
-14 10 -18 26 -8 39 -30 40 -50 1 -24 -46 -20 -80 9 -80 31 0 40 -14 32 -46
-4 -16 -13 -24 -24 -23 -40 4 -46 0 -29 -19 22 -25 21 -59 -3 -105 -11 -20
-20 -47 -20 -60 0 -13 -6 -32 -14 -43 -8 -10 -12 -29 -9 -41 3 -14 -4 -36 -17
-58 -12 -20 -20 -44 -17 -55 3 -10 -1 -27 -9 -37 -7 -10 -14 -40 -14 -67 0
-27 -6 -57 -14 -65 -7 -9 -18 -29 -24 -46 -6 -20 -11 -25 -14 -15 -11 32 -30
107 -41 160 -7 30 -18 65 -25 77 -6 12 -12 34 -12 50 0 17 -8 33 -20 41 -15 9
-20 23 -20 57 0 25 -4 45 -10 45 -26 0 -32 42 -10 73 l23 30 -24 18 c-13 10
-27 19 -30 19 -6 0 -18 40 -40 135 -6 28 -11 108 -10 178 0 116 -1 128 -17
125 -15 -3 -17 -14 -14 -81 2 -50 0 -77 -7 -77 -6 0 -11 21 -11 50 0 43 -3 50
-20 50 -22 0 -36 36 -26 73 4 19 0 26 -20 35 -20 10 -24 18 -22 48 1 25 -3 40
-15 49 -9 7 -22 36 -27 65 -6 29 -14 58 -18 64 -23 29 -36 155 -19 174 21 23
22 61 3 68 -8 3 -19 19 -25 35 -6 19 -17 29 -29 29 -21 0 -32 18 -32 51 0 25
16 24 31 -2 16 -31 31 -9 27 42 -3 49 -39 68 -64 34 -18 -24 -34 -10 -34 31 0
21 -8 42 -20 54 -11 11 -20 32 -20 46 0 15 -8 41 -19 58 -10 17 -24 67 -31
111 -8 44 -20 91 -27 105 -7 14 -13 39 -13 56 0 17 -7 37 -15 44 -8 7 -15 25
-15 40 0 15 -9 38 -20 51 -30 34 -25 113 8 117 22 3 46 34 35 46 -3 3 2 15 12
27 17 17 17 22 5 29 -28 18 -40 11 -40 -25 0 -19 -4 -35 -10 -35 -5 0 -20 -10
-31 -21 -25 -25 -39 -13 -39 34 0 15 -9 36 -20 47 -11 11 -20 32 -20 46 0 15
-10 42 -21 61 -18 28 -21 45 -16 87 4 43 2 56 -13 68 -20 18 -80 169 -80 204
0 34 10 30 61 -21z m5306 -33 c-8 -9 -18 -35 -22 -57 -3 -22 -15 -54 -26 -71
-10 -17 -19 -43 -19 -57 0 -32 -16 -43 -29 -20 -8 16 -13 14 -45 -19 -41 -42
-36 -81 10 -92 21 -6 24 -12 24 -51 0 -50 -15 -66 -35 -39 -11 15 -16 16 -26
7 -10 -10 -9 -16 4 -31 21 -23 22 -85 2 -102 -13 -11 -15 -7 -15 23 0 26 -5
37 -19 42 -11 3 -22 12 -25 20 -3 8 -12 12 -21 9 -21 -8 -19 -21 5 -29 14 -4
20 -15 20 -35 0 -16 4 -31 9 -34 18 -12 19 -71 1 -111 -10 -22 -22 -57 -25
-78 -3 -21 -12 -40 -20 -43 -7 -3 -16 -25 -20 -50 -4 -32 -11 -44 -23 -44 -10
0 -22 -13 -29 -30 -18 -47 -51 -41 -59 10 -6 36 -10 40 -35 40 -38 0 -44 15
-14 38 l25 20 -42 31 c-45 33 -67 38 -86 19 -24 -24 -14 -56 26 -78 48 -27 67
-60 76 -127 l6 -51 -37 -7 c-75 -12 -84 -45 -13 -45 34 0 42 5 71 45 18 25 40
45 49 45 23 0 44 -26 34 -42 -4 -7 -7 -24 -6 -39 1 -17 -4 -29 -14 -33 -13 -5
-15 -15 -10 -45 6 -41 0 -71 -15 -71 -5 0 -9 20 -9 44 0 56 -13 64 -45 32 -33
-33 -32 -50 6 -76 28 -21 30 -25 24 -64 -9 -50 -11 -52 -30 -36 -19 16 -34
-15 -16 -33 17 -17 13 -53 -9 -94 -11 -21 -20 -47 -20 -59 0 -12 -9 -33 -20
-47 -11 -14 -20 -36 -20 -50 0 -13 -6 -30 -14 -36 -16 -13 -26 -52 -33 -133
-4 -49 -8 -58 -24 -58 -16 0 -19 -7 -19 -50 0 -28 -7 -67 -15 -87 -8 -19 -15
-46 -15 -59 0 -13 -8 -31 -19 -41 -10 -10 -21 -35 -24 -57 -3 -21 -13 -46 -20
-55 -8 -9 -20 -33 -26 -53 -13 -39 -43 -57 -65 -39 -20 17 -43 -13 -26 -34 9
-11 16 -12 26 -4 35 29 46 -32 16 -91 -12 -25 -24 -35 -41 -35 -32 0 -39 -22
-9 -27 32 -4 37 -58 9 -94 -13 -16 -21 -41 -21 -65 0 -47 -8 -69 -26 -69 -10
0 -14 -14 -14 -52 0 -32 -6 -58 -15 -68 -8 -9 -19 -37 -24 -63 -4 -26 -17 -59
-27 -74 l-18 -28 -6 31 c-4 17 -14 42 -23 55 -10 13 -17 34 -17 47 0 12 -9 41
-21 64 -16 31 -20 54 -17 90 5 45 4 48 -15 42 -16 -5 -19 -3 -14 10 8 19 -14
110 -37 154 -26 51 -17 111 14 92 27 -17 55 8 35 30 -13 14 -22 17 -35 10 -22
-12 -60 22 -59 53 l0 22 15 -21 c19 -28 59 -22 44 6 -14 26 -12 60 3 60 23 0
36 -22 30 -51 -8 -40 20 -39 37 1 7 17 21 35 31 41 19 10 25 43 13 73 -9 23
-31 20 -37 -5 -4 -15 -12 -20 -29 -17 -23 4 -25 9 -13 40 8 20 -16 34 -41 24
-15 -6 -15 -8 1 -25 23 -26 12 -63 -18 -59 -18 2 -22 10 -22 41 0 38 -14 48
-34 23 -26 -31 -70 13 -71 70 0 12 -9 31 -20 44 -11 13 -20 36 -20 53 0 16 -9
44 -20 62 -17 28 -18 38 -9 61 11 29 11 29 22 7 10 -22 47 -33 47 -14 0 5 -17
24 -39 43 -47 41 -81 105 -81 155 0 21 -9 51 -19 67 -11 17 -18 33 -15 38 8
13 24 -1 24 -23 0 -25 16 -25 30 0 21 40 12 75 -22 90 -28 13 -32 12 -44 -3
-19 -27 -34 -10 -34 39 0 34 -5 47 -20 55 -15 8 -20 21 -20 49 0 21 -6 44 -14
50 -23 19 -61 151 -49 170 5 9 34 33 64 53 30 21 63 46 74 56 29 28 96 68 127
76 15 3 32 15 38 26 6 11 17 20 25 20 8 0 22 11 31 25 9 13 25 27 36 31 12 3
44 30 72 59 29 29 63 56 76 60 45 13 150 84 203 137 10 10 22 18 26 18 5 0 11
9 14 20 3 11 14 20 24 20 10 0 26 9 36 20 9 11 23 20 32 20 8 0 42 25 76 55
34 30 65 55 69 55 4 0 27 16 51 35 24 19 48 35 53 35 5 0 19 11 32 25 13 14
32 25 43 25 11 0 28 11 37 25 9 13 47 45 84 69 38 25 77 59 86 76 10 17 27 30
37 30 11 0 38 19 61 41 38 39 41 40 44 20 2 -13 -3 -30 -11 -39z m-3654 -1172
c25 -22 48 -40 51 -40 3 0 14 -8 25 -17 10 -10 31 -27 45 -38 15 -11 32 -24
39 -30 36 -29 87 -65 92 -65 4 0 30 -19 58 -42 55 -47 145 -113 247 -182 36
-24 72 -51 79 -60 14 -16 98 -76 107 -76 2 0 27 -18 55 -40 28 -22 56 -40 63
-40 7 0 25 -13 40 -29 l27 -29 -46 -28 c-25 -16 -65 -43 -88 -60 -23 -17 -53
-37 -67 -44 -14 -7 -64 -44 -111 -81 -48 -38 -91 -69 -96 -69 -5 0 -20 -11
-33 -25 -13 -14 -29 -25 -35 -25 -7 0 -20 -9 -30 -20 -10 -11 -23 -20 -28 -20
-10 0 -69 -46 -120 -94 -15 -14 -33 -26 -39 -26 -6 0 -29 -15 -52 -33 -23 -18
-61 -46 -86 -62 -25 -17 -51 -38 -58 -47 -7 -10 -17 -18 -23 -18 -5 0 -18 -8
-28 -17 -10 -10 -34 -28 -52 -41 -160 -111 -206 -144 -219 -154 -8 -7 -44 -37
-80 -66 -36 -29 -78 -64 -95 -78 -16 -14 -46 -34 -66 -44 -19 -10 -58 -39 -86
-64 -27 -25 -53 -43 -57 -39 -12 12 -6 48 14 78 11 17 20 40 20 53 0 13 6 35
14 51 13 23 37 94 121 356 9 28 20 70 26 94 5 24 13 49 18 55 5 6 15 34 22 61
7 28 18 59 26 70 7 11 13 28 13 39 0 10 9 37 19 60 27 58 99 283 107 336 4 25
12 56 19 70 7 14 15 44 18 68 3 24 12 51 21 61 9 10 16 29 16 42 0 13 8 40 19
59 10 19 21 53 25 75 4 22 12 45 16 50 5 6 14 30 19 53 6 23 16 61 22 84 19
79 30 82 92 28z m2041 5 c4 -19 13 -47 21 -62 8 -15 15 -39 15 -53 0 -14 6
-35 14 -46 8 -11 18 -38 21 -60 4 -21 16 -53 26 -70 11 -17 19 -43 19 -58 0
-15 7 -40 15 -55 8 -16 17 -48 21 -72 4 -24 11 -53 17 -64 6 -11 16 -42 23
-70 17 -66 52 -165 63 -179 5 -6 12 -30 16 -53 3 -23 13 -47 21 -53 7 -7 16
-28 19 -49 4 -20 12 -47 19 -61 8 -14 17 -41 20 -60 4 -19 11 -44 17 -55 8
-19 23 -67 64 -220 8 -33 22 -72 30 -87 8 -14 15 -33 15 -42 0 -9 9 -33 20
-53 11 -21 20 -48 20 -61 0 -13 9 -35 20 -49 11 -14 20 -35 20 -47 0 -12 9
-39 20 -61 18 -36 28 -105 14 -105 -11 0 -49 23 -65 39 -24 23 -48 42 -99 76
-25 16 -63 47 -85 67 -22 21 -44 38 -50 38 -5 0 -30 18 -54 40 -24 22 -60 50
-80 62 -31 19 -61 40 -107 77 -5 4 -21 14 -35 21 -13 7 -31 19 -39 26 -8 8
-52 42 -98 77 -45 34 -105 79 -132 99 -27 21 -54 38 -58 38 -5 0 -21 10 -34
23 -47 41 -103 85 -153 121 -114 81 -136 96 -144 96 -4 0 -17 10 -28 23 -33
35 -63 56 -197 142 -69 44 -125 85 -125 92 -1 14 47 53 65 53 8 0 31 15 51 33
21 18 58 46 83 62 25 16 65 46 90 66 25 20 83 63 130 94 104 71 129 89 188
140 26 22 60 47 75 55 16 8 54 36 84 62 30 26 58 48 62 48 4 0 36 25 71 55 74
64 86 67 94 20z m-982 -797 c70 -62 105 -88 116 -88 17 0 72 -51 72 -66 0 -8
21 -24 47 -37 26 -12 64 -39 85 -59 21 -21 47 -38 57 -38 25 0 33 -11 20 -26
-15 -18 -3 -33 21 -27 12 3 28 -1 38 -10 9 -8 31 -22 49 -31 30 -15 96 -67
155 -121 15 -14 31 -25 37 -25 5 0 22 -11 37 -25 15 -14 35 -25 44 -25 10 0
20 -7 24 -15 3 -8 15 -15 26 -15 12 0 25 -10 32 -25 6 -14 14 -25 17 -25 3 0
20 -11 36 -25 28 -24 29 -26 12 -39 -11 -8 -14 -17 -8 -20 5 -4 12 -2 16 4 11
17 54 11 65 -10 6 -11 17 -17 24 -14 8 3 35 -14 63 -40 26 -25 54 -46 61 -46
14 0 123 -86 135 -106 4 -8 14 -14 21 -14 8 0 19 -7 26 -16 8 -8 27 -22 44
-30 48 -23 69 -37 101 -67 l30 -28 -105 5 c-58 3 -148 8 -200 10 -52 3 -106 6
-120 5 -14 0 -119 -1 -235 -3 -227 -4 -253 -2 -235 19 19 22 9 149 -12 153
-12 2 -19 -5 -23 -25 -4 -15 -10 -35 -15 -45 -5 -9 -6 -32 -3 -51 8 -54 -21
-60 -300 -53 -127 3 -234 5 -237 6 -3 0 8 8 23 16 36 19 20 47 -22 38 -55 -12
-58 -14 -37 -30 33 -24 14 -26 -249 -29 -231 -3 -257 -1 -261 14 -11 35 -23
46 -48 46 -14 -1 -26 5 -26 11 0 18 -29 25 -51 14 -28 -15 -23 -30 9 -30 16 0
37 -9 46 -19 31 -35 12 -43 -87 -36 -51 3 -101 6 -112 6 -11 0 -171 -3 -355
-6 -184 -2 -369 -7 -411 -11 -96 -8 -106 4 -37 45 75 45 146 95 182 129 37 34
101 72 123 72 8 0 17 9 20 20 3 11 11 20 17 20 7 0 23 11 36 25 14 15 35 25
52 25 15 0 28 4 28 9 0 5 11 12 25 15 16 4 25 13 25 26 0 22 55 80 76 80 8 0
14 5 14 10 0 6 8 14 18 17 16 6 61 38 92 67 8 7 32 23 53 34 20 11 46 30 56
44 11 13 38 33 60 43 22 11 41 23 41 27 0 14 186 130 217 135 21 4 32 10 29
18 -7 18 116 120 204 169 25 14 59 43 75 65 52 69 85 71 157 9z"/>
<path d="M3740 4274 c-18 -47 -4 -94 28 -94 41 0 53 40 27 90 -19 37 -42 38
-55 4z"/>
<path d="M2773 4946 c-46 -22 -18 -55 31 -37 23 9 25 14 16 31 -12 22 -15 23
-47 6z"/>
<path d="M3100 4935 c-13 -14 -32 -25 -42 -25 -12 0 -18 -7 -18 -21 0 -17 4
-20 23 -15 12 3 32 6 44 6 26 0 47 33 38 60 -8 26 -17 25 -45 -5z"/>
<path d="M3306 4925 c-6 -17 2 -45 14 -45 15 0 32 30 26 45 -7 19 -32 19 -40
0z"/>
<path d="M2733 4813 c-20 -8 -15 -22 12 -35 41 -19 29 -28 -37 -28 -65 -1
-137 -23 -108 -33 54 -19 158 -16 190 6 41 27 47 43 20 50 -12 3 -24 15 -27
26 -5 20 -24 25 -50 14z"/>
<path d="M3106 4795 c-22 -33 -15 -65 23 -107 l29 -32 15 37 c16 38 34 46 55
25 28 -28 34 9 10 53 -32 57 -102 70 -132 24z"/>
<path d="M2837 4673 c-10 -17 -3 -113 8 -113 35 0 46 35 25 78 -21 43 -25 48
-33 35z"/>
<path d="M2716 4658 c-15 -46 -15 -99 -2 -104 25 -9 58 14 47 34 -6 10 -6 23
1 35 5 10 7 25 4 33 -7 17 -45 19 -50 2z"/>
<path d="M2996 4623 c-5 -11 -1 -22 10 -30 39 -29 71 -1 34 29 -28 22 -36 23
-44 1z"/>
<path d="M2681 4496 c-15 -18 12 -36 56 -36 32 0 83 -42 83 -67 0 -22 22 -83
30 -83 4 0 12 11 18 25 14 31 -8 95 -32 95 -9 0 -16 8 -16 19 0 14 -13 23 -48
34 -26 9 -55 19 -63 22 -9 3 -21 -1 -28 -9z"/>
<path d="M2515 4450 c-4 -7 -3 -16 3 -22 14 -14 57 -6 57 12 0 18 -50 26 -60
10z"/>
<path d="M2217 4402 c-18 -11 -27 -24 -25 -37 7 -47 98 -18 98 30 0 30 -29 33
-73 7z"/>
<path d="M2613 4363 c-23 -26 -43 -57 -43 -68 1 -27 52 -99 73 -103 21 -4 24
50 3 67 -18 15 -29 71 -16 86 19 23 60 5 76 -34 15 -35 16 -35 30 -16 18 24
10 84 -14 103 -32 24 -63 14 -109 -35z"/>
<path d="M2912 4347 c-19 -22 1 -33 60 -34 74 -2 81 10 19 31 -60 19 -66 20
-79 3z"/>
<path d="M2207 4303 c-9 -11 -17 -29 -17 -41 0 -12 -9 -26 -20 -32 -30 -16
-24 -30 13 -31 80 -2 113 -35 60 -61 -16 -7 -29 -23 -31 -36 -2 -13 -17 -29
-35 -39 l-32 -16 55 -15 c40 -10 60 -11 72 -3 10 6 27 11 38 11 12 0 20 7 20
16 0 12 -6 15 -24 10 -30 -7 -46 12 -23 29 8 6 17 27 19 46 3 36 48 60 48 25
0 -9 5 -16 10 -16 15 0 12 17 -6 45 -10 15 -26 25 -40 25 -30 0 -37 13 -22 45
20 44 -50 75 -85 38z"/>
<path d="M2833 4266 l-11 -37 46 -29 c26 -16 52 -30 59 -30 18 0 26 40 13 66
-12 21 -14 22 -37 7 -27 -18 -27 -19 -45 26 l-14 34 -11 -37z"/>
<path d="M1887 4265 c-7 -16 20 -75 33 -75 5 0 16 3 24 6 19 7 3 34 -20 34 -8
0 -14 9 -14 19 0 25 -16 36 -23 16z"/>
<path d="M2758 4135 c-16 -35 3 -72 47 -91 38 -16 81 -18 89 -5 10 15 -26 91
-43 91 -9 0 -29 7 -45 15 -36 19 -34 19 -48 -10z"/>
<path d="M2610 4130 l-35 -6 35 -8 c56 -11 89 -12 90 -1 1 14 -48 22 -90 15z"/>
<path d="M2460 4065 c-7 -9 -21 -13 -35 -9 -36 9 -39 -13 -3 -25 73 -26 141 0
93 35 -24 18 -40 18 -55 -1z"/>
<path d="M1866 4048 c-19 -27 -20 -48 -4 -83 20 -45 39 -14 51 85 3 24 -30 23
-47 -2z"/>
<path d="M2002 4053 c-16 -6 15 -32 39 -33 17 0 32 23 22 34 -7 7 -43 7 -61
-1z"/>
<path d="M2136 3971 c-9 -14 4 -41 20 -41 15 0 37 34 27 44 -9 9 -41 7 -47 -3z"/>
<path d="M4243 5242 c-13 -8 -14 -36 -10 -161 1 -49 6 -76 15 -78 7 -3 12 5
12 23 0 27 18 48 58 64 27 12 31 53 5 48 -10 -2 -19 -13 -21 -26 -4 -26 -15
-28 -37 -5 -12 11 -15 24 -10 42 21 83 17 112 -12 93z"/>
<path d="M4397 5104 c-11 -11 -8 -92 3 -99 31 -19 48 5 33 48 -16 47 -26 61
-36 51z"/>
<path d="M4125 5079 c-4 -5 5 -21 19 -34 l26 -24 0 34 c0 35 -29 51 -45 24z"/>
<path d="M4574 5025 c-9 -22 4 -35 36 -35 39 0 45 14 15 34 -30 20 -44 20 -51
1z"/>
<path d="M4300 4935 c-15 -17 -5 -35 20 -35 22 0 33 23 17 39 -15 15 -22 14
-37 -4z"/>
<path d="M4545 4930 c-11 -18 6 -30 44 -30 37 0 68 19 54 33 -10 11 -91 8 -98
-3z"/>
<path d="M4543 4854 c-3 -9 -1 -25 5 -35 7 -10 12 -28 12 -39 0 -14 7 -20 23
-20 29 0 47 -18 47 -47 0 -31 18 -29 30 2 7 19 6 36 -5 62 -15 35 -16 36 -35
18 -27 -24 -47 -7 -30 25 9 16 9 25 -1 36 -15 19 -38 18 -46 -2z"/>
<path d="M4276 4809 c-10 -16 -15 -37 -12 -45 9 -24 35 -16 42 14 3 15 8 35
11 45 8 29 -21 19 -41 -14z"/>
<path d="M4536 4697 c-23 -17 -14 -53 16 -63 17 -5 27 0 45 22 l22 29 -22 12
c-29 16 -39 16 -61 0z"/>
<path d="M4720 4682 c0 -5 9 -17 20 -27 23 -21 47 -8 37 19 -7 16 -57 23 -57
8z"/>
<path d="M4875 4671 c10 -33 -19 -73 -49 -65 -27 6 -47 -29 -28 -48 15 -15
123 -18 128 -4 6 18 -31 129 -45 134 -9 3 -11 -2 -6 -17z"/>
<path d="M4270 4643 c1 -14 74 -64 90 -61 27 6 16 31 -17 40 -18 5 -33 13 -33
18 0 6 -9 10 -20 10 -11 0 -20 -3 -20 -7z"/>
<path d="M4237 4578 c3 -18 14 -45 24 -60 11 -14 19 -31 19 -37 0 -14 47 -14
55 0 4 6 -2 13 -14 16 -12 3 -21 11 -21 18 0 6 -9 20 -19 29 -11 10 -22 28
-25 42 -10 36 -26 29 -19 -8z"/>
<path d="M5060 4519 c0 -36 17 -72 31 -64 5 4 9 15 9 26 0 11 7 22 15 25 34
14 9 44 -36 44 -15 0 -19 -7 -19 -31z"/>
<path d="M4910 4505 c-14 -17 -6 -44 14 -48 20 -4 31 32 15 48 -14 15 -17 15
-29 0z"/>
<path d="M5092 4428 c-7 -7 -39 -13 -71 -14 -65 -1 -81 -7 -81 -33 0 -55 70
-57 121 -3 25 28 33 28 52 0 21 -32 28 -20 14 25 -13 40 -17 43 -35 25z"/>
<path d="M4685 4421 c-58 -8 -95 -26 -95 -46 0 -8 3 -15 8 -16 4 -1 21 -3 37
-5 160 -20 150 -17 153 -46 3 -29 19 -38 27 -15 2 6 -1 39 -8 72 -14 68 -18
70 -122 56z"/>
<path d="M4880 4345 c0 -30 2 -55 4 -55 2 0 12 -3 20 -6 14 -5 15 -2 6 21 -5
14 -10 42 -10 61 0 19 -4 34 -10 34 -5 0 -10 -25 -10 -55z"/>
<path d="M4430 4192 c0 -88 3 -112 14 -112 28 0 27 183 -2 212 -9 9 -12 -14
-12 -100z"/>
<path d="M4649 4266 c-18 -9 -23 -19 -21 -40 2 -15 -2 -34 -8 -41 -9 -10 -7
-16 7 -24 32 -17 45 -76 21 -97 -30 -28 -21 -69 17 -69 29 0 30 2 31 44 1 48
20 71 60 71 26 0 34 33 25 105 -6 49 -6 50 -42 51 -21 1 -44 4 -52 7 -8 3 -25
0 -38 -7z"/>
<path d="M5252 4268 c-19 -19 -15 -28 23 -44 34 -14 45 -36 25 -49 -22 -13 11
-36 42 -30 18 4 35 2 44 -6 19 -16 39 10 39 51 0 16 8 28 23 35 30 13 28 17
-16 36 -45 20 -162 25 -180 7z"/>
<path d="M5604 4237 c-18 -16 -25 -30 -21 -40 10 -25 25 -20 42 13 9 17 22 30
31 30 8 0 12 5 9 10 -10 16 -32 12 -61 -13z"/>
<path d="M5298 4109 c-27 -15 -23 -49 5 -49 36 0 54 16 41 37 -14 22 -25 25
-46 12z"/>
<path d="M5723 4031 c-20 -25 -21 -30 -7 -35 22 -8 24 -8 24 8 0 7 14 16 31
20 36 7 35 30 -2 33 -16 2 -31 -7 -46 -26z"/>
<path d="M5260 4019 c-14 -6 -40 -7 -58 -4 -36 7 -75 -2 -67 -14 9 -16 91 -19
150 -7 55 11 58 13 38 24 -25 14 -30 14 -63 1z"/>
<path d="M5740 3961 c0 -10 -12 -39 -26 -65 -14 -25 -23 -50 -19 -56 12 -19
119 -6 154 20 43 30 23 45 -41 30 -56 -13 -61 -12 -51 3 14 21 31 76 25 82
-13 13 -42 4 -42 -14z"/>
<path d="M5050 3860 c-20 -13 -9 -21 39 -27 44 -6 56 8 22 27 -24 12 -41 13
-61 0z"/>
<path d="M5587 3854 c-13 -13 5 -24 38 -24 37 0 54 14 29 24 -21 8 -59 8 -67
0z"/>
<path d="M3813 3513 c-37 -7 -48 -29 -28 -59 15 -23 18 -24 33 -11 41 35 61
39 107 21 46 -17 95 -3 95 26 0 10 -6 11 -95 15 -27 1 -59 4 -70 7 -11 3 -30
4 -42 1z"/>
<path d="M3695 3490 c-9 -15 4 -50 19 -50 20 0 39 27 32 45 -6 17 -42 20 -51
5z"/>
<path d="M4401 3413 c0 -29 6 -77 14 -108 14 -56 12 -85 -7 -85 -7 0 -8 -16
-3 -42 12 -72 16 -111 16 -150 0 -38 25 -73 33 -47 9 27 18 95 19 151 1 31 5
60 9 64 4 4 3 13 -3 21 -7 7 -12 36 -13 64 -1 41 -5 54 -21 63 -11 6 -22 12
-25 14 -2 2 -7 27 -11 55 l-6 52 -2 -52z"/>
<path d="M3268 3425 c-9 -19 -8 -32 1 -52 l13 -28 15 29 c15 29 11 76 -7 76
-6 0 -16 -11 -22 -25z"/>
<path d="M3355 3365 c0 -40 3 -47 23 -52 33 -8 50 12 23 26 -14 8 -21 21 -21
41 0 17 -5 30 -12 30 -9 0 -13 -16 -13 -45z"/>
<path d="M3771 3381 c-22 -22 -17 -56 12 -102 12 -18 14 -35 8 -67 -9 -44 -1
-58 24 -48 17 6 20 49 5 77 -12 22 3 59 24 59 35 0 36 27 2 64 -40 41 -49 43
-75 17z"/>
<path d="M4212 3278 c-7 -7 -12 -18 -12 -25 0 -8 -11 -24 -25 -37 -21 -20 -23
-27 -15 -56 6 -21 6 -39 -1 -52 -14 -27 -4 -48 22 -48 28 0 59 27 52 45 -2 8
2 23 9 34 12 17 13 32 4 80 -12 67 -17 76 -34 59z"/>
<path d="M3697 3254 c-4 -4 -7 -16 -7 -27 0 -11 -7 -28 -16 -38 -34 -38 18
-67 65 -37 15 9 17 16 10 30 -5 10 -8 30 -7 46 3 27 -27 44 -45 26z"/>
<path d="M3390 3216 c0 -21 -6 -36 -16 -40 -8 -3 -12 -10 -9 -16 4 -6 11 -7
17 -4 5 4 21 1 34 -7 41 -22 98 12 90 53 -8 43 -15 47 -33 21 -20 -30 -41 -29
-53 2 -14 36 -30 31 -30 -9z"/>
<path d="M3912 3242 c-50 -32 -78 -116 -42 -127 28 -9 40 2 40 34 0 20 7 31
25 39 17 8 25 20 25 37 0 26 -21 33 -48 17z"/>
<path d="M3104 3203 c-3 -10 -10 -25 -15 -33 -47 -77 -52 -93 -33 -107 25 -18
31 -17 49 11 9 13 25 26 37 29 31 9 15 117 -18 117 -8 0 -17 -8 -20 -17z"/>
<path d="M3934 3127 c-8 -21 14 -67 31 -67 20 0 35 40 23 63 -10 20 -46 23
-54 4z"/>
<path d="M3386 3108 c-10 -6 -26 -8 -36 -5 -16 4 -52 -19 -39 -24 21 -8 151
-11 158 -4 16 17 -59 46 -83 33z"/>
<path d="M3202 3103 c-32 -6 -22 -28 14 -28 19 0 30 6 32 18 3 17 -2 18 -46
10z"/>
<path d="M3661 3096 c-13 -16 4 -26 44 -26 13 0 31 3 39 6 27 10 -1 34 -39 34
-18 0 -38 -6 -44 -14z"/>
<path d="M4162 3033 c-32 -6 -26 -45 8 -54 49 -12 82 29 41 51 -11 5 -21 9
-23 9 -2 -1 -13 -4 -26 -6z"/>
<path d="M3454 3022 c-21 -13 -34 -103 -17 -109 24 -9 47 10 61 52 17 50 -7
81 -44 57z"/>
<path d="M3773 3008 c-10 -18 -5 -56 14 -100 26 -60 -6 -99 -47 -58 -44 44
-92 -5 -68 -70 7 -20 13 -22 49 -17 23 3 52 1 65 -5 34 -16 54 5 54 56 0 142
-35 244 -67 194z"/>
<path d="M2962 2923 c4 -19 30 -28 55 -19 23 9 -3 36 -34 36 -18 0 -24 -5 -21
-17z"/>
<path d="M3508 2866 c-22 -12 -34 -12 -58 -3 -36 14 -75 -12 -52 -35 7 -7 12
-24 12 -40 0 -47 65 -66 97 -28 10 11 28 20 40 20 26 0 39 34 29 75 -7 28 -28
32 -68 11z"/>
<path d="M4143 2836 c2 -17 -1 -39 -7 -48 -12 -21 2 -53 24 -53 27 0 35 33 15
55 -20 22 -20 22 3 41 18 14 27 16 41 7 22 -14 91 -2 91 15 0 9 -24 13 -86 14
l-86 0 5 -31z"/>
<path d="M3018 2836 c-21 -11 -38 -26 -38 -32 0 -6 -7 -17 -15 -24 -17 -14
-17 -51 1 -57 6 -2 16 8 22 21 7 16 24 28 47 35 36 10 74 45 75 69 0 19 -50
13 -92 -12z"/>
<path d="M4393 2838 c-11 -13 -27 -27 -36 -33 -12 -7 -15 -17 -11 -32 9 -33
33 -28 41 7 4 20 16 36 34 46 16 8 29 19 29 24 0 18 -36 10 -57 -12z"/>
<path d="M4550 2808 c0 -7 14 -29 29 -48 29 -34 30 -34 50 -16 24 22 13 46
-21 46 -10 0 -21 7 -24 15 -7 18 -34 20 -34 3z"/>
<path d="M4453 2753 c-23 -26 -31 -63 -14 -63 10 0 51 65 51 81 0 16 -14 9
-37 -18z"/>
<path d="M3378 2669 c-57 -32 19 -65 89 -38 l28 11 -24 19 c-25 21 -66 24 -93
8z"/>
<path d="M3990 2646 c0 -18 6 -39 14 -45 7 -6 16 -37 19 -68 6 -61 31 -101 43
-69 4 9 2 27 -3 39 -15 33 6 77 39 84 20 4 28 12 28 27 0 47 -43 61 -62 21
-15 -34 -40 -28 -50 13 -11 42 -28 41 -28 -2z"/>
<path d="M3692 2658 c-15 -15 -15 -53 0 -78 10 -15 9 -23 -6 -39 -13 -14 -15
-21 -6 -21 7 0 18 7 25 16 10 15 14 14 38 -12 26 -27 28 -28 44 -11 17 17 17
19 -5 36 -18 13 -22 23 -17 42 11 45 -44 96 -73 67z"/>
<path d="M4608 2653 c-26 -7 -25 -73 0 -73 26 0 42 20 42 52 0 28 -6 31 -42
21z"/>
<path d="M3824 2616 c-3 -13 -3 -35 1 -47 7 -22 8 -22 22 -3 16 22 14 66 -4
71 -7 3 -15 -7 -19 -21z"/>
<path d="M4400 2622 c-16 -6 -12 -18 19 -51 27 -28 29 -29 34 -11 3 13 17 22
36 26 30 6 44 32 19 36 -25 3 -98 3 -108 0z"/>
<path d="M3311 2579 c-33 -13 -10 -39 35 -39 39 0 47 -23 14 -40 -17 -9 -18
-14 -8 -36 19 -41 -13 -66 -45 -36 l-24 23 -16 -25 c-23 -35 0 -54 46 -39 35
11 133 11 184 -1 43 -10 64 26 45 78 -7 18 -12 41 -12 51 0 17 -1 17 -19 1
-33 -30 -75 -18 -79 22 -5 47 -60 66 -121 41z"/>
<path d="M4120 2488 c-23 -9 -24 -10 -8 -22 25 -18 38 -58 27 -79 -9 -16 -13
-15 -51 4 l-40 20 -22 -20 c-14 -13 -36 -21 -58 -21 -26 0 -38 -5 -42 -17 -22
-81 -14 -110 29 -99 29 7 65 -15 65 -40 0 -26 23 -25 51 2 22 21 28 35 24 51
-7 29 22 90 37 75 5 -5 10 -30 10 -55 0 -58 18 -87 43 -67 13 10 15 23 10 49
-3 20 -9 75 -12 124 -6 96 -17 113 -63 95z"/>
<path d="M3753 2458 c-37 -18 -28 -38 17 -38 33 0 40 4 40 19 0 15 -22 35 -33
30 -1 0 -12 -5 -24 -11z"/>
<path d="M3711 2346 c-14 -17 -3 -106 13 -106 8 0 12 21 13 55 2 57 -7 74 -26
51z"/>
<path d="M3383 2334 c-9 -25 20 -49 36 -30 7 9 11 23 7 31 -7 20 -35 19 -43
-1z"/>
<path d="M3476 2315 c-4 -11 -14 -33 -22 -48 -16 -33 -11 -47 17 -47 26 0 31
16 20 70 -6 35 -10 41 -15 25z"/>
<path d="M3797 2273 c-4 -3 -7 -14 -7 -24 0 -10 -9 -21 -20 -24 -21 -7 -26
-30 -11 -54 8 -12 12 -9 22 15 7 16 21 36 31 44 12 10 17 22 12 33 -6 18 -16
22 -27 10z"/>
<path d="M3712 1958 c3 -50 5 -53 28 -50 35 4 46 17 33 44 -6 13 -14 31 -17
41 -3 9 -15 17 -26 17 -19 0 -21 -5 -18 -52z"/>
<path d="M1418 3048 c-5 -14 13 -68 22 -68 7 0 40 59 40 71 0 14 -58 11 -62
-3z"/>
<path d="M1877 2863 c-16 -15 -7 -61 12 -66 15 -3 18 -11 14 -26 -8 -30 -49
-25 -46 5 3 25 -41 48 -85 44 -15 -1 -46 -2 -70 -1 -30 0 -42 -4 -39 -12 2 -7
26 -12 63 -13 74 0 117 -17 110 -42 -12 -37 25 -56 72 -36 24 10 32 19 32 38
0 18 8 27 30 35 35 12 37 17 10 31 -13 7 -26 8 -37 1 -14 -7 -20 -4 -30 20
-12 29 -23 35 -36 22z"/>
<path d="M1471 2816 c-14 -26 -8 -46 14 -46 16 0 31 43 20 59 -10 17 -21 13
-34 -13z"/>
<path d="M2096 2671 c-10 -11 -15 -24 -12 -30 10 -15 77 -35 85 -24 3 5 15 15
26 22 18 11 18 12 -7 7 -20 -5 -31 0 -46 19 -24 30 -24 30 -46 6z"/>
<path d="M1787 2674 c-12 -12 -8 -41 9 -54 22 -19 54 12 38 38 -12 19 -36 27
-47 16z"/>
<path d="M1912 2648 c-7 -7 -12 -20 -12 -30 0 -9 -9 -22 -20 -28 -11 -6 -20
-20 -20 -31 0 -12 -13 -34 -30 -49 -17 -16 -30 -38 -30 -52 l1 -23 18 22 c26
31 90 4 91 -39 0 -31 17 -45 33 -29 8 8 6 20 -8 47 -15 29 -17 39 -7 52 23 33
25 45 9 57 -17 13 -13 29 24 98 11 21 -29 25 -49 5z"/>
<path d="M2240 2584 c0 -16 7 -39 15 -51 10 -14 12 -24 5 -28 -15 -9 -12 -25
5 -25 8 0 15 9 15 21 0 13 11 25 35 35 45 18 44 30 -2 39 -21 4 -46 14 -55 22
-17 15 -18 14 -18 -13z"/>
<path d="M1677 2560 c-14 -11 -30 -20 -35 -20 -18 0 -23 -19 -12 -40 14 -27
28 -25 41 4 7 14 26 28 50 35 41 12 49 25 23 35 -26 10 -40 7 -67 -14z"/>
<path d="M2076 2513 c-15 -84 -13 -108 12 -111 29 -4 38 20 21 60 -11 28 -11
32 10 49 21 18 21 18 2 28 -32 17 -38 13 -45 -26z"/>
<path d="M1480 2457 c0 -48 35 -81 56 -52 29 39 11 85 -33 85 -19 0 -23 -5
-23 -33z"/>
<path d="M2212 2428 c-14 -14 -16 -44 -3 -53 16 -9 89 7 95 21 15 39 -60 64
-92 32z"/>
<path d="M2206 2327 c-7 -30 -30 -41 -56 -27 -10 6 -34 10 -54 10 -19 0 -38 5
-41 10 -12 19 -25 10 -19 -14 3 -13 1 -34 -6 -45 -14 -27 5 -29 33 -4 18 17
20 17 38 -6 14 -17 25 -22 43 -17 17 4 26 1 30 -10 9 -23 -2 -34 -33 -34 -36
0 -70 -23 -51 -35 24 -15 128 -14 140 1 10 11 16 11 36 -3 57 -37 51 66 -6
109 -35 26 -37 34 -10 41 23 6 28 37 6 37 -8 0 -21 3 -29 6 -10 3 -17 -3 -21
-19z"/>
<path d="M1797 2308 c-21 -119 -20 -124 9 -147 18 -15 35 -20 49 -16 21 7 24
7 65 3 17 -2 25 2 25 12 0 10 -10 15 -30 15 -62 1 -96 38 -50 55 34 13 34 50
0 50 -17 0 -29 9 -40 30 -19 38 -21 37 -28 -2z"/>
<path d="M1955 2288 c-11 -28 -1 -53 23 -56 27 -4 28 4 2 43 -16 24 -20 26
-25 13z"/>
<path d="M1637 2173 c-13 -12 -7 -24 16 -32 26 -10 47 -4 47 14 0 20 -48 34
-63 18z"/>
<path d="M2065 1918 l-30 -30 24 -19 c26 -21 41 -17 41 11 0 10 7 25 15 34 8
8 15 19 15 25 0 20 -35 9 -65 -21z"/>
<path d="M1920 1876 c0 -27 -6 -39 -26 -52 -18 -12 -24 -23 -20 -37 3 -12 -1
-25 -11 -32 -18 -14 -10 -50 13 -59 11 -4 19 3 27 24 12 32 26 37 45 18 14
-14 16 -64 3 -73 -5 -3 -12 -18 -16 -34 -3 -16 -13 -32 -21 -35 -17 -6 -19
-52 -2 -62 6 -4 19 3 30 16 17 21 22 22 39 12 11 -7 24 -10 29 -7 12 7 3 80
-13 113 -8 17 -8 25 1 34 25 25 14 65 -24 87 -34 20 -36 24 -31 61 3 27 1 43
-9 51 -12 9 -14 5 -14 -25z"/>
<path d="M1762 1893 c3 -5 11 -23 18 -40 8 -18 17 -33 21 -33 4 0 13 15 20 33
7 17 14 35 17 40 2 4 -15 7 -38 7 -23 0 -40 -3 -38 -7z"/>
<path d="M2187 1853 c-15 -15 -6 -53 17 -68 50 -33 32 -141 -31 -191 -40 -33
-82 31 -63 96 11 39 -4 94 -24 87 -17 -6 -27 -198 -11 -215 21 -23 218 -22
223 1 2 10 -3 17 -13 17 -21 0 -30 27 -15 45 10 12 10 22 2 39 -12 28 -7 36
24 36 29 0 42 20 22 34 -8 6 -27 34 -42 61 -35 62 -66 82 -89 58z"/>
<path d="M1755 1743 c-39 -9 -36 -20 10 -33 40 -11 48 -11 62 3 30 29 -8 45
-72 30z"/>
<path d="M1881 1466 c-21 -25 -26 -86 -8 -86 19 0 47 49 47 80 0 23 -22 27
-39 6z"/>
<path d="M1874 1295 c-10 -24 12 -42 34 -29 24 16 21 38 -6 42 -13 2 -25 -3
-28 -13z"/>
<path d="M2077 1134 c-3 -4 -2 -15 3 -25 10 -18 70 -9 70 11 0 16 -59 27 -73
14z"/>
<path d="M5985 3064 c-13 -11 -34 -14 -63 -11 -51 5 -62 -6 -27 -29 19 -12 28
-14 39 -5 7 6 29 10 47 9 26 -2 34 1 37 16 6 27 -10 37 -33 20z"/>
<path d="M6155 2986 c-7 -33 -1 -56 13 -56 4 0 8 12 8 28 1 15 3 33 5 41 2 7
-1 15 -8 18 -7 3 -14 -10 -18 -31z"/>
<path d="M6025 2982 c-27 -14 -66 -28 -85 -31 -52 -9 -50 -45 3 -49 20 -2 37
-7 37 -13 0 -5 10 -9 22 -9 20 0 20 1 5 18 -10 10 -17 26 -17 35 0 23 68 24
85 1 10 -14 12 -9 12 30 0 25 -3 45 -6 45 -3 -1 -28 -13 -56 -27z"/>
<path d="M6072 2818 c-18 -18 -14 -38 7 -38 22 0 45 25 36 40 -8 13 -28 13
-43 -2z"/>
<path d="M5542 2793 c-20 -30 -38 -165 -26 -197 6 -16 8 -16 26 1 16 14 23 15
38 5 26 -16 27 -15 40 9 14 26 0 44 -40 53 -34 6 -40 37 -15 70 17 22 20 72 6
81 -5 3 -18 -7 -29 -22z"/>
<path d="M6063 2743 c-7 -3 -13 -13 -13 -24 0 -23 45 -27 54 -4 6 16 -22 35
-41 28z"/>
<path d="M5681 2684 c-30 -51 -15 -143 22 -128 13 4 15 15 10 53 -3 31 -1 51
6 55 16 10 14 56 -3 56 -8 0 -23 -16 -35 -36z"/>
<path d="M5364 2637 c-18 -16 -25 -30 -21 -40 14 -38 77 -4 77 41 0 29 -22 28
-56 -1z"/>
<path d="M5195 2611 c-6 -11 18 -19 70 -23 21 -2 30 1 30 12 0 18 -89 27 -100
11z"/>
<path d="M5164 2418 c-11 -17 -13 -158 -3 -185 10 -28 39 -30 69 -5 23 18 23
19 6 69 -13 39 -14 56 -6 78 6 16 9 34 6 42 -7 16 -62 17 -72 1z"/>
<path d="M5755 2401 c-18 -17 -28 -18 -115 -11 -72 6 -102 5 -127 -5 -64 -27
-33 -48 56 -39 95 10 125 -25 86 -100 -19 -37 -19 -52 1 -60 37 -14 54 3 54
55 0 64 10 82 65 115 40 23 60 54 36 54 -5 0 -15 2 -23 5 -7 3 -22 -3 -33 -14z"/>
<path d="M5886 2348 c-31 -106 -30 -148 3 -148 27 0 33 11 16 30 -16 18 -11
43 17 81 6 9 8 24 5 33 -7 19 -36 22 -41 4z"/>
<path d="M5511 2227 c-18 -18 -13 -32 19 -60 35 -31 35 -35 15 -64 -14 -20
-14 -23 5 -33 36 -19 48 -56 38 -119 -10 -64 -20 -78 -38 -56 -7 8 -18 15 -26
15 -7 0 -16 9 -19 20 -7 23 -24 25 -50 7 -17 -13 -16 -15 13 -25 36 -12 39
-28 15 -70 -15 -26 -15 -34 -4 -55 11 -21 11 -28 -4 -50 -19 -30 -13 -62 16
-77 11 -6 19 -21 19 -35 0 -51 60 -26 75 32 6 27 25 26 40 -3 24 -47 44 -66
60 -60 16 6 16 8 1 31 -26 39 -7 102 22 73 9 -9 15 -9 23 -1 16 16 2 33 -26
33 -36 0 -43 25 -39 130 2 52 4 104 4 115 0 11 0 33 -1 48 0 20 -6 30 -24 37
-19 7 -25 17 -25 39 0 20 -7 34 -20 41 -11 6 -28 28 -36 50 -17 42 -35 55 -53
37z m99 -405 c0 -30 -33 -112 -45 -112 -16 0 -55 77 -55 107 0 18 6 21 50 20
35 -1 50 -5 50 -15z"/>
<path d="M5751 2211 c-14 -25 -14 -48 0 -57 14 -8 29 14 29 43 0 30 -17 38
-29 14z"/>
<path d="M5791 2087 c-15 -19 -5 -44 20 -50 12 -3 19 -14 19 -29 0 -31 10 -41
27 -27 17 15 17 43 -1 59 -8 6 -16 21 -18 33 -4 26 -30 34 -47 14z"/>
<path d="M5797 1933 c-2 -5 -1 -30 2 -57 5 -44 8 -47 20 -33 7 10 20 17 27 17
22 0 16 27 -11 55 -28 27 -32 29 -38 18z"/>
<path d="M5321 1797 c-1 -20 -8 -30 -26 -37 -16 -6 -25 -17 -25 -30 0 -14 -10
-24 -29 -31 -24 -9 -29 -17 -35 -56 -8 -57 -6 -90 3 -43 4 24 12 36 26 39 11
2 25 11 32 20 6 9 22 16 35 16 28 0 49 88 30 128 -10 21 -11 21 -11 -6z"/>
<path d="M5536 1483 c-21 -78 -18 -91 18 -77 22 8 23 94 2 94 -8 0 -17 -8 -20
-17z"/>
<path d="M5590 1201 c0 -28 13 -33 38 -15 31 21 27 34 -8 34 -23 0 -30 -5 -30
-19z"/>
<path d="M3720 1389 c-13 -23 2 -49 27 -49 34 0 10 -55 -27 -60 -42 -6 -52
-36 -20 -65 13 -11 20 -31 21 -54 0 -29 2 -32 9 -15 4 11 20 28 34 37 18 12
26 26 26 46 0 20 7 31 25 39 38 17 35 61 -5 69 -41 8 -48 23 -22 44 31 24 28
29 -18 29 -29 0 -42 -5 -50 -21z"/>
<path d="M4054 1329 c-3 -6 3 -20 14 -31 l20 -20 11 21 c19 34 -25 63 -45 30z"/>
<path d="M3383 1214 c-3 -8 2 -23 11 -32 15 -15 18 -15 39 6 19 19 20 24 7 32
-23 15 -50 12 -57 -6z"/>
<path d="M4191 1207 c-5 -13 -19 -27 -31 -30 -12 -3 -20 -11 -18 -19 7 -20 37
-21 45 -1 3 10 12 22 20 26 15 9 17 33 3 42 -6 3 -14 -5 -19 -18z"/>
<path d="M3295 1193 c5 -10 10 -33 13 -50 7 -56 37 -37 38 25 1 40 -1 42 -29
42 -24 0 -28 -3 -22 -17z"/>
<path d="M3637 1154 c-10 -10 -9 -52 2 -58 13 -8 33 20 29 40 -3 19 -20 28
-31 18z"/>
<path d="M3467 1080 c-21 -35 -15 -50 19 -50 27 0 31 21 11 57 l-13 23 -17
-30z"/>
<path d="M4166 1081 c-11 -12 -16 -31 -14 -53 4 -44 22 -42 26 3 2 27 8 38 24
42 11 3 17 10 13 16 -10 17 -30 13 -49 -8z"/>
<path d="M3835 1050 c-4 -6 1 -34 12 -61 l18 -51 -29 -23 c-25 -20 -28 -26
-17 -39 19 -23 50 -19 77 9 13 14 32 25 44 25 28 0 27 3 -30 71 -27 33 -50 64
-50 70 0 12 -17 12 -25 -1z"/>
<path d="M4242 1013 c4 -19 30 -28 55 -19 23 9 -3 36 -34 36 -18 0 -24 -5 -21
-17z"/>
<path d="M3315 1010 c-30 -12 -50 -39 -53 -74 -11 -121 6 -147 62 -98 20 17
52 34 73 37 21 4 44 8 51 10 22 7 13 51 -17 79 l-28 27 -6 -23 c-7 -23 -62
-62 -77 -53 -14 9 24 75 47 81 13 3 20 10 17 15 -6 11 -42 11 -69 -1z"/>
<path d="M4061 971 c-8 -5 -11 -16 -7 -27 4 -11 -1 -25 -15 -40 -25 -27 -19
-56 17 -72 52 -24 75 -8 48 33 -15 23 -15 27 0 50 20 30 20 30 0 49 -18 18
-24 19 -43 7z"/>
<path d="M3740 943 c-14 -7 -44 -13 -67 -13 -52 0 -73 -25 -73 -87 0 -49 23
-60 41 -19 15 32 48 46 96 39 54 -7 67 10 45 58 -16 34 -18 35 -42 22z"/>
<path d="M4513 939 c-12 -12 -7 -77 7 -92 4 -5 19 -1 33 8 14 9 39 17 56 17
44 1 38 15 -9 23 -25 4 -46 15 -57 31 -14 19 -21 22 -30 13z"/>
<path d="M2993 932 c-19 -12 -24 -50 -13 -92 13 -46 30 -48 42 -4 15 51 -3
112 -29 96z"/>
<path d="M4237 924 c-11 -11 -8 -52 4 -60 14 -8 30 15 27 40 -3 21 -20 31 -31
20z"/>
<path d="M4319 928 c0 -2 -1 -23 -2 -48 l-2 -45 55 -5 c30 -3 60 -9 67 -13 7
-4 16 0 22 10 13 25 -4 53 -34 53 -25 0 -85 30 -85 43 0 6 -19 11 -21 5z"/>
<path d="M4415 780 c-22 -24 -6 -50 31 -50 27 0 34 36 12 58 -16 16 -22 15
-43 -8z"/>
<path d="M4545 771 c-3 -5 -1 -13 5 -16 15 -9 91 5 84 16 -7 12 -81 12 -89 0z"/>
<path d="M4053 753 c-20 -7 -16 -19 18 -53 31 -30 59 -34 59 -7 0 24 -56 68
-77 60z"/>
<path d="M2944 737 c-8 -4 -33 -7 -57 -5 -23 2 -42 -1 -42 -7 0 -6 47 -10 120
-11 66 0 135 -4 152 -8 38 -9 106 10 100 27 -4 14 -249 17 -273 4z"/>
<path d="M3708 742 c0 -4 -2 -26 -3 -48 -1 -33 -10 -52 -43 -91 -23 -28 -39
-53 -35 -57 15 -14 173 -6 180 9 8 22 -3 29 -49 34 -3 1 -6 25 -4 54 1 50 3
52 30 52 28 0 57 27 43 41 -9 10 -117 15 -119 6z"/>
<path d="M3264 708 c3 -21 0 -40 -9 -52 -32 -43 -20 -66 35 -66 48 0 49 -1 56
-35 8 -47 17 -50 42 -15 23 31 12 50 -30 50 -22 0 -61 91 -53 123 7 24 5 27
-20 27 -25 0 -27 -2 -21 -32z"/>
<path d="M4562 677 c-24 -26 -27 -38 -13 -65 5 -9 13 -35 18 -57 7 -36 11 -40
41 -43 42 -4 44 28 6 84 -29 42 -24 64 16 74 41 10 36 30 -7 30 -28 0 -46 -7
-61 -23z"/>
<path d="M4277 663 c-13 -13 -7 -50 11 -66 25 -22 52 -22 52 1 0 21 -53 76
-63 65z"/>
<path d="M2555 597 c-16 -63 28 -101 98 -83 48 12 54 26 11 26 -14 0 -36 15
-57 40 -39 46 -45 48 -52 17z"/>
<path d="M4903 613 c-15 -5 -17 -49 -3 -58 6 -3 10 -15 10 -26 0 -30 17 -22
24 12 12 62 3 84 -31 72z"/>
<path d="M2880 564 c0 -14 79 -27 104 -18 9 4 15 12 13 18 -5 15 -117 15 -117
0z"/>
<path d="M6474 5286 c-12 -31 0 -51 31 -51 27 0 30 3 30 30 0 34 -49 51 -61
21z"/>
<path d="M7529 4783 c-15 -4 -39 -43 -39 -63 0 -11 36 -35 67 -44 15 -5 28 -1
42 13 50 50 1 113 -70 94z"/>
<path d="M7470 1621 c-26 -49 5 -83 59 -66 39 12 19 85 -24 85 -14 0 -29 -8
-35 -19z"/>
<path d="M557 722 c-33 -36 -16 -62 39 -62 28 0 39 19 30 55 -8 30 -45 34 -69
7z"/>
<path d="M417 627 c-8 -22 17 -51 37 -44 25 10 17 51 -10 55 -12 2 -24 -3 -27
-11z"/>
<path d="M523 543 c-22 -8 -14 -30 15 -42 32 -13 82 2 82 25 0 21 -61 32 -97
17z"/>
<path d="M358 508 c-37 -13 -35 -28 8 -55 44 -28 48 -28 84 -1 38 28 38 43 -1
57 -38 13 -55 13 -91 -1z"/>
<path d="M554 455 c-14 -35 41 -60 66 -30 10 12 10 18 0 30 -16 19 -59 19 -66
0z"/>
<path d="M307 253 c-13 -13 -7 -81 8 -93 19 -16 81 9 92 37 13 32 -75 82 -100
56z"/>
<path d="M1446 107 c-28 -20 -17 -52 18 -52 36 0 56 26 37 49 -16 19 -31 20
-55 3z"/>
<path d="M7027 93 c-14 -13 -7 -71 9 -77 17 -7 84 18 84 32 0 29 -74 65 -93
45z"/>
</g>
</svg>
