<svg version="1.0" xmlns="http://www.w3.org/2000/svg" width="260.000000pt" height="135.000000pt" viewBox="0 0 260.000000 135.000000" preserveAspectRatio="xMidYMid meet" style="width: 432.282px; height: auto;"> <g transform="translate(0.000000,135.000000) scale(0.100000,-0.100000)" fill="#ffffff" stroke="none"> <path d="M948 1213 c6 -2 18 -2 25 0 6 3 1 5 -13 5 -14 0 -19 -2 -12 -5z"></path> <path d="M918 1066 c-84 -18 -87 -22 -90 -139 l-3 -102 -48 -7 c-73 -10 -76 -15 -79 -136 l-3 -107 -60 -7 c-33 -4 -80 -13 -105 -20 l-45 -14 -3 -165 -2 -166 24 -11 c101 -46 588 -65 946 -37 174 13 238 25 268 48 18 14 17 310 -1 325 -18 15 -124 42 -164 42 l-33 0 0 109 c0 81 -4 112 -14 120 -11 9 -107 31 -138 31 -5 0 -8 45 -8 100 0 92 -2 101 -22 114 -55 35 -300 48 -420 22z m347 -17 c62 -12 84 -24 69 -39 -13 -13 -33 -17 -143 -32 -87 -11 -260 1 -317 22 -114 44 208 84 391 49z m-325 -81 c102 -21 293 -12 390 17 13 4 15 -9 12 -84 -4 -105 -3 -104 -139 -121 -98 -12 -222 -6 -300 16 l-53 15 0 90 c0 83 2 91 18 84 9 -3 42 -11 72 -17z m-87 -172 c41 -26 141 -38 284 -34 119 3 145 7 185 27 39 19 57 21 101 16 110 -14 102 -36 -20 -55 -113 -18 -460 -18 -574 -1 -121 18 -142 36 -62 51 57 11 62 11 86 -4z m112 -76 c168 -12 409 0 490 24 25 8 45 12 46 10 0 -2 0 -50 1 -105 0 -111 0 -112 -62 -124 -72 -14 -501 -18 -594 -5 -144 20 -136 12 -136 133 l0 104 52 -13 c28 -8 120 -18 203 -24z m-257 -180 c17 -20 35 -24 157 -40 107 -14 417 -11 530 5 75 10 104 18 116 33 15 19 19 19 90 7 123 -22 135 -34 54 -54 -151 -38 -797 -44 -1037 -11 -82 12 -125 27 -112 40 7 7 128 34 177 39 5 1 16 -8 25 -19z m-138 -68 c224 -44 985 -39 1103 7 16 6 30 11 33 11 2 0 4 -63 4 -139 l0 -139 -31 -11 c-76 -26 -224 -35 -574 -35 -364 0 -511 10 -581 39 l-34 14 0 137 c0 106 3 135 13 131 7 -2 37 -10 67 -15z" class=""></path> <path d="M2097 1068 c4 -7 6 -25 4 -40 -1 -16 2 -28 8 -28 7 0 9 11 5 28 l-5 27 19 -22 c27 -31 32 -29 32 12 0 19 -4 35 -9 35 -5 0 -7 -10 -4 -22 l6 -23 -25 23 c-26 24 -44 29 -31 10z"></path> <path d="M2182 1068 c-16 -16 -15 -43 2 -57 20 -17 43 -4 57 32 l13 32 4 -30 c6 -47 22 -55 22 -11 0 22 4 35 10 31 6 -3 10 -1 10 4 0 6 -13 11 -30 11 -17 0 -30 -5 -30 -12 0 -9 -3 -9 -12 0 -7 7 -17 12 -23 12 -6 0 -16 -5 -23 -12z m34 -13 c4 -8 3 -23 0 -32 -6 -15 -8 -15 -22 -2 -8 9 -12 23 -8 32 8 21 23 22 30 2z"></path> <path d="M2320 1070 c0 -5 7 -7 17 -3 14 5 15 1 10 -30 -3 -21 -2 -37 4 -37 5 0 9 15 9 34 0 19 6 37 13 39 6 3 -3 6 -20 6 -18 1 -33 -3 -33 -9z"></path> <path d="M2390 1065 c-25 -30 16 -79 46 -54 19 16 18 55 -2 63 -23 9 -30 8 -44 -9z m40 -19 c0 -14 -5 -28 -10 -31 -13 -8 -24 20 -16 40 9 24 26 17 26 -9z"></path> <path d="M189 1018 c-5 -24 -4 -78 3 -78 4 0 8 18 8 40 0 22 -2 40 -5 40 -3 0 -5 -1 -6 -2z"></path> <path d="M307 998 c-14 -14 -22 -17 -31 -9 -10 8 -17 7 -26 -4 -11 -13 -10 -19 3 -32 9 -9 20 -13 24 -9 5 5 2 11 -4 13 -7 3 -13 12 -13 20 0 12 7 8 23 -10 32 -38 47 -34 47 13 0 22 -1 40 -2 39 -2 0 -11 -10 -21 -21z m13 -33 c0 -8 -4 -15 -10 -15 -5 0 -10 7 -10 15 0 8 5 15 10 15 6 0 10 -7 10 -15z" class=""></path> <path d="M470 981 c0 -23 5 -41 10 -41 6 0 10 15 10 34 0 19 -4 38 -10 41 -6 4 -10 -10 -10 -34z" class=""></path> <path d="M215 983 c3 -40 4 -43 15 -43 7 0 8 6 2 16 -5 9 -7 25 -5 35 3 11 1 19 -4 19 -6 0 -9 -12 -8 -27z"></path> <path d="M378 975 c9 -19 17 -33 17 -32 13 19 32 67 26 67 -4 0 -13 -10 -19 -22 l-11 -23 0 23 c-1 12 -7 22 -15 22 -11 0 -11 -6 2 -35z" class=""></path> <path d="M431 986 c-6 -7 -9 -21 -5 -30 7 -17 34 -22 34 -6 0 6 -7 10 -16 10 -8 0 -12 5 -9 10 4 6 11 8 16 5 5 -4 9 -2 9 4 0 17 -17 21 -29 7z"></path> <path d="M530 991 c0 -8 -7 -11 -15 -7 -16 6 -20 -11 -7 -32 6 -9 12 -5 21 14 6 15 9 29 6 32 -3 3 -5 0 -5 -7z" class=""></path> <path d="M551 986 c-6 -7 -9 -21 -5 -30 7 -17 34 -22 34 -6 0 6 -4 10 -10 10 -5 0 -10 8 -10 18 0 14 2 15 10 2 6 -9 10 -10 10 -3 0 19 -17 24 -29 9z"></path> <path d="M590 970 c0 -16 4 -30 8 -30 5 0 9 14 9 30 0 17 -4 30 -9 30 -4 0 -8 -13 -8 -30z"></path> <path d="M2104 948 c-4 -6 0 -16 9 -23 21 -15 22 -29 2 -21 -8 3 -15 1 -15 -3 0 -15 27 -20 39 -8 8 8 5 17 -11 34 -18 20 -19 23 -4 23 9 0 21 -12 27 -27 12 -32 27 -43 46 -36 21 8 15 22 -7 16 -16 -4 -20 0 -20 22 0 24 3 26 26 21 17 -5 23 -3 19 4 -8 13 -38 13 -52 -1 -8 -8 -13 -8 -17 0 -9 14 -33 14 -42 -1z"></path> <path d="M2238 930 c-16 -36 -14 -55 3 -30 8 13 10 13 18 0 17 -26 22 -3 8 31 l-14 34 -15 -35z"></path> <path d="M2300 925 c0 -19 3 -35 8 -35 4 0 7 16 7 35 0 19 -3 35 -7 35 -5 0 -8 -16 -8 -35z"></path> <path d="M2360 925 c0 -31 3 -35 25 -35 14 0 25 4 25 9 0 5 -9 7 -20 4 -11 -3 -20 -1 -20 5 0 6 8 13 18 15 16 4 16 5 0 6 -10 0 -18 6 -18 12 0 6 9 9 20 6 11 -3 20 -1 20 4 0 5 -11 9 -25 9 -22 0 -25 -4 -25 -35z"></path> <path d="M2335 900 c-3 -5 -1 -10 4 -10 6 0 11 5 11 10 0 6 -2 10 -4 10 -3 0 -8 -4 -11 -10z"></path> <path d="M306 888 c3 -5 10 -6 15 -3 13 9 11 12 -6 12 -8 0 -12 -4 -9 -9z"></path> <path d="M196 745 c-19 -19 -20 -37 -4 -53 14 -14 48 -16 48 -2 0 5 -7 7 -15 4 -17 -7 -30 19 -21 42 5 14 9 14 23 3 14 -12 16 -12 12 0 -8 22 -25 24 -43 6z"></path> <path d="M410 716 c0 -14 5 -28 10 -31 6 -4 10 7 10 24 0 17 -4 31 -10 31 -5 0 -10 -11 -10 -24z"></path> <path d="M250 719 c0 -5 5 -7 10 -4 6 3 10 1 10 -4 0 -6 -4 -11 -10 -11 -5 0 -10 -4 -10 -10 0 -5 9 -10 19 -10 14 0 19 7 17 25 -1 17 -7 25 -18 25 -10 0 -18 -5 -18 -11z"></path> <path d="M301 702 c2 -23 2 -24 6 -4 5 27 23 29 23 2 0 -11 5 -20 11 -20 6 0 8 9 4 20 -3 11 -2 20 3 20 5 0 12 -9 15 -20 7 -29 37 -26 37 4 0 21 -4 23 -50 25 -48 1 -50 0 -49 -27z m89 2 c0 -8 -4 -12 -10 -9 -5 3 -10 10 -10 16 0 5 5 9 10 9 6 0 10 -7 10 -16z"></path> <path d="M175 375 c3 -39 15 -62 15 -27 0 11 8 23 18 25 16 4 16 5 0 6 -10 0 -18 6 -18 12 0 6 7 9 15 5 8 -3 15 -1 15 4 0 6 -11 10 -23 10 -21 0 -24 -4 -22 -35z"></path> <path d="M315 400 c3 -5 8 -10 11 -10 2 0 4 5 4 10 0 6 -5 10 -11 10 -5 0 -7 -4 -4 -10z"></path> <path d="M329 387 c-10 -8 -13 -20 -9 -37 7 -25 7 -25 12 5 l5 30 2 -27 c0 -16 5 -28 10 -28 8 0 8 56 0 64 -2 3 -11 -1 -20 -7z"></path> <path d="M231 358 c1 -24 3 -27 6 -10 5 27 19 29 25 4 3 -10 13 -19 22 -19 11 0 16 9 15 31 -1 30 -1 30 -9 6 -5 -15 -8 -18 -9 -9 -1 16 -20 29 -42 29 -5 0 -8 -15 -8 -32z"></path> </g> </svg>