<?xml version="1.0" standalone="no"?>
<!DOCTYPE svg PUBLIC "-//W3C//DTD SVG 20010904//EN"
 "http://www.w3.org/TR/2001/REC-SVG-20010904/DTD/svg10.dtd">
<svg version="1.0" xmlns="http://www.w3.org/2000/svg"
 width="260.000000pt" height="135.000000pt" viewBox="0 0 260.000000 135.000000"
 preserveAspectRatio="xMidYMid meet">
<g transform="translate(0.000000,135.000000) scale(0.100000,-0.100000)"
fill="#ffffff" stroke="none">
<path d="M5 1340 c-3 -5 -1 -10 4 -10 6 0 11 5 11 10 0 6 -2 10 -4 10 -3 0 -8
-4 -11 -10z"/>
<path d="M40 1340 c0 -5 5 -10 11 -10 5 0 7 5 4 10 -3 6 -8 10 -11 10 -2 0 -4
-4 -4 -10z"/>
<path d="M770 1170 c-19 -11 -41 -19 -48 -20 -14 0 -111 -40 -214 -87 -31 -14
-61 -35 -66 -47 -85 -180 -143 -343 -126 -354 5 -4 10 -16 11 -27 1 -20 36
-109 78 -202 14 -29 27 -64 31 -79 5 -19 19 -32 53 -46 25 -10 53 -23 62 -28
9 -4 63 -27 120 -50 57 -22 111 -45 119 -49 9 -5 26 -3 43 5 15 8 27 12 27 10
0 -3 30 8 66 24 36 17 70 30 74 30 5 0 45 17 88 37 87 40 88 41 143 183 48
127 56 146 71 174 14 27 12 34 -25 130 -22 55 -49 127 -61 158 -22 59 -44 92
-31 48 13 -44 88 -235 97 -244 4 -6 8 -14 8 -18 0 -5 -27 20 -60 54 l-60 63 1
90 c0 50 0 95 0 101 -1 11 -30 25 -176 87 -81 34 -123 48 -138 44 -5 -1 -13 6
-18 16 -13 21 -25 21 -69 -3z m112 -202 l-66 -68 -70 69 -70 70 70 65 69 64
67 -66 67 -66 -67 -68z m-160 132 l-64 -60 -86 1 c-56 0 -80 3 -67 9 11 4 56
22 100 40 44 17 98 40 120 50 64 30 64 23 -3 -40z m293 -11 l120 -49 -85 0
-86 0 -59 61 c-37 37 -50 56 -35 48 14 -7 79 -34 145 -60z m-355 -153 c0 -53
-4 -96 -10 -98 -5 -1 -49 -2 -97 0 l-88 3 0 95 -1 94 98 0 98 0 0 -94z m500
-6 l0 -96 -92 2 -93 1 -3 94 -3 94 96 0 95 0 0 -95z m-411 13 l62 -67 67 67
c37 37 70 67 72 67 3 0 4 -43 3 -95 l-2 -95 97 0 96 0 -68 -69 -69 -70 68 -70
68 -71 -97 0 -98 0 4 -99 c1 -55 1 -97 -2 -95 -3 2 -35 34 -72 71 l-68 68 -70
-70 -70 -70 1 90 c1 50 1 96 0 102 -1 9 -26 12 -96 10 -108 -3 -107 -9 -11 86
l49 48 -34 36 c-19 20 -50 51 -69 69 l-35 33 96 1 c112 0 106 -6 103 113 -1
42 2 77 6 77 4 0 35 -30 69 -67z m-341 -152 c-24 -26 -51 -53 -61 -59 -17 -12
-17 -11 -1 25 9 21 27 65 41 98 13 33 32 78 41 99 l17 39 3 -78 3 -77 -43 -47z
m117 -176 l-66 -68 -70 69 -69 68 68 68 67 67 68 -68 68 -67 -66 -69z m703 -2
l-68 -66 -63 68 -63 68 65 68 66 67 66 -70 65 -70 -68 -65z m-778 -163 l0 -85
-24 50 c-12 28 -29 68 -36 90 -7 22 -23 61 -36 87 -13 26 -24 51 -24 55 0 4
27 -19 60 -52 l60 -59 0 -86z m837 188 c-3 -7 -22 -51 -42 -98 -21 -47 -46
-107 -56 -135 l-18 -50 0 86 -1 85 57 62 c56 62 70 73 60 50z m-627 -205 l0
-98 -100 0 -100 0 0 97 0 98 100 0 100 0 0 -97z m500 -2 l0 -100 -95 2 -95 2
0 98 0 97 95 0 95 0 0 -99z m-281 -37 l63 -66 -67 -68 -66 -67 -67 69 -66 69
64 64 c36 36 67 65 70 65 3 0 34 -30 69 -66z m-156 -134 l62 -60 -41 14 c-22
8 -61 24 -85 36 -24 12 -51 23 -59 25 -8 2 -35 13 -60 24 l-45 21 83 0 83 0
62 -60z m396 55 c-5 -4 -126 -54 -234 -96 l-50 -20 62 61 62 60 82 0 c45 0 80
-2 78 -5z"/>
<path d="M1205 661 c-3 -5 -2 -12 3 -15 5 -3 9 1 9 9 0 17 -3 19 -12 6z"/>
<path d="M1130 616 c0 -2 8 -10 18 -17 15 -13 16 -12 3 4 -13 16 -21 21 -21
13z"/>
<path d="M1164 1088 l-19 -23 23 19 c21 18 27 26 19 26 -2 0 -12 -10 -23 -22z"/>
<path d="M1825 1100 c-3 -5 -1 -10 4 -10 6 0 11 5 11 10 0 6 -2 10 -4 10 -3 0
-8 -4 -11 -10z"/>
<path d="M1924 1014 c3 -9 6 -27 6 -40 0 -13 5 -24 10 -24 6 0 10 9 10 21 0
21 0 21 20 -2 l19 -24 -1 45 c-1 30 -2 35 -5 17 l-4 -28 -20 26 c-23 28 -45
34 -35 9z"/>
<path d="M2010 1015 c-26 -31 13 -82 44 -56 9 8 16 22 16 32 0 11 5 19 10 19
6 0 10 -13 10 -30 0 -16 5 -30 10 -30 6 0 10 16 10 35 0 28 3 33 17 28 11 -4
14 -3 9 5 -7 12 -45 10 -65 -2 -5 -4 -12 -2 -16 4 -9 14 -31 12 -45 -5z m43
-19 c6 -16 -16 -40 -26 -29 -4 3 -7 15 -7 25 0 21 25 24 33 4z"/>
<path d="M2150 1014 c0 -8 6 -11 17 -7 14 5 15 1 10 -26 -5 -24 -3 -31 6 -28
7 2 11 16 9 30 -2 15 1 27 7 27 6 0 11 4 11 9 0 5 -13 9 -30 9 -18 -1 -30 -6
-30 -14z"/>
<path d="M2220 1015 c-26 -31 13 -82 44 -56 19 16 21 42 4 59 -16 16 -33 15
-48 -3z m40 -25 c0 -11 -7 -20 -15 -20 -8 0 -15 9 -15 20 0 11 7 20 15 20 8 0
15 -9 15 -20z"/>
<path d="M1930 895 c0 -9 7 -18 15 -21 8 -4 15 -11 15 -16 0 -6 -7 -8 -15 -4
-9 3 -15 0 -15 -9 0 -18 36 -20 43 -2 2 6 -5 23 -17 36 -18 20 -18 23 -3 18 9
-4 17 -2 17 3 0 6 -9 10 -20 10 -11 0 -20 -7 -20 -15z"/>
<path d="M1990 890 c-8 -14 -8 -26 0 -41 12 -21 40 -23 47 -2 3 7 -3 9 -16 6
-16 -4 -21 -1 -21 15 0 26 19 39 31 21 7 -11 9 -10 9 4 0 24 -37 22 -50 -3z"/>
<path d="M2073 890 c3 -11 1 -18 -4 -14 -5 3 -9 1 -9 -5 0 -5 -3 -16 -6 -25
-3 -9 -1 -16 5 -16 6 0 11 7 11 15 0 8 5 15 10 15 6 0 10 -6 10 -14 0 -18 81
-17 87 1 3 7 -4 9 -18 6 -20 -5 -21 -3 -17 25 3 20 0 32 -7 32 -7 0 -10 -11
-7 -29 6 -42 -15 -47 -29 -6 -14 37 -35 49 -26 15z"/>
<path d="M2184 894 c3 -9 6 -27 6 -40 0 -19 5 -24 25 -24 14 0 25 4 25 9 0 21
-13 41 -26 41 -8 0 -14 5 -14 11 0 6 9 8 20 4 11 -4 20 -2 20 4 0 6 -14 11
-31 11 -24 0 -30 -3 -25 -16z m41 -34 c3 -5 -1 -10 -9 -10 -9 0 -16 5 -16 10
0 6 4 10 9 10 6 0 13 -4 16 -10z"/>
<path d="M1326 758 c3 -5 10 -6 15 -3 13 9 11 12 -6 12 -8 0 -12 -4 -9 -9z"/>
<path d="M246 652 c-3 -5 1 -9 9 -9 8 0 12 4 9 9 -3 4 -7 8 -9 8 -2 0 -6 -4
-9 -8z"/>
<path d="M1266 463 c-6 -14 -5 -15 5 -6 7 7 10 15 7 18 -3 3 -9 -2 -12 -12z"/>
</g>
</svg>
