<?xml version="1.0" standalone="no"?>
<!DOCTYPE svg PUBLIC "-//W3C//DTD SVG 20010904//EN"
 "http://www.w3.org/TR/2001/REC-SVG-20010904/DTD/svg10.dtd">
<svg version="1.0" xmlns="http://www.w3.org/2000/svg"
 width="375.000000pt" height="207.000000pt" viewBox="0 0 375.000000 207.000000"
 preserveAspectRatio="xMidYMid meet">
<g transform="translate(0.000000,207.000000) scale(0.100000,-0.100000)"
fill="#ffffff" stroke="none">
<path d="M20 1035 l0 -1025 1860 0 1860 0 0 1025 0 1025 -1860 0 -1860 0 0
-1025z m3710 0 l0 -1015 -1850 0 -1850 0 0 1015 0 1015 1850 0 1850 0 0 -1015z"/>
<path d="M2187 1935 c-74 -20 -152 -60 -198 -102 -54 -49 -99 -128 -99 -174 0
-30 -6 -41 -37 -65 -21 -16 -42 -27 -48 -26 -5 2 -7 0 -3 -3 4 -4 -16 -27 -45
-50 -29 -24 -106 -88 -172 -142 -265 -218 -337 -275 -341 -270 -10 10 -165
-32 -207 -56 -61 -36 -121 -99 -151 -160 l-26 -51 0 -298 0 -298 418 0 418 0
94 77 c52 42 147 120 211 172 63 53 127 105 141 116 46 36 218 177 402 331
l181 150 -4 299 c-3 294 -3 299 -28 351 -74 157 -315 251 -506 199z m315 -42
c83 -39 149 -99 183 -166 26 -52 33 -97 15 -97 -6 0 -9 -4 -8 -9 2 -5 -37 -42
-87 -81 -49 -40 -114 -93 -142 -117 -31 -26 -58 -41 -64 -37 -7 4 -9 3 -5 -4
3 -6 -11 -24 -31 -41 -21 -17 -94 -76 -163 -133 -69 -56 -126 -102 -128 -103
-1 -1 0 -9 3 -17 5 -14 32 -15 196 -11 154 4 189 3 189 -8 0 -11 2 -11 8 -1 6
9 37 12 117 10 l108 -3 -103 -85 c-56 -47 -144 -119 -195 -162 -86 -71 -120
-87 -137 -64 -4 6 -12 5 -21 -2 -8 -7 -22 -10 -31 -6 -12 5 -15 2 -10 -10 6
-15 9 -15 30 -1 14 9 25 11 29 5 3 -6 1 -10 -6 -10 -7 0 -9 -3 -6 -6 4 -4 13
-1 22 6 9 7 17 11 20 8 9 -9 -146 -129 -158 -122 -6 4 -9 3 -4 -1 9 -10 -31
-55 -50 -55 -7 0 -13 -4 -13 -8 0 -5 -39 -40 -87 -79 -49 -39 -130 -105 -180
-147 l-93 -76 0 280 c0 222 -3 288 -14 315 l-15 35 107 87 107 88 73 5 c39 3
72 3 72 0 -1 -3 -47 -42 -103 -87 -107 -87 -237 -204 -201 -181 11 7 45 34 75
59 30 26 97 81 149 124 142 116 139 107 38 103 -57 -3 -88 0 -88 6 0 7 -3 7
-8 0 -4 -6 -54 -50 -112 -98 l-104 -87 -44 50 c-69 81 -162 124 -307 146 -35
5 -38 4 -23 -8 14 -11 15 -17 5 -28 -7 -7 -3 -6 9 4 25 21 37 21 102 2 36 -11
50 -20 45 -28 -4 -8 -1 -8 9 1 14 11 18 10 26 -3 5 -9 12 -16 15 -16 25 3 26
-2 7 -28 -13 -19 -17 -32 -10 -36 6 -4 7 -11 4 -17 -4 -7 -10 -4 -16 6 -6 11
-6 22 2 32 8 9 9 14 2 14 -6 0 -14 -10 -17 -21 -5 -15 -10 -18 -15 -9 -5 9 -9
8 -13 -3 -4 -11 0 -15 13 -12 10 2 21 -2 23 -9 4 -9 -5 -13 -27 -13 -39 0 -46
29 -13 53 19 14 20 15 3 12 -10 -2 -21 3 -24 11 -3 10 0 12 14 7 15 -6 16 -4
7 5 -6 6 -9 19 -7 28 3 9 -8 -7 -23 -35 -25 -45 -31 -50 -53 -43 -14 4 -18 7
-9 8 19 1 48 31 30 31 -6 0 -11 -4 -11 -10 0 -5 -5 -10 -11 -10 -5 0 -7 4 -4
10 3 5 1 10 -4 10 -6 0 -11 -7 -11 -15 0 -8 -5 -15 -11 -15 -6 0 -9 6 -6 13 3
8 -3 13 -14 13 -11 0 -19 -6 -19 -14 0 -7 5 -10 10 -7 6 3 10 2 10 -4 0 -15
-67 -80 -75 -73 -3 4 -3 -2 1 -12 7 -17 8 -17 17 -1 8 14 11 15 19 4 7 -10 8
-8 5 9 -5 23 2 29 19 12 18 -18 54 -20 54 -4 0 10 -8 14 -22 12 -15 -2 -23 2
-23 11 0 8 12 15 28 17 15 1 25 -1 22 -6 -3 -5 0 -12 6 -16 7 -4 9 -3 5 4 -3
6 -2 13 3 16 5 3 11 -1 15 -9 3 -8 -2 -19 -12 -24 -15 -9 -15 -11 1 -28 9 -11
15 -22 12 -24 -2 -3 8 -6 22 -7 14 -1 36 -13 49 -27 13 -14 27 -25 33 -25 5 0
-4 14 -19 30 -15 16 -37 30 -48 30 -12 0 -23 4 -27 9 -5 9 19 40 33 42 4 0 15
2 25 4 10 2 17 -2 16 -8 -3 -24 1 -37 12 -37 8 0 8 4 0 14 -9 11 -9 16 0 21 6
4 15 1 20 -6 6 -11 11 -11 20 -2 8 8 9 16 2 25 -5 7 -9 20 -8 28 1 8 3 23 3
33 1 10 6 16 11 13 5 -3 7 -19 6 -36 -1 -16 4 -35 11 -41 8 -6 14 -17 14 -25
0 -7 4 -15 10 -19 5 -3 8 7 7 24 -1 20 -7 30 -16 28 -22 -3 -21 32 1 44 26 14
33 6 30 -37 -2 -20 1 -33 7 -30 5 3 7 16 4 29 l-6 22 24 -23 c21 -19 22 -24 9
-33 -13 -9 -12 -10 3 -5 9 3 17 2 17 -2 0 -9 -71 -72 -82 -72 -4 0 -8 -5 -8
-11 0 -6 20 5 44 25 48 39 61 44 52 21 -3 -8 -1 -15 5 -15 6 0 9 -6 6 -14 -3
-7 0 -19 6 -25 6 -6 9 -13 6 -15 -2 -3 -183 -6 -401 -8 -369 -3 -395 -2 -387
14 15 28 10 31 -12 7 -16 -20 -18 -20 -11 -4 5 11 7 26 4 34 -3 10 0 12 12 8
9 -4 16 -2 16 3 0 6 -4 10 -10 10 -17 0 -11 20 14 45 13 13 22 26 19 28 -6 7
57 67 71 67 6 0 19 9 29 20 10 12 23 18 29 14 7 -4 8 -3 4 4 -4 7 -2 13 3 13
15 2 18 3 80 22 70 22 82 22 74 -1 -5 -13 -1 -12 19 6 13 12 28 19 31 15 4 -3
7 1 7 9 0 9 7 18 15 21 14 6 109 83 412 335 95 79 176 141 180 139 5 -3 13 1
20 8 9 10 10 14 1 17 -9 3 -9 19 1 63 11 50 21 67 70 116 101 101 180 130 341
126 105 -3 121 -6 182 -34z m208 -548 l0 -255 -315 0 c-173 0 -315 2 -315 3 0
3 36 32 240 197 135 109 314 256 344 282 17 15 34 28 38 28 4 0 7 -115 8 -255z
m-1132 -351 c2 -1 -5 -5 -15 -8 -9 -4 -14 -4 -10 0 4 4 1 14 -6 23 -11 14 -10
15 8 1 11 -8 21 -15 23 -16z m-148 -19 c-6 -8 -9 -19 -5 -25 3 -5 -1 -10 -9
-10 -9 0 -16 3 -16 6 0 13 22 44 32 44 7 0 6 -5 -2 -15z m100 -56 c0 -6 -4 -7
-10 -4 -5 3 -10 11 -10 16 0 6 5 7 10 4 6 -3 10 -11 10 -16z m-117 -7 c-10
-11 -22 -17 -27 -14 -5 3 -1 11 9 19 27 19 38 16 18 -5z m277 -393 l0 -259
-127 -1 c-71 0 -138 -2 -150 -5 -12 -2 -25 1 -28 6 -3 6 -1 10 4 10 6 0 11 8
11 18 0 13 2 14 9 4 7 -11 9 -11 14 1 3 9 0 14 -7 13 -16 -2 -46 -31 -46 -43
0 -5 -40 -9 -90 -10 -51 0 -88 3 -84 8 3 5 0 9 -5 9 -6 0 -11 -5 -11 -10 0
-16 -292 -9 -298 8 -2 7 5 12 16 12 11 0 30 9 43 21 l24 21 -25 -16 c-29 -19
-41 -20 -38 -4 2 7 21 21 42 32 37 19 38 20 18 29 -12 6 -22 14 -22 19 0 5 -5
6 -11 2 -8 -4 -3 -12 12 -20 23 -13 15 -19 -21 -15 -13 2 -13 1 0 -9 12 -9 10
-11 -12 -7 -24 3 -26 2 -18 -14 6 -10 6 -20 1 -23 -18 -11 -21 39 -3 52 12 9
14 15 5 20 -17 10 -28 62 -13 62 6 0 9 -4 6 -9 -4 -5 3 -7 13 -4 11 3 22 12
25 20 4 8 11 11 18 7 10 -6 10 -4 0 8 -11 14 -10 18 5 26 10 6 15 13 13 16 -8
8 -31 -9 -33 -25 -7 -41 -31 -50 -48 -18 -13 25 3 41 30 31 14 -5 14 -4 1 10
-8 9 -16 12 -18 7 -10 -26 -17 -2 -17 56 0 36 4 65 8 65 4 0 3 9 -3 19 -5 11
-10 30 -10 43 1 20 2 21 11 5 5 -9 7 -22 3 -29 -4 -7 -3 -8 5 -4 7 4 9 16 5
28 -6 19 -5 19 24 -2 l30 -22 -26 -25 c-15 -14 -20 -20 -11 -14 9 6 20 7 24 3
5 -4 5 -1 1 6 -4 7 -1 12 8 12 9 0 16 5 16 11 0 5 5 7 12 3 6 -4 8 -3 5 4 -10
15 3 42 19 42 8 0 14 5 14 11 0 5 5 7 12 3 9 -6 9 -9 0 -12 -7 -2 -12 -8 -12
-14 0 -5 6 -8 13 -5 6 2 12 17 12 34 0 31 -18 35 -29 7 -5 -12 -9 -12 -26 -2
-16 10 -22 10 -32 0 -7 -8 -8 -13 -3 -12 28 6 36 0 25 -20 -10 -19 -12 -19
-42 -4 -21 11 -27 18 -18 24 8 5 9 9 1 14 -6 4 -11 2 -11 -3 0 -6 -5 -11 -11
-11 -5 0 -7 5 -3 11 3 6 0 15 -7 20 -10 6 -11 11 -2 20 13 13 36 2 27 -13 -4
-7 -2 -8 5 -4 6 4 9 11 6 17 -5 8 133 11 623 15 l152 1 0 -258z"/>
<path d="M2255 1910 c-3 -5 -2 -10 4 -10 5 0 13 5 16 10 3 6 2 10 -4 10 -5 0
-13 -4 -16 -10z"/>
<path d="M2325 1888 c-4 -15 -14 -29 -23 -31 -15 -4 -15 -5 0 -6 19 -1 42 33
35 52 -3 7 -8 0 -12 -15z"/>
<path d="M2198 1892 c-16 -2 -28 -7 -28 -11 0 -5 12 -6 26 -3 16 3 30 -1 35
-9 5 -8 9 -9 9 -4 0 20 -16 30 -42 27z"/>
<path d="M2396 1882 c-2 -4 -1 -14 5 -22 7 -12 9 -10 9 8 0 23 -5 28 -14 14z"/>
<path d="M2127 1864 c2 -7 -4 -14 -14 -17 -10 -2 -8 -3 5 -2 13 1 21 -2 19 -9
-2 -6 -13 -10 -23 -8 -18 3 -18 3 1 -11 24 -19 24 -18 30 25 3 25 1 35 -9 35
-8 0 -12 -6 -9 -13z"/>
<path d="M2205 1860 c-3 -5 -1 -10 4 -10 6 0 11 5 11 10 0 6 -2 10 -4 10 -3 0
-8 -4 -11 -10z"/>
<path d="M2505 1860 c-3 -5 -13 -6 -23 -3 -10 4 -7 -2 8 -14 26 -22 49 -21 31
1 -6 7 -8 16 -4 19 3 4 4 7 0 7 -3 0 -8 -4 -12 -10z"/>
<path d="M2439 1854 c0 -5 -2 -17 -4 -27 -3 -15 -1 -16 13 -5 9 7 18 13 20 14
1 1 -4 7 -13 14 -8 7 -15 9 -16 4z"/>
<path d="M2055 1839 c-11 -17 1 -21 15 -4 8 9 8 15 2 15 -6 0 -14 -5 -17 -11z"/>
<path d="M2223 1835 c-3 -9 -3 -19 1 -22 3 -4 6 1 6 10 0 8 6 18 13 20 9 4 9
6 -1 6 -7 1 -15 -6 -19 -14z"/>
<path d="M2161 1824 c0 -11 3 -14 6 -6 3 7 2 16 -1 19 -3 4 -6 -2 -5 -13z"/>
<path d="M2258 1815 c-16 -21 -15 -35 3 -35 5 0 6 7 2 17 -5 13 -2 15 15 11
25 -7 28 -2 9 16 -10 11 -16 9 -29 -9z"/>
<path d="M2330 1825 c1 -6 7 -21 16 -35 l15 -25 -7 25 c-7 26 -24 52 -24 35z"/>
<path d="M2380 1810 c8 -5 20 -10 25 -10 6 0 3 5 -5 10 -8 5 -19 10 -25 10 -5
0 -3 -5 5 -10z"/>
<path d="M2559 1803 c-13 -16 -12 -17 4 -4 9 7 17 15 17 17 0 8 -8 3 -21 -13z"/>
<path d="M2010 1800 c0 -12 26 -19 39 -10 9 5 4 9 -13 12 -14 3 -26 2 -26 -2z"/>
<path d="M2530 1801 c0 -7 -5 -9 -10 -6 -6 3 -13 0 -16 -9 -3 -8 -12 -12 -20
-9 -8 3 -14 0 -14 -7 0 -6 4 -9 9 -6 5 4 12 0 14 -6 4 -10 6 -10 6 0 1 7 5 11
10 7 11 -6 36 33 27 43 -3 3 -6 0 -6 -7z"/>
<path d="M2085 1790 c-3 -5 -2 -10 4 -10 5 0 13 5 16 10 3 6 2 10 -4 10 -5 0
-13 -4 -16 -10z"/>
<path d="M2141 1791 c-11 -7 -11 -9 0 -14 8 -3 2 -6 -13 -6 -16 -1 -28 -5 -28
-9 0 -5 16 -7 35 -6 27 3 33 0 28 -12 -3 -9 -13 -14 -23 -11 -12 3 -17 -1 -16
-16 2 -33 25 -32 37 3 11 29 13 31 28 15 15 -15 15 -17 -3 -31 -11 -8 -16 -14
-10 -14 17 0 35 17 38 35 2 11 9 21 16 23 7 3 10 0 6 -7 -4 -6 -2 -11 3 -11
16 0 13 16 -4 30 -9 7 -14 19 -11 25 3 8 -7 12 -27 13 l-32 1 28 -15 c15 -8
27 -19 27 -25 0 -6 -5 -7 -12 -3 -7 4 -8 3 -4 -4 4 -7 3 -12 -2 -12 -6 0 -18
13 -29 30 -13 20 -23 26 -32 21z m9 -81 c0 -5 -4 -10 -10 -10 -5 0 -10 5 -10
10 0 6 5 10 10 10 6 0 10 -4 10 -10z"/>
<path d="M2310 1795 c0 -3 9 -16 21 -28 l21 -22 -13 28 c-11 23 -29 37 -29 22z"/>
<path d="M2427 1788 c-10 -5 -24 -7 -32 -4 -7 2 -16 -2 -19 -10 -6 -15 18 -15
42 -1 7 5 12 3 12 -5 0 -8 5 -6 11 5 14 23 9 28 -14 15z"/>
<path d="M2574 1774 c3 -9 6 -18 6 -20 0 -2 10 -4 23 -3 l22 0 -23 10 c-13 5
-20 13 -17 19 3 5 1 10 -5 10 -7 0 -9 -7 -6 -16z"/>
<path d="M2075 1760 c-3 -5 -1 -10 4 -10 6 0 11 5 11 10 0 6 -2 10 -4 10 -3 0
-8 -4 -11 -10z"/>
<path d="M2280 1760 c-12 -8 -11 -10 8 -10 12 0 22 5 22 10 0 13 -11 13 -30 0z"/>
<path d="M2015 1749 c-4 -6 -5 -12 -2 -15 2 -3 7 2 10 11 7 17 1 20 -8 4z"/>
<path d="M2041 1744 c0 -11 3 -14 6 -6 3 7 2 16 -1 19 -3 4 -6 -2 -5 -13z"/>
<path d="M2536 1752 c-3 -5 1 -9 9 -9 8 0 12 4 9 9 -3 4 -7 8 -9 8 -2 0 -6 -4
-9 -8z"/>
<path d="M2633 1753 c4 -3 1 -13 -6 -22 -11 -14 -10 -14 5 -2 16 12 16 31 1
31 -4 0 -3 -3 0 -7z"/>
<path d="M1967 1739 c7 -7 15 -10 18 -7 3 3 -2 9 -12 12 -14 6 -15 5 -6 -5z"/>
<path d="M2445 1740 c-3 -5 -1 -10 4 -10 6 0 11 5 11 10 0 6 -2 10 -4 10 -3 0
-8 -4 -11 -10z"/>
<path d="M2066 1728 c3 -5 9 -7 12 -4 3 3 11 1 19 -5 9 -9 13 -8 13 0 0 6 -3
11 -7 12 -5 0 -16 2 -26 4 -9 2 -14 -1 -11 -7z"/>
<path d="M2268 1715 c2 -14 6 -25 7 -25 1 0 5 11 7 25 3 16 1 25 -7 25 -8 0
-10 -9 -7 -25z"/>
<path d="M2342 1726 c7 -8 15 -12 17 -11 5 6 -10 25 -20 25 -5 0 -4 -6 3 -14z"/>
<path d="M2390 1729 c0 -5 5 -7 10 -4 6 3 10 8 10 11 0 2 -4 4 -10 4 -5 0 -10
-5 -10 -11z"/>
<path d="M2415 1719 c-5 -8 -4 -10 3 -5 16 10 15 -6 0 -24 -7 -8 -4 -7 7 2 14
13 16 21 8 29 -8 8 -13 7 -18 -2z"/>
<path d="M2463 1713 c-4 -10 -14 -23 -22 -30 -14 -10 -13 -11 5 -7 12 3 25 1
28 -5 6 -9 -5 -15 -25 -13 -3 1 -6 -5 -6 -13 0 -11 4 -11 21 -1 23 13 45 14
61 4 6 -4 16 2 23 13 10 16 9 19 -4 19 -8 0 -13 -4 -10 -9 3 -5 -5 -8 -18 -8
-18 0 -23 4 -19 16 4 12 3 13 -5 2 -12 -16 -20 -4 -17 27 2 26 -3 29 -12 5z"/>
<path d="M2490 1719 c0 -5 5 -7 10 -4 6 3 10 8 10 11 0 2 -4 4 -10 4 -5 0 -10
-5 -10 -11z"/>
<path d="M2573 1695 c-2 -23 4 -37 20 -51 l22 -19 -19 22 c-12 15 -16 30 -12
47 3 14 3 27 -1 29 -5 3 -9 -10 -10 -28z"/>
<path d="M1980 1706 c0 -9 -4 -14 -10 -11 -5 3 -10 2 -10 -4 0 -6 -8 -8 -17
-5 -15 5 -16 4 -3 -5 8 -6 24 -8 35 -4 18 5 18 4 6 -11 -11 -13 -12 -19 -2
-29 10 -9 11 -8 6 6 -4 10 -2 17 4 17 7 0 9 11 7 26 -6 32 -16 44 -16 20z"/>
<path d="M2041 1711 c-10 -6 -10 -10 -1 -16 7 -4 9 -17 6 -31 -4 -13 -2 -24 2
-24 5 0 9 18 9 40 0 22 -1 40 -1 40 -1 0 -7 -4 -15 -9z"/>
<path d="M2315 1710 c3 -5 10 -10 16 -10 5 0 9 5 9 10 0 6 -7 10 -16 10 -8 0
-12 -4 -9 -10z"/>
<path d="M2540 1710 c0 -5 5 -10 11 -10 5 0 7 5 4 10 -3 6 -8 10 -11 10 -2 0
-4 -4 -4 -10z"/>
<path d="M2234 1702 c3 -5 0 -13 -6 -15 -9 -4 -10 -6 -1 -6 17 -1 25 16 12 25
-7 4 -9 3 -5 -4z"/>
<path d="M2515 1700 c-3 -5 -1 -10 4 -10 6 0 11 5 11 10 0 6 -2 10 -4 10 -3 0
-8 -4 -11 -10z"/>
<path d="M2380 1690 c0 -5 5 -10 10 -10 6 0 10 5 10 10 0 6 -4 10 -10 10 -5 0
-10 -4 -10 -10z"/>
<path d="M2630 1690 c0 -5 5 -10 11 -10 5 0 7 5 4 10 -3 6 -8 10 -11 10 -2 0
-4 -4 -4 -10z"/>
<path d="M2103 1673 c-3 -10 -8 -22 -11 -27 -3 -5 0 -6 6 -2 7 4 12 14 12 22
0 9 5 12 12 8 7 -4 8 -3 4 4 -10 16 -16 15 -23 -5z"/>
<path d="M2606 1675 c-3 -8 -1 -15 4 -15 6 0 10 7 10 15 0 8 -2 15 -4 15 -2 0
-6 -7 -10 -15z"/>
<path d="M2018 1673 c7 -3 16 -2 19 1 4 3 -2 6 -13 5 -11 0 -14 -3 -6 -6z"/>
<path d="M2154 1665 c8 -8 18 -15 22 -15 3 0 1 7 -6 15 -7 8 -17 15 -22 15 -5
0 -3 -7 6 -15z"/>
<path d="M2278 1673 c6 -2 18 -2 25 0 6 3 1 5 -13 5 -14 0 -19 -2 -12 -5z"/>
<path d="M2200 1660 c0 -6 4 -9 9 -5 5 3 12 1 15 -4 8 -12 31 -9 31 4 0 5 -12
11 -27 13 -16 2 -28 -2 -28 -8z"/>
<path d="M2360 1660 c-9 -6 -10 -10 -3 -10 6 0 15 5 18 10 8 12 4 12 -15 0z"/>
<path d="M1926 1645 c4 -8 10 -12 15 -9 14 8 10 24 -6 24 -9 0 -12 -6 -9 -15z"/>
<path d="M2132 1651 c-11 -7 -11 -9 0 -14 9 -3 15 1 15 9 0 8 -1 14 -1 14 -1
0 -7 -4 -14 -9z"/>
<path d="M2300 1644 c0 -8 5 -12 10 -9 6 3 10 10 10 16 0 5 -4 9 -10 9 -5 0
-10 -7 -10 -16z"/>
<path d="M2643 1633 c-28 -5 -31 -23 -4 -23 10 0 21 7 25 15 3 8 4 14 3 14 -1
-1 -12 -4 -24 -6z"/>
<path d="M2239 1617 c5 -5 19 -7 32 -5 20 3 19 5 -9 9 -20 3 -29 2 -23 -4z"/>
<path d="M2320 1620 c-12 -8 -9 -10 13 -10 15 0 27 5 27 10 0 13 -20 13 -40 0z"/>
<path d="M2390 1620 c0 -5 12 -10 26 -10 14 0 23 4 19 10 -3 6 -15 10 -26 10
-10 0 -19 -4 -19 -10z"/>
<path d="M2456 1622 c-2 -4 9 -9 25 -10 16 -1 29 2 29 8 0 12 -47 14 -54 2z"/>
<path d="M2540 1620 c0 -5 10 -10 23 -10 13 0 29 -6 36 -12 11 -10 10 -8 0 10
-14 22 -59 31 -59 12z"/>
<path d="M1953 1613 c9 -2 23 -2 30 0 6 3 -1 5 -18 5 -16 0 -22 -2 -12 -5z"/>
<path d="M2028 1613 c6 -2 18 -2 25 0 6 3 1 5 -13 5 -14 0 -19 -2 -12 -5z"/>
<path d="M2103 1613 c9 -2 23 -2 30 0 6 3 -1 5 -18 5 -16 0 -22 -2 -12 -5z"/>
<path d="M2173 1613 c9 -2 23 -2 30 0 6 3 -1 5 -18 5 -16 0 -22 -2 -12 -5z"/>
<path d="M2065 1599 c-4 -6 -4 -13 -1 -16 3 -4 6 -1 6 6 0 7 5 9 12 5 7 -4 8
-3 4 4 -9 15 -13 15 -21 1z"/>
<path d="M1931 1578 c-1 -21 4 -28 17 -28 11 0 13 3 6 8 -7 4 -14 16 -17 27
-4 15 -5 14 -6 -7z"/>
<path d="M2174 1586 c-3 -8 -1 -23 4 -33 5 -10 8 -26 6 -36 -2 -18 -1 -18 16
-2 15 14 17 21 7 35 -6 10 -15 16 -21 13 -5 -4 -7 3 -4 15 7 24 0 30 -8 8z
m31 -45 c3 -5 2 -12 -3 -15 -5 -3 -9 1 -9 9 0 17 3 19 12 6z"/>
<path d="M2200 1589 c0 -5 5 -7 10 -4 6 3 10 8 10 11 0 2 -4 4 -10 4 -5 0 -10
-5 -10 -11z"/>
<path d="M2275 1589 c-4 -6 -5 -12 -2 -15 2 -3 7 2 10 11 7 17 1 20 -8 4z"/>
<path d="M2430 1590 c0 -6 -5 -8 -12 -4 -6 4 -8 3 -4 -4 3 -5 1 -12 -6 -14 -7
-3 2 -13 20 -24 29 -17 31 -20 16 -31 -15 -11 -14 -12 4 -10 26 2 22 23 -8 44
-21 15 -22 17 -6 29 11 8 13 14 7 19 -6 3 -11 1 -11 -5z"/>
<path d="M2494 1593 c4 -4 16 -8 28 -10 28 -4 18 6 -12 12 -12 2 -20 1 -16 -2z"/>
<path d="M1996 1573 c2 -6 -5 -14 -14 -17 -9 -3 -5 -4 11 -2 15 2 27 -1 27 -5
0 -5 4 -9 10 -9 5 0 7 7 4 15 -4 8 -12 15 -19 15 -7 0 -15 3 -18 8 -2 4 -2 2
-1 -5z"/>
<path d="M2327 1583 c-4 -3 -7 -11 -7 -17 0 -6 5 -5 12 2 6 6 9 14 7 17 -3 3
-9 2 -12 -2z"/>
<path d="M2357 1569 c7 -7 15 -10 18 -7 3 3 -2 9 -12 12 -14 6 -15 5 -6 -5z"/>
<path d="M2554 1565 c3 -8 1 -15 -4 -15 -6 0 -10 -7 -10 -15 0 -8 5 -15 10
-15 6 0 10 6 10 14 0 8 9 18 21 21 24 8 21 14 -11 20 -16 3 -20 0 -16 -10z"/>
<path d="M1895 1562 c-13 -9 -18 -42 -7 -42 5 0 12 11 14 25 3 14 5 25 4 25 0
0 -5 -4 -11 -8z"/>
<path d="M2075 1560 c3 -5 8 -10 11 -10 2 0 4 5 4 10 0 6 -5 10 -11 10 -5 0
-7 -4 -4 -10z"/>
<path d="M2216 1558 c3 -5 9 -6 13 -3 5 2 17 -2 27 -10 25 -19 34 -19 34 1 0
8 -5 12 -10 9 -6 -4 -16 -2 -23 3 -15 12 -48 12 -41 0z"/>
<path d="M2440 1563 c0 -1 14 -9 30 -18 17 -9 30 -11 30 -5 0 5 -7 10 -16 10
-8 0 -13 4 -10 8 2 4 -4 8 -15 8 -10 0 -19 -1 -19 -3z"/>
<path d="M2520 1550 c0 -11 2 -20 4 -20 2 0 6 9 9 20 3 11 1 20 -4 20 -5 0 -9
-9 -9 -20z"/>
<path d="M2095 1540 c-3 -5 -1 -10 4 -10 6 0 11 5 11 10 0 6 -2 10 -4 10 -3 0
-8 -4 -11 -10z"/>
<path d="M2120 1541 c0 -6 4 -13 10 -16 6 -3 7 1 4 9 -7 18 -14 21 -14 7z"/>
<path d="M2325 1540 c-3 -5 1 -10 9 -10 9 0 16 5 16 10 0 6 -4 10 -9 10 -6 0
-13 -4 -16 -10z"/>
<path d="M2370 1535 c-7 -8 -8 -15 -2 -15 5 0 15 7 22 15 7 8 8 15 2 15 -5 0
-15 -7 -22 -15z"/>
<path d="M1840 1530 c-9 -6 -10 -10 -3 -10 6 0 15 5 18 10 8 12 4 12 -15 0z"/>
<path d="M2003 1502 c0 -22 4 -29 10 -23 7 7 7 18 0 33 -9 20 -10 20 -10 -10z"/>
<path d="M2030 1520 c0 -6 7 -10 15 -10 8 0 15 2 15 4 0 2 -7 6 -15 10 -8 3
-15 1 -15 -4z"/>
<path d="M2230 1519 c0 -5 5 -7 10 -4 6 3 13 -1 16 -9 3 -9 14 -16 23 -15 10
0 11 2 3 6 -6 2 -9 10 -6 15 4 6 2 8 -4 4 -6 -3 -13 -2 -17 4 -8 13 -25 13
-25 -1z"/>
<path d="M2100 1510 c-9 -6 -10 -10 -3 -10 6 0 15 5 18 10 8 12 4 12 -15 0z"/>
<path d="M2142 1504 c-7 -8 -8 -14 -3 -14 10 0 25 19 20 25 -2 1 -10 -3 -17
-11z"/>
<path d="M2504 1512 c3 -6 -2 -15 -11 -21 -16 -9 -16 -10 -2 -11 20 0 33 27
17 36 -6 4 -8 3 -4 -4z"/>
<path d="M1856 1502 c-3 -5 1 -9 9 -9 8 0 12 4 9 9 -3 4 -7 8 -9 8 -2 0 -6 -4
-9 -8z"/>
<path d="M1894 1486 c-3 -14 -4 -31 -1 -38 3 -7 6 1 6 17 1 21 4 26 10 16 5
-8 11 -9 15 -3 3 5 -1 15 -9 22 -12 10 -15 7 -21 -14z"/>
<path d="M1947 1503 c-4 -3 -7 -13 -7 -22 1 -13 3 -13 11 2 11 19 8 33 -4 20z"/>
<path d="M2345 1495 c-16 -51 -16 -50 -25 -35 -7 11 -9 10 -8 -7 2 -20 3 -20
25 -4 12 9 23 26 23 39 0 25 -8 29 -15 7z"/>
<path d="M1790 1490 c0 -5 5 -10 10 -10 6 0 10 5 10 10 0 6 -4 10 -10 10 -5 0
-10 -4 -10 -10z"/>
<path d="M1825 1489 c-4 -6 -5 -12 -2 -15 2 -3 7 2 10 11 7 17 1 20 -8 4z"/>
<path d="M2222 1489 c-13 -5 -29 -6 -35 -3 -7 3 -3 -2 7 -10 11 -9 25 -16 30
-16 6 0 2 -7 -8 -15 -25 -19 -16 -19 18 -1 l27 14 -28 7 c-27 7 -28 7 -5 16
12 4 22 11 22 14 0 6 1 6 -28 -6z"/>
<path d="M2381 1491 c-9 -6 -10 -11 -2 -15 6 -4 11 -2 11 4 0 6 5 8 12 4 7 -4
8 -3 4 4 -8 14 -7 14 -25 3z"/>
<path d="M1966 1475 c-3 -8 -1 -15 4 -15 6 0 10 7 10 15 0 8 -2 15 -4 15 -2 0
-6 -7 -10 -15z"/>
<path d="M2066 1475 c4 -8 8 -15 10 -15 2 0 4 7 4 15 0 8 -4 15 -10 15 -5 0
-7 -7 -4 -15z"/>
<path d="M2090 1464 c-8 -16 -16 -33 -18 -38 -3 -5 5 1 17 13 12 12 21 30 19
39 -2 11 -7 7 -18 -14z"/>
<path d="M2148 1473 c7 -3 16 -2 19 1 4 3 -2 6 -13 5 -11 0 -14 -3 -6 -6z"/>
<path d="M1765 1460 c-3 -5 -1 -10 4 -10 6 0 11 5 11 10 0 6 -2 10 -4 10 -3 0
-8 -4 -11 -10z"/>
<path d="M1791 1451 c-1 -9 -9 -12 -26 -9 -14 3 -25 1 -25 -3 0 -5 6 -9 13
-10 30 -2 63 -6 77 -10 8 -2 14 2 13 9 -2 6 5 12 15 13 11 0 12 2 4 6 -7 3
-19 -1 -27 -7 -12 -10 -15 -9 -15 6 0 15 -2 16 -9 5 -7 -11 -9 -11 -14 0 -5
12 -6 12 -6 0z"/>
<path d="M1997 1453 c-4 -3 -7 -13 -7 -22 1 -13 3 -13 11 2 11 19 8 33 -4 20z"/>
<path d="M2020 1448 c0 -12 7 -18 23 -17 15 0 17 2 7 6 -8 3 -18 11 -22 17 -5
7 -8 4 -8 -6z"/>
<path d="M2154 1448 c-3 -5 -11 -5 -17 -2 -7 4 -6 1 2 -7 10 -11 15 -11 18 -1
3 6 9 10 13 7 5 -3 11 -2 14 3 3 5 -2 9 -10 9 -8 0 -17 -4 -20 -9z"/>
<path d="M1712 1425 c0 -16 2 -22 5 -12 2 9 2 23 0 30 -3 6 -5 -1 -5 -18z"/>
<path d="M1920 1434 c0 -8 5 -12 10 -9 6 3 10 10 10 16 0 5 -4 9 -10 9 -5 0
-10 -7 -10 -16z"/>
<path d="M1955 1440 c3 -5 8 -10 11 -10 2 0 4 5 4 10 0 6 -5 10 -11 10 -5 0
-7 -4 -4 -10z"/>
<path d="M2280 1440 c-8 -5 -12 -11 -9 -14 2 -3 11 -1 19 4 8 5 12 11 9 14 -2
3 -11 1 -19 -4z"/>
<path d="M2105 1430 c3 -5 1 -10 -6 -10 -7 0 -10 -2 -7 -5 8 -9 38 6 32 16 -3
5 -10 9 -15 9 -6 0 -7 -4 -4 -10z"/>
<path d="M2240 1430 c-8 -5 -12 -12 -9 -15 4 -3 12 1 19 10 14 17 11 19 -10 5z"/>
<path d="M2340 1430 c0 -5 6 -7 14 -4 8 3 17 1 21 -5 3 -6 11 -11 18 -11 15 0
-25 29 -40 30 -7 0 -13 -4 -13 -10z"/>
<path d="M1862 1418 c-15 -15 -16 -38 -1 -38 6 0 9 6 6 14 -3 7 0 19 6 25 6 6
9 11 6 11 -3 0 -10 -5 -17 -12z"/>
<path d="M2171 1416 c2 -2 15 -9 29 -15 24 -11 24 -11 6 3 -16 13 -49 24 -35
12z"/>
<path d="M2314 1408 c-4 -6 -3 -8 4 -4 5 3 12 1 14 -6 3 -8 6 -9 11 -1 4 6 0
13 -8 17 -8 3 -17 0 -21 -6z"/>
<path d="M1764 1368 c1 -25 4 -44 9 -41 9 5 8 42 -2 68 -6 14 -8 5 -7 -27z"/>
<path d="M1892 1385 c0 -16 2 -22 5 -12 2 9 2 23 0 30 -3 6 -5 -1 -5 -18z"/>
<path d="M1934 1394 c15 -10 15 -12 1 -18 -8 -3 -15 -11 -14 -18 0 -10 2 -10
6 0 7 17 23 15 23 -4 0 -8 5 -12 10 -9 6 4 7 11 4 17 -4 6 1 17 11 25 20 14
18 15 -28 17 -24 2 -26 0 -13 -10z"/>
<path d="M1805 1375 c1 -14 5 -28 10 -32 4 -5 5 -2 1 5 -4 6 -3 12 2 12 6 0 8
9 5 20 -7 28 -19 25 -18 -5z"/>
<path d="M2026 1392 c-3 -5 1 -9 9 -9 8 0 12 4 9 9 -3 4 -7 8 -9 8 -2 0 -6 -4
-9 -8z"/>
<path d="M2169 1393 c-7 -56 -6 -61 18 -58 12 1 23 -1 23 -5 0 -4 7 -7 15 -7
17 0 28 24 15 32 -5 3 -6 13 -3 22 6 15 5 16 -9 3 -14 -13 -14 -16 1 -27 14
-11 14 -12 1 -13 -9 0 -21 5 -28 12 -9 9 -12 9 -12 -1 0 -7 -4 -10 -9 -7 -4 3
-6 17 -3 31 2 14 2 25 -2 25 -3 0 -6 -3 -7 -7z"/>
<path d="M2350 1385 c-6 -8 -10 -19 -8 -24 1 -6 8 1 15 14 13 28 11 31 -7 10z"/>
<path d="M1685 1380 c3 -5 8 -10 11 -10 2 0 4 5 4 10 0 6 -5 10 -11 10 -5 0
-7 -4 -4 -10z"/>
<path d="M2250 1380 c0 -5 14 -7 33 -3 45 8 47 13 4 13 -20 0 -37 -4 -37 -10z"/>
<path d="M2055 1370 c-3 -5 -3 -14 0 -20 3 -5 -1 -10 -9 -10 -10 0 -13 6 -9
18 5 14 3 13 -10 -3 -14 -18 -14 -20 3 -23 25 -4 46 -30 34 -42 -12 -12 -6
-80 7 -80 4 0 11 5 15 12 4 6 3 8 -3 5 -6 -4 -13 6 -15 23 -4 30 5 40 17 20 4
-6 15 -8 26 -5 14 5 22 0 28 -17 6 -14 10 -17 10 -7 1 8 -5 21 -11 28 -11 11
-8 12 12 6 16 -4 20 -3 12 3 -7 5 -10 16 -6 28 7 18 6 17 -12 -2 -32 -35 -53
-37 -66 -6 -16 38 -18 66 -4 74 8 6 8 8 -1 8 -6 0 -15 -4 -18 -10z"/>
<path d="M1680 1358 c16 -20 12 -28 -20 -39 -19 -7 -30 -18 -30 -30 0 -11 -7
-19 -17 -19 -15 0 -16 2 -3 10 13 8 12 10 -2 10 -25 0 -23 -21 2 -27 11 -3 20
-14 20 -24 0 -11 3 -19 8 -19 4 0 7 19 7 42 0 35 3 43 18 43 28 0 43 34 23 51
-9 8 -11 9 -6 2z"/>
<path d="M2300 1361 c0 -6 -11 -16 -25 -21 -16 -6 -23 -14 -19 -25 3 -8 11
-15 16 -15 6 0 4 8 -3 17 -12 15 -12 16 3 11 10 -4 19 -1 22 9 5 13 9 13 24 2
16 -13 16 -12 2 6 -8 11 -16 22 -17 24 -2 2 -3 -1 -3 -8z"/>
<path d="M1980 1350 c0 -5 5 -10 11 -10 5 0 7 5 4 10 -3 6 -8 10 -11 10 -2 0
-4 -4 -4 -10z"/>
<path d="M2084 1349 c-5 -8 -3 -9 6 -4 10 6 12 4 7 -8 -3 -10 -2 -17 3 -17 13
0 13 27 1 35 -5 3 -13 0 -17 -6z"/>
<path d="M1610 1346 c0 -2 7 -9 15 -16 9 -7 15 -8 15 -2 0 5 -7 12 -15 16 -8
3 -15 4 -15 2z"/>
<path d="M1720 1340 c-13 -8 -13 -10 2 -10 9 0 19 -6 21 -12 3 -7 6 -3 6 10 1
24 -6 27 -29 12z"/>
<path d="M1850 1338 c0 -4 4 -8 9 -8 5 0 7 -9 4 -20 -3 -11 -1 -20 3 -20 5 0
9 13 9 28 1 17 -5 29 -12 29 -7 0 -13 -4 -13 -9z"/>
<path d="M1592 1318 c2 -6 10 -13 16 -14 7 -1 8 0 2 3 -5 2 -8 9 -4 14 3 5 0
9 -6 9 -7 0 -10 -5 -8 -12z"/>
<path d="M1892 1310 c0 -14 2 -19 5 -12 2 6 2 18 0 25 -3 6 -5 1 -5 -13z"/>
<path d="M1924 1311 c0 -13 6 -17 21 -13 20 4 20 4 0 -11 -10 -8 -24 -14 -30
-13 -5 2 -7 1 -2 -1 4 -3 4 -10 0 -16 -3 -7 3 -4 14 6 13 11 23 14 27 8 4 -6
14 -8 24 -5 15 5 16 4 1 -8 -11 -9 -14 -19 -8 -33 7 -19 8 -18 8 4 1 20 5 22
26 17 l25 -6 -23 23 c-15 16 -26 20 -34 14 -8 -6 -13 -6 -13 0 0 5 6 15 13 22
10 11 10 13 0 7 -7 -4 -13 -2 -13 4 0 6 -4 8 -10 5 -5 -3 -10 -1 -10 4 0 6 -4
11 -8 11 -4 0 -8 -8 -8 -19z"/>
<path d="M1970 1326 c0 -2 7 -7 16 -10 8 -3 12 -2 9 4 -6 10 -25 14 -25 6z"/>
<path d="M1557 1314 c-3 -5 1 -15 9 -22 16 -14 18 -5 5 17 -5 7 -11 9 -14 5z"/>
<path d="M1820 1310 c-12 -8 -10 -10 8 -10 13 0 20 4 17 10 -7 12 -6 12 -25 0z"/>
<path d="M2015 1310 c-3 -5 -1 -10 4 -10 6 0 11 5 11 10 0 6 -2 10 -4 10 -3 0
-8 -4 -11 -10z"/>
<path d="M1711 1294 c0 -11 3 -14 6 -6 3 7 2 16 -1 19 -3 4 -6 -2 -5 -13z"/>
<path d="M1720 1270 l-25 -20 32 11 c18 6 30 15 27 20 -7 11 -5 12 -34 -11z"/>
<path d="M1785 1281 c-3 -5 -1 -12 4 -15 5 -3 11 1 15 9 6 16 -9 21 -19 6z"/>
<path d="M2000 1286 c0 -3 9 -10 20 -16 11 -6 20 -8 20 -6 0 3 -9 10 -20 16
-11 6 -20 8 -20 6z"/>
<path d="M1858 1264 c13 -9 27 -26 32 -38 8 -19 9 -19 9 7 1 16 -4 26 -11 25
-7 -2 -12 3 -10 10 1 7 -8 12 -20 12 l-22 0 22 -16z"/>
<path d="M2215 1270 c3 -5 8 -10 11 -10 2 0 4 5 4 10 0 6 -5 10 -11 10 -5 0
-7 -4 -4 -10z"/>
<path d="M1510 1250 c0 -5 -7 -10 -17 -10 -9 0 -13 -3 -10 -7 4 -3 1 -13 -5
-22 -7 -9 1 -4 18 11 24 22 33 25 43 15 10 -10 11 -9 6 6 -8 18 -35 24 -35 7z"/>
<path d="M1658 1253 c7 -3 16 -2 19 1 4 3 -2 6 -13 5 -11 0 -14 -3 -6 -6z"/>
<path d="M1747 1253 c-11 -10 -8 -43 3 -43 7 0 7 -7 0 -20 -6 -12 -8 -30 -5
-40 6 -17 8 -18 21 -6 18 19 18 27 -1 20 -13 -5 -14 -2 -5 20 5 14 6 26 2 27
-4 0 2 5 13 10 18 9 18 9 -3 5 -20 -4 -23 -1 -19 15 5 20 4 23 -6 12z"/>
<path d="M2185 1250 c-8 -13 9 -20 24 -11 10 6 9 10 -3 14 -8 3 -18 2 -21 -3z"/>
<path d="M1818 1243 c7 -3 16 -2 19 1 4 3 -2 6 -13 5 -11 0 -14 -3 -6 -6z"/>
<path d="M1560 1229 c0 -6 -9 -9 -19 -6 -13 3 -18 0 -15 -8 3 -7 15 -10 29 -7
15 2 22 9 18 18 -6 17 -13 18 -13 3z"/>
<path d="M2120 1231 c0 -6 4 -13 10 -16 6 -3 7 1 4 9 -7 18 -14 21 -14 7z"/>
<path d="M1850 1202 c-15 -14 -19 -22 -10 -20 15 3 46 37 39 42 -2 1 -15 -9
-29 -22z"/>
<path d="M1998 1223 c6 -2 18 -2 25 0 6 3 1 5 -13 5 -14 0 -19 -2 -12 -5z"/>
<path d="M1440 1200 c-9 -16 -8 -20 6 -20 13 0 14 -3 5 -14 -9 -10 -7 -17 6
-27 16 -12 17 -12 6 2 -7 9 -10 19 -7 22 9 9 46 -12 39 -23 -3 -5 -1 -12 5
-15 6 -4 10 -3 9 2 -1 4 0 10 1 13 8 21 9 60 1 65 -6 3 -8 -3 -6 -15 2 -11 0
-22 -6 -25 -5 -4 -9 0 -9 8 0 8 -8 14 -17 13 -11 0 -17 6 -17 17 2 22 -3 22
-16 -3z"/>
<path d="M1595 1210 c-3 -5 1 -10 9 -10 9 0 16 5 16 10 0 6 -4 10 -9 10 -6 0
-13 -4 -16 -10z"/>
<path d="M2158 1213 c7 -3 16 -2 19 1 4 3 -2 6 -13 5 -11 0 -14 -3 -6 -6z"/>
<path d="M1650 1201 c0 -5 9 -7 20 -4 11 3 20 7 20 9 0 2 -9 4 -20 4 -11 0
-20 -4 -20 -9z"/>
<path d="M1780 1195 c-11 -13 -10 -14 4 -9 9 3 16 10 16 15 0 13 -6 11 -20 -6z"/>
<path d="M1940 1201 c0 -6 4 -13 10 -16 6 -3 7 1 4 9 -7 18 -14 21 -14 7z"/>
<path d="M1995 1200 c4 -6 1 -17 -5 -25 -7 -9 -8 -15 -2 -15 10 0 22 23 22 41
0 5 -5 9 -11 9 -5 0 -7 -5 -4 -10z"/>
<path d="M1619 1183 c-13 -16 -12 -17 4 -4 16 13 21 21 13 21 -2 0 -10 -8 -17
-17z"/>
<path d="M1705 1190 c3 -5 8 -10 11 -10 2 0 4 5 4 10 0 6 -5 10 -11 10 -5 0
-7 -4 -4 -10z"/>
<path d="M2026 1183 c-4 -9 -4 -18 -1 -21 3 -3 5 -1 5 5 0 6 9 13 20 16 11 3
20 1 20 -4 0 -5 -6 -9 -14 -9 -8 0 -16 -7 -20 -15 -5 -13 -2 -13 18 1 22 14
25 14 35 -3 6 -10 10 -13 10 -8 0 36 -62 68 -73 38z"/>
<path d="M2115 1190 c-4 -6 -11 -7 -17 -4 -7 4 -8 2 -4 -4 7 -12 36 -5 36 9 0
12 -7 11 -15 -1z"/>
<path d="M1570 1180 c8 -5 20 -10 25 -10 6 0 3 5 -5 10 -8 5 -19 10 -25 10 -5
0 -3 -5 5 -10z"/>
<path d="M1670 1180 c0 -6 7 -10 15 -10 8 0 15 2 15 4 0 2 -7 6 -15 10 -8 3
-15 1 -15 -4z"/>
<path d="M1800 1180 c-12 -8 -12 -10 3 -16 9 -3 17 -15 17 -25 0 -10 3 -19 8
-20 4 0 15 -2 25 -4 9 -2 15 1 11 6 -3 5 -9 7 -14 4 -5 -3 -11 -1 -15 5 -3 5
-2 10 3 10 6 0 13 7 16 16 5 13 3 14 -6 6 -14 -11 -43 10 -31 22 9 9 0 7 -17
-4z"/>
<path d="M1889 1178 c-4 -14 -3 -60 1 -63 3 -2 7 12 8 31 2 19 0 34 -3 34 -3
0 -5 -1 -6 -2z"/>
<path d="M1421 1154 c0 -11 3 -14 6 -6 3 7 2 16 -1 19 -3 4 -6 -2 -5 -13z"/>
<path d="M1550 1160 c8 -5 22 -9 30 -9 10 0 8 3 -5 9 -27 12 -43 12 -25 0z"/>
<path d="M1950 1160 c0 -5 5 -10 11 -10 5 0 7 5 4 10 -3 6 -8 10 -11 10 -2 0
-4 -4 -4 -10z"/>
<path d="M1600 1130 c0 -16 3 -30 8 -30 4 0 7 14 7 30 0 17 -3 30 -7 30 -5 0
-8 -13 -8 -30z"/>
<path d="M1933 1135 c1 -24 6 -30 24 -31 23 -2 23 -1 5 15 -10 9 -22 23 -25
31 -3 8 -5 1 -4 -15z"/>
<path d="M1701 1135 c-1 -14 5 -21 19 -21 11 0 20 4 20 8 0 4 -6 8 -14 8 -8 0
-17 6 -19 13 -3 6 -6 3 -6 -8z"/>
<path d="M1784 1142 c-9 -5 -8 -10 1 -19 10 -9 14 -8 18 8 5 20 0 24 -19 11z"/>
<path d="M1650 1128 c0 -10 -5 -18 -12 -18 -6 0 -9 -3 -5 -6 3 -3 12 -2 21 3
10 6 12 13 6 23 -8 13 -10 12 -10 -2z"/>
<path d="M1980 1136 c0 -2 8 -10 18 -17 15 -13 16 -12 3 4 -13 16 -21 21 -21
13z"/>
<path d="M1441 1114 c0 -11 3 -14 6 -6 3 7 2 16 -1 19 -3 4 -6 -2 -5 -13z"/>
<path d="M1473 1105 c0 -8 4 -12 9 -9 4 3 8 9 8 15 0 5 -4 9 -8 9 -5 0 -9 -7
-9 -15z"/>
<path d="M1511 1106 c-9 -11 -9 -16 0 -22 7 -4 9 -3 5 4 -3 5 0 12 6 15 7 2
10 7 7 11 -3 4 -12 0 -18 -8z"/>
<path d="M1560 1099 c0 -4 6 -10 13 -12 7 -4 6 -6 -5 -6 -9 -1 -19 5 -21 12
-3 7 -6 4 -6 -7 -1 -14 4 -17 24 -14 17 4 25 1 25 -9 0 -11 3 -11 14 -1 15 14
12 23 -7 23 -7 1 -11 6 -10 11 1 6 -5 11 -13 11 -7 0 -14 -4 -14 -8z"/>
<path d="M1668 1096 c-23 -17 -23 -25 0 -23 10 0 18 9 18 19 0 10 0 18 -1 18
0 0 -8 -7 -17 -14z"/>
<path d="M1767 1099 c7 -7 15 -10 18 -7 3 3 -2 9 -12 12 -14 6 -15 5 -6 -5z"/>
<path d="M1813 1102 c-8 -5 -8 -12 2 -25 12 -17 13 -16 11 7 0 15 -1 26 -1 26
0 0 -5 -4 -12 -8z"/>
<path d="M1725 1090 c3 -5 10 -10 16 -10 5 0 9 5 9 10 0 6 -7 10 -16 10 -8 0
-12 -4 -9 -10z"/>
<path d="M1190 1069 c0 -5 5 -7 10 -4 6 3 10 8 10 11 0 2 -4 4 -10 4 -5 0 -10
-5 -10 -11z"/>
<path d="M1630 1067 c0 -9 5 -17 10 -17 6 0 10 -6 10 -13 0 -16 37 -37 72 -41
19 -2 29 3 37 21 10 22 9 23 -9 13 -10 -5 -22 -14 -25 -20 -10 -15 -43 3 -70
40 -17 23 -25 28 -25 17z"/>
<path d="M1705 1070 c3 -5 8 -10 11 -10 2 0 4 5 4 10 0 6 -5 10 -11 10 -5 0
-7 -4 -4 -10z"/>
<path d="M1340 1060 c-9 -6 -10 -10 -3 -10 6 0 15 5 18 10 8 12 4 12 -15 0z"/>
<path d="M1114 1047 c-11 -6 -26 -23 -33 -39 -8 -17 -19 -27 -26 -24 -7 2 -15
-1 -18 -7 -3 -9 7 -12 32 -11 41 1 61 9 61 26 0 6 -8 4 -18 -5 -10 -10 -22
-14 -25 -10 -11 11 -8 23 6 21 6 -2 11 3 9 10 -1 7 8 22 20 32 25 21 23 23 -8
7z"/>
<path d="M1405 1050 c3 -5 1 -10 -5 -10 -6 0 -8 -5 -5 -10 5 -8 11 -7 21 1 14
12 10 29 -7 29 -6 0 -7 -4 -4 -10z"/>
<path d="M1683 1039 c6 -10 14 -15 17 -11 3 4 9 10 13 13 5 3 -2 8 -16 11 -22
4 -24 3 -14 -13z"/>
<path d="M2150 1049 c0 -5 5 -7 10 -4 6 3 10 8 10 11 0 2 -4 4 -10 4 -5 0 -10
-5 -10 -11z"/>
<path d="M2346 1045 c-3 -8 -12 -15 -21 -15 -8 0 -15 -8 -15 -17 0 -11 3 -14
8 -7 4 6 15 13 25 17 9 3 17 13 17 22 0 19 -6 19 -14 0z"/>
<path d="M2440 1044 c0 -8 5 -12 10 -9 6 4 8 11 5 16 -9 14 -15 11 -15 -7z"/>
<path d="M2570 1054 c0 -5 7 -18 15 -28 8 -11 15 -16 15 -10 0 5 -7 18 -15 28
-8 11 -15 16 -15 10z"/>
<path d="M1175 1036 c-11 -8 -25 -12 -31 -9 -7 2 -15 -1 -20 -8 -4 -8 -3 -10
4 -5 23 14 32 -4 16 -30 -9 -13 -14 -24 -11 -24 3 0 15 16 27 35 19 30 24 33
46 25 17 -7 23 -7 19 0 -3 6 -13 10 -21 10 -8 0 -12 5 -9 10 8 14 2 13 -20 -4z"/>
<path d="M1226 1036 c16 -12 17 -17 6 -41 -9 -20 -10 -31 -2 -39 7 -7 10 -2
10 17 0 15 3 26 8 26 18 -3 26 2 14 10 -10 6 -4 12 20 24 32 16 32 17 6 15
-15 -1 -24 -6 -22 -10 3 -4 -2 -8 -11 -8 -9 0 -14 4 -11 8 2 4 -5 9 -16 9 -19
2 -20 1 -2 -11z"/>
<path d="M1931 1034 c0 -11 3 -14 6 -6 3 7 2 16 -1 19 -3 4 -6 -2 -5 -13z"/>
<path d="M2196 1042 c5 -4 12 -11 15 -15 3 -5 9 -2 12 5 3 9 -3 14 -15 15 -11
1 -16 -1 -12 -5z"/>
<path d="M2260 1039 c0 -8 5 -21 10 -29 8 -12 9 -10 7 7 -4 26 -17 43 -17 22z"/>
<path d="M2485 1042 c-5 -4 -11 -16 -13 -27 l-2 -20 11 20 c7 11 17 23 23 27
7 5 7 8 1 8 -5 0 -14 -4 -20 -8z"/>
<path d="M1892 1031 c2 -7 7 -12 11 -12 12 1 9 15 -3 20 -7 2 -11 -2 -8 -8z"/>
<path d="M2375 1020 c-10 -31 13 -53 44 -44 14 3 31 7 38 7 7 0 10 4 8 8 -3 4
-15 5 -27 1 -14 -3 -19 -1 -14 6 5 8 2 10 -8 6 -9 -3 -13 -11 -10 -16 4 -6 1
-9 -6 -6 -20 6 -21 37 -2 48 16 9 16 9 0 10 -9 0 -20 -9 -23 -20z"/>
<path d="M1285 1019 c-4 -6 -5 -12 -2 -15 2 -3 7 2 10 11 7 17 1 20 -8 4z"/>
<path d="M2091 1014 c0 -11 3 -14 6 -6 3 7 2 16 -1 19 -3 4 -6 -2 -5 -13z"/>
<path d="M2510 1026 c0 -2 7 -7 16 -10 8 -3 12 -2 9 4 -6 10 -25 14 -25 6z"/>
<path d="M2150 1010 c0 -5 5 -10 11 -10 5 0 7 5 4 10 -3 6 -8 10 -11 10 -2 0
-4 -4 -4 -10z"/>
<path d="M2180 1004 c0 -8 5 -12 10 -9 6 4 8 11 5 16 -9 14 -15 11 -15 -7z"/>
<path d="M2235 1009 c-4 -6 -5 -12 -2 -15 2 -3 7 2 10 11 7 17 1 20 -8 4z"/>
<path d="M1184 995 c-17 -13 -17 -14 -2 -15 9 0 20 5 23 11 11 17 0 20 -21 4z"/>
<path d="M2060 1001 c0 -10 19 -25 25 -20 1 2 -3 10 -11 17 -8 7 -14 8 -14 3z"/>
<path d="M2344 979 c-2 -33 4 -33 11 -1 2 12 1 24 -3 26 -4 2 -8 -9 -8 -25z"/>
<path d="M2496 1003 c5 -5 12 -12 16 -18 4 -6 8 -2 8 8 0 9 -7 17 -17 17 -9 0
-12 -3 -7 -7z"/>
<path d="M2550 999 c0 -5 5 -7 10 -4 6 3 10 8 10 11 0 2 -4 4 -10 4 -5 0 -10
-5 -10 -11z"/>
<path d="M1646 992 c-3 -6 1 -15 8 -21 8 -7 17 -8 20 -3 3 6 -1 15 -8 21 -8 7
-17 8 -20 3z"/>
<path d="M1840 990 c0 -5 5 -10 11 -10 5 0 7 5 4 10 -3 6 -8 10 -11 10 -2 0
-4 -4 -4 -10z"/>
<path d="M1989 983 c-13 -16 -12 -17 4 -4 16 13 21 21 13 21 -2 0 -10 -8 -17
-17z"/>
<path d="M2131 984 c0 -11 3 -14 6 -6 3 7 2 16 -1 19 -3 4 -6 -2 -5 -13z"/>
<path d="M1869 973 c-13 -16 -12 -17 4 -4 16 13 21 21 13 21 -2 0 -10 -8 -17
-17z"/>
<path d="M2099 978 c0 -7 -2 -21 -4 -30 -2 -10 0 -18 4 -18 5 0 8 14 9 30 1
28 -7 44 -9 18z"/>
<path d="M2190 980 c-8 -5 -12 -11 -10 -14 3 -2 14 2 24 10 22 15 10 19 -14 4z"/>
<path d="M2263 970 c-1 -11 4 -20 13 -20 8 0 14 -6 14 -12 0 -10 3 -9 9 1 7
11 11 10 20 -5 9 -17 10 -17 11 -1 0 9 -5 17 -11 17 -8 0 -8 5 1 15 17 20 6
19 -15 -1 -15 -15 -17 -15 -22 5 -7 27 -18 27 -20 1z"/>
<path d="M974 968 c-3 -4 4 -8 15 -8 11 0 22 4 26 9 3 6 -4 9 -16 8 -11 -1
-23 -5 -25 -9z"/>
<path d="M2240 967 c0 -10 -8 -17 -17 -17 -15 0 -16 2 -3 10 8 5 10 10 5 10
-6 0 -18 -9 -28 -20 -10 -12 -22 -18 -27 -15 -6 3 -10 1 -10 -5 0 -8 7 -9 18
-5 9 4 27 10 40 13 24 5 40 27 28 39 -3 4 -6 -1 -6 -10z"/>
<path d="M1187 963 c-11 -11 -8 -33 5 -33 6 0 8 3 5 7 -4 3 -2 12 4 20 11 13
-2 19 -14 6z"/>
<path d="M1797 952 c-19 -21 -22 -32 -7 -32 6 0 9 3 9 8 -3 18 2 22 19 13 14
-8 18 -6 19 10 2 24 -19 25 -40 1z"/>
<path d="M2478 963 c7 -3 16 -2 19 1 4 3 -2 6 -13 5 -11 0 -14 -3 -6 -6z"/>
<path d="M2510 963 c0 -5 -10 -15 -22 -21 -13 -6 -18 -11 -12 -11 16 -1 50 27
41 35 -4 4 -7 3 -7 -3z"/>
<path d="M1155 948 c5 -12 -2 -17 -25 -20 -23 -4 -30 -1 -26 9 3 8 2 11 -3 8
-6 -3 -9 -14 -8 -25 1 -10 4 -17 8 -14 9 5 21 -25 14 -36 -7 -11 15 -7 42 8
15 8 20 18 16 30 -4 12 -3 14 5 7 5 -5 12 -19 15 -30 4 -18 5 -18 6 2 0 12
-10 34 -24 49 -14 15 -23 21 -20 12z m5 -35 c0 -5 -7 -16 -14 -25 -12 -16 -14
-16 -24 7 -11 23 -10 25 13 25 14 0 25 -3 25 -7z"/>
<path d="M1250 950 c0 -5 5 -10 11 -10 5 0 7 5 4 10 -3 6 -8 10 -11 10 -2 0
-4 -4 -4 -10z"/>
<path d="M2025 950 c4 -6 11 -8 16 -5 14 9 11 15 -7 15 -8 0 -12 -5 -9 -10z"/>
<path d="M2120 950 c0 -5 5 -10 11 -10 5 0 7 5 4 10 -3 6 -8 10 -11 10 -2 0
-4 -4 -4 -10z"/>
<path d="M2400 951 c0 -7 -5 -9 -12 -5 -7 5 -8 3 -3 -5 5 -9 10 -10 18 -2 6 6
8 14 4 18 -4 3 -7 1 -7 -6z"/>
<path d="M975 940 c-4 -6 -11 -7 -17 -4 -7 5 -8 2 -2 -7 5 -8 7 -23 5 -34 l-3
-20 15 20 c9 11 11 22 6 23 -6 3 -5 10 2 18 6 8 9 14 6 14 -3 0 -9 -5 -12 -10z"/>
<path d="M1056 941 c-3 -4 -17 -7 -31 -6 -14 2 -25 0 -25 -4 0 -4 17 -7 38 -7
24 1 39 6 39 14 0 14 -13 16 -21 3z"/>
<path d="M1968 943 c6 -2 18 -2 25 0 6 3 1 5 -13 5 -14 0 -19 -2 -12 -5z"/>
<path d="M1928 933 c7 -3 16 -2 19 1 4 3 -2 6 -13 5 -11 0 -14 -3 -6 -6z"/>
<path d="M1225 919 c-4 -6 -5 -12 -2 -15 2 -3 7 2 10 11 7 17 1 20 -8 4z"/>
<path d="M1997 909 c-4 -15 -12 -20 -24 -17 -19 5 -50 -19 -38 -30 3 -3 10 -1
14 6 4 7 12 12 17 11 27 -5 40 3 42 26 2 31 -4 33 -11 4z"/>
<path d="M2216 901 c-14 -26 -14 -30 -1 -25 8 3 14 9 13 12 0 4 0 14 1 22 1
13 2 13 11 0 5 -8 12 -12 15 -9 3 4 -1 12 -9 18 -12 10 -18 7 -30 -18z"/>
<path d="M2443 923 c-18 -7 -16 -20 2 -20 8 0 15 6 15 14 0 7 -1 13 -2 12 -2
0 -9 -3 -15 -6z"/>
<path d="M1911 898 c-13 -22 -13 -22 5 -7 10 9 26 19 34 22 11 4 9 6 -5 6 -11
1 -26 -9 -34 -21z"/>
<path d="M2071 892 c-30 -28 -44 -55 -18 -33 8 6 17 8 21 4 4 -4 4 0 1 9 -4 9
-2 19 4 23 6 3 11 0 11 -7 0 -8 5 -6 11 5 18 31 2 30 -30 -1z"/>
<path d="M2136 905 c-9 -26 -7 -32 5 -12 6 10 9 21 6 23 -2 3 -7 -2 -11 -11z"/>
<path d="M931 902 c-1 -7 -5 -11 -10 -8 -5 4 -8 -2 -7 -11 2 -10 10 -19 20
-19 15 -2 15 -2 0 3 -13 4 -14 7 -4 13 7 4 10 14 7 21 -4 11 -6 11 -6 1z"/>
<path d="M998 889 l-23 -20 27 16 c24 15 27 15 40 -2 14 -20 58 -29 58 -12 0
5 -4 8 -8 5 -5 -3 -22 4 -40 14 -31 19 -31 19 -54 -1z"/>
<path d="M1431 901 c-10 -6 -9 -10 3 -14 8 -3 18 -2 21 3 8 13 -9 20 -24 11z"/>
<path d="M1742 885 c-11 -13 -22 -22 -26 -20 -3 3 -4 2 -1 -2 8 -11 36 -13 29
-2 -3 5 1 12 9 15 7 2 14 11 14 19 0 20 -2 19 -25 -10z"/>
<path d="M2390 890 c-6 -11 -8 -20 -6 -20 3 0 10 9 16 20 6 11 8 20 6 20 -3 0
-10 -9 -16 -20z"/>
<path d="M1705 890 c-3 -5 -2 -10 4 -10 5 0 13 5 16 10 3 6 2 10 -4 10 -5 0
-13 -4 -16 -10z"/>
<path d="M2162 892 c-7 -5 -10 -16 -6 -25 9 -25 22 -20 20 8 0 14 -1 25 -1 25
0 0 -6 -4 -13 -8z"/>
<path d="M1295 873 c-3 -10 1 -13 12 -11 9 2 18 8 20 14 5 16 -25 13 -32 -3z"/>
<path d="M1339 870 c-8 -11 -25 -23 -38 -25 -14 -2 -28 -10 -32 -16 -5 -8 -8
-8 -12 0 -4 8 -5 8 -3 0 1 -7 9 -13 17 -15 7 -1 22 -5 32 -9 14 -6 18 -4 15 9
-2 9 10 26 26 39 17 14 25 26 19 30 -6 4 -17 -2 -24 -13z m-39 -40 c0 -5 -5
-10 -11 -10 -5 0 -7 5 -4 10 3 6 8 10 11 10 2 0 4 -4 4 -10z"/>
<path d="M1515 880 c3 -5 8 -10 11 -10 2 0 4 5 4 10 0 6 -5 10 -11 10 -5 0 -7
-4 -4 -10z"/>
<path d="M1540 880 c0 -6 -6 -17 -12 -24 -11 -11 -15 -11 -25 3 -6 9 -15 13
-18 9 -10 -10 16 -34 45 -42 14 -3 19 -3 13 0 -7 3 -13 10 -13 15 0 6 5 7 12
3 7 -5 8 -3 3 6 -6 10 -3 12 13 8 28 -8 28 3 2 20 -13 8 -20 8 -20 2z"/>
<path d="M1869 889 c0 -2 -2 -12 -4 -21 -2 -13 3 -18 18 -18 23 0 14 -14 -11
-16 -10 -1 -30 -2 -45 -3 -16 0 -26 -5 -22 -11 4 -6 11 -7 17 -4 6 4 8 1 6 -7
-3 -8 -10 -13 -16 -12 -5 1 -8 -7 -5 -18 4 -15 8 -17 19 -8 7 6 13 14 12 17
-4 24 16 40 47 38 20 -2 32 1 31 9 -2 11 -45 62 -47 54z"/>
<path d="M2240 876 c0 -2 7 -7 16 -10 8 -3 12 -2 9 4 -6 10 -25 14 -25 6z"/>
<path d="M2317 865 c3 -8 9 -12 14 -9 12 7 11 11 -5 17 -10 4 -13 1 -9 -8z"/>
<path d="M1005 860 c-4 -6 -10 -8 -15 -5 -16 10 -18 -10 -4 -35 8 -14 14 -18
13 -10 -4 40 1 43 26 20 14 -13 25 -21 25 -17 0 4 11 2 25 -3 19 -7 25 -6 25
4 0 7 -10 12 -22 12 -14 -1 -22 4 -20 12 1 8 -2 11 -8 7 -5 -3 -10 0 -10 7 0
9 -3 9 -10 -2 -9 -13 -14 -7 -11 13 2 10 -7 9 -14 -3z"/>
<path d="M1219 868 c-8 -15 -2 -55 8 -55 8 0 9 6 2 18 -12 23 -12 32 1 24 6
-3 10 -1 10 4 0 9 -17 16 -21 9z"/>
<path d="M2113 859 c3 -9 1 -21 -4 -26 -5 -5 5 -9 26 -10 19 -1 32 3 29 8 -3
5 -11 9 -19 9 -8 0 -19 8 -25 18 -9 14 -11 14 -7 1z"/>
<path d="M2130 860 c0 -5 5 -10 11 -10 5 0 7 5 4 10 -3 6 -8 10 -11 10 -2 0
-4 -4 -4 -10z"/>
<path d="M2395 860 c-3 -6 1 -7 9 -4 18 7 21 14 7 14 -6 0 -13 -4 -16 -10z"/>
<path d="M1133 853 c-23 -9 -14 -20 12 -15 14 2 22 8 19 13 -6 10 -12 10 -31
2z"/>
<path d="M1182 835 c3 -28 11 -24 13 5 1 11 -2 20 -7 20 -4 0 -7 -11 -6 -25z"/>
<path d="M1370 851 c0 -10 30 -24 37 -17 3 2 -5 9 -16 16 -12 6 -21 7 -21 1z"/>
<path d="M2361 852 c-1 -7 -5 -10 -11 -7 -6 3 -7 -1 -4 -10 4 -11 10 -13 16
-7 6 6 8 16 5 24 -4 10 -6 10 -6 0z"/>
<path d="M933 843 c-7 -2 -13 -9 -13 -14 0 -4 7 -5 17 -2 12 5 14 3 8 -7 -5
-9 -4 -11 3 -6 7 4 12 2 12 -5 0 -7 3 -9 6 -6 4 4 2 13 -4 20 -7 8 -9 17 -5
20 7 8 -6 8 -24 0z"/>
<path d="M1420 841 c0 -9 30 -24 36 -18 2 1 -6 8 -16 15 -11 7 -20 8 -20 3z"/>
<path d="M1635 840 c-3 -5 -1 -10 4 -10 6 0 11 5 11 10 0 6 -2 10 -4 10 -3 0
-8 -4 -11 -10z"/>
<path d="M1991 839 c10 -6 3 -8 -20 -7 -19 2 -36 -2 -38 -9 -3 -8 6 -10 29 -6
18 2 40 5 49 5 26 -1 18 23 -9 25 -18 1 -21 -1 -11 -8z"/>
<path d="M2076 838 c3 -5 -8 -13 -24 -19 -29 -10 -40 -39 -16 -39 8 0 11 6 8
15 -4 8 -2 15 4 15 13 0 20 -20 15 -40 -3 -12 -15 -14 -46 -12 -23 3 -39 1
-35 -3 4 -4 25 -9 47 -10 30 -3 41 0 41 11 0 16 26 19 35 4 3 -5 1 -10 -6 -10
-7 0 -10 -2 -7 -5 3 -3 15 -2 27 3 21 7 20 9 -13 25 -32 15 -50 47 -27 47 5 0
11 6 14 13 3 8 -1 14 -9 14 -7 0 -11 -4 -8 -9z"/>
<path d="M2230 835 c0 -8 4 -15 10 -15 5 0 7 -8 4 -17 -4 -11 -2 -14 3 -8 4 6
11 12 15 16 4 3 -1 13 -12 22 -17 14 -20 14 -20 2z"/>
<path d="M2180 830 c0 -5 7 -10 16 -10 8 0 12 5 9 10 -3 6 -10 10 -16 10 -5 0
-9 -4 -9 -10z"/>
<path d="M2294 829 c-5 -9 -2 -10 11 -5 11 4 22 1 27 -6 7 -10 9 -9 5 2 -5 19
-33 25 -43 9z"/>
<path d="M1357 816 c-4 -10 0 -12 14 -9 22 6 26 23 5 23 -8 0 -16 -6 -19 -14z"/>
<path d="M1769 813 c-13 -16 -12 -17 4 -4 16 13 21 21 13 21 -2 0 -10 -8 -17
-17z"/>
<path d="M1110 816 c0 -9 40 -13 46 -5 3 5 -6 9 -20 9 -14 0 -26 -2 -26 -4z"/>
<path d="M1608 813 c7 -3 16 -2 19 1 4 3 -2 6 -13 5 -11 0 -14 -3 -6 -6z"/>
<path d="M2100 799 c0 -5 5 -7 10 -4 6 3 10 1 10 -4 0 -6 8 -11 17 -11 15 0
14 2 -3 15 -23 17 -34 19 -34 4z"/>
<path d="M2200 800 c-13 -8 -13 -10 2 -10 9 0 20 5 23 10 8 13 -5 13 -25 0z"/>
<path d="M1930 785 c8 -9 9 -15 2 -15 -6 0 -14 5 -17 10 -3 6 -11 10 -18 10
-6 0 -1 -7 11 -16 12 -8 26 -13 32 -9 11 7 2 35 -12 35 -6 0 -5 -6 2 -15z"/>
<path d="M1774 778 c3 -21 16 -38 29 -38 7 0 3 7 -7 15 -11 8 -14 15 -7 15 7
0 9 5 6 10 -9 14 -24 12 -21 -2z"/>
<path d="M2280 780 c-9 -6 -10 -10 -3 -10 6 0 15 5 18 10 8 12 4 12 -15 0z"/>
<path d="M1737 749 c4 -16 8 -18 14 -7 8 12 13 4 10 -15 -1 -5 3 -6 9 -2 13 8
5 22 -20 35 -15 8 -17 7 -13 -11z"/>
<path d="M1840 758 c0 -4 16 -8 35 -8 19 0 35 2 35 4 0 2 -16 6 -35 8 -19 2
-35 0 -35 -4z"/>
<path d="M2158 757 c14 -17 6 -27 -16 -20 -13 3 -14 2 -4 -4 9 -7 6 -13 -15
-22 -20 -9 -23 -15 -14 -20 11 -7 11 -10 0 -14 -11 -4 -11 -6 -1 -6 8 -1 10
-6 6 -13 -6 -9 -3 -9 9 0 9 8 22 11 29 7 7 -4 3 2 -10 12 l-23 19 31 22 c34
25 37 37 14 46 -13 5 -14 4 -6 -7z"/>
<path d="M1925 727 c6 -24 5 -26 -11 -20 -15 6 -15 3 4 -17 12 -13 25 -20 29
-17 3 4 1 7 -5 7 -7 0 -12 4 -12 10 0 5 7 7 16 3 14 -5 14 -2 -2 23 -26 42
-26 42 -19 11z"/>
<path d="M1823 733 c-18 -7 -16 -20 2 -20 8 0 15 6 15 14 0 7 -1 13 -2 12 -2
0 -9 -3 -15 -6z"/>
<path d="M2010 723 c0 -15 -2 -16 -10 -3 -8 13 -10 12 -10 -2 0 -25 26 -23 33
2 3 11 1 20 -4 20 -5 0 -9 -8 -9 -17z"/>
<path d="M1960 715 c7 -9 15 -13 17 -11 7 7 -7 26 -19 26 -6 0 -6 -6 2 -15z"/>
<path d="M2054 712 c3 -5 -3 -12 -14 -15 -11 -3 -20 -11 -20 -19 0 -9 2 -10 8
-1 4 6 21 13 37 15 l30 3 -24 14 c-13 7 -21 9 -17 3z"/>
<path d="M1740 706 c0 -2 7 -6 15 -10 8 -3 15 -1 15 4 0 6 -7 10 -15 10 -8 0
-15 -2 -15 -4z"/>
<path d="M1810 689 c0 -5 5 -7 10 -4 6 3 10 8 10 11 0 2 -4 4 -10 4 -5 0 -10
-5 -10 -11z"/>
<path d="M1848 693 c6 -2 18 -2 25 0 6 3 1 5 -13 5 -14 0 -19 -2 -12 -5z"/>
<path d="M1986 675 c-11 -8 -15 -15 -9 -15 6 0 16 7 23 15 16 19 11 19 -14 0z"/>
<path d="M1754 672 c3 -6 -2 -13 -11 -15 -14 -4 -13 -5 5 -6 23 -1 30 13 10
25 -6 4 -8 3 -4 -4z"/>
<path d="M1783 639 c-15 -17 -34 -38 -41 -45 -7 -8 -10 -14 -5 -14 11 0 86 81
80 87 -3 2 -18 -10 -34 -28z"/>
<path d="M1898 653 c7 -3 16 -2 19 1 4 3 -2 6 -13 5 -11 0 -14 -3 -6 -6z"/>
<path d="M1930 652 c0 -4 9 -8 19 -8 11 0 17 4 15 8 -7 10 -34 10 -34 0z"/>
<path d="M2050 650 c0 -5 7 -7 15 -4 8 4 15 8 15 10 0 2 -7 4 -15 4 -8 0 -15
-4 -15 -10z"/>
<path d="M2022 633 c-11 -11 -17 -11 -28 -2 -8 7 -14 7 -14 1 0 -5 7 -15 15
-22 11 -9 15 -9 15 -1 0 7 4 10 9 7 5 -3 12 1 15 10 9 22 4 25 -12 7z"/>
<path d="M1735 630 c4 -6 11 -8 16 -5 14 9 11 15 -7 15 -8 0 -12 -5 -9 -10z"/>
<path d="M1862 628 c4 -12 22 -12 26 0 1 5 -4 9 -13 9 -9 0 -14 -4 -13 -9z"/>
<path d="M1943 617 c1 -5 -6 -11 -16 -12 -25 -5 -33 -13 -21 -25 7 -7 19 0 37
18 19 20 23 29 13 29 -8 0 -14 -5 -13 -10z"/>
<path d="M1830 600 c0 -6 7 -10 15 -10 8 0 15 2 15 4 0 2 -7 6 -15 10 -8 3
-15 1 -15 -4z"/>
<path d="M1780 590 c0 -5 5 -10 10 -10 6 0 10 5 10 10 0 6 -4 10 -10 10 -5 0
-10 -4 -10 -10z"/>
<path d="M1945 580 c-4 -6 -1 -9 6 -8 16 4 19 -22 6 -40 -14 -18 -2 -26 20
-13 10 6 12 11 6 11 -13 0 -14 21 -1 30 4 3 -1 11 -12 18 -12 7 -21 8 -25 2z"/>
<path d="M1835 571 c-3 -5 0 -13 6 -17 7 -4 9 -3 5 4 -3 5 0 13 6 15 9 4 10 6
1 6 -6 1 -14 -3 -18 -8z"/>
<path d="M1757 552 c6 -15 5 -15 -10 -3 -9 7 -17 9 -17 3 0 -14 22 -20 42 -13
17 6 16 7 -2 18 -17 11 -18 10 -13 -5z"/>
<path d="M1919 552 c7 -5 11 -14 7 -20 -3 -6 -2 -13 2 -16 5 -3 9 4 8 16 0 12
-8 23 -16 25 -12 4 -13 3 -1 -5z"/>
<path d="M1856 543 c-3 -4 -25 -10 -49 -14 l-42 -6 40 -2 c39 -1 75 12 64 23
-3 4 -9 3 -13 -1z"/>
<path d="M1735 510 c4 -6 11 -8 16 -5 14 9 11 15 -7 15 -8 0 -12 -5 -9 -10z"/>
<path d="M1862 500 c0 -14 2 -19 5 -12 2 6 2 18 0 25 -3 6 -5 1 -5 -13z"/>
<path d="M1770 501 c0 -11 31 -24 38 -16 3 3 -1 5 -9 6 -8 0 -6 4 6 9 18 8 17
9 -7 9 -16 1 -28 -3 -28 -8z"/>
<path d="M1890 506 c0 -2 7 -7 16 -10 8 -3 12 -2 9 4 -6 10 -25 14 -25 6z"/>
<path d="M1810 460 c0 -5 5 -12 10 -15 15 -9 12 -25 -5 -25 -8 0 -15 -4 -15
-8 0 -17 30 -8 36 10 5 18 7 18 18 3 11 -15 12 -14 12 4 0 11 -3 18 -7 15 -4
-2 -9 1 -11 8 -5 13 -38 20 -38 8z"/>
<path d="M1885 450 c4 -6 11 -8 16 -5 14 9 11 15 -7 15 -8 0 -12 -5 -9 -10z"/>
<path d="M1745 440 c-3 -5 -1 -10 4 -10 6 0 11 5 11 10 0 6 -2 10 -4 10 -3 0
-8 -4 -11 -10z"/>
<path d="M1770 415 c0 -5 5 -17 10 -25 5 -8 10 -10 10 -5 0 6 -5 17 -10 25 -5
8 -10 11 -10 5z"/>
<path d="M1746 395 c-3 -8 -1 -15 4 -15 6 0 10 7 10 15 0 8 -2 15 -4 15 -2 0
-6 -7 -10 -15z"/>
<path d="M1805 380 c-3 -6 1 -7 9 -4 18 7 21 14 7 14 -6 0 -13 -4 -16 -10z"/>
<path d="M1726 353 c-6 -14 -5 -15 5 -6 7 7 10 15 7 18 -3 3 -9 -2 -12 -12z"/>
<path d="M1745 339 c-4 -6 -4 -13 -1 -16 3 -4 6 -1 6 6 0 7 5 9 12 5 7 -4 8
-3 4 4 -9 15 -13 15 -21 1z"/>
<path d="M2661 1537 c-8 -10 -7 -14 4 -14 8 0 16 6 19 14 3 7 2 13 -3 13 -5 0
-14 -6 -20 -13z"/>
<path d="M2611 1497 c-6 -8 -7 -18 -3 -22 4 -5 0 -6 -9 -2 -12 4 -16 -1 -15
-16 1 -17 7 -22 31 -22 38 -1 55 4 55 17 0 6 -6 6 -14 -1 -10 -8 -16 -9 -21
-1 -4 7 -12 7 -26 0 -12 -7 -19 -7 -19 -1 0 11 39 26 60 23 13 -2 13 -1 1 7
-8 5 -21 6 -30 3 -14 -5 -14 -3 -2 11 7 9 11 17 8 17 -2 0 -10 -6 -16 -13z"/>
<path d="M2527 1416 c-4 -10 -1 -13 8 -9 8 3 12 9 9 14 -7 12 -11 11 -17 -5z"/>
<path d="M2561 1414 c0 -11 3 -14 6 -6 3 7 2 16 -1 19 -3 4 -6 -2 -5 -13z"/>
<path d="M2663 1409 c-2 -23 3 -25 10 -4 4 8 3 16 -1 19 -4 3 -9 -4 -9 -15z"/>
<path d="M2522 1382 c-22 -17 -22 -18 -3 -18 11 0 18 2 16 5 -3 2 0 10 6 18
15 18 9 16 -19 -5z"/>
<path d="M2566 1376 c3 -8 14 -16 24 -19 13 -3 17 0 13 9 -3 8 -9 11 -14 8 -5
-3 -9 0 -9 5 0 6 -4 11 -10 11 -5 0 -7 -6 -4 -14z"/>
<path d="M2460 1369 c0 -5 -5 -7 -12 -3 -7 4 -8 3 -4 -4 4 -6 13 -9 21 -6 8 4
12 10 9 15 -7 12 -14 11 -14 -2z"/>
<path d="M2645 1370 c3 -5 8 -10 11 -10 2 0 4 5 4 10 0 6 -5 10 -11 10 -5 0
-7 -4 -4 -10z"/>
<path d="M2542 1336 c10 -7 14 -17 10 -22 -4 -4 1 -2 11 6 18 14 18 14 0 21
-29 12 -39 9 -21 -5z"/>
<path d="M2398 1326 c-10 -7 -18 -19 -18 -27 1 -10 4 -8 11 4 6 9 14 15 20 12
5 -4 9 1 9 9 0 19 0 19 -22 2z"/>
<path d="M2460 1329 c0 -5 5 -7 10 -4 6 3 10 1 10 -4 0 -6 4 -11 10 -11 5 0 7
7 4 15 -7 17 -34 21 -34 4z"/>
<path d="M2595 1330 c3 -5 11 -10 16 -10 6 0 7 5 4 10 -3 6 -11 10 -16 10 -6
0 -7 -4 -4 -10z"/>
<path d="M2510 1326 c0 -2 7 -7 16 -10 8 -3 12 -2 9 4 -6 10 -25 14 -25 6z"/>
<path d="M2456 1285 c4 -8 8 -15 10 -15 2 0 4 7 4 15 0 8 -4 15 -10 15 -5 0
-7 -7 -4 -15z"/>
<path d="M2556 1292 c-3 -4 4 -9 15 -9 23 -2 25 3 4 10 -8 4 -16 3 -19 -1z"/>
<path d="M2333 1277 c-3 -6 -1 -7 5 -3 7 4 12 2 12 -4 0 -6 5 -8 10 -5 6 3 10
10 10 14 0 11 -30 9 -37 -2z"/>
<path d="M2405 1281 c-3 -5 -1 -12 5 -16 5 -3 10 1 10 9 0 18 -6 21 -15 7z"/>
<path d="M2615 1271 c-3 -5 -1 -12 5 -16 5 -3 10 1 10 9 0 18 -6 21 -15 7z"/>
<path d="M2380 1260 c0 -5 5 -10 11 -10 5 0 7 5 4 10 -3 6 -8 10 -11 10 -2 0
-4 -4 -4 -10z"/>
<path d="M2520 1260 c0 -5 5 -10 11 -10 5 0 7 5 4 10 -3 6 -8 10 -11 10 -2 0
-4 -4 -4 -10z"/>
<path d="M2336 1240 c3 -14 10 -29 15 -34 14 -16 10 6 -7 34 l-15 25 7 -25z"/>
<path d="M2447 1251 c4 -3 10 -9 13 -13 3 -3 13 -1 22 6 15 11 14 13 -12 13
-17 0 -27 -3 -23 -6z"/>
<path d="M2304 1216 c4 -42 11 -54 20 -31 3 9 2 13 -4 10 -6 -3 -10 -2 -10 4
0 5 4 11 9 13 5 2 4 11 -4 21 -12 17 -13 15 -11 -17z"/>
<path d="M2378 1233 c7 -3 16 -2 19 1 4 3 -2 6 -13 5 -11 0 -14 -3 -6 -6z"/>
<path d="M2510 1230 c-8 -5 -10 -10 -3 -10 6 0 9 -10 7 -22 -2 -13 -1 -16 2
-8 4 8 12 18 18 22 7 5 6 8 -4 8 -13 0 -13 1 0 10 8 5 11 10 5 10 -5 0 -17 -5
-25 -10z"/>
<path d="M2651 1224 c0 -11 3 -14 6 -6 3 7 2 16 -1 19 -3 4 -6 -2 -5 -13z"/>
<path d="M2437 1224 c-12 -12 -8 -36 5 -28 8 5 9 1 4 -12 -5 -14 -4 -16 4 -8
6 6 7 19 2 33 -4 12 -11 19 -15 15z"/>
<path d="M2566 1212 c-3 -6 -1 -14 5 -17 15 -10 25 3 12 16 -7 7 -13 7 -17 1z"/>
<path d="M2478 1203 c7 -3 16 -2 19 1 4 3 -2 6 -13 5 -11 0 -14 -3 -6 -6z"/>
<path d="M2230 1191 c0 -5 5 -13 10 -16 6 -3 10 -2 10 4 0 5 -4 13 -10 16 -5
3 -10 2 -10 -4z"/>
<path d="M2414 1168 c3 -9 0 -19 -7 -21 -22 -8 -2 -15 26 -10 15 3 27 10 27
15 0 6 -7 8 -15 4 -8 -3 -19 3 -25 12 -11 16 -11 16 -6 0z"/>
<path d="M2473 1165 c-3 -9 -3 -18 -1 -21 3 -3 8 4 11 16 6 23 -1 27 -10 5z"/>
<path d="M2198 1163 c6 -2 18 -2 25 0 6 3 1 5 -13 5 -14 0 -19 -2 -12 -5z"/>
<path d="M2223 1143 c-10 -10 -14 -15 -8 -11 6 4 22 12 36 17 15 6 18 10 8 10
-9 1 -25 -7 -36 -16z"/>
<path d="M2558 1153 c7 -3 16 -2 19 1 4 3 -2 6 -13 5 -11 0 -14 -3 -6 -6z"/>
<path d="M2166 1141 c-4 -5 3 -7 14 -4 23 6 26 13 6 13 -8 0 -17 -4 -20 -9z"/>
<path d="M2280 1135 c0 -8 4 -15 10 -15 5 0 7 7 4 15 -4 8 -8 15 -10 15 -2 0
-4 -7 -4 -15z"/>
<path d="M2313 1125 c0 -11 4 -12 14 -4 7 6 13 13 13 15 0 2 -6 4 -13 4 -8 0
-14 -7 -14 -15z"/>
<path d="M2175 1119 c-4 -6 -5 -12 -2 -15 2 -3 7 2 10 11 7 17 1 20 -8 4z"/>
<path d="M2225 1120 c-3 -5 -1 -10 4 -10 6 0 11 5 11 10 0 6 -2 10 -4 10 -3 0
-8 -4 -11 -10z"/>
<path d="M2520 1109 c0 -5 5 -7 10 -4 6 3 10 8 10 11 0 2 -4 4 -10 4 -5 0 -10
-5 -10 -11z"/>
<path d="M936 749 c3 -5 0 -9 -7 -9 -7 0 -10 -2 -7 -5 3 -3 16 -2 28 3 l24 9
-22 5 c-12 4 -20 2 -16 -3z"/>
<path d="M1063 741 c8 -10 9 -13 0 -8 -6 4 -15 2 -19 -4 -5 -9 1 -10 20 -5 24
6 27 4 21 -14 -3 -11 -2 -20 3 -20 5 0 12 11 14 25 3 13 1 22 -4 19 -4 -3 -11
1 -14 9 -2 7 -11 14 -19 14 -12 0 -12 -3 -2 -16z"/>
<path d="M1134 749 c-5 -9 -2 -10 9 -6 13 5 16 1 13 -23 -2 -15 0 -34 4 -41 5
-6 7 8 6 31 -1 43 -17 62 -32 39z"/>
<path d="M1190 746 c-14 -14 -12 -26 5 -26 8 0 15 -4 15 -10 0 -5 7 -10 15
-10 15 0 19 -11 16 -40 -2 -13 -1 -13 8 0 10 13 11 13 11 0 0 -12 2 -13 9 -1
5 7 13 11 19 7 6 -4 10 1 9 12 0 10 -6 19 -12 20 -40 3 -101 32 -68 32 6 0 19
3 29 7 13 5 15 3 9 -7 -5 -9 -4 -11 4 -6 6 4 8 12 5 18 -5 8 -1 9 12 4 10 -4
15 -4 11 1 -12 11 -85 11 -97 -1z m25 -6 c-3 -5 -11 -10 -16 -10 -6 0 -7 5 -4
10 3 6 11 10 16 10 6 0 7 -4 4 -10z m65 -55 c0 -12 -19 -12 -23 0 -4 9 -1 12
9 8 7 -3 14 -7 14 -8z"/>
<path d="M1340 757 c0 -5 6 -15 14 -23 8 -7 12 -22 9 -33 -3 -13 2 -23 16 -30
17 -9 19 -17 14 -44 -3 -17 -10 -33 -15 -35 -20 -8 -5 -18 26 -18 19 0 32 4
29 9 -3 5 -11 6 -18 4 -16 -7 -14 76 4 96 8 11 9 17 1 22 -6 4 -10 3 -9 -2 4
-20 -2 -24 -18 -12 -11 10 -14 10 -9 2 4 -8 2 -13 -4 -13 -6 0 -10 8 -8 18 2
9 10 16 17 14 9 -2 11 3 8 13 -7 17 4 20 19 5 7 -7 17 -3 30 12 14 16 14 19 2
10 -13 -10 -22 -11 -38 -2 -18 10 -22 9 -27 -9 -5 -20 -5 -20 -24 2 -10 12
-18 18 -19 14z"/>
<path d="M1466 739 c-11 -10 -17 -21 -14 -24 2 -3 15 6 28 20 27 29 14 33 -14
4z"/>
<path d="M1560 745 c0 -8 8 -15 18 -15 14 0 14 2 3 9 -11 7 -10 10 5 14 16 4
16 5 -3 6 -14 1 -23 -5 -23 -14z"/>
<path d="M1618 753 c7 -3 16 -2 19 1 4 3 -2 6 -13 5 -11 0 -14 -3 -6 -6z"/>
<path d="M1300 740 c0 -6 4 -10 9 -10 5 0 17 -7 25 -16 13 -12 16 -13 16 -1 0
7 -11 19 -25 25 -15 7 -25 8 -25 2z"/>
<path d="M1528 728 c-7 -7 -20 -13 -28 -13 -9 0 -14 -7 -12 -17 2 -10 -2 -18
-8 -18 -5 0 -10 -9 -10 -20 0 -11 4 -20 10 -20 5 0 6 8 3 17 -5 13 -2 15 11
10 11 -4 15 -3 10 4 -4 6 -3 14 2 18 5 3 18 16 28 29 20 23 16 30 -6 10z"/>
<path d="M1600 729 c0 -5 4 -8 9 -5 5 3 11 -1 15 -9 7 -20 26 -19 26 1 0 8 -4
13 -9 9 -5 -3 -12 -1 -16 5 -8 13 -25 13 -25 -1z"/>
<path d="M1580 711 c0 -5 -10 -6 -22 -3 -22 5 -22 5 -5 -13 16 -15 20 -16 28
-4 10 16 12 29 4 29 -3 0 -5 -4 -5 -9z"/>
<path d="M1186 697 c3 -10 9 -15 12 -12 3 3 0 11 -7 18 -10 9 -11 8 -5 -6z"/>
<path d="M1050 691 c0 -6 4 -13 10 -16 6 -3 7 1 4 9 -7 18 -14 21 -14 7z"/>
<path d="M1314 693 c4 -7 16 -18 26 -23 16 -9 18 -8 14 5 -4 9 -9 13 -12 11
-3 -3 -12 0 -20 7 -13 9 -14 9 -8 0z"/>
<path d="M994 668 c4 -18 2 -28 -5 -28 -8 0 -9 -4 0 -13 6 -8 8 -17 4 -20 -3
-4 -2 -7 4 -7 12 0 11 75 -1 87 -5 4 -6 -4 -2 -19z"/>
<path d="M1210 675 c0 -8 2 -15 4 -15 2 0 6 7 10 15 3 8 1 15 -4 15 -6 0 -10
-7 -10 -15z"/>
<path d="M1080 662 c0 -12 3 -12 18 -1 9 7 19 14 21 16 2 1 -6 1 -18 0 -11 -1
-21 -8 -21 -15z"/>
<path d="M1033 662 c4 -2 2 -11 -5 -20 -11 -13 -10 -15 4 -9 10 3 20 2 23 -2
3 -5 -3 -12 -12 -15 -12 -5 -13 -10 -5 -18 6 -6 8 -17 5 -26 -4 -10 -2 -13 5
-8 7 4 12 2 12 -5 0 -8 6 -5 13 5 13 17 14 17 30 -8 16 -24 16 -27 -2 -45 -11
-11 -16 -23 -12 -25 13 -9 10 -57 -3 -49 -6 3 -7 2 -3 -3 5 -5 12 -9 16 -9 5
0 23 -16 41 -35 19 -19 31 -27 27 -18 -4 12 1 21 15 29 17 9 18 13 7 20 -11 7
-11 9 -1 9 7 0 11 4 7 9 -3 6 3 15 14 20 26 15 36 14 24 -1 -12 -16 -24 -48
-18 -48 2 0 11 12 19 28 12 21 15 23 16 8 0 -12 5 -16 16 -12 8 3 12 2 9 -3
-3 -5 -2 -12 3 -15 4 -2 9 4 9 16 1 12 -3 18 -11 15 -12 -5 -40 28 -41 47 0 5
-6 10 -13 12 -7 1 -8 0 -3 -2 6 -3 7 -12 4 -20 -3 -7 -8 -12 -13 -9 -4 2 -12
-6 -19 -18 -6 -12 -23 -27 -36 -34 -23 -10 -25 -10 -21 14 4 19 1 23 -10 19
-7 -3 -14 -1 -14 3 0 20 30 19 45 -2 8 -12 16 -16 16 -9 3 26 4 31 12 38 4 4
7 12 7 18 -1 6 -9 1 -19 -11 -18 -21 -19 -21 -35 -4 -21 23 -21 42 2 34 14 -5
13 -3 -3 10 -11 8 -20 19 -20 24 0 5 -8 17 -17 27 -10 10 -18 13 -18 7 0 -6
-7 -8 -15 -5 -8 4 -12 10 -9 15 11 18 14 59 5 59 -5 0 -15 2 -23 3 -7 2 -9 2
-5 -1z m92 -172 c3 -5 -1 -10 -10 -10 -9 0 -13 5 -10 10 3 6 8 10 10 10 2 0 7
-4 10 -10z m45 -85 c-7 -8 -16 -12 -21 -9 -13 8 -1 24 18 24 13 0 13 -3 3 -15z"/>
<path d="M1180 660 c0 -5 5 -10 11 -10 5 0 7 5 4 10 -3 6 -8 10 -11 10 -2 0
-4 -4 -4 -10z"/>
<path d="M1610 665 c0 -13 20 -35 32 -35 4 0 8 8 8 18 0 14 2 15 10 2 6 -9 10
-10 10 -3 0 19 -20 26 -26 8 -6 -14 -8 -14 -20 2 -7 10 -14 13 -14 8z"/>
<path d="M1126 644 c-3 -7 -1 -16 5 -19 5 -4 12 1 15 9 3 9 11 13 18 9 6 -3 7
-2 3 2 -13 15 -35 14 -41 -1z"/>
<path d="M1325 649 c-4 -6 -12 -8 -19 -6 -7 3 -12 -5 -12 -20 1 -14 -7 -31
-16 -37 -24 -15 -37 3 -14 20 11 7 16 17 11 21 -4 5 -10 2 -12 -4 -3 -7 -11
-13 -18 -13 -7 0 -12 -8 -11 -17 0 -10 -5 -17 -12 -15 -8 1 -11 -2 -7 -8 3 -6
11 -7 17 -4 6 4 24 8 41 10 21 1 26 -1 18 -9 -6 -6 -11 -16 -11 -21 0 -6 5 -4
10 4 8 13 10 12 11 -5 1 -11 1 -23 0 -27 0 -4 7 -4 16 -1 11 4 14 3 9 -5 -4
-7 -2 -12 4 -12 7 0 9 7 6 16 -3 9 -6 18 -6 20 0 3 -4 2 -10 -1 -5 -3 -10 1
-10 9 0 15 26 16 89 7 2 -1 -2 -8 -9 -16 -14 -17 -35 -21 -25 -5 3 6 1 10 -5
10 -6 0 -10 -6 -9 -12 3 -27 -2 -38 -16 -38 -8 0 -15 -7 -15 -15 0 -8 5 -15
11 -15 5 0 8 4 5 9 -7 11 19 22 29 13 4 -4 12 -7 18 -7 7 0 12 -10 11 -23 0
-12 4 -22 9 -22 5 0 6 -11 3 -24 -5 -19 -1 -25 16 -29 12 -4 28 -1 35 5 7 5
20 8 28 4 9 -3 13 -2 10 4 -3 6 -2 10 4 10 5 0 12 -6 14 -12 3 -7 6 -4 6 7 1
14 -5 21 -19 21 -11 0 -20 -4 -20 -9 0 -4 -5 -5 -10 -2 -6 4 -7 12 -1 22 5 10
5 29 0 47 -13 44 -11 48 12 35 15 -8 19 -8 15 0 -7 10 7 16 28 12 5 -1 3 5 -4
14 -18 22 -6 29 15 8 17 -16 17 -16 10 7 -4 14 -12 30 -17 35 -6 6 -7 4 -2 -8
4 -12 2 -17 -7 -15 -8 2 -13 -4 -13 -14 1 -10 -4 -18 -12 -18 -17 0 -31 23
-16 28 7 2 10 8 7 13 -4 5 -12 3 -20 -4 -8 -7 -10 -16 -4 -23 6 -8 1 -17 -16
-28 -14 -9 -25 -24 -25 -34 0 -15 -2 -15 -10 -2 -6 10 -6 16 0 18 6 2 10 8 10
14 0 6 -7 8 -15 4 -8 -3 -15 -1 -15 4 0 6 5 10 10 10 6 0 10 8 10 18 0 14 2
15 9 2 6 -8 7 -18 5 -22 -3 -4 2 -5 10 -2 14 5 12 33 -3 35 -3 0 -30 2 -59 4
-30 2 -57 6 -60 9 -8 8 -10 46 -3 46 4 0 12 9 19 20 7 11 10 20 8 20 -3 0 -8
-5 -11 -11z m63 -150 c-2 -6 -8 -10 -13 -10 -5 0 -11 4 -13 10 -2 6 4 11 13
11 9 0 15 -5 13 -11z m68 -84 c-6 -16 -11 -32 -13 -33 -1 -2 -10 1 -20 6 -17
10 -17 11 0 18 17 6 17 7 0 19 -16 12 -16 15 2 49 l20 36 11 -32 c7 -23 8 -41
0 -63z"/>
<path d="M1428 443 c6 -2 18 -2 25 0 6 3 1 5 -13 5 -14 0 -19 -2 -12 -5z"/>
<path d="M1351 644 c-21 -15 -22 -18 -7 -26 14 -8 15 -13 5 -24 -7 -8 -7 -14
-1 -14 5 0 15 7 22 15 10 12 9 16 -4 21 -16 6 -16 8 0 25 21 23 16 24 -15 3z"/>
<path d="M1520 650 c-21 -5 -22 -7 -7 -13 23 -9 22 -23 -3 -30 -11 -3 -20 -11
-20 -19 0 -10 2 -10 8 -1 4 7 23 15 41 18 29 5 32 4 23 -8 -10 -11 -8 -20 8
-40 20 -25 20 -26 2 -36 -11 -6 -23 -7 -27 -3 -5 4 -5 2 -2 -4 8 -13 57 -16
57 -3 0 5 9 4 20 -3 12 -7 19 -20 17 -29 -3 -12 1 -15 14 -12 14 4 17 9 9 18
-5 6 -7 15 -3 19 11 11 12 37 2 30 -9 -5 -2 44 7 55 2 2 -4 10 -12 18 -11 12
-18 12 -29 3 -15 -13 -11 -30 7 -30 6 0 7 8 3 18 -5 13 -3 14 6 5 16 -16 1
-36 -22 -30 -10 3 -22 1 -25 -4 -3 -5 -10 -9 -16 -9 -6 0 -6 6 2 15 11 13 10
14 -5 9 -14 -6 -16 -4 -9 7 16 26 14 40 -6 29 -13 -7 -19 -6 -23 5 -3 7 -1 16
6 18 22 8 3 14 -23 7z m116 -93 c10 4 12 0 8 -11 -3 -9 -14 -16 -23 -16 -9 0
-23 -6 -30 -12 -11 -11 -12 -10 -5 2 9 15 11 21 13 42 1 9 4 9 12 1 6 -6 18
-9 25 -6z m19 -47 c-3 -5 -13 -6 -21 -3 -12 4 -13 8 -3 14 15 9 32 2 24 -11z"/>
<path d="M1096 634 c-8 -21 -8 -21 7 -27 10 -4 13 2 9 19 -5 28 -8 30 -16 8z"/>
<path d="M1217 636 c-4 -10 1 -12 14 -9 23 6 24 9 5 16 -8 3 -17 0 -19 -7z"/>
<path d="M1423 629 c1 -18 6 -25 15 -21 7 2 9 8 4 11 -5 3 -12 13 -15 21 -3 8
-5 3 -4 -11z"/>
<path d="M1182 600 c-1 -25 3 -40 10 -40 6 0 8 3 5 7 -4 3 1 15 10 26 10 11
12 17 6 13 -12 -6 -18 5 -14 27 0 4 -3 7 -7 7 -5 0 -9 -18 -10 -40z"/>
<path d="M1595 630 c3 -5 11 -10 16 -10 6 0 7 5 4 10 -3 6 -11 10 -16 10 -6 0
-7 -4 -4 -10z"/>
<path d="M1477 623 c-4 -3 -7 -11 -7 -17 0 -6 5 -5 12 2 6 6 9 14 7 17 -3 3
-9 2 -12 -2z"/>
<path d="M960 610 c-13 -8 -13 -10 -1 -10 11 0 10 -4 -4 -13 -13 -10 -15 -16
-6 -21 9 -6 9 -12 -1 -24 -12 -15 -11 -16 4 -4 9 8 14 20 11 28 -6 15 6 18 22
6 14 -10 12 -36 -4 -56 -8 -9 -11 -19 -7 -23 3 -3 6 -1 6 6 0 7 5 9 12 5 6 -4
8 -3 4 4 -10 17 10 23 24 7 9 -11 9 -15 1 -15 -7 0 -9 -4 -6 -10 9 -15 24 -12
21 4 -1 8 -7 21 -14 29 -7 8 -10 21 -6 30 3 10 -2 18 -15 22 -19 6 -25 17 -22
38 1 9 -1 9 -19 -3z"/>
<path d="M1150 599 c0 -5 -5 -7 -12 -3 -7 4 -8 3 -4 -4 4 -6 13 -9 21 -5 17 6
20 23 5 23 -5 0 -10 -5 -10 -11z"/>
<path d="M891 574 c0 -11 3 -14 6 -6 3 7 2 16 -1 19 -3 4 -6 -2 -5 -13z"/>
<path d="M913 545 c0 -8 4 -12 9 -9 4 3 8 9 8 15 0 5 -4 9 -8 9 -5 0 -9 -7 -9
-15z"/>
<path d="M1221 539 c-13 -10 -19 -19 -15 -19 13 1 48 29 43 34 -2 2 -15 -4
-28 -15z"/>
<path d="M1265 538 c3 -15 0 -30 -6 -34 -8 -5 -6 -10 5 -16 9 -5 13 -14 10
-20 -5 -8 -1 -9 10 -5 10 4 20 7 22 7 2 0 4 8 3 18 0 10 -3 12 -6 5 -2 -7 -9
-13 -14 -13 -6 0 -7 5 -4 10 3 6 1 10 -5 10 -6 0 -9 4 -6 9 4 5 1 20 -4 33
-10 22 -10 22 -5 -4z"/>
<path d="M1030 541 c0 -5 5 -13 10 -16 6 -3 10 -2 10 4 0 5 -4 13 -10 16 -5 3
-10 2 -10 -4z"/>
<path d="M1172 541 c-11 -7 -11 -9 2 -14 10 -4 16 -1 16 8 0 17 -1 17 -18 6z"/>
<path d="M1070 530 c-12 -8 -11 -10 8 -10 12 0 22 5 22 10 0 13 -11 13 -30 0z"/>
<path d="M945 520 c-16 -7 -17 -9 -3 -9 9 -1 20 4 23 9 7 11 7 11 -20 0z"/>
<path d="M1056 485 c-4 -17 -11 -23 -19 -18 -9 5 -9 4 0 -8 10 -12 7 -17 -17
-26 -17 -6 -30 -7 -30 -2 0 5 -7 9 -15 9 -8 0 -15 -5 -15 -11 0 -5 -4 -8 -9
-5 -11 7 -8 -21 4 -31 4 -4 5 -3 2 3 -8 13 13 24 34 19 39 -9 58 -18 54 -25
-3 -5 -2 -11 3 -14 4 -2 14 4 20 15 10 16 10 20 0 18 -28 -3 -48 2 -48 12 0 6
7 9 15 5 13 -5 20 5 16 27 0 4 3 7 7 7 4 0 9 11 10 25 2 32 -4 32 -12 0z"/>
<path d="M1516 493 c-6 -14 -5 -15 5 -6 7 7 10 15 7 18 -3 3 -9 -2 -12 -12z"/>
<path d="M1572 483 c-6 -2 -10 -9 -6 -14 8 -14 21 -11 21 6 0 8 -1 15 -1 14
-1 0 -7 -3 -14 -6z"/>
<path d="M1614 478 c-4 -6 -8 -23 -9 -37 -1 -18 -6 -25 -17 -23 -9 1 -23 -7
-31 -18 -7 -11 -17 -17 -22 -12 -5 4 -5 2 -1 -5 9 -15 36 -5 36 13 0 17 12 18
28 2 15 -15 16 -32 2 -23 -5 3 -10 2 -10 -3 0 -5 9 -12 19 -15 17 -4 18 -1 11
18 -11 28 7 50 27 33 7 -6 16 -8 20 -5 3 4 -8 13 -26 20 -33 14 -36 20 -20 50
11 19 4 24 -7 5z"/>
<path d="M973 466 c0 -11 5 -13 18 -5 15 8 17 6 12 -8 -5 -14 -3 -15 7 -6 7 6
9 16 6 22 -10 16 -43 13 -43 -3z"/>
<path d="M885 460 c3 -5 8 -10 11 -10 2 0 4 5 4 10 0 6 -5 10 -11 10 -5 0 -7
-4 -4 -10z"/>
<path d="M1530 463 c-8 -4 -21 -13 -30 -21 -13 -13 -13 -14 0 -9 8 4 23 10 33
13 9 4 17 10 17 15 0 5 -1 9 -2 8 -2 0 -10 -3 -18 -6z"/>
<path d="M1340 450 c-8 -5 -11 -12 -7 -16 4 -4 13 -2 19 4 15 15 7 24 -12 12z"/>
<path d="M1300 440 c0 -5 5 -10 11 -10 5 0 7 5 4 10 -3 6 -8 10 -11 10 -2 0
-4 -4 -4 -10z"/>
<path d="M1371 439 c-1 -9 -11 -20 -23 -24 -16 -4 -19 -8 -10 -12 18 -7 46 21
39 39 -4 9 -6 8 -6 -3z"/>
<path d="M1545 440 c-13 -6 -15 -9 -5 -9 13 -1 13 -2 0 -11 -9 -6 -10 -10 -3
-10 7 0 16 6 20 14 4 7 15 16 23 19 13 5 13 5 0 6 -8 0 -24 -4 -35 -9z"/>
<path d="M1640 436 c7 -7 14 -6 21 1 9 9 7 12 -9 10 -14 -1 -18 -5 -12 -11z"/>
<path d="M906 398 c3 -5 10 -6 15 -3 13 9 11 12 -6 12 -8 0 -12 -4 -9 -9z"/>
<path d="M981 384 c0 -11 3 -14 6 -6 3 7 2 16 -1 19 -3 4 -6 -2 -5 -13z"/>
<path d="M1102 364 c0 -30 2 -34 9 -19 4 11 8 14 8 8 1 -15 31 -18 31 -3 0 6
-5 9 -12 8 -7 -2 -12 2 -13 9 0 7 -5 17 -11 24 -9 8 -12 2 -12 -27z"/>
<path d="M1218 393 c6 -2 18 -2 25 0 6 3 1 5 -13 5 -14 0 -19 -2 -12 -5z"/>
<path d="M1260 390 c0 -6 7 -10 15 -10 8 0 15 2 15 4 0 2 -7 6 -15 10 -8 3
-15 1 -15 -4z"/>
<path d="M1375 390 c3 -5 8 -10 11 -10 2 0 4 5 4 10 0 6 -5 10 -11 10 -5 0 -7
-4 -4 -10z"/>
<path d="M1630 390 c0 -5 5 -10 11 -10 5 0 7 5 4 10 -3 6 -8 10 -11 10 -2 0
-4 -4 -4 -10z"/>
<path d="M1004 375 c3 -8 -4 -21 -17 -30 -12 -8 -16 -15 -10 -15 13 0 36 27
39 46 1 8 -2 14 -8 14 -6 0 -8 -7 -4 -15z"/>
<path d="M1187 370 c3 -11 9 -20 14 -20 11 0 11 3 3 24 -9 23 -23 20 -17 -4z"/>
<path d="M1320 379 c0 -5 5 -7 10 -4 6 3 10 8 10 11 0 2 -4 4 -10 4 -5 0 -10
-5 -10 -11z"/>
<path d="M1350 381 c0 -10 29 -36 34 -30 1 2 -6 12 -16 22 -10 9 -18 13 -18 8z"/>
<path d="M1650 370 c-13 -8 -12 -10 3 -10 9 0 17 5 17 10 0 12 -1 12 -20 0z"/>
<path d="M1285 360 c-4 -7 -17 -9 -29 -6 -20 5 -20 5 -2 -9 25 -19 36 -19 36
0 0 19 14 19 34 -1 15 -14 16 -14 16 0 0 9 -4 16 -9 16 -5 0 -16 3 -24 6 -8 3
-18 0 -22 -6z"/>
<path d="M1409 362 c7 -5 11 -14 7 -20 -3 -6 -2 -13 4 -17 5 -3 10 1 10 9 0 9
5 16 11 16 5 0 7 -5 3 -11 -4 -8 0 -7 15 1 18 9 21 30 5 30 -3 0 -2 -5 2 -11
4 -8 -1 -9 -17 -4 -56 18 -55 18 -40 7z"/>
<path d="M1492 365 c4 -4 2 -15 -5 -23 -11 -13 -9 -14 11 -1 21 13 25 12 39
-6 12 -15 14 -16 10 -3 -3 9 -1 19 6 21 7 3 3 5 -8 5 -11 -1 -29 3 -40 7 -11
5 -17 5 -13 0z"/>
<path d="M1036 348 c3 -4 9 -8 15 -8 5 0 9 4 9 8 0 5 -7 9 -15 9 -8 0 -12 -4
-9 -9z"/>
<path d="M1081 337 c0 -10 -5 -15 -11 -12 -5 3 -10 1 -10 -4 0 -6 -7 -11 -16
-11 -9 0 -12 5 -8 13 5 8 2 8 -9 -2 -13 -11 -17 -11 -17 -1 0 8 -2 11 -5 8
-12 -12 7 -36 26 -31 11 3 19 0 19 -6 0 -7 -5 -9 -12 -5 -7 4 -8 3 -4 -4 5 -9
12 -8 27 1 17 10 22 9 33 -5 7 -10 16 -15 19 -11 12 12 7 23 -10 23 -15 0 -16
2 -3 9 8 6 18 7 22 5 4 -3 8 0 8 6 0 6 5 8 10 5 6 -3 10 -1 10 5 0 7 -6 10
-12 7 -7 -3 -21 -8 -30 -12 -12 -5 -18 0 -21 17 -3 16 -5 17 -6 5z m6 -33 c-3
-3 -12 -4 -19 -1 -8 3 -5 6 6 6 11 1 17 -2 13 -5z"/>
<path d="M1648 331 c-18 -18 -24 -50 -10 -52 4 0 15 -2 25 -4 9 -2 15 1 11 6
-3 5 -9 7 -14 4 -4 -3 -10 4 -13 15 -3 13 0 20 9 20 8 0 14 7 14 15 0 18 -1
18 -22 -4z"/>
<path d="M1194 328 c3 -11 -5 -25 -22 -39 -17 -14 -20 -20 -9 -16 10 4 24 7
29 7 6 0 8 3 5 7 -4 3 -3 11 3 17 5 7 5 17 -2 26 -8 12 -9 12 -4 -2z"/>
<path d="M1215 330 c3 -5 8 -10 11 -10 2 0 4 5 4 10 0 6 -5 10 -11 10 -5 0 -7
-4 -4 -10z"/>
<path d="M1297 329 c-9 -5 -22 -7 -27 -4 -6 3 -10 2 -10 -3 0 -5 -10 -14 -22
-21 -14 -7 -15 -9 -5 -6 15 4 17 1 13 -18 -4 -15 -1 -13 6 6 10 23 50 41 47
20 -3 -19 2 -33 12 -33 6 0 7 5 2 13 -11 17 -11 30 0 45 11 14 8 15 -16 1z"/>
<path d="M1350 330 c0 -5 0 -13 1 -17 0 -4 -7 -10 -17 -13 -16 -6 -16 -7 2
-12 16 -4 20 0 22 23 1 16 0 29 -3 29 -3 0 -5 -4 -5 -10z"/>
<path d="M1511 324 c0 -11 3 -14 6 -6 3 7 2 16 -1 19 -3 4 -6 -2 -5 -13z"/>
<path d="M1560 320 c-6 -12 -9 -24 -7 -27 3 -2 11 5 17 17 6 12 9 24 7 27 -3
2 -11 -5 -17 -17z"/>
<path d="M1595 320 c1 -21 15 -41 15 -22 0 7 0 15 -1 18 0 4 5 11 13 15 9 6 7
9 -8 9 -14 0 -20 -6 -19 -20z"/>
<path d="M1460 320 c0 -6 -4 -8 -10 -5 -5 3 -10 1 -10 -4 0 -6 7 -11 16 -11
10 0 14 -6 11 -14 -4 -10 0 -12 16 -8 12 3 16 7 9 10 -6 2 -12 10 -12 17 0 8
-4 17 -10 20 -5 3 -10 1 -10 -5z"/>
<path d="M1518 293 c7 -3 16 -2 19 1 4 3 -2 6 -13 5 -11 0 -14 -3 -6 -6z"/>
<path d="M944 279 c-9 -15 12 -17 30 -4 17 13 17 14 -4 12 -12 -1 -24 -5 -26
-8z"/>
<path d="M1575 280 c-3 -5 -1 -10 4 -10 6 0 11 5 11 10 0 6 -2 10 -4 10 -3 0
-8 -4 -11 -10z"/>
<path d="M1007 269 c7 -7 15 -10 18 -7 3 3 -2 9 -12 12 -14 6 -15 5 -6 -5z"/>
<path d="M3130 1826 c0 -3 9 -10 20 -16 11 -6 20 -8 20 -6 0 3 -9 10 -20 16
-11 6 -20 8 -20 6z"/>
<path d="M3145 1735 c0 -25 5 -47 12 -49 7 -3 10 6 7 27 l-5 32 20 -22 c24
-28 30 -29 28 -3 -1 10 -3 17 -6 14 -2 -2 -16 7 -30 20 l-26 25 0 -44z"/>
<path d="M3190 1765 c0 -8 5 -15 10 -15 6 0 10 7 10 15 0 8 -4 15 -10 15 -5 0
-10 -7 -10 -15z"/>
<path d="M3230 1766 c-15 -19 -9 -56 12 -69 34 -22 66 41 36 71 -16 16 -33 15
-48 -2z m43 -18 c6 -19 -3 -38 -18 -38 -15 0 -28 27 -19 41 8 13 32 11 37 -3z"/>
<path d="M3290 1769 c0 -5 4 -9 9 -9 6 0 11 -15 13 -32 2 -18 8 -32 13 -32 6
1 8 17 7 34 -3 27 -1 32 13 26 11 -4 15 -2 13 6 -5 15 -68 21 -68 7z"/>
<path d="M3377 1773 c-14 -13 -7 -25 8 -13 13 11 15 7 15 -24 0 -20 5 -36 11
-36 7 0 10 12 7 30 -3 20 0 30 8 30 7 0 14 -12 16 -27 2 -22 9 -29 30 -31 22
-3 29 2 34 23 9 36 -18 65 -45 48 -10 -7 -22 -9 -25 -5 -10 9 -51 13 -59 5z
m113 -38 c0 -28 -24 -34 -34 -9 -8 20 1 34 20 34 8 0 14 -10 14 -25z"/>
<path d="M1865 1723 c-16 -16 -43 -38 -59 -51 -17 -13 -31 -26 -31 -30 0 -4
-5 -6 -12 -4 -7 2 -16 -4 -19 -12 -3 -8 -21 -24 -40 -36 -20 -11 -33 -24 -30
-28 2 -4 -7 -13 -22 -20 -15 -7 -46 -29 -69 -50 -34 -29 -41 -40 -32 -52 9
-13 10 -12 5 3 -3 10 0 17 8 17 8 0 16 7 20 15 3 8 10 15 15 15 14 0 9 -39 -6
-44 -7 -3 -13 -11 -13 -18 0 -9 3 -8 10 2 6 10 10 11 10 3 0 -7 4 -13 9 -13 4
0 7 12 5 26 -2 20 1 24 14 19 13 -5 14 -3 6 5 -15 15 -6 50 13 50 8 0 11 5 8
10 -3 6 0 10 8 10 8 0 22 11 32 24 10 13 24 22 31 19 7 -2 15 4 18 14 9 27 45
27 56 0 6 -16 9 -18 9 -5 1 9 -3 20 -9 23 -35 21 22 31 62 10 7 -3 4 0 -6 9
-10 8 -23 13 -27 10 -5 -3 -9 2 -9 11 0 10 5 13 12 9 6 -4 8 -3 5 3 -4 6 4 18
18 27 20 13 53 56 43 56 -2 0 -16 -12 -33 -27z"/>
<path d="M3173 1634 c-4 -10 0 -20 10 -26 10 -5 17 -14 17 -20 0 -7 -5 -6 -15
2 -12 10 -15 10 -15 -4 0 -18 35 -22 45 -5 4 5 0 18 -9 28 -18 20 -21 36 -6
26 6 -3 10 -1 10 4 0 17 -30 13 -37 -5z"/>
<path d="M3232 1633 c-6 -10 -6 -28 -1 -40 6 -16 15 -21 43 -20 29 1 37 6 45
26 l9 26 7 -27 c4 -16 11 -28 16 -28 12 0 12 1 -7 46 l-16 39 -19 -35 c-10
-19 -18 -31 -19 -25 0 5 -5 4 -11 -2 -16 -16 -39 -5 -39 17 0 25 18 35 35 20
12 -10 15 -9 15 4 0 22 -47 21 -58 -1z"/>
<path d="M3372 1613 l3 -38 55 3 c30 2 56 4 57 6 8 8 -11 36 -23 36 -8 0 -14
5 -14 11 0 6 9 8 20 4 11 -4 20 -2 20 4 0 6 -13 11 -30 11 -27 0 -29 -2 -23
-30 5 -27 3 -30 -22 -30 -25 0 -27 3 -23 30 3 21 0 30 -9 30 -10 0 -13 -11
-11 -37z m103 -13 c3 -5 -1 -10 -9 -10 -9 0 -16 5 -16 10 0 6 4 10 9 10 6 0
13 -4 16 -10z"/>
<path d="M1743 1571 c-10 -16 -9 -18 14 -18 14 0 21 2 16 6 -6 3 -12 12 -14
19 -3 8 -8 6 -16 -7z"/>
<path d="M1649 1493 c-8 -9 -9 -14 -2 -10 6 4 13 1 16 -5 3 -7 4 -3 4 10 -1
26 -1 26 -18 5z"/>
<path d="M1523 1438 c3 -10 2 -20 -3 -23 -4 -3 -10 -1 -12 5 -1 5 -22 -7 -46
-28 l-44 -37 30 -28 29 -28 0 33 c0 18 -2 25 -4 16 -5 -20 -18 -23 -28 -8 -3
5 3 20 14 32 12 12 21 18 21 12 0 -5 5 -2 10 6 8 13 11 13 22 -2 10 -13 17
-15 28 -7 13 9 12 10 -2 5 -21 -6 -24 14 -6 32 9 9 9 15 -1 25 -11 10 -13 9
-8 -5z"/>
<path d="M1490 1366 c0 -2 7 -7 16 -10 8 -3 12 -2 9 4 -6 10 -25 14 -25 6z"/>
<path d="M1385 1330 c-10 -11 -15 -23 -11 -27 4 -4 10 -2 14 4 4 6 16 12 26
14 17 4 17 6 4 16 -12 11 -18 9 -33 -7z"/>
<path d="M1334 1292 c-10 -10 -52 -43 -91 -75 -40 -32 -83 -68 -95 -80 -13
-12 -34 -30 -48 -40 -18 -13 -15 -13 13 2 21 12 42 19 47 16 4 -3 13 1 19 9 6
7 23 12 39 10 25 -3 26 -3 3 4 -14 4 -27 14 -29 21 -3 9 0 11 8 6 7 -4 16 -2
20 6 7 10 12 10 26 -2 16 -13 16 -12 5 9 -7 13 -11 25 -9 26 2 1 20 14 40 29
20 15 42 27 48 27 6 0 8 5 4 12 -5 7 -3 8 5 3 9 -5 3 -16 -21 -37 -18 -17 -25
-25 -15 -18 13 10 20 10 31 1 10 -8 16 -9 21 -1 4 6 2 9 -3 8 -6 -2 -10 2 -10
7 0 6 4 9 10 7 5 -1 7 2 3 8 -3 5 -2 10 3 10 6 0 13 7 16 16 6 15 4 15 -10 3
-15 -12 -16 -11 -10 9 9 27 6 27 -20 4z m-144 -146 c0 -2 -8 -10 -17 -17 -16
-13 -17 -12 -4 4 13 16 21 21 21 13z"/>
<path d="M1404 1298 c3 -10 -2 -22 -12 -27 -9 -6 -12 -11 -6 -11 20 0 34 24
22 40 -8 12 -9 12 -4 -2z"/>
<path d="M1435 1300 c-3 -5 -1 -10 4 -10 6 0 11 5 11 10 0 6 -2 10 -4 10 -3 0
-8 -4 -11 -10z"/>
<path d="M1285 1184 c8 -6 11 -15 7 -19 -4 -5 -1 -5 6 -1 7 4 10 11 7 16 -3 4
1 10 7 13 7 2 1 4 -15 3 -22 -1 -25 -3 -12 -12z"/>
<path d="M2815 1075 c-16 -7 -30 -17 -30 -22 0 -6 -31 -36 -70 -69 -38 -32
-72 -61 -75 -65 -3 -3 -54 -45 -115 -94 -60 -48 -112 -90 -114 -92 -2 -1 -2
-6 2 -9 3 -3 61 41 129 98 173 145 246 203 256 203 5 0 21 15 36 33 30 35 27
37 -19 17z"/>
<path d="M744 741 c-6 -22 -7 -41 -3 -41 5 0 9 -35 9 -77 0 -42 3 -73 7 -70 3
4 5 37 4 73 -1 37 2 70 7 73 5 4 5 21 -2 45 l-11 39 -11 -42z"/>
<path d="M2290 700 c0 -5 7 -7 15 -4 19 8 19 -6 -1 -34 -14 -21 -14 -22 8 -22
17 0 19 3 9 9 -9 6 -10 11 -2 15 19 12 13 46 -9 46 -11 0 -20 -4 -20 -10z"/>
<path d="M2344 685 c-8 -31 7 -50 31 -41 22 8 16 60 -7 64 -12 2 -19 -5 -24
-23z m26 -12 c0 -21 -3 -24 -9 -14 -5 8 -7 20 -4 28 8 21 13 15 13 -14z"/>
<path d="M2410 664 c0 -17 6 -24 18 -23 10 0 12 3 5 6 -21 8 -15 29 8 29 14 0
19 -5 16 -18 -3 -10 -1 -18 3 -18 5 0 11 10 13 23 l4 22 2 -22 c0 -13 5 -23
10 -23 5 0 12 10 14 23 l4 22 2 -22 c0 -13 5 -23 10 -23 4 0 6 11 3 25 -4 23
-8 25 -58 24 -50 -2 -54 -3 -54 -25z"/>
<path d="M2178 543 c-52 -43 -136 -112 -186 -153 -51 -41 -92 -79 -92 -84 0
-10 12 -1 245 193 11 9 48 38 83 65 34 27 62 51 62 52 0 14 -29 -6 -112 -73z"/>
<path d="M645 550 c-3 -5 0 -10 7 -10 7 0 14 -12 14 -26 2 -18 -2 -24 -12 -20
-8 3 -14 1 -14 -5 0 -6 8 -9 18 -7 23 4 31 78 8 78 -8 0 -18 -4 -21 -10z"/>
<path d="M708 523 c-9 -11 -7 -18 5 -30 9 -9 20 -13 24 -9 5 5 2 11 -4 13 -7
3 -13 11 -13 19 0 8 6 11 15 8 8 -4 15 -15 15 -25 0 -29 18 -22 23 9 l4 27 2
-27 c0 -16 6 -28 12 -28 6 0 9 9 6 20 -3 11 -1 20 4 20 5 0 9 -9 9 -20 0 -11
4 -20 9 -20 5 0 6 12 2 27 -7 25 -12 28 -54 28 -29 1 -52 -4 -59 -12z"/>
<path d="M750 380 c-6 -85 2 -160 13 -130 13 35 17 70 8 70 -6 0 -11 33 -13
73 l-3 72 -5 -85z"/>
<path d="M1852 280 c-26 -35 -26 -35 23 -15 30 13 35 18 25 30 -17 21 -23 19
-48 -15z"/>
<path d="M1185 166 c0 -24 3 -42 8 -39 4 2 7 22 7 44 0 21 -3 39 -7 39 -5 0
-8 -20 -8 -44z"/>
<path d="M1237 190 c-21 -30 -22 -40 -3 -40 8 0 16 -5 18 -12 8 -22 14 16 8
47 l-5 30 -18 -25z m13 -20 c0 -5 -5 -10 -11 -10 -5 0 -7 5 -4 10 3 6 8 10 11
10 2 0 4 -4 4 -10z"/>
<path d="M1288 173 c-15 -18 6 -40 37 -40 18 0 25 5 25 18 0 11 4 19 9 19 5 0
7 -9 4 -20 -3 -11 -1 -20 5 -20 6 0 13 12 15 28 l4 27 2 -27 c0 -16 6 -28 12
-28 6 0 8 7 5 16 -3 9 -6 21 -6 28 0 16 -98 15 -112 -1z m52 -14 c0 -5 -9 -9
-20 -9 -11 0 -20 6 -20 14 0 9 7 12 20 9 11 -3 20 -9 20 -14z"/>
<path d="M1620 179 c0 -5 -45 -9 -100 -9 -62 0 -100 -4 -100 -10 0 -7 33 -9
96 -4 67 4 99 3 103 -5 5 -8 18 -8 45 2 l37 13 -41 10 c-22 6 -40 7 -40 3z"/>
<path d="M895 166 c-36 -11 -38 -13 -15 -17 33 -7 283 2 275 9 -3 3 -50 5
-105 3 -67 -2 -100 1 -100 8 0 13 -4 13 -55 -3z"/>
</g>
</svg>
