<?xml version="1.0" standalone="no"?>
<!DOCTYPE svg PUBLIC "-//W3C//DTD SVG 20010904//EN"
 "http://www.w3.org/TR/2001/REC-SVG-20010904/DTD/svg10.dtd">
<svg version="1.0" xmlns="http://www.w3.org/2000/svg"
 width="356.000000pt" height="165.000000pt" viewBox="0 0 356.000000 165.000000"
 preserveAspectRatio="xMidYMid meet">
<g transform="translate(0.000000,165.000000) scale(0.100000,-0.100000)"
fill="#ffffff" stroke="none">
<path d="M709 1505 c-226 -39 -440 -198 -533 -400 -59 -127 -75 -315 -37 -445
66 -232 254 -415 501 -486 92 -26 299 -26 390 0 89 26 175 68 238 116 52 40
52 40 1069 40 559 0 1013 4 1007 8 -5 5 -22 14 -39 20 -76 27 -233 85 -265 97
-34 14 -284 105 -470 172 -52 18 -133 48 -180 65 -228 82 -277 100 -300 108
-14 4 -56 20 -95 35 -38 14 -106 39 -150 54 -44 16 -126 45 -183 66 -57 20
-106 35 -108 32 -5 -5 51 -29 149 -63 77 -27 77 -27 61 -53 -44 -70 -116 -125
-179 -137 -37 -7 -37 -7 -30 52 16 144 -45 335 -148 465 -108 135 -266 225
-447 255 -100 16 -148 16 -251 -1z m290 -20 c213 -45 397 -194 490 -397 39
-86 39 -84 -89 -156 -63 -35 -149 -82 -190 -105 -41 -22 -100 -56 -130 -74
-30 -18 -58 -33 -62 -33 -4 0 -55 57 -115 128 -59 70 -136 160 -171 199 -64
73 -64 73 -29 110 20 20 41 50 48 67 7 17 13 32 14 34 2 3 117 -36 185 -63 19
-7 82 -30 140 -50 58 -20 114 -41 125 -46 63 -27 287 -100 292 -95 4 3 -3 6
-112 46 -33 12 -76 28 -95 35 -19 8 -100 37 -180 65 -80 28 -161 57 -180 65
-19 8 -82 30 -140 50 -58 20 -121 42 -140 50 -19 7 -72 26 -117 42 -46 15 -83
32 -83 36 0 15 150 78 218 91 92 19 236 19 321 1z m-576 -172 c-2 -38 -11
-131 -18 -208 -8 -77 -19 -207 -25 -290 -6 -82 -15 -190 -20 -240 -5 -49 -10
-121 -10 -159 0 -70 0 -70 -31 -40 -53 51 -126 170 -153 251 -83 251 -15 501
187 689 38 35 71 64 72 64 2 0 1 -30 -2 -67z m92 38 c175 -59 230 -82 233 -95
3 -16 -44 -92 -71 -114 -12 -10 -20 -7 -42 20 -28 33 -28 33 1 39 16 4 21 7
12 8 -17 1 -17 2 -1 21 25 29 41 25 36 -7 -4 -22 -2 -25 6 -13 6 8 11 22 11
31 0 20 -26 33 -36 18 -4 -7 -10 -7 -18 0 -7 6 -17 6 -26 1 -13 -8 -12 -10 3
-10 22 0 22 -13 -1 -34 -18 -15 -22 -12 -87 64 -37 45 -70 79 -72 76 -6 -6 7
-23 108 -142 42 -49 123 -143 179 -209 56 -66 136 -160 177 -208 42 -48 74
-89 72 -90 -2 -1 -22 -12 -44 -24 -22 -11 -58 -31 -80 -43 -22 -13 -116 -65
-210 -118 -93 -52 -195 -108 -225 -124 -30 -17 -59 -35 -65 -40 -24 -25 35 5
380 197 28 15 76 43 108 61 32 19 60 34 63 34 2 0 22 11 43 25 39 24 39 24
112 -63 167 -199 221 -262 225 -262 10 0 3 18 -15 36 -10 11 -75 88 -143 170
-125 150 -125 150 -46 193 44 24 154 86 246 137 117 67 169 91 176 84 7 -7 11
-57 11 -123 0 -112 0 -112 -37 -115 -47 -4 -48 3 -8 122 33 97 41 152 10 71
-16 -43 -70 -214 -142 -445 -11 -36 -25 -81 -32 -100 -12 -35 -12 -35 -486
-35 -475 0 -475 0 -472 90 2 91 13 222 53 681 25 280 18 261 94 235z m1365
-492 c47 -17 103 -37 125 -44 22 -7 51 -18 65 -23 14 -6 66 -25 115 -42 93
-33 175 -62 235 -85 19 -8 76 -28 125 -45 94 -33 186 -67 220 -81 11 -5 72
-27 135 -49 63 -23 131 -47 150 -55 19 -8 85 -32 145 -54 110 -40 110 -40
-876 -38 -871 2 -986 4 -984 17 2 8 24 80 50 160 25 80 50 156 54 170 6 21 15
26 49 28 47 4 47 4 28 -59 -23 -74 -72 -167 -126 -235 -53 -68 -57 -86 -7 -31
68 74 139 207 152 286 6 37 9 41 36 41 65 0 168 74 208 149 7 11 13 21 14 21
1 0 40 -14 87 -31z m-615 -554 c-49 -41 -139 -84 -227 -110 -117 -36 -289 -36
-407 0 -85 25 -158 60 -225 107 -39 28 -39 28 425 28 464 -1 464 -1 434 -25z"/>
<path d="M712 1249 c2 -6 8 -10 13 -10 5 0 11 4 13 10 2 6 -4 11 -13 11 -9 0
-15 -5 -13 -11z"/>
<path d="M397 1450 c-29 -32 -30 -54 -2 -30 12 10 15 10 15 -1 0 -9 3 -10 11
-2 6 6 9 23 7 38 -3 27 -3 27 -31 -5z"/>
<path d="M2268 1285 c2 -19 8 -35 13 -35 5 0 6 7 3 15 -8 21 13 19 26 -2 10
-16 11 -16 7 3 -2 12 0 29 5 38 6 10 5 16 -2 16 -5 0 -10 -8 -10 -17 -1 -17
-1 -17 -14 0 -21 27 -32 20 -28 -18z"/>
<path d="M2342 1307 c-6 -7 -9 -23 -5 -35 7 -29 49 -30 58 -2 12 37 -30 66
-53 37z m38 -22 c0 -16 -6 -25 -15 -25 -9 0 -15 9 -15 25 0 16 6 25 15 25 9 0
15 -9 15 -25z"/>
<path d="M2408 1313 c6 -2 12 -18 12 -34 0 -16 5 -29 10 -29 6 0 10 14 10 31
0 17 4 28 10 24 6 -3 10 -1 10 4 0 6 -15 11 -32 10 -18 0 -27 -3 -20 -6z"/>
<path d="M2475 1310 c-4 -6 1 -7 11 -3 14 5 16 1 12 -25 -3 -20 0 -32 7 -32 7
0 10 12 7 31 -4 24 -1 30 9 27 8 -3 15 -10 15 -16 1 -7 2 -19 3 -27 0 -9 11
-15 25 -15 28 0 44 33 27 54 -13 16 -107 20 -116 6z m105 -25 c0 -16 -6 -25
-15 -25 -9 0 -15 9 -15 25 0 16 6 25 15 25 9 0 15 -9 15 -25z"/>
<path d="M2293 1195 c-3 -9 3 -23 13 -31 17 -14 17 -15 2 -10 -10 3 -18 1 -18
-4 0 -6 9 -10 20 -10 22 0 26 20 8 38 -9 9 -9 12 1 12 7 0 9 5 6 10 -9 15 -25
12 -32 -5z"/>
<path d="M2352 1201 c-23 -14 -10 -56 18 -58 25 -3 25 -3 3 7 -33 13 -31 44 2
38 20 -4 23 -3 14 8 -13 16 -19 17 -37 5z"/>
<path d="M2470 1180 c0 -36 -15 -40 -24 -5 -8 32 -20 32 -34 0 -15 -32 -15
-35 -2 -35 6 0 10 10 11 23 0 22 0 22 11 0 10 -21 18 -23 82 -22 39 1 63 3 54
6 -10 2 -18 9 -18 14 0 6 5 7 10 4 6 -3 10 -2 10 4 0 5 -6 12 -12 14 -7 3 -4
6 6 6 25 1 12 14 -17 17 -20 2 -23 -2 -19 -25 3 -21 -1 -27 -17 -28 -17 -1
-21 4 -21 28 0 16 -4 29 -10 29 -5 0 -10 -13 -10 -30z"/>
<path d="M1573 1068 c0 -7 -3 -23 -7 -35 -5 -14 -3 -23 3 -23 6 0 12 10 12 23
1 16 2 18 6 5 2 -10 8 -18 13 -18 9 0 20 47 12 55 -10 10 -39 5 -39 -7z"/>
<path d="M1592 863 c14 -3 15 -9 7 -30 -5 -14 -7 -28 -5 -31 6 -5 26 42 26 59
0 5 -10 8 -22 8 -17 -1 -18 -3 -6 -6z"/>
<path d="M1632 837 c3 -35 18 -40 33 -11 6 11 16 19 23 19 6 0 13 5 15 10 1 6
-15 11 -36 12 -37 2 -38 1 -35 -30z m15 -9 c-3 -7 -5 -2 -5 12 0 14 2 19 5 13
2 -7 2 -19 0 -25z"/>
<path d="M292 308 c0 -7 -4 -23 -7 -35 -6 -20 -4 -23 18 -23 29 0 51 29 41 54
-7 19 -50 22 -52 4z m38 -18 c0 -11 -7 -20 -15 -20 -17 0 -18 2 -9 24 9 23 24
20 24 -4z"/>
<path d="M1320 305 c-17 -21 -8 -50 18 -53 12 -2 22 2 22 8 0 6 -5 8 -10 5
-16 -10 -24 23 -10 40 7 8 8 15 2 15 -5 0 -15 -7 -22 -15z"/>
<path d="M1360 309 c0 -5 5 -7 10 -4 6 3 10 8 10 11 0 2 -4 4 -10 4 -5 0 -10
-5 -10 -11z"/>
<path d="M3363 308 c0 -7 -3 -23 -7 -35 -6 -20 -4 -23 18 -23 14 0 28 5 31 10
3 6 -1 10 -10 10 -15 0 -15 1 -1 16 22 22 20 34 -7 34 -13 0 -24 -6 -24 -12z"/>
<path d="M365 10 c3 -5 10 -10 16 -10 5 0 9 5 9 10 0 6 -7 10 -16 10 -8 0 -12
-4 -9 -10z"/>
<path d="M925 10 c3 -5 8 -10 11 -10 2 0 4 5 4 10 0 6 -5 10 -11 10 -5 0 -7
-4 -4 -10z"/>
<path d="M1445 11 c-3 -6 4 -9 15 -8 11 1 20 5 20 9 0 11 -28 10 -35 -1z"/>
<path d="M1905 11 c-3 -6 4 -9 15 -8 11 1 20 5 20 9 0 11 -28 10 -35 -1z"/>
<path d="M2245 10 c3 -5 10 -10 16 -10 5 0 9 5 9 10 0 6 -7 10 -16 10 -8 0
-12 -4 -9 -10z"/>
<path d="M8 3 c7 -3 16 -2 19 1 4 3 -2 6 -13 5 -11 0 -14 -3 -6 -6z"/>
<path d="M133 3 c9 -2 25 -2 35 0 9 3 1 5 -18 5 -19 0 -27 -2 -17 -5z"/>
<path d="M448 3 c12 -2 30 -2 40 0 9 3 -1 5 -23 4 -22 0 -30 -2 -17 -4z"/>
</g>
</svg>
