<?xml version="1.0" standalone="no"?> <!DOCTYPE svg PUBLIC "-//W3C//DTD SVG 20010904//EN" "http://www.w3.org/TR/2001/REC-SVG-20010904/DTD/svg10.dtd"> <svg version="1.0" xmlns="http://www.w3.org/2000/svg" width="184.000000pt" height="298.000000pt" viewBox="0 0 184.000000 298.000000" preserveAspectRatio="xMidYMid meet"> <g transform="translate(0.000000,298.000000) scale(0.100000,-0.100000)" fill="#ffffff" stroke="none"> <path d="M1155 2760 c3 -5 13 -10 21 -10 8 0 14 5 14 10 0 6 -9 10 -21 10 -11 0 -17 -4 -14 -10z"/> <path d="M1719 2748 c12 -32 31 -34 31 -4 0 19 -5 26 -20 26 -16 0 -18 -4 -11 -22z"/> <path d="M640 2750 c0 -5 9 -10 21 -10 11 0 17 5 14 10 -3 6 -13 10 -21 10 -8 0 -14 -4 -14 -10z"/> <path d="M1600 2750 c0 -5 5 -10 10 -10 6 0 10 5 10 10 0 6 -4 10 -10 10 -5 0 -10 -4 -10 -10z"/> <path d="M580 2536 c-25 -6 -55 -18 -67 -26 -23 -15 -23 -16 -23 -272 0 -247 -1 -258 -20 -270 -11 -7 -20 -17 -20 -21 0 -5 -8 -21 -18 -35 -10 -15 -26 -47 -36 -71 -15 -39 -17 -116 -22 -771 -3 -402 -2 -730 3 -733 5 -3 144 -9 308 -13 265 -6 302 -5 313 9 10 12 14 169 18 734 l6 718 -29 85 c-23 70 -32 86 -50 88 l-23 3 0 264 0 264 -29 20 c-15 11 -48 25 -72 30 -58 13 -183 11 -239 -3z m268 -42 c18 -5 20 -9 11 -20 -9 -11 -43 -14 -140 -14 -125 0 -192 11 -173 30 5 5 27 11 49 13 49 6 222 0 253 -9z m-292 -53 c5 -4 43 -14 85 -20 59 -9 92 -9 145 0 38 7 73 16 79 21 5 4 13 8 17 8 9 0 5 -241 -5 -257 -9 -15 -67 -24 -157 -26 -78 -1 -140 8 -175 24 -18 9 -20 20 -20 134 0 121 5 140 31 116z m148 -308 c76 -3 123 0 129 6 6 6 21 11 32 11 21 0 21 -3 18 -121 -2 -100 -6 -124 -20 -134 -37 -27 -268 -25 -320 3 -20 11 -22 19 -22 133 l0 121 32 -7 c18 -4 86 -9 151 -12z m-186 -261 c46 -32 199 -45 300 -25 53 10 102 44 102 70 0 7 4 13 10 13 5 0 14 -18 20 -41 6 -22 14 -47 17 -55 4 -12 -34 -14 -266 -14 -253 0 -270 1 -265 18 9 27 28 66 39 78 7 9 11 7 13 -7 2 -10 15 -27 30 -37z m452 -97 c4 -3 6 -58 4 -122 -2 -65 -4 -122 -4 -126 0 -4 -124 -7 -275 -6 l-275 2 0 135 0 135 271 -7 c150 -4 275 -9 279 -11z m4 -413 l1 -122 -280 0 -280 0 3 125 3 125 276 -2 276 -3 1 -123z m-189 -167 c124 -3 190 -8 189 -15 -1 -5 -2 -62 -2 -126 l-2 -116 -275 3 c-174 3 -275 8 -276 14 -1 8 0 212 1 249 0 4 39 5 88 2 48 -4 173 -8 277 -11z m185 -420 l0 -135 -42 5 c-89 10 -198 14 -353 15 l-160 0 0 125 0 125 278 0 277 0 0 -135z m0 -290 l0 -125 -277 2 -277 3 0 123 -1 122 278 0 277 0 0 -125z"/> <path d="M1386 2515 c-9 -21 -16 -46 -16 -56 0 -11 -4 -19 -10 -19 -5 0 -10 -7 -10 -16 0 -12 10 -14 53 -12 40 2 51 6 48 18 -2 8 -9 34 -15 57 -7 24 -17 48 -23 54 -9 9 -16 2 -27 -26z"/> <path d="M1396 2380 c-2 -8 -7 -32 -11 -52 -4 -25 -2 -38 5 -38 6 0 8 -5 4 -11 -12 -20 -15 -150 -4 -164 7 -8 7 -16 2 -19 -10 -6 -15 -521 -6 -568 3 -16 12 -28 20 -28 12 0 14 63 13 433 -1 386 -6 497 -23 447z"/> <path d="M1232 1488 c-18 -18 -15 -36 8 -50 28 -18 25 -38 -5 -38 -16 0 -25 -6 -25 -15 0 -19 53 -21 68 -2 6 6 10 36 9 64 -2 46 -5 53 -22 53 -12 0 -26 -5 -33 -12z"/> <path d="M1325 1491 c-3 -6 -5 -27 -4 -48 1 -21 0 -45 -2 -53 -3 -9 5 -16 19 -18 22 -3 23 -1 20 59 -2 36 -8 64 -15 66 -6 2 -14 -1 -18 -6z"/> <path d="M1432 1455 c-24 -18 -29 -57 -9 -72 15 -13 204 -15 212 -3 3 5 1 11 -5 15 -5 3 -10 19 -10 36 l0 29 -69 0 c-38 0 -75 2 -83 5 -7 3 -23 -2 -36 -10z m78 -40 c0 -10 -10 -15 -30 -15 -20 0 -30 5 -30 15 0 10 10 15 30 15 20 0 30 -5 30 -15z m37 -17 c-3 -7 -5 -2 -5 12 0 14 2 19 5 13 2 -7 2 -19 0 -25z m40 0 c-3 -7 -5 -2 -5 12 0 14 2 19 5 13 2 -7 2 -19 0 -25z"/> <path d="M1386 1331 c-4 -5 -6 -45 -6 -88 2 -103 2 -87 -1 -333 -2 -119 1 -221 5 -228 4 -6 2 -20 -4 -31 -21 -41 -6 -171 21 -171 16 0 20 97 17 469 -2 280 -6 385 -15 388 -6 2 -14 0 -17 -6z"/> <path d="M1373 453 c-16 -3 -23 -11 -23 -28 0 -13 5 -27 10 -30 6 -3 10 -19 10 -35 0 -19 7 -33 20 -40 23 -12 20 -16 40 69 10 44 10 55 -1 62 -15 9 -19 9 -56 2z"/> </g> </svg>