<?xml version="1.0" standalone="no"?> <!DOCTYPE svg PUBLIC "-//W3C//DTD SVG 20010904//EN" "http://www.w3.org/TR/2001/REC-SVG-20010904/DTD/svg10.dtd"> <svg version="1.0" xmlns="http://www.w3.org/2000/svg" width="176.000000pt" height="234.000000pt" viewBox="0 0 176.000000 234.000000" preserveAspectRatio="xMidYMid meet"> <g transform="translate(0.000000,234.000000) scale(0.100000,-0.100000)" fill="#ffffff" stroke="none"> <path d="M216 2311 c-3 -5 1 -11 9 -15 15 -6 29 7 18 18 -9 9 -21 8 -27 -3z"/> <path d="M1505 2310 c-3 -6 1 -13 9 -16 21 -8 49 3 41 16 -8 13 -42 13 -50 0z"/> <path d="M490 2004 c-19 -8 -36 -17 -38 -19 -3 -2 -4 -121 -3 -264 1 -177 -2 -261 -9 -266 -6 -4 -29 -43 -50 -88 l-40 -82 0 -285 c0 -209 3 -289 12 -298 7 -7 29 -12 50 -12 l39 0 -3 -114 c-2 -127 1 -137 60 -158 45 -15 272 -14 301 1 36 20 43 49 42 162 l-2 108 48 3 47 3 -3 297 c-2 278 -4 302 -25 370 -18 56 -28 74 -45 78 -21 5 -21 8 -25 273 -1 147 -7 272 -12 276 -35 32 -280 43 -344 15z m242 -26 c90 -19 65 -33 -62 -36 -103 -2 -182 10 -165 26 20 20 149 26 227 10z m-65 -71 c51 0 104 4 118 7 l26 7 -3 -128 -3 -127 -35 -10 c-70 -19 -248 -7 -268 18 -6 6 -12 64 -14 129 l-4 118 45 -8 c25 -4 87 -7 138 -6z m-12 -291 c61 -1 120 3 133 7 l22 8 0 -122 c0 -104 -3 -124 -17 -135 -27 -20 -235 -19 -273 1 -17 9 -30 21 -31 28 -1 10 0 212 1 226 0 2 12 0 28 -5 15 -4 77 -8 137 -8z m223 -248 c7 -24 15 -49 18 -55 5 -10 -47 -13 -240 -13 -134 0 -247 3 -249 8 -6 9 33 92 43 92 4 0 10 -10 14 -23 9 -37 71 -52 207 -51 130 2 169 16 169 60 0 39 25 27 38 -18z m20 -225 c-3 -115 -5 -128 -20 -127 -10 0 -123 1 -250 2 l-233 2 0 125 0 125 253 0 253 0 -3 -127z m-88 -171 c52 -4 94 -10 93 -14 -2 -5 -3 -60 -3 -124 l0 -116 -244 4 c-134 1 -247 6 -251 9 -5 5 -8 178 -5 253 0 9 187 3 410 -12z m0 -395 l0 -114 -52 -12 c-51 -12 -138 -11 -221 4 -44 8 -45 12 -49 143 l-3 92 163 0 162 0 0 -113z"/> <path d="M1195 1935 c-19 -67 -9 -91 34 -80 40 10 43 17 28 76 -20 75 -41 76 -62 4z"/> <path d="M1216 1809 c-3 -13 -5 -118 -3 -233 1 -157 5 -210 15 -214 9 -3 12 45 11 220 0 207 -9 291 -23 227z"/> <path d="M1110 1325 c0 -9 9 -15 21 -15 17 0 19 -3 10 -14 -8 -10 -9 -16 -1 -21 17 -10 11 -25 -10 -25 -13 0 -20 -7 -20 -20 0 -23 38 -28 58 -8 9 9 17 9 36 -2 21 -11 28 -11 41 0 17 14 20 46 5 55 -8 5 -7 11 1 21 9 11 9 17 -1 29 -16 19 -34 19 -51 -1 -11 -14 -13 -14 -21 0 -12 21 -68 21 -68 1z m82 -57 c-9 -9 -12 -7 -12 12 0 19 3 21 12 12 9 -9 9 -15 0 -24z"/> <path d="M1304 1273 c-10 -39 7 -58 54 -60 39 -2 41 0 45 30 l4 32 1 -32 c2 -32 3 -33 47 -33 43 0 45 1 45 29 0 58 -4 61 -101 61 -88 0 -89 0 -95 -27z m66 -18 c0 -8 -6 -15 -14 -15 -8 0 -16 7 -20 15 -4 10 1 15 14 15 11 0 20 -7 20 -15z"/> <path d="M1217 1174 c-4 -4 -7 -132 -7 -285 0 -253 5 -311 25 -279 9 15 7 552 -3 562 -4 4 -11 5 -15 2z"/> <path d="M1184 546 c-9 -24 27 -117 44 -114 16 3 23 22 36 91 l7 37 -41 0 c-25 0 -43 -5 -46 -14z"/> </g> </svg>