<?xml version="1.0" standalone="no"?>
<!DOCTYPE svg PUBLIC "-//W3C//DTD SVG 20010904//EN"
 "http://www.w3.org/TR/2001/REC-SVG-20010904/DTD/svg10.dtd">
<svg version="1.0" xmlns="http://www.w3.org/2000/svg"
 width="344.000000pt" height="222.000000pt" viewBox="0 0 344.000000 222.000000"
 preserveAspectRatio="xMidYMid meet">
<g transform="translate(0.000000,222.000000) scale(0.100000,-0.100000)"
fill="#ffffff" stroke="none">
<path d="M1495 2005 c-61 -14 -85 -24 -107 -43 -16 -13 -18 -35 -18 -179 l0
-163 -41 0 c-60 0 -130 -20 -166 -47 l-33 -24 2 -162 1 -162 -79 -3 c-43 -2
-83 -7 -88 -12 -6 -6 -19 -10 -30 -10 -12 0 -32 -9 -46 -20 -25 -19 -25 -20
-22 -149 3 -117 2 -131 -13 -131 -9 0 -26 5 -37 11 -14 8 -23 8 -31 0 -15 -15
-229 -15 -244 0 -9 9 -21 7 -48 -6 -24 -11 -34 -20 -27 -27 5 -5 91 -9 206 -9
l196 0 0 -25 0 -24 -212 0 -213 0 -30 -26 c-16 -14 -56 -47 -87 -72 l-58 -45
0 -219 c0 -166 3 -220 13 -223 6 -2 485 -7 1062 -11 1512 -11 1343 -13 1366
15 11 13 44 51 74 84 31 33 58 70 61 81 2 12 3 107 2 211 l-3 190 -215 5
c-163 4 -215 8 -214 18 1 6 2 21 3 33 0 11 6 17 12 14 18 -11 380 -8 391 3 7
7 -2 16 -28 27 -29 12 -43 14 -56 6 -10 -6 -67 -11 -127 -11 -79 0 -111 4
-114 13 -3 9 -9 9 -28 0 -51 -26 -51 -27 -49 113 l1 132 -30 21 c-16 12 -41
21 -55 21 -14 0 -26 5 -26 10 0 6 -28 10 -65 10 l-65 0 0 168 c0 155 -2 170
-20 187 -24 22 -119 45 -187 45 l-53 0 0 158 c0 152 -1 159 -22 178 -31 27
-64 41 -126 53 -67 14 -212 12 -277 -4z m333 -48 c50 -14 53 -35 7 -50 -16 -5
-100 -10 -185 -11 -105 -1 -170 3 -203 13 -38 11 -45 16 -36 27 6 8 19 14 28
14 9 0 21 4 27 9 21 22 283 21 362 -2z m-187 -107 c97 0 149 4 179 15 23 8 46
15 51 15 5 0 9 -71 9 -159 0 -115 -3 -161 -12 -168 -7 -5 -33 -16 -58 -24 -56
-17 -297 -18 -335 -1 -14 7 -36 17 -50 24 l-25 11 0 162 0 162 53 -18 c40 -14
83 -18 188 -19z m-271 -277 c0 -24 40 -63 66 -63 12 0 28 -7 35 -16 12 -15 8
-16 -51 -11 -156 15 -191 20 -196 28 -3 5 -14 9 -25 9 -14 0 -19 6 -17 18 2
12 17 19 53 25 28 4 66 12 85 16 19 5 38 9 43 10 4 0 7 -7 7 -16z m648 1 c67
-7 132 -25 132 -36 0 -14 -50 -31 -120 -39 -36 -4 -84 -11 -107 -15 -46 -7
-93 1 -93 16 0 6 8 10 19 10 23 0 71 44 71 66 0 12 6 15 25 10 14 -4 46 -9 73
-12z m-814 -92 c3 -5 36 -14 74 -22 69 -13 192 -10 298 8 28 4 55 7 60 5 11
-3 6 -304 -4 -315 -13 -13 -165 -38 -229 -38 -66 0 -202 25 -217 40 -5 5 -10
81 -10 170 -1 118 2 160 11 160 6 0 14 -4 17 -8z m946 -156 c0 -139 -2 -165
-16 -170 -48 -18 -155 -36 -218 -36 -78 0 -163 13 -208 31 l-28 11 0 154 c0
85 4 155 9 159 6 3 43 -1 83 -10 40 -8 111 -15 158 -15 80 1 170 17 186 33 4
4 13 7 21 7 10 0 13 -34 13 -164z m-1010 -155 c0 -25 24 -43 74 -58 36 -10 25
-11 -89 -8 -136 3 -191 11 -213 28 -11 8 -10 13 5 21 30 18 104 34 166 35 50
1 57 -1 57 -18z m1149 8 c87 -28 93 -31 79 -44 -22 -20 -115 -35 -211 -34 -77
1 -86 2 -57 10 59 16 80 31 80 56 0 20 5 23 37 23 20 0 53 -5 72 -11z m-581
-61 l47 -13 -55 -5 c-30 -3 -75 -3 -100 -1 l-45 4 40 12 c53 17 58 17 113 3z
m666 -188 c0 -162 -1 -163 -25 -175 -13 -7 -46 -15 -74 -19 -27 -4 -61 -9 -75
-11 -14 -3 -77 1 -140 7 -75 7 -121 16 -132 26 -16 13 -18 35 -18 175 l0 159
33 -6 c136 -28 326 -28 391 -1 17 7 33 12 36 10 3 -2 5 -76 4 -165z m-1420
151 c3 -4 50 -11 103 -15 89 -5 192 2 281 20 l32 6 0 -163 0 -164 -27 -12
c-44 -18 -111 -27 -208 -27 -97 0 -164 9 -207 27 l-28 12 0 162 0 163 24 0
c14 0 27 -4 30 -9z m604 -12 c77 -10 178 -4 280 17 l32 6 0 -164 c0 -161 -1
-165 -22 -176 -35 -16 -113 -25 -213 -24 -100 1 -179 12 -212 30 -22 12 -23
17 -23 173 l0 161 38 -6 c20 -4 74 -11 120 -17z m-693 -299 c12 -38 58 -59
146 -67 46 -5 83 -12 81 -18 -1 -6 -138 -9 -375 -7 -204 1 -376 2 -381 2 -5 0
22 25 60 55 l69 55 197 0 c187 0 197 -1 203 -20z m1925 0 c0 -2 -23 -28 -52
-57 l-52 -53 -384 0 -384 0 15 23 c11 16 22 21 43 19 55 -7 309 -5 347 3 23 4
52 20 70 39 l31 31 183 0 c101 0 183 -2 183 -5z m-1370 -47 c50 -23 121 -33
227 -33 111 0 165 9 219 37 23 12 36 13 49 5 17 -9 17 -12 -12 -41 l-32 -31
-163 4 c-90 2 -254 4 -365 5 -128 1 -203 5 -203 11 0 6 21 10 48 11 55 0 149
19 177 36 11 6 22 10 25 9 3 -1 16 -7 30 -13z m1384 -155 c-4 -154 -5 -163
-31 -203 -14 -23 -34 -47 -42 -52 -15 -9 -16 6 -13 159 l4 170 41 44 c22 24
42 44 43 44 1 0 0 -73 -2 -162z m-2069 68 l330 -3 -3 -69 c-2 -38 -5 -118 -7
-179 l-3 -110 -208 -2 c-115 -2 -282 0 -372 5 l-162 7 -1 175 c0 96 0 179 0
183 1 4 22 5 49 2 26 -3 195 -7 377 -9z m1121 -9 c0 -1 -1 -83 -4 -182 l-4
-180 -367 3 c-201 2 -370 5 -376 6 -6 2 -9 69 -7 182 l3 179 377 -3 c207 -2
377 -4 378 -5z m817 -4 c2 -5 2 -88 -1 -185 l-4 -178 -384 0 c-210 0 -385 3
-387 8 -2 4 -2 87 1 185 l5 177 383 0 c210 0 385 -3 387 -7z"/>
<path d="M2455 1230 c-3 -5 1 -10 10 -10 9 0 13 5 10 10 -3 6 -8 10 -10 10 -2
0 -7 -4 -10 -10z"/>
<path d="M518 1223 c6 -2 18 -2 25 0 6 3 1 5 -13 5 -14 0 -19 -2 -12 -5z"/>
<path d="M343 1070 c-18 -27 -33 -57 -33 -65 0 -10 10 -15 29 -15 16 0 31 -6
35 -15 8 -22 19 -18 33 12 9 19 10 29 2 34 -6 3 -9 25 -7 50 4 62 -19 61 -59
-1z m23 -47 c-11 -11 -19 6 -11 24 8 17 8 17 12 0 3 -10 2 -21 -1 -24z"/>
<path d="M489 1091 c-9 -16 -14 -33 -10 -38 3 -6 16 -13 29 -17 13 -5 22 -15
22 -28 0 -16 -5 -19 -24 -14 -14 3 -27 2 -31 -4 -3 -5 -12 -7 -19 -4 -16 6
-30 -11 -21 -26 5 -8 11 -8 20 0 9 8 15 8 20 0 16 -26 77 5 90 47 5 17 0 29
-19 47 -14 13 -26 26 -26 30 0 3 11 6 25 6 16 0 25 6 25 15 0 10 -10 15 -32
15 -26 0 -37 -6 -49 -29z"/>
<path d="M2485 1088 c-8 -18 -22 -44 -30 -57 -7 -14 -12 -29 -9 -33 3 -4 15
-8 26 -8 11 0 27 -8 34 -17 12 -16 15 -16 24 -3 6 8 9 44 8 80 -2 52 -6 65
-20 68 -11 2 -23 -8 -33 -30z m15 -58 c0 -5 -4 -10 -10 -10 -5 0 -10 5 -10 10
0 6 5 10 10 10 6 0 10 -4 10 -10z"/>
<path d="M2630 1105 c0 -8 -5 -15 -11 -15 -18 0 -5 -42 16 -54 40 -22 41 -48
2 -45 -12 1 -34 1 -49 1 -22 -2 -28 -7 -28 -24 1 -23 1 -23 16 -3 14 19 16 19
25 3 6 -10 18 -18 27 -18 24 1 59 31 67 57 5 17 0 29 -19 46 -27 25 -25 37 6
37 10 0 18 7 18 15 0 10 -11 15 -35 15 -24 0 -35 -5 -35 -15z"/>
<path d="M612 1057 c-44 -46 -17 -104 46 -98 6 0 12 10 12 21 0 13 -7 20 -20
20 -13 0 -20 7 -20 19 0 11 5 23 10 26 6 3 10 1 10 -4 0 -6 7 -11 15 -11 18 0
20 21 3 38 -18 18 -32 15 -56 -11z"/>
<path d="M796 1071 c-3 -5 -26 -6 -51 -3 -25 2 -45 1 -46 -4 0 -5 -1 -26 -3
-46 -3 -44 6 -63 28 -55 11 4 15 16 14 34 -2 15 2 29 7 30 6 2 10 -12 10 -30
0 -22 5 -32 15 -32 10 0 15 10 15 34 0 48 23 52 27 4 2 -21 8 -38 13 -38 6 0
11 21 13 47 2 38 -1 49 -17 57 -11 6 -22 7 -25 2z"/>
<path d="M2742 1060 c-24 -22 -28 -50 -12 -79 14 -28 40 -34 61 -15 15 13 22
14 33 5 20 -16 38 -5 35 22 -2 37 1 48 12 42 5 -4 9 -17 8 -28 -3 -40 1 -48
19 -45 11 2 17 13 17 33 0 17 5 31 10 32 6 2 10 -11 10 -28 0 -29 21 -53 37
-43 4 3 8 24 8 48 0 29 -6 48 -19 60 -16 15 -22 15 -41 4 -16 -9 -24 -10 -27
-2 -3 8 -16 9 -45 2 -27 -6 -45 -5 -52 2 -15 15 -30 12 -54 -10z m65 -30 c31
0 30 -28 -1 -36 -14 -3 -30 -3 -35 1 -6 3 -11 18 -11 33 0 20 3 23 12 14 7 -7
22 -12 35 -12z"/>
<path d="M2815 171 c-3 -5 -1 -12 5 -16 5 -3 10 1 10 9 0 18 -6 21 -15 7z"/>
</g>
</svg>
