<?xml version="1.0" standalone="no"?>
<!DOCTYPE svg PUBLIC "-//W3C//DTD SVG 20010904//EN"
 "http://www.w3.org/TR/2001/REC-SVG-20010904/DTD/svg10.dtd">
<svg version="1.0" xmlns="http://www.w3.org/2000/svg"
 width="428.000000pt" height="300.000000pt" viewBox="0 0 428.000000 300.000000"
 preserveAspectRatio="xMidYMid meet">
<g transform="translate(0.000000,300.000000) scale(0.100000,-0.100000)"
fill="#ffffff" stroke="none">
<path d="M1640 2721 c0 -5 6 -11 13 -14 10 -3 10 -11 0 -39 -22 -61 -12 -91
15 -48 8 13 10 34 6 55 -4 23 -2 35 5 35 6 0 11 5 11 10 0 6 -11 10 -25 10
-14 0 -25 -4 -25 -9z"/>
<path d="M1702 2713 c0 -10 0 -22 -2 -28 -6 -24 1 -85 10 -85 6 0 10 4 10 10
0 13 62 100 72 100 4 0 8 5 8 10 0 21 -38 10 -43 -12 -4 -13 -13 -32 -22 -43
-16 -19 -16 -19 -11 7 3 14 9 33 12 42 4 11 0 16 -14 16 -13 0 -20 -6 -20 -17z"/>
<path d="M303 2618 c-1 -34 -7 -56 -17 -64 -23 -16 -20 -24 9 -24 21 0 25 5
25 30 0 40 26 40 32 0 3 -17 0 -33 -5 -37 -5 -3 -6 -22 -3 -42 15 -87 38 -241
43 -291 3 -30 9 -60 14 -65 4 -6 7 -24 5 -40 -1 -17 1 -34 4 -40 4 -5 10 -37
14 -70 9 -76 13 -106 25 -180 5 -33 15 -97 22 -142 13 -85 29 -111 29 -48 0
19 3 35 8 35 9 0 3 -78 -7 -84 -7 -4 6 -124 31 -301 9 -61 17 -89 26 -88 13 3
17 -13 4 -19 -9 -3 8 -154 39 -353 13 -77 35 -234 51 -355 14 -102 31 -149 43
-117 4 9 4 25 0 35 -4 9 -14 60 -22 112 -19 138 -40 280 -59 400 -8 58 -18
125 -21 150 -3 25 -9 49 -14 55 -12 12 -11 65 1 65 6 0 10 -8 10 -17 0 -23 51
-123 98 -193 42 -62 89 -116 146 -169 22 -20 47 -43 57 -52 48 -47 256 -169
286 -169 7 0 13 -4 13 -9 0 -5 17 -12 38 -16 20 -4 42 -10 47 -15 11 -9 83
-25 185 -42 80 -12 414 -6 432 9 7 6 37 14 65 18 29 4 55 11 59 16 3 5 12 9
20 9 9 0 41 12 72 26 31 14 66 30 77 35 104 47 240 153 331 257 89 103 85 98
110 142 10 19 22 37 25 40 4 3 10 16 14 30 4 13 14 30 21 38 8 7 14 21 14 31
0 9 4 21 9 26 11 13 36 94 52 170 25 114 10 448 -21 479 -6 6 -10 19 -10 31 0
34 -95 212 -156 292 -108 141 -300 292 -434 343 -19 7 -48 19 -65 25 -55 23
-134 45 -182 51 -27 3 -57 10 -68 15 -43 21 -440 -3 -500 -30 -11 -5 -53 -19
-92 -31 -40 -13 -73 -26 -73 -31 0 -5 -7 -9 -16 -9 -18 0 -97 -41 -102 -52 -2
-5 -10 -8 -17 -8 -12 0 -96 -59 -161 -112 -96 -79 -202 -218 -253 -333 -12
-27 -27 -58 -32 -67 -19 -37 -39 -105 -45 -155 -5 -41 -11 -53 -24 -53 -21 0
-26 19 -36 130 -3 47 -10 90 -15 96 -5 6 -9 22 -8 35 1 41 -12 143 -21 164 -5
11 -14 56 -19 100 -17 134 -40 288 -47 318 -5 21 -3 27 10 27 20 0 21 14 1 30
-21 17 -19 32 6 53 20 18 20 19 3 38 -10 11 -30 19 -48 19 -30 0 -31 -1 -33
-52z m57 12 c0 -11 -7 -20 -15 -20 -17 0 -18 2 -9 24 9 23 24 20 24 -4z m1255
-126 c-41 -35 -306 -288 -549 -524 -111 -108 -236 -229 -280 -270 -43 -41 -96
-94 -119 -117 -32 -34 -43 -40 -54 -32 -7 7 -11 14 -8 17 3 3 -11 22 -30 42
l-36 37 16 58 c10 32 18 63 20 69 4 19 39 107 54 136 103 199 230 335 418 446
50 30 96 54 102 54 6 0 19 4 29 10 35 19 88 39 122 45 19 4 40 11 45 16 6 4
42 11 80 15 39 4 79 10 90 15 11 4 45 8 75 8 l55 0 -30 -25z m342 -254 c60
-58 129 -123 154 -145 24 -21 85 -78 134 -125 50 -47 144 -134 209 -195 66
-60 161 -150 213 -200 l95 -89 -5 -51 c-9 -97 -27 -199 -37 -209 -5 -5 -10
-16 -10 -24 0 -17 -18 -60 -68 -162 -65 -132 -208 -296 -327 -375 -71 -47
-240 -132 -280 -141 -16 -4 -35 -11 -41 -15 -6 -5 -33 -12 -60 -15 -27 -4 -55
-12 -63 -18 -20 -15 -443 -15 -462 0 -8 6 -35 15 -61 18 -26 4 -50 11 -53 17
-4 5 -15 9 -26 9 -21 0 -72 21 -174 72 -112 56 -272 190 -351 293 -49 64 -135
212 -138 237 -1 3 -4 10 -8 14 -5 4 -8 16 -8 26 0 10 -4 18 -8 18 -8 0 -29 86
-37 150 -2 14 -7 39 -10 56 -7 29 2 39 221 250 125 120 246 237 269 259 23 22
162 157 310 300 148 143 283 275 299 293 l30 32 91 -87 c50 -49 141 -135 202
-193z m-163 271 c3 -4 37 -11 77 -14 39 -3 76 -10 82 -16 7 -5 29 -12 50 -16
20 -4 40 -11 43 -16 3 -5 13 -9 22 -9 22 0 222 -100 222 -111 0 -5 4 -9 10 -9
30 0 197 -156 270 -253 76 -101 152 -277 171 -397 20 -125 22 -140 11 -140 -6
0 -15 6 -19 13 -4 6 -44 46 -88 87 -44 41 -123 115 -175 165 -53 49 -147 137
-209 195 -63 58 -159 148 -215 201 -55 53 -126 119 -156 147 -30 27 -86 80
-125 116 l-70 66 47 0 c26 0 49 -4 52 -9z m-1227 -919 c38 -52 38 -69 -1 -110
l-36 -36 0 87 c0 48 4 87 8 87 5 0 17 -12 29 -28z"/>
<path d="M3441 2531 c-11 -7 -9 -10 8 -16 19 -6 22 -12 18 -48 -3 -23 -8 -50
-12 -59 -5 -14 -2 -18 13 -18 24 0 37 16 22 25 -13 8 -13 65 0 65 6 0 10 -3
10 -7 0 -5 16 -26 36 -48 37 -40 37 -40 30 -11 -4 17 -17 40 -29 52 -12 12
-33 33 -46 48 -25 28 -29 30 -50 17z"/>
<path d="M3540 2525 c0 -10 7 -15 18 -13 21 4 19 22 -2 26 -10 2 -16 -3 -16
-13z"/>
<path d="M3610 2518 c-32 -30 -27 -82 10 -108 l30 -21 30 21 c25 17 30 28 30
60 0 30 -5 42 -22 52 -34 18 -56 17 -78 -4z m64 -14 c22 -21 20 -57 -3 -78
-23 -21 -38 -14 -52 21 -12 32 -4 60 19 66 9 3 18 5 19 6 1 0 9 -6 17 -15z"/>
<path d="M3723 2522 c-3 -7 -2 -16 2 -20 4 -4 10 -1 12 6 3 6 11 12 19 12 17
0 20 -95 4 -105 -16 -10 -2 -24 19 -18 17 4 18 12 14 64 -6 62 -4 66 29 48 17
-9 19 -8 16 7 -2 15 -13 18 -57 19 -35 0 -55 -4 -58 -13z"/>
<path d="M3885 2530 c-2 -3 0 -12 4 -19 6 -9 11 -10 15 -2 18 29 28 8 24 -48
-4 -51 -2 -60 14 -64 10 -3 21 -1 24 4 3 5 0 9 -5 9 -7 0 -11 23 -11 55 0 51
10 69 25 45 8 -13 27 -2 23 12 -4 10 -107 18 -113 8z"/>
<path d="M4020 2525 c-6 -7 -13 -29 -17 -47 -4 -28 0 -40 20 -61 29 -32 31
-33 68 -6 23 16 29 28 29 58 0 21 -6 44 -14 50 -20 17 -74 20 -86 6z m69 -29
c16 -28 12 -55 -10 -69 -29 -18 -49 -1 -49 42 0 38 4 42 41 50 3 0 11 -10 18
-23z"/>
<path d="M3459 2304 c-12 -14 -9 -21 24 -48 27 -23 34 -35 27 -46 -8 -12 -11
-12 -28 3 -24 22 -32 21 -32 -4 0 -11 4 -18 10 -14 5 3 18 0 29 -6 15 -10 22
-10 35 4 25 24 19 54 -14 74 -16 9 -30 20 -30 24 0 15 26 16 43 1 15 -14 17
-13 17 6 0 18 -6 22 -34 22 -19 0 -39 -7 -47 -16z"/>
<path d="M3570 2301 c-12 -23 -13 -71 -2 -86 22 -31 41 -37 72 -24 16 8 30 20
30 26 0 17 -15 16 -30 -2 -17 -21 -27 -19 -45 9 -24 37 -11 76 26 76 20 0 29
-5 29 -16 0 -8 5 -12 10 -9 6 3 10 15 10 26 0 28 -84 28 -100 0z"/>
<path d="M3713 2267 c-37 -87 -37 -87 -14 -87 18 0 20 4 15 25 -4 16 -2 25 6
25 7 0 10 6 7 14 -3 8 1 20 10 28 14 11 16 10 11 -14 -4 -19 -1 -28 8 -28 7 0
14 -11 16 -25 2 -19 6 -22 18 -15 13 8 13 13 -2 42 -10 18 -20 45 -24 61 -9
41 -27 33 -51 -26z"/>
<path d="M3818 2313 c7 -3 12 -25 12 -59 0 -36 -4 -54 -12 -55 -7 0 -2 -4 12
-8 42 -13 90 -2 90 20 0 11 -4 19 -10 19 -5 0 -10 -7 -10 -15 0 -18 -26 -20
-36 -3 -11 18 -4 92 9 100 7 4 -6 7 -28 7 -22 0 -34 -3 -27 -6z"/>
<path d="M3940 2305 c9 -10 10 -31 6 -65 -5 -37 -3 -50 6 -52 55 -6 70 -4 79
14 14 26 1 38 -15 15 -7 -9 -21 -17 -30 -17 -13 0 -16 11 -16 55 0 41 4 55 14
55 8 0 18 -4 21 -10 9 -15 25 -12 25 5 0 11 -12 15 -51 15 -45 0 -50 -2 -39
-15z"/>
<path d="M3993 2265 c-3 -9 -3 -18 0 -21 9 -9 27 6 27 22 0 19 -19 18 -27 -1z"/>
<path d="M2892 1490 c-24 -57 -44 -53 -22 4 9 25 8 26 -22 26 -23 0 -29 -3
-21 -11 7 -7 9 -33 6 -70 -4 -41 -2 -59 6 -59 6 0 11 5 11 11 0 6 14 28 30 48
59 70 63 78 45 85 -11 4 -20 -6 -33 -34z"/>
<path d="M332 1493 c2 -5 10 -20 17 -35 13 -25 12 -29 -10 -47 -13 -11 -30
-20 -36 -21 -7 0 -13 -4 -13 -10 0 -15 36 -12 50 5 7 8 19 15 27 15 13 0 13
-3 3 -15 -11 -13 -8 -15 14 -15 14 0 26 5 26 10 0 6 -4 10 -10 10 -9 0 -24 63
-20 84 1 5 -4 13 -12 17 -16 11 -41 12 -36 2z"/>
<path d="M400 1481 c-16 -31 -12 -33 19 -15 30 18 32 34 6 34 -8 0 -19 -9 -25
-19z"/>
<path d="M353 1333 c-14 -5 -18 -33 -5 -33 10 0 32 22 32 32 0 9 -8 9 -27 1z"/>
<path d="M715 198 c-4 -24 -14 -51 -23 -60 -14 -17 -13 -18 10 -18 23 0 26 5
32 50 7 49 19 69 31 50 4 -6 1 -17 -5 -25 -10 -12 -9 -15 8 -15 22 0 35 22 26
45 -4 9 -19 15 -39 15 -31 0 -34 -2 -40 -42z"/>
</g>
</svg>
