<?xml version="1.0" standalone="no"?>
<!DOCTYPE svg PUBLIC "-//W3C//DTD SVG 20010904//EN"
 "http://www.w3.org/TR/2001/REC-SVG-20010904/DTD/svg10.dtd">
<svg version="1.0" xmlns="http://www.w3.org/2000/svg"
 width="303.000000pt" height="261.000000pt" viewBox="0 0 303.000000 261.000000"
 preserveAspectRatio="xMidYMid meet">
<g transform="translate(0.000000,261.000000) scale(0.100000,-0.100000)"
fill="#ffffff" stroke="none">
<path d="M180 2601 c0 -5 9 -11 19 -14 14 -3 18 -1 14 9 -6 15 -33 19 -33 5z"/>
<path d="M1547 2438 c-4 -29 -11 -54 -17 -56 -26 -9 -5 -22 35 -22 32 0 47 5
52 15 7 19 -5 34 -15 19 -4 -6 -15 -13 -25 -17 -16 -6 -17 -2 -11 31 4 20 13
44 20 53 20 22 17 29 -10 29 -21 0 -24 -6 -29 -52z"/>
<path d="M1260 2263 c-24 -2 -49 -8 -55 -12 -5 -5 -31 -12 -57 -15 -26 -4 -50
-11 -53 -16 -3 -4 -23 -11 -45 -15 -22 -4 -40 -11 -40 -16 0 -5 -6 -9 -14 -9
-18 0 -160 -71 -164 -82 -2 -4 -8 -8 -13 -8 -30 0 -165 -113 -254 -212 -81
-90 -88 -101 -145 -218 -23 -47 -45 -92 -50 -100 -4 -9 -11 -31 -15 -50 -4
-19 -12 -41 -19 -49 -16 -20 -15 -443 1 -462 7 -8 15 -34 19 -57 4 -23 10 -42
15 -42 5 0 9 -7 9 -16 0 -23 26 -76 84 -174 34 -59 81 -116 150 -185 91 -91
211 -185 236 -185 6 0 10 -4 10 -9 0 -5 14 -12 30 -16 17 -4 30 -11 30 -16 0
-5 6 -9 13 -9 6 -1 30 -9 52 -20 22 -11 45 -19 51 -20 7 0 25 -7 40 -15 16 -8
40 -15 54 -15 15 0 30 -4 35 -9 6 -4 72 -16 147 -26 124 -16 159 -16 238 -2
14 2 60 8 102 12 43 3 80 10 83 15 3 4 25 11 50 14 24 4 47 11 50 17 4 5 15 9
26 9 10 0 36 9 56 20 21 11 43 20 50 20 7 0 13 4 13 9 0 5 14 12 30 16 17 4
30 10 30 14 0 3 20 17 45 31 25 14 45 28 45 32 0 5 6 8 13 8 6 0 30 17 52 36
22 20 46 41 55 47 12 10 116 128 160 184 5 6 26 42 46 80 20 37 40 72 45 77 5
6 9 17 9 25 0 9 6 28 14 42 7 14 16 43 20 65 5 21 13 45 19 53 16 19 17 422 1
442 -7 8 -15 30 -18 49 -9 43 -12 50 -77 183 -29 59 -56 107 -60 107 -4 0 -10
8 -13 18 -3 9 -24 35 -46 57 -21 22 -39 45 -40 50 -1 8 -122 113 -175 153 -58
43 -221 126 -270 138 -16 4 -35 10 -40 15 -6 4 -31 11 -55 15 -25 4 -51 11
-58 17 -14 11 -367 19 -452 10z m350 -19 c36 -3 72 -10 81 -15 8 -4 39 -11 67
-15 29 -3 52 -10 52 -15 0 -5 10 -9 23 -9 12 -1 40 -9 62 -20 22 -11 46 -19
53 -20 6 0 12 -3 12 -7 0 -5 25 -19 55 -33 30 -14 55 -28 55 -32 0 -5 5 -8 11
-8 14 0 135 -97 194 -154 23 -23 57 -63 76 -91 19 -27 39 -53 44 -57 6 -3 19
-27 30 -52 11 -25 23 -46 28 -46 4 0 7 -5 7 -11 0 -10 32 -89 49 -119 5 -9 12
-31 15 -50 4 -19 11 -44 16 -55 10 -23 29 -157 24 -166 -2 -4 -30 18 -63 50
-32 31 -74 69 -92 85 -58 49 -171 151 -236 212 -34 33 -81 77 -105 98 -24 22
-101 96 -173 165 -71 70 -187 181 -257 248 -71 67 -128 124 -128 128 0 3 8 4
18 1 9 -3 46 -8 82 -12z m-6 -119 c71 -66 183 -174 251 -240 128 -126 333
-318 399 -376 21 -19 53 -47 71 -64 18 -16 79 -70 135 -120 l101 -90 -6 -100
c-3 -55 -10 -104 -16 -110 -5 -5 -9 -17 -9 -27 0 -27 -28 -105 -67 -188 -40
-86 -141 -226 -205 -285 -48 -46 -163 -135 -173 -135 -3 0 -21 -11 -38 -24
-37 -28 -179 -96 -201 -96 -8 0 -17 -4 -20 -9 -3 -5 -27 -12 -53 -16 -27 -4
-52 -10 -58 -15 -5 -4 -65 -13 -133 -19 -67 -6 -126 -12 -130 -12 -4 -1 -9 -1
-12 0 -3 1 -39 4 -80 7 -113 8 -252 35 -275 54 -5 4 -27 11 -47 15 -21 4 -38
11 -38 16 0 5 -6 9 -12 9 -12 0 -158 69 -168 80 -3 3 -34 27 -70 54 -101 77
-175 154 -235 242 -30 45 -55 86 -55 93 0 6 -4 11 -9 11 -5 0 -12 14 -16 30
-4 17 -11 30 -16 30 -5 0 -9 7 -9 16 0 9 -6 30 -14 47 -19 44 -36 109 -49 191
l-10 68 40 37 c38 33 223 207 403 379 42 39 85 72 96 72 24 0 44 18 44 39 0 8
119 133 265 276 146 144 265 264 265 268 0 25 -53 -22 -289 -257 -182 -181
-274 -265 -291 -268 -17 -2 -25 -9 -25 -23 -1 -18 -36 -56 -127 -135 -31 -26
-195 -182 -310 -293 l-68 -65 1 71 c1 107 23 224 54 283 8 16 15 37 15 46 0 9
3 18 8 20 4 2 22 34 41 72 19 37 40 73 45 80 6 6 24 29 40 51 49 67 177 186
254 236 87 57 254 139 284 139 8 0 18 4 23 9 9 8 45 16 175 41 25 4 79 7 121
7 l76 -2 127 -120z"/>
<path d="M973 1684 c-8 -4 -9 -15 -2 -37 5 -18 9 -44 9 -59 0 -39 23 -35 46 7
12 22 22 31 28 25 6 -6 3 -16 -7 -28 -23 -25 -21 -32 6 -32 19 0 24 5 24 28 0
16 7 43 16 60 10 22 12 34 5 39 -10 6 -37 -20 -80 -78 -18 -23 -18 -23 -18 29
0 51 -3 55 -27 46z"/>
<path d="M950 1605 c0 -16 -6 -25 -15 -25 -8 0 -15 -4 -15 -10 0 -5 11 -10 25
-10 22 0 25 4 25 35 0 19 -4 35 -10 35 -5 0 -10 -11 -10 -25z"/>
<path d="M1330 1185 c0 -8 7 -15 15 -15 8 0 15 7 15 15 0 8 -7 15 -15 15 -8 0
-15 -7 -15 -15z"/>
<path d="M2722 1277 c-2 -54 -6 -77 -13 -77 -4 0 -9 -7 -13 -15 -4 -11 2 -15
21 -15 19 0 24 3 17 10 -12 12 -6 70 7 70 4 0 14 -18 20 -40 16 -52 35 -51 44
3 4 23 11 44 15 47 11 8 22 50 13 50 -17 0 -35 -18 -29 -28 3 -5 0 -21 -7 -35
l-14 -26 -14 35 c-7 20 -21 40 -29 44 -13 7 -17 3 -18 -23z"/>
<path d="M225 1139 c4 -12 3 -31 -3 -43 -6 -11 -13 -30 -16 -40 -6 -18 -7 -18
-19 -2 -12 16 -14 16 -26 3 -10 -13 -9 -17 8 -27 32 -16 57 3 72 56 8 26 20
49 26 51 20 8 4 23 -23 23 -21 0 -24 -3 -19 -21z"/>
</g>
</svg>
