<?xml version="1.0" standalone="no"?> <!DOCTYPE svg PUBLIC "-//W3C//DTD SVG 20010904//EN" "http://www.w3.org/TR/2001/REC-SVG-20010904/DTD/svg10.dtd"> <svg version="1.0" xmlns="http://www.w3.org/2000/svg" width="272.000000pt" height="146.000000pt" viewBox="0 0 272.000000 146.000000" preserveAspectRatio="xMidYMid meet"> <g transform="translate(0.000000,146.000000) scale(0.100000,-0.100000)" fill="#ffffff" stroke="none"> <path d="M440 1254 c0 -8 5 -12 10 -9 6 4 8 11 5 16 -9 14 -15 11 -15 -7z"/> <path d="M548 1249 c-4 -7 -13 -31 -22 -51 -9 -22 -12 -38 -6 -38 5 0 10 7 10 15 0 8 5 15 11 15 6 0 9 7 5 15 -3 8 -1 15 4 15 4 0 11 -13 15 -30 4 -16 11 -30 16 -30 13 0 10 19 -10 64 -12 27 -19 35 -23 25z"/> <path d="M631 1197 c-5 -12 -46 -123 -91 -247 -59 -160 -90 -231 -107 -246 -21 -18 -22 -22 -9 -27 14 -6 14 -10 0 -43 -8 -20 -49 -127 -89 -237 l-74 -200 52 6 c68 8 1029 157 1042 162 24 9 -48 4 -132 -10 -51 -8 -125 -20 -165 -25 -40 -6 -81 -13 -90 -16 -10 -3 13 23 50 58 37 35 69 65 72 68 3 3 91 86 195 185 105 98 207 196 227 216 l38 37 77 -28 c105 -38 216 -77 408 -145 355 -125 429 -153 415 -158 -42 -14 -974 -152 -1025 -152 l-61 1 4 -28 c5 -33 6 -33 40 -9 15 10 45 21 67 24 162 22 1020 158 1023 162 6 6 -111 49 -793 290 -88 31 -182 65 -210 75 -116 44 -271 101 -280 104 -5 2 -17 6 -25 9 -8 4 -71 27 -140 51 -69 24 -189 67 -268 95 l-143 51 -8 -23z m176 -56 c155 -55 380 -135 585 -207 76 -27 134 -51 130 -55 -4 -3 -54 -31 -112 -61 -58 -31 -199 -106 -315 -168 -116 -62 -340 -182 -500 -267 -159 -85 -292 -157 -295 -160 -13 -14 49 13 137 61 54 29 181 97 283 151 233 123 714 381 760 407 38 22 43 26 -219 -221 -74 -69 -143 -134 -155 -144 -11 -10 -55 -52 -97 -92 l-76 -74 -294 -47 c-356 -55 -362 -56 -356 -41 2 7 37 100 76 207 84 228 89 240 107 233 10 -4 12 4 8 29 -4 25 12 79 71 233 42 110 81 215 87 233 6 17 17 32 25 32 7 0 75 -22 150 -49z"/> <path d="M1033 1125 c0 -8 4 -12 9 -9 5 3 6 10 3 15 -9 13 -12 11 -12 -6z"/> <path d="M1531 953 c1 -42 2 -44 9 -18 l7 30 8 -29 c7 -27 9 -28 21 -11 8 11 14 24 14 29 0 6 -4 5 -9 -3 -7 -11 -13 -7 -25 18 -9 17 -19 31 -21 31 -3 0 -4 -21 -4 -47z"/> <path d="M1598 989 c-5 -16 3 -79 11 -79 3 0 6 20 6 45 0 42 -9 59 -17 34z"/> <path d="M337 743 c-3 -5 -4 -19 -3 -33 1 -18 7 -25 21 -25 19 0 22 16 10 53 -5 13 -21 16 -28 5z m23 -23 c0 -11 -4 -20 -9 -20 -7 0 -8 17 -2 38 4 10 11 -2 11 -18z"/> <path d="M2515 535 c0 -42 2 -45 26 -45 29 0 57 24 40 34 -6 4 -7 14 -4 22 7 18 -13 34 -42 34 -17 0 -20 -7 -20 -45z m45 14 c0 -5 -7 -9 -15 -9 -9 0 -12 6 -9 15 6 15 24 11 24 -6z m2 -34 c0 -5 -5 -11 -11 -13 -6 -2 -11 4 -11 13 0 9 5 15 11 13 6 -2 11 -8 11 -13z"/> <path d="M2220 540 c0 -5 5 -10 10 -10 6 0 10 5 10 10 0 6 -4 10 -10 10 -5 0 -10 -4 -10 -10z"/> <path d="M1176 447 c3 -10 9 -15 12 -12 3 3 0 11 -7 18 -10 9 -11 8 -5 -6z"/> <path d="M1372 258 c2 -35 7 -43 23 -43 14 0 21 8 23 28 2 19 -1 27 -12 27 -9 0 -16 7 -16 15 0 8 -5 15 -11 15 -6 0 -9 -17 -7 -42z m38 -18 c0 -11 -4 -20 -10 -20 -5 0 -10 9 -10 20 0 11 5 20 10 20 6 0 10 -9 10 -20z"/> <path d="M892 200 c18 -22 39 -40 46 -40 7 0 -1 18 -20 40 -18 22 -39 40 -46 40 -7 0 1 -18 20 -40z"/> <path d="M928 215 c2 -14 8 -25 13 -25 5 0 9 11 9 25 0 14 -6 25 -14 25 -9 0 -12 -8 -8 -25z"/> <path d="M870 181 c0 -20 5 -31 14 -31 9 0 12 8 8 25 -7 37 -22 41 -22 6z"/> <path d="M160 174 c-17 -20 -2 -67 23 -72 24 -5 47 16 47 42 0 42 -45 61 -70 30z m55 -15 c8 -24 -16 -55 -34 -45 -12 8 -15 49 -4 59 13 14 32 7 38 -14z"/> </g> </svg>