<?xml version="1.0" standalone="no"?> <!DOCTYPE svg PUBLIC "-//W3C//DTD SVG 20010904//EN" "http://www.w3.org/TR/2001/REC-SVG-20010904/DTD/svg10.dtd"> <svg version="1.0" xmlns="http://www.w3.org/2000/svg" width="298.000000pt" height="164.000000pt" viewBox="0 0 298.000000 164.000000" preserveAspectRatio="xMidYMid meet"> <g transform="translate(0.000000,164.000000) scale(0.100000,-0.100000)" fill="#ffffff" stroke="none"> <path d="M1365 1460 c-3 -5 2 -21 11 -35 19 -29 9 -49 -11 -22 -8 12 -15 14 -20 8 -10 -17 4 -31 30 -31 29 0 38 22 18 49 -8 12 -12 25 -8 29 4 4 10 1 12 -5 6 -18 23 -16 23 2 0 17 -45 21 -55 5z"/> <path d="M820 1440 c0 -5 5 -10 10 -10 6 0 10 5 10 10 0 6 -4 10 -10 10 -5 0 -10 -4 -10 -10z"/> <path d="M303 1342 c3 -4 -3 -24 -13 -45 -18 -36 -18 -37 1 -37 11 0 18 4 15 9 -8 12 14 71 26 71 5 0 6 -10 3 -22 -6 -18 -5 -20 5 -11 18 16 5 43 -20 43 -12 0 -19 -3 -17 -8z"/> <path d="M1372 1339 c25 -59 239 -553 292 -672 36 -81 66 -150 66 -152 0 -2 20 -48 45 -101 25 -54 44 -100 43 -104 -2 -4 -147 85 -323 197 -176 112 -383 243 -460 292 -77 48 -265 167 -417 264 -152 98 -282 177 -288 177 -6 0 -9 -8 -6 -17 3 -10 17 -103 31 -207 23 -161 25 -195 15 -227 -15 -44 -8 -77 8 -39 6 14 11 23 12 20 1 -3 17 -107 34 -233 18 -125 35 -229 37 -231 4 -4 567 -25 716 -27 58 0 64 -2 41 -11 -30 -10 -38 -28 -14 -28 8 0 31 9 50 21 30 18 46 20 123 15 75 -5 453 -10 475 -7 7 1 -8 39 -121 296 -34 77 -112 255 -172 395 -154 357 -167 384 -180 389 -7 2 -10 -2 -7 -10z m-972 -160 c14 -9 133 -85 265 -169 132 -84 244 -156 249 -160 5 -5 -45 -70 -111 -147 -65 -76 -163 -190 -218 -253 -54 -63 -101 -116 -104 -118 -5 -2 -36 196 -67 423 l-5 40 16 -29 c12 -19 20 -25 27 -18 7 7 1 22 -20 49 -29 35 -33 51 -57 217 -14 98 -25 183 -25 188 0 10 8 6 50 -23z m578 -368 c39 -27 728 -462 785 -495 26 -15 47 -29 47 -31 0 -1 -46 -1 -102 1 -57 2 -178 5 -271 8 -148 4 -170 7 -196 25 -16 12 -34 21 -40 21 -16 0 -13 -20 4 -26 39 -15 3 -18 -137 -12 -84 3 -244 8 -356 11 -111 3 -201 9 -200 13 2 13 422 502 431 503 4 1 20 -8 35 -18z"/> <path d="M550 1046 c0 -2 7 -7 16 -10 8 -3 12 -2 9 4 -6 10 -25 14 -25 6z"/> <path d="M694 468 l-19 -23 23 19 c21 18 27 26 19 26 -2 0 -12 -10 -23 -22z"/> <path d="M366 1278 c3 -5 10 -6 15 -3 13 9 11 12 -6 12 -8 0 -12 -4 -9 -9z"/> <path d="M2329 1201 c10 -6 12 -21 8 -51 -4 -29 -2 -40 6 -37 7 2 11 18 9 38 l-4 34 23 -30 c12 -16 24 -32 26 -34 2 -2 6 -2 9 2 10 10 -56 87 -74 87 -14 0 -14 -2 -3 -9z"/> <path d="M2395 1190 c2 -30 12 -34 17 -5 3 15 1 25 -7 25 -6 0 -11 -9 -10 -20z"/> <path d="M2436 1194 c-21 -21 -20 -47 2 -67 25 -23 39 -21 58 8 15 23 15 27 0 50 -19 29 -38 32 -60 9z m54 -33 c-1 -17 -20 -33 -34 -28 -19 8 -21 38 -4 55 10 10 15 9 25 -5 7 -9 13 -19 13 -22z"/> <path d="M2510 1194 c0 -7 6 -11 13 -9 8 4 12 -6 12 -30 0 -19 5 -35 10 -35 6 0 10 15 10 33 1 25 5 31 18 29 9 -2 17 2 17 8 0 5 -3 10 -7 11 -5 0 -23 2 -40 3 -23 3 -33 -1 -33 -10z"/> <path d="M2604 1189 c-4 -7 0 -9 13 -5 16 5 18 1 15 -34 -3 -29 0 -40 9 -40 9 0 14 12 14 32 0 39 19 50 23 14 2 -13 12 -32 23 -42 18 -17 20 -16 44 6 50 47 24 77 -69 78 -37 1 -68 -3 -72 -9z m134 -28 c5 -29 -13 -50 -29 -34 -15 15 -3 66 14 60 7 -2 14 -14 15 -26z"/> <path d="M580 1156 c0 -3 9 -10 20 -16 11 -6 20 -8 20 -6 0 3 -9 10 -20 16 -11 6 -20 8 -20 6z"/> <path d="M2339 1054 c-11 -14 -10 -19 9 -34 23 -19 29 -40 12 -40 -5 0 -14 8 -19 18 -9 15 -10 15 -11 -5 0 -18 6 -23 24 -23 31 0 40 14 27 38 -7 13 -6 23 2 31 9 9 8 14 -3 21 -21 13 -26 12 -41 -6z m27 -21 c-10 -10 -19 5 -10 18 6 11 8 11 12 0 2 -7 1 -15 -2 -18z"/> <path d="M2407 1053 c-4 -3 -7 -21 -7 -39 0 -39 31 -64 56 -43 8 6 14 16 14 21 0 6 -7 5 -15 -2 -12 -10 -18 -10 -30 0 -19 16 -19 34 1 51 14 11 18 11 29 -4 14 -19 32 -6 20 13 -7 11 -58 14 -68 3z"/> <path d="M2507 1043 c-4 -10 -13 -33 -21 -50 -11 -23 -11 -32 -3 -30 7 1 17 16 24 32 l11 30 7 -32 c4 -19 14 -33 22 -33 8 0 12 6 9 13 -2 6 -10 29 -17 50 -13 40 -23 47 -32 20z"/> <path d="M2568 1011 l4 -49 69 0 c50 -1 69 3 69 12 0 9 -9 12 -26 8 -20 -4 -25 -1 -22 9 3 8 12 13 22 11 9 -2 16 2 16 8 0 5 -9 10 -20 10 -13 0 -18 5 -14 15 5 12 9 13 20 4 8 -7 17 -9 21 -5 11 10 -4 18 -43 23 -29 3 -35 1 -27 -9 6 -7 11 -25 11 -39 0 -22 -5 -26 -30 -27 -30 -1 -30 0 -25 39 4 32 2 39 -11 39 -14 0 -16 -9 -14 -49z"/> <path d="M969 969 c-16 -16 -20 -29 -15 -50 3 -17 1 -29 -5 -29 -6 0 -7 -4 -4 -10 9 -14 72 -13 81 2 5 8 0 9 -14 6 -12 -4 -24 -3 -27 2 -3 4 4 10 15 13 11 3 25 17 32 32 11 24 10 29 -7 41 -25 19 -31 18 -56 -7z m46 -9 c9 -14 -13 -50 -30 -50 -18 0 -20 31 -3 48 15 15 25 15 33 2z"/> <path d="M203 713 c-28 -38 -28 -43 -2 -43 11 0 17 -4 14 -10 -3 -5 -2 -10 3 -10 14 0 19 21 12 60 l-5 35 -22 -32z m13 -30 c-10 -10 -19 5 -10 18 6 11 8 11 12 0 2 -7 1 -15 -2 -18z"/> <path d="M251 693 c0 -10 3 -13 6 -5 8 20 23 14 23 -9 0 -15 -5 -19 -15 -15 -9 3 -15 0 -15 -8 0 -9 8 -12 24 -9 34 7 32 56 -2 61 -16 3 -22 -2 -21 -15z"/> <path d="M1801 497 c-8 -10 -7 -14 2 -14 8 0 14 6 14 14 0 7 -1 13 -2 13 -2 0 -8 -6 -14 -13z"/> <path d="M1876 333 c-6 -14 -5 -15 5 -6 7 7 10 15 7 18 -3 3 -9 -2 -12 -12z"/> <path d="M424 257 c-25 -14 -34 -27 -34 -53 0 -29 27 -38 56 -19 16 10 24 25 24 44 0 33 -17 44 -46 28z m25 -45 c-17 -30 -42 -36 -47 -10 -5 24 37 63 51 49 9 -9 8 -19 -4 -39z"/> <path d="M1865 210 c4 -6 0 -24 -9 -40 -11 -22 -11 -30 -2 -30 6 0 16 14 21 32 6 17 17 34 25 36 12 4 12 2 -1 -14 -18 -20 -10 -64 11 -64 7 0 7 7 -1 21 -8 15 -8 24 0 32 21 21 12 37 -20 37 -18 0 -28 -4 -24 -10z"/> <path d="M1174 179 c-5 -9 -2 -10 9 -6 9 3 18 0 21 -9 3 -9 -1 -14 -12 -15 -16 0 -16 -1 0 -7 19 -8 12 -25 -12 -35 -10 -4 -8 -6 7 -6 27 -1 42 25 33 59 -6 27 -34 38 -46 19z"/> <path d="M1237 179 c6 -6 8 -23 3 -45 -7 -31 -6 -34 15 -34 12 0 28 7 35 15 15 18 6 45 -15 45 -8 0 -15 7 -15 15 0 8 -8 15 -17 15 -12 0 -14 -3 -6 -11z m43 -49 c0 -11 -4 -20 -10 -20 -5 0 -10 9 -10 20 0 11 5 20 10 20 6 0 10 -9 10 -20z"/> <path d="M1314 158 c-4 -7 -3 -8 5 -4 6 4 20 2 29 -6 15 -12 16 -11 3 5 -16 20 -27 22 -37 5z"/> <path d="M1123 95 c0 -8 4 -12 9 -9 5 3 6 10 3 15 -9 13 -12 11 -12 -6z"/> </g> </svg>