<?xml version="1.0" standalone="no"?> <!DOCTYPE svg PUBLIC "-//W3C//DTD SVG 20010904//EN" "http://www.w3.org/TR/2001/REC-SVG-20010904/DTD/svg10.dtd"> <svg version="1.0" xmlns="http://www.w3.org/2000/svg" width="398.000000pt" height="145.000000pt" viewBox="0 0 398.000000 145.000000" preserveAspectRatio="xMidYMid meet"> <g transform="translate(0.000000,145.000000) scale(0.100000,-0.100000)" fill="#ffffff" stroke="none"> <path d="M3580 1314 c0 -8 5 -12 10 -9 6 4 8 11 5 16 -9 14 -15 11 -15 -7z"/> <path d="M2785 1286 c-14 -10 -20 -27 -21 -61 l-2 -46 36 3 c19 2 37 8 39 14 2 7 -7 10 -24 7 -24 -3 -25 -2 -8 6 31 13 47 37 43 63 -4 28 -35 35 -63 14z m45 -25 c0 -21 -19 -41 -38 -41 -10 0 -12 7 -7 27 11 44 45 54 45 14z"/> <path d="M3321 1274 c0 -11 3 -14 6 -6 3 7 2 16 -1 19 -3 4 -6 -2 -5 -13z"/> <path d="M3425 1280 c3 -5 8 -10 11 -10 2 0 4 5 4 10 0 6 -5 10 -11 10 -5 0 -7 -4 -4 -10z"/> <path d="M3830 1280 c0 -5 5 -10 11 -10 5 0 7 5 4 10 -3 6 -8 10 -11 10 -2 0 -4 -4 -4 -10z"/> <path d="M817 1236 c-20 -24 -33 -46 -30 -50 11 -11 21 -6 26 14 3 11 10 20 17 20 7 0 9 -8 5 -20 -4 -14 -2 -20 9 -20 11 0 15 7 12 23 -2 12 0 34 5 50 11 39 -3 34 -44 -17z"/> <path d="M3291 1244 c0 -11 3 -14 6 -6 3 7 2 16 -1 19 -3 4 -6 -2 -5 -13z"/> <path d="M3515 1250 c-4 -6 -9 -8 -13 -6 -9 5 -8 -81 1 -90 4 -4 7 13 7 37 0 25 5 50 12 57 7 7 9 12 6 12 -4 0 -10 -5 -13 -10z"/> <path d="M3434 1234 c3 -9 6 -31 6 -50 0 -19 4 -34 10 -34 5 0 7 14 3 33 l-6 32 21 -19 c28 -24 28 -7 1 28 -22 29 -45 35 -35 10z"/> <path d="M3540 1230 c-23 -23 -24 -33 -10 -61 16 -29 58 -25 70 7 19 49 -25 89 -60 54z m48 -24 c5 -22 -16 -46 -34 -39 -8 3 -14 16 -14 28 0 36 42 45 48 11z"/> <path d="M2730 1230 c0 -5 5 -10 11 -10 5 0 7 5 4 10 -3 6 -8 10 -11 10 -2 0 -4 -4 -4 -10z"/> <path d="M3347 1234 c-11 -11 -8 -26 3 -19 6 3 10 1 10 -6 0 -7 3 -10 6 -6 3 3 2 13 -3 22 -5 8 -12 12 -16 9z"/> <path d="M3610 1229 c0 -6 7 -8 16 -5 14 5 16 1 11 -34 -4 -29 -2 -40 8 -40 10 0 12 11 8 42 -5 36 -4 40 10 35 10 -4 17 -2 17 3 0 6 -16 10 -35 10 -19 0 -35 -5 -35 -11z"/> <path d="M3710 1224 c0 -14 3 -14 15 -4 13 11 15 7 15 -28 0 -23 5 -42 13 -45 9 -3 11 6 9 34 -3 31 -1 39 12 39 9 0 16 5 16 10 0 6 -18 10 -40 10 -30 0 -40 -4 -40 -16z"/> <path d="M3802 1228 c-29 -29 5 -96 42 -82 20 8 32 52 19 73 -13 20 -45 25 -61 9z m48 -32 c0 -32 -20 -44 -36 -22 -16 23 -7 46 17 46 13 0 19 -7 19 -24z"/> <path d="M2275 1184 c-242 -18 -651 -46 -910 -63 -258 -18 -482 -34 -496 -37 -18 -3 -43 -29 -85 -86 -147 -203 -176 -240 -204 -256 -18 -11 -26 -22 -21 -28 6 -5 -51 -90 -139 -209 -81 -110 -147 -201 -146 -202 3 -4 401 -12 628 -12 225 -1 257 -3 252 -16 -7 -19 -3 -19 30 -1 22 11 105 13 475 8 l448 -5 129 196 c100 152 133 194 147 190 13 -3 17 2 17 24 0 21 46 98 161 270 89 133 160 245 158 250 -2 4 -202 -6 -444 -23z m275 -216 c-103 -155 -160 -231 -186 -248 -27 -19 -32 -26 -20 -28 10 -2 16 -7 14 -11 -2 -4 -58 -90 -126 -193 -82 -124 -130 -188 -145 -192 -12 -3 -213 -3 -447 0 -329 5 -431 10 -452 20 -34 18 -39 17 -32 -1 5 -12 -50 -13 -423 -8 -235 3 -430 7 -432 9 -2 2 60 89 139 194 115 153 145 188 156 179 11 -9 14 -6 14 18 0 22 29 68 116 184 63 85 119 158 124 163 6 6 24 -1 47 -16 21 -14 101 -65 178 -113 156 -98 154 -96 140 -101 -5 -2 -154 -83 -330 -180 -176 -96 -378 -207 -448 -246 -71 -38 -126 -72 -124 -74 4 -5 49 19 426 223 97 53 235 127 306 165 72 39 145 79 162 90 l33 20 102 -65 c57 -35 178 -112 270 -170 382 -242 459 -289 464 -285 2 3 -80 58 -183 123 -104 66 -359 227 -568 360 -209 132 -395 250 -412 261 l-33 20 338 23 c185 12 353 24 372 26 19 2 85 7 145 10 61 3 130 8 155 10 25 3 185 14 355 25 171 12 339 24 375 29 36 4 68 6 71 4 4 -2 -60 -103 -141 -225z"/> <path d="M1320 977 c0 -12 -7 -33 -16 -45 -14 -21 -14 -22 5 -22 14 0 21 6 21 19 0 27 10 51 22 51 6 0 5 -6 -2 -15 -10 -12 -10 -15 3 -15 8 0 17 6 19 13 9 22 -3 37 -28 37 -18 0 -24 -5 -24 -23z"/> <path d="M1783 557 c0 -8 6 -14 14 -14 9 0 10 4 2 14 -6 7 -12 13 -14 13 -1 0 -2 -6 -2 -13z"/> <path d="M1265 550 c-3 -5 1 -10 9 -10 9 0 16 5 16 10 0 6 -4 10 -9 10 -6 0 -13 -4 -16 -10z"/> <path d="M1545 480 c-3 -5 -1 -10 4 -10 6 0 11 5 11 10 0 6 -2 10 -4 10 -3 0 -8 -4 -11 -10z"/> <path d="M1890 486 c0 -2 8 -10 18 -17 15 -13 16 -12 3 4 -13 16 -21 21 -21 13z"/> <path d="M2043 375 c0 -8 4 -12 9 -9 5 3 6 10 3 15 -9 13 -12 11 -12 -6z"/> <path d="M3250 1210 c0 -5 5 -10 10 -10 6 0 10 5 10 10 0 6 -4 10 -10 10 -5 0 -10 -4 -10 -10z"/> <path d="M3910 1199 c0 -5 5 -7 10 -4 6 3 10 8 10 11 0 2 -4 4 -10 4 -5 0 -10 -5 -10 -11z"/> <path d="M3453 1083 c-20 -7 -15 -40 7 -56 11 -8 17 -17 13 -20 -3 -4 -12 -2 -20 4 -10 9 -13 8 -13 -4 0 -17 18 -27 38 -19 18 7 14 40 -7 54 -10 6 -17 18 -14 25 4 11 8 10 19 -4 12 -16 13 -16 14 -2 0 18 -18 29 -37 22z"/> <path d="M3512 1068 c-28 -28 1 -97 35 -84 8 3 17 6 19 6 2 0 4 6 4 14 0 9 -8 12 -25 8 -21 -4 -25 -1 -25 21 0 30 26 43 39 19 9 -15 10 -14 11 6 0 16 -6 22 -23 22 -13 0 -28 -5 -35 -12z"/> <path d="M3602 1040 c-11 -25 -17 -47 -14 -50 2 -3 7 1 9 8 7 18 34 15 49 -5 20 -27 17 3 -6 52 l-18 40 -20 -45z m28 -10 c0 -5 -2 -10 -4 -10 -3 0 -8 5 -11 10 -3 6 -1 10 4 10 6 0 11 -4 11 -10z"/> <path d="M3675 1032 c0 -48 1 -49 30 -48 21 1 31 7 33 21 3 16 1 18 -9 8 -27 -27 -42 -15 -36 27 3 27 1 40 -7 40 -7 0 -11 -18 -11 -48z"/> <path d="M3752 1033 c2 -37 7 -49 21 -51 28 -5 50 17 35 35 -9 11 -9 19 0 33 14 23 6 30 -30 30 -28 0 -29 -1 -26 -47z m37 10 c-11 -13 -11 -17 -1 -20 17 -6 15 -23 -3 -23 -10 0 -15 10 -15 30 0 21 5 30 16 30 14 0 15 -2 3 -17z"/> <path d="M3840 955 c0 -8 2 -15 4 -15 2 0 6 7 10 15 3 8 1 15 -4 15 -6 0 -10 -7 -10 -15z"/> <path d="M411 821 c-19 -12 -24 -61 -6 -61 9 0 12 8 9 27 -3 15 -2 25 1 21 4 -3 8 -14 9 -24 2 -10 8 -20 15 -22 8 -3 10 4 5 25 -9 36 -16 44 -33 34z"/> <path d="M2840 640 c0 -5 5 -10 10 -10 6 0 10 5 10 10 0 6 -4 10 -10 10 -5 0 -10 -4 -10 -10z"/> <path d="M3145 390 c-3 -5 -1 -10 4 -10 6 0 11 5 11 10 0 6 -2 10 -4 10 -3 0 -8 -4 -11 -10z"/> <path d="M2215 341 c-3 -5 -2 -12 3 -15 5 -3 9 1 9 9 0 17 -3 19 -12 6z"/> <path d="M132 314 c-28 -19 -27 -67 1 -72 41 -8 79 67 41 82 -20 8 -16 9 -42 -10z m43 -3 c9 -16 -17 -61 -37 -61 -22 0 -23 18 -2 48 16 23 29 28 39 13z"/> <path d="M219 263 c-13 -16 -12 -17 4 -4 16 13 21 21 13 21 -2 0 -10 -8 -17 -17z"/> <path d="M2223 274 c7 -8 -13 -67 -27 -76 -6 -4 3 -8 20 -8 33 0 60 22 50 39 -4 5 -2 13 4 16 16 10 -8 35 -33 35 -11 0 -18 -3 -14 -6z m35 -16 c-2 -6 -10 -14 -16 -16 -7 -2 -10 2 -6 12 7 18 28 22 22 4z m-8 -37 c0 -12 -20 -25 -27 -18 -7 7 6 27 18 27 5 0 9 -4 9 -9z"/> <path d="M1105 130 c0 -39 1 -41 30 -38 38 4 50 46 16 55 -11 3 -18 9 -15 14 3 5 -3 9 -13 9 -14 0 -18 -8 -18 -40z m45 -10 c0 -11 -4 -20 -10 -20 -5 0 -10 9 -10 20 0 11 5 20 10 20 6 0 10 -9 10 -20z"/> </g> </svg>