<?xml version="1.0" standalone="no"?>
<!DOCTYPE svg PUBLIC "-//W3C//DTD SVG 20010904//EN"
 "http://www.w3.org/TR/2001/REC-SVG-20010904/DTD/svg10.dtd">
<svg version="1.0" xmlns="http://www.w3.org/2000/svg"
 width="297.000000pt" height="180.000000pt" viewBox="0 0 297.000000 180.000000"
 preserveAspectRatio="xMidYMid meet">
<g transform="translate(0.000000,180.000000) scale(0.100000,-0.100000)"
fill="#ffffff" stroke="none">
<path d="M1910 1790 c0 -5 5 -10 10 -10 6 0 10 5 10 10 0 6 -4 10 -10 10 -5 0
-10 -4 -10 -10z"/>
<path d="M2737 1684 c-3 -3 -2 -16 3 -29 5 -13 6 -33 3 -45 -4 -17 -2 -21 8
-18 8 2 15 14 17 26 2 11 10 26 18 32 15 14 19 40 5 40 -5 0 -12 -10 -16 -22
l-8 -23 -4 23 c-4 22 -14 28 -26 16z"/>
<path d="M2440 1449 c-140 -44 -313 -98 -385 -121 -71 -23 -133 -43 -137 -44
-5 -1 -9 -2 -10 -3 -2 -2 -14 -4 -27 -7 -14 -2 -29 -8 -35 -13 -9 -7 -60 -24
-111 -36 -5 -1 -17 -5 -25 -8 -40 -18 -119 -37 -149 -37 -19 0 -39 -6 -45 -14
-9 -11 -241 -87 -695 -226 l-103 -32 -79 -123 c-44 -67 -90 -128 -104 -135
-16 -8 -22 -17 -16 -24 5 -7 -40 -85 -121 -209 -71 -109 -127 -202 -123 -205
4 -4 183 -8 398 -8 282 -1 391 -5 389 -13 -3 -14 4 -14 27 -1 11 5 212 10 489
12 334 2 474 6 482 14 8 8 9 25 3 55 l-9 44 -18 -35 c-10 -19 -20 -36 -21 -38
-1 -1 -121 60 -266 136 -145 76 -426 223 -624 327 -198 103 -363 191 -367 194
-4 4 79 33 185 65 106 33 281 87 390 121 156 49 197 59 197 47 0 -12 6 -10 24
7 16 15 162 65 492 167 258 79 504 156 548 170 43 14 80 23 83 21 2 -3 -134
-280 -302 -617 -168 -337 -304 -614 -301 -617 3 -3 41 66 84 153 44 88 88 175
100 196 11 20 18 39 15 42 -4 3 -1 6 6 6 7 0 9 5 6 10 -3 6 -1 10 5 10 6 0 9
4 6 9 -4 5 -2 11 3 13 9 3 411 802 411 818 0 5 -3 10 -7 9 -5 0 -123 -36 -263
-80z m-1562 -629 c78 -41 141 -78 139 -82 -2 -7 -66 -51 -510 -357 -115 -79
-206 -145 -204 -148 5 -4 30 11 143 90 33 23 81 55 105 72 24 16 144 98 266
182 122 84 225 153 227 153 6 0 489 -253 779 -407 98 -52 185 -92 193 -89 8 3
19 16 24 28 8 21 9 20 9 -9 l1 -32 -472 2 c-260 1 -484 6 -497 11 -18 7 -22 6
-17 -2 5 -8 -1 -12 -16 -12 -19 0 -24 5 -23 27 0 30 -29 44 -49 23 -8 -10 -6
-12 12 -7 18 4 22 1 22 -19 0 -13 -5 -24 -11 -24 -6 0 -8 7 -5 16 4 10 2 14
-6 11 -7 -2 -12 -10 -10 -16 1 -8 -93 -11 -344 -11 -190 0 -344 4 -342 8 15
40 246 380 255 377 7 -2 15 10 19 28 3 18 40 81 80 141 41 59 74 113 74 118 0
12 -12 17 158 -72z"/>
<path d="M810 811 c0 -6 4 -13 10 -16 6 -3 7 1 4 9 -7 18 -14 21 -14 7z"/>
<path d="M700 801 c0 -6 4 -13 10 -16 6 -3 7 1 4 9 -7 18 -14 21 -14 7z"/>
<path d="M850 670 c-9 -6 -10 -10 -3 -10 6 0 15 5 18 10 8 12 4 12 -15 0z"/>
<path d="M443 395 c0 -7 6 -11 14 -8 7 3 13 6 13 8 0 2 -6 5 -13 8 -8 3 -14
-1 -14 -8z"/>
<path d="M1496 1463 c-3 -16 -8 -39 -12 -53 -5 -24 -5 -24 10 -6 15 19 16 19
16 1 0 -27 6 -15 14 25 4 26 3 31 -5 20 -8 -12 -9 -9 -5 13 4 15 2 27 -3 27
-4 0 -11 -12 -15 -27z"/>
<path d="M1570 1428 c0 -21 5 -38 10 -38 13 0 13 40 0 60 -7 11 -10 5 -10 -22z"/>
<path d="M1540 1439 c0 -5 5 -7 10 -4 6 3 10 8 10 11 0 2 -4 4 -10 4 -5 0 -10
-5 -10 -11z"/>
<path d="M1540 1411 c0 -6 5 -13 10 -16 6 -3 10 1 10 9 0 9 -4 16 -10 16 -5 0
-10 -4 -10 -9z"/>
<path d="M1999 1263 c-13 -16 -12 -17 4 -4 9 7 17 15 17 17 0 8 -8 3 -21 -13z"/>
<path d="M2486 1243 c-6 -14 -5 -15 5 -6 7 7 10 15 7 18 -3 3 -9 -2 -12 -12z"/>
<path d="M663 1075 c-10 -42 -9 -45 11 -45 30 0 48 14 41 32 -4 9 -1 19 5 23
15 9 -7 35 -30 35 -12 0 -20 -13 -27 -45z m38 12 c-13 -13 -26 -3 -16 12 3 6
11 8 17 5 6 -4 6 -10 -1 -17z m-1 -26 c0 -12 -20 -25 -27 -18 -7 7 6 27 18 27
5 0 9 -4 9 -9z"/>
<path d="M1059 943 c7 -14 4 -24 -11 -40 -14 -15 -17 -23 -8 -23 7 0 19 8 27
18 14 16 14 16 9 0 -3 -12 0 -18 10 -18 10 0 13 7 8 24 -3 15 1 29 11 40 14
13 14 16 2 16 -9 0 -18 -6 -20 -12 -4 -10 -6 -10 -6 0 -1 6 -8 12 -16 12 -12
0 -14 -4 -6 -17z"/>
<path d="M265 831 c-3 -5 -2 -12 3 -15 5 -3 9 1 9 9 0 17 -3 19 -12 6z"/>
<path d="M976 818 c3 -4 12 -4 21 -1 12 5 14 3 8 -7 -5 -9 -4 -11 4 -6 16 10
4 25 -19 23 -10 -1 -17 -5 -14 -9z"/>
<path d="M330 816 c0 -2 8 -10 18 -17 15 -13 16 -12 3 4 -13 16 -21 21 -21 13z"/>
<path d="M310 729 c0 -36 2 -40 23 -37 27 4 39 58 13 58 -9 0 -16 5 -16 10 0
6 -4 10 -10 10 -5 0 -10 -18 -10 -41z m32 -21 c-9 -9 -12 -7 -12 12 0 19 3 21
12 12 9 -9 9 -15 0 -24z"/>
<path d="M446 587 c3 -10 9 -15 12 -12 3 3 0 11 -7 18 -10 9 -11 8 -5 -6z"/>
<path d="M339 423 c-13 -16 -12 -17 4 -4 9 7 17 15 17 17 0 8 -8 3 -21 -13z"/>
<path d="M200 329 c-17 -30 -9 -64 15 -64 23 0 48 45 39 69 -9 23 -41 20 -54
-5z m40 -13 c0 -30 -27 -55 -36 -33 -6 17 12 57 26 57 6 0 10 -11 10 -24z"/>
</g>
</svg>
