<?xml version="1.0" standalone="no"?>
<!DOCTYPE svg PUBLIC "-//W3C//DTD SVG 20010904//EN"
 "http://www.w3.org/TR/2001/REC-SVG-20010904/DTD/svg10.dtd">
<svg version="1.0" xmlns="http://www.w3.org/2000/svg"
 width="429.000000pt" height="244.000000pt" viewBox="0 0 429.000000 244.000000"
 preserveAspectRatio="xMidYMid meet">
<g transform="translate(0.000000,244.000000) scale(0.100000,-0.100000)"
fill="#ffffff" stroke="none">
<path d="M1619 2259 c-7 -13 -21 -40 -32 -59 -11 -19 -35 -64 -55 -100 -19
-36 -46 -85 -60 -110 -14 -25 -51 -95 -83 -157 -32 -61 -82 -154 -110 -205
-29 -51 -70 -127 -92 -168 -21 -41 -54 -100 -73 -131 -19 -31 -34 -59 -34 -62
0 -2 -21 -42 -46 -88 -80 -144 -89 -160 -174 -319 -45 -85 -86 -159 -90 -163
-9 -10 -177 -17 -417 -17 -168 0 -193 -2 -193 -16 0 -13 12 -14 83 -10 45 3
192 8 327 11 204 5 242 4 228 -7 -14 -10 -48 -85 -48 -104 0 -14 29 0 33 16 3
12 14 20 27 20 12 0 28 6 36 14 16 17 19 46 4 46 -5 0 -10 5 -10 10 0 6 77 10
210 10 124 0 210 4 210 9 0 18 -85 22 -270 13 -102 -5 -187 -8 -189 -5 -3 2
13 36 34 76 22 40 55 102 75 139 19 36 45 84 56 105 89 159 174 320 174 329 0
6 8 18 17 25 15 13 16 11 9 -11 -50 -177 -20 -451 66 -595 10 -16 22 -41 28
-54 6 -13 20 -32 30 -41 20 -17 20 -18 1 -31 -12 -9 -21 -32 -25 -60 -7 -46
-6 -47 22 -51 38 -5 52 0 45 18 -3 9 -12 12 -26 8 -18 -6 -19 -3 -12 32 3 21
12 46 19 56 11 15 15 15 32 4 21 -15 89 -52 214 -118 84 -45 158 -85 295 -160
39 -21 99 -53 135 -71 57 -28 62 -32 38 -35 -55 -6 -231 38 -325 83 -130 61
-189 103 -293 207 -114 116 -123 94 -10 -27 110 -117 279 -214 455 -261 121
-32 311 -36 445 -9 253 51 499 223 616 430 87 155 104 200 128 340 20 111 20
155 1 268 -31 192 -113 355 -249 495 -157 163 -334 252 -571 287 -109 17 -152
16 -290 -5 -182 -27 -350 -109 -485 -236 -38 -37 -70 -62 -70 -56 0 5 24 49
53 98 29 49 68 118 86 154 19 36 56 105 83 154 32 58 46 92 40 98 -7 7 -15 2
-23 -13z m608 -219 c80 -11 161 -31 223 -56 155 -63 332 -201 420 -329 40 -58
101 -182 124 -251 18 -56 46 -257 40 -295 -22 -153 -43 -232 -90 -334 l-25
-56 -37 22 c-59 35 -91 53 -182 102 -47 25 -105 56 -130 69 -175 96 -315 171
-440 236 -80 41 -162 86 -182 99 -21 12 -39 23 -41 23 -3 0 -122 63 -266 139
-144 77 -281 149 -306 161 -25 12 -45 26 -45 31 0 15 58 91 117 151 215 224
514 328 820 288z m-917 -477 c0 -5 10 -13 23 -19 20 -9 167 -87 292 -154 28
-15 104 -55 170 -90 66 -35 136 -73 155 -84 19 -12 52 -30 73 -40 20 -11 37
-22 37 -26 0 -3 -28 -21 -62 -39 -35 -18 -76 -41 -93 -52 -16 -10 -37 -22 -45
-26 -8 -4 -59 -33 -113 -65 -53 -32 -99 -58 -102 -58 -3 0 -33 -17 -67 -38
-35 -21 -94 -56 -133 -77 -38 -20 -88 -51 -110 -67 l-40 -29 -6 333 c-4 183
-7 376 -8 428 -3 118 -4 110 14 110 8 0 15 -3 15 -7z m-45 -831 c-6 -7 -65
159 -79 223 -24 111 -28 188 -16 298 13 112 24 150 76 272 5 12 11 -145 15
-385 4 -223 6 -406 4 -408z m911 363 c45 -24 147 -79 226 -121 79 -43 179 -97
223 -121 44 -24 122 -64 173 -90 50 -25 92 -52 92 -59 0 -7 -35 -31 -77 -55
-43 -23 -102 -55 -131 -71 -29 -16 -101 -57 -160 -92 -59 -34 -161 -93 -227
-131 -66 -37 -132 -76 -147 -86 -14 -11 -31 -19 -37 -19 -6 0 -57 26 -114 58
-56 32 -109 61 -117 65 -8 4 -42 22 -75 40 -33 18 -105 57 -160 86 -55 30
-104 57 -110 61 -5 4 -56 31 -111 59 -56 28 -104 57 -107 65 -4 9 12 22 46 40
29 14 75 39 102 54 28 16 72 42 99 57 28 15 72 41 98 56 27 16 51 29 53 29 2
0 44 24 92 53 48 29 120 71 158 92 39 21 81 46 94 56 13 11 26 19 29 19 3 0
42 -20 88 -45z m648 -512 c-135 -153 -301 -256 -491 -304 -79 -20 -173 -34
-173 -27 0 3 34 23 75 44 42 21 84 44 93 49 86 50 259 149 459 264 40 23 75
47 79 53 6 9 9 9 12 0 2 -7 -22 -42 -54 -79z m-1996 45 c-6 -18 -28 -21 -28
-4 0 9 7 16 16 16 9 0 14 -5 12 -12z"/>
<path d="M2101 1304 c-27 -35 -26 -60 3 -79 47 -31 106 22 91 82 -8 34 -66 32
-94 -3z m67 -20 c-4 -33 -32 -54 -50 -36 -16 16 9 62 34 62 15 0 19 -6 16 -26z"/>
<path d="M1760 700 c-223 -3 -407 -7 -410 -8 -3 -1 2 -7 10 -12 9 -7 94 -9
230 -6 118 3 440 6 715 7 401 1 506 4 530 15 33 15 -186 15 -1075 4z"/>
<path d="M3940 2038 c-29 -31 -26 -74 6 -95 24 -15 29 -15 53 -2 35 19 41 69
12 98 -27 27 -45 26 -71 -1z m64 -30 c13 -22 -14 -54 -38 -45 -16 6 -22 48 -9
61 11 11 35 3 47 -16z"/>
<path d="M3506 2043 c-10 -10 -7 -113 3 -113 6 0 11 17 13 38 l3 37 23 -38
c25 -40 42 -41 42 -1 0 13 5 24 10 24 6 0 10 -11 10 -25 0 -18 7 -26 25 -31
34 -9 54 1 65 32 16 42 -7 79 -50 79 -29 0 -36 -4 -38 -22 -4 -28 -22 -31 -22
-4 0 21 -13 35 -23 25 -3 -3 -2 -17 3 -30 7 -19 6 -24 -5 -24 -9 0 -20 11 -25
24 -10 27 -24 39 -34 29z m164 -28 c19 -23 8 -50 -20 -50 -16 0 -26 6 -28 18
-4 18 14 47 28 47 4 0 13 -7 20 -15z"/>
<path d="M3710 2040 c0 -6 7 -13 16 -17 11 -4 14 -16 12 -41 -2 -22 2 -37 10
-40 8 -2 12 9 12 36 0 32 4 42 20 47 11 4 18 11 15 16 -8 12 -85 12 -85 -1z"/>
<path d="M3830 2040 c0 -6 7 -13 15 -16 10 -4 15 -20 15 -45 0 -29 4 -39 16
-39 12 0 15 9 13 35 -2 19 2 40 9 47 21 21 13 28 -28 28 -22 0 -40 -5 -40 -10z"/>
<path d="M3510 1865 c-17 -20 -6 -43 25 -51 14 -3 24 -11 22 -18 -5 -12 -11
-12 -39 -1 -13 5 -18 2 -18 -9 0 -17 41 -32 65 -22 28 10 18 51 -17 69 l-33
18 33 -5 c33 -6 40 2 20 22 -16 16 -43 15 -58 -3z"/>
<path d="M3612 1867 c-17 -20 -18 -73 -3 -91 16 -19 52 -21 70 -3 11 10 15 9
19 -2 3 -10 9 -8 23 10 l18 24 25 -24 c31 -29 32 -22 7 44 -20 51 -43 65 -50
30 -2 -11 -7 -31 -12 -44 -7 -18 -12 -21 -23 -12 -10 8 -16 9 -21 1 -3 -5 -15
-10 -26 -10 -14 0 -19 7 -19 29 0 35 18 44 42 23 16 -13 18 -13 24 3 12 31
-51 50 -74 22z"/>
<path d="M3794 1849 c3 -17 6 -44 6 -60 0 -25 4 -29 28 -29 15 0 33 5 40 12 9
9 12 9 12 0 0 -7 16 -12 40 -12 29 0 40 4 40 15 0 10 -11 15 -35 15 -19 0 -35
5 -35 10 0 6 14 10 30 10 21 0 30 5 30 16 0 12 -6 15 -24 10 -14 -3 -28 -2
-31 4 -4 6 6 10 23 10 17 0 32 6 36 15 4 12 -3 15 -34 15 -42 0 -43 -2 -40
-57 1 -31 -1 -33 -29 -33 -30 0 -31 1 -31 45 0 35 -4 45 -16 45 -13 0 -15 -7
-10 -31z"/>
<path d="M1177 1706 c-10 -8 -22 -28 -27 -45 -7 -26 -5 -36 9 -50 39 -39 101
0 101 64 0 42 -46 59 -83 31z m53 -41 c0 -29 -36 -53 -53 -36 -16 16 8 61 33
61 15 0 20 -7 20 -25z"/>
<path d="M3057 754 c-4 -4 -7 -18 -7 -30 0 -35 -16 -37 -30 -3 -7 16 -17 28
-23 26 -13 -4 -38 -88 -32 -105 7 -20 25 -4 25 23 0 36 17 39 29 5 16 -47 37
-37 49 23 10 48 5 76 -11 61z"/>
<path d="M2125 178 c-14 -42 -22 -87 -17 -92 12 -12 22 -5 23 17 l0 22 9 -22
c12 -30 22 -29 43 5 l17 27 -6 -28 c-5 -22 -3 -26 10 -21 9 3 16 14 16 24 0
10 3 32 6 49 9 43 -17 42 -37 -1 -20 -45 -36 -46 -31 -3 3 27 1 35 -12 35 -9
0 -18 -6 -21 -12z"/>
</g>
</svg>
