<?xml version="1.0" standalone="no"?>
<!DOCTYPE svg PUBLIC "-//W3C//DTD SVG 20010904//EN"
 "http://www.w3.org/TR/2001/REC-SVG-20010904/DTD/svg10.dtd">
<svg version="1.0" xmlns="http://www.w3.org/2000/svg"
 width="447.000000pt" height="351.000000pt" viewBox="0 0 447.000000 351.000000"
 preserveAspectRatio="xMidYMid meet">
<g transform="translate(0.000000,351.000000) scale(0.100000,-0.100000)"
fill="#ffffff" stroke="none">
<path d="M3757 3434 c-3 -4 1 -13 9 -22 15 -14 15 -67 0 -91 -5 -7 1 -11 15
-11 19 0 21 4 16 35 -3 19 -2 35 3 35 5 0 18 -16 30 -35 12 -19 25 -35 30 -35
4 0 6 22 5 50 -2 27 0 52 6 55 16 10 10 25 -10 25 -17 0 -18 -5 -14 -42 l6
-43 -38 43 c-37 42 -46 47 -58 36z"/>
<path d="M3907 3422 c-20 -22 -22 -83 -5 -100 20 -20 65 -14 82 10 22 31 20
53 -8 82 -28 31 -47 33 -69 8z m59 -26 c9 -38 1 -61 -23 -64 -25 -4 -38 26
-29 64 8 32 43 32 52 0z"/>
<path d="M4005 3432 c-3 -3 -5 -12 -5 -21 0 -12 3 -12 12 -3 23 23 30 11 26
-43 -4 -46 -2 -55 12 -55 14 0 16 9 12 55 -3 34 -1 55 6 55 6 0 12 -5 14 -12
2 -6 10 -8 17 -4 22 14 -7 33 -49 33 -22 0 -42 -2 -45 -5z"/>
<path d="M4140 3425 c-7 -8 -7 -15 -1 -19 5 -4 12 -2 16 4 3 5 11 10 17 10 7
0 9 -19 5 -55 -5 -48 -3 -55 12 -55 15 0 17 7 13 57 -5 53 -4 56 17 50 14 -3
21 0 21 8 0 18 -85 18 -100 0z"/>
<path d="M4262 3417 c-40 -43 -18 -107 38 -107 46 0 69 80 32 113 -25 23 -45
21 -70 -6z m58 -18 c18 -32 4 -71 -23 -67 -26 4 -36 50 -16 74 16 19 26 18 39
-7z"/>
<path d="M1459 3286 c-3 -3 -55 -12 -115 -20 -194 -26 -372 -95 -536 -211
-154 -108 -322 -299 -406 -460 -36 -70 -72 -153 -72 -167 0 -7 -6 -25 -14 -40
-8 -14 -17 -46 -21 -70 -4 -24 -11 -48 -16 -54 -4 -5 -14 -72 -20 -147 -10
-107 -10 -167 0 -275 6 -75 16 -138 21 -140 6 -2 10 -14 10 -27 0 -30 50 -188
62 -196 6 -3 9 -9 8 -13 -3 -12 63 -146 71 -146 5 0 9 -5 9 -12 0 -6 11 -26
25 -44 14 -18 25 -37 25 -42 0 -6 7 -12 15 -16 22 -8 18 13 -10 50 -14 18 -25
37 -25 43 0 6 -4 11 -8 11 -5 0 -14 16 -22 35 -8 19 -17 35 -22 35 -4 0 -8 5
-8 10 0 6 -9 29 -20 53 -33 73 -67 171 -75 217 -4 25 -11 50 -15 55 -5 6 -13
67 -19 137 -11 128 0 369 18 392 4 6 13 44 20 84 13 71 22 85 27 39 1 -12 12
-83 24 -157 12 -74 29 -189 39 -255 11 -66 20 -120 21 -120 3 0 32 -187 54
-350 9 -60 20 -123 25 -140 6 -16 13 -61 15 -98 5 -72 13 -88 87 -169 77 -83
249 -218 279 -218 5 0 10 -4 10 -8 0 -13 186 -96 240 -107 19 -4 40 -11 46
-16 39 -32 400 -61 499 -40 28 6 80 16 118 22 37 6 70 15 73 20 3 5 15 9 27 9
12 0 35 7 51 15 25 13 27 13 22 0 -8 -21 11 -19 53 8 55 34 74 45 101 59 14 7
27 15 30 19 5 6 82 50 170 97 43 23 74 42 120 70 19 11 39 21 44 21 5 -1 12 3
15 9 3 5 107 67 231 137 124 71 227 131 230 134 6 7 46 30 108 61 23 12 42 28
42 36 0 17 -14 18 -32 2 -13 -13 -21 -17 -97 -60 -20 -12 -49 -29 -66 -39 -16
-10 -46 -27 -65 -36 -19 -10 -37 -20 -40 -23 -3 -3 -16 -11 -30 -19 -84 -49
-356 -209 -378 -223 -58 -37 -81 -48 -95 -42 -8 3 -23 -3 -33 -13 -24 -24 -74
-56 -80 -50 -2 2 -3 490 -2 1085 l3 1081 75 -57 c180 -137 321 -317 410 -524
11 -26 20 -51 20 -55 0 -4 7 -21 15 -36 15 -29 39 -135 55 -237 11 -71 11
-289 0 -360 -13 -85 -39 -192 -55 -227 -8 -17 -15 -37 -15 -43 0 -35 -116
-242 -191 -340 -31 -41 -89 -106 -128 -144 -39 -37 -71 -70 -71 -72 0 -28 134
94 209 191 60 77 91 124 91 135 0 5 6 15 13 22 16 17 67 120 67 136 0 6 4 12
9 12 4 0 14 21 21 48 7 26 16 52 20 57 4 6 13 37 20 70 6 33 17 69 23 80 15
27 22 385 9 455 -20 107 -43 195 -57 227 -8 17 -15 37 -15 45 0 7 -6 22 -14
33 -7 11 -17 31 -21 44 -16 53 -130 233 -190 301 -43 49 -125 131 -160 160
-43 35 -122 90 -130 90 -3 0 -21 11 -38 24 -28 22 -97 56 -202 101 -16 7 -46
16 -65 20 -19 4 -40 11 -46 16 -22 18 -391 59 -405 45z m306 -45 c39 -7 77
-15 85 -18 18 -7 15 -6 69 -22 24 -7 51 -16 60 -21 44 -23 172 -80 180 -80 5
0 11 -7 15 -15 3 -8 6 -490 6 -1070 0 -580 3 -1061 6 -1070 3 -8 1 -15 -5 -15
-6 0 -11 5 -11 12 0 11 -105 199 -164 293 -18 28 -37 59 -43 70 -35 59 -132
224 -156 264 -15 25 -30 53 -34 61 -4 8 -9 17 -13 20 -3 3 -30 48 -60 100 -30
52 -57 97 -62 98 -4 2 -8 8 -8 14 0 5 -18 41 -41 80 -38 64 -43 69 -67 63 -14
-3 -36 -16 -47 -28 -12 -12 -64 -58 -116 -102 -52 -44 -98 -84 -104 -90 -5 -6
-22 -21 -37 -34 l-27 -23 -44 36 -45 36 32 34 c17 18 52 57 78 87 25 30 86 99
135 155 138 157 311 358 402 463 25 30 66 78 91 106 25 28 70 79 100 115 30
35 89 102 131 149 78 89 114 141 86 124 -8 -4 -30 -26 -49 -48 -20 -22 -75
-85 -124 -140 -49 -55 -101 -115 -115 -134 -25 -32 -28 -33 -60 -22 -78 26
-217 172 -177 186 7 2 33 11 58 20 25 9 61 21 80 27 19 5 49 16 65 23 17 7 66
25 110 40 44 15 94 33 112 41 17 8 37 14 45 14 7 0 27 10 43 21 l30 21 -33 -6
c-19 -3 -48 -12 -65 -20 -18 -8 -43 -18 -57 -21 -14 -4 -38 -13 -55 -20 -16
-7 -73 -27 -125 -45 -52 -17 -109 -38 -127 -46 -17 -8 -37 -14 -45 -14 -8 0
-18 -4 -23 -8 -6 -5 -53 -24 -105 -42 -52 -18 -108 -38 -125 -45 -16 -8 -43
-17 -59 -21 -16 -4 -41 -13 -55 -20 -14 -8 -33 -14 -41 -14 -8 0 -33 -9 -55
-20 -22 -11 -47 -19 -56 -20 -9 0 -19 -3 -23 -7 -4 -5 -11 -8 -14 -9 -4 0 -20
-6 -35 -12 -16 -7 -32 -12 -37 -12 -4 0 -21 -7 -36 -15 -16 -8 -36 -15 -44
-15 -8 0 -33 -9 -55 -20 -22 -11 -47 -20 -55 -20 -8 0 -33 -9 -55 -20 -22 -11
-47 -20 -55 -20 -8 0 -27 -6 -41 -14 -14 -7 -38 -16 -54 -20 -16 -4 -48 -16
-72 -27 -23 -10 -49 -19 -57 -19 -8 0 -17 -4 -20 -9 -3 -4 -27 -14 -53 -21
-27 -7 -57 -20 -68 -28 -18 -13 -17 -13 20 -7 22 4 59 15 82 26 23 10 48 19
55 19 7 1 31 9 53 20 22 11 47 20 55 20 8 0 26 6 40 13 14 7 46 19 73 26 26 8
50 18 53 22 3 5 13 9 22 9 9 1 35 9 57 20 22 11 47 20 55 20 8 0 33 9 55 20
22 11 47 20 55 20 8 0 27 6 41 14 14 7 39 16 55 20 16 4 43 14 59 21 17 7 48
19 70 25 22 7 45 16 50 20 6 4 26 11 45 15 19 4 44 14 55 21 11 8 26 14 33 14
8 0 28 6 45 14 18 8 46 19 64 24 30 10 33 9 53 -24 33 -53 96 -112 151 -140
44 -23 48 -28 36 -43 -7 -9 -51 -59 -98 -112 -46 -53 -133 -154 -194 -224 -60
-70 -119 -137 -130 -150 -11 -12 -45 -51 -75 -86 -30 -35 -75 -86 -100 -114
-25 -28 -63 -72 -85 -97 l-39 -46 -37 31 c-19 18 -50 43 -67 57 -18 14 -44 35
-59 48 -16 13 -59 49 -98 80 -38 31 -77 64 -86 72 -10 8 -24 20 -31 25 -7 6
-84 68 -170 138 -86 70 -161 127 -166 127 -23 0 -17 91 8 110 3 3 12 21 20 40
74 182 285 415 495 547 36 23 141 72 168 78 15 4 27 11 27 16 0 5 7 9 15 9 9
0 40 9 70 19 31 11 81 23 113 27 31 4 66 10 77 15 28 12 316 5 400 -10z
m-1277 -965 c45 -38 79 -73 75 -79 -3 -6 -1 -7 6 -3 7 4 49 -24 104 -69 50
-42 108 -89 127 -105 49 -39 181 -148 207 -170 12 -10 31 -23 42 -30 12 -6 21
-15 21 -21 0 -6 -37 -52 -83 -102 -45 -51 -92 -105 -104 -120 l-21 -28 -29 27
c-28 26 -74 54 -103 62 -35 11 -193 13 -203 3 -6 -6 -18 -11 -27 -11 -13 0
-20 22 -34 113 -9 61 -24 150 -31 197 -8 47 -23 141 -34 210 -11 69 -24 145
-30 170 -6 25 -10 49 -11 53 0 9 12 1 128 -97z m1069 -320 c8 -17 25 -49 38
-71 14 -22 30 -51 37 -65 7 -14 15 -27 18 -30 4 -3 30 -48 60 -100 30 -52 56
-97 60 -100 3 -3 11 -16 18 -30 7 -14 22 -42 35 -62 12 -20 55 -94 96 -165 41
-70 78 -130 81 -133 4 -3 13 -20 21 -37 8 -18 17 -33 21 -33 5 0 8 -4 8 -10 0
-9 53 -98 91 -152 27 -39 14 -35 -35 10 -23 20 -60 52 -81 70 -94 77 -194 159
-230 187 -21 17 -68 55 -104 86 -54 45 -242 199 -299 244 -7 5 -21 17 -31 25
-58 51 -135 110 -142 110 -25 0 1 32 78 95 117 95 163 134 198 170 34 35 42
34 62 -9z m-425 -206 c34 -23 50 -50 30 -50 -10 0 -118 -93 -435 -374 -59 -53
-110 -96 -114 -96 -6 0 20 34 43 55 6 5 62 69 124 140 167 192 190 218 250
289 30 36 57 64 60 63 3 -1 22 -13 42 -27z m101 -79 c84 -76 186 -161 195
-161 6 0 12 -4 14 -9 2 -6 124 -110 193 -163 6 -5 55 -45 111 -91 55 -45 142
-116 193 -157 50 -41 102 -84 114 -95 13 -11 40 -31 60 -45 36 -24 50 -44 25
-35 -7 3 -58 12 -113 20 -130 20 -259 42 -420 70 -129 23 -321 53 -457 73 -64
9 -120 20 -124 25 -4 4 -25 7 -47 7 -40 0 -40 0 -22 20 21 23 32 116 21 172
-6 32 -68 112 -93 119 -6 2 41 49 104 104 64 55 134 117 157 137 22 21 45 38
49 38 5 0 23 -13 40 -29z m-468 -71 c52 -31 75 -50 75 -66 0 -6 -26 -41 -57
-76 -118 -131 -200 -228 -218 -257 -7 -12 -12 5 -21 64 -7 44 -19 127 -28 185
-9 58 -18 119 -21 137 -5 30 -4 32 27 36 18 3 71 4 118 2 67 -2 93 -7 125 -25z
m137 -224 c20 -19 41 -51 48 -71 13 -40 9 -113 -9 -159 -11 -28 -11 -28 -78
-21 -36 4 -76 11 -87 15 -12 5 -61 14 -111 20 -49 6 -91 13 -93 15 -2 2 7 9
20 16 20 11 111 87 221 185 21 19 41 34 45 34 4 0 24 -15 44 -34z m-298 -225
c3 -4 54 -14 113 -21 59 -7 114 -16 123 -21 8 -5 65 -15 125 -23 61 -8 148
-22 195 -30 47 -9 139 -24 205 -35 66 -11 179 -29 250 -41 72 -12 182 -29 245
-39 63 -9 120 -19 126 -23 6 -4 49 -10 95 -14 46 -4 90 -10 98 -14 9 -5 -21
-25 -91 -59 -58 -28 -111 -51 -116 -51 -6 0 -23 -5 -39 -12 -15 -6 -35 -13
-43 -15 -94 -19 -137 -29 -147 -36 -6 -4 -71 -10 -145 -13 -134 -6 -213 1
-343 30 -97 22 -94 21 -101 29 -4 4 -14 7 -22 7 -19 0 -158 63 -239 109 -85
48 -261 197 -312 264 -11 14 -11 17 2 17 9 0 18 -4 21 -9z"/>
<path d="M1833 2888 c-20 -25 -19 -43 0 -53 31 -15 33 -35 3 -35 -28 0 -35
-17 -11 -27 18 -6 55 23 55 43 0 8 -9 19 -20 26 -26 17 -26 38 1 38 11 0 17 5
14 10 -9 14 -31 13 -42 -2z"/>
<path d="M1900 2885 c-17 -20 -6 -45 20 -45 17 0 21 5 18 27 -4 31 -20 40 -38
18z m28 -23 c2 -7 -3 -12 -12 -12 -9 0 -16 7 -16 16 0 17 22 14 28 -4z"/>
<path d="M1730 2881 c-8 -6 -11 -13 -7 -17 3 -4 13 -1 22 6 12 10 16 9 21 -4
3 -9 1 -23 -6 -31 -7 -9 -10 -19 -6 -23 11 -11 37 30 34 53 -3 22 -35 31 -58
16z"/>
<path d="M1729 2800 c-19 -12 0 -30 32 -30 18 0 29 5 29 14 0 16 -43 27 -61
16z"/>
<path d="M2110 2595 c0 -8 5 -15 10 -15 6 0 10 7 10 15 0 8 -4 15 -10 15 -5 0
-10 -7 -10 -15z"/>
<path d="M1509 2132 c-28 -24 -30 -76 -3 -97 31 -23 61 -18 84 15 19 27 20 31
6 58 -23 45 -51 52 -87 24z m56 -48 c0 -30 -4 -40 -19 -42 -35 -7 -51 58 -18
77 27 16 37 7 37 -35z"/>
<path d="M970 1783 c0 -21 3 -24 9 -14 5 8 7 20 4 28 -8 21 -13 15 -13 -14z"/>
<path d="M567 1478 c-31 -40 -31 -63 -1 -63 10 0 18 -6 17 -12 -4 -20 15 -15
20 5 3 9 2 37 -1 62 l-7 45 -28 -37z m20 -45 c-3 -3 -11 -2 -17 2 -8 5 -7 11
2 22 12 15 13 14 16 -1 2 -10 1 -20 -1 -23z"/>
<path d="M637 1503 c-4 -3 -7 -19 -7 -35 0 -20 6 -31 22 -37 l21 -8 -24 -16
c-16 -12 -19 -17 -8 -17 41 0 76 79 47 108 -13 13 -41 16 -51 5z m40 -29 c9
-23 -11 -38 -26 -20 -13 16 -7 36 10 36 5 0 12 -7 16 -16z"/>
<path d="M710 1486 c0 -29 26 -41 46 -22 18 19 18 32 -2 40 -30 12 -44 6 -44
-18z m37 -12 c-9 -9 -28 6 -21 18 4 6 10 6 17 -1 6 -6 8 -13 4 -17z"/>
<path d="M716 1264 c-10 -25 -7 -31 14 -37 27 -7 26 -37 -1 -37 -12 0 -19 -5
-16 -12 5 -15 39 -11 49 5 14 21 8 46 -12 57 -11 6 -18 15 -15 21 4 5 10 7 15
4 5 -3 11 -1 15 5 4 6 -4 10 -18 10 -14 0 -28 -7 -31 -16z"/>
<path d="M797 1273 c-13 -12 -7 -90 7 -102 33 -28 63 15 51 75 -5 27 -11 34
-29 34 -12 0 -26 -3 -29 -7z m33 -49 c0 -27 -4 -43 -10 -39 -17 11 -11 85 7
85 2 0 3 -21 3 -46z"/>
<path d="M870 1256 c0 -29 28 -42 48 -22 20 20 8 46 -23 46 -20 0 -25 -5 -25
-24z"/>
<path d="M3782 3208 c-20 -20 -14 -48 13 -58 14 -5 25 -16 25 -25 0 -18 -21
-20 -38 -3 -9 9 -12 7 -12 -11 0 -19 5 -22 31 -19 18 2 37 11 43 20 9 15 5 23
-23 46 -22 18 -30 31 -23 35 6 4 13 3 17 -3 9 -15 25 -12 25 4 0 8 -7 17 -16
20 -22 8 -28 8 -42 -6z"/>
<path d="M3875 3200 c-20 -22 -23 -74 -4 -96 15 -19 63 -18 80 2 11 14 9 15
-24 9 -33 -7 -37 -5 -43 21 -12 46 20 78 49 49 20 -20 27 -19 27 4 0 11 -9 21
-22 25 -36 9 -44 7 -63 -14z"/>
<path d="M4010 3207 c0 -6 -11 -33 -25 -59 -14 -26 -25 -50 -25 -53 0 -13 33
1 36 15 2 8 5 24 7 35 4 19 22 24 22 6 0 -5 3 -13 8 -17 4 -4 7 -16 7 -26 0
-10 7 -18 15 -18 16 0 21 25 6 34 -4 3 -14 26 -21 51 -12 42 -30 62 -30 32z"/>
<path d="M4088 3155 l4 -65 38 0 c41 0 59 15 41 33 -8 8 -11 8 -11 -1 0 -7
-10 -12 -21 -12 -20 0 -21 4 -17 55 4 51 3 55 -16 55 -19 0 -21 -5 -18 -65z"/>
<path d="M4180 3211 c0 -6 5 -13 11 -17 7 -4 9 -25 7 -55 l-5 -49 34 0 c35 0
71 24 54 35 -5 3 -12 1 -16 -5 -12 -19 -45 -11 -45 11 0 16 5 20 20 16 13 -3
20 0 20 10 0 10 -6 12 -20 8 -16 -5 -20 -2 -20 14 0 23 19 28 38 9 9 -9 12 -7
12 10 0 19 -5 22 -45 22 -25 0 -45 -4 -45 -9z"/>
<path d="M2220 3190 c-11 -11 -20 -33 -20 -48 0 -28 26 -62 46 -62 18 0 54 31
48 42 -4 6 -9 7 -13 0 -12 -18 -48 -23 -60 -8 -10 11 -9 21 4 45 17 33 55 43
55 15 0 -14 3 -14 15 -4 8 7 15 19 15 26 0 22 -66 18 -90 -6z"/>
<path d="M2850 3125 c0 -16 16 -20 24 -6 3 5 -1 11 -9 15 -9 3 -15 0 -15 -9z"/>
<path d="M3250 2862 c0 -5 7 -16 16 -23 14 -12 16 -11 13 5 -4 20 -29 35 -29
18z"/>
<path d="M2622 2816 c1 -10 8 -17 13 -17 15 1 12 24 -3 29 -9 3 -13 -2 -10
-12z"/>
<path d="M3430 2689 c0 -11 5 -17 10 -14 6 3 10 13 10 21 0 8 -4 14 -10 14 -5
0 -10 -9 -10 -21z"/>
<path d="M2632 2478 c2 -6 10 -14 16 -16 7 -2 10 2 6 12 -7 18 -28 22 -22 4z"/>
<path d="M185 2400 c-4 -27 -11 -52 -16 -56 -21 -12 -7 -24 29 -24 68 0 108
73 62 113 -11 9 -31 17 -44 17 -21 0 -25 -6 -31 -50z m65 15 c21 -25 -4 -74
-38 -75 -9 0 -11 10 -6 38 10 57 20 66 44 37z"/>
<path d="M3160 2373 c0 -5 4 -15 10 -23 11 -18 25 -7 17 15 -6 15 -27 21 -27
8z"/>
<path d="M4145 2020 c10 -11 20 -18 23 -15 7 6 -18 35 -31 35 -5 0 -2 -9 8
-20z"/>
<path d="M4292 1868 c3 -7 12 -14 21 -16 12 -2 15 1 11 12 -7 19 -38 22 -32 4z"/>
<path d="M4377 1803 c-3 -5 -3 -13 1 -18 9 -13 32 -17 32 -6 0 13 -28 33 -33
24z"/>
<path d="M2275 1519 c-10 -15 3 -25 16 -12 7 7 7 13 1 17 -6 3 -14 1 -17 -5z"/>
<path d="M3440 1520 c0 -5 7 -10 15 -10 8 0 15 5 15 10 0 6 -7 10 -15 10 -8 0
-15 -4 -15 -10z"/>
<path d="M4265 1510 c-28 -7 -28 -8 -5 -9 14 0 32 4 40 9 17 11 8 11 -35 0z"/>
<path d="M3147 1494 c-15 -16 -6 -24 21 -18 15 3 22 2 16 -3 -6 -4 -13 -19
-16 -33 -3 -14 -9 -33 -13 -42 -5 -13 -2 -18 9 -18 18 0 21 7 31 63 5 30 10
37 25 35 11 -2 20 2 22 7 3 11 -84 20 -95 9z"/>
<path d="M540 1095 c-7 -9 -13 -38 -14 -65 -2 -39 1 -50 14 -50 12 0 15 14 17
65 0 36 0 65 -2 65 -1 0 -8 -7 -15 -15z"/>
<path d="M499 1036 c-7 -9 -23 -26 -33 -36 -20 -20 -20 -20 7 -20 20 0 27 5
27 19 0 11 5 21 12 23 6 2 9 10 6 18 -3 10 -7 10 -19 -4z"/>
<path d="M2245 813 c-4 -21 -14 -46 -23 -56 -15 -17 -14 -18 33 -15 48 3 50 4
49 33 0 17 4 33 9 36 19 13 -2 39 -32 39 -25 0 -30 -4 -36 -37z m40 -14 c-4
-46 -9 -54 -24 -44 -14 8 -14 35 -1 35 6 0 10 8 10 18 0 17 8 32 16 32 2 0 1
-18 -1 -41z"/>
<path d="M1740 620 c-113 -65 -209 -122 -215 -127 -5 -5 -25 -15 -42 -22 -18
-7 -33 -16 -33 -20 0 -4 -12 -12 -27 -18 -16 -7 -50 -26 -78 -43 -27 -17 -60
-35 -73 -40 -13 -6 -42 -23 -65 -38 -23 -16 -49 -32 -57 -35 -8 -4 -33 -18
-55 -32 -22 -14 -56 -33 -75 -42 -19 -10 -36 -21 -38 -25 -2 -5 -9 -8 -15 -8
-18 -1 -63 -38 -55 -46 4 -3 53 20 109 52 55 33 115 67 132 77 18 10 50 29 72
42 22 13 51 30 65 37 14 7 27 15 30 18 3 3 16 11 30 18 14 7 43 23 65 37 22
13 51 30 65 37 14 7 27 15 30 18 3 4 107 64 232 136 125 71 228 132 228 137 0
17 -37 -1 -230 -113z"/>
<path d="M3930 225 c0 -8 5 -15 10 -15 6 0 10 7 10 15 0 8 -4 15 -10 15 -5 0
-10 -7 -10 -15z"/>
</g>
</svg>
