<?xml version="1.0" standalone="no"?>
<!DOCTYPE svg PUBLIC "-//W3C//DTD SVG 20010904//EN"
 "http://www.w3.org/TR/2001/REC-SVG-20010904/DTD/svg10.dtd">
<svg version="1.0" xmlns="http://www.w3.org/2000/svg"
 width="553.000000pt" height="335.000000pt" viewBox="0 0 553.000000 335.000000"
 preserveAspectRatio="xMidYMid meet">
<g transform="translate(0.000000,335.000000) scale(0.100000,-0.100000)"
fill="#ffffff" stroke="none">
<path d="M4680 3040 c-13 -8 -12 -10 3 -10 9 0 17 -8 18 -17 3 -45 -4 -89 -14
-95 -7 -4 -9 -8 -5 -8 3 0 13 -3 22 -6 13 -5 16 3 16 47 l0 54 21 -32 c12 -18
25 -33 30 -33 5 0 9 -7 9 -15 0 -8 7 -15 15 -15 11 0 12 6 7 23 -12 33 -7 88
9 98 14 9 10 10 -28 9 -4 0 -6 -16 -4 -35 3 -44 -14 -40 -47 10 -24 38 -29 40
-52 25z"/>
<path d="M4841 3024 c-12 -13 -21 -35 -21 -49 0 -14 9 -36 21 -49 18 -20 26
-23 51 -15 17 4 36 16 44 26 29 39 8 87 -44 102 -25 8 -33 5 -51 -15z m73 -22
c12 -24 12 -31 -1 -55 -17 -33 -38 -32 -60 4 -14 24 -14 28 2 52 22 34 41 34
59 -1z"/>
<path d="M4960 3026 c0 -16 3 -17 12 -8 22 22 28 13 28 -42 0 -34 -5 -56 -12
-59 -7 -3 3 -5 22 -5 19 0 29 2 23 5 -20 7 -17 113 2 113 8 0 15 -7 15 -15 0
-8 5 -15 10 -15 11 0 14 40 3 41 -5 0 -29 2 -55 3 -42 2 -48 0 -48 -18z"/>
<path d="M5118 3032 c-14 -16 -1 -29 14 -14 23 23 30 11 26 -48 -2 -39 1 -61
9 -64 18 -7 21 2 17 51 -6 60 1 80 21 63 18 -15 34 -5 17 12 -15 15 -91 16
-104 0z"/>
<path d="M5280 3042 c-25 -8 -50 -45 -50 -74 0 -16 4 -28 9 -28 5 0 12 -8 15
-18 8 -24 56 -23 79 2 17 19 23 72 9 92 -11 17 -45 32 -62 26z m39 -41 c18
-24 19 -32 8 -55 -17 -37 -52 -35 -66 5 -10 30 -8 41 14 66 15 18 22 16 44
-16z"/>
<path d="M5285 2970 c-3 -6 1 -7 9 -4 18 7 21 14 7 14 -6 0 -13 -4 -16 -10z"/>
<path d="M4656 2867 c3 -10 9 -15 12 -12 3 3 0 11 -7 18 -10 9 -11 8 -5 -6z"/>
<path d="M4708 2828 c-24 -29 -23 -34 10 -55 34 -22 44 -35 32 -47 -5 -5 -19
-2 -34 8 -25 16 -26 16 -26 -4 0 -13 7 -20 20 -20 11 0 20 -5 20 -10 0 -16 39
13 46 33 6 19 -25 57 -46 57 -5 0 -10 7 -10 15 0 8 7 15 15 15 8 0 15 -4 15
-10 0 -5 7 -10 15 -10 22 0 18 17 -7 34 -28 20 -30 20 -50 -6z"/>
<path d="M4835 2837 c-44 -27 -54 -56 -34 -101 19 -41 99 -41 99 1 0 12 -3 13
-14 3 -19 -15 -56 -9 -70 12 -15 25 11 68 41 68 14 0 23 -6 23 -15 0 -8 5 -15
10 -15 16 0 11 32 -7 46 -21 16 -23 16 -48 1z"/>
<path d="M4973 2833 c-18 -6 -16 -28 2 -43 8 -7 15 -19 15 -26 0 -8 -6 -11
-15 -8 -8 4 -15 12 -15 20 0 8 -4 14 -10 14 -5 0 -10 -8 -10 -18 0 -10 -7 -27
-15 -38 -15 -22 -11 -34 12 -34 7 0 13 9 13 20 0 14 7 20 24 20 15 0 26 -7 29
-20 3 -11 13 -20 22 -20 9 0 15 3 13 8 -17 34 -44 100 -50 118 -2 6 -9 9 -15
7z"/>
<path d="M5062 2833 c-6 -2 -9 -9 -6 -15 10 -16 11 -88 2 -94 -19 -12 -5 -21
37 -22 36 -2 46 2 56 19 10 20 9 21 -7 14 -47 -20 -59 -13 -62 38 -2 37 0 47
12 47 9 0 16 5 16 10 0 10 -26 12 -48 3z"/>
<path d="M5168 2772 l-3 -70 42 0 c42 -1 73 17 73 41 0 7 -4 6 -10 -3 -5 -8
-10 -10 -10 -5 0 6 -6 3 -13 -5 -18 -23 -42 -18 -45 9 -3 21 -1 23 22 17 22
-5 26 -3 26 14 0 21 -15 27 -25 10 -11 -18 -25 -10 -25 15 0 20 5 25 24 25 13
0 27 -6 29 -12 3 -8 6 -6 6 5 1 12 -7 17 -28 17 -16 0 -36 3 -44 6 -13 4 -16
-7 -19 -64z"/>
<path d="M3845 2781 c-3 -6 -1 -11 6 -11 8 0 8 -4 1 -12 -5 -7 -13 -29 -17
-48 -4 -19 -12 -41 -17 -47 -8 -10 -4 -13 15 -13 19 0 24 4 21 18 -5 22 4 34
39 50 23 10 28 18 25 40 -2 22 -9 28 -35 30 -17 2 -34 -2 -38 -7z m55 -25 c0
-16 -28 -42 -36 -33 -8 7 14 47 26 47 6 0 10 -6 10 -14z"/>
<path d="M3935 2711 c-3 -5 -1 -12 5 -16 5 -3 10 1 10 9 0 18 -6 21 -15 7z"/>
<path d="M1027 2613 c-10 -9 -9 -23 1 -23 5 0 9 7 9 15 0 17 -1 18 -10 8z"/>
<path d="M1203 2613 c-29 -2 -53 -8 -53 -12 0 -5 -25 -12 -55 -16 -30 -3 -57
-10 -60 -15 -3 -4 -23 -11 -45 -15 -22 -4 -40 -11 -40 -16 0 -5 -5 -9 -12 -9
-18 0 -158 -73 -158 -82 0 -4 -5 -8 -10 -8 -10 0 -56 -30 -86 -55 -7 -5 -27
-21 -45 -35 -68 -51 -197 -193 -234 -257 -11 -18 -23 -33 -28 -33 -4 0 -6 -4
-3 -9 4 -5 2 -11 -2 -13 -8 -3 -52 -92 -89 -178 -8 -19 -21 -50 -29 -68 -8
-18 -14 -44 -14 -57 0 -13 -4 -26 -9 -29 -5 -3 -7 -15 -4 -26 3 -11 0 -20 -6
-20 -6 0 -11 -17 -11 -38 0 -21 -3 -42 -7 -46 -14 -14 -20 -243 -8 -336 3 -30
9 -75 12 -100 3 -25 10 -50 15 -57 5 -7 7 -17 4 -22 -4 -6 -2 -18 3 -28 8 -16
24 -69 41 -138 1 -5 9 -19 16 -30 8 -11 14 -27 14 -37 0 -10 4 -18 9 -18 5 0
12 -14 16 -30 4 -17 10 -30 14 -30 4 0 18 -20 30 -45 12 -25 26 -45 31 -45 4
0 13 -13 19 -30 5 -16 14 -30 19 -30 5 0 15 -12 23 -28 24 -47 213 -225 258
-244 9 -3 25 -14 36 -25 19 -17 105 -63 119 -63 4 0 14 -7 22 -15 9 -8 24 -15
35 -15 10 0 19 -4 19 -9 0 -5 18 -12 40 -16 22 -4 42 -10 45 -15 3 -4 29 -11
58 -15 28 -4 55 -12 58 -17 10 -16 313 -22 399 -9 41 7 82 13 90 13 8 0 20 4
25 8 6 4 27 11 49 14 36 7 54 14 152 58 22 10 46 18 52 18 7 0 12 4 12 9 0 5
10 13 23 17 12 3 30 13 40 22 10 9 24 17 31 18 15 2 35 18 150 121 89 80 86
77 136 148 19 28 40 56 47 63 7 7 13 17 13 22 0 5 6 15 13 22 16 18 31 44 58
98 13 25 27 48 32 51 5 3 8 8 7 10 -1 4 5 26 17 57 3 9 7 20 7 24 1 3 4 10 9
14 4 4 7 16 7 26 0 10 4 18 9 18 5 0 7 9 4 20 -3 11 -1 26 5 33 11 13 28 110
37 212 3 28 7 61 9 75 5 28 -8 59 -20 47 -5 -4 -10 -49 -12 -100 -3 -50 -8
-94 -11 -97 -6 -4 -26 -110 -33 -172 -1 -10 -5 -18 -9 -18 -3 0 -6 -14 -7 -31
0 -17 -7 -38 -15 -48 -8 -9 -12 -22 -10 -28 3 -7 1 -13 -4 -13 -5 0 -15 -17
-22 -37 -7 -21 -23 -51 -36 -68 -12 -16 -25 -40 -29 -52 -4 -13 -12 -23 -17
-23 -5 0 -9 -4 -9 -10 0 -5 -7 -18 -16 -27 -8 -10 -44 -54 -79 -98 -34 -45
-79 -92 -99 -105 -20 -14 -36 -31 -36 -37 0 -7 -6 -13 -13 -13 -8 0 -24 -11
-37 -25 -13 -14 -29 -25 -37 -25 -7 0 -21 -8 -31 -18 -20 -20 -113 -68 -124
-64 -5 1 -8 -2 -8 -7 0 -5 -10 -12 -22 -16 -28 -9 -25 -8 -73 -29 -22 -9 -53
-20 -70 -23 -16 -2 -37 -7 -45 -11 -65 -25 -394 -50 -406 -30 -3 4 -25 8 -49
8 -24 0 -47 5 -50 10 -4 6 -12 10 -18 9 -22 -3 -97 13 -97 21 0 5 -18 11 -41
15 -22 4 -42 12 -45 19 -2 6 -16 13 -31 14 -15 1 -29 6 -33 11 -3 5 -18 13
-33 16 -15 4 -27 11 -27 15 0 5 -10 12 -22 16 -12 3 -28 12 -35 18 -27 24 -39
33 -50 37 -7 2 -44 31 -83 63 -119 100 -290 321 -290 377 0 10 -4 19 -9 19 -5
0 -12 13 -16 30 -4 16 -11 30 -15 30 -5 0 -12 16 -16 37 -4 20 -13 48 -20 62
-8 14 -14 36 -14 49 0 12 -4 22 -9 22 -5 0 -13 30 -16 68 -4 37 -11 72 -15 77
-31 42 -5 482 31 520 5 5 9 18 9 30 0 11 6 32 14 47 8 15 17 40 21 57 4 17 10
31 15 31 4 0 11 16 14 35 4 19 11 35 16 35 6 0 10 6 10 14 0 8 6 21 13 28 16
19 35 48 47 76 5 12 14 22 20 22 5 0 10 8 10 18 0 11 9 27 20 37 11 10 20 22
20 27 0 13 150 161 185 184 17 10 34 24 38 31 4 7 15 13 22 13 8 0 15 3 15 8
0 4 20 18 45 32 25 14 45 28 45 31 0 4 14 10 30 14 17 4 30 10 30 15 0 5 14
12 32 15 18 4 39 11 48 16 87 50 283 82 450 75 137 -6 190 -13 207 -28 7 -5
19 -8 28 -5 8 4 17 2 20 -3 4 -6 17 -10 30 -10 13 0 27 -4 30 -10 3 -5 14 -10
23 -10 9 0 30 -7 46 -15 15 -8 35 -15 42 -15 8 0 14 -4 14 -8 0 -6 30 -22 70
-37 27 -10 60 -30 60 -37 0 -4 7 -8 15 -8 8 0 15 -4 15 -8 0 -5 9 -13 19 -18
39 -18 241 -201 241 -218 0 -3 21 -34 46 -68 25 -35 50 -72 55 -83 5 -11 23
-42 39 -70 16 -27 29 -53 30 -57 0 -8 -83 -48 -99 -48 -6 0 -11 -4 -11 -9 0
-5 -13 -12 -30 -16 -16 -4 -30 -11 -30 -16 0 -5 -5 -9 -11 -9 -6 0 -59 -23
-118 -51 -208 -100 -228 -109 -239 -109 -7 0 -12 -4 -12 -9 0 -5 -13 -12 -30
-16 -16 -4 -30 -11 -30 -16 0 -5 -5 -9 -12 -9 -7 0 -55 -21 -108 -46 -146 -70
-177 -84 -184 -84 -15 0 -76 -46 -76 -57 0 -10 173 -13 833 -13 457 0 979 -3
1158 -7 l327 -6 7 22 c5 18 9 238 4 266 -1 6 -1 14 0 18 1 5 1 32 1 60 -1 77
0 119 4 150 2 15 -1 27 -6 27 -5 0 -6 5 -2 12 11 18 12 608 1 608 -5 0 -21 -6
-35 -14 -40 -21 -426 -210 -432 -211 -15 -2 -106 -50 -112 -59 -4 -6 -8 -8 -8
-4 0 8 -36 -10 -283 -133 -65 -32 -123 -59 -128 -59 -5 0 -31 -13 -57 -30 -27
-16 -55 -30 -61 -30 -7 0 -19 -7 -27 -15 -9 -8 -24 -15 -35 -15 -10 0 -19 -4
-19 -10 0 -5 -6 -10 -12 -10 -7 0 -35 -12 -63 -25 -49 -24 -50 -24 -53 -5 -2
11 -8 20 -13 20 -5 0 -9 3 -8 8 2 15 -14 52 -22 52 -5 0 -9 6 -9 13 0 13 -62
107 -113 172 -75 95 -266 265 -297 265 -5 0 -10 5 -10 10 0 6 -6 10 -14 10 -7
0 -19 7 -26 15 -7 9 -15 13 -18 11 -3 -3 -17 3 -31 13 -14 10 -28 19 -31 19
-3 -1 -26 9 -52 21 -26 11 -56 21 -67 21 -12 0 -21 4 -21 9 0 5 -21 12 -47 16
-27 4 -54 12 -61 17 -13 11 -324 19 -419 11z m2563 -433 c-2 -177 -6 -324 -10
-327 -3 -3 -3 -10 1 -16 10 -16 9 -87 -2 -92 -7 -3 -7 -7 0 -10 15 -7 9 -239
-6 -244 -7 -2 -8 -6 -1 -10 5 -3 13 -23 16 -44 l6 -37 -1125 0 c-711 1 -1125
4 -1125 10 0 6 4 10 10 10 5 0 33 11 62 24 29 13 58 25 63 26 6 1 22 11 38 22
15 11 27 16 27 13 0 -3 15 4 33 17 17 13 33 22 35 20 1 -2 53 21 115 51 61 30
127 60 145 68 17 8 32 17 32 21 0 5 8 8 18 8 9 0 28 7 42 14 51 28 153 76 162
76 5 0 21 9 35 20 14 11 29 17 34 14 5 -3 9 -1 9 5 0 5 13 12 30 16 17 4 30
11 30 16 0 5 7 9 15 9 8 0 15 -9 15 -20 0 -11 4 -20 9 -20 5 0 12 -17 16 -37
4 -21 10 -42 15 -48 4 -5 11 -35 14 -65 3 -30 10 -70 15 -87 7 -24 6 -33 -2
-33 -9 0 -9 -2 0 -8 6 -4 13 -34 15 -66 2 -36 8 -61 16 -64 9 -3 12 15 12 67
0 43 -4 71 -10 71 -6 0 -10 6 -8 13 4 24 -14 127 -23 133 -6 3 -8 12 -5 19 3
8 -2 28 -10 45 -9 17 -17 36 -18 43 -2 7 -6 20 -9 30 -15 38 -16 47 -7 47 6 0
39 14 73 30 35 17 69 30 75 30 7 0 12 4 12 9 0 5 14 13 32 16 17 4 40 16 51
26 11 10 24 16 29 13 4 -3 8 -1 8 4 0 5 10 13 23 17 12 4 24 8 27 9 3 1 16 8
30 16 14 8 27 15 30 15 17 2 106 51 113 62 4 7 16 13 25 13 9 1 35 9 57 20 22
11 45 19 52 20 6 0 13 3 15 8 3 7 16 14 123 64 28 12 52 26 53 31 2 4 8 7 14
7 5 0 42 16 82 35 40 19 78 35 84 35 6 0 12 3 14 8 4 9 91 52 107 52 6 0 11 4
11 9 0 5 12 12 27 16 15 3 39 15 55 26 15 11 28 17 28 13 0 -5 5 -3 12 4 7 7
13 12 14 12 2 0 1 -144 0 -320z"/>
<path d="M3620 2400 c0 -5 -6 -10 -14 -10 -21 0 -28 -16 -7 -17 9 -1 23 7 29
18 7 11 8 19 2 19 -5 0 -10 -4 -10 -10z"/>
<path d="M3675 2400 c4 -6 11 -8 16 -5 14 9 11 15 -7 15 -8 0 -12 -5 -9 -10z"/>
<path d="M3647 2393 c-10 -10 -8 -41 3 -48 5 -3 8 7 7 25 -1 16 -2 30 -3 30 0
0 -4 -3 -7 -7z"/>
<path d="M3710 2370 c0 -5 5 -10 10 -10 6 0 10 5 10 10 0 6 -4 10 -10 10 -5 0
-10 -4 -10 -10z"/>
<path d="M3530 2339 c0 -5 5 -7 10 -4 6 3 10 8 10 11 0 2 -4 4 -10 4 -5 0 -10
-5 -10 -11z"/>
<path d="M3578 2343 c6 -2 10 -9 6 -14 -3 -5 -1 -9 5 -9 17 0 21 18 5 24 -9 3
-19 6 -22 5 -4 0 -1 -3 6 -6z"/>
<path d="M3703 2325 c-7 -8 -13 -22 -13 -32 0 -15 4 -14 20 7 29 37 22 59 -7
25z"/>
<path d="M3470 2312 c0 -4 7 -18 16 -30 16 -23 44 -30 44 -11 0 6 -7 9 -15 5
-8 -3 -15 -1 -15 4 0 6 5 10 11 10 5 0 8 4 4 10 -3 5 -13 6 -22 3 -11 -4 -14
-3 -9 5 4 7 2 12 -3 12 -6 0 -11 -3 -11 -8z"/>
<path d="M3625 2306 c-15 -15 -27 -36 -22 -36 11 0 47 39 40 43 -4 3 -13 0
-18 -7z"/>
<path d="M3387 2284 c-3 -5 -2 -16 2 -23 7 -10 13 -11 27 -2 16 9 17 10 2 11
-9 0 -18 5 -20 12 -3 7 -7 8 -11 2z"/>
<path d="M3575 2259 c1 -17 10 -38 20 -47 10 -9 15 -12 11 -5 -3 6 -1 15 5 19
6 4 16 -1 21 -10 13 -23 27 -20 21 5 -7 26 -29 35 -48 19 -13 -10 -15 -8 -15
13 0 14 -4 28 -8 31 -5 3 -8 -8 -7 -25z"/>
<path d="M3445 2270 c-3 -5 1 -10 9 -10 9 0 16 5 16 10 0 6 -4 10 -9 10 -6 0
-13 -4 -16 -10z"/>
<path d="M3545 2257 c-4 -10 -5 -21 -1 -24 10 -10 18 4 13 24 -4 17 -4 17 -12
0z"/>
<path d="M3323 2246 c-24 -11 -29 -21 -14 -30 5 -3 12 1 15 10 3 8 10 13 15
10 5 -3 14 1 21 9 15 18 -2 19 -37 1z"/>
<path d="M3420 2240 c-8 -5 -25 -10 -37 -10 -13 0 -23 -4 -23 -10 0 -5 11 -10
25 -10 14 0 25 5 25 10 0 6 7 10 15 10 8 0 15 5 15 10 0 12 -1 12 -20 0z"/>
<path d="M3484 2233 c-4 -13 -14 -23 -25 -23 -10 0 -20 -4 -23 -9 -6 -9 61 3
71 12 3 3 0 14 -6 24 -10 17 -11 17 -17 -4z"/>
<path d="M3704 2239 c-9 -16 2 -22 21 -11 15 8 16 10 1 15 -8 3 -18 2 -22 -4z"/>
<path d="M3268 2205 c-3 -16 -1 -25 7 -25 7 0 13 11 13 25 0 14 -4 25 -8 25
-4 0 -10 -11 -12 -25z"/>
<path d="M3677 2210 c3 -11 9 -17 15 -14 5 3 4 12 -3 20 -16 19 -18 18 -12 -6z"/>
<path d="M3210 2200 c0 -13 11 -13 30 0 12 8 11 10 -7 10 -13 0 -23 -4 -23
-10z"/>
<path d="M3330 2199 c0 -5 5 -7 10 -4 6 3 10 8 10 11 0 2 -4 4 -10 4 -5 0 -10
-5 -10 -11z"/>
<path d="M3390 2185 c0 -8 5 -15 10 -15 6 0 10 7 10 15 0 8 -4 15 -10 15 -5 0
-10 -7 -10 -15z"/>
<path d="M3545 2180 c-3 -5 -1 -10 4 -10 6 0 11 5 11 10 0 6 -2 10 -4 10 -3 0
-8 -4 -11 -10z"/>
<path d="M3576 2181 c-4 -7 -5 -15 -2 -18 9 -9 19 4 14 18 -4 11 -6 11 -12 0z"/>
<path d="M3630 2179 c0 -13 14 -16 40 -9 24 6 24 7 -7 11 -18 3 -33 2 -33 -2z"/>
<path d="M3178 2173 c6 -2 18 -2 25 0 6 3 1 5 -13 5 -14 0 -19 -2 -12 -5z"/>
<path d="M3330 2170 c-12 -7 -12 -12 -3 -21 10 -10 14 -9 19 5 8 22 2 27 -16
16z"/>
<path d="M3480 2170 c0 -5 4 -10 9 -10 6 0 13 5 16 10 3 6 -1 10 -9 10 -9 0
-16 -4 -16 -10z"/>
<path d="M3140 2160 c0 -5 5 -10 11 -10 5 0 7 5 4 10 -3 6 -8 10 -11 10 -2 0
-4 -4 -4 -10z"/>
<path d="M3230 2160 c0 -5 5 -10 10 -10 6 0 10 5 10 10 0 6 -4 10 -10 10 -5 0
-10 -4 -10 -10z"/>
<path d="M3510 2145 c0 -8 5 -15 10 -15 6 0 10 7 10 15 0 8 -4 15 -10 15 -5 0
-10 -7 -10 -15z"/>
<path d="M3398 2141 c11 -7 11 -9 -2 -14 -9 -4 -16 -2 -16 4 0 6 -5 7 -12 3
-8 -5 -5 -11 10 -17 26 -12 62 10 40 24 -7 5 -17 9 -23 9 -5 0 -4 -4 3 -9z"/>
<path d="M3631 2134 c13 -16 39 -19 39 -5 0 5 -11 11 -25 13 -20 4 -23 3 -14
-8z"/>
<path d="M3122 2109 c1 -31 5 -34 27 -20 11 7 9 13 -7 29 l-21 21 1 -30z"/>
<path d="M3160 2130 c0 -5 5 -10 11 -10 6 0 9 -9 6 -20 -6 -21 9 -28 16 -7 6
20 -4 47 -19 47 -8 0 -14 -4 -14 -10z"/>
<path d="M3293 2126 c-6 -8 -9 -16 -6 -19 9 -10 33 4 33 19 0 18 -11 17 -27 0z"/>
<path d="M3558 2127 c-5 -13 27 -49 36 -39 10 9 7 24 -4 17 -5 -3 -10 1 -10 9
0 19 -17 30 -22 13z"/>
<path d="M3688 2118 c4 -18 27 -14 35 5 3 7 -5 12 -18 12 -15 0 -21 -5 -17
-17z"/>
<path d="M3080 2121 c0 -5 -10 -6 -22 -3 -22 5 -22 5 -5 -13 16 -15 20 -16 28
-4 10 16 12 29 4 29 -3 0 -5 -4 -5 -9z"/>
<path d="M3330 2120 c0 -5 5 -10 10 -10 6 0 10 5 10 10 0 6 -4 10 -10 10 -5 0
-10 -4 -10 -10z"/>
<path d="M3452 2119 c2 -7 10 -15 17 -17 8 -3 12 1 9 9 -2 7 -10 15 -17 17 -8
3 -12 -1 -9 -9z"/>
<path d="M3519 2113 c-1 -5 -2 -15 -3 -23 0 -8 -7 -14 -14 -12 -8 1 -11 -2 -7
-8 10 -16 34 7 32 31 -1 19 -6 26 -8 12z"/>
<path d="M3422 2098 c2 -6 10 -14 16 -16 7 -2 10 2 6 12 -7 18 -28 22 -22 4z"/>
<path d="M3341 2083 c-7 -8 -10 -17 -6 -21 3 -3 9 -2 13 4 4 6 14 13 21 16 13
4 13 5 0 10 -8 3 -20 -1 -28 -9z"/>
<path d="M3650 2081 c0 -12 6 -21 15 -21 8 0 15 3 15 6 0 3 -7 12 -15 20 -13
14 -15 13 -15 -5z"/>
<path d="M3007 2083 c-11 -10 -8 -20 7 -26 10 -4 12 0 9 14 -6 21 -7 22 -16
12z"/>
<path d="M3545 2080 c3 -5 8 -10 11 -10 2 0 4 5 4 10 0 6 -5 10 -11 10 -5 0
-7 -4 -4 -10z"/>
<path d="M3050 2065 c-10 -12 -10 -15 3 -15 8 0 17 7 21 15 3 8 2 15 -3 15 -5
0 -14 -7 -21 -15z"/>
<path d="M3090 2070 c0 -5 5 -10 10 -10 6 0 10 5 10 10 0 6 -4 10 -10 10 -5 0
-10 -4 -10 -10z"/>
<path d="M3210 2065 c0 -8 5 -15 10 -15 6 0 10 7 10 15 0 8 -4 15 -10 15 -5 0
-10 -7 -10 -15z"/>
<path d="M3250 2071 c0 -15 23 -26 28 -13 2 7 8 10 13 6 5 -3 9 0 9 5 0 6 -11
11 -25 11 -14 0 -25 -4 -25 -9z"/>
<path d="M3390 2064 c0 -9 5 -14 12 -12 18 6 21 28 4 28 -9 0 -16 -7 -16 -16z"/>
<path d="M3600 2065 c0 -8 5 -15 10 -15 6 0 10 7 10 15 0 8 -4 15 -10 15 -5 0
-10 -7 -10 -15z"/>
<path d="M3715 2070 c-8 -13 -1 -24 14 -19 6 3 7 10 2 18 -6 10 -10 10 -16 1z"/>
<path d="M3120 2060 c0 -5 5 -10 11 -10 5 0 7 5 4 10 -3 6 -8 10 -11 10 -2 0
-4 -4 -4 -10z"/>
<path d="M2925 2050 c3 -5 8 -10 11 -10 2 0 4 5 4 10 0 6 -5 10 -11 10 -5 0
-7 -4 -4 -10z"/>
<path d="M3546 2053 c-14 -14 -5 -22 24 -21 17 1 29 6 27 11 -4 12 -41 19 -51
10z"/>
<path d="M2890 2040 c-9 -6 -10 -10 -3 -10 6 0 15 5 18 10 8 12 4 12 -15 0z"/>
<path d="M3004 2026 c1 -20 4 -22 19 -14 10 5 17 11 15 12 -1 1 -10 7 -19 14
-15 11 -17 9 -15 -12z"/>
<path d="M3083 2036 c-6 -8 -9 -17 -6 -20 7 -7 33 13 33 25 0 13 -13 10 -27
-5z"/>
<path d="M3360 2035 c0 -8 6 -15 14 -15 8 0 17 -6 19 -12 4 -10 8 -9 16 2 6 8
11 20 11 25 0 6 -4 4 -9 -4 -8 -12 -12 -12 -26 2 -20 21 -25 21 -25 2z"/>
<path d="M3480 2036 c0 -8 -2 -20 -5 -28 -6 -17 11 -45 22 -35 4 5 1 12 -7 17
-12 7 -12 12 -2 22 14 14 16 38 2 38 -5 0 -10 -6 -10 -14z"/>
<path d="M3270 2024 c0 -8 5 -12 10 -9 6 4 8 11 5 16 -9 14 -15 11 -15 -7z"/>
<path d="M3300 2032 c0 -15 11 -21 27 -15 12 5 12 7 1 14 -17 11 -28 11 -28 1z"/>
<path d="M3605 2027 c-4 -10 -5 -21 -1 -24 10 -10 18 4 13 24 -4 17 -4 17 -12
0z"/>
<path d="M3659 2023 c-13 -16 -12 -17 4 -4 9 7 17 15 17 17 0 8 -8 3 -21 -13z"/>
<path d="M3706 2032 c-3 -6 -1 -14 5 -17 15 -10 25 3 12 16 -7 7 -13 7 -17 1z"/>
<path d="M3188 2023 c7 -3 16 -2 19 1 4 3 -2 6 -13 5 -11 0 -14 -3 -6 -6z"/>
<path d="M3448 2023 c7 -3 16 -2 19 1 4 3 -2 6 -13 5 -11 0 -14 -3 -6 -6z"/>
<path d="M2860 2014 c0 -3 6 -12 14 -20 15 -15 30 -5 18 11 -8 11 -32 18 -32
9z"/>
<path d="M3120 2010 c0 -5 4 -10 9 -10 6 0 13 5 16 10 3 6 -1 10 -9 10 -9 0
-16 -4 -16 -10z"/>
<path d="M3530 2008 c0 -9 -6 -18 -12 -21 -7 -2 -10 -8 -6 -12 12 -13 37 20
27 36 -7 11 -9 11 -9 -3z"/>
<path d="M3560 2010 c0 -5 7 -10 15 -10 8 0 15 5 15 10 0 6 -7 10 -15 10 -8 0
-15 -4 -15 -10z"/>
<path d="M2969 2006 c-8 -8 3 -86 11 -81 4 2 5 21 3 42 -4 39 -7 46 -14 39z"/>
<path d="M3278 2003 c-22 -5 -24 -43 -3 -43 9 0 12 6 9 15 -4 10 0 15 16 15
11 0 18 5 15 10 -6 10 -9 11 -37 3z"/>
<path d="M3335 2000 c3 -5 8 -10 11 -10 2 0 4 5 4 10 0 6 -5 10 -11 10 -5 0
-7 -4 -4 -10z"/>
<path d="M2915 1990 c3 -5 8 -10 11 -10 2 0 4 5 4 10 0 6 -5 10 -11 10 -5 0
-7 -4 -4 -10z"/>
<path d="M2940 1985 c0 -12 -5 -26 -12 -33 -8 -8 -8 -12 -1 -12 21 0 35 28 24
47 -10 17 -10 17 -11 -2z"/>
<path d="M3087 1985 c3 -8 9 -12 14 -9 12 7 11 11 -5 17 -10 4 -13 1 -9 -8z"/>
<path d="M3195 1991 c-3 -5 -1 -12 5 -16 5 -3 10 1 10 9 0 18 -6 21 -15 7z"/>
<path d="M3630 1985 c0 -8 5 -15 10 -15 6 0 10 7 10 15 0 8 -4 15 -10 15 -5 0
-10 -7 -10 -15z"/>
<path d="M2783 1976 c-4 -5 -1 -6 4 -3 6 4 14 0 17 -9 8 -22 8 -22 -11 -27
-14 -4 -12 -5 5 -6 16 -1 22 5 22 19 0 11 5 20 10 20 6 0 10 3 10 8 0 10 -51
9 -57 -2z"/>
<path d="M3120 1980 c0 -5 5 -10 10 -10 6 0 10 5 10 10 0 6 -4 10 -10 10 -5 0
-10 -4 -10 -10z"/>
<path d="M3360 1980 c0 -5 5 -10 10 -10 6 0 10 5 10 10 0 6 -4 10 -10 10 -5 0
-10 -4 -10 -10z"/>
<path d="M3410 1982 c0 -7 -12 -24 -27 -38 -22 -20 -24 -27 -13 -37 8 -8 11
-8 6 0 -8 14 53 50 82 48 12 -1 28 -10 36 -21 8 -10 17 -16 20 -13 9 9 -4 40
-14 34 -4 -3 -13 2 -20 10 -8 10 -21 13 -33 9 -12 -4 -23 -1 -28 7 -7 11 -9
11 -9 1z"/>
<path d="M3570 1984 c0 -3 7 -12 15 -20 16 -17 18 -14 9 10 -6 15 -24 23 -24
10z"/>
<path d="M3016 1971 c-4 -7 -5 -15 -2 -18 9 -9 19 4 14 18 -4 11 -6 11 -12 0z"/>
<path d="M2731 1956 c-9 -11 -9 -15 1 -18 12 -4 38 14 38 26 0 12 -28 6 -39
-8z"/>
<path d="M2850 1966 c0 -2 7 -9 15 -16 9 -7 15 -8 15 -2 0 5 -7 12 -15 16 -8
3 -15 4 -15 2z"/>
<path d="M3050 1962 c0 -12 35 -52 45 -52 5 0 -2 11 -14 24 -17 18 -19 25 -9
29 9 4 7 6 -4 6 -10 1 -18 -3 -18 -7z"/>
<path d="M3300 1964 c0 -6 11 -16 25 -22 21 -10 25 -9 25 4 0 10 -6 14 -14 11
-7 -3 -19 0 -25 6 -7 7 -11 7 -11 1z"/>
<path d="M3654 1959 c-3 -5 2 -6 10 -3 9 3 16 1 16 -5 0 -18 -29 -25 -45 -11
-12 10 -15 9 -15 -8 0 -15 5 -20 15 -16 18 7 20 -7 3 -24 -9 -9 -9 -12 0 -12
6 0 19 14 27 31 12 22 22 29 38 27 13 -2 22 2 22 11 0 15 -62 24 -71 10z"/>
<path d="M3220 1950 c0 -5 5 -10 10 -10 6 0 10 5 10 10 0 6 -4 10 -10 10 -5 0
-10 -4 -10 -10z"/>
<path d="M2834 1939 c-3 -6 -1 -16 5 -22 8 -8 11 -5 11 11 0 24 -5 28 -16 11z"/>
<path d="M3111 1934 c11 -14 11 -18 -4 -29 -18 -13 -22 -25 -9 -25 4 0 13 9
19 20 13 20 8 50 -9 50 -6 0 -4 -7 3 -16z"/>
<path d="M3195 1941 c-3 -5 -1 -12 5 -16 5 -3 10 1 10 9 0 18 -6 21 -15 7z"/>
<path d="M3550 1940 c-8 -5 -10 -10 -5 -10 6 0 17 5 25 10 8 5 11 10 5 10 -5
0 -17 -5 -25 -10z"/>
<path d="M3287 1920 c10 -11 21 -20 25 -20 15 0 8 28 -8 34 -28 11 -34 6 -17
-14z"/>
<path d="M2700 1912 c0 -12 3 -12 15 -2 8 7 15 13 15 15 0 1 -7 2 -15 2 -8 0
-15 -7 -15 -15z"/>
<path d="M2865 1920 c-3 -6 0 -10 8 -10 7 0 19 -11 25 -25 10 -21 15 -24 31
-16 13 7 17 18 14 31 -3 11 -9 17 -14 15 -4 -3 -6 -12 -2 -20 3 -8 0 -15 -6
-15 -6 0 -11 6 -11 13 0 17 -37 39 -45 27z"/>
<path d="M3165 1920 c-3 -5 -1 -10 4 -10 6 0 11 5 11 10 0 6 -2 10 -4 10 -3 0
-8 -4 -11 -10z"/>
<path d="M3216 1915 c-4 -13 -2 -14 14 -5 23 13 26 20 6 20 -8 0 -16 -7 -20
-15z"/>
<path d="M2750 1912 c0 -18 15 -22 46 -12 23 7 25 8 7 9 -12 1 -28 4 -37 7 -9
3 -16 1 -16 -4z"/>
<path d="M3019 1899 c-8 -17 -8 -20 2 -17 7 2 13 12 15 21 3 23 -3 21 -17 -4z"/>
<path d="M3431 1913 c-1 -17 11 -22 34 -12 19 9 19 9 -2 5 -12 -2 -24 1 -27 8
-3 8 -5 8 -5 -1z"/>
<path d="M2625 1896 c-18 -13 -18 -14 8 -9 15 3 24 9 21 14 -7 12 -7 12 -29
-5z"/>
<path d="M2836 1881 c-18 -20 -12 -53 8 -45 8 3 11 15 8 31 -4 22 -2 25 12 20
10 -4 15 -3 11 3 -9 15 -20 12 -39 -9z"/>
<path d="M2980 1890 c0 -5 5 -10 10 -10 6 0 10 5 10 10 0 6 -4 10 -10 10 -5 0
-10 -4 -10 -10z"/>
<path d="M3190 1890 c0 -5 5 -10 11 -10 5 0 7 5 4 10 -3 6 -8 10 -11 10 -2 0
-4 -4 -4 -10z"/>
<path d="M3390 1890 c0 -5 5 -10 10 -10 6 0 10 5 10 10 0 6 -4 10 -10 10 -5 0
-10 -4 -10 -10z"/>
<path d="M2685 1881 c-3 -5 -1 -12 4 -15 5 -3 11 1 15 9 6 16 -9 21 -19 6z"/>
<path d="M3130 1875 c-9 -11 -9 -17 2 -28 11 -12 16 -12 27 0 7 8 10 17 6 21
-3 3 -11 0 -16 -8 -8 -12 -10 -10 -6 8 6 26 4 27 -13 7z"/>
<path d="M3247 1883 c-4 -3 -7 -11 -7 -17 0 -6 5 -5 12 2 6 6 9 14 7 17 -3 3
-9 2 -12 -2z"/>
<path d="M3351 1873 c-12 -13 -11 -14 8 -8 14 4 21 2 21 -6 0 -7 2 -10 5 -7 7
6 -5 38 -14 38 -3 -1 -12 -8 -20 -17z"/>
<path d="M3679 1889 c-6 -29 -3 -49 6 -49 12 0 14 35 2 46 -4 4 -7 5 -8 3z"/>
<path d="M2545 1870 c3 -5 11 -10 16 -10 6 0 7 5 4 10 -3 6 -11 10 -16 10 -6
0 -7 -4 -4 -10z"/>
<path d="M3050 1874 c0 -13 34 -32 47 -27 21 8 15 25 -7 18 -11 -4 -20 -2 -20
4 0 6 -4 11 -10 11 -5 0 -10 -3 -10 -6z"/>
<path d="M3426 1867 c3 -10 9 -15 12 -12 3 3 0 11 -7 18 -10 9 -11 8 -5 -6z"/>
<path d="M3462 1868 c2 -6 10 -14 16 -16 7 -2 10 2 6 12 -7 18 -28 22 -22 4z"/>
<path d="M3570 1866 c0 -23 63 -36 83 -16 5 4 -4 5 -19 2 -18 -3 -29 0 -36 12
-11 20 -28 21 -28 2z"/>
<path d="M2616 1854 c-9 -25 -7 -27 11 -13 9 8 18 13 20 12 9 -7 23 -2 23 8 0
8 -5 8 -15 -1 -10 -9 -15 -9 -15 -1 0 17 -17 13 -24 -5z"/>
<path d="M3290 1855 c0 -8 7 -15 16 -15 14 0 14 3 4 15 -7 8 -14 15 -16 15 -2
0 -4 -7 -4 -15z"/>
<path d="M3500 1859 c0 -4 11 -6 25 -6 14 0 25 3 25 8 0 5 -11 8 -25 7 -14 -1
-25 -5 -25 -9z"/>
<path d="M2981 1843 c11 -13 11 -17 2 -20 -7 -3 -13 -9 -13 -15 0 -6 6 -6 15
2 20 17 19 50 -1 50 -14 0 -15 -2 -3 -17z"/>
<path d="M2545 1840 c-4 -6 -11 -8 -16 -5 -14 9 -11 -1 5 -14 11 -9 15 -7 19
9 6 22 2 26 -8 10z"/>
<path d="M2663 1826 c-15 -13 -25 -27 -21 -31 4 -4 18 5 32 20 13 14 27 26 31
25 4 -1 9 1 13 4 3 3 -2 6 -11 6 -9 0 -29 -11 -44 -24z"/>
<path d="M2876 1843 c-11 -11 -6 -23 9 -23 8 0 15 4 15 9 0 13 -16 22 -24 14z"/>
<path d="M2930 1830 c0 -11 2 -20 4 -20 2 0 6 9 9 20 3 11 1 20 -4 20 -5 0 -9
-9 -9 -20z"/>
<path d="M3250 1847 c0 -2 9 -14 20 -27 11 -13 20 -18 20 -12 0 6 -5 14 -10
17 -6 4 -8 11 -5 16 4 5 -1 9 -9 9 -9 0 -16 -2 -16 -3z"/>
<path d="M2726 1832 c-3 -4 11 -9 30 -9 19 -1 34 3 34 8 0 11 -57 12 -64 1z"/>
<path d="M3010 1830 c0 -5 4 -10 9 -10 5 0 18 -3 28 -6 16 -6 16 -5 -2 9 -23
19 -35 21 -35 7z"/>
<path d="M3110 1831 c0 -6 -7 -11 -15 -11 -17 0 -11 -16 19 -55 13 -16 15 -17
10 -2 -3 9 -1 24 6 32 9 11 9 15 1 15 -7 0 -10 4 -6 9 3 5 1 12 -5 16 -5 3
-10 1 -10 -4z m10 -31 c0 -5 -4 -10 -10 -10 -5 0 -10 5 -10 10 0 6 5 10 10 10
6 0 10 -4 10 -10z"/>
<path d="M3200 1831 c0 -7 -4 -9 -10 -6 -5 3 -10 -2 -10 -12 0 -16 1 -16 17 0
9 9 14 20 10 23 -4 4 -7 2 -7 -5z"/>
<path d="M3227 1833 c-3 -5 -1 -17 4 -28 7 -17 8 -17 8 8 1 27 -4 34 -12 20z"/>
<path d="M3340 1830 c0 -5 6 -11 13 -14 6 -4 2 -4 -10 -2 -28 5 -29 2 -1 -23
16 -16 18 -23 10 -34 -7 -8 -9 -17 -5 -20 3 -4 11 3 17 15 16 32 36 35 30 4
-2 -13 0 -28 6 -31 6 -3 10 4 10 19 0 13 3 31 6 40 5 13 1 14 -25 6 -31 -9
-36 -4 -25 23 4 11 12 13 33 7 19 -5 28 -4 28 4 0 8 -17 13 -44 13 -23 1 -43
-3 -43 -7z"/>
<path d="M3450 1831 c0 -5 -3 -17 -6 -25 -5 -12 -2 -15 10 -10 17 7 22 44 6
44 -5 0 -10 -4 -10 -9z"/>
<path d="M3510 1831 c0 -5 6 -12 13 -14 9 -4 8 -8 -3 -16 -8 -6 -10 -11 -4
-11 20 0 34 23 23 37 -13 15 -29 17 -29 4z"/>
<path d="M3560 1830 c0 -5 5 -10 11 -10 5 0 7 5 4 10 -3 6 -8 10 -11 10 -2 0
-4 -4 -4 -10z"/>
<path d="M2571 1814 c0 -11 3 -14 6 -6 3 7 2 16 -1 19 -3 4 -6 -2 -5 -13z"/>
<path d="M3560 1800 c0 -5 5 -10 10 -10 6 0 10 5 10 10 0 6 -4 10 -10 10 -5 0
-10 -4 -10 -10z"/>
<path d="M3700 1800 c19 -13 30 -13 30 0 0 6 -10 10 -22 10 -19 0 -20 -2 -8
-10z"/>
<path d="M2530 1792 c0 -5 9 -17 20 -27 19 -17 19 -17 7 9 -12 25 -27 35 -27
18z"/>
<path d="M2700 1779 c0 -16 -3 -19 -12 -11 -9 7 -17 6 -26 -4 -7 -8 -8 -14 -2
-14 5 0 10 -7 10 -15 0 -8 -4 -15 -10 -15 -5 0 -10 5 -10 11 0 5 -5 7 -11 4
-6 -4 3 -17 23 -30 36 -25 49 -25 28 0 -7 9 -10 18 -7 22 4 3 1 13 -6 21 -10
13 -9 15 4 10 18 -7 39 9 39 29 0 7 -4 13 -10 13 -5 0 -10 -10 -10 -21z"/>
<path d="M2757 1794 c-3 -3 -3 -12 0 -20 3 -8 -1 -14 -8 -15 -8 0 -4 -4 9 -10
13 -5 21 -13 17 -18 -3 -5 0 -13 6 -17 9 -5 10 0 5 17 -4 13 -9 32 -10 41 -3
21 -11 30 -19 22z"/>
<path d="M2867 1793 c-11 -10 -8 -20 7 -26 10 -4 14 0 13 14 -1 20 -9 24 -20
12z"/>
<path d="M2920 1773 c0 -10 5 -25 10 -33 7 -11 10 -7 10 18 0 17 -4 32 -10 32
-5 0 -10 -8 -10 -17z"/>
<path d="M3037 1783 c-7 -7 38 -33 57 -33 6 0 0 9 -14 20 -27 21 -33 23 -43
13z"/>
<path d="M3150 1784 c0 -3 7 -12 15 -20 16 -17 18 -14 9 10 -6 15 -24 23 -24
10z"/>
<path d="M3470 1786 c0 -2 7 -6 15 -10 8 -3 15 -1 15 4 0 6 -7 10 -15 10 -8 0
-15 -2 -15 -4z"/>
<path d="M3642 1778 c5 -15 28 -23 28 -10 0 5 -7 13 -16 16 -10 4 -14 1 -12
-6z"/>
<path d="M2400 1776 c0 -2 7 -7 16 -10 8 -3 12 -2 9 4 -6 10 -25 14 -25 6z"/>
<path d="M2580 1770 c0 -5 7 -10 15 -10 8 0 15 5 15 10 0 6 -7 10 -15 10 -8 0
-15 -4 -15 -10z"/>
<path d="M2810 1771 c0 -5 9 -13 20 -16 11 -4 18 -10 16 -14 -3 -4 4 -13 14
-21 10 -8 17 -17 14 -22 -3 -4 0 -8 6 -8 18 0 1 40 -29 66 -28 25 -41 30 -41
15z"/>
<path d="M2965 1770 c-3 -5 3 -10 15 -10 12 0 18 5 15 10 -3 6 -10 10 -15 10
-5 0 -12 -4 -15 -10z"/>
<path d="M3220 1772 c0 -6 -7 -9 -15 -6 -11 5 -13 2 -9 -10 5 -13 9 -14 20 -5
11 9 18 8 31 -2 11 -10 14 -10 9 -1 -4 6 -2 12 3 12 6 0 11 5 11 11 0 8 -4 8
-13 0 -10 -8 -17 -7 -25 1 -9 9 -12 9 -12 0z"/>
<path d="M3289 1773 c0 -5 -2 -15 -4 -24 -1 -9 2 -23 7 -30 8 -11 9 -10 4 3
-3 10 1 24 9 32 8 8 15 17 15 20 0 9 -30 7 -31 -1z"/>
<path d="M3440 1765 c0 -8 5 -15 10 -15 6 0 10 7 10 15 0 8 -4 15 -10 15 -5 0
-10 -7 -10 -15z"/>
<path d="M3530 1770 c-8 -5 -11 -12 -7 -16 4 -4 15 0 24 9 18 18 8 23 -17 7z"/>
<path d="M3038 1751 c8 -4 13 -11 13 -15 -3 -24 0 -46 8 -46 9 0 7 43 -4 59
-3 6 -12 11 -18 11 -8 0 -8 -3 1 -9z"/>
<path d="M3480 1741 c0 -11 5 -23 10 -26 6 -3 10 1 10 9 0 9 0 19 1 23 0 4 -4
9 -10 11 -6 2 -11 -5 -11 -17z"/>
<path d="M3140 1740 c0 -5 5 -10 10 -10 6 0 10 5 10 10 0 6 -4 10 -10 10 -5 0
-10 -4 -10 -10z"/>
<path d="M3564 1734 c17 -16 36 -11 36 9 0 8 -3 8 -9 -2 -6 -9 -11 -10 -15 -2
-4 6 -12 11 -17 11 -6 0 -3 -7 5 -16z"/>
<path d="M3620 1740 c0 -5 7 -10 16 -10 8 0 12 5 9 10 -3 6 -10 10 -16 10 -5
0 -9 -4 -9 -10z"/>
<path d="M3705 1740 c-3 -5 1 -10 9 -10 9 0 16 5 16 10 0 6 -4 10 -9 10 -6 0
-13 -4 -16 -10z"/>
<path d="M2805 1731 c-3 -5 -1 -12 5 -16 5 -3 10 1 10 9 0 18 -6 21 -15 7z"/>
<path d="M3103 1724 c-15 -16 -16 -24 -4 -24 8 0 24 30 19 35 -2 2 -9 -3 -15
-11z"/>
<path d="M2567 1723 c-12 -11 -8 -23 7 -23 8 0 16 7 20 15 5 15 -14 21 -27 8z"/>
<path d="M2700 1720 c0 -5 5 -10 10 -10 6 0 10 5 10 10 0 6 -4 10 -10 10 -5 0
-10 -4 -10 -10z"/>
<path d="M2740 1715 c0 -8 5 -15 10 -15 6 0 10 7 10 15 0 8 -4 15 -10 15 -5 0
-10 -7 -10 -15z"/>
<path d="M3160 1720 c-8 -5 -11 -12 -7 -16 4 -4 15 0 24 9 18 18 8 23 -17 7z"/>
<path d="M2910 1710 c0 -5 5 -10 10 -10 6 0 10 5 10 10 0 6 -4 10 -10 10 -5 0
-10 -4 -10 -10z"/>
<path d="M3003 1713 c-7 -2 -13 -12 -13 -20 0 -10 6 -13 16 -9 9 3 18 6 20 6
2 0 4 7 4 15 0 15 -6 17 -27 8z"/>
<path d="M3360 1710 c0 -5 5 -10 10 -10 6 0 10 5 10 10 0 6 -4 10 -10 10 -5 0
-10 -4 -10 -10z"/>
<path d="M3625 1710 c-3 -5 1 -10 9 -10 9 0 16 5 16 10 0 6 -4 10 -9 10 -6 0
-13 -4 -16 -10z"/>
<path d="M3672 1699 c-7 -12 -11 -24 -7 -27 7 -8 25 17 25 36 0 17 -3 15 -18
-9z"/>
<path d="M2835 1700 c3 -5 8 -10 11 -10 2 0 4 5 4 10 0 6 -5 10 -11 10 -5 0
-7 -4 -4 -10z"/>
<path d="M3460 1696 c0 -8 4 -17 9 -20 10 -7 23 19 14 28 -11 11 -23 6 -23 -8z"/>
<path d="M3545 1700 c-3 -5 -1 -10 4 -10 6 0 11 5 11 10 0 6 -2 10 -4 10 -3 0
-8 -4 -11 -10z"/>
<path d="M3585 1700 c-3 -5 1 -10 10 -10 9 0 13 5 10 10 -3 6 -8 10 -10 10 -2
0 -7 -4 -10 -10z"/>
<path d="M3710 1690 c0 -19 3 -21 12 -12 9 9 9 15 0 24 -9 9 -12 7 -12 -12z"/>
<path d="M2633 1693 c-15 -5 -17 -43 -3 -43 6 0 10 10 11 23 1 20 2 20 12 -5
12 -32 19 -34 37 -13 11 13 10 14 -4 9 -10 -4 -16 -1 -16 9 0 17 -18 26 -37
20z"/>
<path d="M2800 1691 c0 -5 5 -13 10 -16 6 -3 10 -2 10 4 0 5 -4 13 -10 16 -5
3 -10 2 -10 -4z"/>
<path d="M3180 1692 c0 -4 9 -13 20 -20 19 -12 20 -11 8 8 -13 20 -28 27 -28
12z"/>
<path d="M3287 1694 c-9 -10 7 -74 19 -74 8 0 14 4 14 9 0 12 49 20 56 9 6
-10 24 -1 24 13 0 5 -18 8 -40 7 -22 -2 -40 -6 -40 -10 0 -19 -18 -6 -22 16
-4 20 -1 24 21 22 14 0 30 -5 34 -11 5 -6 7 -4 5 5 -4 13 -60 24 -71 14z"/>
<path d="M3387 1687 c-3 -8 4 -14 19 -15 13 -1 24 3 24 9 0 5 -4 7 -10 4 -5
-3 -10 -1 -10 4 0 15 -17 14 -23 -2z"/>
<path d="M2900 1682 c0 -7 -10 -13 -22 -13 -19 -1 -20 -2 -4 -6 20 -5 44 12
33 24 -4 3 -7 1 -7 -5z"/>
<path d="M3073 1674 c-15 -16 -16 -24 -4 -24 8 0 24 30 19 35 -2 2 -9 -3 -15
-11z"/>
<path d="M3136 1678 c5 -8 2 -9 -11 -4 -15 5 -16 4 -5 -9 7 -8 16 -12 21 -9
13 7 11 34 -2 34 -5 0 -7 -5 -3 -12z"/>
<path d="M3500 1670 c0 -19 3 -21 12 -12 9 9 9 15 0 24 -9 9 -12 7 -12 -12z"/>
<path d="M2757 1663 c4 -10 11 -21 17 -25 11 -7 36 9 36 23 0 16 -18 9 -23 -8
-4 -15 -6 -15 -12 5 -4 12 -11 22 -16 22 -5 0 -5 -8 -2 -17z"/>
<path d="M2722 1650 c13 -20 28 -27 28 -12 0 4 -9 13 -20 20 -19 12 -20 11 -8
-8z"/>
<path d="M2820 1662 c0 -5 7 -16 16 -23 14 -12 16 -11 13 5 -4 20 -29 35 -29
18z"/>
<path d="M2950 1660 c0 -5 4 -10 9 -10 6 0 13 5 16 10 3 6 -1 10 -9 10 -9 0
-16 -4 -16 -10z"/>
<path d="M3568 1663 c-10 -2 -18 -9 -18 -14 0 -5 -7 -9 -17 -9 -9 0 -14 -3
-11 -6 8 -7 86 14 93 26 6 10 -16 11 -47 3z"/>
<path d="M3180 1650 c0 -5 7 -10 16 -10 8 0 12 5 9 10 -3 6 -10 10 -16 10 -5
0 -9 -4 -9 -10z"/>
<path d="M3255 1650 c-3 -5 -1 -10 4 -10 6 0 11 5 11 10 0 6 -2 10 -4 10 -3 0
-8 -4 -11 -10z"/>
<path d="M3450 1650 c0 -5 5 -10 10 -10 6 0 10 5 10 10 0 6 -4 10 -10 10 -5 0
-10 -4 -10 -10z"/>
<path d="M3626 1634 c-4 -14 -5 -29 -1 -32 3 -3 5 2 5 11 0 25 18 20 22 -5 l3
-23 7 22 c4 14 0 27 -12 38 -16 15 -18 14 -24 -11z"/>
<path d="M3676 1646 c3 -8 12 -12 20 -9 17 6 9 23 -11 23 -8 0 -12 -6 -9 -14z"/>
<path d="M2880 1641 c-14 -4 -20 -10 -14 -13 5 -4 16 -3 23 1 7 5 22 6 34 3
14 -3 18 -1 13 6 -8 13 -18 14 -56 3z"/>
<path d="M3030 1636 c0 -9 5 -16 10 -16 6 0 10 4 10 9 0 6 -4 13 -10 16 -5 3
-10 -1 -10 -9z"/>
<path d="M2695 1630 c3 -5 10 -10 16 -10 5 0 9 5 9 10 0 6 -7 10 -16 10 -8 0
-12 -4 -9 -10z"/>
<path d="M3115 1630 c4 -6 11 -8 16 -5 14 9 11 15 -7 15 -8 0 -12 -5 -9 -10z"/>
<path d="M3480 1630 c0 -5 5 -10 10 -10 6 0 10 5 10 10 0 6 -4 10 -10 10 -5 0
-10 -4 -10 -10z"/>
<path d="M2650 1612 c6 -13 14 -21 18 -18 3 4 -2 14 -12 24 -18 16 -18 16 -6
-6z"/>
<path d="M3070 1620 c0 -5 5 -10 10 -10 6 0 10 5 10 10 0 6 -4 10 -10 10 -5 0
-10 -4 -10 -10z"/>
<path d="M3167 1624 c-4 -4 -7 -14 -7 -23 0 -11 3 -12 11 -4 6 6 10 16 7 23
-2 6 -7 8 -11 4z"/>
<path d="M3195 1620 c-3 -5 3 -10 14 -10 12 0 21 5 21 10 0 6 -6 10 -14 10 -8
0 -18 -4 -21 -10z"/>
<path d="M3250 1610 c6 -11 15 -18 21 -15 13 9 11 13 -12 25 -19 11 -20 10 -9
-10z"/>
<path d="M3330 1620 c0 -5 5 -10 10 -10 6 0 10 5 10 10 0 6 -4 10 -10 10 -5 0
-10 -4 -10 -10z"/>
<path d="M3387 1623 c-11 -10 -8 -43 3 -43 5 0 7 7 4 15 -4 8 -1 15 5 15 6 0
11 5 11 10 0 11 -13 13 -23 3z"/>
<path d="M3431 1616 c-8 -9 -10 -20 -6 -24 4 -4 10 -1 12 5 3 9 10 10 23 3 13
-7 21 -7 25 0 3 5 -3 10 -14 10 -10 0 -21 5 -23 11 -2 7 -9 5 -17 -5z"/>
<path d="M2741 1601 c-15 -11 -20 -21 -13 -25 6 -3 15 1 20 10 6 11 16 15 27
10 15 -5 16 -4 5 9 -15 18 -10 18 -39 -4z"/>
<path d="M2827 1601 c4 -17 8 -18 24 -8 18 11 18 12 1 19 -27 11 -30 9 -25
-11z"/>
<path d="M3521 1604 c13 -16 29 -19 29 -5 0 5 -9 11 -21 14 -16 4 -18 3 -8 -9z"/>
<path d="M2000 1606 c0 -2 7 -7 16 -10 8 -3 12 -2 9 4 -6 10 -25 14 -25 6z"/>
<path d="M2880 1599 c0 -5 5 -7 10 -4 6 3 10 8 10 11 0 2 -4 4 -10 4 -5 0 -10
-5 -10 -11z"/>
<path d="M3296 1594 c-5 -14 -4 -15 8 -5 10 8 16 9 19 1 3 -6 4 -5 3 2 -4 19
-23 20 -30 2z"/>
<path d="M2910 1586 c0 -8 7 -16 15 -20 17 -6 18 -4 9 18 -8 20 -24 21 -24 2z"/>
<path d="M2982 1588 c2 -5 7 -9 11 -9 4 1 16 1 28 1 11 0 18 4 15 9 -8 12 -58
11 -54 -1z"/>
<path d="M3110 1589 c0 -6 -8 -9 -19 -6 -17 4 -18 2 -8 -14 15 -24 24 -24 37
0 7 13 7 22 0 26 -5 3 -10 1 -10 -6z"/>
<path d="M3215 1590 c-3 -5 -1 -10 4 -10 6 0 11 5 11 10 0 6 -2 10 -4 10 -3 0
-8 -4 -11 -10z"/>
<path d="M3570 1590 c0 -5 5 -10 10 -10 6 0 10 5 10 10 0 6 -4 10 -10 10 -5 0
-10 -4 -10 -10z"/>
<path d="M3720 1590 c0 -5 5 -10 10 -10 6 0 10 5 10 10 0 6 -4 10 -10 10 -5 0
-10 -4 -10 -10z"/>
<path d="M2637 1560 c17 -30 25 -35 35 -24 6 5 -38 54 -48 54 -3 0 3 -13 13
-30z"/>
<path d="M3250 1565 c-10 -12 -10 -15 3 -15 8 0 17 7 21 15 3 8 2 15 -3 15 -5
0 -14 -7 -21 -15z"/>
<path d="M3440 1573 c-8 -3 -19 -12 -23 -19 -11 -19 -37 -18 -37 1 0 8 -4 15
-10 15 -15 0 -12 -12 11 -39 20 -25 29 -22 42 14 3 6 15 6 35 -2 18 -6 32 -7
32 -2 0 5 -4 9 -10 9 -5 0 -10 7 -10 15 0 16 -5 17 -30 8z"/>
<path d="M3545 1570 c3 -5 8 -10 11 -10 2 0 4 5 4 10 0 6 -5 10 -11 10 -5 0
-7 -4 -4 -10z"/>
<path d="M2770 1562 c0 -5 11 -19 25 -32 l25 -23 0 21 c0 13 6 22 15 22 8 0
15 5 15 10 0 15 -16 12 -34 -6 -15 -14 -17 -14 -22 0 -6 17 -24 22 -24 8z"/>
<path d="M2966 1557 c3 -10 9 -15 12 -12 3 3 0 11 -7 18 -10 9 -11 8 -5 -6z"/>
<path d="M3030 1560 c0 -5 7 -10 16 -10 8 0 12 5 9 10 -3 6 -10 10 -16 10 -5
0 -9 -4 -9 -10z"/>
<path d="M3200 1560 c0 -5 5 -10 11 -10 5 0 7 5 4 10 -3 6 -8 10 -11 10 -2 0
-4 -4 -4 -10z"/>
<path d="M3311 1563 c-1 -6 -10 -15 -21 -18 -11 -3 -20 -11 -20 -16 0 -14 28
-11 33 4 3 9 8 8 23 -3 17 -13 18 -13 8 0 -6 8 -14 22 -17 30 -3 8 -6 10 -6 3z"/>
<path d="M3330 1560 c0 -5 5 -10 10 -10 6 0 10 5 10 10 0 6 -4 10 -10 10 -5 0
-10 -4 -10 -10z"/>
<path d="M3618 1545 c-4 -19 -1 -25 13 -25 11 0 22 0 26 -1 4 0 9 5 11 11 3 8
-3 10 -18 5 -19 -6 -21 -4 -15 14 3 12 2 21 -3 21 -5 0 -12 -11 -14 -25z"/>
<path d="M3675 1560 c-3 -5 -1 -10 4 -10 6 0 11 5 11 10 0 6 -2 10 -4 10 -3 0
-8 -4 -11 -10z"/>
<path d="M3150 1546 c0 -9 5 -16 10 -16 6 0 10 4 10 9 0 6 -4 13 -10 16 -5 3
-10 -1 -10 -9z"/>
<path d="M2616 1534 c-4 -10 -1 -14 6 -12 15 5 23 28 10 28 -5 0 -13 -7 -16
-16z"/>
<path d="M2715 1540 c3 -5 8 -10 11 -10 2 0 4 5 4 10 0 6 -5 10 -11 10 -5 0
-7 -4 -4 -10z"/>
<path d="M2745 1540 c3 -5 11 -10 16 -10 6 0 7 5 4 10 -3 6 -11 10 -16 10 -6
0 -7 -4 -4 -10z"/>
<path d="M2865 1540 c3 -5 13 -10 21 -10 8 0 14 5 14 10 0 6 -9 10 -21 10 -11
0 -17 -4 -14 -10z"/>
<path d="M2915 1539 c-11 -17 1 -21 15 -4 8 9 8 15 2 15 -6 0 -14 -5 -17 -11z"/>
<path d="M3515 1540 c-7 -11 12 -40 25 -40 15 0 21 33 8 42 -17 11 -26 10 -33
-2z m25 -10 c0 -5 -4 -10 -10 -10 -5 0 -10 5 -10 10 0 6 5 10 10 10 6 0 10 -4
10 -10z"/>
<path d="M2998 1526 c-18 -13 -14 -26 8 -26 7 0 12 9 11 20 -1 11 -1 20 -2 20
0 0 -8 -7 -17 -14z"/>
<path d="M3074 1531 c4 -5 1 -12 -4 -14 -6 -3 -5 -4 2 -3 15 3 23 26 8 26 -6
0 -9 -4 -6 -9z"/>
<path d="M3106 1524 c-9 -24 0 -29 19 -11 19 19 19 27 1 27 -8 0 -17 -7 -20
-16z"/>
<path d="M3215 1530 c-3 -5 1 -10 9 -10 9 0 16 5 16 10 0 6 -4 10 -9 10 -6 0
-13 -4 -16 -10z"/>
<path d="M3350 1525 c0 -8 4 -15 10 -15 5 0 7 7 4 15 -4 8 -8 15 -10 15 -2 0
-4 -7 -4 -15z"/>
<path d="M3695 1530 c-3 -5 -2 -10 4 -10 5 0 13 5 16 10 3 6 2 10 -4 10 -5 0
-13 -4 -16 -10z"/>
<path d="M3180 1515 c0 -8 5 -15 10 -15 6 0 10 7 10 15 0 8 -4 15 -10 15 -5 0
-10 -7 -10 -15z"/>
<path d="M2754 1485 c6 -19 14 -35 18 -35 3 0 1 16 -5 35 -6 19 -13 35 -17 35
-4 0 -2 -16 4 -35z"/>
<path d="M2865 1510 c3 -5 8 -10 11 -10 2 0 4 5 4 10 0 6 -5 10 -11 10 -5 0
-7 -4 -4 -10z"/>
<path d="M2930 1509 c0 -5 5 -7 10 -4 6 3 10 8 10 11 0 2 -4 4 -10 4 -5 0 -10
-5 -10 -11z"/>
<path d="M3420 1511 c0 -14 25 -20 41 -11 7 5 10 12 6 17 -5 4 -12 1 -17 -7
-7 -10 -10 -11 -10 -2 0 6 -4 12 -10 12 -5 0 -10 -4 -10 -9z"/>
<path d="M2607 1503 c-3 -5 -1 -17 4 -28 7 -18 8 -18 8 -2 1 12 5 16 14 11 8
-5 8 -2 -2 9 -15 19 -18 20 -24 10z"/>
<path d="M2700 1492 c0 -11 -5 -24 -10 -27 -6 -4 -8 -11 -5 -16 9 -13 32 12
30 33 -2 26 -15 35 -15 10z"/>
<path d="M3030 1500 c0 -5 5 -10 10 -10 6 0 10 5 10 10 0 6 -4 10 -10 10 -5 0
-10 -4 -10 -10z"/>
<path d="M3210 1495 c0 -8 5 -15 10 -15 6 0 10 7 10 15 0 8 -4 15 -10 15 -5 0
-10 -7 -10 -15z"/>
<path d="M3581 1492 c-13 -25 -14 -32 -2 -32 9 0 23 41 16 48 -2 2 -8 -5 -14
-16z"/>
<path d="M2835 1490 c3 -5 8 -10 11 -10 2 0 4 5 4 10 0 6 -5 10 -11 10 -5 0
-7 -4 -4 -10z"/>
<path d="M2963 1485 c0 -8 4 -15 9 -15 4 0 8 7 8 15 0 8 -4 15 -8 15 -5 0 -9
-7 -9 -15z"/>
<path d="M3330 1480 c0 -11 6 -20 14 -20 9 0 12 7 9 20 -3 11 -9 20 -14 20 -5
0 -9 -9 -9 -20z"/>
<path d="M3673 1486 c4 -14 47 -21 47 -8 0 5 -11 12 -25 15 -16 3 -24 0 -22
-7z"/>
<path d="M2650 1475 c0 -8 5 -15 10 -15 6 0 10 7 10 15 0 8 -4 15 -10 15 -5 0
-10 -7 -10 -15z"/>
<path d="M2880 1482 c0 -5 7 -9 15 -9 8 0 12 4 9 9 -3 4 -9 8 -15 8 -5 0 -9
-4 -9 -8z"/>
<path d="M2920 1480 c0 -5 7 -7 15 -4 8 4 15 8 15 10 0 2 -7 4 -15 4 -8 0 -15
-4 -15 -10z"/>
<path d="M3000 1470 c0 -11 4 -20 9 -20 5 0 16 -3 25 -6 10 -4 16 -1 16 10 0
10 -6 13 -15 10 -9 -4 -15 0 -15 10 0 9 -4 16 -10 16 -5 0 -10 -9 -10 -20z"/>
<path d="M3071 1481 c-12 -8 -12 -12 2 -26 16 -15 17 -15 17 9 0 29 0 29 -19
17z"/>
<path d="M3240 1480 c0 -5 7 -10 15 -10 8 0 15 5 15 10 0 6 -7 10 -15 10 -8 0
-15 -4 -15 -10z"/>
<path d="M3527 1471 c-3 -11 1 -26 9 -32 21 -18 26 -6 10 25 -12 25 -14 25
-19 7z"/>
<path d="M3375 1470 c-3 -5 1 -10 10 -10 9 0 13 5 10 10 -3 6 -8 10 -10 10 -2
0 -7 -4 -10 -10z"/>
<path d="M3430 1470 c0 -5 7 -10 15 -10 8 0 15 5 15 10 0 6 -7 10 -15 10 -8 0
-15 -4 -15 -10z"/>
<path d="M1726 1457 c3 -10 9 -15 12 -12 3 3 0 11 -7 18 -10 9 -11 8 -5 -6z"/>
<path d="M3104 1459 c-3 -6 0 -15 7 -20 29 -18 39 -7 15 17 -11 10 -17 11 -22
3z"/>
<path d="M3470 1456 c0 -9 5 -16 10 -16 6 0 10 4 10 9 0 6 -4 13 -10 16 -5 3
-10 -1 -10 -9z"/>
<path d="M2636 1447 c3 -10 9 -15 12 -12 3 3 0 11 -7 18 -10 9 -11 8 -5 -6z"/>
<path d="M2839 1446 c19 -23 47 -26 47 -5 0 14 -3 16 -15 6 -11 -9 -15 -9 -18
1 -3 6 -9 12 -15 12 -7 0 -6 -5 1 -14z"/>
<path d="M2915 1450 c3 -5 12 -10 20 -10 8 0 17 5 20 10 4 6 -5 10 -20 10 -15
0 -24 -4 -20 -10z"/>
<path d="M3175 1450 c3 -5 10 -10 16 -10 5 0 9 5 9 10 0 6 -7 10 -16 10 -8 0
-12 -4 -9 -10z"/>
<path d="M3210 1450 c0 -5 5 -10 10 -10 6 0 10 5 10 10 0 6 -4 10 -10 10 -5 0
-10 -4 -10 -10z"/>
<path d="M3284 1451 c4 -5 3 -11 -1 -14 -5 -2 -2 -2 6 0 7 2 20 -2 29 -9 14
-12 14 -11 1 10 -8 12 -20 22 -27 22 -7 0 -11 -4 -8 -9z"/>
<path d="M3380 1446 c-14 -8 -29 -12 -34 -9 -5 4 -6 1 -2 -6 5 -7 16 -9 29 -5
12 4 32 7 45 6 21 -2 22 0 8 13 -17 18 -15 18 -46 1z"/>
<path d="M3630 1451 c0 -6 5 -11 11 -11 5 0 7 -5 3 -11 -4 -7 -1 -10 7 -7 20
7 17 32 -3 36 -10 2 -18 -1 -18 -7z"/>
<path d="M3507 1429 c7 -7 15 -10 18 -7 3 3 -2 9 -12 12 -14 6 -15 5 -6 -5z"/>
<path d="M870 2545 c-11 -13 -10 -14 4 -9 9 3 16 10 16 15 0 13 -6 11 -20 -6z"/>
<path d="M1865 2550 c3 -5 8 -10 11 -10 2 0 4 5 4 10 0 6 -5 10 -11 10 -5 0
-7 -4 -4 -10z"/>
<path d="M3798 2553 c7 -3 16 -2 19 1 4 3 -2 6 -13 5 -11 0 -14 -3 -6 -6z"/>
<path d="M1650 2521 c0 -8 41 -23 47 -17 2 1 -8 8 -22 14 -14 6 -25 8 -25 3z"/>
<path d="M790 2510 c-8 -5 -11 -12 -8 -16 4 -3 14 1 23 10 18 17 9 21 -15 6z"/>
<path d="M1950 2510 c0 -5 5 -10 11 -10 5 0 7 5 4 10 -3 6 -8 10 -11 10 -2 0
-4 -4 -4 -10z"/>
<path d="M695 2460 c-3 -5 -3 -10 2 -10 4 0 1 -5 -7 -11 -12 -8 -12 -10 -1 -7
8 2 15 12 17 21 3 19 -2 22 -11 7z"/>
<path d="M2893 2398 c2 -8 18 -12 38 -11 19 1 28 0 22 -3 -7 -3 -13 -12 -13
-20 0 -8 -5 -23 -12 -33 -7 -11 -8 -26 -3 -37 8 -16 9 -15 13 11 2 16 7 32 12
35 4 3 11 20 15 38 l7 32 -42 0 c-29 0 -40 -4 -37 -12z"/>
<path d="M765 2380 c-3 -5 -1 -10 4 -10 6 0 11 5 11 10 0 6 -2 10 -4 10 -3 0
-8 -4 -11 -10z"/>
<path d="M3011 2356 c-19 -35 -6 -66 29 -66 16 0 30 7 34 15 4 12 0 14 -19 9
-17 -4 -27 -1 -31 9 -8 22 5 42 18 29 6 -6 17 -8 24 -5 11 4 12 9 3 19 -17 21
-44 17 -58 -10z"/>
<path d="M3090 2335 c0 -29 4 -45 13 -45 8 0 11 14 9 45 -2 25 -8 45 -13 45
-5 0 -9 -20 -9 -45z"/>
<path d="M3131 2359 c6 -12 9 -32 6 -45 -3 -19 0 -24 15 -24 16 0 17 3 7 21
-7 15 -8 24 -1 31 7 7 6 15 -3 24 -22 22 -38 18 -24 -7z"/>
<path d="M3175 2363 c4 -10 7 -30 6 -45 -1 -21 3 -28 17 -28 15 0 18 6 14 33
-5 34 -18 57 -34 57 -6 0 -7 -8 -3 -17z"/>
<path d="M3345 2360 c-3 -5 -1 -10 4 -10 6 0 11 5 11 10 0 6 -2 10 -4 10 -3 0
-8 -4 -11 -10z"/>
<path d="M620 2280 c0 -5 5 -10 11 -10 5 0 7 5 4 10 -3 6 -8 10 -11 10 -2 0
-4 -4 -4 -10z"/>
<path d="M2126 2265 c4 -8 10 -15 15 -15 4 0 6 7 3 15 -4 8 -10 15 -15 15 -4
0 -6 -7 -3 -15z"/>
<path d="M406 2175 c-3 -9 -6 -22 -5 -28 0 -7 5 -1 10 12 5 13 8 26 5 28 -2 2
-6 -3 -10 -12z"/>
<path d="M2572 2128 c-5 -7 -12 -39 -14 -70 -4 -56 -4 -58 20 -58 21 0 23 2
12 15 -12 14 -9 70 6 109 7 19 -9 21 -24 4z"/>
<path d="M2516 2115 c-3 -8 -1 -15 4 -15 6 0 10 7 10 15 0 8 -2 15 -4 15 -2 0
-6 -7 -10 -15z"/>
<path d="M2523 2061 c-2 -10 -16 -24 -29 -31 -31 -17 -31 -30 1 -30 18 0 25 5
25 20 0 11 7 23 15 26 17 7 20 34 4 34 -6 0 -13 -8 -16 -19z"/>
<path d="M3920 2028 c0 -5 11 -8 25 -8 14 0 25 4 25 9 0 5 -11 8 -25 7 -14 0
-25 -4 -25 -8z"/>
<path d="M4140 2030 c0 -5 5 -10 11 -10 5 0 7 5 4 10 -3 6 -8 10 -11 10 -2 0
-4 -4 -4 -10z"/>
<path d="M4007 2023 c-4 -3 -7 -11 -7 -17 0 -6 5 -5 12 2 6 6 9 14 7 17 -3 3
-9 2 -12 -2z"/>
<path d="M4078 2023 c7 -3 16 -2 19 1 4 3 -2 6 -13 5 -11 0 -14 -3 -6 -6z"/>
<path d="M3900 1995 c0 -9 11 -20 25 -25 36 -14 33 -40 -5 -40 -32 0 -40 -14
-14 -24 21 -8 64 19 64 41 0 15 -47 63 -62 63 -5 0 -8 -7 -8 -15z"/>
<path d="M4027 1996 c-37 -28 -11 -104 31 -89 19 7 14 23 -8 23 -14 0 -20 7
-20 23 0 32 10 40 26 19 12 -15 13 -15 14 -1 0 26 -22 39 -43 25z"/>
<path d="M4180 2000 c0 -8 -10 -10 -25 -8 -17 4 -25 1 -25 -8 0 -8 5 -14 11
-14 7 0 9 -11 6 -30 -4 -16 -2 -32 3 -35 6 -4 10 11 10 34 0 30 4 41 15 41 11
0 15 -12 15 -47 0 -37 3 -44 12 -35 16 16 11 81 -8 99 -10 10 -14 11 -14 3z"/>
<path d="M4097 1994 c-3 -4 -3 -20 0 -37 4 -20 3 -28 -5 -24 -6 5 -8 0 -5 -13
9 -33 28 -17 31 25 3 36 -8 62 -21 49z"/>
<path d="M256 1908 c3 -5 10 -6 15 -3 13 9 11 12 -6 12 -8 0 -12 -4 -9 -9z"/>
<path d="M3860 1900 c0 -5 5 -10 11 -10 5 0 7 5 4 10 -3 6 -8 10 -11 10 -2 0
-4 -4 -4 -10z"/>
<path d="M2325 1880 c-3 -5 -1 -10 4 -10 6 0 11 5 11 10 0 6 -2 10 -4 10 -3 0
-8 -4 -11 -10z"/>
<path d="M335 1850 c-3 -5 -1 -10 4 -10 6 0 11 5 11 10 0 6 -2 10 -4 10 -3 0
-8 -4 -11 -10z"/>
<path d="M1760 1836 c0 -9 30 -14 35 -6 4 6 -3 10 -14 10 -12 0 -21 -2 -21 -4z"/>
<path d="M1816 1832 c-3 -5 1 -9 9 -9 8 0 15 4 15 9 0 4 -4 8 -9 8 -6 0 -12
-4 -15 -8z"/>
<path d="M1731 1766 c-14 -57 -14 -61 3 -47 8 6 16 22 19 34 2 12 8 30 12 40
5 12 3 17 -8 17 -9 0 -19 -17 -26 -44z"/>
<path d="M1780 1795 c0 -8 5 -15 10 -15 6 0 10 7 10 15 0 8 -4 15 -10 15 -5 0
-10 -7 -10 -15z"/>
<path d="M1832 1789 c-11 -17 -11 -24 0 -37 29 -38 33 -40 51 -27 23 17 21 34
-3 28 -13 -3 -22 1 -26 11 -9 24 4 32 26 18 17 -11 20 -10 20 8 0 28 -50 28
-68 -1z"/>
<path d="M1915 1762 c2 -32 7 -47 16 -47 8 0 12 7 10 15 -9 40 -7 60 5 60 8 0
14 -8 15 -17 3 -50 5 -57 17 -60 8 -3 12 8 12 36 0 31 4 41 16 41 13 0 15 -7
9 -40 -6 -34 -4 -39 9 -34 17 6 22 59 8 80 -4 6 -32 12 -63 13 l-56 1 2 -48z"/>
<path d="M2124 1781 c5 -8 56 -3 56 5 0 2 -14 4 -31 4 -16 0 -28 -4 -25 -9z"/>
<path d="M1945 1690 c3 -5 8 -10 11 -10 2 0 4 5 4 10 0 6 -5 10 -11 10 -5 0
-7 -4 -4 -10z"/>
<path d="M1843 1635 c0 -8 4 -12 9 -9 5 3 6 10 3 15 -9 13 -12 11 -12 -6z"/>
<path d="M1648 1543 c7 -3 16 -2 19 1 4 3 -2 6 -13 5 -11 0 -14 -3 -6 -6z"/>
<path d="M1337 1462 c-34 -21 -56 -84 -37 -107 13 -16 57 -20 75 -7 17 12 45
60 45 77 0 16 -35 56 -47 54 -5 0 -20 -8 -36 -17z m52 -16 c27 -32 -16 -100
-57 -89 -29 7 -28 28 4 70 28 37 36 40 53 19z"/>
<path d="M1273 1455 c-3 -9 -3 -19 1 -22 3 -4 6 1 6 11 0 10 5 14 12 10 7 -4
8 -3 4 4 -10 16 -15 15 -23 -3z"/>
<path d="M1270 1321 c0 -5 5 -13 10 -16 6 -3 10 -2 10 4 0 5 -4 13 -10 16 -5
3 -10 2 -10 -4z"/>
<path d="M2018 1303 c7 -3 16 -2 19 1 4 3 -2 6 -13 5 -11 0 -14 -3 -6 -6z"/>
<path d="M2650 1248 c-7 -32 -16 -58 -21 -58 -5 0 -9 -4 -9 -10 0 -17 70 -11
89 8 17 17 29 110 13 114 -52 11 -58 6 -72 -54z m60 21 c0 -11 -7 -19 -17 -19
-13 0 -14 -3 -5 -12 22 -22 14 -48 -15 -48 -21 0 -24 3 -15 12 7 7 12 19 12
28 0 23 23 69 32 64 5 -3 8 -14 8 -25z"/>
<path d="M2976 1289 c-43 -34 -31 -119 18 -119 35 0 44 71 11 83 -10 5 -12 -2
-8 -29 4 -27 2 -34 -11 -34 -12 0 -16 9 -16 33 0 33 24 67 48 67 7 0 12 5 12
10 0 16 -26 11 -54 -11z"/>
<path d="M3747 1267 c-28 -33 -35 -75 -15 -95 8 -8 8 -15 -1 -25 -9 -12 -5
-15 23 -20 42 -7 73 0 80 19 6 16 -10 19 -19 4 -8 -12 -65 -13 -65 -1 0 5 15
12 33 15 50 10 83 80 54 116 -21 26 -61 21 -90 -13z m73 -2 c9 -11 7 -22 -11
-55 -24 -43 -39 -49 -59 -25 -11 13 -10 21 1 43 28 56 45 65 69 37z"/>
<path d="M1883 1272 c-5 -4 -15 -17 -22 -29 -9 -18 -7 -26 13 -49 22 -26 25
-27 40 -12 21 22 20 31 -3 23 -24 -7 -35 8 -26 36 6 19 8 20 26 3 17 -15 19
-15 19 -1 0 19 -31 39 -47 29z"/>
<path d="M1769 1266 c0 -1 -2 -8 -4 -17 -1 -9 -6 -31 -10 -49 -9 -43 10 -32
31 18 9 20 18 31 21 24 6 -15 23 -6 23 12 0 7 -12 13 -30 13 -16 0 -30 -1 -31
-1z"/>
<path d="M1947 1263 c-1 -1 -1 -22 1 -47 5 -57 22 -61 22 -6 0 30 4 40 16 40
14 0 16 -7 11 -40 -4 -30 -2 -40 9 -40 10 0 14 12 14 40 0 30 4 40 16 40 14 0
16 -7 11 -40 -4 -31 -2 -40 9 -40 12 0 14 11 12 48 l-3 47 -58 0 c-32 0 -59
-1 -60 -2z"/>
<path d="M3073 1255 c-27 -31 -9 -85 28 -85 19 0 33 26 19 35 -4 3 -10 0 -12
-7 -7 -19 -28 1 -28 28 0 24 14 32 25 14 9 -15 25 -2 18 15 -7 19 -34 19 -50
0z"/>
<path d="M3149 1266 c-8 -8 3 -96 12 -96 5 0 9 23 9 50 0 44 -7 60 -21 46z"/>
<path d="M3180 1260 c0 -5 5 -10 11 -10 6 0 9 -15 7 -37 -2 -22 2 -38 9 -40
11 -4 10 45 -3 85 -4 14 -24 16 -24 2z"/>
<path d="M3225 1260 c-3 -5 -1 -10 4 -10 6 0 11 -18 11 -40 0 -30 4 -40 16
-40 11 0 14 5 10 16 -3 9 -6 31 -6 50 0 33 -20 47 -35 24z"/>
<path d="M2610 1140 c-9 -6 -10 -10 -3 -10 6 0 15 5 18 10 8 12 4 12 -15 0z"/>
<path d="M3851 1124 c0 -11 3 -14 6 -6 3 7 2 16 -1 19 -3 4 -6 -2 -5 -13z"/>
<path d="M298 1073 c7 -3 16 -2 19 1 4 3 -2 6 -13 5 -11 0 -14 -3 -6 -6z"/>
<path d="M245 830 c-3 -6 1 -7 9 -4 18 7 21 14 7 14 -6 0 -13 -4 -16 -10z"/>
<path d="M2367 770 c-3 -11 -1 -20 4 -20 5 0 9 9 9 20 0 11 -2 20 -4 20 -2 0
-6 -9 -9 -20z"/>
<path d="M2320 685 c-7 -9 -11 -17 -9 -20 3 -2 10 5 17 15 14 24 10 26 -8 5z"/>
<path d="M351 654 c0 -11 3 -14 6 -6 3 7 2 16 -1 19 -3 4 -6 -2 -5 -13z"/>
<path d="M485 620 c3 -5 8 -10 11 -10 2 0 4 5 4 10 0 6 -5 10 -11 10 -5 0 -7
-4 -4 -10z"/>
<path d="M575 530 c3 -5 8 -10 11 -10 2 0 4 5 4 10 0 6 -5 10 -11 10 -5 0 -7
-4 -4 -10z"/>
<path d="M2206 407 c3 -10 9 -15 12 -12 3 3 0 11 -7 18 -10 9 -11 8 -5 -6z"/>
<path d="M710 396 c0 -3 9 -10 20 -16 11 -6 20 -8 20 -6 0 3 -9 10 -20 16 -11
6 -20 8 -20 6z"/>
<path d="M600 365 c7 -8 17 -15 22 -15 6 0 5 7 -2 15 -7 8 -17 15 -22 15 -6 0
-5 -7 2 -15z"/>
<path d="M1845 301 c-3 -5 -2 -12 3 -15 5 -3 9 1 9 9 0 17 -3 19 -12 6z"/>
<path d="M2005 260 c-3 -5 -2 -10 4 -10 5 0 13 5 16 10 3 6 2 10 -4 10 -5 0
-13 -4 -16 -10z"/>
<path d="M1155 200 c-3 -5 -1 -10 4 -10 6 0 11 5 11 10 0 6 -2 10 -4 10 -3 0
-8 -4 -11 -10z"/>
<path d="M1606 201 c-4 -5 3 -7 14 -4 23 6 26 13 6 13 -8 0 -17 -4 -20 -9z"/>
<path d="M1800 160 c-9 -6 -10 -10 -3 -10 6 0 15 5 18 10 8 12 4 12 -15 0z"/>
</g>
</svg>
