<?xml version="1.0" standalone="no"?>
<!DOCTYPE svg PUBLIC "-//W3C//DTD SVG 20010904//EN"
 "http://www.w3.org/TR/2001/REC-SVG-20010904/DTD/svg10.dtd">
<svg version="1.0" xmlns="http://www.w3.org/2000/svg"
 width="349.000000pt" height="248.000000pt" viewBox="0 0 349.000000 248.000000"
 preserveAspectRatio="xMidYMid meet">
<g transform="translate(0.000000,248.000000) scale(0.100000,-0.100000)"
fill="#ffffff" stroke="none">
<path d="M955 2296 c-103 -21 -143 -35 -260 -92 -105 -51 -183 -109 -277 -206
-157 -161 -245 -340 -282 -571 -20 -120 -20 -169 -1 -288 31 -198 66 -285 187
-468 27 -40 189 -211 201 -211 4 0 19 -10 33 -23 22 -21 154 -91 244 -131 157
-68 481 -77 668 -17 71 23 235 100 240 112 2 5 8 9 14 9 22 0 180 138 241 210
55 65 54 64 62 90 4 13 12 28 17 34 15 19 78 128 78 137 0 5 7 25 16 46 28 65
32 76 46 153 14 79 18 290 6 350 -3 19 -10 59 -14 88 -4 29 -11 55 -15 58 -5
3 -9 12 -9 20 0 38 -88 210 -152 297 -156 211 -404 363 -662 407 -79 13 -306
11 -381 -4z m323 -21 c242 -30 405 -107 594 -281 83 -77 141 -159 201 -287 40
-82 54 -128 88 -285 25 -116 -1 -366 -51 -487 -39 -97 -66 -155 -72 -155 -4 0
-13 7 -21 14 -8 8 -30 23 -48 34 -19 10 -54 30 -79 44 -25 14 -81 47 -125 73
-89 53 -114 67 -200 115 -33 19 -62 37 -65 40 -3 4 -12 9 -20 13 -8 3 -36 19
-62 34 -152 91 -246 143 -257 143 -10 0 -90 -40 -141 -70 -15 -9 -127 -72
-190 -107 -123 -69 -152 -85 -210 -118 -36 -21 -85 -49 -110 -63 -25 -14 -61
-35 -80 -46 -19 -12 -52 -30 -73 -41 -21 -11 -47 -28 -57 -37 -21 -19 -27 -15
-53 42 -73 162 -103 339 -86 523 12 125 25 183 63 270 9 21 16 44 16 52 0 8 5
15 10 15 6 0 10 7 10 15 0 32 100 174 180 256 164 167 357 264 585 293 61 7
114 14 118 15 5 0 66 -6 135 -14z m-21 -1066 c48 -28 102 -60 118 -70 17 -10
46 -26 65 -35 62 -31 63 -34 22 -64 -48 -35 -93 -91 -122 -154 -19 -39 -23
-65 -23 -138 0 -49 6 -102 13 -116 38 -83 49 -100 86 -140 47 -49 52 -41 -56
-99 -30 -17 -85 -48 -122 -71 -36 -22 -72 -42 -80 -43 -18 -4 -58 10 -58 21 0
4 -15 15 -32 24 -18 9 -40 21 -48 26 -111 69 -182 110 -190 110 -5 0 -10 4
-10 9 0 5 -8 11 -17 14 -24 8 -124 66 -144 83 -8 8 -19 14 -23 14 -3 0 -35 18
-70 40 -35 22 -67 40 -71 40 -4 0 -28 15 -54 33 -25 19 -67 42 -93 53 -27 10
-48 24 -48 29 0 6 15 16 33 24 17 8 49 25 69 38 21 13 62 36 93 53 79 43 99
54 105 60 3 3 14 10 25 16 11 6 52 28 90 49 39 21 92 51 118 67 26 15 49 28
51 28 2 0 43 23 92 52 49 28 103 58 119 67 17 9 32 19 33 24 8 17 46 4 129
-44z m347 -202 c39 -24 88 -52 109 -63 21 -10 46 -26 55 -34 10 -8 41 -27 70
-42 71 -37 116 -62 122 -68 3 -3 18 -11 33 -18 36 -15 29 -25 -41 -60 -72 -36
-206 -109 -252 -137 -19 -12 -66 -39 -105 -60 -38 -21 -78 -45 -88 -53 -16
-14 -20 -13 -43 9 -42 39 -89 111 -104 158 -22 69 -18 179 9 236 39 84 118
172 155 174 5 1 41 -18 80 -42z m-1192 -329 c14 -10 31 -18 37 -18 6 0 11 -3
11 -8 0 -4 17 -16 38 -27 20 -11 78 -44 127 -74 50 -29 104 -61 120 -71 17
-10 89 -52 160 -95 72 -42 140 -81 153 -86 18 -7 32 -29 17 -29 -22 0 -183 37
-240 55 -138 44 -315 157 -396 251 -19 21 -39 45 -46 52 -29 31 -83 100 -83
106 0 7 49 -19 102 -56z m1573 15 c-66 -102 -269 -269 -390 -322 -27 -12 -58
-26 -67 -31 -10 -6 -26 -10 -36 -10 -10 0 -22 -4 -28 -9 -12 -11 -234 -54
-242 -47 -7 8 -8 7 73 51 39 21 88 48 110 60 22 12 56 31 75 43 19 12 51 29
70 38 19 10 51 28 70 39 19 12 62 37 95 55 102 57 138 77 210 118 39 23 72 41
74 41 2 1 -5 -11 -14 -26z"/>
<path d="M1590 2128 c0 -13 7 -18 28 -17 21 1 22 2 7 6 -11 3 -23 10 -27 17
-5 7 -8 5 -8 -6z"/>
<path d="M1153 1440 c-42 -17 -58 -84 -27 -114 26 -26 60 -19 88 17 32 42 33
71 4 91 -25 18 -33 19 -65 6z m51 -36 c9 -23 -21 -66 -42 -62 -21 4 -28 44
-12 64 17 19 46 18 54 -2z"/>
<path d="M669 1270 c-13 -10 -20 -19 -16 -20 4 0 17 9 29 20 28 26 17 26 -13
0z"/>
<path d="M760 1272 c-14 -9 -29 -22 -35 -29 -5 -6 -21 -13 -35 -15 -50 -6 -30
-98 22 -98 10 0 21 7 24 15 4 8 15 15 25 15 23 0 24 17 3 41 -21 23 -11 57 11
39 8 -7 15 -18 15 -25 0 -7 7 -18 15 -25 13 -10 15 -9 15 8 0 12 -4 24 -10 27
-13 8 -13 35 0 35 6 0 16 -11 22 -25 11 -25 38 -35 38 -14 0 6 -9 24 -21 40
-23 33 -51 36 -89 11z m-22 -78 c-5 -26 -37 -42 -47 -25 -14 22 -2 41 26 41
17 0 24 -5 21 -16z"/>
<path d="M920 1230 c-8 -5 -12 -11 -9 -14 3 -3 14 1 25 9 21 16 8 20 -16 5z"/>
<path d="M560 1185 c-22 -27 18 -105 55 -105 42 0 50 24 25 75 -23 48 -55 60
-80 30z m60 -40 c19 -36 -1 -56 -24 -24 -9 13 -16 29 -16 36 0 22 26 14 40
-12z"/>
<path d="M490 1131 c-14 -27 -13 -31 11 -31 14 0 24 -10 32 -30 11 -28 37 -42
37 -19 0 16 -51 99 -61 99 -4 0 -13 -9 -19 -19z"/>
<path d="M1466 791 c-22 -24 -18 -90 6 -105 13 -8 22 -6 37 8 19 17 21 17 27
2 12 -32 64 -12 64 26 0 14 5 17 23 13 29 -8 50 15 45 47 -4 29 -44 37 -62 12
-9 -12 -15 -14 -20 -6 -13 22 -46 13 -56 -14 -7 -18 -15 -24 -26 -20 -9 3 -18
6 -20 6 -2 0 -4 5 -4 10 0 6 10 10 21 10 18 0 19 2 9 15 -16 20 -23 19 -44 -4z
m174 -15 c0 -8 -4 -17 -9 -21 -12 -7 -24 12 -16 25 9 15 25 12 25 -4z m-65
-46 c-4 -11 -10 -20 -15 -20 -15 0 -20 31 -9 52 10 19 12 20 21 4 5 -9 6 -25
3 -36z m-71 -5 c4 -10 -1 -15 -14 -15 -11 0 -20 7 -20 15 0 8 6 15 14 15 8 0
16 -7 20 -15z"/>
<path d="M560 520 c0 -5 7 -10 15 -10 8 0 15 5 15 10 0 6 -7 10 -15 10 -8 0
-15 -4 -15 -10z"/>
<path d="M648 483 c-10 -2 -18 -8 -18 -13 0 -11 68 -25 77 -16 4 3 -6 6 -20 6
-19 0 -25 4 -21 15 4 8 5 14 3 14 -2 -1 -12 -3 -21 -6z"/>
<path d="M1717 500 c-26 -21 -42 -26 -33 -11 4 5 -3 7 -15 4 -16 -4 -17 -8 -7
-14 21 -14 33 -11 64 16 35 30 28 34 -9 5z"/>
<path d="M1620 461 c0 -5 9 -11 20 -14 24 -6 27 8 4 17 -21 8 -24 8 -24 -3z"/>
<path d="M1555 413 c-31 -7 -40 -21 -11 -16 15 3 29 9 32 14 3 5 4 8 2 8 -2
-1 -12 -3 -23 -6z"/>
<path d="M2982 2241 c-12 -3 -28 -18 -36 -32 -11 -22 -11 -31 3 -60 36 -77
132 -26 101 55 -11 30 -38 45 -68 37z m38 -36 c17 -20 4 -65 -18 -65 -22 0
-42 19 -42 40 0 35 38 51 60 25z"/>
<path d="M2828 2200 c-1 -22 -2 -50 -2 -62 -1 -12 5 -23 12 -25 8 -3 12 7 12
31 0 44 18 47 33 6 18 -48 51 -39 37 11 -5 17 -5 31 1 34 15 10 10 45 -6 45
-10 0 -15 -10 -15 -30 0 -16 -4 -30 -9 -30 -5 0 -14 14 -20 30 -15 45 -41 39
-43 -10z"/>
<path d="M3060 2232 c0 -4 9 -13 20 -20 16 -10 20 -21 18 -55 -2 -32 1 -42 12
-42 12 0 14 10 12 48 -3 42 -1 47 17 47 12 0 21 6 21 15 0 11 -12 15 -50 15
-27 0 -50 -3 -50 -8z"/>
<path d="M3200 2225 c0 -8 7 -15 15 -15 11 0 15 -12 15 -50 0 -38 4 -50 15
-50 11 0 15 12 15 49 0 40 3 50 20 54 39 10 20 27 -30 27 -38 0 -50 -4 -50
-15z"/>
<path d="M3317 2222 c-21 -23 -22 -76 -1 -96 39 -39 104 -5 104 55 0 52 -69
79 -103 41z m68 -23 c4 -5 4 -21 1 -35 -5 -19 -12 -25 -29 -22 -17 2 -23 11
-25 36 -3 28 0 32 22 32 14 0 28 -5 31 -11z"/>
<path d="M2832 2048 c-23 -23 -13 -47 25 -63 26 -11 33 -19 26 -26 -8 -8 -17
-7 -32 1 -32 17 -44 8 -26 -18 23 -31 68 -30 83 3 13 27 -1 48 -38 60 -21 7
-28 25 -9 25 6 0 19 -5 30 -10 14 -8 19 -7 19 3 0 19 -21 37 -45 37 -12 0 -26
-5 -33 -12z"/>
<path d="M2947 2042 c-23 -25 -22 -85 1 -105 22 -20 53 -22 70 -5 8 8 15 8 26
-1 12 -10 16 -8 21 8 7 24 43 28 51 7 6 -15 11 -16 134 -19 75 -2 109 13 50
23 -36 6 -36 25 -1 25 38 0 37 23 -1 27 -18 2 -31 8 -28 13 3 6 20 9 38 7 33
-4 42 8 19 26 -12 11 -60 8 -79 -4 -4 -3 -8 -25 -8 -50 0 -44 -1 -45 -27 -42
-26 3 -28 7 -31 51 -2 34 -7 47 -18 47 -12 0 -15 -10 -13 -47 2 -30 -1 -48 -9
-51 -7 -2 -12 5 -12 16 0 10 -3 22 -7 26 -5 4 -8 17 -8 29 0 39 -35 27 -50
-17 -8 -21 -19 -44 -26 -50 -9 -8 -10 -8 -5 2 9 15 -8 16 -34 2 -26 -14 -50
-2 -50 25 0 37 25 51 55 31 24 -15 25 -15 25 2 0 41 -54 57 -83 24z"/>
<path d="M2177 823 c-4 -3 -7 -21 -7 -40 0 -43 -13 -42 -29 3 -7 19 -17 34
-23 32 -16 -6 -48 -112 -37 -123 12 -12 29 11 29 42 0 36 19 36 28 1 13 -52
35 -46 53 14 19 62 12 97 -14 71z"/>
<path d="M153 793 c-7 -3 -13 -20 -13 -39 0 -20 -4 -43 -9 -53 -15 -27 2 -43
44 -39 47 4 61 28 16 28 -35 0 -35 -1 -19 52 12 40 4 60 -19 51z"/>
<path d="M1126 198 c-24 -86 -27 -101 -17 -111 7 -7 13 -2 21 17 5 15 10 32
10 37 0 6 5 7 10 4 6 -4 8 -11 5 -16 -9 -14 5 -50 16 -43 6 3 14 16 19 28 l9
21 0 -22 c2 -60 33 -20 46 60 5 32 3 37 -14 37 -13 0 -23 -11 -31 -36 -11 -34
-34 -42 -36 -13 0 8 -2 22 -2 32 -2 19 -31 23 -36 5z"/>
</g>
</svg>
