<?xml version="1.0" standalone="no"?>
<!DOCTYPE svg PUBLIC "-//W3C//DTD SVG 20010904//EN"
 "http://www.w3.org/TR/2001/REC-SVG-20010904/DTD/svg10.dtd">
<svg version="1.0" xmlns="http://www.w3.org/2000/svg"
 width="553.000000pt" height="335.000000pt" viewBox="0 0 553.000000 335.000000"
 preserveAspectRatio="xMidYMid meet">
<g transform="translate(0.000000,335.000000) scale(0.100000,-0.100000)"
fill="#ffffff" stroke="none">
<path d="M4705 3220 c-3 -5 0 -12 6 -15 6 -4 9 -31 8 -63 -2 -39 1 -57 11 -60
10 -4 12 6 8 42 -6 51 2 58 25 24 18 -27 57 -73 57 -67 7 115 6 138 -6 143 -7
3 -16 1 -19 -4 -3 -4 0 -10 6 -12 6 -2 9 -21 7 -43 l-3 -40 -30 41 c-34 47
-61 68 -70 54z"/>
<path d="M4878 3214 c-58 -31 -41 -134 21 -134 58 0 84 88 39 130 -26 24 -25
24 -60 4z m46 -20 c27 -27 18 -94 -13 -94 -26 0 -41 21 -41 55 0 29 15 55 31
55 4 0 15 -7 23 -16z"/>
<path d="M5018 3223 c-45 -4 -60 -14 -39 -28 5 -3 12 -1 16 5 3 5 11 10 17 10
7 0 9 -23 6 -65 -3 -49 -1 -65 9 -65 9 0 13 18 13 65 0 58 12 85 22 53 2 -6 9
-8 16 -4 11 7 6 38 -7 34 -3 -1 -27 -3 -53 -5z"/>
<path d="M5176 3220 c-27 -3 -51 -11 -54 -17 -4 -15 14 -17 23 -3 16 25 25 5
25 -55 0 -50 3 -65 14 -65 8 0 18 5 21 10 3 6 1 10 -4 10 -12 0 -15 92 -4 103
3 4 12 2 19 -4 8 -7 14 -7 19 1 12 19 -7 26 -59 20z"/>
<path d="M5285 3218 c-52 -30 -61 -79 -22 -116 31 -29 61 -28 86 4 28 36 26
66 -5 98 -30 29 -31 30 -59 14z m38 -22 c9 -7 17 -26 17 -43 0 -49 -39 -71
-66 -35 -18 23 -17 43 2 70 17 25 23 26 47 8z"/>
<path d="M1534 3139 c-7 -11 4 -29 17 -29 6 0 45 -16 87 -36 92 -43 184 -86
232 -107 19 -8 55 -25 80 -36 l45 -22 -39 6 c-21 4 -46 10 -55 16 -44 25 -406
50 -446 30 -11 -5 -51 -12 -90 -16 -67 -6 -151 -26 -187 -46 -10 -5 -23 -9
-28 -9 -6 0 -32 -9 -58 -21 -26 -11 -58 -25 -72 -31 -14 -6 -32 -14 -40 -19
-8 -5 -26 -15 -40 -22 -68 -33 -182 -120 -260 -196 -82 -81 -200 -220 -200
-235 0 -4 -11 -22 -24 -39 -29 -40 -96 -178 -96 -201 0 -9 -4 -16 -10 -16 -5
0 -9 -3 -8 -7 3 -12 -13 -77 -22 -88 -7 -9 -20 -69 -40 -180 -11 -64 -11 -313
0 -385 16 -103 32 -175 41 -184 5 -6 9 -19 9 -29 0 -10 6 -33 14 -50 15 -34
29 -69 30 -77 3 -12 58 -118 76 -145 11 -16 23 -37 27 -45 6 -14 38 -57 88
-120 33 -41 167 -173 211 -208 95 -75 289 -182 359 -198 17 -4 35 -10 40 -14
6 -4 26 -11 45 -15 19 -4 41 -11 50 -16 77 -43 595 -40 648 3 7 6 34 12 60 12
33 1 71 13 127 41 44 22 85 40 91 40 6 0 21 8 35 16 31 21 115 59 128 59 6 0
11 5 11 10 0 6 5 10 11 10 6 0 59 23 118 51 208 100 228 109 239 109 7 0 12 5
12 10 0 6 6 10 12 10 7 0 80 33 163 74 82 41 204 100 270 131 66 32 184 88
262 126 78 38 146 69 152 69 6 0 11 5 11 10 0 6 5 10 12 10 7 0 81 34 165 75
84 41 157 75 163 75 5 0 10 5 10 10 0 6 3 9 8 8 4 -2 43 15 87 36 355 172 450
216 463 216 7 0 12 4 12 9 0 5 14 12 30 16 17 4 30 10 30 15 0 5 14 11 30 15
17 4 30 11 30 16 0 5 7 9 15 9 8 0 15 6 15 13 0 15 -51 47 -74 47 -9 0 -16 4
-16 9 0 5 -13 12 -30 16 -16 4 -30 11 -30 16 0 5 -7 9 -16 9 -9 0 -28 7 -42
14 -15 8 -63 32 -107 52 -44 20 -107 49 -139 65 -33 16 -65 29 -73 29 -7 0
-13 4 -13 9 0 5 -13 12 -30 16 -16 4 -30 11 -30 16 0 5 -5 9 -11 9 -5 0 -31
10 -57 21 -89 40 -177 81 -272 126 -52 25 -117 55 -145 68 -92 42 -310 146
-337 161 -14 7 -33 14 -42 14 -9 0 -16 5 -16 10 0 6 -6 10 -13 10 -7 0 -29 9
-50 20 -20 11 -44 20 -52 20 -8 0 -15 5 -15 10 0 6 -5 10 -11 10 -7 0 -53 20
-103 44 -123 60 -183 86 -195 86 -6 0 -11 5 -11 10 0 6 -5 10 -11 10 -6 0 -43
16 -83 35 -40 19 -78 35 -85 35 -6 0 -11 5 -11 10 0 6 -5 10 -11 10 -7 0 -44
15 -83 34 -39 18 -90 42 -113 52 -24 10 -43 22 -43 27 0 5 -9 7 -20 4 -11 -3
-20 -1 -20 4 0 5 -7 9 -15 9 -8 0 -15 5 -15 11 0 6 -7 9 -15 5 -8 -3 -15 -1
-15 4 0 6 -5 10 -11 10 -6 0 -92 40 -192 89 -240 116 -315 152 -322 152 -2 0
-38 17 -80 38 -41 21 -78 35 -81 30z m225 -208 c57 -6 125 -18 150 -25 25 -8
80 -24 121 -37 41 -12 84 -30 95 -39 11 -10 26 -15 33 -13 6 3 12 0 12 -6 0
-7 -8 -15 -17 -18 -29 -11 -218 -126 -221 -135 -2 -4 -9 -8 -16 -8 -6 0 -35
-16 -65 -35 -29 -19 -57 -35 -62 -35 -5 0 -9 -4 -9 -8 0 -5 -19 -19 -42 -31
-57 -30 -100 -54 -113 -64 -26 -19 -146 -94 -186 -116 -24 -13 -58 -34 -76
-47 -17 -13 -36 -24 -41 -24 -5 0 -15 -7 -22 -15 -7 -8 -16 -15 -21 -15 -5 0
-9 7 -9 15 0 8 -4 15 -9 15 -5 0 -12 12 -16 27 -3 15 -10 30 -13 33 -5 4 -52
92 -80 153 -2 4 6 7 17 7 12 0 21 5 21 10 0 6 7 10 16 10 18 0 79 35 104 60
30 30 80 111 80 130 0 10 5 22 11 26 6 3 8 17 5 30 l-6 24 102 1 c57 0 217 0
356 0 155 0 252 3 252 9 0 5 -10 12 -22 15 -13 3 -249 4 -526 3 -276 -2 -502
-2 -502 -1 0 4 64 33 73 33 5 0 23 6 40 14 40 18 111 35 202 47 39 6 90 14
115 19 52 10 122 7 269 -9z m-377 -131 c11 0 10 -26 -1 -48 -4 -9 -16 -35 -27
-57 -23 -51 -102 -132 -137 -140 -15 -4 -30 -11 -33 -16 -11 -19 -53 -9 -60
14 -4 12 -17 38 -29 57 -12 19 -26 46 -30 60 -4 14 -10 27 -14 30 -9 7 -51 87
-51 97 0 4 84 7 187 6 103 -2 191 -3 195 -3z m818 -285 c0 -221 -3 -285 -12
-285 -39 1 -164 42 -215 71 -65 37 -168 135 -200 191 l-22 37 24 13 c13 7 44
24 69 37 25 14 46 28 46 32 0 4 12 12 28 18 27 11 63 31 72 42 3 3 34 23 70
44 36 21 67 43 68 47 2 4 9 8 17 8 7 0 18 7 25 15 7 8 16 15 21 15 5 0 9 -128
9 -285z m-1213 258 c4 -10 16 -34 28 -53 12 -19 26 -46 30 -60 4 -14 10 -27
14 -30 3 -3 22 -36 41 -75 19 -38 63 -124 97 -189 35 -65 62 -120 61 -121 -2
-1 -36 -22 -77 -46 -40 -24 -81 -48 -90 -54 -9 -5 -39 -23 -66 -39 -28 -16
-53 -34 -57 -40 -9 -12 -28 10 -28 32 0 6 -4 12 -10 12 -13 0 -13 -23 1 -37 6
-6 8 -17 4 -23 -5 -8 -14 -1 -26 20 -11 17 -24 28 -29 25 -6 -4 -4 -14 5 -28
19 -27 19 -47 0 -47 -8 0 -15 -4 -15 -9 0 -5 -8 -11 -17 -14 -10 -4 -36 -18
-58 -32 -22 -13 -47 -28 -55 -32 -8 -3 -17 -9 -20 -13 -9 -12 -128 -80 -139
-80 -6 0 -11 -4 -11 -9 0 -5 -19 -19 -42 -31 -24 -12 -45 -25 -48 -29 -3 -3
-16 -12 -30 -19 -14 -7 -38 -21 -55 -32 -16 -11 -38 -23 -47 -26 -10 -4 -18
-9 -18 -13 0 -3 -9 -12 -21 -19 -20 -13 -21 -12 -15 60 3 40 5 88 5 107 0 18
4 38 9 45 9 10 22 71 23 108 0 10 4 20 10 23 5 4 9 17 9 30 0 13 4 26 9 30 5
3 13 20 16 38 7 30 92 206 105 217 3 3 17 23 30 45 13 22 30 44 37 48 7 4 13
14 13 21 0 6 48 59 106 117 136 133 131 129 143 129 5 0 14 6 18 13 4 7 26 24
48 37 22 13 42 26 45 29 8 9 44 30 53 30 4 1 11 -7 14 -16z m1281 -20 c7 -7
20 -13 29 -13 13 0 13 2 2 17 -16 19 -15 18 66 -22 33 -17 62 -33 63 -37 2 -5
8 -8 14 -8 6 0 44 -16 84 -35 40 -19 77 -35 83 -35 6 0 11 -4 11 -10 0 -5 5
-10 11 -10 5 0 36 -12 67 -26 31 -15 80 -37 109 -50 28 -13 57 -24 62 -24 6 0
11 -4 11 -10 0 -5 5 -10 11 -10 6 0 59 -23 118 -51 58 -28 129 -61 156 -74 28
-12 71 -33 97 -45 26 -12 50 -21 54 -20 4 1 10 -2 13 -7 6 -9 41 -26 136 -68
76 -35 216 -100 456 -214 37 -17 72 -31 78 -31 6 0 11 -4 11 -10 0 -5 5 -10
11 -10 11 0 67 -24 165 -71 33 -16 66 -29 73 -29 6 0 -4 -14 -24 -31 -53 -46
-70 -91 -70 -180 0 -81 11 -114 54 -161 l24 -28 -39 -15 c-21 -9 -88 -40 -149
-69 -60 -30 -180 -87 -265 -129 -306 -148 -348 -167 -359 -167 -6 0 -11 -4
-11 -9 0 -5 -13 -12 -30 -16 -16 -4 -30 -10 -30 -15 0 -5 -13 -11 -30 -15 -16
-4 -30 -11 -30 -16 0 -5 -5 -9 -12 -9 -13 0 -55 -20 -343 -160 -269 -131 -310
-150 -323 -150 -7 0 -12 -4 -12 -10 0 -5 -6 -10 -13 -10 -7 0 -61 -25 -120
-55 -107 -55 -142 -61 -68 -12 53 35 199 184 253 258 50 70 99 152 134 229 13
30 29 62 33 70 5 9 12 31 16 50 4 19 11 41 16 50 10 18 27 93 41 180 13 84 6
453 -9 471 -6 8 -14 38 -18 66 -4 29 -11 55 -15 58 -5 3 -11 23 -15 45 -4 22
-11 40 -16 40 -5 0 -9 7 -9 16 0 9 -6 28 -14 42 -8 15 -23 45 -34 67 -25 51
-55 106 -65 119 -4 6 -18 25 -30 42 -80 113 -167 206 -247 265 -36 27 -72 55
-81 64 -17 16 -39 20 -39 7 0 -5 28 -29 63 -54 55 -41 188 -172 242 -238 36
-44 111 -164 136 -215 13 -27 27 -52 31 -55 3 -3 10 -18 14 -34 4 -17 13 -41
20 -55 8 -14 14 -36 14 -48 0 -13 4 -23 8 -23 8 0 25 -73 43 -195 13 -82 6
-410 -9 -428 -5 -7 -13 -36 -17 -64 -4 -29 -11 -55 -16 -59 -5 -3 -9 -15 -9
-27 0 -12 -6 -34 -14 -49 -8 -15 -17 -40 -21 -57 -4 -17 -10 -31 -15 -31 -5 0
-11 -13 -15 -30 -4 -17 -11 -30 -16 -30 -5 0 -9 -5 -9 -11 0 -20 -72 -131
-131 -204 -81 -100 -124 -142 -234 -230 -27 -22 -51 -43 -53 -47 -2 -5 -10 -8
-18 -8 -8 0 -14 -4 -14 -8 0 -8 -14 -16 -62 -40 -5 -2 -8 515 -8 1148 0 1095
1 1152 17 1139 10 -8 24 -20 31 -26z m-512 -275 c40 -78 208 -217 283 -235 14
-3 32 -10 38 -15 7 -6 19 -8 28 -5 8 4 17 2 20 -3 4 -6 22 -10 41 -10 l34 0 0
-549 0 -548 -77 -7 c-73 -6 -156 -29 -177 -48 -20 -17 -44 -8 -51 19 -3 15
-10 30 -13 33 -4 3 -32 55 -62 115 -30 61 -57 112 -60 115 -3 3 -18 30 -33 60
-15 30 -45 89 -67 130 -22 41 -40 84 -40 95 0 11 -10 30 -23 42 -12 11 -53 83
-92 160 -38 76 -72 140 -75 143 -3 3 -16 28 -29 55 -14 28 -27 52 -30 55 -3 3
-22 38 -41 77 -19 40 -38 73 -42 73 -16 0 -7 -31 23 -87 43 -80 121 -228 186
-353 30 -58 59 -109 64 -115 5 -5 9 -19 9 -32 0 -13 5 -23 11 -23 5 0 15 -13
20 -30 6 -16 15 -30 20 -30 5 0 9 -5 9 -11 0 -12 40 -99 50 -109 3 -3 14 -23
25 -45 11 -22 32 -61 47 -87 15 -27 25 -48 22 -48 -3 0 3 -12 14 -27 17 -26
38 -65 125 -238 17 -33 34 -61 39 -63 4 -2 8 -8 8 -14 0 -13 42 -101 52 -108
3 -3 10 -18 13 -33 4 -15 11 -27 15 -27 5 0 11 -14 15 -30 4 -17 10 -30 15
-30 4 0 11 -12 15 -27 3 -15 10 -30 13 -33 4 -3 20 -31 37 -63 28 -56 42 -74
50 -65 4 3 -75 164 -123 253 -6 11 -19 38 -30 60 -39 80 -87 170 -93 175 -4 3
-10 16 -14 29 -5 17 -4 21 4 16 7 -4 17 -3 24 2 26 20 105 42 175 48 l72 7 0
-298 c0 -165 -4 -305 -9 -313 -7 -11 -15 -9 -42 10 -19 13 -36 27 -39 30 -6 7
-141 89 -170 104 -11 5 -20 13 -20 17 0 5 -6 8 -14 8 -8 0 -21 6 -28 13 -7 7
-24 18 -38 25 -14 7 -38 21 -55 32 -16 11 -37 23 -45 27 -8 3 -17 9 -20 12 -3
3 -14 11 -25 18 -33 20 -319 193 -335 204 -97 61 -148 91 -162 95 -10 4 -18
10 -18 15 0 5 -7 9 -15 9 -20 0 -19 27 2 39 14 8 15 12 4 25 -11 13 -17 14
-28 5 -8 -7 -12 -17 -9 -24 7 -19 -27 -14 -59 9 -16 12 -104 66 -195 121 -91
54 -166 99 -168 100 -1 1 4 15 13 31 8 16 15 36 15 45 0 8 6 21 13 28 16 16
17 308 1 319 -6 4 -14 24 -18 45 -4 20 -12 37 -17 37 -14 0 -1 -82 15 -92 15
-10 15 -280 -1 -299 -6 -8 -14 -31 -18 -52 -9 -47 -19 -53 -53 -30 -46 30 -66
42 -84 49 -10 3 -18 10 -18 14 0 4 -8 10 -17 14 -10 3 -36 17 -58 30 -22 14
-47 28 -55 32 -8 4 -17 10 -20 13 -9 11 -44 31 -83 47 -35 15 -50 34 -26 34 5
0 40 19 77 43 37 24 119 74 182 112 63 38 116 72 118 77 2 4 8 8 12 8 13 0
134 72 138 82 2 4 8 8 14 8 5 0 21 9 35 20 16 12 34 18 45 15 13 -5 18 -1 19
12 0 10 3 13 6 6 8 -20 23 -15 23 7 0 12 10 25 23 30 12 6 34 18 49 28 15 9
78 48 140 86 62 38 119 75 125 82 7 7 23 16 36 20 12 4 36 16 52 28 17 12 39
27 50 33 11 7 62 39 114 70 52 32 110 68 130 80 47 29 48 29 67 -9z m2579
-668 c22 -11 46 -19 53 -20 6 0 12 -4 12 -9 0 -5 14 -12 30 -16 17 -4 30 -11
30 -16 0 -5 5 -9 11 -9 9 0 45 -15 136 -56 17 -8 36 -14 42 -14 6 0 11 -7 11
-15 0 -8 -7 -15 -16 -15 -9 0 -28 -6 -42 -14 -59 -32 -241 -116 -251 -116 -6
0 -11 -4 -11 -10 0 -5 -8 -10 -18 -10 -10 0 -28 -7 -40 -16 -22 -15 -24 -14
-45 12 -44 56 -51 78 -51 154 0 64 4 81 27 117 23 37 62 74 77 73 3 -1 23 -9
45 -20z m-4024 -220 c5 0 33 -16 62 -35 28 -19 57 -35 64 -35 6 0 13 -4 15 -8
3 -7 50 -37 204 -128 154 -92 430 -258 434 -262 3 -3 1 -6 -5 -9 -25 -9 -37
-22 -30 -33 5 -8 14 -5 31 11 l24 23 45 -32 c25 -18 50 -32 55 -32 6 0 10 -3
10 -8 0 -4 9 -12 20 -17 32 -15 364 -218 370 -225 3 -4 12 -10 20 -13 8 -4 33
-18 55 -32 22 -14 47 -28 55 -32 8 -4 17 -10 20 -13 3 -4 24 -18 47 -31 76
-44 187 -112 246 -151 32 -21 69 -41 83 -44 29 -7 32 -34 5 -34 -11 0 -22 -4
-26 -9 -3 -5 -19 -12 -35 -16 -17 -4 -30 -10 -30 -14 0 -5 -24 -13 -52 -20
-29 -6 -62 -14 -73 -17 -56 -17 -232 -37 -325 -38 -141 -1 -340 32 -427 70
-17 8 -36 14 -42 14 -6 0 -19 4 -29 9 -9 6 -39 20 -67 33 -27 13 -51 26 -53
31 -2 4 -9 7 -16 7 -6 0 -35 16 -65 35 -29 19 -56 35 -61 35 -4 0 -10 7 -14
15 -3 8 -11 15 -19 15 -7 0 -62 51 -123 113 -123 126 -139 145 -174 202 -13
22 -27 42 -30 45 -13 11 -88 169 -83 174 4 3 1 6 -5 6 -7 0 -12 8 -12 18 0 10
-3 22 -7 26 -8 7 -10 16 -19 64 -4 17 -10 32 -14 32 -4 0 -11 26 -15 58 -4 31
-11 62 -15 67 -5 6 -11 55 -14 110 -3 55 -3 94 0 88 3 -7 10 -13 15 -13z"/>
<path d="M1220 2726 c0 -32 3 -36 26 -36 23 0 25 3 22 33 -2 24 -8 33 -25 35
-20 3 -23 -1 -23 -32z"/>
<path d="M1143 2692 c10 -10 17 -28 17 -39 0 -22 23 -47 33 -36 11 10 8 35 -3
28 -6 -4 -10 6 -10 23 0 18 -6 32 -16 36 -29 11 -37 6 -21 -12z"/>
<path d="M1120 2630 c0 -5 7 -10 15 -10 8 0 15 5 15 10 0 6 -7 10 -15 10 -8 0
-15 -4 -15 -10z"/>
<path d="M2098 2530 c-4 -25 -1 -30 17 -30 31 0 46 19 34 42 -16 29 -46 23
-51 -12z m42 0 c0 -5 -7 -10 -15 -10 -8 0 -15 5 -15 10 0 6 7 10 15 10 8 0 15
-4 15 -10z"/>
<path d="M1970 2511 c0 -6 5 -13 10 -16 6 -3 10 -20 10 -36 0 -18 4 -28 10
-24 14 9 13 58 -2 73 -14 14 -28 16 -28 3z"/>
<path d="M2032 2507 c-13 -15 -1 -75 13 -67 8 4 8 70 0 78 -1 1 -7 -4 -13 -11z"/>
<path d="M1661 1724 c-40 -51 -17 -114 42 -114 31 0 67 35 67 66 0 26 -46 74
-71 74 -9 0 -27 -12 -38 -26z m67 -20 c17 -36 5 -74 -22 -74 -45 0 -60 43 -29
80 23 27 37 25 51 -6z"/>
<path d="M436 1678 c-23 -32 -21 -85 4 -98 43 -23 81 31 45 66 -8 8 -17 14
-20 14 -21 -4 -13 11 9 19 33 13 33 21 2 21 -14 0 -32 -10 -40 -22z m38 -53
c3 -8 3 -22 0 -30 -8 -21 -34 0 -34 26 0 23 25 25 34 4z"/>
<path d="M521 1686 c-10 -11 -9 -19 1 -37 10 -17 10 -23 1 -26 -19 -7 -16 -26
8 -46 22 -20 41 -15 21 5 -7 7 -12 21 -12 31 0 16 3 17 14 7 8 -6 12 -18 9
-26 -3 -8 1 -14 11 -14 24 0 19 31 -10 61 -14 15 -23 32 -19 38 9 16 25 3 18
-14 -4 -11 -1 -13 11 -9 10 4 16 14 14 23 -4 21 -51 26 -67 7z"/>
<path d="M604 1686 c-9 -23 3 -46 23 -46 28 0 45 16 41 36 -4 25 -56 32 -64
10z m46 -16 c0 -5 -7 -10 -15 -10 -8 0 -15 5 -15 10 0 6 7 10 15 10 8 0 15 -4
15 -10z"/>
<path d="M2129 1027 c-15 -12 -32 -43 -34 -62 0 -5 -5 -17 -10 -25 -8 -12 -11
-9 -15 15 -3 18 -12 31 -23 33 -16 3 -17 1 -8 -16 6 -12 11 -32 11 -46 0 -39
24 -31 46 14 19 41 28 47 39 30 10 -16 35 1 35 25 0 31 -20 47 -41 32z m22
-30 c-1 -12 -15 -9 -19 4 -3 6 1 10 8 8 6 -3 11 -8 11 -12z"/>
<path d="M2020 870 c0 -11 4 -20 9 -20 11 0 22 26 14 34 -12 12 -23 5 -23 -14z"/>
<path d="M4457 1703 c-10 -10 -8 -55 2 -49 5 3 7 15 4 26 -3 11 0 20 6 20 6 0
11 -12 11 -26 0 -14 4 -23 10 -19 16 10 12 42 -6 49 -19 7 -19 7 -27 -1z"/>
<path d="M4373 1673 c-8 -21 4 -28 23 -12 16 13 16 12 6 -7 -6 -11 -18 -26
-26 -34 -25 -20 -19 -30 18 -30 36 0 52 12 40 31 -4 8 -9 7 -15 -2 -4 -7 -11
-10 -15 -6 -4 4 0 15 9 25 24 26 21 39 -9 45 -16 3 -28 0 -31 -10z"/>
<path d="M1093 1086 c-16 -19 -4 -29 13 -11 8 7 14 16 14 19 0 10 -15 6 -27
-8z"/>
<path d="M2248 3003 c-11 -3 -18 -14 -18 -28 0 -13 -5 -27 -11 -30 -6 -4 -8
-13 -5 -21 3 -7 1 -16 -4 -19 -25 -15 -8 -32 30 -32 22 0 40 4 40 8 0 5 6 9
13 9 6 0 17 10 23 23 13 29 -1 87 -21 87 -18 0 -18 -2 -4 -34 10 -20 9 -30 -5
-51 -19 -29 -56 -34 -56 -7 0 10 3 22 7 26 5 5 34 79 29 75 0 -1 -9 -3 -18 -6z"/>
<path d="M909 2985 c-36 -19 -55 -68 -41 -100 9 -20 19 -25 46 -25 18 0 39 6
45 14 10 12 6 13 -29 9 -39 -6 -40 -5 -40 26 0 30 29 71 50 71 5 0 15 -10 21
-22 12 -22 12 -22 19 -3 13 35 -29 52 -71 30z"/>
<path d="M4720 2970 c0 -16 3 -30 8 -30 4 -1 18 -10 31 -21 20 -17 22 -22 11
-29 -10 -6 -21 -3 -32 7 -17 15 -18 15 -18 -4 0 -23 40 -40 51 -22 3 6 10 10
15 9 5 0 10 8 12 19 2 12 -8 27 -27 41 -36 25 -40 40 -11 40 11 0 20 -5 20
-12 0 -9 3 -9 11 -1 18 18 1 33 -37 33 -31 0 -34 -2 -34 -30z"/>
<path d="M4826 2978 c-40 -57 6 -130 68 -108 32 11 22 25 -16 22 -40 -4 -47 8
-40 61 4 22 9 27 33 27 16 0 29 -4 29 -10 0 -5 5 -10 10 -10 6 0 10 9 10 20 0
30 -73 29 -94 -2z"/>
<path d="M4981 2986 c-9 -11 -8 -17 4 -29 8 -9 15 -19 15 -24 0 -5 6 -21 13
-36 12 -27 31 -35 42 -17 3 6 2 10 -2 10 -10 0 -43 74 -43 95 0 19 -14 19 -29
1z"/>
<path d="M5080 2935 l0 -65 42 3 c23 2 43 8 45 14 3 8 -7 10 -33 6 l-37 -6 5
56 c4 43 1 57 -9 57 -9 0 -13 -17 -13 -65z"/>
<path d="M5189 2995 c0 -3 -1 -31 -1 -62 0 -46 3 -59 16 -61 13 -3 16 6 16 54
l0 57 30 -6 c22 -5 30 -3 30 8 0 11 -12 15 -45 15 -25 0 -45 -2 -46 -5z"/>
<path d="M4948 2916 c-16 -32 -15 -46 4 -46 4 0 8 5 8 11 0 7 7 17 15 23 13 9
13 14 3 28 -12 16 -15 14 -30 -16z"/>
<path d="M5240 2935 c7 -8 16 -15 21 -15 5 0 9 7 9 15 0 9 -9 15 -21 15 -18 0
-19 -2 -9 -15z"/>
<path d="M5248 2893 c-27 -7 -22 -23 7 -23 16 0 25 6 25 15 0 15 -2 16 -32 8z"/>
<path d="M4731 1726 c-16 -19 -11 -29 8 -17 7 5 12 14 9 21 -3 9 -8 7 -17 -4z"/>
<path d="M4755 1688 c-4 -28 -13 -52 -21 -55 -22 -8 -16 -23 10 -23 21 0 24 6
30 49 6 48 36 94 36 57 0 -10 5 -14 10 -11 24 15 9 34 -24 33 -34 -1 -35 -3
-41 -50z"/>
<path d="M150 1707 c0 -14 -7 -41 -15 -60 -21 -51 -19 -57 19 -57 40 0 60 21
54 55 -4 17 0 29 11 35 24 14 1 44 -38 48 -27 3 -31 0 -31 -21z m50 -10 c0 -7
-6 -19 -12 -26 -10 -11 -10 -14 -1 -18 17 -6 -2 -43 -22 -43 -17 0 -20 26 -5
35 6 3 10 16 10 29 0 12 3 26 7 29 11 11 23 8 23 -6z"/>
<path d="M2241 397 c-6 -8 -13 -41 -15 -74 -3 -54 -1 -60 14 -56 11 3 16 11
13 22 -2 9 0 37 6 61 11 48 2 70 -18 47z"/>
<path d="M1960 351 c0 -5 -11 -12 -25 -15 -23 -6 -114 -47 -307 -139 -49 -23
-88 -48 -88 -54 0 -17 2 -17 67 16 32 16 133 66 226 111 92 45 167 83 167 86
0 2 -9 4 -20 4 -11 0 -20 -4 -20 -9z"/>
<path d="M2176 311 c-16 -16 -25 -34 -22 -40 10 -16 36 -1 36 20 0 10 7 19 15
19 8 0 15 7 15 15 0 22 -13 18 -44 -14z"/>
</g>
</svg>
