<?xml version="1.0" standalone="no"?>
<!DOCTYPE svg PUBLIC "-//W3C//DTD SVG 20010904//EN"
 "http://www.w3.org/TR/2001/REC-SVG-20010904/DTD/svg10.dtd">
<svg version="1.0" xmlns="http://www.w3.org/2000/svg"
 width="272.000000pt" height="288.000000pt" viewBox="0 0 272.000000 288.000000"
 preserveAspectRatio="xMidYMid meet">
<g transform="translate(0.000000,288.000000) scale(0.100000,-0.100000)"
fill="#ffffff" stroke="none">
<path d="M1838 2708 c-3 -18 -8 -40 -12 -49 -6 -14 -2 -16 26 -10 24 5 33 12
33 26 0 11 4 23 9 27 14 9 -12 38 -34 38 -12 0 -19 -10 -22 -32z"/>
<path d="M1762 2467 c-52 -72 -137 -193 -189 -267 -53 -74 -106 -151 -119
-170 -13 -19 -51 -73 -84 -120 -34 -47 -77 -107 -96 -135 -50 -73 -225 -321
-372 -529 -78 -111 -146 -207 -187 -266 -22 -32 -65 -93 -95 -136 -30 -43 -73
-103 -95 -135 -22 -31 -69 -98 -105 -149 -115 -163 -150 -219 -139 -226 6 -3
18 0 27 8 9 8 33 21 52 28 19 7 80 35 135 61 55 26 161 75 235 109 140 64 195
90 393 184 65 31 120 56 122 56 2 0 50 22 107 49 57 27 159 75 228 106 69 32
168 78 220 102 52 25 129 61 170 80 41 19 116 54 165 78 50 24 119 56 155 70
36 15 77 36 92 47 l27 19 -23 63 c-13 35 -29 72 -35 82 -6 10 -29 64 -52 119
-66 162 -134 322 -189 450 -29 66 -67 156 -84 200 -18 44 -45 106 -59 138 -15
31 -41 93 -58 137 -17 44 -36 80 -42 80 -7 0 -54 -60 -105 -133z m108 91 c0
-6 11 -34 24 -62 14 -29 36 -81 49 -116 13 -36 34 -85 45 -110 26 -55 99 -229
154 -365 22 -55 44 -104 48 -110 4 -5 24 -52 44 -103 20 -52 43 -106 51 -120
8 -15 28 -63 45 -106 17 -43 38 -88 46 -100 17 -25 18 -36 3 -36 -6 0 -58 -22
-116 -50 -57 -27 -106 -50 -108 -50 -2 0 -66 -30 -142 -66 -235 -111 -257
-121 -293 -137 -36 -16 -181 -83 -305 -142 -86 -41 -175 -82 -375 -175 -165
-76 -214 -99 -380 -178 -58 -27 -132 -61 -165 -75 -33 -14 -85 -39 -115 -56
-30 -17 -58 -31 -63 -31 -4 0 25 43 63 96 39 52 95 130 124 172 92 135 220
317 226 322 4 3 28 37 53 75 26 39 65 95 87 125 22 30 62 87 88 125 59 86 287
411 313 445 10 14 67 94 126 179 59 84 120 170 134 190 86 121 249 355 283
408 40 60 56 75 56 51z"/>
<path d="M2462 1374 c-28 -19 -28 -55 -1 -72 16 -10 24 -10 35 -1 20 17 17 28
-6 22 -16 -4 -20 0 -20 17 0 19 4 21 25 16 20 -5 25 -3 25 14 0 24 -26 26 -58
4z"/>
<path d="M207 324 c-29 -35 -31 -58 -3 -35 11 9 15 9 18 0 2 -7 11 -10 19 -7
11 4 14 16 11 42 -2 20 -7 36 -11 36 -3 0 -19 -16 -34 -36z"/>
</g>
</svg>
