<?xml version="1.0" standalone="no"?>
<!DOCTYPE svg PUBLIC "-//W3C//DTD SVG 20010904//EN"
 "http://www.w3.org/TR/2001/REC-SVG-20010904/DTD/svg10.dtd">
<svg version="1.0" xmlns="http://www.w3.org/2000/svg"
 width="467.000000pt" height="201.000000pt" viewBox="0 0 467.000000 201.000000"
 preserveAspectRatio="xMidYMid meet">
<g transform="translate(0.000000,201.000000) scale(0.100000,-0.100000)"
fill="#ffffff" stroke="none">
<path d="M2020 1818 c0 -13 -7 -36 -15 -52 -20 -37 -20 -36 20 -36 36 0 57 22
47 49 -2 7 1 17 8 21 22 14 3 40 -30 40 -24 0 -30 -4 -30 -22z m35 -48 c3 -6
-1 -13 -10 -16 -19 -8 -30 0 -20 15 8 14 22 14 30 1z"/>
<path d="M1950 1689 c-19 -5 -82 -18 -140 -29 -58 -10 -166 -31 -240 -45 -74
-14 -167 -31 -207 -39 l-72 -13 -3 26 c-3 24 -7 26 -55 29 l-51 3 5 -39 c6
-47 10 -45 -122 -62 -49 -7 -94 -16 -100 -20 -5 -4 -50 -12 -100 -19 -49 -7
-97 -15 -105 -18 -8 -3 -24 -7 -35 -9 -11 -2 -69 -12 -130 -24 -60 -12 -152
-28 -202 -37 -65 -11 -93 -20 -93 -29 0 -8 15 -36 33 -62 18 -26 58 -83 89
-127 30 -44 78 -114 107 -155 29 -41 73 -106 99 -145 26 -38 49 -72 52 -75 7
-7 33 -45 111 -160 35 -52 66 -97 69 -100 3 -3 27 -38 54 -77 26 -40 52 -73
57 -73 5 0 34 9 65 19 30 11 80 25 112 31 31 7 62 16 67 20 6 4 37 13 70 20
33 7 65 16 71 21 6 5 14 6 17 3 3 -3 12 -2 19 2 7 5 42 16 78 26 36 9 108 28
160 43 52 15 124 34 160 44 36 10 72 20 80 24 8 3 51 16 95 27 44 12 121 32
170 46 50 13 122 33 160 44 107 29 240 66 340 94 50 14 119 33 155 42 36 8 74
20 85 25 19 8 107 32 245 65 36 9 70 20 75 24 6 4 46 15 90 25 44 9 85 21 90
26 6 4 30 11 52 15 38 6 70 34 40 34 -7 0 -28 8 -47 19 -19 10 -53 24 -75 31
-22 7 -49 19 -60 25 -11 7 -37 18 -58 25 -22 7 -51 18 -65 26 -15 8 -31 14
-35 14 -5 0 -32 11 -60 24 -45 20 -79 35 -97 41 -18 6 -176 72 -218 91 -19 8
-74 30 -124 50 -49 19 -97 39 -106 44 -9 5 -60 26 -112 46 -52 20 -99 40 -105
44 -5 4 -28 13 -50 20 -22 7 -56 21 -75 31 -19 11 -38 19 -42 19 -4 0 -19 5
-35 12 -15 6 -31 12 -35 12 -3 1 -10 4 -14 9 -10 9 -60 7 -104 -4z m153 -40
c40 -17 91 -39 114 -50 24 -10 46 -19 50 -19 5 -1 26 -9 48 -20 22 -11 44 -19
48 -20 5 0 33 -11 63 -25 30 -14 57 -25 60 -25 3 0 20 -6 37 -14 77 -35 176
-76 183 -76 4 0 25 -9 48 -19 74 -34 163 -71 172 -71 5 0 25 -8 44 -19 19 -10
46 -22 60 -26 14 -4 39 -13 55 -20 104 -46 174 -75 180 -75 3 0 30 -11 58 -23
29 -13 65 -27 81 -31 44 -11 21 -25 -85 -51 -52 -13 -137 -35 -189 -50 -52
-15 -124 -34 -160 -43 -36 -10 -69 -20 -75 -23 -5 -4 -46 -15 -90 -24 -44 -10
-84 -21 -90 -25 -5 -4 -37 -13 -70 -20 -33 -7 -64 -16 -70 -20 -5 -4 -46 -15
-90 -25 -44 -9 -84 -20 -90 -24 -5 -4 -37 -13 -70 -20 -33 -8 -64 -16 -70 -20
-5 -3 -48 -16 -95 -28 -47 -12 -128 -33 -180 -48 -52 -15 -122 -33 -155 -41
-33 -8 -69 -19 -80 -24 -11 -5 -54 -17 -95 -26 -41 -9 -79 -20 -85 -24 -5 -5
-38 -14 -73 -20 -34 -7 -65 -17 -68 -21 -11 -18 -52 -8 -70 17 -43 60 -65 81
-119 114 -50 30 -66 34 -124 34 -53 0 -77 -6 -125 -29 -32 -17 -71 -45 -87
-63 -16 -18 -33 -30 -39 -27 -5 3 -23 26 -40 52 -17 25 -55 80 -85 123 -30 43
-67 97 -84 121 -17 24 -53 77 -81 118 -28 40 -50 74 -48 75 79 36 144 77 175
108 35 36 38 44 38 94 0 52 -2 58 -43 95 -49 46 -52 60 -14 59 15 -1 77 8 137
20 61 11 164 30 230 41 66 11 129 24 140 29 11 5 63 16 115 24 52 9 156 27
230 41 74 14 182 35 240 45 103 19 116 22 195 39 61 13 62 13 138 -20z m-878
-74 c0 -16 -6 -30 -12 -32 -9 -3 -13 7 -13 32 0 25 4 35 13 33 6 -3 12 -17 12
-33z m39 19 c10 -25 7 -34 -9 -34 -9 0 -15 9 -15 25 0 28 15 34 24 9z m-612
-211 c46 -38 56 -53 64 -89 12 -61 -33 -114 -141 -169 l-68 -34 -51 75 c-28
41 -70 100 -93 132 l-42 57 65 13 c35 6 94 18 132 26 94 19 97 19 134 -11z
m580 -738 c49 -32 121 -112 113 -125 -3 -4 -25 -11 -50 -14 -24 -4 -47 -11
-50 -16 -3 -4 -24 -11 -48 -15 -23 -4 -78 -18 -121 -31 -44 -13 -87 -24 -95
-24 -14 1 -91 107 -99 136 -4 15 69 78 122 104 63 32 166 25 228 -15z"/>
<path d="M582 1318 c-32 -41 -19 -112 21 -106 14 2 25 13 32 33 7 20 17 30 30
30 11 0 21 8 23 18 5 23 -28 35 -43 14 -10 -14 -12 -14 -23 4 -14 22 -26 24
-40 7z m28 -58 c0 -22 -4 -40 -10 -40 -5 0 -10 18 -10 40 0 22 5 40 10 40 6 0
10 -18 10 -40z"/>
<path d="M503 1300 c-11 -16 -10 -21 7 -30 24 -13 27 -42 4 -38 -10 2 -19 -3
-22 -10 -3 -10 4 -13 24 -10 35 4 45 40 18 69 -16 17 -16 19 -1 19 10 0 17 5
17 10 0 18 -35 11 -47 -10z"/>
<path d="M1005 591 c-14 -14 -6 -111 9 -111 10 0 12 15 9 53 -6 68 -6 70 -18
58z"/>
<path d="M1079 598 c-1 -2 -2 -29 -3 -60 -2 -42 1 -58 11 -58 9 0 13 17 13 60
0 33 -4 60 -10 60 -5 0 -10 -1 -11 -2z"/>
<path d="M1142 588 c-16 -16 -15 -83 2 -97 20 -17 44 -3 51 31 5 20 11 28 22
24 8 -3 21 0 28 8 12 11 12 16 -1 32 -14 18 -15 18 -32 -2 -18 -21 -19 -21
-30 -3 -14 22 -23 24 -40 7z m32 -24 c7 -19 -3 -64 -15 -64 -5 0 -9 18 -9 40
0 40 13 53 24 24z"/>
<path d="M939 1653 c0 -5 -2 -32 -2 -60 -2 -46 1 -53 17 -53 12 0 16 5 12 16
-3 9 -6 36 -6 60 0 24 -4 44 -10 44 -5 0 -10 -3 -11 -7z"/>
<path d="M1006 1638 c-4 -16 1 -28 15 -38 22 -17 16 -30 -13 -30 -22 0 -24
-16 -3 -23 24 -10 59 26 51 51 -4 12 -12 22 -18 22 -6 0 -3 9 7 20 18 20 17
20 -7 20 -18 0 -27 -7 -32 -22z"/>
<path d="M1108 1605 c4 -52 14 -70 25 -42 4 9 8 8 16 -3 5 -8 13 -11 17 -7 4
3 1 13 -6 22 -10 12 -10 18 0 30 15 18 -1 20 -18 3 -9 -9 -12 -5 -12 20 0 19
-5 32 -12 32 -9 0 -12 -16 -10 -55z"/>
<path d="M3944 1553 c3 -8 6 -35 6 -59 0 -32 4 -44 14 -44 11 0 13 9 9 38 l-6
37 36 -40 36 -40 1 57 c0 31 -5 60 -10 63 -7 4 -8 -8 -5 -37 l6 -43 -25 30
c-14 17 -26 33 -26 36 0 4 -9 9 -21 12 -15 4 -19 2 -15 -10z"/>
<path d="M4070 1548 c-34 -37 -12 -98 36 -98 24 0 54 33 54 60 0 21 -36 60
-55 60 -8 0 -23 -10 -35 -22z m58 -42 c-2 -23 -8 -32 -25 -34 -20 -3 -23 1
-23 31 0 35 13 48 38 39 8 -3 12 -17 10 -36z"/>
<path d="M4198 1562 c-37 -3 -55 -22 -22 -22 13 0 15 -9 12 -45 -3 -37 0 -45
14 -45 15 0 17 7 11 47 -6 44 -5 46 15 41 15 -4 22 -2 22 7 0 18 -8 21 -52 17z"/>
<path d="M4290 1554 c-13 -14 -2 -24 17 -17 13 5 15 -2 12 -40 -4 -41 -2 -47
15 -47 16 0 18 5 13 45 -6 40 -5 45 13 45 11 0 20 4 20 9 0 14 -80 18 -90 5z"/>
<path d="M4413 1562 c-22 -14 -33 -60 -21 -87 15 -33 60 -34 82 -3 21 30 20
50 -4 76 -22 23 -37 27 -57 14z m37 -26 c16 -20 9 -60 -12 -64 -24 -5 -42 32
-28 58 13 24 23 25 40 6z"/>
<path d="M146 1415 c-3 -8 -3 -23 0 -32 4 -13 3 -14 -3 -5 -7 9 -16 5 -36 -18
-31 -34 -33 -40 -12 -40 8 0 15 6 15 14 0 8 7 16 15 20 10 4 15 -1 15 -14 0
-11 7 -20 15 -20 12 0 15 13 15 55 0 53 -11 72 -24 40z"/>
<path d="M3957 1383 c-15 -14 -6 -43 19 -59 17 -11 22 -20 15 -27 -7 -7 -16
-6 -27 4 -14 12 -16 11 -13 -6 5 -26 48 -27 63 -2 9 15 6 22 -16 41 -33 26
-40 53 -8 34 21 -13 36 -6 25 11 -7 12 -48 15 -58 4z"/>
<path d="M4046 1374 c-22 -21 -20 -67 2 -87 22 -20 43 -22 60 -5 19 19 14 30
-10 17 -18 -10 -24 -8 -35 7 -7 10 -11 25 -8 32 3 8 5 18 5 23 0 5 9 9 20 9
11 0 20 -4 20 -10 0 -5 5 -10 10 -10 6 0 10 9 10 20 0 15 -7 20 -29 20 -16 0
-37 -7 -45 -16z"/>
<path d="M4170 1379 c0 -8 -9 -31 -20 -52 -24 -44 -25 -57 -5 -57 8 0 15 9 15
20 0 14 7 20 21 20 11 0 18 -4 15 -8 -7 -12 10 -35 22 -28 6 4 4 22 -7 51 -19
50 -41 79 -41 54z"/>
<path d="M4244 1374 c3 -9 6 -36 6 -60 0 -45 0 -45 32 -42 24 2 34 9 36 23 3
16 1 18 -9 8 -7 -7 -19 -13 -26 -13 -17 0 -18 71 -1 88 9 9 6 12 -16 12 -22 0
-27 -4 -22 -16z"/>
<path d="M4339 1383 c-1 -4 -1 -30 -1 -58 0 -49 0 -50 32 -53 37 -4 60 12 43
29 -8 8 -13 8 -17 0 -12 -18 -38 -13 -34 7 2 10 11 16 21 14 10 -2 17 3 17 12
0 9 -7 12 -21 9 -17 -5 -20 -2 -17 13 4 20 10 21 42 8 14 -5 17 -3 14 7 -5 15
-77 26 -79 12z"/>
<path d="M3521 1111 c-27 -38 -26 -57 3 -76 18 -12 30 -13 50 -6 14 6 26 16
26 22 0 7 -7 8 -17 4 -35 -14 -48 -10 -51 16 -4 36 22 57 50 40 23 -14 33 -9
25 14 -11 27 -63 19 -86 -14z"/>
<path d="M228 730 c-1 -5 -1 -32 0 -60 3 -35 8 -50 18 -50 10 0 14 15 14 60 0
45 -4 60 -14 60 -8 0 -16 -4 -18 -10z"/>
<path d="M297 733 c-13 -12 -7 -23 13 -23 27 0 25 -12 -5 -48 -27 -33 -24 -41
14 -38 28 1 42 26 15 26 -16 0 -16 1 1 20 22 24 13 70 -14 70 -10 0 -21 -3
-24 -7z"/>
<path d="M414 723 c-13 -22 -7 -43 12 -43 8 0 14 -7 14 -15 0 -8 -9 -15 -20
-15 -11 0 -20 -4 -20 -9 0 -17 19 -22 40 -11 25 13 26 55 3 69 -17 10 -17 10
0 11 9 0 17 7 17 15 0 21 -33 19 -46 -2z"/>
<path d="M515 680 c-1 -61 6 -73 24 -42 6 9 11 11 11 5 0 -7 7 -13 15 -13 20
0 19 7 -5 32 -11 12 -20 34 -20 50 0 16 -5 28 -12 28 -9 0 -13 -19 -13 -60z"/>
<path d="M590 665 c0 -41 17 -47 22 -7 3 31 23 28 23 -5 0 -11 3 -25 8 -29 4
-4 7 10 7 30 0 26 4 36 13 33 6 -2 12 -16 12 -32 0 -15 6 -30 14 -33 10 -3 12
0 8 12 -4 10 -7 29 -7 42 0 22 -4 24 -50 24 l-50 0 0 -35z"/>
<path d="M2083 653 c-24 -9 -14 -30 12 -25 21 4 24 1 19 -14 -4 -11 -11 -25
-17 -31 -5 -7 -6 -21 -2 -30 5 -14 11 -6 26 32 10 28 17 56 14 63 -4 12 -29
15 -52 5z"/>
<path d="M2206 644 c-21 -20 -20 -22 6 -43 22 -19 17 -46 -8 -37 -8 3 -14 -1
-14 -9 0 -20 25 -19 44 1 20 20 20 38 0 55 -14 11 -14 13 0 21 9 5 16 13 16
18 0 15 -27 12 -44 -6z"/>
<path d="M2300 601 c0 -34 4 -61 10 -61 6 0 10 7 10 15 0 8 5 15 10 15 6 0 10
-6 10 -13 0 -9 12 -14 31 -14 25 0 30 4 25 20 -5 22 2 47 15 47 5 0 9 -16 9
-35 0 -19 5 -35 11 -35 6 0 10 10 9 23 -3 37 0 48 11 42 5 -4 9 -18 7 -33 -2
-14 3 -27 10 -30 10 -3 13 6 10 34 l-3 39 -63 3 c-40 2 -69 -2 -79 -9 -12 -11
-14 -8 -11 16 2 16 -2 30 -9 32 -10 3 -13 -12 -13 -56z m80 -16 c0 -28 -12
-32 -30 -10 -14 16 -6 35 16 35 8 0 14 -10 14 -25z"/>
<path d="M2016 598 c1 -38 6 -53 15 -53 8 0 14 6 13 13 -1 6 -2 30 -2 52 -1
25 -7 40 -14 40 -9 0 -13 -16 -12 -52z"/>
<path d="M2150 555 c0 -9 5 -15 11 -13 6 2 11 8 11 13 0 5 -5 11 -11 13 -6 2
-11 -4 -11 -13z"/>
<path d="M920 271 c0 -10 -7 -35 -15 -54 -19 -47 -19 -47 11 -47 33 0 83 29
86 50 5 52 -9 70 -54 70 -21 0 -28 -5 -28 -19z m60 -30 c0 -24 -12 -37 -38
-46 -22 -6 -23 -5 -17 17 14 50 28 68 42 57 7 -6 13 -19 13 -28z"/>
</g>
</svg>
