<?xml version="1.0" standalone="no"?>
<!DOCTYPE svg PUBLIC "-//W3C//DTD SVG 20010904//EN"
 "http://www.w3.org/TR/2001/REC-SVG-20010904/DTD/svg10.dtd">
<svg version="1.0" xmlns="http://www.w3.org/2000/svg"
 width="1200.000000pt" height="814.000000pt" viewBox="0 0 1200.000000 814.000000"
 preserveAspectRatio="xMidYMid meet">
<g transform="translate(0.000000,814.000000) scale(0.100000,-0.100000)"
fill="#ffffff" stroke="none">
<path d="M7975 7347 c-4 -10 -5 -21 -1 -24 10 -10 18 4 13 24 -4 17 -4 17 -12
0z"/>
<path d="M7680 7309 c0 -11 5 -17 10 -14 6 3 10 13 10 21 0 8 -4 14 -10 14 -5
0 -10 -9 -10 -21z"/>
<path d="M8160 7294 c0 -9 7 -14 17 -12 25 5 28 28 4 28 -12 0 -21 -6 -21 -16z"/>
<path d="M10247 7303 c-4 -3 -7 -21 -7 -39 0 -23 6 -37 20 -44 16 -9 20 -21
20 -65 0 -36 -7 -68 -21 -95 -12 -22 -19 -46 -16 -54 6 -15 53 -27 74 -19 11
4 13 24 11 81 -2 62 0 77 12 79 14 3 28 -16 73 -97 50 -92 66 -78 65 54 0 81
3 108 17 129 20 31 17 71 -7 75 -9 2 -26 -6 -38 -18 -18 -18 -20 -28 -15 -74
9 -69 -7 -81 -46 -37 -16 18 -31 41 -34 52 -3 10 -26 32 -51 49 -25 16 -46 30
-48 30 -1 0 -6 -3 -9 -7z"/>
<path d="M7822 7293 c-19 -8 -4 -22 18 -16 11 3 17 9 14 14 -6 10 -12 10 -32
2z"/>
<path d="M11122 7273 c-22 -26 -22 -28 -6 -40 10 -7 28 -13 40 -13 13 0 25 -4
28 -9 3 -4 1 -49 -5 -100 -9 -71 -9 -95 1 -106 13 -15 65 -20 94 -9 20 8 21
33 2 59 -7 11 -16 50 -18 88 -5 58 -3 69 12 77 10 6 35 10 56 10 l37 0 -7 -42
c-9 -55 -9 -56 2 -100 5 -21 23 -51 38 -68 26 -27 35 -30 90 -30 58 0 64 2 90
34 56 66 64 80 64 116 0 24 -7 43 -20 55 -11 10 -20 26 -20 35 0 10 -6 22 -12
28 -14 11 -68 17 -135 14 -32 -2 -43 -7 -48 -22 -8 -25 -32 -26 -40 -1 -6 20
-38 31 -109 37 -23 2 -57 6 -76 9 -29 4 -39 0 -58 -22z m407 -74 c43 -42 42
-87 0 -127 -21 -19 -38 -28 -51 -24 -20 5 -68 72 -68 94 0 24 50 88 70 88 10
0 32 -14 49 -31z"/>
<path d="M10817 7276 c-15 -6 -27 -15 -27 -22 0 -24 -23 -27 -40 -4 -15 20
-26 22 -94 23 -42 0 -81 -4 -86 -9 -6 -6 -17 -36 -25 -67 -12 -47 -13 -65 -2
-104 7 -27 24 -60 38 -75 23 -24 34 -28 82 -28 54 0 57 2 91 44 34 40 36 48
36 113 0 67 1 71 25 77 14 4 34 2 46 -4 15 -9 19 -18 14 -43 -3 -18 -6 -66 -7
-107 l-3 -75 45 0 c44 0 45 1 44 30 -1 17 -5 67 -9 113 -8 85 -7 88 34 82 26
-3 61 10 61 24 0 7 -8 20 -17 29 -14 12 -37 15 -98 14 -44 -1 -92 -6 -108 -11z
m-106 -83 c5 -13 9 -38 9 -55 0 -34 -26 -84 -49 -93 -9 -3 -27 6 -43 23 -19
19 -29 39 -30 62 -2 52 10 78 40 88 37 12 62 4 73 -25z"/>
<path d="M7712 7188 c-16 -16 -15 -28 3 -28 8 0 15 9 15 20 0 11 -1 20 -3 20
-2 0 -8 -5 -15 -12z"/>
<path d="M7951 7130 c-12 -17 -41 -42 -64 -56 -23 -15 -105 -89 -182 -165
-168 -166 -218 -213 -274 -259 -23 -19 -86 -78 -139 -130 -53 -52 -113 -108
-132 -123 -19 -16 -129 -120 -243 -230 -115 -111 -217 -205 -228 -209 -11 -4
-88 -76 -172 -160 -131 -131 -218 -209 -324 -293 -14 -11 -96 -90 -183 -175
-86 -85 -194 -186 -240 -225 -47 -38 -167 -152 -269 -252 -102 -100 -194 -184
-205 -185 -30 -4 -33 37 -6 74 14 19 20 40 18 61 -3 31 -5 32 -53 35 -48 3
-51 2 -98 -49 -46 -50 -48 -54 -45 -103 l3 -51 71 3 c44 3 74 0 78 -7 4 -6 -5
-21 -20 -33 -15 -13 -46 -41 -69 -63 -23 -22 -59 -52 -80 -67 -63 -44 -151
-125 -310 -283 -83 -82 -169 -163 -192 -178 -45 -31 -88 -70 -307 -284 -80
-79 -159 -151 -174 -160 -39 -26 -80 -63 -217 -198 -67 -66 -171 -164 -231
-219 -60 -54 -152 -139 -204 -190 -52 -50 -135 -127 -184 -171 -98 -88 -166
-156 -166 -167 0 -4 -20 -21 -45 -39 -25 -18 -45 -40 -45 -49 0 -11 18 -25 49
-39 27 -11 59 -21 71 -21 12 0 33 -9 47 -20 16 -12 41 -20 64 -20 28 0 41 -5
49 -20 7 -13 21 -20 40 -20 16 0 33 -7 38 -15 5 -9 26 -18 51 -20 23 -2 52
-11 64 -20 12 -8 36 -15 53 -15 17 0 43 -9 57 -20 16 -13 40 -20 66 -20 30 0
43 -5 51 -20 7 -13 21 -20 39 -20 15 0 36 -9 46 -20 11 -12 31 -20 51 -20 18
0 40 -7 48 -16 9 -8 38 -19 65 -23 28 -4 56 -13 64 -19 8 -7 35 -15 61 -18 32
-5 50 -13 57 -26 7 -13 18 -18 30 -15 10 3 30 -3 43 -14 13 -10 35 -19 48 -19
12 0 37 -9 53 -20 17 -11 44 -20 60 -20 17 0 44 -9 60 -20 17 -11 46 -20 66
-20 23 0 42 -7 54 -20 10 -11 30 -20 45 -20 15 0 35 -9 45 -20 10 -11 31 -20
47 -20 17 0 41 -9 55 -20 14 -11 40 -20 58 -20 18 0 38 -7 45 -15 6 -8 39 -17
71 -21 44 -5 62 -12 70 -25 7 -14 16 -18 34 -13 17 4 27 0 37 -15 9 -15 23
-21 51 -21 25 0 43 -7 54 -20 12 -13 30 -20 54 -20 20 0 42 -6 48 -14 7 -8 38
-18 69 -22 38 -5 61 -13 70 -25 8 -11 25 -19 43 -19 16 0 38 -9 49 -20 12 -12
33 -20 55 -20 25 0 37 -6 46 -21 8 -15 18 -20 36 -16 23 4 67 -5 103 -23 9 -4
31 -11 50 -15 19 -4 41 -16 48 -27 9 -12 20 -17 33 -13 11 4 31 -2 48 -14 16
-12 41 -21 55 -21 14 0 34 -9 43 -20 11 -12 30 -20 49 -20 18 0 38 -8 49 -20
14 -15 31 -20 70 -20 39 0 56 -5 70 -20 10 -11 31 -20 48 -20 16 0 35 -7 41
-15 6 -9 29 -18 51 -22 22 -3 48 -14 58 -25 12 -12 26 -17 39 -12 13 4 27 -1
41 -14 14 -12 43 -22 77 -26 32 -3 60 -12 66 -21 6 -8 25 -15 43 -15 19 0 38
-8 48 -20 12 -13 30 -20 55 -20 27 0 41 -6 50 -20 8 -13 24 -20 44 -20 17 0
37 -6 43 -14 7 -8 37 -18 66 -21 31 -4 64 -16 76 -26 12 -11 37 -19 54 -19 18
0 38 -7 45 -15 7 -8 28 -17 49 -21 20 -3 41 -12 47 -20 6 -8 26 -16 43 -18 17
-2 39 -10 49 -18 9 -9 39 -18 66 -22 27 -3 57 -13 66 -21 9 -8 32 -15 52 -15
22 0 41 -7 53 -20 11 -12 31 -20 51 -20 23 0 37 -6 44 -20 8 -14 21 -20 45
-20 24 0 37 -6 45 -20 8 -16 21 -20 58 -20 30 0 58 -7 77 -20 17 -11 44 -20
62 -20 18 0 36 -7 41 -15 5 -9 24 -17 46 -18 22 -2 43 -10 51 -20 7 -10 25
-17 44 -17 20 0 35 -7 43 -20 9 -15 24 -20 53 -20 23 0 53 -9 70 -20 17 -11
45 -20 63 -20 19 0 45 -9 59 -20 14 -11 39 -20 54 -20 18 0 34 -8 41 -20 8
-12 24 -20 41 -20 16 0 40 -9 54 -20 34 -27 96 -27 123 0 25 25 25 41 2 61
-15 12 -18 35 -20 143 -2 88 -7 135 -17 150 -10 15 -16 77 -20 221 -5 138 -12
209 -21 229 -8 17 -17 82 -21 158 -4 88 -10 132 -20 139 -9 9 -13 43 -13 134
0 109 -2 124 -20 140 -18 16 -20 31 -20 144 0 91 -4 132 -14 146 -13 19 -21
113 -31 354 -3 63 -10 110 -17 119 -9 10 -14 59 -16 141 -3 90 -8 131 -18 142
-10 11 -16 53 -19 139 -3 88 -8 127 -19 139 -11 12 -16 50 -19 137 -3 85 -9
127 -19 145 -12 18 -17 68 -22 194 -4 94 -12 190 -18 215 -5 25 -13 110 -17
190 -5 115 -10 150 -23 170 -15 20 -18 46 -18 135 0 93 -3 115 -20 140 -17 25
-20 47 -20 143 0 80 -4 121 -15 141 -10 20 -18 93 -26 237 -7 133 -16 221 -25
241 -9 20 -14 69 -14 142 0 88 -4 118 -18 145 -14 25 -19 60 -21 147 -1 79 -6
118 -16 129 -9 10 -16 58 -20 145 -5 87 -11 133 -20 140 -9 7 -15 57 -20 155
-4 80 -7 171 -6 203 1 31 -6 74 -14 93 -11 26 -15 72 -15 157 0 101 -3 124
-17 140 -14 15 -19 44 -23 141 -4 105 -8 126 -28 159 -13 20 -29 37 -36 37 -7
0 -22 -14 -35 -30z m19 -125 c0 -20 6 -46 14 -58 13 -21 25 -164 31 -385 2
-45 8 -88 14 -96 7 -8 11 -60 12 -132 1 -98 4 -125 20 -152 16 -28 19 -53 19
-151 0 -105 2 -120 20 -136 18 -16 20 -31 20 -138 0 -95 3 -124 16 -138 12
-14 17 -60 25 -226 6 -114 15 -219 21 -233 6 -14 13 -83 16 -155 2 -83 9 -137
17 -151 8 -13 15 -66 18 -142 3 -95 8 -126 20 -140 14 -15 17 -41 17 -134 0
-99 3 -119 19 -140 16 -20 21 -46 25 -149 3 -68 10 -169 16 -224 6 -55 14
-161 18 -235 6 -99 12 -143 25 -165 13 -23 17 -55 17 -143 0 -99 3 -117 20
-139 17 -22 20 -41 20 -141 0 -92 3 -119 16 -133 12 -13 18 -54 26 -166 5 -81
14 -188 19 -238 5 -49 12 -147 17 -216 4 -69 12 -132 19 -140 6 -8 14 -70 18
-139 5 -78 13 -132 21 -145 10 -14 14 -54 14 -136 0 -103 2 -118 20 -134 18
-16 20 -31 20 -142 0 -87 4 -134 15 -160 8 -19 15 -54 14 -77 0 -22 3 -113 7
-201 5 -127 11 -167 25 -195 15 -27 19 -56 19 -139 0 -79 4 -109 15 -121 8 -9
18 -37 21 -62 6 -40 4 -47 -13 -52 -23 -7 -68 7 -89 29 -9 8 -28 15 -42 15
-15 0 -35 9 -45 21 -12 13 -24 18 -37 14 -13 -4 -25 1 -37 14 -10 12 -29 21
-43 21 -14 0 -45 9 -69 20 -24 11 -56 20 -71 20 -15 0 -37 9 -50 20 -15 13
-37 20 -66 20 -34 0 -44 4 -49 20 -5 14 -15 20 -38 20 -21 0 -36 7 -45 20 -8
14 -23 20 -49 20 -20 0 -44 7 -54 16 -10 9 -40 19 -66 21 -26 3 -56 12 -65 20
-9 8 -35 17 -58 20 -25 4 -44 13 -51 24 -6 13 -21 19 -43 19 -19 0 -36 6 -39
14 -3 7 -24 16 -47 19 -23 3 -49 12 -58 20 -9 8 -39 17 -66 21 -27 3 -60 13
-72 21 -13 8 -37 15 -53 15 -20 0 -34 7 -41 20 -7 14 -21 20 -43 20 -21 0 -36
7 -45 20 -9 14 -23 20 -51 20 -22 0 -44 6 -51 15 -7 8 -24 15 -39 15 -15 0
-44 9 -66 20 -22 11 -56 20 -77 20 -27 0 -40 5 -48 20 -7 13 -21 20 -40 20
-18 0 -37 8 -47 20 -11 12 -30 20 -49 20 -17 0 -43 9 -57 20 -14 11 -38 20
-54 20 -15 0 -41 9 -58 20 -19 13 -47 20 -77 20 -38 0 -48 4 -53 20 -4 14 -15
20 -36 20 -16 0 -38 9 -49 20 -12 12 -33 20 -53 20 -21 0 -41 8 -52 20 -11 12
-31 20 -52 20 -18 0 -44 6 -56 14 -12 8 -42 17 -67 21 -25 4 -53 15 -62 25
-10 11 -25 16 -37 13 -11 -3 -27 3 -39 15 -10 10 -36 22 -57 25 -20 3 -45 13
-55 22 -9 8 -27 15 -41 15 -13 0 -37 7 -54 16 -16 8 -52 18 -78 21 -32 4 -51
12 -58 24 -6 13 -21 19 -43 19 -19 0 -39 7 -46 15 -7 8 -30 18 -51 21 -21 4
-44 13 -50 20 -6 8 -24 14 -40 14 -17 0 -37 9 -46 20 -14 16 -30 20 -75 20
-47 0 -59 4 -68 20 -7 13 -21 20 -39 20 -15 0 -38 9 -51 20 -13 11 -37 20 -55
20 -19 0 -39 8 -50 20 -11 12 -31 20 -51 20 -19 0 -37 6 -41 15 -5 8 -32 17
-68 21 -41 5 -64 13 -73 26 -8 11 -25 18 -46 18 -19 0 -39 7 -46 15 -7 8 -28
17 -49 21 -20 4 -46 15 -58 26 -13 12 -29 18 -40 14 -12 -4 -28 1 -42 13 -12
10 -45 22 -76 26 -29 3 -59 13 -66 21 -6 8 -26 14 -44 14 -18 0 -44 9 -58 20
-14 11 -37 20 -51 20 -15 0 -31 8 -38 20 -8 13 -24 20 -44 20 -17 0 -37 6 -43
14 -7 8 -37 18 -67 22 -30 3 -66 15 -80 26 -14 11 -33 18 -44 15 -11 -3 -31 3
-44 14 -13 10 -37 19 -54 19 -16 0 -37 9 -47 20 -10 11 -30 20 -45 20 -15 0
-35 9 -45 20 -13 14 -31 20 -60 20 -27 0 -51 7 -68 20 -14 11 -39 20 -57 20
-18 0 -43 9 -57 20 -14 11 -40 20 -57 20 -20 0 -36 7 -44 20 -9 14 -23 20 -51
20 -37 0 -71 19 -71 40 0 5 7 15 15 22 9 7 41 37 73 67 31 30 93 83 137 119
44 35 150 132 236 215 86 84 202 195 259 247 131 120 136 125 146 142 5 8 45
44 89 79 44 36 152 137 240 223 88 87 192 183 230 214 39 30 80 64 91 76 134
130 314 304 334 321 14 12 45 36 70 55 25 19 110 100 190 180 80 80 181 175
225 211 44 36 132 117 197 180 64 63 153 148 198 189 124 113 184 172 206 200
10 14 39 41 64 60 24 19 50 40 56 45 7 6 31 26 55 45 23 19 117 109 208 199
91 90 182 174 201 186 43 29 62 46 284 262 99 96 195 185 215 198 20 12 95 80
167 151 72 71 184 179 249 239 65 61 174 165 243 233 69 67 131 122 138 122 9
0 14 -12 14 -35z m-2742 -2272 c-2 -25 -8 -39 -19 -41 -9 -2 -19 5 -21 15 -7
27 9 63 27 63 13 0 15 -9 13 -37z"/>
<path d="M6650 5590 c0 -5 7 -10 15 -10 8 0 15 5 15 10 0 6 -7 10 -15 10 -8 0
-15 -4 -15 -10z"/>
<path d="M6340 5290 c0 -5 7 -10 16 -10 8 0 12 5 9 10 -3 6 -10 10 -16 10 -5
0 -9 -4 -9 -10z"/>
<path d="M6272 5268 c5 -15 28 -18 29 -3 0 6 -7 12 -17 13 -10 3 -15 -1 -12
-10z"/>
<path d="M7920 5270 c0 -5 9 -10 20 -10 11 0 20 5 20 10 0 6 -9 10 -20 10 -11
0 -20 -4 -20 -10z"/>
<path d="M5555 4670 c-3 -5 1 -10 10 -10 9 0 13 5 10 10 -3 6 -8 10 -10 10 -2
0 -7 -4 -10 -10z"/>
<path d="M5048 4118 c9 -9 15 -9 24 0 9 9 7 12 -12 12 -19 0 -21 -3 -12 -12z"/>
<path d="M4732 3768 c-19 -19 -14 -37 8 -31 11 3 20 14 20 24 0 22 -11 24 -28
7z"/>
<path d="M4465 3397 c-11 -9 -16 -20 -12 -31 6 -16 8 -16 32 0 25 16 29 34 9
41 -5 2 -18 -3 -29 -10z"/>
<path d="M4155 3170 c-3 -6 1 -13 10 -16 19 -8 30 0 20 15 -8 14 -22 14 -30 1z"/>
<path d="M3974 3159 c-3 -6 -1 -16 5 -22 8 -8 11 -5 11 11 0 24 -5 28 -16 11z"/>
<path d="M3656 2875 c4 -8 10 -15 15 -15 5 0 9 7 9 15 0 8 -7 15 -15 15 -9 0
-12 -6 -9 -15z"/>
<path d="M3738 2853 c-29 -7 -21 -25 10 -21 15 2 26 7 25 13 -2 12 -12 14 -35
8z"/>
<path d="M5931 1731 c-10 -6 -10 -10 -1 -16 15 -10 62 3 55 15 -8 12 -35 13
-54 1z"/>
<path d="M5901 1683 c0 -25 1 -26 9 -8 12 27 12 35 0 35 -5 0 -10 -12 -9 -27z"/>
<path d="M7355 1150 c-3 -5 1 -10 10 -10 9 0 13 5 10 10 -3 6 -8 10 -10 10 -2
0 -7 -4 -10 -10z"/>
<path d="M7505 1090 c-3 -5 1 -10 10 -10 9 0 13 5 10 10 -3 6 -8 10 -10 10 -2
0 -7 -4 -10 -10z"/>
<path d="M7461 6976 c-8 -10 -9 -16 -1 -21 16 -10 50 4 50 21 0 18 -34 18 -49
0z"/>
<path d="M7362 6940 c0 -14 2 -19 5 -12 2 6 2 18 0 25 -3 6 -5 1 -5 -13z"/>
<path d="M7555 6941 c-6 -11 9 -23 19 -14 9 9 7 23 -3 23 -6 0 -12 -4 -16 -9z"/>
<path d="M11017 6848 c-14 -12 -15 -24 -7 -110 5 -54 7 -105 3 -113 -4 -11
-16 -15 -37 -13 -28 3 -32 7 -37 44 -3 23 -13 49 -23 59 -12 12 -16 28 -14 47
3 19 -1 33 -12 41 -9 7 -19 20 -23 30 -4 11 -14 17 -24 15 -12 -2 -19 -14 -21
-38 -2 -20 -12 -40 -23 -48 -10 -7 -19 -23 -19 -35 0 -13 -9 -30 -20 -40 -11
-9 -20 -26 -20 -36 0 -26 -15 -34 -30 -16 -16 19 -30 19 -44 1 -6 -7 -28 -16
-48 -19 -26 -4 -42 -1 -53 9 -8 9 -15 22 -15 30 0 8 -5 23 -12 34 -10 15 -9
22 4 37 9 10 18 29 20 43 3 22 8 25 42 24 24 -1 44 -8 51 -18 7 -9 24 -16 39
-16 24 0 26 4 26 39 0 26 -5 41 -16 45 -9 3 -50 6 -93 6 -72 0 -78 -2 -103
-30 -22 -25 -26 -41 -29 -107 -4 -73 -2 -80 25 -115 27 -37 30 -38 92 -38 54
0 65 3 79 23 l16 22 16 -22 c15 -23 48 -30 69 -15 5 4 15 23 20 42 8 30 14 35
39 35 25 0 31 -4 33 -27 2 -14 10 -32 18 -39 12 -10 84 -13 277 -15 166 -1
267 2 275 8 6 6 12 25 12 43 0 19 -6 35 -12 38 -7 2 -26 -7 -42 -20 -21 -18
-38 -23 -65 -21 -34 3 -36 5 -36 38 l0 35 48 -3 c55 -4 82 11 67 37 -6 12 -23
16 -62 16 -52 0 -53 0 -53 30 l0 30 60 0 c33 0 66 4 73 8 19 13 14 33 -11 44
-25 12 -173 5 -199 -9 -17 -8 -17 -11 2 -46 14 -26 20 -56 20 -103 l0 -66 -61
-6 c-34 -3 -68 -3 -77 0 -12 5 -14 24 -10 114 4 70 2 111 -5 118 -15 15 -49
14 -70 -1z m-152 -144 c0 -10 -8 -20 -18 -22 -22 -4 -35 27 -16 39 20 12 34 5
34 -17z"/>
<path d="M10271 6824 c-21 -18 -31 -35 -31 -54 0 -22 10 -36 42 -59 23 -17 47
-31 53 -31 18 0 58 -47 50 -59 -10 -17 -50 -13 -78 9 -14 11 -35 20 -47 20
-19 0 -21 -5 -18 -42 l3 -43 83 -3 c53 -2 89 1 98 9 8 6 14 30 14 54 0 30 -7
49 -23 67 -13 14 -34 29 -46 33 -12 3 -29 18 -38 31 -12 19 -13 28 -4 37 9 9
16 9 29 -1 28 -20 63 -33 73 -26 5 3 9 19 9 35 0 22 -6 32 -26 39 -14 6 -45
10 -69 10 -32 0 -51 -7 -74 -26z"/>
<path d="M10095 6560 c-10 -17 12 -37 25 -24 8 8 6 15 -4 23 -10 9 -16 9 -21
1z"/>
<path d="M11560 6550 c0 -5 9 -10 21 -10 11 0 17 5 14 10 -3 6 -13 10 -21 10
-8 0 -14 -4 -14 -10z"/>
<path d="M6743 6403 c-22 -8 -14 -23 13 -23 15 0 24 5 22 12 -5 14 -18 18 -35
11z"/>
<path d="M6855 6390 c-3 -5 1 -10 9 -10 9 0 16 5 16 10 0 6 -4 10 -9 10 -6 0
-13 -4 -16 -10z"/>
<path d="M6722 6320 c0 -14 2 -19 5 -12 2 6 2 18 0 25 -3 6 -5 1 -5 -13z"/>
<path d="M5860 5455 c0 -22 4 -34 10 -30 6 3 10 17 10 30 0 13 -4 27 -10 30
-6 4 -10 -8 -10 -30z"/>
<path d="M5770 5471 c0 -6 5 -13 10 -16 6 -3 10 1 10 9 0 9 -4 16 -10 16 -5 0
-10 -4 -10 -9z"/>
<path d="M8482 5280 c0 -14 2 -19 5 -12 2 6 2 18 0 25 -3 6 -5 1 -5 -13z"/>
<path d="M2340 5220 c0 -5 5 -10 10 -10 6 0 10 5 10 10 0 6 -4 10 -10 10 -5 0
-10 -4 -10 -10z"/>
<path d="M1760 5201 c0 -12 5 -21 10 -21 6 0 10 6 10 14 0 8 -4 18 -10 21 -5
3 -10 -3 -10 -14z"/>
<path d="M2158 5131 c-14 -11 -36 -25 -49 -31 -36 -16 -67 -35 -86 -52 -20
-17 -109 -69 -159 -93 -17 -8 -34 -21 -37 -30 -4 -8 -15 -15 -25 -15 -11 0
-25 -7 -32 -15 -7 -8 -18 -15 -26 -15 -7 0 -19 -8 -26 -17 -18 -24 -74 -63
-91 -63 -8 0 -22 -9 -32 -20 -10 -11 -27 -20 -37 -20 -10 0 -38 -18 -60 -40
-25 -23 -52 -40 -65 -40 -13 0 -26 -7 -30 -15 -3 -9 -20 -22 -37 -30 -17 -8
-58 -34 -91 -59 -33 -25 -65 -45 -71 -45 -6 -1 -19 -10 -29 -21 -10 -11 -28
-20 -41 -20 -13 0 -28 -9 -34 -20 -6 -11 -21 -20 -35 -20 -14 0 -40 -16 -65
-40 -23 -22 -49 -40 -58 -40 -8 0 -24 -7 -34 -17 -19 -17 -50 -36 -84 -52 -12
-5 -39 -26 -60 -45 -21 -20 -48 -36 -59 -36 -11 0 -26 -9 -33 -20 -7 -11 -23
-20 -37 -20 -13 0 -30 -8 -37 -17 -7 -10 -31 -27 -52 -38 -47 -24 -106 -77
-106 -95 0 -19 82 -90 103 -90 10 0 20 -6 23 -14 3 -8 16 -17 28 -20 13 -3 40
-21 62 -41 21 -19 46 -35 55 -35 10 0 24 -9 32 -20 7 -10 24 -24 38 -30 37
-16 67 -35 87 -53 10 -10 23 -17 29 -17 6 0 42 -24 79 -54 38 -29 79 -56 90
-60 12 -4 29 -15 39 -26 10 -11 27 -20 38 -20 11 0 34 -16 53 -35 18 -19 40
-35 48 -35 9 0 25 -9 36 -20 11 -11 30 -20 41 -20 12 0 38 -17 59 -37 44 -44
63 -57 106 -77 17 -8 35 -19 39 -26 4 -6 17 -16 28 -21 41 -18 68 -36 88 -58
11 -11 27 -21 36 -21 9 0 35 -16 59 -35 23 -19 48 -35 54 -35 7 0 25 -11 41
-24 15 -13 46 -32 68 -42 23 -11 43 -27 46 -36 9 -26 32 -22 60 10 22 25 24
35 25 133 0 91 3 110 20 132 17 22 20 40 20 139 0 92 3 118 18 138 13 19 19
55 24 155 4 72 14 236 23 365 13 180 20 239 32 252 11 13 16 47 20 135 3 84 8
122 18 133 11 12 15 44 15 121 1 73 6 116 17 144 12 28 17 72 17 150 l1 110
-36 3 c-24 2 -43 -4 -61 -17z m29 -103 c-3 -18 -9 -73 -13 -123 -3 -50 -12
-97 -19 -105 -9 -10 -15 -58 -17 -142 -4 -97 -9 -132 -20 -145 -12 -14 -17
-49 -20 -144 -3 -96 -8 -131 -21 -149 -13 -19 -17 -47 -17 -133 0 -78 -4 -116
-16 -138 -9 -19 -15 -56 -15 -97 0 -37 -2 -128 -5 -202 -4 -106 -9 -143 -24
-170 -15 -28 -19 -58 -19 -155 -1 -87 -5 -125 -16 -142 -8 -12 -15 -29 -15
-36 0 -8 -6 -19 -13 -25 -10 -9 -26 0 -66 38 -28 27 -65 52 -81 55 -17 4 -30
11 -30 16 0 6 -15 16 -33 24 -19 8 -48 28 -66 44 -18 17 -37 31 -42 31 -4 0
-34 17 -66 38 -86 56 -96 62 -115 68 -10 4 -20 14 -23 23 -2 9 -27 27 -54 40
-28 13 -58 32 -67 42 -9 11 -27 19 -40 19 -13 0 -28 9 -34 20 -6 11 -17 20
-25 20 -7 0 -15 4 -17 9 -4 13 -137 101 -152 101 -6 0 -32 18 -56 40 -24 22
-54 40 -67 40 -12 0 -27 9 -32 19 -6 10 -23 24 -38 30 -47 20 -83 42 -83 51 0
4 -21 18 -46 30 -25 13 -57 33 -71 46 -14 13 -34 24 -43 24 -10 0 -25 11 -34
25 -9 13 -16 26 -16 29 0 2 12 9 27 15 50 21 87 43 130 77 23 19 51 34 62 34
12 0 26 9 33 20 7 11 17 20 23 20 6 0 37 18 70 40 33 22 64 40 68 40 5 0 28
15 51 34 23 19 53 40 66 46 14 6 34 16 45 23 63 39 104 67 110 77 3 5 17 10
30 10 14 0 29 9 35 20 6 11 15 20 20 20 6 0 33 16 61 35 27 20 60 40 72 46 36
16 66 35 87 54 22 20 49 36 96 58 17 8 35 20 38 26 4 6 16 11 26 11 10 0 23 7
28 16 9 16 34 33 90 59 17 8 32 19 32 23 0 4 27 22 60 40 33 19 60 38 60 43 0
5 10 9 23 9 14 0 39 16 62 40 21 22 46 40 55 40 10 0 25 9 35 20 10 11 27 20
38 20 16 0 18 -5 14 -32z"/>
<path d="M1890 4695 c0 -8 5 -15 10 -15 6 0 10 7 10 15 0 8 -4 15 -10 15 -5 0
-10 -7 -10 -15z"/>
<path d="M1040 4146 c0 -9 7 -16 16 -16 9 0 14 5 12 12 -6 18 -28 21 -28 4z"/>
<path d="M860 3950 c0 -6 7 -10 15 -10 8 0 15 2 15 4 0 2 -7 6 -15 10 -8 3
-15 1 -15 -4z"/>
<path d="M1635 3540 c4 -6 11 -8 16 -5 14 9 11 15 -7 15 -8 0 -12 -5 -9 -10z"/>
<path d="M682 5091 c2 -7 7 -12 11 -12 12 1 9 15 -3 20 -7 2 -11 -2 -8 -8z"/>
<path d="M757 5093 c-3 -5 -2 -15 2 -22 7 -10 10 -10 16 -1 4 6 3 16 -3 22 -5
5 -12 6 -15 1z"/>
<path d="M1787 5083 c-14 -13 -6 -23 19 -23 22 0 25 2 14 15 -14 16 -23 19
-33 8z"/>
<path d="M640 4940 c0 -6 -11 -15 -25 -20 -25 -10 -30 -25 -19 -54 5 -13 14
-15 40 -10 29 5 34 3 34 -13 0 -11 -9 -28 -20 -38 -25 -23 -26 -42 -1 -50 23
-7 34 -34 25 -58 -4 -11 -21 -17 -57 -19 -38 -2 -53 -7 -55 -19 -4 -24 41 -39
97 -32 36 4 52 11 56 23 3 10 12 21 20 24 20 7 20 89 1 105 -10 8 -14 30 -13
67 1 50 -2 57 -28 79 -32 26 -55 32 -55 15z"/>
<path d="M850 4812 c-14 -15 -31 -39 -39 -54 -11 -22 -12 -33 -3 -50 6 -13 16
-36 22 -51 9 -26 13 -28 62 -25 42 2 53 7 53 20 0 9 -16 27 -35 40 -29 20 -35
30 -35 58 0 37 -1 37 67 23 15 -3 33 -12 39 -20 10 -11 9 -20 -4 -42 -15 -26
-15 -29 6 -55 16 -20 30 -27 47 -24 24 3 25 7 25 65 0 36 5 67 12 74 23 23 37
-7 38 -73 l0 -62 73 -1 c79 -2 117 13 95 36 -8 8 -13 40 -13 79 0 38 -5 71
-12 78 -16 16 -50 15 -73 -2 -16 -12 -22 -12 -42 1 -32 21 -118 11 -148 -17
l-22 -20 -11 25 c-9 19 -19 25 -44 25 -23 -1 -41 -10 -58 -28z m366 -76 c7
-28 -12 -69 -29 -63 -7 2 -19 15 -27 29 -12 22 -12 29 -1 42 20 24 50 20 57
-8z"/>
<path d="M4927 4823 c-12 -11 -8 -23 8 -23 8 0 15 7 15 15 0 16 -12 20 -23 8z"/>
<path d="M4880 4510 c0 -5 7 -10 15 -10 8 0 15 5 15 10 0 6 -7 10 -15 10 -8 0
-15 -4 -15 -10z"/>
<path d="M8480 4385 c0 -8 5 -15 10 -15 6 0 10 7 10 15 0 8 -4 15 -10 15 -5 0
-10 -7 -10 -15z"/>
<path d="M2276 4320 c-14 -17 -26 -38 -26 -45 0 -7 -3 -15 -7 -17 -5 -1 -21
-22 -36 -45 -37 -53 -33 -77 13 -81 35 -4 53 -19 70 -60 15 -36 44 -25 48 18
2 19 10 39 18 43 18 10 18 34 -1 44 -10 6 -15 31 -17 88 -2 64 -6 80 -19 83
-9 2 -28 -11 -43 -28z m20 -96 c8 -29 -7 -49 -30 -41 -16 6 -22 48 -9 60 14
15 33 6 39 -19z"/>
<path d="M2438 4226 c-39 -49 -38 -103 1 -145 24 -26 37 -31 74 -31 25 0 49 5
52 10 3 6 3 19 0 31 -5 16 -14 19 -38 17 -32 -3 -32 -3 -35 50 -2 41 0 52 12
52 8 0 20 -9 26 -20 6 -12 16 -17 26 -13 10 4 14 16 12 42 -3 36 -3 36 -53 39
-47 2 -52 0 -77 -32z"/>
<path d="M2612 4248 c-15 -19 -14 -174 1 -187 7 -5 42 -9 77 -7 l65 2 5 59 c5
65 19 78 55 51 20 -15 20 -15 -2 -55 -13 -22 -23 -42 -23 -45 0 -3 13 -12 28
-20 19 -10 33 -11 45 -5 14 8 17 24 17 85 0 71 -2 77 -30 106 -31 30 -60 32
-60 3 0 -21 -27 -19 -57 5 -29 23 -104 27 -121 8z m105 -84 c3 -8 0 -27 -6
-40 -8 -18 -18 -24 -34 -22 -43 6 -30 78 15 78 10 0 21 -7 25 -16z"/>
<path d="M8636 4253 c-11 -12 -6 -33 8 -33 19 0 28 27 11 33 -7 3 -16 3 -19 0z"/>
<path d="M450 4235 c0 -8 5 -15 10 -15 6 0 10 7 10 15 0 8 -4 15 -10 15 -5 0
-10 -7 -10 -15z"/>
<path d="M9256 4242 c-2 -4 -1 -14 5 -22 7 -12 9 -10 9 8 0 23 -5 28 -14 14z"/>
<path d="M240 4150 c0 -5 9 -10 20 -10 11 0 20 5 20 10 0 6 -9 10 -20 10 -11
0 -20 -4 -20 -10z"/>
<path d="M8627 4126 c-3 -8 -22 -18 -41 -21 -21 -4 -38 -14 -41 -25 -3 -10
-12 -21 -20 -24 -8 -3 -15 -18 -15 -33 0 -16 -4 -43 -9 -60 -12 -41 3 -102 31
-125 22 -20 79 -24 107 -8 10 5 21 23 25 41 7 37 27 34 38 -6 4 -15 13 -32 20
-36 7 -5 29 -9 49 -9 26 0 42 7 61 28 20 20 28 42 32 87 4 33 3 80 -1 105 -8
41 -13 47 -55 69 l-46 23 -30 -22 c-19 -14 -34 -38 -42 -66 -7 -24 -18 -49
-26 -55 -7 -6 -25 -9 -41 -7 -22 2 -29 9 -31 29 -2 18 7 37 33 64 19 21 35 45
35 52 0 18 -26 17 -33 -1z m165 -83 c14 -12 18 -31 18 -79 0 -53 -3 -65 -21
-78 -39 -27 -49 -11 -49 78 0 46 3 86 7 89 11 11 25 8 45 -10z m-167 -133 c0
-28 -4 -36 -22 -38 -14 -2 -27 5 -39 22 -13 22 -14 29 -4 42 8 8 25 14 39 12
22 -3 26 -8 26 -38z"/>
<path d="M8950 4010 c-17 -17 -20 -33 -20 -99 0 -88 2 -91 71 -91 33 0 41 4
49 26 6 14 10 29 10 33 0 4 -18 13 -40 20 -21 6 -42 16 -46 22 -3 6 -3 22 1
36 5 20 10 24 28 18 12 -3 29 -7 37 -8 19 -3 26 43 8 54 -24 16 -77 10 -98
-11z"/>
<path d="M9123 4018 c-28 -14 -40 -58 -19 -70 21 -12 20 -57 0 -79 -22 -25
-11 -49 23 -49 45 0 55 11 42 48 -6 18 -8 48 -4 68 4 26 11 34 23 32 12 -2 18
-15 20 -45 2 -23 -1 -51 -7 -61 -19 -36 34 -56 80 -31 15 7 24 7 34 -1 8 -6
29 -10 47 -8 28 3 33 7 31 28 -4 55 -22 139 -33 160 -10 19 -17 21 -43 14 -31
-7 -127 -7 -157 1 -8 2 -25 -1 -37 -7z m195 -91 c6 -28 -7 -69 -20 -65 -15 5
-29 55 -21 74 7 20 37 13 41 -9z"/>
<path d="M4275 3930 c-4 -6 5 -10 20 -10 15 0 24 4 20 10 -3 6 -12 10 -20 10
-8 0 -17 -4 -20 -10z"/>
<path d="M260 3790 c0 -11 5 -20 10 -20 6 0 10 9 10 20 0 11 -4 20 -10 20 -5
0 -10 -9 -10 -20z"/>
<path d="M9410 3705 c0 -9 5 -15 11 -13 6 2 11 8 11 13 0 5 -5 11 -11 13 -6 2
-11 -4 -11 -13z"/>
<path d="M600 3575 c0 -12 7 -15 25 -13 14 2 26 8 26 13 0 6 -12 11 -26 13
-18 2 -25 -1 -25 -13z"/>
<path d="M2335 3510 c-3 -5 1 -10 10 -10 9 0 13 5 10 10 -3 6 -8 10 -10 10 -2
0 -7 -4 -10 -10z"/>
<path d="M822 3489 c-12 -5 -37 -22 -55 -39 l-32 -31 28 -23 c24 -19 28 -29
25 -62 -2 -32 -7 -40 -26 -42 -15 -2 -32 6 -47 22 -19 21 -29 24 -47 17 -13
-4 -23 -12 -22 -17 0 -5 7 -24 15 -41 13 -33 14 -33 85 -33 l72 0 23 38 c25
41 26 97 3 123 -18 20 -18 29 1 29 8 0 15 -7 15 -16 0 -11 8 -14 28 -12 22 2
28 9 30 34 2 17 -3 35 -10 41 -21 16 -61 22 -86 12z"/>
<path d="M530 3321 c0 -6 5 -13 10 -16 6 -3 10 1 10 9 0 9 -4 16 -10 16 -5 0
-10 -4 -10 -9z"/>
<path d="M933 3299 c-18 -16 -33 -40 -33 -52 0 -13 -7 -32 -15 -44 -10 -14
-12 -24 -5 -28 6 -4 17 -22 25 -41 12 -30 18 -34 37 -28 38 12 67 35 62 49 -3
7 -16 16 -30 19 -18 5 -24 13 -24 35 0 19 8 34 25 45 13 9 26 16 29 16 2 0 9
-14 15 -31 7 -21 16 -30 28 -27 13 2 19 14 21 40 2 29 -1 38 -17 43 -10 3 -22
12 -25 20 -9 26 -59 17 -93 -16z"/>
<path d="M3576 3281 c-4 -7 -5 -15 -2 -18 9 -9 19 4 14 18 -4 11 -6 11 -12 0z"/>
<path d="M1082 3190 c-18 -33 -39 -60 -47 -60 -11 0 -15 -12 -15 -40 0 -35 3
-40 23 -40 32 0 44 11 51 46 8 36 62 82 78 66 7 -7 4 -19 -11 -38 -11 -15 -21
-33 -21 -40 0 -7 -9 -18 -21 -24 -13 -7 -19 -19 -17 -33 2 -18 10 -22 38 -22
33 0 35 2 38 35 2 21 14 46 30 63 14 15 29 27 33 27 4 0 10 -11 13 -25 5 -20
-1 -35 -29 -70 -36 -43 -36 -44 -20 -74 8 -17 22 -31 31 -31 8 0 19 11 24 24
5 13 13 27 18 30 6 3 13 17 16 31 4 14 16 35 27 46 23 23 20 37 -14 79 -14 18
-32 29 -48 29 -14 1 -34 10 -44 21 -10 11 -26 20 -37 20 -10 0 -26 9 -35 20
-10 11 -20 20 -23 20 -3 0 -20 -27 -38 -60z"/>
<path d="M3460 3195 c0 -8 5 -15 10 -15 6 0 10 7 10 15 0 8 -4 15 -10 15 -5 0
-10 -7 -10 -15z"/>
<path d="M720 3110 c0 -5 7 -10 15 -10 8 0 15 5 15 10 0 6 -7 10 -15 10 -8 0
-15 -4 -15 -10z"/>
<path d="M3248 3003 c6 -2 18 -2 25 0 6 3 1 5 -13 5 -14 0 -19 -2 -12 -5z"/>
<path d="M3154 2965 c-4 -9 -3 -19 0 -23 9 -8 42 12 39 24 -4 16 -33 16 -39
-1z"/>
<path d="M3040 2935 c1 -26 2 -28 11 -12 8 14 8 22 0 30 -8 8 -11 3 -11 -18z"/>
<path d="M3205 2910 c-3 -5 1 -10 9 -10 8 0 18 5 21 10 3 6 -1 10 -9 10 -8 0
-18 -4 -21 -10z"/>
<path d="M1956 2853 c-12 -12 -5 -23 14 -23 11 0 20 4 20 9 0 11 -26 22 -34
14z"/>
<path d="M1115 2840 c3 -5 10 -10 16 -10 5 0 9 5 9 10 0 6 -7 10 -16 10 -8 0
-12 -4 -9 -10z"/>
<path d="M880 2800 c0 -5 7 -10 15 -10 8 0 15 5 15 10 0 6 -7 10 -15 10 -8 0
-15 -4 -15 -10z"/>
<path d="M1882 2763 c5 -25 28 -28 28 -4 0 12 -6 21 -16 21 -9 0 -14 -7 -12
-17z"/>
<path d="M935 2761 c-3 -5 -1 -12 5 -16 5 -3 10 1 10 9 0 18 -6 21 -15 7z"/>
<path d="M8782 2120 c0 -14 2 -19 5 -12 2 6 2 18 0 25 -3 6 -5 1 -5 -13z"/>
<path d="M3970 1910 c0 -5 5 -10 10 -10 6 0 10 5 10 10 0 6 -4 10 -10 10 -5 0
-10 -4 -10 -10z"/>
<path d="M8798 1718 c9 -9 15 -9 24 0 9 9 7 12 -12 12 -19 0 -21 -3 -12 -12z"/>
<path d="M4934 1689 c-3 -6 -1 -16 5 -22 8 -8 11 -5 11 11 0 24 -5 28 -16 11z"/>
<path d="M4850 1594 c0 -9 5 -14 12 -12 18 6 21 28 4 28 -9 0 -16 -7 -16 -16z"/>
<path d="M5688 1463 c-9 -10 -18 -36 -22 -58 -16 -102 -23 -133 -39 -155 -9
-14 -17 -29 -17 -36 0 -6 18 -17 39 -24 44 -14 101 -7 137 17 21 14 24 23 24
82 -1 64 -2 67 -35 91 -26 19 -35 32 -35 56 0 20 -6 34 -16 38 -21 8 -19 9
-36 -11z m78 -158 c9 -22 -23 -65 -47 -65 -30 0 -35 28 -9 56 27 27 48 31 56
9z"/>
<path d="M7395 730 c-3 -5 -13 -6 -22 -3 -11 4 -14 2 -11 -8 2 -8 14 -15 26
-17 17 -3 22 2 22 17 0 23 -5 27 -15 11z"/>
<path d="M7725 670 c-3 -5 3 -10 15 -10 12 0 18 5 15 10 -3 6 -10 10 -15 10
-5 0 -12 -4 -15 -10z"/>
<path d="M8320 375 c0 -8 5 -15 10 -15 6 0 10 7 10 15 0 8 -4 15 -10 15 -5 0
-10 -7 -10 -15z"/>
</g>
</svg>
