<?xml version="1.0" standalone="no"?>
<!DOCTYPE svg PUBLIC "-//W3C//DTD SVG 20010904//EN"
 "http://www.w3.org/TR/2001/REC-SVG-20010904/DTD/svg10.dtd">
<svg version="1.0" xmlns="http://www.w3.org/2000/svg"
 width="421.000000pt" height="298.000000pt" viewBox="0 0 421.000000 298.000000"
 preserveAspectRatio="xMidYMid meet">
<g transform="translate(0.000000,298.000000) scale(0.100000,-0.100000)"
fill="#ffffff" stroke="none">
<path d="M110 2730 c0 -5 5 -10 10 -10 14 0 12 -64 -2 -78 -9 -9 -7 -12 10
-12 19 0 21 4 16 30 -4 18 -2 30 4 30 6 0 19 -13 29 -30 23 -40 33 -38 33 9 0
22 3 46 6 55 4 11 1 16 -10 16 -14 0 -16 -7 -11 -37 l6 -38 -31 38 c-30 35
-60 49 -60 27z"/>
<path d="M400 2686 c0 -41 4 -56 14 -56 9 0 12 8 9 24 -3 13 0 27 6 30 7 5 11
-4 11 -23 0 -21 5 -31 15 -31 10 0 14 9 13 28 -2 35 -15 52 -34 45 -11 -4 -15
0 -12 12 2 10 -3 20 -9 22 -10 3 -13 -11 -13 -51z"/>
<path d="M338 2713 c-22 -4 -27 -10 -30 -44 -3 -31 0 -39 13 -39 11 0 14 7 11
29 -3 19 1 30 12 34 13 5 16 -1 16 -28 0 -22 5 -35 13 -35 8 0 11 14 9 45 -2
25 -7 44 -11 44 -3 -1 -18 -4 -33 -6z"/>
<path d="M242 2698 c-32 -32 2 -87 40 -67 31 17 17 79 -17 79 -6 0 -16 -5 -23
-12z m33 -31 c0 -26 -20 -25 -23 2 -3 16 1 22 10 19 7 -3 13 -12 13 -21z"/>
<path d="M275 2558 c-10 -33 -15 -88 -8 -88 7 0 7 -347 0 -430 -1 -15 4 -26
14 -28 17 -3 1483 -1469 1557 -1557 17 -20 36 -15 41 11 2 10 17 35 35 55 17
20 39 47 49 60 10 13 48 63 85 110 37 47 78 101 92 119 25 33 102 131 141 181
l21 26 57 -31 c49 -26 66 -30 142 -30 50 -1 92 4 100 10 8 6 25 15 39 19 43
13 129 94 157 149 21 40 27 70 31 137 4 77 2 91 -23 145 -28 63 -79 122 -134
156 -35 22 -139 51 -153 42 -4 -3 -8 47 -8 111 0 75 4 114 10 110 7 -4 7 3 0
20 -6 15 -10 37 -10 51 0 37 -17 28 -25 -13 -4 -21 -12 -44 -18 -52 -10 -12
-9 -14 6 -8 16 6 17 -10 17 -258 0 -237 -5 -297 -24 -267 -3 5 -27 15 -53 22
-27 7 -52 17 -58 21 -5 4 -39 15 -75 24 -36 9 -69 20 -75 24 -5 5 -64 25 -130
45 -66 21 -129 42 -140 46 -11 5 -96 34 -190 65 -93 31 -179 60 -190 65 -11 5
-47 17 -80 28 -33 10 -143 47 -245 81 -102 35 -189 64 -195 65 -5 2 -17 6 -25
9 -8 4 -58 20 -110 37 -52 17 -108 37 -125 44 -16 8 -53 19 -81 26 l-52 11 10
42 c44 189 -100 405 -291 438 -58 11 -61 13 -61 39 0 16 5 32 10 35 7 4 7 12
0 25 -5 10 -10 30 -10 44 0 27 -18 36 -25 14z m100 -183 c21 -3 53 -14 69 -22
45 -23 122 -100 153 -152 24 -41 28 -58 31 -153 4 -90 2 -108 -10 -108 -17 0
-73 17 -103 31 -11 5 -42 16 -70 24 -58 16 -115 37 -132 48 -10 6 -13 54 -13
183 0 163 1 174 18 166 9 -5 35 -13 57 -17z m25 -386 c18 -11 114 -44 185 -64
28 -8 59 -19 70 -24 11 -5 157 -55 325 -111 168 -55 314 -105 325 -110 11 -5
38 -14 60 -20 22 -6 49 -15 60 -20 11 -5 47 -17 80 -26 33 -9 65 -20 70 -23 6
-4 30 -13 55 -20 25 -6 54 -16 65 -21 11 -5 157 -55 325 -110 168 -56 312
-104 320 -107 8 -4 17 -7 20 -8 3 -1 12 -4 20 -8 8 -3 34 -11 58 -17 23 -6 42
-15 42 -20 0 -5 -12 -22 -26 -37 -35 -39 -43 -49 -100 -123 -27 -36 -76 -99
-109 -141 -33 -41 -125 -160 -205 -263 -80 -104 -153 -198 -162 -210 -17 -20
-17 -18 -18 66 0 74 2 86 15 82 8 -4 15 -1 15 5 0 6 -4 11 -10 11 -5 0 -13 18
-16 40 -4 22 -11 37 -16 34 -5 -3 -7 -11 -5 -18 3 -7 -1 -23 -9 -37 -16 -29
-17 -40 -3 -37 6 2 11 -27 13 -79 1 -46 2 -83 1 -83 -1 0 -343 342 -761 760
-586 587 -752 759 -729 754 16 -4 36 -11 45 -15z m2189 -405 c92 -32 149 -81
193 -164 31 -60 33 -203 3 -265 -26 -54 -99 -125 -160 -154 -74 -37 -180 -35
-257 4 l-56 28 64 81 c36 45 73 92 84 104 11 13 20 28 20 33 0 5 6 9 14 9 22
0 41 29 28 42 -8 8 -12 60 -12 155 0 161 -3 156 79 127z"/>
<path d="M336 2128 c1 -31 7 -53 13 -53 6 0 11 3 11 8 0 4 0 27 0 52 0 30 -4
45 -13 45 -9 0 -12 -16 -11 -52z"/>
<path d="M397 2174 c-13 -14 -7 -22 13 -17 13 4 20 0 20 -9 0 -9 -9 -27 -20
-41 -11 -14 -20 -28 -20 -31 0 -10 58 -7 65 4 4 6 -5 10 -19 10 l-26 0 21 21
c25 25 22 63 -6 67 -12 2 -24 0 -28 -4z"/>
<path d="M470 2150 c-16 -40 2 -83 34 -78 18 3 21 10 21 53 0 43 -3 50 -21 53
-16 2 -25 -5 -34 -28z m45 -25 c0 -16 -5 -30 -11 -32 -13 -4 -25 33 -17 53 9
24 28 10 28 -21z"/>
<path d="M540 2161 c0 -23 28 -35 46 -20 19 15 6 39 -22 39 -17 0 -24 -6 -24
-19z"/>
<path d="M2586 1353 c-15 -16 -4 -51 19 -61 26 -12 34 -32 13 -32 -6 0 -20 7
-30 17 -17 15 -18 15 -18 -4 0 -14 8 -22 24 -25 53 -10 78 39 31 60 -26 12
-34 32 -12 32 7 0 19 -6 26 -12 10 -11 12 -9 9 7 -3 19 -48 32 -62 18z"/>
<path d="M2470 1186 c0 -9 6 -13 14 -10 20 8 30 -14 15 -32 -6 -8 -9 -18 -5
-22 11 -11 37 30 34 53 -4 25 -58 35 -58 11z"/>
<path d="M2546 1186 c3 -8 12 -12 20 -9 17 6 18 -8 2 -42 -10 -22 -18 -26 -47
-25 -52 3 -61 1 -61 -10 0 -12 138 -12 145 1 4 5 -4 9 -16 9 -21 0 -21 1 -5
19 26 29 17 65 -16 69 -21 3 -27 0 -22 -12z"/>
<path d="M2627 1193 c-9 -8 -9 -66 -1 -87 14 -36 64 -10 64 32 0 47 -38 80
-63 55z m39 -59 c-4 -13 -11 -24 -16 -24 -11 0 -14 63 -3 74 12 11 25 -24 19
-50z"/>
<path d="M2702 1178 c2 -15 10 -23 23 -23 30 0 27 39 -3 43 -20 3 -23 0 -20
-20z"/>
<path d="M3067 2373 c-4 -3 1 -12 10 -18 15 -11 15 -18 6 -49 -10 -32 -9 -36
6 -36 14 0 17 7 14 33 l-4 32 29 -32 c16 -18 31 -33 35 -33 3 0 3 16 0 35 -3
20 -1 41 6 49 8 10 9 16 1 21 -18 11 -27 -3 -22 -37 l4 -33 -28 37 c-28 36
-44 45 -57 31z"/>
<path d="M3206 2368 c-11 -6 -16 -22 -16 -49 0 -32 4 -41 22 -48 52 -19 90 26
65 77 -13 28 -42 36 -71 20z m53 -30 c17 -46 -27 -80 -49 -38 -8 14 -8 26 0
40 14 27 39 25 49 -2z"/>
<path d="M3290 2368 c0 -4 9 -8 20 -8 16 0 20 -7 20 -33 0 -18 -5 -38 -12 -45
-9 -9 -7 -12 13 -12 23 0 24 3 21 46 -3 37 -1 45 11 42 9 -2 15 1 14 7 -2 12
-87 15 -87 3z"/>
<path d="M3415 2372 c-12 -12 -3 -20 16 -15 21 6 22 3 17 -40 -5 -40 -3 -47
12 -47 15 0 17 7 12 45 -4 40 -3 45 16 45 17 0 21 -7 24 -41 2 -32 8 -44 24
-50 32 -11 68 11 72 45 6 47 -26 68 -83 56 -5 -1 -12 -1 -15 0 -13 5 -90 6
-95 2z m173 -40 c4 -26 -13 -52 -34 -52 -16 0 -27 34 -19 61 9 28 49 22 53 -9z"/>
<path d="M3657 2362 c-9 -12 -5 -20 22 -42 22 -19 29 -30 21 -35 -6 -4 -17 -2
-23 4 -15 15 -27 14 -27 -3 0 -18 38 -28 62 -15 25 14 23 36 -7 55 -29 19 -33
37 -7 32 11 -2 21 2 23 7 6 16 -50 13 -64 -3z"/>
<path d="M3755 2361 c-23 -27 -19 -68 10 -87 13 -9 30 -12 37 -8 7 4 25 7 40
6 18 -2 27 2 26 10 -2 7 7 14 20 16 15 2 22 -2 22 -12 0 -9 7 -16 15 -16 16 0
11 21 -12 55 -7 11 -13 28 -13 39 0 28 -21 6 -36 -37 -7 -20 -18 -33 -30 -33
-10 -1 -26 -5 -35 -8 -23 -10 -43 19 -35 49 5 18 13 25 31 25 14 0 25 -4 25
-10 0 -5 5 -10 11 -10 6 0 9 8 7 17 -4 24 -62 26 -83 4z m145 -41 c0 -5 -7
-10 -15 -10 -8 0 -15 5 -15 10 0 6 7 10 15 10 8 0 15 -4 15 -10z"/>
<path d="M3959 2378 c0 -2 -1 -26 -2 -55 l-2 -52 88 0 c71 0 87 3 87 15 0 11
-4 12 -19 4 -29 -15 -41 -12 -41 10 0 17 4 19 26 14 20 -5 25 -3 22 7 -3 8
-15 13 -26 11 -15 -2 -22 2 -22 13 0 12 7 15 25 13 13 -2 24 2 25 7 0 6 -17
10 -37 10 l-37 0 2 -50 c2 -28 -1 -45 -5 -38 -6 8 -14 9 -23 3 -30 -19 -40
-11 -40 30 0 25 5 40 13 40 8 0 7 4 -3 10 -14 9 -29 13 -31 8z"/>
<path d="M2618 2094 c-3 -2 -3 -25 0 -49 3 -30 1 -45 -7 -45 -11 0 -15 19 -11
54 1 14 -3 17 -15 12 -9 -3 -27 -6 -40 -6 -20 0 -22 -5 -21 -40 0 -27 5 -40
14 -40 10 0 12 7 8 24 -4 15 0 28 9 36 16 13 17 11 19 -30 1 -21 6 -25 31 -25
24 1 30 5 30 23 0 12 5 22 10 21 6 0 9 -11 8 -25 -1 -15 4 -24 13 -24 9 0 14
10 14 28 0 32 -16 53 -35 45 -9 -3 -12 2 -8 15 5 19 -9 37 -19 26z"/>
<path d="M106 2038 c1 -42 5 -54 19 -57 14 -2 17 2 12 18 -8 31 11 36 25 7 6
-14 19 -26 30 -26 24 0 23 11 -3 33 -20 18 -20 19 -3 32 27 19 2 45 -45 45
l-36 0 1 -52z m59 21 c0 -7 -8 -15 -17 -17 -12 -2 -15 2 -11 18 6 23 28 22 28
-1z"/>
<path d="M2337 2079 c6 -6 7 -26 3 -50 -6 -31 -4 -42 7 -46 21 -8 24 0 14 35
-12 40 -1 41 27 2 13 -16 27 -30 31 -30 5 0 11 23 13 50 2 42 0 50 -14 50 -15
0 -16 -4 -7 -26 15 -40 1 -43 -29 -6 -15 18 -34 32 -41 32 -11 0 -12 -3 -4
-11z"/>
<path d="M2450 2045 c-7 -8 -10 -25 -6 -40 11 -44 66 -26 66 21 0 33 -38 45
-60 19z m40 -26 c0 -10 -7 -19 -15 -19 -15 0 -21 31 -9 43 11 10 24 -3 24 -24z"/>
<path d="M1290 1847 c0 -10 7 -13 20 -10 22 6 28 -12 8 -20 -10 -4 -10 -7 0
-18 18 -19 15 -29 -8 -29 -11 0 -20 -4 -20 -9 0 -16 14 -19 38 -10 19 7 22 14
19 56 -3 44 -5 48 -30 51 -19 2 -27 -1 -27 -11z"/>
<path d="M1380 1851 c0 -5 -3 -16 -6 -24 -3 -9 3 -16 15 -20 27 -7 28 -37 1
-37 -11 0 -20 -4 -20 -10 0 -19 50 -11 51 8 2 31 -3 46 -19 59 -16 11 -16 12
0 13 28 0 31 20 4 20 -14 0 -26 -4 -26 -9z"/>
<path d="M1446 1844 c-9 -22 -7 -67 3 -82 26 -42 75 25 53 73 -13 28 -47 34
-56 9z m38 -20 c8 -20 -2 -54 -15 -54 -5 0 -9 16 -9 35 0 37 13 47 24 19z"/>
<path d="M1550 1805 c0 -52 11 -71 24 -42 5 10 7 10 12 0 3 -7 19 -13 35 -13
27 0 28 2 22 31 -5 25 -3 31 8 27 8 -3 13 -17 12 -32 -1 -17 3 -26 12 -26 11
0 13 8 8 31 -5 25 -3 31 8 27 8 -3 13 -17 12 -32 -1 -17 3 -26 13 -26 15 0 20
46 6 65 -11 17 -132 15 -132 -1 0 -8 -5 -14 -11 -14 -7 0 -9 11 -5 30 4 22 2
30 -9 30 -11 0 -15 -13 -15 -55z m75 -6 c9 -27 -8 -45 -24 -26 -12 15 -5 47 9
47 5 0 12 -9 15 -21z"/>
<path d="M2960 1626 c0 -8 4 -17 9 -20 11 -7 61 -102 61 -117 0 -7 -17 -10
-47 -7 -46 3 -48 2 -51 -24 -3 -25 -7 -27 -55 -30 -30 -2 -50 -7 -47 -13 3 -5
10 -8 15 -5 6 2 27 3 48 2 20 -1 60 -1 87 -1 28 0 71 0 98 0 88 0 147 0 167 0
11 1 39 -2 62 -6 27 -5 60 -3 88 5 38 11 50 10 85 -4 49 -20 60 -20 60 -2 0
14 -48 26 -104 26 l-30 0 27 28 c15 15 27 33 27 40 0 7 7 12 15 12 9 0 15 9
15 21 0 19 -4 21 -37 15 -21 -3 -67 -7 -103 -9 -36 -3 -75 -8 -87 -12 -16 -5
-23 -3 -23 6 0 8 -12 26 -25 41 l-24 28 -60 -14 c-72 -17 -81 -22 -81 -46 0
-27 18 -35 39 -16 12 11 20 13 28 5 8 -8 13 -7 18 1 5 8 10 8 20 0 9 -7 16 -6
25 5 10 13 9 15 -10 15 -25 0 -22 23 4 28 11 2 19 -4 23 -17 3 -12 10 -21 15
-21 5 0 8 -6 6 -12 -5 -14 -78 -30 -78 -18 0 4 -12 5 -26 2 -18 -3 -22 -7 -13
-13 17 -10 12 -14 -26 -23 -18 -4 -25 -3 -17 2 10 7 8 13 -7 26 -11 10 -26 35
-32 55 -21 63 -59 106 -59 67z m418 -113 c-16 -2 -40 -2 -55 0 -16 2 -3 4 27
4 30 0 43 -2 28 -4z m-113 -29 c17 1 36 5 43 9 6 5 12 4 12 -1 0 -5 14 -9 30
-9 17 0 30 4 30 9 0 4 14 8 30 8 48 0 30 -39 -20 -41 -16 -1 -19 -3 -7 -6 24
-6 21 -20 -5 -25 -13 -2 -116 -2 -230 0 -162 3 -208 7 -208 17 0 12 54 18 237
27 23 1 41 5 41 8 -1 17 3 24 10 14 4 -7 21 -11 37 -10z"/>
<path d="M2255 785 c0 -46 3 -55 18 -55 14 0 17 9 17 55 0 46 -3 55 -17 55
-15 0 -18 -9 -18 -55z"/>
<path d="M2310 826 c0 -9 8 -12 25 -9 23 5 24 3 16 -23 -5 -16 -12 -37 -16
-46 -4 -10 -3 -18 2 -18 8 0 43 84 43 103 0 4 -16 7 -35 7 -23 0 -35 -5 -35
-14z"/>
<path d="M2396 824 c-16 -41 -3 -94 23 -94 26 0 41 21 41 55 0 17 -5 36 -12
43 -17 17 -45 15 -52 -4z m44 -39 c0 -24 -5 -35 -15 -35 -10 0 -15 11 -15 35
0 24 5 35 15 35 10 0 15 -11 15 -35z"/>
<path d="M2494 785 c1 -35 5 -55 13 -55 6 0 14 8 16 18 4 16 5 16 6 0 0 -10 8
-18 16 -18 21 0 19 13 -5 35 -11 10 -20 31 -20 47 0 16 -5 28 -13 28 -9 0 -13
-16 -13 -55z"/>
<path d="M2579 805 c-1 0 -2 -17 -3 -37 -2 -26 1 -38 11 -38 8 0 13 12 13 30
0 17 5 30 11 30 7 0 9 -11 6 -30 -5 -22 -3 -30 8 -30 10 0 15 10 15 30 0 17 5
30 11 30 6 0 9 -12 7 -27 -2 -15 2 -28 10 -31 10 -3 13 6 10 34 l-3 39 -48 0
c-26 0 -47 0 -48 0z"/>
<path d="M2116 589 c-19 -42 -56 -239 -56 -294 0 -40 10 -52 45 -58 23 -3 19
-4 -15 -6 -92 -3 -150 -14 -150 -27 0 -10 17 -13 68 -12 37 1 74 5 82 8 8 4
61 10 116 14 80 5 103 3 107 -7 4 -11 -15 -14 -91 -16 -73 -1 -99 -5 -105 -16
-4 -8 -13 -15 -20 -15 -7 0 -6 4 3 10 11 7 3 9 -26 7 -28 -1 -40 -6 -37 -14 7
-18 38 -25 85 -19 61 8 168 18 203 20 19 1 29 6 27 14 -2 9 6 12 24 10 17 -2
29 2 32 11 4 11 -4 13 -37 8 -38 -5 -41 -3 -36 14 5 15 1 19 -18 19 -25 0 -52
22 -40 33 3 4 1 7 -5 7 -7 0 -12 7 -12 15 0 8 -11 39 -25 70 -14 30 -37 81
-51 112 -14 31 -28 78 -31 105 -3 26 -9 48 -12 48 -4 0 -15 -18 -25 -41z m24
-100 c0 -31 -3 -96 -6 -146 -7 -88 -7 -90 -31 -85 -24 5 -24 6 -18 81 4 42 10
90 15 106 5 17 12 52 16 79 9 63 24 41 24 -35z m105 -201 c22 -39 19 -48 -20
-48 -19 0 -35 4 -35 9 0 10 -17 142 -25 201 -4 23 6 6 29 -50 20 -47 42 -97
51 -112z m-75 6 c0 -27 -4 -43 -10 -39 -17 11 -11 85 7 85 2 0 3 -21 3 -46z"/>
<path d="M1807 374 c-4 -4 3 -20 14 -36 12 -16 19 -38 16 -48 -4 -16 0 -20 18
-20 18 0 21 4 17 25 -2 14 -8 28 -13 31 -5 3 -9 13 -9 24 0 10 -7 21 -16 24
-19 7 -19 7 -27 0z"/>
<path d="M1878 355 c-6 -30 -4 -31 21 -6 17 17 17 20 4 25 -21 8 -20 9 -25
-19z"/>
<path d="M1968 173 c-10 -2 -18 -9 -18 -14 0 -15 63 -6 68 9 4 12 -16 14 -50
5z"/>
</g>
</svg>
