<?xml version="1.0" standalone="no"?>
<!DOCTYPE svg PUBLIC "-//W3C//DTD SVG 20010904//EN"
 "http://www.w3.org/TR/2001/REC-SVG-20010904/DTD/svg10.dtd">
<svg version="1.0" xmlns="http://www.w3.org/2000/svg"
 width="421.000000pt" height="298.000000pt" viewBox="0 0 421.000000 298.000000"
 preserveAspectRatio="xMidYMid meet">
<g transform="translate(0.000000,298.000000) scale(0.100000,-0.100000)"
fill="#ffffff" stroke="none">
<path d="M115 2760 c-3 -5 -2 -10 3 -10 5 0 7 -20 5 -45 -4 -37 -2 -45 12 -45
13 0 15 6 10 30 -4 17 -3 30 2 30 5 0 17 -13 26 -30 10 -16 22 -30 27 -30 7 0
20 100 14 109 -2 2 -11 0 -21 -4 -12 -5 -14 -9 -5 -12 6 -3 12 -17 12 -31 l-1
-27 -32 38 c-34 39 -42 43 -52 27z"/>
<path d="M394 2728 c0 -24 -3 -43 -9 -43 -5 0 -9 14 -8 32 2 31 1 32 -30 26
-41 -8 -41 -8 -43 -49 0 -22 4 -34 13 -34 8 0 13 12 13 30 0 17 5 30 10 30 6
0 10 -13 10 -30 0 -28 3 -30 35 -30 32 0 35 2 35 31 0 19 4 28 11 23 6 -3 8
-17 5 -30 -5 -19 -2 -24 12 -24 16 0 18 5 13 38 -5 27 -12 37 -24 36 -10 -1
-17 5 -17 17 0 11 -6 19 -14 19 -10 0 -13 -12 -12 -42z"/>
<path d="M230 2721 c-14 -26 -13 -37 5 -54 25 -25 55 -10 55 28 0 45 -40 62
-60 26z m40 -27 c0 -27 -15 -32 -24 -9 -7 19 3 47 15 39 5 -3 9 -16 9 -30z"/>
<path d="M264 2555 c-6 -25 -7 -45 -2 -45 13 0 10 -414 -4 -428 -13 -13 5 -42
26 -42 10 0 1522 -1517 1551 -1556 12 -18 45 -9 45 12 0 8 41 67 92 132 51 64
114 146 141 182 27 36 57 68 68 72 10 4 19 15 19 23 0 13 29 57 97 144 1 2 11
-3 22 -13 36 -32 131 -59 196 -53 240 18 383 269 278 484 -45 91 -126 151
-236 177 l-48 11 -2 107 c-1 58 2 104 7 101 7 -5 2 34 -10 80 -8 25 -24 21
-24 -7 0 -14 -4 -36 -10 -50 -6 -17 -6 -26 0 -26 6 0 10 -98 10 -260 0 -143
-1 -260 -3 -260 -1 0 -36 11 -77 26 -41 14 -95 31 -120 39 -25 8 -256 86 -515
173 -259 87 -616 208 -795 268 l-325 109 0 110 c0 101 -2 114 -29 165 -56 109
-153 184 -260 202 l-66 11 0 33 c0 23 5 34 14 34 13 0 13 4 0 28 -7 15 -14 35
-14 45 0 33 -16 17 -26 -28z m128 -155 c82 -25 165 -97 204 -177 24 -49 28
-69 29 -149 0 -51 -3 -95 -7 -99 -7 -7 -53 5 -118 30 -19 7 -68 23 -108 36
-41 12 -80 28 -88 36 -11 11 -14 50 -14 179 0 189 -7 178 102 144z m43 -396
c55 -19 127 -44 160 -54 33 -11 213 -71 400 -135 187 -64 363 -123 390 -131
28 -8 59 -19 70 -24 11 -5 72 -25 135 -46 63 -20 129 -42 145 -49 17 -7 46
-16 65 -20 19 -4 41 -11 50 -16 8 -5 69 -26 135 -48 66 -21 131 -44 145 -49
14 -6 70 -24 125 -42 55 -17 109 -35 120 -40 11 -5 37 -14 58 -20 20 -6 37
-16 37 -21 0 -5 -37 -56 -83 -113 -45 -57 -109 -138 -141 -181 -33 -42 -68
-81 -78 -86 -10 -5 -18 -16 -18 -24 0 -8 -7 -23 -15 -32 -20 -25 -140 -179
-200 -258 -27 -36 -51 -70 -53 -75 -2 -6 -8 -10 -13 -10 -11 0 -12 147 -1 154
10 6 -9 96 -20 96 -5 0 -8 -12 -8 -26 0 -14 -5 -35 -11 -46 -8 -15 -8 -22 0
-28 8 -4 11 -34 9 -84 l-3 -78 -755 761 c-415 419 -753 761 -750 761 3 0 50
-16 105 -36z m2166 -395 c106 -41 176 -122 199 -230 12 -54 11 -71 -4 -131
-25 -105 -78 -171 -173 -214 -75 -34 -180 -34 -257 2 l-56 26 17 23 c10 13 49
64 88 114 38 50 75 91 81 91 15 0 28 35 19 50 -4 6 -7 74 -8 150 -2 161 -4
158 94 119z"/>
<path d="M333 2159 c3 -68 22 -69 24 -1 1 38 -2 52 -13 52 -10 0 -13 -13 -11
-51z"/>
<path d="M387 2203 c-13 -13 -7 -21 12 -16 30 8 33 -13 6 -45 -13 -16 -22 -32
-18 -36 10 -10 51 -7 58 4 3 6 -3 10 -14 10 -21 0 -21 0 -2 31 11 18 17 38 14
45 -5 14 -44 19 -56 7z"/>
<path d="M465 2176 c-8 -40 9 -79 32 -74 25 5 36 32 29 71 -6 31 -11 37 -31
37 -19 0 -25 -7 -30 -34z m45 -16 c0 -29 -4 -40 -15 -40 -10 0 -15 10 -15 33
0 19 3 37 7 40 15 16 23 5 23 -33z"/>
<path d="M540 2198 c0 -7 4 -19 9 -27 12 -19 43 -6 39 16 -4 21 -48 31 -48 11z"/>
<path d="M2583 1383 c-22 -8 -14 -42 12 -59 28 -18 33 -34 10 -34 -8 0 -15 5
-15 10 0 6 -4 10 -10 10 -19 0 -10 -28 11 -33 56 -15 73 27 27 66 l-33 29 28
-6 c20 -5 27 -3 27 9 0 15 -31 19 -57 8z"/>
<path d="M2467 1223 c-13 -13 -7 -21 13 -16 13 4 20 0 20 -9 0 -9 -9 -27 -20
-41 -11 -14 -20 -27 -20 -30 0 -3 32 -5 70 -5 39 0 70 4 70 9 0 5 -9 9 -20 9
-20 0 -20 0 1 21 27 27 22 64 -10 64 -13 0 -26 -5 -28 -12 -3 -7 3 -9 16 -6
25 7 28 -13 5 -45 -10 -15 -25 -22 -46 -22 -29 0 -30 1 -15 18 10 10 17 31 17
45 0 22 -5 27 -23 27 -13 0 -27 -3 -30 -7z"/>
<path d="M2622 1218 c-17 -17 -15 -73 4 -89 33 -27 64 21 50 77 -7 26 -34 32
-54 12z m38 -44 c0 -37 -15 -46 -25 -14 -8 25 3 62 16 55 5 -4 9 -22 9 -41z"/>
<path d="M2692 1208 c2 -15 10 -23 23 -23 13 0 21 8 23 23 3 18 -1 22 -23 22
-22 0 -26 -4 -23 -22z"/>
<path d="M3065 2400 c-3 -5 -1 -10 6 -10 8 0 10 -14 7 -45 -5 -39 -3 -45 13
-45 15 0 16 5 9 30 -5 17 -5 30 0 30 5 0 18 -13 30 -30 25 -35 40 -39 40 -10
0 11 -6 20 -14 20 -7 0 -24 16 -37 35 -24 35 -43 44 -54 25z"/>
<path d="M3140 2403 c1 -5 7 -19 15 -33 l14 -25 1 33 c0 22 -5 32 -15 32 -8 0
-15 -3 -15 -7z"/>
<path d="M3193 2392 c-22 -23 -16 -70 12 -88 23 -15 27 -15 50 0 44 29 25 107
-25 103 -13 -1 -29 -8 -37 -15z m65 -30 c4 -25 -13 -52 -33 -52 -15 0 -25 33
-18 61 8 28 47 22 51 -9z"/>
<path d="M3284 2399 c-3 -5 5 -9 16 -9 20 0 22 -4 18 -45 -2 -36 0 -45 13 -45
14 0 16 8 11 46 -5 44 -4 46 18 39 16 -5 21 -4 18 6 -5 16 -85 22 -94 8z"/>
<path d="M3410 2392 c0 -7 5 -10 10 -7 20 12 27 -5 20 -45 -7 -36 -5 -40 14
-40 19 0 21 5 17 47 -3 39 -1 45 13 40 10 -4 16 -1 16 7 0 10 -13 13 -45 12
-30 0 -45 -5 -45 -14z"/>
<path d="M3517 2392 c-42 -46 0 -114 56 -93 34 13 45 53 23 86 -20 30 -56 33
-79 7z m58 -42 c0 -28 -4 -35 -20 -35 -16 0 -21 8 -23 38 -3 35 -1 38 20 35
19 -2 23 -9 23 -38z"/>
<path d="M3673 2400 c-30 -12 -29 -38 2 -52 27 -12 34 -38 10 -38 -8 0 -15 5
-15 10 0 6 -4 10 -10 10 -17 0 -11 -27 8 -32 55 -13 70 27 25 67 -20 17 -23
24 -12 25 8 0 21 -6 28 -12 10 -11 12 -9 9 6 -4 23 -16 28 -45 16z"/>
<path d="M3750 2394 c-16 -19 -17 -71 -2 -86 16 -16 105 -11 115 7 10 19 37
19 37 0 0 -8 9 -15 19 -15 18 0 17 3 -7 53 -14 28 -26 54 -28 55 -1 2 -12 -18
-23 -45 -22 -49 -27 -52 -92 -44 -5 0 -9 16 -7 33 3 35 33 51 49 27 10 -17 23
-4 16 16 -8 20 -61 20 -77 -1z"/>
<path d="M3950 2406 c-3 -2 -3 -27 -2 -55 l4 -51 83 0 c77 0 110 10 86 24 -5
4 -12 2 -16 -4 -11 -17 -35 -11 -35 9 0 14 5 18 20 14 14 -4 20 0 20 12 0 12
-5 15 -20 10 -15 -5 -20 -2 -20 10 0 13 6 16 25 13 16 -3 25 -1 25 7 0 8 -15
12 -41 12 l-40 0 4 -43 c3 -24 1 -47 -4 -50 -5 -3 -9 0 -9 7 0 10 -3 10 -12 1
-26 -26 -40 -14 -37 35 3 36 0 49 -12 51 -8 1 -17 1 -19 -2z"/>
<path d="M98 2108 c16 -16 16 -78 0 -78 -7 0 -5 -5 5 -11 23 -13 36 -4 30 21
-8 29 12 25 25 -5 6 -14 18 -25 27 -25 19 0 19 9 -1 32 -14 14 -14 20 -4 33
23 27 4 45 -47 45 -36 0 -44 -3 -35 -12z m62 -18 c0 -11 -7 -20 -15 -20 -15 0
-21 21 -8 33 12 13 23 7 23 -13z"/>
<path d="M2328 2113 c15 -6 16 -83 1 -83 -5 0 -7 -4 -4 -10 3 -5 13 -10 21
-10 12 0 13 8 8 35 -8 45 5 44 35 -3 26 -40 27 -40 34 31 3 35 1 47 -9 47 -10
0 -12 -8 -7 -30 3 -16 1 -30 -4 -30 -5 0 -17 14 -26 30 -12 20 -26 30 -40 29
-12 0 -16 -3 -9 -6z"/>
<path d="M2608 2075 c3 -29 0 -45 -7 -45 -7 0 -11 14 -9 35 2 35 -11 61 -19
38 -3 -7 -16 -13 -29 -13 -20 0 -24 -5 -24 -30 0 -16 0 -33 0 -37 0 -5 6 -8
13 -8 7 0 11 10 9 26 -2 17 3 29 12 32 13 5 16 -1 16 -29 0 -32 2 -34 28 -30
15 2 30 5 33 5 3 1 4 12 1 26 -2 15 0 25 7 25 6 0 11 -11 11 -24 0 -29 18 -44
26 -22 11 29 -5 66 -27 66 -15 0 -19 5 -15 15 3 10 -1 15 -12 15 -14 0 -17 -8
-14 -45z"/>
<path d="M2452 2088 c-19 -19 -15 -66 7 -77 38 -21 69 48 34 75 -22 17 -26 17
-41 2z m38 -39 c0 -10 -7 -19 -15 -19 -15 0 -21 31 -9 43 11 10 24 -3 24 -24z"/>
<path d="M1287 1884 c-13 -14 -7 -22 13 -17 22 6 28 -12 8 -21 -10 -5 -10 -7
0 -12 19 -9 14 -34 -8 -34 -23 0 -27 -15 -5 -23 7 -3 24 2 36 12 17 13 20 23
14 37 -5 10 -9 28 -9 39 -1 20 -35 33 -49 19z"/>
<path d="M1377 1883 c-13 -13 -7 -38 13 -51 24 -15 18 -32 -11 -32 -10 0 -19
-4 -19 -10 0 -5 11 -10 25 -10 33 0 45 42 20 70 -16 18 -17 20 -2 20 10 0 17
5 17 10 0 11 -33 14 -43 3z"/>
<path d="M1446 1874 c-9 -22 -7 -67 3 -82 25 -41 71 22 52 71 -12 30 -45 37
-55 11z m39 -39 c0 -16 -6 -30 -12 -32 -9 -3 -13 7 -13 32 0 25 4 35 13 33 6
-3 12 -17 12 -33z"/>
<path d="M1542 1835 c2 -54 20 -76 30 -37 8 31 -3 92 -18 92 -10 0 -13 -14
-12 -55z"/>
<path d="M1620 1818 c0 -26 4 -38 14 -38 10 0 14 9 13 26 -1 15 4 29 12 32 11
4 13 -2 8 -27 -5 -23 -3 -31 5 -29 7 3 13 15 13 28 0 13 6 25 14 28 11 4 13
-2 8 -27 -5 -23 -3 -31 8 -31 9 0 12 9 10 28 -2 15 -4 32 -4 38 -1 7 -21 11
-51 11 l-50 -1 0 -38z"/>
<path d="M1580 1795 c0 -8 7 -15 15 -15 8 0 15 4 15 9 0 5 -7 11 -15 15 -9 3
-15 0 -15 -9z"/>
<path d="M2960 1664 c0 -13 53 -118 64 -125 18 -13 -7 -30 -43 -29 -54 3 -61
1 -61 -14 0 -10 11 -12 48 -8 26 2 55 9 65 14 10 5 24 5 35 -1 18 -10 46 -5
124 19 18 5 28 4 31 -4 3 -8 10 -8 26 2 11 7 21 8 21 4 0 -9 81 -6 138 4 17 4
32 3 32 -1 0 -14 -30 -35 -52 -36 -17 -1 -18 -3 -5 -6 54 -14 -12 -19 -265
-21 -255 -2 -316 -8 -296 -27 3 -3 16 -1 30 5 17 8 40 9 77 2 29 -5 67 -6 84
-3 36 8 236 5 283 -3 16 -4 53 -2 82 4 39 7 63 6 99 -5 26 -8 49 -15 51 -15 1
0 2 6 2 14 0 14 -42 26 -91 26 -16 0 -29 2 -29 4 0 2 18 23 40 47 60 66 56 71
-52 64 -51 -4 -106 -11 -122 -16 -31 -10 -46 -5 -46 15 0 7 -11 22 -24 35 -21
20 -27 21 -72 10 -71 -17 -94 -30 -94 -53 0 -27 -15 -10 -29 35 -11 34 -51 83
-51 63z m215 -64 c-3 -5 -1 -10 5 -10 6 0 8 -4 5 -10 -3 -5 3 -10 15 -10 14 0
20 -5 18 -16 -2 -8 -6 -15 -10 -15 -5 1 -24 1 -43 1 -24 0 -35 5 -35 15 0 18
12 19 28 3 9 -9 12 -8 12 4 0 9 -5 18 -12 20 -13 5 -2 28 13 28 6 0 7 -4 4
-10z m-109 -45 c-7 -19 1 -19 21 0 8 8 19 13 24 10 15 -10 10 -25 -8 -26 -11
0 -13 -3 -5 -6 21 -8 13 -23 -12 -23 -23 0 -36 16 -36 46 0 8 5 14 11 14 6 0
9 -7 5 -15z m277 -12 c-13 -2 -33 -2 -45 0 -13 2 -3 4 22 4 25 0 35 -2 23 -4z"/>
<path d="M2263 908 c17 -22 25 -38 33 -65 6 -23 24 -14 24 12 0 14 -4 25 -9
25 -5 0 -11 10 -13 23 -2 15 -11 23 -27 25 -24 4 -24 3 -8 -20z"/>
<path d="M2337 923 c-2 -5 -2 -27 1 -50 3 -31 9 -43 21 -43 13 0 16 10 16 50
0 40 -3 50 -17 50 -9 0 -19 -3 -21 -7z"/>
<path d="M2248 858 c-4 -23 -2 -28 15 -28 14 0 17 3 10 13 -6 6 -12 19 -15 27
-3 9 -7 4 -10 -12z"/>
<path d="M2365 715 c0 -44 3 -55 16 -55 22 0 21 103 -1 108 -12 2 -15 -9 -15
-53z"/>
<path d="M2430 756 c0 -9 7 -12 20 -9 24 6 25 -5 6 -52 -8 -19 -11 -37 -6 -40
12 -7 17 3 25 48 4 20 11 40 16 43 17 10 -2 24 -32 24 -18 0 -29 -5 -29 -14z"/>
<path d="M2511 751 c-16 -28 -13 -67 4 -85 20 -20 44 -10 52 22 13 55 -33 108
-56 63z m37 -38 c-2 -21 -7 -38 -13 -38 -5 0 -11 17 -13 38 -3 29 0 37 13 37
13 0 16 -8 13 -37z"/>
<path d="M2610 716 l0 -53 49 -1 c47 -2 50 0 48 23 -1 13 3 23 8 22 6 -1 10
-12 10 -24 -1 -13 5 -23 11 -23 7 0 12 11 11 24 -1 14 3 24 8 23 6 -1 10 -12
10 -24 -1 -13 5 -23 13 -23 9 0 12 11 10 37 l-3 37 -67 2 c-54 1 -68 -2 -68
-14 0 -11 3 -12 15 -2 12 10 15 7 21 -15 10 -39 -5 -44 -32 -10 -15 20 -21 37
-18 52 5 17 2 23 -10 23 -13 0 -16 -11 -16 -54z"/>
<path d="M2103 592 c-22 -66 -43 -201 -43 -274 0 -34 3 -38 33 -47 l32 -9 -36
-1 c-94 -2 -157 -14 -152 -27 4 -10 22 -13 67 -11 33 1 66 5 71 9 6 3 66 8
133 10 89 2 122 6 122 16 0 6 -11 12 -23 12 -18 0 -28 9 -40 38 -9 20 -38 89
-66 152 -27 63 -51 133 -53 154 -5 60 -21 53 -45 -22z m29 -189 c-5 -110 -6
-113 -29 -113 -20 0 -23 5 -23 38 0 41 14 136 32 222 l12 55 7 -45 c4 -25 5
-96 1 -157z m99 -62 c16 -35 29 -65 29 -68 0 -2 -16 -3 -37 -1 -33 3 -36 5
-38 38 -1 19 -7 62 -14 95 -16 89 -13 106 11 50 11 -27 34 -79 49 -114z m-72
-55 c-5 -6 -8 17 -8 60 l2 69 7 -60 c5 -34 4 -64 -1 -69z"/>
<path d="M1807 404 c-4 -4 2 -19 13 -34 23 -32 26 -56 8 -63 -7 -3 1 -6 19 -6
26 -1 30 2 26 19 -3 10 4 32 16 49 24 33 26 41 11 41 -6 0 -15 -11 -20 -25
-11 -29 -30 -33 -30 -6 0 10 -7 22 -16 25 -19 7 -19 7 -27 0z"/>
<path d="M2325 231 c-11 -4 -62 -9 -114 -10 -52 -1 -98 -4 -103 -7 -4 -3 -32
-5 -60 -5 -65 0 -108 -8 -108 -20 0 -13 54 -11 68 3 10 10 15 10 22 -2 10 -17
54 -18 175 -5 44 4 95 8 113 7 22 0 32 4 32 14 0 11 8 14 25 12 13 -2 25 2 27
7 4 13 -50 17 -77 6z"/>
</g>
</svg>
