<?xml version="1.0" standalone="no"?>
<!DOCTYPE svg PUBLIC "-//W3C//DTD SVG 20010904//EN"
 "http://www.w3.org/TR/2001/REC-SVG-20010904/DTD/svg10.dtd">
<svg version="1.0" xmlns="http://www.w3.org/2000/svg"
 width="501.000000pt" height="252.000000pt" viewBox="0 0 501.000000 252.000000"
 preserveAspectRatio="xMidYMid meet">
<g transform="translate(0.000000,252.000000) scale(0.100000,-0.100000)"
fill="#ffffff" stroke="none">
<path d="M1160 2416 c-89 -16 -102 -20 -115 -28 -5 -3 -26 -9 -45 -13 -19 -4
-46 -13 -60 -21 -14 -7 -41 -20 -60 -28 -19 -9 -44 -21 -55 -28 -11 -7 -40
-25 -65 -41 -73 -44 -100 -67 -190 -158 -90 -91 -104 -107 -148 -179 -15 -25
-33 -54 -40 -65 -7 -11 -19 -36 -28 -55 -8 -19 -21 -48 -29 -65 -7 -16 -17
-43 -21 -60 -4 -16 -9 -34 -13 -40 -6 -11 -6 -11 -22 -80 -16 -65 -16 -397 -1
-450 34 -123 53 -182 61 -200 6 -11 17 -36 26 -55 87 -190 260 -375 460 -491
33 -20 62 -36 65 -36 10 -2 65 -25 92 -38 15 -7 53 -19 85 -25 32 -7 69 -17
82 -24 33 -15 399 -15 432 1 13 6 53 17 89 23 36 7 70 15 75 20 6 4 37 13 70
20 33 6 67 14 75 17 8 3 19 5 24 4 4 -1 13 2 20 7 6 5 40 15 75 21 35 7 71 17
80 22 9 5 45 16 81 24 36 8 72 17 80 20 28 8 175 46 235 61 33 8 69 19 80 24
11 5 56 17 100 26 44 9 85 19 90 23 6 3 39 13 75 23 36 9 110 28 165 43 55 14
127 33 160 41 33 8 69 19 80 24 11 5 45 14 75 20 30 6 62 14 70 18 8 3 20 7
25 7 6 1 17 4 25 8 16 6 105 29 205 53 33 8 69 19 80 24 11 5 56 17 100 26 44
9 85 20 90 24 6 4 39 13 75 20 36 7 70 17 76 21 6 5 32 12 58 15 58 8 59 27 4
42 -53 13 -158 49 -178 61 -9 5 -31 12 -50 16 -19 4 -48 13 -65 20 -16 7 -82
29 -145 49 -63 20 -122 41 -132 46 -9 5 -45 16 -80 25 -34 9 -67 20 -73 25 -5
4 -30 13 -55 19 -25 7 -54 16 -65 21 -11 5 -69 25 -130 45 -60 19 -119 40
-130 45 -11 5 -38 14 -60 20 -22 6 -47 14 -55 17 -8 4 -17 7 -20 8 -3 1 -12 4
-20 8 -8 3 -35 11 -60 17 -25 7 -49 15 -55 19 -5 5 -32 14 -60 21 -27 7 -54
16 -60 20 -5 4 -43 17 -84 28 -40 12 -76 24 -79 27 -3 3 -14 47 -25 98 -10 50
-22 94 -26 97 -5 3 -14 23 -21 45 -14 43 -77 157 -119 215 -138 191 -372 359
-576 415 -33 9 -76 21 -95 26 -61 17 -347 20 -430 5z m350 -15 c161 -21 364
-103 494 -200 185 -138 350 -375 397 -571 7 -30 16 -59 21 -64 4 -6 8 -18 8
-27 0 -16 -4 -17 -32 -7 -18 5 -47 16 -64 24 -18 8 -55 19 -83 26 -28 6 -51
15 -51 19 0 4 -17 10 -37 14 -21 4 -51 13 -68 20 -16 8 -57 21 -90 31 -33 9
-64 20 -70 24 -5 4 -34 13 -63 20 -28 6 -54 16 -57 20 -3 4 -29 14 -57 20 -29
7 -59 17 -65 23 -7 5 -13 6 -13 2 0 -4 -6 -3 -12 2 -7 6 -35 16 -63 23 -27 7
-54 16 -60 20 -5 4 -64 24 -130 45 -66 20 -134 44 -152 51 -17 8 -36 14 -43
14 -7 0 -26 6 -43 14 -18 8 -59 22 -92 32 -33 9 -64 20 -70 24 -5 4 -32 13
-60 20 -27 7 -54 17 -60 21 -5 4 -38 14 -71 23 -34 9 -74 23 -90 31 -16 8 -48
17 -71 21 -24 3 -40 11 -37 16 13 20 154 118 225 156 41 21 99 47 129 56 30 9
62 21 71 26 9 5 54 14 100 20 46 7 100 16 119 20 40 10 119 7 240 -9z m-798
-321 c7 0 24 -6 38 -13 14 -8 57 -22 95 -32 39 -10 72 -22 75 -25 3 -4 29 -13
58 -20 28 -6 54 -16 57 -20 3 -4 29 -14 57 -20 29 -7 58 -15 63 -19 6 -3 12
-6 15 -7 3 0 12 -3 20 -7 8 -3 33 -11 55 -17 22 -6 49 -15 60 -20 11 -5 97
-34 190 -65 94 -31 177 -60 187 -65 9 -5 45 -16 80 -25 34 -9 68 -20 73 -24 6
-4 33 -14 60 -21 28 -7 55 -17 60 -21 6 -4 39 -15 75 -24 36 -9 70 -21 75 -25
6 -5 33 -14 60 -21 28 -7 52 -15 55 -19 3 -3 34 -14 70 -23 137 -37 136 -40
-22 -64 -79 -12 -195 -31 -258 -42 -353 -62 -336 -61 -345 -19 -10 45 -110
143 -160 157 -54 15 -113 14 -167 -3 -50 -15 -64 -24 -113 -74 l-32 -32 -79
88 c-43 49 -101 115 -129 147 -55 64 -187 214 -280 319 -71 80 -78 93 -37 72
17 -9 37 -16 44 -16z m48 -150 c47 -53 108 -124 136 -156 28 -32 91 -104 139
-159 48 -55 109 -125 136 -155 26 -30 70 -81 98 -113 28 -31 51 -60 51 -64 0
-4 -5 -2 -12 5 -41 41 -122 -28 -103 -88 5 -15 15 -20 43 -20 46 0 56 7 69 45
l10 30 7 -43 c3 -24 11 -51 16 -60 5 -9 17 -44 25 -77 19 -71 20 -75 28 -95 3
-8 12 -40 20 -70 40 -149 48 -176 56 -190 4 -8 16 -49 26 -90 10 -41 21 -79
25 -85 4 -5 13 -37 20 -70 7 -33 16 -64 20 -70 11 -15 32 -107 26 -113 -3 -3
-14 2 -23 10 -17 15 -33 24 -129 73 -21 11 -40 23 -42 28 -2 4 -8 7 -14 7 -6
0 -72 34 -147 76 -75 41 -144 80 -155 85 -10 6 -50 28 -90 50 -39 22 -91 50
-116 62 -25 12 -47 25 -50 28 -3 3 -18 13 -35 21 -16 9 -58 30 -93 48 l-62 33
39 33 c22 19 52 56 67 82 24 41 28 57 28 127 0 63 -5 88 -22 119 -49 90 -164
167 -270 181 l-53 7 6 42 c4 22 11 46 15 51 4 6 12 39 19 75 6 36 16 74 21 85
5 11 16 54 25 95 19 92 19 93 26 105 4 6 12 42 19 80 7 39 16 75 20 80 5 6 11
33 15 60 4 28 10 53 12 58 2 4 19 -9 36 -29 18 -21 70 -81 117 -134z m-191 88
c-6 -34 -15 -67 -19 -73 -4 -5 -13 -41 -20 -80 -7 -38 -16 -75 -21 -80 -4 -6
-15 -51 -24 -100 -9 -50 -20 -94 -25 -100 -4 -5 -13 -41 -20 -80 -7 -38 -16
-74 -20 -80 -4 -5 -15 -50 -24 -100 -9 -49 -21 -99 -26 -110 -11 -24 -41 -162
-41 -187 0 -24 -16 -23 -24 1 -3 10 -14 82 -24 158 -13 102 -16 157 -10 204
24 182 31 225 39 234 4 6 13 30 20 55 11 40 41 108 87 195 25 47 155 216 161
210 2 -2 -2 -32 -9 -67z m932 -464 c52 -16 115 -71 135 -120 20 -48 18 -64 -8
-64 -13 1 -75 -8 -138 -19 -63 -11 -128 -23 -145 -25 -27 -5 -35 1 -83 60 -59
72 -59 74 6 129 36 30 146 67 172 58 8 -3 36 -11 61 -19z m939 -231 c0 -81 -5
-166 -10 -188 -18 -80 -52 -200 -60 -210 -4 -5 -11 -21 -15 -35 -7 -23 -92
-173 -119 -209 -12 -16 -211 -215 -237 -237 -9 -8 -19 -14 -24 -14 -4 0 -23
-11 -41 -25 -18 -14 -37 -25 -43 -25 -5 0 -16 -6 -23 -13 -16 -16 -151 -72
-195 -82 -21 -4 -33 -3 -33 4 0 6 5 11 10 11 6 0 15 10 20 23 9 20 51 83 127
191 16 22 37 54 48 72 11 18 52 79 90 135 39 57 79 118 90 135 28 45 175 266
227 340 91 130 178 267 177 279 0 14 -55 -51 -82 -97 -39 -66 -281 -423 -289
-426 -4 -2 -8 -8 -8 -13 0 -11 -162 -253 -172 -257 -5 -2 -8 -8 -8 -12 0 -5
-51 -85 -113 -177 -62 -92 -117 -177 -122 -188 -7 -17 -10 -13 -19 25 -6 25
-14 50 -17 55 -4 6 -12 35 -19 65 -7 30 -16 60 -20 65 -4 6 -15 44 -25 85 -10
41 -21 80 -25 85 -4 6 -13 37 -20 70 -7 33 -16 65 -20 70 -4 6 -15 44 -25 85
-10 41 -22 82 -26 90 -5 8 -16 42 -25 75 -8 33 -23 87 -31 120 -9 33 -20 62
-25 63 -4 2 -8 14 -8 26 0 20 9 23 138 43 75 12 189 31 252 42 63 11 183 32
265 46 286 48 370 63 405 72 26 7 37 6 43 -4 4 -7 7 -79 7 -160z m110 136 c47
-16 110 -37 140 -45 30 -9 60 -20 65 -24 6 -5 33 -14 60 -21 28 -6 55 -15 60
-19 6 -4 39 -16 75 -25 36 -10 70 -21 75 -26 6 -4 30 -12 55 -18 25 -7 54 -16
65 -21 11 -5 70 -25 130 -45 61 -19 119 -40 130 -45 11 -5 38 -14 60 -20 22
-6 47 -14 55 -17 8 -4 17 -7 20 -7 3 -1 10 -4 15 -8 6 -3 28 -9 49 -13 l39 -8
-29 -12 c-27 -12 -50 -31 -83 -70 -33 -40 -26 -144 14 -187 14 -15 25 -29 25
-32 0 -2 -35 -12 -77 -22 -43 -9 -82 -20 -88 -24 -5 -4 -37 -12 -70 -19 -33
-7 -69 -16 -80 -21 -11 -5 -58 -19 -105 -30 -47 -12 -112 -28 -145 -36 -33 -8
-69 -19 -80 -24 -11 -4 -51 -16 -90 -24 -72 -17 -80 -19 -105 -29 -8 -3 -42
-11 -75 -18 -33 -6 -64 -14 -70 -18 -10 -6 -81 -25 -230 -62 -44 -10 -89 -23
-100 -29 -11 -5 -47 -14 -80 -21 -33 -7 -64 -16 -70 -19 -5 -4 -26 -11 -45
-15 -19 -3 -66 -15 -105 -27 -111 -32 -114 -31 -45 8 36 21 67 40 70 43 3 4
19 15 35 25 69 44 226 211 282 301 56 88 107 204 129 290 8 33 20 78 26 100 6
22 12 113 12 203 1 89 1 162 1 162 0 0 38 -14 85 -31z m-2010 -140 c58 -14
132 -70 175 -132 37 -55 39 -62 39 -130 0 -49 -6 -83 -18 -106 -23 -42 -95
-121 -111 -121 -7 0 -49 20 -93 45 -44 25 -84 45 -90 45 -6 0 -12 3 -14 8 -1
4 -25 17 -51 30 -33 15 -47 27 -44 37 3 7 9 31 13 52 4 21 9 43 13 48 3 6 14
44 24 85 10 41 23 96 29 121 l11 45 41 -9 c23 -6 57 -14 76 -18z m759 -53 c17
-20 -17 -76 -46 -76 -18 0 -23 6 -23 27 0 28 25 63 45 63 7 0 18 -6 24 -14z
m2419 -202 c32 -8 64 -18 72 -21 8 -4 17 -7 20 -7 3 -1 10 -4 15 -7 6 -3 33
-12 60 -19 28 -7 55 -17 60 -21 6 -4 41 -15 78 -25 94 -23 91 -30 -23 -54 -30
-6 -64 -15 -75 -20 -21 -10 -139 -40 -264 -68 l-73 -17 -24 30 c-13 16 -26 42
-30 58 -7 33 4 107 16 107 5 0 12 9 15 21 4 11 26 29 48 40 51 23 38 22 105 3z
m-3340 -129 c20 -14 42 -25 48 -25 7 0 14 -3 16 -7 2 -5 39 -26 83 -48 44 -22
82 -43 85 -46 3 -3 39 -24 80 -46 41 -22 109 -59 150 -82 41 -23 95 -52 120
-64 25 -12 47 -25 50 -28 3 -3 19 -13 35 -21 47 -24 142 -76 246 -134 54 -30
102 -54 108 -54 6 0 11 -4 11 -10 0 -5 6 -10 13 -10 7 0 28 -11 47 -23 19 -13
56 -32 83 -42 26 -10 47 -21 47 -26 0 -15 -95 -24 -250 -24 -138 1 -167 4
-260 29 -58 15 -109 32 -115 36 -5 4 -29 14 -53 21 -23 7 -47 18 -53 26 -6 7
-17 13 -24 13 -27 0 -175 110 -255 190 -118 117 -192 230 -251 378 -11 28 -6
28 39 -3z"/>
<path d="M1320 1480 c-12 -7 -12 -12 -2 -22 6 -6 12 -27 12 -45 0 -23 5 -33
15 -33 12 0 15 13 15 55 0 56 -8 65 -40 45z"/>
<path d="M1390 1475 c-19 -23 -3 -31 19 -11 13 12 21 14 26 6 4 -7 -7 -23 -26
-39 -19 -16 -29 -32 -25 -39 9 -15 76 -16 76 -2 0 6 -12 10 -27 10 l-26 0 24
23 24 22 10 -30 c11 -34 44 -45 64 -21 7 8 11 32 9 53 -2 32 -7 39 -27 41 -15
2 -30 -3 -37 -12 -10 -15 -12 -15 -18 -1 -7 19 -50 19 -66 0z m128 -37 c-4
-46 -28 -49 -28 -4 0 26 4 36 16 36 11 0 14 -8 12 -32z"/>
<path d="M1550 1471 c0 -21 21 -33 39 -22 17 11 2 41 -20 41 -12 0 -19 -7 -19
-19z"/>
<path d="M656 1165 c-8 -22 1 -35 25 -35 15 0 20 6 17 22 -4 27 -33 36 -42 13z"/>
<path d="M598 1143 c-19 -5 -25 -43 -8 -43 6 0 10 7 10 15 0 8 7 15 15 15 18
0 20 -26 3 -33 -7 -3 -3 -6 10 -6 15 -1 22 -7 22 -21 0 -22 -35 -28 -44 -7 -3
6 -5 3 -3 -8 3 -27 39 -31 62 -5 17 19 17 21 2 38 -10 10 -17 26 -17 34 0 12
-25 33 -33 27 -1 -1 -10 -3 -19 -6z"/>
<path d="M507 1112 c-21 -23 -21 -46 -1 -77 18 -28 61 -34 71 -9 9 23 -10 75
-33 90 -18 13 -23 12 -37 -4z m41 -24 c7 -7 12 -23 12 -36 0 -33 -31 -25 -41
10 -10 37 5 50 29 26z"/>
<path d="M425 1070 c-18 -19 -17 -20 3 -20 15 0 22 -8 27 -30 6 -28 21 -47 30
-38 6 6 -28 108 -35 108 -4 0 -15 -9 -25 -20z"/>
<path d="M3632 988 c-12 -12 -17 -38 -6 -38 3 0 12 7 21 15 8 8 19 12 25 9 7
-5 5 -11 -5 -19 -21 -15 -22 -25 -2 -25 8 0 15 -7 15 -15 0 -8 -9 -15 -20 -15
-11 0 -20 5 -20 10 0 6 -7 10 -15 10 -18 0 -19 -12 -3 -28 17 -17 67 -15 74 3
4 8 19 15 35 15 21 0 27 -4 23 -15 -9 -22 9 -18 24 5 7 12 8 20 2 20 -5 0 -10
19 -10 41 0 37 -2 40 -16 28 -8 -7 -22 -25 -30 -41 -16 -31 -39 -28 -29 3 12
38 -35 65 -63 37z m128 -48 c0 -11 -7 -20 -15 -20 -18 0 -19 12 -3 28 16 16
18 15 18 -8z"/>
<path d="M3802 968 c2 -15 11 -24 26 -26 18 -3 22 1 22 22 0 21 -5 26 -26 26
-21 0 -25 -4 -22 -22z"/>
<path d="M524 2180 c-8 -46 -7 -60 2 -60 7 0 14 10 16 23 2 17 11 23 34 25 21
2 35 11 42 26 14 31 -1 46 -48 46 l-36 0 -10 -60z m76 25 c0 -9 -9 -15 -25
-15 -24 0 -32 10 -18 23 12 13 43 7 43 -8z"/>
<path d="M4270 1830 c0 -69 17 -82 23 -17 3 35 5 38 11 20 5 -13 12 -23 16
-23 5 0 12 -9 15 -20 3 -11 13 -20 21 -20 11 0 14 15 14 60 0 68 -17 82 -22
18 l-3 -43 -24 43 c-35 61 -51 55 -51 -18z"/>
<path d="M4391 1871 c-15 -27 -14 -63 2 -85 20 -27 74 -18 95 17 15 25 15 29
0 55 -22 35 -81 44 -97 13z m74 -41 c0 -31 -3 -35 -27 -38 -22 -3 -29 2 -34
22 -8 32 12 58 40 54 17 -2 21 -10 21 -38z"/>
<path d="M4500 1880 c0 -5 8 -10 19 -10 16 0 17 -6 13 -50 -4 -41 -2 -50 12
-50 13 0 16 10 16 50 0 43 3 50 20 50 11 0 20 5 20 10 0 6 -22 10 -50 10 -27
0 -50 -4 -50 -10z"/>
<path d="M4635 1880 c3 -5 16 -10 27 -10 19 0 20 -4 15 -50 -5 -40 -3 -50 8
-50 11 0 15 13 15 50 0 43 3 50 20 50 11 0 20 5 20 10 0 6 -25 10 -56 10 -34
0 -53 -4 -49 -10z"/>
<path d="M4756 1874 c-18 -18 -21 -56 -6 -85 14 -25 71 -26 93 -1 37 40 9 102
-46 102 -14 0 -33 -7 -41 -16z m69 -44 c0 -28 -4 -36 -22 -38 -14 -2 -26 4
-33 17 -15 29 4 63 33 59 18 -2 22 -10 22 -38z"/>
<path d="M2495 1654 c-24 -25 -13 -42 38 -58 10 -3 15 -10 12 -16 -8 -13 -45
-13 -45 0 0 6 -7 10 -16 10 -11 0 -14 -5 -10 -16 3 -9 6 -18 6 -20 0 -2 16 -4
35 -4 24 0 37 6 45 21 15 27 6 49 -19 49 -25 0 -38 20 -20 31 8 5 20 2 31 -8
21 -19 31 -13 22 11 -8 21 -57 21 -79 0z"/>
<path d="M4283 1663 c-16 -6 -17 -35 -1 -51 7 -7 22 -12 35 -12 14 0 23 -6 23
-15 0 -9 -9 -15 -25 -15 -14 0 -25 5 -25 10 0 6 -7 10 -15 10 -13 0 -14 -4 -5
-20 14 -27 75 -28 89 -1 8 14 6 22 -8 35 -9 9 -24 16 -33 16 -22 0 -29 11 -16
27 9 11 14 11 29 -3 22 -20 38 -11 19 11 -12 15 -42 18 -67 8z"/>
<path d="M4392 1658 c-13 -13 -16 -66 -6 -92 9 -25 71 -21 84 5 15 26 3 40
-14 16 -17 -23 -43 -22 -56 3 -22 40 26 80 58 48 17 -17 28 -2 12 17 -15 18
-61 20 -78 3z"/>
<path d="M4505 1618 c-11 -29 -21 -56 -23 -60 -2 -5 3 -8 11 -8 8 0 17 9 20
20 3 11 13 20 22 20 9 0 19 -9 22 -20 3 -11 12 -20 19 -20 16 0 19 16 5 24 -5
3 -14 26 -20 51 -6 25 -17 45 -24 45 -7 0 -21 -24 -32 -52z m45 4 c0 -13 -12
-22 -22 -16 -10 6 -1 24 13 24 5 0 9 -4 9 -8z"/>
<path d="M4600 1610 l0 -60 40 0 c22 0 40 5 40 10 0 6 -14 10 -31 10 l-32 0 5
50 c4 38 2 50 -8 50 -10 0 -14 -16 -14 -60z"/>
<path d="M4690 1610 l0 -60 45 0 c25 0 45 5 45 10 0 6 -18 10 -40 10 -29 0
-40 4 -40 15 0 10 11 15 35 15 19 0 35 5 35 10 0 6 -16 10 -36 10 -48 0 -40
24 9 28 52 5 46 22 -8 22 l-45 0 0 -60z"/>
<path d="M191 974 c-21 -27 -27 -60 -13 -80 4 -6 27 -13 52 -16 37 -4 46 -2
47 11 1 9 5 31 9 49 8 40 -8 62 -46 62 -19 0 -36 -9 -49 -26z m77 -20 c4 -26
-22 -54 -49 -54 -14 0 -19 7 -19 28 0 15 6 34 12 40 19 19 53 10 56 -14z"/>
<path d="M4170 990 c0 -5 10 -10 21 -10 19 0 20 -4 15 -36 -4 -19 -10 -42 -13
-50 -3 -8 1 -14 10 -14 11 0 18 13 22 38 10 57 13 62 35 62 11 0 20 5 20 10 0
6 -25 10 -55 10 -30 0 -55 -4 -55 -10z"/>
<path d="M1612 213 c-5 -10 -13 -39 -16 -65 -6 -41 -5 -47 8 -42 9 3 16 17 16
31 0 20 4 24 23 21 15 -2 22 -10 22 -25 1 -32 20 -24 21 9 0 14 6 34 13 42 11
13 11 19 1 31 -18 21 -77 19 -88 -2z m68 -23 c0 -15 -7 -20 -25 -20 -18 0 -25
5 -25 20 0 15 7 20 25 20 18 0 25 -5 25 -20z"/>
</g>
</svg>
