<?xml version="1.0" standalone="no"?>
<!DOCTYPE svg PUBLIC "-//W3C//DTD SVG 20010904//EN"
 "http://www.w3.org/TR/2001/REC-SVG-20010904/DTD/svg10.dtd">
<svg version="1.0" xmlns="http://www.w3.org/2000/svg"
 width="430.000000pt" height="345.000000pt" viewBox="0 0 430.000000 345.000000"
 preserveAspectRatio="xMidYMid meet">
<g transform="translate(0.000000,345.000000) scale(0.100000,-0.100000)"
fill="#ffffff" stroke="none">
<path d="M550 3268 c0 -13 -7 -35 -14 -50 -8 -15 -11 -30 -7 -32 12 -8 60 1
76 14 22 18 19 67 -4 80 -32 17 -51 12 -51 -12z m50 -13 c10 -13 10 -19 -5
-35 -10 -11 -24 -20 -32 -20 -16 0 -16 -1 -2 39 12 35 21 38 39 16z"/>
<path d="M630 3188 c0 -12 -14 -108 -26 -178 -11 -69 -37 -255 -59 -425 -32
-241 -32 -238 -45 -315 -6 -36 -24 -173 -40 -305 -17 -132 -34 -258 -40 -280
-5 -22 -25 -168 -45 -325 -19 -157 -37 -296 -40 -310 -3 -14 -19 -126 -35
-250 -17 -124 -37 -274 -46 -335 -9 -60 -17 -123 -18 -140 l-1 -30 130 2 c72
1 861 5 1755 9 894 3 1628 9 1631 13 4 3 20 45 37 93 17 48 36 95 42 105 10
17 36 84 121 313 22 58 50 128 63 155 13 28 29 68 36 89 12 37 11 41 -10 55
-41 29 -194 123 -265 164 -38 23 -72 44 -75 47 -3 3 -25 18 -50 32 -25 14
-116 69 -203 122 -87 53 -161 96 -164 96 -4 0 -14 7 -23 15 -14 13 -75 51
-250 154 -30 18 -89 54 -131 79 -42 26 -99 60 -125 76 -27 16 -80 48 -119 72
-38 23 -97 59 -130 79 -121 73 -212 129 -285 175 -41 26 -95 59 -120 74 -25
14 -74 45 -110 67 -140 89 -342 209 -351 209 -5 0 -9 4 -9 9 0 4 -26 22 -57
40 -32 17 -101 58 -153 91 -52 32 -126 77 -165 100 -38 23 -108 65 -155 94
-47 28 -130 79 -185 113 -55 33 -138 84 -184 112 -89 54 -101 58 -101 39z
m158 -96 l82 -49 -30 -41 c-16 -23 -44 -49 -62 -58 -36 -19 -142 -25 -156 -9
-6 6 -4 56 6 127 l15 118 31 -19 c17 -11 68 -41 114 -69z m202 -124 c48 -27
321 -193 540 -328 74 -46 167 -101 205 -124 39 -22 72 -43 75 -46 3 -3 76 -48
163 -100 153 -92 201 -122 364 -224 43 -27 110 -67 148 -89 39 -22 72 -43 75
-46 3 -3 50 -33 105 -65 114 -68 261 -157 320 -195 22 -14 54 -33 70 -42 17
-9 82 -49 145 -88 63 -38 144 -87 180 -108 36 -20 67 -40 70 -44 3 -3 21 -14
40 -24 19 -10 60 -35 90 -55 30 -21 78 -49 105 -64 28 -14 98 -56 157 -94 58
-37 127 -79 152 -94 l46 -27 -31 -88 c-17 -48 -39 -104 -48 -123 -10 -19 -33
-78 -51 -130 -18 -52 -37 -100 -41 -105 -4 -6 -22 -50 -40 -98 -25 -71 -35
-87 -48 -82 -83 32 -186 29 -267 -9 -53 -24 -108 -84 -119 -128 l-6 -25 -1415
-2 c-778 -1 -1413 1 -1412 6 4 15 -14 78 -33 114 -35 70 -138 138 -208 139
-29 0 -33 3 -28 23 3 12 15 101 27 197 12 96 30 238 41 315 11 77 30 221 44
320 14 99 34 245 45 325 11 80 37 276 59 435 21 160 50 367 64 460 15 94 29
191 32 217 6 45 7 47 31 38 14 -6 40 -10 57 -10 59 1 157 62 178 112 l12 28
31 -23 c17 -13 51 -35 76 -49z m-570 -2444 c67 -37 130 -133 130 -199 0 -6
-59 -11 -151 -13 l-151 -3 5 33 c4 18 11 73 17 122 6 49 13 93 15 97 8 11 86
-10 135 -37z m3335 -48 c35 -15 44 -29 25 -41 -6 -4 -8 -11 -5 -16 4 -5 2 -9
-3 -9 -5 0 -14 -18 -21 -40 l-12 -39 -162 -3 c-89 -2 -164 -2 -167 0 -2 2 7
24 20 50 20 38 37 53 88 79 54 28 74 33 133 33 38 0 85 -7 104 -14z"/>
<path d="M658 3063 c-32 -38 -28 -93 7 -93 17 0 34 30 28 48 -7 19 -23 14 -23
-8 0 -11 -4 -20 -10 -20 -17 0 -7 52 12 64 10 6 18 14 18 18 0 14 -16 9 -32
-9z"/>
<path d="M717 3073 c-3 -5 -5 -29 -5 -55 -1 -42 1 -48 19 -48 24 0 36 25 20
43 -8 10 -7 17 1 25 8 8 8 15 -2 27 -14 16 -26 19 -33 8z m23 -79 c0 -8 -4
-12 -10 -9 -5 3 -10 13 -10 21 0 8 5 12 10 9 6 -3 10 -13 10 -21z"/>
<path d="M782 3068 c-7 -7 -12 -17 -12 -24 0 -19 27 -24 41 -8 17 21 -10 51
-29 32z"/>
<path d="M313 437 c-15 -24 -13 -85 3 -91 25 -10 32 1 32 48 0 45 -19 68 -35
43z"/>
<path d="M377 443 c-12 -11 -8 -23 8 -23 19 0 19 -11 0 -36 -8 -10 -15 -25
-15 -32 0 -18 52 -11 58 7 3 10 -1 12 -18 8 -20 -5 -21 -4 -6 12 19 21 20 43
4 59 -14 14 -22 15 -31 5z"/>
<path d="M436 433 c-4 -9 -1 -23 7 -30 12 -12 16 -12 27 1 10 13 10 19 0 31
-16 19 -26 19 -34 -2z"/>
<path d="M3530 404 c0 -35 4 -54 11 -52 6 2 10 7 10 11 -1 4 -1 27 -1 52 0 25
-4 45 -10 45 -5 0 -10 -25 -10 -56z"/>
<path d="M3599 456 c-8 -8 3 -106 12 -106 11 0 12 97 0 104 -4 3 -10 4 -12 2z"/>
<path d="M3647 454 c-13 -13 -7 -22 12 -17 21 5 37 -12 21 -22 -5 -3 -10 -11
-10 -17 0 -6 6 -6 15 2 22 18 15 54 -10 58 -12 2 -24 0 -28 -4z"/>
<path d="M3716 444 c-4 -10 -2 -22 3 -27 14 -14 43 0 39 20 -4 24 -34 28 -42
7z"/>
<path d="M3645 370 c-4 -6 7 -10 24 -10 17 0 31 5 31 10 0 6 -11 10 -24 10
-14 0 -28 -4 -31 -10z"/>
<path d="M4107 1147 c-22 -22 -19 -65 4 -80 12 -7 26 -6 48 3 22 9 28 16 20
21 -7 4 -20 2 -30 -4 -28 -18 -46 5 -31 38 12 26 37 33 45 13 4 -10 8 -10 16
2 5 8 8 18 5 22 -9 14 -58 4 -77 -15z"/>
<path d="M3790 333 c0 -13 -7 -37 -15 -53 -15 -30 -15 -30 12 -30 39 0 57 14
50 38 -2 12 0 23 7 25 18 7 -7 40 -32 42 -17 1 -22 -4 -22 -22z m40 -2 c0 -6
-4 -12 -9 -15 -5 -3 -7 -15 -4 -25 4 -17 -12 -39 -22 -29 -8 7 16 78 25 78 6
0 10 -4 10 -9z"/>
<path d="M150 315 c-6 -8 -8 -20 -4 -26 4 -7 3 -9 -3 -6 -6 4 -21 -5 -33 -18
-15 -16 -18 -25 -10 -25 7 0 19 8 26 18 13 16 13 16 14 0 0 -10 6 -18 13 -18
7 0 13 17 15 45 3 49 1 53 -18 30z"/>
</g>
</svg>
