<?xml version="1.0" standalone="no"?>
<!DOCTYPE svg PUBLIC "-//W3C//DTD SVG 20010904//EN"
 "http://www.w3.org/TR/2001/REC-SVG-20010904/DTD/svg10.dtd">
<svg version="1.0" xmlns="http://www.w3.org/2000/svg"
 width="938.000000pt" height="318.000000pt" viewBox="0 0 938.000000 318.000000"
 preserveAspectRatio="xMidYMid meet">
<g transform="translate(0.000000,318.000000) scale(0.100000,-0.100000)"
fill="#ffffff" stroke="none">
<path d="M716 2934 c-11 -8 -30 -14 -41 -14 -23 0 -55 -28 -55 -47 0 -6 6 -13
13 -16 13 -5 63 17 89 40 13 12 20 12 40 1 12 -7 31 -19 40 -26 9 -8 27 -12
40 -10 17 2 23 9 22 27 -1 23 1 23 60 17 76 -8 1467 -16 3258 -19 1253 -2
1369 -4 1384 -19 13 -13 22 -14 48 -6 17 6 35 15 41 19 14 13 53 11 62 -4 13
-20 63 -48 73 -42 6 4 7 17 4 31 -6 22 -4 24 32 24 63 -1 164 -18 234 -40 80
-26 100 -35 172 -82 31 -21 59 -38 62 -38 3 0 39 -33 79 -73 74 -73 182 -223
207 -287 7 -19 20 -44 27 -55 7 -11 13 -27 13 -36 0 -9 6 -22 14 -28 8 -6 16
-26 19 -44 3 -18 11 -54 17 -82 14 -68 40 -226 40 -247 0 -17 -22 -18 -316
-18 -173 0 -319 -2 -324 -5 -5 -3 -12 -1 -15 5 -4 6 -15 8 -25 5 -9 -3 -29 -1
-43 4 -15 6 -28 7 -31 3 -3 -5 -125 -7 -273 -6 -147 2 -272 3 -278 4 -5 0
-140 -1 -300 -3 -159 -2 -330 -1 -378 3 -49 3 -91 2 -94 -2 -2 -5 -9 -6 -14
-2 -6 3 -58 5 -117 4 -59 0 -118 0 -132 0 -14 1 -65 1 -115 0 -49 0 -101 -1
-115 -1 -14 0 -34 0 -45 -1 -30 -1 -150 0 -470 6 -159 3 -915 8 -1680 11 -765
2 -1457 5 -1540 6 -82 1 -158 -2 -168 -6 -13 -5 -17 -19 -17 -57 0 -40 4 -51
19 -55 12 -3 17 -11 14 -24 -3 -10 -11 -24 -19 -30 -17 -14 -18 -91 -1 -108
11 -11 16 -68 16 -209 0 -30 6 -64 14 -76 8 -12 18 -50 22 -84 5 -45 12 -65
25 -72 14 -8 17 -18 13 -49 -3 -22 -1 -41 5 -45 6 -4 9 -13 6 -21 -3 -7 5 -20
19 -29 18 -13 23 -24 22 -54 -3 -65 14 -100 75 -162 33 -33 64 -60 70 -60 5 0
10 -4 10 -9 0 -17 70 -82 81 -75 6 3 16 -1 22 -11 14 -18 23 -18 197 -17 63 1
122 1 130 1 8 -1 449 0 980 1 758 1 2702 2 2805 1 812 -3 1109 1 1189 14 49 7
94 19 99 24 6 6 25 11 42 11 32 0 155 53 155 68 0 4 15 13 33 20 17 6 48 26
68 44 20 18 45 40 55 49 33 28 114 117 114 126 0 5 13 24 28 43 40 49 132 216
132 239 0 11 4 23 10 26 6 3 10 17 10 30 0 13 4 26 9 30 6 3 13 27 17 53 3 26
10 52 14 57 4 6 13 44 21 85 18 94 18 388 1 485 -32 176 -124 390 -228 527
-127 167 -272 269 -479 338 -29 10 -120 15 -320 17 -154 2 -287 3 -295 3 -8
-1 -211 0 -450 1 -239 1 -462 2 -495 2 -140 -2 -754 -2 -1055 -1 -169 1 -464
8 -468 12 -2 3 -12 2 -21 -2 -9 -4 -99 -5 -201 -1 -102 3 -592 6 -1090 6 -765
1 -908 -1 -924 -13z m662 -1105 c12 -8 22 -17 22 -21 0 -5 14 -8 30 -8 20 0
30 -5 30 -15 0 -8 8 -15 18 -15 9 0 27 -3 40 -6 14 -4 22 -2 22 6 0 6 -9 14
-20 17 -11 3 -20 9 -20 14 0 5 -9 9 -19 9 -19 0 -35 23 -24 34 11 10 48 7 61
-6 9 -9 15 -9 24 0 19 19 29 14 22 -12 -4 -17 1 -31 15 -45 12 -12 26 -21 32
-21 21 0 77 40 81 58 4 12 14 17 32 17 15 -1 31 -8 36 -15 5 -8 15 -10 26 -6
18 7 18 8 0 22 -18 13 -13 14 48 14 43 0 65 -4 61 -10 -4 -6 -14 -9 -23 -8
-11 2 -17 -4 -18 -19 -1 -24 -47 -68 -52 -52 -2 5 -8 9 -13 9 -4 0 -7 -21 -6
-47 2 -41 5 -48 22 -48 16 0 19 6 17 26 -2 18 7 37 29 62 18 21 39 37 46 37 8
0 33 10 56 22 36 18 60 22 167 24 99 1 130 -2 150 -15 14 -8 29 -20 33 -26 4
-5 7 1 5 14 -3 24 -2 24 90 26 90 2 92 1 92 -22 0 -14 6 -23 15 -23 19 0 19
-9 -1 -49 -8 -17 -20 -29 -25 -26 -5 4 -14 3 -19 0 -8 -5 -7 -11 0 -20 7 -8 9
-27 5 -43 -4 -22 -2 -31 9 -35 9 -4 16 -16 16 -27 0 -15 7 -20 25 -20 17 0 28
7 34 23 8 19 5 23 -23 27 -27 4 -31 10 -34 40 -3 24 2 38 14 47 10 7 27 13 37
13 19 0 20 -1 2 -20 -10 -11 -16 -22 -14 -24 2 -2 13 -6 24 -8 11 -2 20 2 19
10 -1 6 -2 26 -2 42 -2 23 -7 30 -23 30 -17 0 -19 3 -10 14 9 10 8 16 -4 26
-8 7 -15 19 -15 26 0 17 24 18 50 2 15 -10 22 -10 32 0 17 17 48 15 70 -4 17
-16 17 -18 -8 -40 -14 -13 -31 -24 -38 -24 -7 0 -16 -3 -19 -6 -9 -9 12 -44
26 -44 7 0 21 14 31 31 l18 31 24 -28 23 -29 1 28 c0 16 -4 37 -10 47 -13 24
11 44 40 35 15 -5 20 -13 17 -26 -4 -13 5 -24 30 -39 41 -24 54 -25 47 -5 -4
8 -12 15 -19 15 -18 0 -47 29 -40 41 8 12 52 12 60 -1 4 -7 12 -7 25 0 26 14
57 13 63 -2 3 -10 9 -8 24 5 23 20 85 25 65 5 -7 -7 -12 -18 -12 -25 0 -21 28
-15 35 7 3 11 14 20 23 21 9 0 47 2 85 4 l67 3 0 -31 c1 -36 43 -92 62 -81 8
5 7 10 -3 18 -8 6 -20 22 -27 34 -9 16 -10 28 -2 42 6 11 13 20 17 20 3 0 11
-8 18 -17 11 -14 15 -15 28 -4 24 19 36 5 30 -34 -7 -42 14 -49 22 -7 9 41 20
57 41 57 13 0 18 -6 17 -19 -2 -23 32 -62 41 -47 4 5 2 12 -4 16 -30 19 17 43
99 52 49 5 59 3 65 -12 5 -14 9 -15 22 -4 18 15 131 23 139 9 4 -6 15 -6 31 0
29 11 75 13 98 4 9 -3 16 -13 16 -21 0 -8 7 -13 18 -11 9 2 17 9 17 17 0 20
57 23 99 6 20 -9 36 -22 36 -30 0 -17 4 -18 38 -9 18 5 20 9 11 20 -6 8 -20
14 -31 14 -10 0 -16 5 -13 10 9 15 55 12 61 -5 5 -11 10 -12 26 -2 16 9 22 9
25 0 5 -15 33 -18 33 -4 0 10 40 19 58 13 16 -5 16 -52 0 -52 -7 1 -32 5 -56
9 -42 8 -43 8 -38 -15 5 -18 2 -23 -16 -26 -32 -4 -29 -22 4 -26 24 -3 26 -6
16 -22 -7 -11 -10 -22 -7 -25 4 -3 19 0 35 6 16 7 38 11 49 11 15 -1 16 0 5 6
-8 4 -25 13 -36 21 l-22 14 21 17 c18 15 24 15 48 3 16 -8 26 -20 24 -31 -1
-9 0 -11 2 -4 6 17 30 15 37 -3 7 -20 22 -19 30 3 3 9 11 25 18 34 15 20 4 35
-15 20 -15 -13 -77 -13 -77 0 0 4 5 8 10 8 6 0 15 11 20 25 12 31 35 41 55 25
12 -10 18 -10 30 0 8 7 25 10 37 7 26 -7 292 -9 381 -3 42 2 55 0 48 -7 -19
-19 -12 -37 15 -37 23 0 25 2 13 16 -10 13 -10 17 2 25 18 11 50 11 68 0 12
-8 12 -12 2 -25 -11 -13 -11 -16 3 -16 9 0 16 6 16 14 0 19 7 23 61 31 37 5
47 4 52 -9 9 -22 -4 -87 -16 -79 -5 3 -25 7 -43 9 -28 2 -31 0 -21 -12 34 -41
38 -44 56 -34 11 5 22 5 27 0 5 -5 20 -7 32 -3 17 4 21 10 16 22 -3 9 -8 25
-9 36 -2 11 -6 27 -10 36 -5 12 2 20 26 28 17 6 35 8 40 5 5 -3 9 -15 9 -27
l0 -22 18 22 c10 12 34 24 60 28 34 5 42 4 42 -8 0 -10 7 -13 21 -10 12 3 25
0 29 -7 11 -18 41 -5 34 15 -4 9 0 15 9 15 9 0 19 -5 23 -11 3 -6 16 -8 28 -4
36 11 459 13 490 2 22 -8 31 -7 34 1 4 14 48 16 56 3 9 -13 -17 -60 -36 -65
-22 -5 -24 -46 -3 -46 8 0 23 4 33 9 9 5 25 12 35 15 11 3 15 11 11 17 -4 7 1
18 11 26 11 7 13 13 7 13 -7 0 -12 7 -12 15 0 18 21 20 39 3 10 -11 15 -9 25
5 13 16 14 16 20 1 6 -15 8 -15 26 1 26 23 41 11 33 -27 -5 -24 -3 -30 8 -26
8 2 15 17 17 31 l3 27 137 0 c75 0 164 1 197 2 l60 3 -3 -69 c-2 -39 -6 -75
-10 -80 -4 -6 -5 -18 -4 -27 2 -9 -4 -22 -13 -29 -11 -9 -12 -16 -4 -26 15
-18 2 -111 -16 -118 -11 -4 -11 -11 -2 -35 6 -17 9 -33 5 -36 -3 -3 -17 -1
-32 5 -26 10 -26 10 -11 40 9 17 13 35 9 41 -3 6 2 19 12 30 9 10 15 22 11 25
-3 3 -20 3 -37 -1 -29 -6 -31 -10 -29 -43 1 -21 1 -45 0 -54 -1 -15 -5 -16
-28 -5 -39 17 -52 37 -49 75 3 37 -12 42 -40 11 -16 -17 -16 -22 -4 -29 8 -6
18 -10 23 -10 4 0 7 -6 7 -13 0 -18 -36 -50 -48 -43 -11 6 -22 -16 -22 -42 0
-8 7 -24 17 -34 15 -17 15 -18 -5 -18 -11 0 -24 -5 -27 -11 -4 -6 -13 -8 -21
-5 -20 8 -17 -21 3 -33 15 -8 15 -11 3 -26 -8 -10 -22 -14 -35 -11 -16 4 -27
-2 -44 -25 -19 -26 -27 -29 -53 -24 -28 7 -29 6 -19 -14 7 -12 18 -21 25 -21
8 0 16 -10 19 -21 4 -15 11 -20 22 -15 9 3 30 6 47 6 23 0 29 4 26 18 -2 9
-13 21 -26 27 -23 10 -29 29 -12 40 6 4 17 2 25 -5 8 -7 27 -9 51 -4 30 5 34
8 19 16 -12 7 -15 17 -11 34 4 14 2 24 -4 24 -19 0 -10 15 20 32 17 10 32 13
35 7 4 -5 1 -9 -4 -9 -17 0 -13 -20 5 -27 10 -4 20 1 26 11 7 13 17 16 35 11
50 -12 82 17 49 44 -10 9 -16 9 -21 1 -4 -6 -13 -9 -21 -6 -8 3 -14 1 -14 -4
0 -6 -9 -10 -20 -10 -11 0 -20 7 -20 15 0 8 -5 24 -11 34 -10 15 -8 22 11 41
20 20 24 21 38 6 14 -14 14 -17 -3 -36 -16 -18 -16 -20 -2 -20 10 0 17 5 17
10 0 17 53 0 78 -25 l24 -22 -27 -41 c-15 -22 -33 -43 -41 -46 -8 -3 -24 0
-34 6 -15 10 -22 10 -32 0 -17 -17 -3 -26 37 -25 24 1 35 -3 35 -13 0 -8 -9
-14 -21 -14 -11 0 -17 -5 -14 -10 3 -6 0 -26 -7 -46 -9 -26 -20 -37 -40 -41
-35 -7 -55 -28 -33 -37 8 -3 15 -12 15 -21 0 -21 -9 -19 -30 8 -10 12 -21 19
-25 15 -4 -4 2 -17 14 -29 l21 -23 -23 -25 c-12 -14 -30 -34 -39 -44 -10 -10
-18 -22 -18 -27 0 -5 -9 -12 -20 -15 -11 -3 -20 -13 -20 -21 0 -17 -34 -19
-48 -1 -5 6 -12 21 -14 32 -4 19 -4 19 -16 -3 -15 -27 -8 -42 19 -42 10 0 19
-3 19 -7 0 -29 -191 -130 -255 -135 -31 -2 -40 1 -43 15 -2 11 3 17 16 17 14
0 21 9 26 32 3 17 2 36 -3 41 -14 14 -33 -2 -26 -23 4 -13 -2 -21 -26 -29 -18
-6 -33 -11 -34 -11 -2 0 -6 11 -9 25 -4 14 -12 25 -19 25 -9 0 -12 -10 -9 -30
2 -17 9 -30 14 -30 6 0 8 -6 5 -14 -4 -10 2 -16 16 -18 12 -2 23 -11 25 -20 3
-15 -4 -18 -48 -18 -35 0 -50 4 -49 13 1 6 1 21 0 31 -1 16 -6 14 -26 -15 -26
-34 -46 -47 -75 -48 -12 -1 -15 11 -14 52 0 28 6 65 12 80 15 35 15 57 2 57
-5 0 -10 -9 -10 -19 0 -45 -9 -51 -76 -51 -35 0 -64 -4 -64 -8 0 -5 12 -14 26
-20 17 -8 31 -9 44 -2 22 12 50 3 50 -14 0 -7 -18 -27 -39 -44 -39 -32 -71
-41 -71 -22 0 6 -9 10 -20 10 -12 0 -32 12 -46 27 -26 28 -46 24 -27 -7 9 -14
9 -21 0 -28 -16 -12 -169 -14 -162 -1 4 5 13 9 21 9 9 0 14 7 12 18 -3 13 -12
16 -42 14 -35 -3 -37 -2 -31 17 4 13 2 21 -5 21 -15 0 -24 -28 -13 -43 6 -6
13 -20 16 -29 6 -17 -4 -18 -133 -16 -129 2 -139 4 -134 20 4 12 0 18 -11 18
-8 0 -18 6 -21 14 -5 12 -11 13 -30 4 -28 -13 -31 -23 -9 -32 8 -3 15 -10 15
-17 0 -8 -21 -9 -72 -3 -91 9 -98 9 -125 0 -19 -6 -23 -4 -24 16 -1 18 -2 19
-6 5 -3 -13 -12 -17 -31 -15 -21 2 -28 9 -30 31 -2 15 0 27 4 27 4 0 16 -7 26
-17 17 -15 18 -15 18 5 0 12 -4 22 -10 22 -5 0 -10 9 -10 20 0 11 7 20 15 20
8 0 15 4 15 10 0 5 16 24 35 41 19 18 37 40 40 51 4 10 10 16 15 13 10 -6 50
15 50 26 0 4 -15 10 -34 13 -19 4 -37 13 -40 21 -3 8 -11 15 -18 15 -8 0 -9
-3 -2 -10 5 -5 8 -26 6 -45 -4 -32 -8 -36 -48 -46 -31 -8 -44 -17 -44 -29 0
-24 -10 -31 -31 -19 -14 7 -18 16 -13 34 5 19 2 25 -10 25 -12 0 -16 -10 -16
-35 0 -24 -5 -35 -15 -35 -9 0 -15 9 -15 23 0 20 -5 22 -52 22 -55 0 -77 -16
-36 -26 18 -4 22 -11 20 -33 -3 -30 31 -86 54 -86 8 0 14 -7 14 -16 0 -11 8
-14 28 -12 15 2 28 -1 29 -7 2 -6 -33 -10 -88 -10 -82 0 -93 2 -109 22 -10 13
-21 23 -25 23 -3 0 -5 -10 -3 -22 3 -22 0 -23 -84 -26 -48 -2 -96 2 -107 7
-10 6 -21 7 -25 3 -10 -9 -116 -10 -122 0 -7 12 -48 10 -61 -3 -7 -7 -17 -8
-27 -2 -9 5 -47 6 -84 2 -37 -4 -175 -7 -307 -7 -171 -1 -243 3 -254 11 -11 9
-15 9 -18 0 -3 -9 -26 -13 -69 -13 -35 0 -64 2 -64 5 0 10 60 65 70 65 6 0 10
-7 10 -15 0 -10 10 -15 30 -15 20 0 30 5 30 15 0 8 -8 15 -18 15 -26 0 -34 11
-20 27 15 18 2 29 -44 37 -35 6 -38 5 -38 -16 0 -17 -3 -19 -9 -9 -6 9 -16 11
-27 7 -18 -7 -18 -8 -1 -20 9 -7 17 -23 17 -35 0 -16 -6 -21 -25 -21 -20 0
-25 5 -25 23 0 13 -8 31 -17 39 -21 18 -54 32 -67 29 -5 -1 -13 4 -17 11 -10
15 25 37 59 38 12 0 22 5 22 11 0 7 -9 9 -22 6 -13 -3 -32 1 -42 9 -24 17 -36
18 -36 2 0 -7 -14 -21 -30 -30 -35 -20 -40 -41 -7 -33 17 4 27 -1 42 -25 11
-16 28 -30 38 -30 17 0 56 -36 57 -52 0 -4 -11 -15 -25 -24 -18 -12 -29 -13
-38 -5 -9 7 -31 8 -66 2 -56 -9 -91 -5 -91 10 0 6 7 12 16 16 12 4 13 8 3 14
-8 4 -23 -3 -40 -22 -27 -29 -53 -37 -64 -19 -8 14 -58 13 -72 -1 -15 -15 -43
-4 -43 16 0 8 3 14 8 14 27 -4 30 3 14 34 -9 17 -22 48 -28 67 l-10 35 -17
-32 c-17 -31 -17 -33 3 -53 22 -22 27 -58 8 -65 -24 -9 -226 -12 -239 -4 -7 4
-18 4 -24 -1 -5 -4 -30 -5 -55 0 -25 5 -52 4 -61 -1 -10 -5 -41 -4 -74 1 -35
6 -64 6 -74 0 -10 -5 -55 -6 -102 -3 -46 3 -88 5 -94 5 -70 -5 -236 -4 -241 1
-10 9 16 37 34 37 8 0 21 -8 28 -17 12 -17 13 -17 20 1 5 14 1 24 -17 38 -13
11 -33 38 -44 61 -12 24 -28 43 -40 45 -18 3 -19 3 -3 -10 9 -7 18 -32 20 -55
2 -24 2 -43 1 -43 -2 0 -11 7 -20 16 -10 8 -29 24 -43 34 -23 17 -24 21 -11
41 12 21 12 25 -8 37 -11 8 -21 25 -21 38 0 22 -25 44 -50 44 -8 0 -8 -6 0
-20 9 -16 7 -26 -10 -49 -22 -32 -26 -51 -10 -51 6 0 10 -13 10 -28 0 -33 36
-74 44 -51 3 8 4 24 3 36 -3 31 17 33 23 3 3 -14 11 -25 18 -26 28 -2 32 -5
32 -23 0 -10 7 -24 15 -31 8 -7 15 -16 15 -21 0 -12 -77 -12 -84 0 -4 5 -22 5
-43 0 -56 -13 -164 -9 -195 7 -27 14 -33 27 -28 69 3 31 10 32 29 6 l19 -24
11 21 c7 12 11 28 10 35 -3 27 2 37 21 37 15 0 20 -7 20 -27 l1 -28 18 23 c11
12 24 22 30 22 6 0 11 7 11 15 0 18 -21 20 -38 3 -19 -19 -27 0 -12 27 12 22
11 27 -4 38 -13 10 -18 26 -18 55 1 31 -3 42 -14 42 -8 0 -17 7 -20 15 -4 8
-17 15 -31 15 -22 0 -24 -3 -18 -32 4 -18 23 -47 42 -65 25 -25 33 -41 31 -61
-3 -24 -7 -27 -36 -24 -40 4 -61 -18 -62 -65 0 -18 -7 -36 -15 -40 -21 -12 -8
-53 17 -53 11 0 18 -5 16 -11 -5 -14 -268 -13 -282 1 -6 6 -15 5 -23 -1 -13
-11 -169 -20 -210 -11 -16 3 -23 11 -23 28 0 27 -24 33 -34 8 -3 -9 -13 -14
-21 -11 -9 4 -12 1 -8 -9 6 -15 -7 -18 -73 -15 -23 2 -45 -2 -49 -8 -8 -14
-55 -14 -55 -1 0 6 7 10 16 10 11 0 14 5 9 18 -4 9 -9 25 -12 34 -4 15 -7 15
-19 3 -8 -7 -14 -21 -14 -29 0 -9 -2 -16 -5 -16 -3 0 -17 7 -30 16 -27 18 -33
44 -11 44 21 0 30 19 16 35 -15 18 -30 10 -30 -16 0 -15 -6 -20 -22 -17 -13 2
-24 11 -27 23 -2 11 -7 22 -11 25 -4 3 -21 31 -39 63 -25 45 -30 62 -21 72 8
9 8 15 0 20 -6 4 -17 4 -25 1 -14 -5 -16 -1 -19 37 -1 7 8 11 20 9 13 -2 24 4
28 13 8 21 -20 31 -39 15 -12 -10 -15 -9 -15 8 0 11 -7 25 -15 32 -9 7 -14 19
-11 27 3 7 -1 13 -9 13 -20 0 -19 30 1 44 9 7 12 18 8 29 -7 18 -24 23 -24 7
0 -5 -4 -10 -10 -10 -5 0 -10 13 -10 30 0 19 -7 33 -20 40 -20 11 -28 40 -11
40 6 0 8 24 6 56 -2 33 1 64 8 76 9 16 9 22 -1 25 -18 7 -43 59 -36 77 8 21
17 20 39 -4 10 -11 22 -20 27 -20 4 0 8 11 8 25 0 23 -4 25 -40 25 l-40 0 -2
53 c-2 54 -1 68 9 127 3 19 5 49 5 67 l0 31 122 0 123 0 -2 -36 c0 -25 -6 -37
-15 -37 -8 0 -15 8 -15 18 0 19 -32 43 -43 33 -3 -4 1 -19 10 -34 13 -22 25
-27 57 -28 42 -2 64 12 42 26 -20 12 -8 45 19 51 14 4 45 7 69 8 l44 1 -21
-23 c-12 -13 -22 -31 -22 -39 0 -19 -30 -80 -45 -90 -13 -9 -56 2 -73 19 -16
16 -18 16 -43 3 -10 -6 -19 -17 -19 -24 0 -8 -7 -16 -15 -20 -8 -3 -15 -11
-15 -18 0 -10 -16 -12 -61 -10 -40 3 -59 8 -56 15 2 7 14 13 26 13 26 2 26 2
35 32 6 17 3 22 -11 22 -10 0 -26 -7 -36 -15 -11 -7 -25 -11 -33 -8 -22 8 -28
-27 -10 -58 9 -16 14 -29 11 -29 -3 0 -3 -5 1 -11 4 -8 9 -8 17 0 14 14 46 14
103 -1 40 -11 47 -11 55 4 5 10 16 15 24 12 23 -9 18 12 -7 28 -20 13 -21 17
-9 32 16 20 51 21 51 2 0 -9 13 -13 44 -12 24 0 48 4 52 9 4 4 13 7 21 7 9 0
13 -15 13 -49 0 -56 19 -82 45 -61 10 8 12 17 6 24 -9 10 -15 46 -12 74 1 6
14 12 30 12 36 0 48 16 29 38 -14 16 -58 106 -58 117 0 3 36 4 80 3 44 -1 80
-6 80 -10 0 -4 -4 -8 -9 -8 -5 0 -11 -7 -15 -15 -4 -10 1 -15 14 -15 15 0 20
7 20 26 0 19 4 25 18 22 11 -2 16 -11 14 -24 -1 -11 9 -33 23 -48 14 -15 25
-31 25 -36 0 -12 -46 -24 -59 -15 -6 3 -11 4 -11 1 0 -2 -3 -11 -6 -19 -3 -8
2 -22 11 -30 12 -13 14 -21 5 -36 -8 -16 -7 -22 9 -31 27 -14 35 -13 61 10 17
15 21 25 15 47 -6 26 -8 26 -19 10 -16 -21 -36 -22 -36 -2 0 8 7 15 15 15 9 0
18 7 21 15 5 12 9 13 21 4 10 -9 19 -9 38 1 13 7 22 17 19 22 -3 4 -14 3 -25
-3 -12 -6 -21 -9 -22 -7 -1 2 -10 17 -19 35 -10 17 -18 38 -18 46 0 8 -7 17
-15 21 -29 11 -15 26 25 26 22 0 40 -4 40 -10 0 -5 -7 -10 -15 -10 -8 0 -15
-8 -15 -17 0 -20 38 -63 57 -63 18 0 17 19 -2 26 -8 4 -15 16 -15 28 0 15 9
27 25 34 14 7 32 12 40 12 18 0 20 -17 3 -23 -7 -2 -10 -7 -6 -11 6 -7 48 12
59 27 4 5 15 7 25 5 13 -2 20 -14 24 -41 3 -21 8 -38 13 -37 4 0 12 0 18 0 8
0 10 14 6 39 -3 22 -3 41 -1 44 8 8 121 -11 142 -24z m62 11 c0 -5 -7 -10 -15
-10 -8 0 -15 5 -15 10 0 6 7 10 15 10 8 0 15 -4 15 -10z m240 5 c0 -6 -62 -45
-72 -45 -5 0 -8 11 -8 25 0 23 4 25 40 25 22 0 40 -2 40 -5z m-1386 -390 c3
-8 1 -15 -4 -15 -6 0 -10 7 -10 15 0 8 2 15 4 15 2 0 6 -7 10 -15z m6040 -280
c3 -8 1 -15 -3 -15 -5 0 -11 7 -15 15 -3 8 -1 15 3 15 5 0 11 -7 15 -15z
m-4839 -175 c-3 -5 -10 -10 -16 -10 -5 0 -9 5 -9 10 0 6 7 10 16 10 8 0 12 -4
9 -10z m195 -130 c0 -16 -7 -20 -30 -20 -16 0 -30 2 -30 4 0 20 16 36 36 36
17 0 24 -6 24 -20z m2960 -56 c0 -23 -12 -44 -26 -44 -10 0 -14 12 -14 38 0
21 3 42 7 46 9 8 33 -22 33 -40z m71 -13 c18 -16 19 -22 7 -40 -7 -12 -16 -21
-19 -21 -4 0 -14 12 -24 26 -13 20 -14 28 -4 40 6 8 13 14 16 14 2 0 13 -9 24
-19z m-1486 -111 c3 -5 -3 -10 -14 -10 -11 0 -23 5 -26 10 -3 6 3 10 14 10 11
0 23 -4 26 -10z"/>
<path d="M363 1833 c-7 -2 -13 -15 -13 -27 0 -12 -5 -27 -12 -34 -9 -9 -9 -12
0 -12 7 0 12 4 12 9 0 6 12 9 26 8 15 -1 29 3 31 9 5 16 -30 53 -44 47z"/>
<path d="M1260 1820 c0 -5 5 -10 10 -10 6 0 10 5 10 10 0 6 -4 10 -10 10 -5 0
-10 -4 -10 -10z"/>
<path d="M1976 1796 c-4 -18 -4 -41 0 -50 7 -19 -24 -35 -36 -17 -6 11 -55 41
-66 41 -2 0 1 -9 8 -19 9 -15 8 -24 -5 -45 -9 -14 -17 -28 -17 -31 0 -3 16 -5
36 -5 24 0 34 -4 31 -12 -2 -8 -17 -12 -34 -10 -20 2 -32 -2 -36 -13 -9 -21
-34 -19 -42 4 -4 13 -12 18 -21 14 -13 -5 -11 -10 11 -31 23 -21 30 -23 50
-12 33 18 46 6 32 -30 -13 -33 -28 -38 -47 -15 -14 17 -40 20 -40 5 0 -6 7
-24 15 -41 13 -25 19 -28 35 -19 17 9 20 7 20 -14 0 -14 4 -36 10 -50 9 -25 8
-26 -26 -26 -28 0 -35 3 -30 15 3 8 0 15 -7 15 -20 0 -36 -21 -30 -37 3 -8 0
-19 -8 -23 -7 -5 -10 -12 -6 -16 4 -4 13 -2 19 4 18 18 46 14 58 -8 6 -11 15
-18 21 -14 7 4 6 10 -1 19 -8 9 -6 14 5 19 15 6 45 -2 45 -12 0 -3 -8 -14 -17
-25 -17 -20 -17 -20 7 -14 14 4 28 7 33 7 4 0 7 13 7 28 0 18 -10 38 -26 52
-16 16 -24 34 -23 50 1 14 -2 34 -6 44 -6 13 -3 23 11 33 17 12 22 10 51 -21
18 -19 33 -39 33 -45 0 -5 9 -13 20 -16 14 -4 20 -15 20 -36 0 -16 4 -29 8
-29 16 0 44 39 40 56 -2 10 -17 21 -36 26 -28 8 -32 13 -32 42 0 19 -3 41 -6
50 -4 11 -1 16 10 16 9 0 16 7 16 15 0 21 -11 19 -35 -9 -26 -30 -65 -43 -65
-22 0 8 -3 21 -6 30 -4 12 0 16 16 16 17 0 21 4 17 20 -3 11 0 23 6 28 7 4 21
24 31 44 16 32 17 40 5 54 -13 16 -12 17 9 12 25 -7 27 -1 8 25 -20 26 -33 21
-40 -17z"/>
<path d="M2107 1810 c-3 -11 -19 -26 -35 -33 -28 -11 -29 -14 -16 -32 9 -12
12 -30 9 -44 -5 -21 -4 -23 9 -12 8 7 25 11 37 9 29 -4 44 -52 28 -91 -14 -33
-6 -45 17 -27 12 10 20 11 33 3 10 -6 22 -8 27 -5 11 8 44 70 44 83 0 12 -37
12 -45 -1 -12 -20 -31 -9 -55 30 -14 22 -33 40 -42 40 -25 0 -33 21 -10 27 14
3 21 15 24 39 3 22 0 34 -8 34 -6 0 -14 -9 -17 -20z"/>
<path d="M2200 1820 c0 -5 -9 -10 -20 -10 -29 0 -25 -25 8 -49 21 -16 23 -20
10 -21 -11 0 -18 -8 -18 -21 0 -29 32 -21 48 13 15 33 46 28 37 -6 -6 -21 -6
-21 9 -2 9 11 16 28 16 38 0 15 -8 18 -45 18 -46 0 -58 13 -33 38 9 9 9 12 0
12 -7 0 -12 -4 -12 -10z"/>
<path d="M1307 1811 c-17 -6 -17 -8 1 -24 19 -17 20 -17 25 3 6 24 -1 30 -26
21z"/>
<path d="M2405 1807 c-11 -6 -28 -11 -37 -12 -10 0 -18 -4 -19 -10 -2 -11 32
-29 74 -39 23 -6 27 -3 27 16 0 13 -6 30 -13 40 -10 13 -17 14 -32 5z"/>
<path d="M3096 1795 c-4 -14 -14 -25 -24 -26 -12 0 -11 -3 6 -9 13 -6 28 -24
34 -42 l11 -31 22 24 c11 14 26 24 33 21 7 -2 12 1 12 7 0 11 -8 14 -50 15
-22 1 -25 5 -22 34 4 38 -13 43 -22 7z"/>
<path d="M3900 1804 c0 -7 -10 -14 -22 -18 -17 -4 -20 -8 -11 -17 8 -8 16 -8
31 3 15 10 18 18 11 28 -5 8 -9 10 -9 4z"/>
<path d="M4510 1800 c-12 -7 -12 -12 -3 -21 15 -15 26 -7 21 15 -2 11 -7 13
-18 6z"/>
<path d="M5582 1795 c-10 -12 -8 -16 9 -25 11 -7 23 -9 26 -7 6 7 -6 47 -15
47 -4 -1 -13 -7 -20 -15z"/>
<path d="M6680 1803 c0 -12 -59 -43 -80 -43 -27 0 -40 -28 -27 -57 5 -13 8
-25 5 -28 -3 -3 -17 0 -31 6 -28 13 -43 54 -32 88 7 22 -6 34 -29 25 -17 -7
-22 -34 -6 -34 6 0 10 -4 10 -10 0 -5 -6 -7 -14 -4 -8 3 -17 1 -21 -5 -11 -19
-33 -12 -39 14 -5 20 -13 25 -36 25 -21 0 -30 -5 -30 -16 0 -9 7 -14 17 -12
18 3 53 -24 53 -41 0 -5 10 -13 22 -17 21 -6 21 -7 3 -20 -18 -13 -18 -14 3
-14 13 0 22 6 22 15 0 8 5 15 10 15 6 0 10 -7 10 -15 0 -18 67 -32 83 -16 6 6
24 11 39 11 18 0 38 10 53 26 14 15 25 31 25 35 0 14 -16 10 -30 -6 -14 -17
-30 -11 -30 10 0 8 16 21 35 29 25 11 33 19 29 30 -6 17 -14 21 -14 9z"/>
<path d="M434 1785 c-7 -18 3 -35 23 -35 10 0 13 6 9 16 -3 9 -6 20 -6 25 0
15 -20 10 -26 -6z"/>
<path d="M1090 1792 c0 -10 43 -52 53 -52 4 0 7 8 7 18 0 11 -11 24 -25 30
-31 14 -35 15 -35 4z"/>
<path d="M1688 1770 c-3 -21 -1 -29 7 -26 8 3 10 -4 7 -21 -3 -15 1 -29 9 -34
22 -14 29 -11 40 18 9 23 7 30 -8 43 -11 8 -22 23 -26 33 -10 26 -24 20 -29
-13z"/>
<path d="M3557 1793 c-4 -3 -7 -15 -7 -25 0 -26 24 -17 28 10 3 21 -8 29 -21
15z"/>
<path d="M4856 1793 c-3 -3 -3 -10 0 -14 7 -12 34 -11 34 0 0 11 -26 22 -34
14z"/>
<path d="M5956 1791 c-3 -5 0 -14 8 -20 10 -9 15 -8 19 3 9 22 -15 37 -27 17z"/>
<path d="M2965 1783 c-11 -3 -31 -16 -44 -29 -13 -13 -28 -24 -32 -24 -5 0 -9
-10 -9 -23 0 -23 4 -26 98 -72 17 -8 32 -20 32 -25 0 -6 8 -10 19 -10 25 0 38
60 17 76 -10 7 -12 15 -5 25 5 8 9 22 9 31 0 11 -5 15 -15 12 -10 -4 -15 0
-15 14 0 11 -7 23 -16 26 -9 3 -16 5 -17 5 -1 -1 -11 -4 -22 -6z m-10 -59 c15
-15 17 -15 35 1 18 17 19 16 25 -8 4 -14 4 -31 0 -36 -8 -14 -55 -14 -55 -1 0
6 -11 10 -25 10 -20 0 -25 5 -25 25 0 29 21 33 45 9z"/>
<path d="M3180 1786 c0 -2 7 -6 15 -10 8 -3 15 -1 15 4 0 6 -7 10 -15 10 -8 0
-15 -2 -15 -4z"/>
<path d="M3607 1783 c-4 -3 -7 -15 -7 -25 0 -26 -26 -33 -53 -16 -22 15 -47
14 -47 -2 0 -5 6 -10 13 -13 6 -2 -1 -2 -18 1 -29 4 -29 4 -13 -19 9 -14 26
-24 40 -24 14 -1 32 -8 41 -17 9 -9 26 -14 40 -11 31 6 47 -16 18 -24 -29 -7
-27 -23 3 -23 15 0 27 -7 31 -19 5 -17 32 -31 63 -31 17 0 15 45 -2 59 -8 7
-25 9 -40 5 -20 -5 -26 -2 -26 9 0 9 6 19 13 24 7 5 -5 10 -32 13 -45 5 -71
30 -31 30 12 0 30 5 40 10 19 10 19 12 3 45 -17 35 -24 41 -36 28z"/>
<path d="M3723 1775 c-8 -9 -9 -16 -3 -20 14 -9 12 -27 -2 -22 -7 2 -21 0 -30
-5 -16 -8 -15 -12 15 -42 34 -35 54 -38 37 -6 -7 14 -6 23 5 34 18 18 20 76 3
76 -7 -1 -19 -7 -25 -15z"/>
<path d="M4644 1780 c-12 -5 -25 -13 -29 -19 -3 -6 -19 -11 -35 -11 -31 0 -47
-14 -30 -25 6 -4 18 -1 26 6 19 16 30 4 14 -16 -7 -9 -10 -18 -6 -22 11 -11
56 20 56 39 0 16 5 18 36 12 l36 -7 -23 27 c-12 14 -23 26 -23 25 -1 0 -11 -4
-22 -9z"/>
<path d="M5787 1767 c-9 -14 -12 -29 -7 -36 5 -10 9 -10 15 -2 5 9 10 9 21 0
11 -9 18 -8 32 4 10 9 28 20 42 25 l24 9 -27 5 c-19 4 -27 1 -27 -8 0 -22 -31
-16 -37 6 -3 11 -9 20 -13 20 -4 0 -15 -10 -23 -23z"/>
<path d="M1375 1768 c-11 -6 -24 -17 -28 -25 -4 -7 -21 -13 -36 -13 -23 0 -30
-5 -34 -27 -5 -22 0 -33 21 -50 l27 -23 5 33 c4 24 11 33 28 35 17 3 22 -2 22
-17 0 -12 6 -21 14 -21 24 0 29 20 11 40 -13 14 -14 23 -6 39 13 23 14 41 4
41 -5 0 -17 -6 -28 -12z"/>
<path d="M5395 1764 c-11 -8 -26 -13 -35 -12 -22 5 -49 -27 -43 -51 3 -12 1
-21 -6 -21 -6 0 -11 -9 -11 -19 0 -14 11 -23 38 -31 20 -6 52 -19 71 -27 29
-13 32 -17 18 -25 -20 -11 -23 -38 -4 -38 6 0 21 7 31 15 16 12 17 17 6 30
-12 14 -9 20 16 40 l29 24 -27 1 c-15 0 -33 -6 -40 -13 -14 -15 -32 -12 -57 9
-9 8 -25 20 -36 29 -17 13 -18 16 -5 25 8 5 27 10 42 10 16 0 33 9 42 22 31
43 12 63 -29 32z"/>
<path d="M800 1760 c0 -5 3 -10 8 -10 4 0 15 -14 24 -30 16 -29 38 -40 38 -20
0 10 -55 70 -65 70 -3 0 -5 -4 -5 -10z"/>
<path d="M3791 1747 c-13 -15 -19 -30 -15 -40 9 -26 33 -20 40 9 4 16 12 23
20 20 8 -3 14 1 14 8 0 11 -20 26 -34 26 -1 0 -12 -11 -25 -23z"/>
<path d="M4456 1748 c4 -13 12 -26 18 -30 16 -11 46 -10 46 2 0 6 -9 10 -21
10 -12 0 -23 8 -26 20 -3 11 -10 20 -15 20 -5 0 -6 -10 -2 -22z"/>
<path d="M5497 1750 c12 -10 24 -28 28 -40 3 -11 15 -20 26 -20 24 0 24 12 0
34 -11 10 -17 24 -14 32 4 10 -4 14 -28 14 l-33 0 21 -20z"/>
<path d="M3890 1746 c0 -7 -7 -19 -15 -26 -8 -7 -15 -16 -15 -21 0 -12 37 -11
45 1 3 5 20 7 36 3 27 -5 30 -3 27 13 -3 13 -11 18 -26 17 -14 -2 -22 3 -22
12 0 8 -7 15 -15 15 -8 0 -15 -6 -15 -14z"/>
<path d="M4810 1751 c0 -6 11 -22 23 -37 25 -29 47 -26 47 6 0 20 -27 40 -54
40 -9 0 -16 -4 -16 -9z"/>
<path d="M4990 1746 c0 -9 7 -16 16 -16 17 0 14 22 -4 28 -7 2 -12 -3 -12 -12z"/>
<path d="M6248 1753 c-20 -5 -22 -12 -9 -32 11 -17 41 -7 41 13 0 18 -10 24
-32 19z"/>
<path d="M1077 1743 c-14 -13 -6 -35 24 -64 19 -19 39 -29 52 -27 28 4 25 21
-5 28 -13 3 -25 15 -27 25 -4 22 -20 45 -31 45 -3 0 -10 -3 -13 -7z"/>
<path d="M1440 1725 c0 -27 3 -30 35 -31 27 0 35 3 35 18 0 12 -7 18 -23 18
-13 0 -28 5 -35 12 -9 9 -12 5 -12 -17z"/>
<path d="M3997 1738 c-2 -7 -1 -22 3 -33 7 -18 9 -18 15 -3 6 16 9 16 31 1 23
-14 24 -14 24 5 0 12 8 26 18 31 16 10 16 10 0 11 -9 0 -20 -4 -23 -10 -3 -5
-15 -10 -26 -10 -10 0 -19 5 -19 10 0 14 -17 12 -23 -2z"/>
<path d="M4140 1735 c0 -9 6 -12 15 -9 8 4 12 10 9 15 -8 14 -24 10 -24 -6z"/>
<path d="M4737 1743 c-2 -5 -5 -23 -5 -40 -1 -26 3 -33 18 -33 51 0 69 35 24
46 -16 4 -23 12 -20 20 6 14 -9 20 -17 7z"/>
<path d="M4920 1716 c0 -26 -5 -35 -22 -40 -13 -3 -35 -6 -50 -6 -18 0 -28 -5
-28 -15 0 -18 2 -18 34 -4 34 16 54 -1 48 -39 -5 -36 18 -58 46 -43 29 16 34
39 15 78 -15 33 -15 36 0 45 22 12 22 27 0 44 -30 23 -43 16 -43 -20z m27
-103 c-13 -13 -20 -14 -29 -5 -9 9 -8 15 8 26 26 20 44 2 21 -21z"/>
<path d="M5700 1740 c0 -5 -7 -10 -15 -10 -17 0 -20 -26 -5 -35 8 -5 8 -11 1
-19 -7 -8 -7 -24 -1 -47 6 -18 10 -41 10 -49 -1 -12 -3 -11 -11 3 -5 9 -16 17
-24 17 -20 0 -30 -21 -14 -31 16 -11 133 -5 167 8 23 9 23 10 -14 29 -27 14
-38 16 -41 7 -3 -7 -11 -13 -19 -13 -9 0 -14 9 -12 28 1 15 -2 37 -6 50 -5 16
-3 24 8 28 24 9 20 44 -4 44 -11 0 -20 -4 -20 -10z"/>
<path d="M5972 1738 c-14 -14 -16 -38 -2 -38 6 0 10 -5 10 -11 0 -7 -10 -9
-25 -5 -29 7 -33 -8 -10 -35 13 -13 20 -15 39 -6 18 9 24 20 24 44 0 17 -5 39
-12 48 -9 12 -14 13 -24 3z"/>
<path d="M6320 1725 c0 -16 -6 -25 -15 -25 -20 0 -19 -29 1 -52 14 -14 14 -20
4 -33 -14 -17 -60 -21 -60 -5 0 6 5 19 12 30 16 25 2 38 -19 17 -16 -15 -18
-15 -35 0 -10 9 -20 14 -22 12 -3 -3 22 -33 55 -69 32 -35 59 -67 59 -71 0 -4
-8 -10 -17 -14 -17 -6 -17 -7 1 -21 11 -8 26 -14 33 -14 7 0 22 -9 33 -20 24
-24 40 -26 40 -4 0 23 -39 74 -57 74 -12 0 -13 3 -4 14 6 7 8 21 5 30 -5 12 0
19 15 23 11 3 21 8 21 11 0 2 -8 10 -17 17 -16 12 -16 14 1 40 17 26 17 27 -4
32 -17 4 -20 11 -16 29 4 14 2 24 -4 24 -5 0 -10 -11 -10 -25z"/>
<path d="M2756 1733 c-12 -12 -6 -33 9 -33 8 0 15 6 15 14 0 17 -14 28 -24 19z"/>
<path d="M3404 1729 c-9 -15 12 -33 30 -26 9 4 16 13 16 22 0 17 -35 21 -46 4z"/>
<path d="M5240 1725 c-7 -8 -10 -21 -6 -30 8 -22 36 -6 36 21 0 27 -12 31 -30
9z"/>
<path d="M5442 1713 c-23 -21 -28 -33 -22 -48 7 -19 8 -19 15 -2 4 10 18 23
31 28 14 5 24 17 24 29 0 11 -4 20 -9 20 -6 0 -23 -12 -39 -27z"/>
<path d="M5870 1725 c0 -8 -5 -15 -11 -15 -5 0 -7 -4 -4 -10 8 -12 45 10 45
27 0 7 -7 13 -15 13 -8 0 -15 -7 -15 -15z"/>
<path d="M6180 1725 c0 -16 16 -20 24 -6 3 5 -1 11 -9 15 -9 3 -15 0 -15 -9z"/>
<path d="M1563 1713 c-13 -8 -23 -22 -23 -30 0 -12 9 -13 41 -8 33 6 40 4 37
-6 -5 -14 -51 -18 -78 -6 -8 4 -26 -2 -39 -12 -24 -18 -24 -20 -8 -44 10 -16
13 -28 7 -32 -6 -4 -8 -11 -4 -16 4 -6 11 -6 19 1 8 7 19 9 25 5 6 -4 10 4 10
18 0 14 6 30 14 36 10 9 20 9 39 0 14 -6 33 -9 42 -5 14 5 14 8 0 29 -14 22
-14 26 0 37 22 18 19 43 -4 35 -11 -3 -22 -1 -26 5 -9 14 -26 12 -52 -7z m-23
-104 c0 -5 -4 -9 -10 -9 -5 0 -10 7 -10 16 0 8 5 12 10 9 6 -3 10 -10 10 -16z"/>
<path d="M3220 1714 c0 -8 5 -12 10 -9 6 3 10 10 10 16 0 5 -4 9 -10 9 -5 0
-10 -7 -10 -16z"/>
<path d="M3312 1718 c-21 -21 -13 -38 17 -38 23 0 30 -5 36 -27 3 -16 14 -43
22 -61 15 -31 14 -34 -3 -47 -16 -11 -17 -16 -6 -27 10 -10 14 -9 18 9 4 14
15 23 32 25 16 2 28 10 30 20 2 13 -4 16 -28 16 -16 -1 -33 2 -36 5 -4 3 -4
17 0 31 5 22 10 24 44 19 22 -3 45 -15 57 -29 23 -27 55 -32 55 -9 0 8 -11 17
-24 21 -13 3 -34 16 -46 29 -17 18 -29 23 -51 18 -21 -4 -30 -1 -35 11 -3 9
-13 16 -20 16 -8 0 -17 7 -20 15 -7 18 -26 19 -42 3z"/>
<path d="M5596 1704 c-4 -15 -5 -29 -2 -31 7 -8 55 31 56 45 0 6 -11 12 -24
12 -17 0 -26 -7 -30 -26z"/>
<path d="M1202 1708 c-17 -17 -15 -73 4 -89 13 -10 17 -10 24 2 5 8 8 28 6 44
-2 17 -4 36 -5 43 -1 15 -13 16 -29 0z"/>
<path d="M2345 1693 c3 -15 13 -32 21 -37 8 -7 11 -20 8 -33 -8 -28 -34 -39
-34 -13 0 30 -21 35 -42 11 -10 -13 -16 -27 -13 -31 7 -11 85 -11 85 1 0 12
47 12 55 -1 3 -5 14 -10 23 -10 12 1 6 11 -21 34 -27 24 -34 35 -24 39 8 3 15
17 15 32 0 21 -4 26 -19 22 -11 -3 -22 -1 -25 4 -3 5 -12 9 -21 9 -11 0 -14
-6 -8 -27z"/>
<path d="M4100 1700 c0 -13 7 -20 20 -20 23 0 26 10 8 28 -18 18 -28 15 -28
-8z"/>
<path d="M2818 1699 c-25 -14 -22 -29 5 -29 29 0 37 7 30 26 -6 16 -12 17 -35
3z"/>
<path d="M2597 1694 c-3 -4 -2 -15 4 -25 13 -25 49 -25 49 0 0 24 -37 41 -53
25z"/>
<path d="M5750 1692 c0 -5 7 -16 16 -23 14 -12 16 -11 13 5 -4 20 -29 35 -29
18z"/>
<path d="M2683 1680 c22 -14 22 -36 0 -48 -16 -9 -16 -12 1 -37 11 -16 15 -36
12 -50 -8 -30 10 -42 32 -21 12 10 22 12 32 6 27 -17 32 -11 25 30 -8 46 1 50
46 23 27 -16 27 -18 12 -35 -11 -13 -13 -22 -6 -29 10 -10 16 -6 51 35 10 13
9 19 -6 34 -10 10 -26 21 -35 25 -10 4 -14 12 -11 22 9 21 -8 19 -29 -5 -9
-11 -23 -20 -32 -20 -8 0 -19 -9 -25 -20 -14 -26 -33 -26 -25 0 3 10 1 28 -5
40 -9 17 -8 20 9 20 21 0 37 15 24 23 -5 3 -26 8 -48 12 -31 5 -36 4 -22 -5z"/>
<path d="M6105 1655 c-17 -43 -19 -65 -5 -65 22 0 8 -22 -25 -42 -35 -20 -36
-21 -15 -35 12 -8 20 -22 19 -31 -3 -34 2 -42 25 -42 14 0 37 5 53 11 l28 12
-25 6 c-21 6 -24 12 -22 38 2 18 -3 37 -12 46 -13 13 -13 17 -2 26 19 16 25
89 9 102 -9 8 -16 1 -28 -26z"/>
<path d="M827 1652 c-21 -22 -24 -31 -15 -40 21 -21 35 -13 41 25 4 20 5 38 3
40 -1 1 -14 -10 -29 -25z"/>
<path d="M1054 1615 c1 -64 15 -83 26 -34 5 20 7 21 13 7 3 -10 13 -18 22 -18
8 0 15 -4 15 -10 0 -5 5 -10 10 -10 6 0 10 9 10 19 0 11 5 23 10 26 6 3 10 14
10 23 -1 16 -1 16 -11 0 -5 -10 -17 -18 -25 -18 -8 0 -12 5 -9 10 7 11 -18 40
-34 40 -6 0 -11 7 -11 15 0 8 -6 15 -13 15 -10 0 -13 -17 -13 -65z"/>
<path d="M3080 1670 c0 -5 6 -10 14 -10 21 0 38 -27 31 -50 -5 -15 -15 -20
-41 -20 -19 0 -34 -4 -34 -10 0 -5 -9 -10 -20 -10 -25 0 -25 -9 -2 -26 14 -11
22 -9 50 13 18 14 34 23 35 22 1 -2 8 -15 16 -29 10 -17 10 -25 2 -28 -16 -5
-14 -42 3 -42 21 0 69 -47 62 -59 -4 -6 -20 -8 -35 -5 -16 4 -32 1 -35 -5 -4
-6 -16 -11 -26 -11 -13 0 -18 5 -13 16 4 12 0 14 -22 12 -39 -4 -43 19 -6 39
17 10 31 26 31 36 0 21 -26 22 -38 1 -8 -15 -11 -14 -29 5 -16 18 -22 19 -31
8 -8 -10 -7 -20 3 -41 8 -16 15 -30 15 -31 0 -1 -16 -10 -36 -20 -25 -12 -33
-20 -26 -27 8 -8 20 -7 42 2 17 7 33 10 37 7 3 -3 -4 -25 -15 -47 -16 -33 -17
-42 -7 -47 19 -7 35 5 35 24 0 9 6 13 14 10 8 -3 17 1 20 9 9 24 46 17 56 -11
5 -14 14 -25 20 -25 17 0 23 29 9 46 -10 13 -10 17 2 25 21 13 27 11 34 -10
10 -33 29 -42 58 -28 31 14 37 31 8 22 -11 -3 -26 1 -35 11 -15 15 -15 18 -1
33 21 24 19 39 -7 43 -16 2 -24 11 -26 29 -2 14 -19 41 -39 59 -25 24 -31 35
-22 39 8 2 16 7 19 10 7 9 58 41 65 41 14 0 3 -30 -16 -43 -14 -10 -17 -17 -9
-22 18 -11 41 27 35 60 -8 42 -19 49 -54 37 -19 -7 -33 -7 -36 -1 -8 12 -55
12 -55 -1z"/>
<path d="M4394 1665 c-15 -11 -17 -16 -6 -26 17 -18 15 -32 -9 -58 -15 -16
-18 -26 -10 -34 7 -7 16 -3 31 15 13 17 26 24 39 21 16 -4 19 -1 14 15 -3 14
4 27 27 43 27 20 29 24 13 30 -11 4 -26 0 -36 -10 -17 -14 -20 -14 -31 1 -11
15 -15 16 -32 3z"/>
<path d="M4610 1655 c0 -18 -7 -26 -24 -31 -14 -3 -29 -4 -33 -1 -16 10 -35
-11 -35 -38 0 -16 10 -38 25 -53 23 -22 27 -24 33 -9 4 11 -4 24 -22 40 -18
16 -24 26 -16 31 7 4 15 0 18 -8 9 -23 51 -20 57 4 6 24 29 26 47 5 7 -8 16
-15 21 -15 16 0 10 30 -7 37 -12 4 -14 14 -10 34 5 27 3 29 -24 29 -25 0 -30
-4 -30 -25z"/>
<path d="M3275 1658 c-4 -10 -2 -31 3 -48 11 -29 10 -30 -16 -24 -21 4 -24 3
-12 -5 13 -10 13 -13 -4 -26 -19 -14 -14 -35 8 -35 13 0 42 31 64 68 15 28 15
32 -2 32 -8 0 -19 12 -24 28 -8 23 -11 24 -17 10z"/>
<path d="M3926 1633 c-17 -35 -19 -36 -31 -19 -14 18 -26 18 -67 1 -13 -5 -18
-2 -18 11 0 14 -3 15 -12 6 -10 -10 -10 -17 -1 -31 9 -14 9 -21 0 -30 -6 -6
-16 -11 -23 -11 -11 0 -24 -21 -24 -41 0 -5 9 -9 20 -9 22 0 70 44 70 64 0 23
29 27 40 6 13 -24 52 -28 44 -5 -4 10 3 18 20 25 20 7 26 16 26 40 0 42 -22
38 -44 -7z"/>
<path d="M3996 1648 c-3 -13 -6 -33 -6 -45 0 -19 6 -23 30 -23 32 0 40 14 15
24 -9 3 -15 18 -15 36 0 35 -15 40 -24 8z"/>
<path d="M4070 1655 c-7 -9 -9 -22 -5 -32 9 -20 11 -30 13 -56 1 -12 6 -15 15
-10 6 4 32 13 57 19 36 9 40 12 17 13 -42 2 -67 19 -67 46 0 30 -14 39 -30 20z"/>
<path d="M5008 1659 c-10 -5 -18 -21 -18 -33 0 -28 44 -61 68 -51 16 6 16 7 0
19 -11 8 -18 26 -18 45 0 33 -5 36 -32 20z"/>
<path d="M5837 1663 c-10 -3 -16 -10 -14 -16 6 -19 41 -14 45 6 4 17 1 18 -31
10z"/>
<path d="M4175 1648 c-9 -22 4 -43 17 -30 7 7 7 16 0 29 -10 17 -11 17 -17 1z"/>
<path d="M5516 1652 c-3 -6 -1 -14 5 -17 15 -10 25 3 12 16 -7 7 -13 7 -17 1z"/>
<path d="M596 1634 c-10 -25 -7 -34 9 -34 8 0 15 4 15 9 0 5 3 16 6 25 4 10 1
16 -9 16 -8 0 -18 -7 -21 -16z"/>
<path d="M1710 1633 c0 -15 -2 -16 -10 -3 -7 11 -12 12 -21 3 -9 -9 -6 -18 9
-41 l21 -29 -51 5 c-45 4 -50 3 -45 -12 4 -10 7 -19 7 -20 0 -2 11 -1 25 2 14
2 25 0 25 -6 0 -15 -31 -24 -45 -12 -7 6 -23 6 -43 1 -17 -5 -40 -7 -50 -4
-10 2 -25 -3 -32 -12 -12 -14 -12 -18 1 -26 22 -14 39 -11 39 7 0 12 5 15 23
9 12 -4 46 -10 75 -14 50 -7 71 -21 72 -47 0 -6 6 -17 14 -23 10 -9 17 -7 27
6 11 13 12 17 1 21 -18 6 -52 43 -52 57 0 6 14 26 32 44 24 24 29 34 19 40
-10 6 -10 14 -3 28 8 14 8 23 0 31 -18 18 -38 14 -38 -5z"/>
<path d="M2059 1615 c11 -20 19 -40 16 -45 -3 -5 3 -14 14 -19 15 -9 20 -7 25
11 7 31 -24 82 -54 86 l-23 4 22 -37z"/>
<path d="M4256 1632 c-4 -12 -14 -22 -22 -22 -8 0 -14 -7 -14 -15 0 -10 10
-15 28 -15 15 0 33 -4 40 -8 14 -9 6 -42 -10 -42 -5 0 -24 10 -41 22 -21 15
-32 18 -35 10 -2 -7 -12 -12 -23 -12 -10 0 -19 -2 -19 -5 0 -14 28 -63 45 -77
15 -12 20 -29 20 -62 0 -38 -3 -46 -18 -46 -15 0 -17 5 -12 30 4 19 3 30 -4
30 -6 0 -11 -8 -11 -18 0 -26 -66 -100 -93 -104 -12 -2 -26 -13 -32 -26 -5
-12 -22 -28 -38 -35 -15 -6 -25 -18 -22 -24 2 -7 -6 -15 -20 -19 -18 -4 -25
-13 -25 -30 0 -31 -26 -21 -35 13 -4 19 -2 29 10 35 8 5 23 17 33 27 9 10 25
21 35 24 28 10 8 29 -25 25 -16 -3 -31 -1 -34 4 -3 5 1 17 10 27 9 10 16 23
16 29 0 6 9 14 20 17 22 7 26 20 10 30 -6 3 -7 17 -4 31 5 20 2 24 -14 24 -12
0 -24 5 -27 10 -3 6 -10 10 -16 10 -12 0 -12 -37 1 -45 6 -3 10 -13 10 -22 0
-11 -6 -14 -21 -10 -29 8 -69 -9 -69 -29 0 -10 5 -14 15 -10 8 3 22 9 30 12 8
3 15 2 15 -2 1 -5 5 -29 9 -53 8 -38 5 -54 -15 -100 -14 -31 -29 -64 -34 -73
-6 -11 -6 -19 0 -23 6 -3 10 -14 10 -23 0 -9 11 -22 25 -29 22 -10 25 -9 25 8
0 10 -9 28 -20 39 -12 12 -18 25 -15 31 4 5 28 -11 53 -36 26 -25 53 -45 60
-45 6 0 12 9 12 20 0 11 -4 20 -10 20 -5 0 -10 6 -10 14 0 8 -8 17 -17 20 -10
4 -13 10 -8 14 6 4 17 20 25 37 9 16 25 32 35 34 11 2 24 9 28 17 4 8 13 14
19 14 9 0 9 -3 0 -12 -15 -15 -16 -58 -1 -58 6 0 13 9 16 21 3 11 11 18 19 15
7 -3 16 -1 19 4 4 6 1 10 -4 10 -17 0 -13 37 5 44 25 10 31 7 37 -14 3 -14 14
-20 32 -20 23 0 26 -3 22 -22 -4 -14 1 -32 13 -45 10 -13 23 -23 29 -23 21 0
21 22 0 60 l-22 39 24 20 c17 14 32 19 52 15 19 -4 29 -1 33 10 10 26 24 18
24 -13 0 -17 5 -33 10 -36 6 -3 7 -17 4 -31 -8 -29 10 -32 45 -5 27 20 20 45
-9 36 -22 -7 -37 12 -21 28 15 15 14 27 -4 27 -8 0 -15 7 -15 15 0 8 -6 15
-13 15 -19 0 -49 40 -43 57 6 14 9 13 28 -3 15 -14 22 -16 25 -6 6 17 43 15
43 -3 0 -8 4 -15 9 -15 15 0 25 21 14 29 -5 3 -12 14 -16 24 -3 9 -16 17 -27
17 -15 0 -20 7 -20 26 0 19 -4 25 -17 22 -11 -2 -19 -13 -20 -28 0 -14 -1 -28
-2 -32 -1 -5 -11 2 -23 14 -20 20 -22 20 -35 3 -19 -27 -16 -45 7 -45 13 0 20
-7 20 -19 0 -11 3 -26 6 -35 5 -12 0 -16 -20 -16 -14 0 -26 -4 -26 -10 0 -5
-6 -10 -14 -10 -8 0 -23 -12 -34 -27 l-19 -27 -12 22 c-6 12 -18 22 -26 22 -8
0 -15 2 -15 4 0 2 6 15 13 30 8 14 17 23 20 20 8 -8 77 24 77 36 0 5 -4 12
-10 15 -18 11 -11 41 15 65 14 13 25 31 25 41 0 9 6 22 14 28 11 9 16 9 23 -2
4 -7 19 -21 32 -30 18 -12 29 -13 43 -6 25 14 13 29 -23 29 -19 0 -29 5 -29
15 0 8 -4 15 -9 15 -5 0 -6 20 -3 45 4 36 2 45 -11 45 -9 0 -21 -8 -26 -17
-10 -17 -12 -16 -30 6 l-19 24 -6 -21z m-6 -147 c0 -2 -11 2 -25 8 -14 7 -25
21 -25 31 0 16 3 15 25 -8 14 -15 25 -29 25 -31z"/>
<path d="M5082 1628 c2 -15 11 -24 26 -26 18 -3 22 1 22 22 0 21 -5 26 -26 26
-21 0 -25 -4 -22 -22z"/>
<path d="M5600 1646 c0 -2 7 -9 15 -16 12 -10 15 -10 15 4 0 9 -7 16 -15 16
-8 0 -15 -2 -15 -4z"/>
<path d="M6039 1638 c-1 -7 -1 -17 0 -22 1 -4 -4 -14 -10 -22 -9 -11 -8 -14 4
-14 22 0 37 23 30 48 -6 24 -22 30 -24 10z"/>
<path d="M6619 1638 c-1 -7 -1 -18 0 -25 1 -6 -8 -14 -19 -18 -28 -9 -26 -29
3 -21 12 3 28 6 35 6 7 0 12 14 12 35 0 24 -5 35 -15 35 -8 0 -16 -6 -16 -12z"/>
<path d="M6396 1614 c-10 -14 -15 -35 -13 -47 l4 -22 8 23 c5 16 12 21 24 17
9 -4 29 -11 44 -15 21 -7 29 -5 34 6 9 24 -5 44 -31 44 -14 0 -28 5 -31 10
-10 16 -22 12 -39 -16z"/>
<path d="M6530 1620 c-9 -16 -8 -20 5 -20 8 0 15 9 15 20 0 11 -2 20 -5 20 -2
0 -9 -9 -15 -20z"/>
<path d="M1263 1615 c-7 -19 -5 -20 25 -30 23 -7 23 -7 7 19 -10 14 -19 26
-21 26 -3 0 -7 -7 -11 -15z"/>
<path d="M1347 1604 c-10 -14 -16 -32 -13 -41 5 -12 9 -13 22 -3 19 16 38 1
32 -26 -5 -23 -38 -22 -85 3 -36 19 -49 14 -34 -14 5 -10 12 -30 16 -45 6 -32
31 -37 40 -9 6 21 45 35 59 21 12 -12 -11 -83 -36 -115 -21 -27 -23 -45 -5
-45 20 0 47 33 47 58 0 30 34 38 58 14 14 -14 17 -23 10 -30 -15 -15 -1 -32
25 -32 19 0 22 6 24 40 1 38 -1 40 -25 38 -24 -3 -27 1 -30 32 -2 19 -10 42
-18 51 -7 8 -17 30 -20 47 -6 28 -3 33 20 42 14 5 26 14 26 20 0 13 -13 13
-28 -2 -9 -9 -16 -8 -30 5 -10 9 -23 17 -28 17 -5 0 -17 -12 -27 -26z"/>
<path d="M5148 1608 c-5 -33 13 -88 28 -88 17 0 48 46 40 59 -4 5 -2 12 4 16
5 3 10 13 10 21 0 10 -12 14 -39 14 -33 0 -40 -4 -43 -22z"/>
<path d="M5890 1610 c-9 -17 -6 -27 20 -60 30 -38 31 -38 60 -24 30 15 31 23
8 71 -6 12 -16 19 -23 17 -7 -3 -16 -1 -20 5 -10 18 -33 13 -45 -9z m80 -45
c0 -8 -6 -15 -14 -15 -17 0 -28 14 -19 24 12 12 33 6 33 -9z"/>
<path d="M5255 1610 c-3 -5 -1 -10 6 -10 6 0 18 -8 25 -17 10 -15 15 -16 26
-5 10 10 9 14 -10 18 -12 4 -22 10 -22 15 0 12 -17 11 -25 -1z"/>
<path d="M6160 1610 c0 -5 9 -14 21 -20 19 -11 20 -10 9 9 -11 22 -30 29 -30
11z"/>
<path d="M2587 1603 c-17 -16 -5 -33 23 -33 32 0 37 9 18 28 -13 13 -31 16
-41 5z"/>
<path d="M2927 1589 c-14 -16 -16 -24 -6 -35 9 -12 9 -20 -1 -39 -10 -18 -25
-26 -57 -31 -38 -5 -44 -10 -41 -28 2 -15 11 -22 31 -24 29 -4 28 -22 -1 -22
-9 -1 -30 -11 -45 -24 -22 -17 -28 -30 -25 -52 4 -37 33 -40 33 -4 0 28 19 39
21 12 1 -9 4 -24 8 -33 4 -8 8 -29 9 -45 2 -25 -2 -29 -28 -32 -34 -4 -57 -20
-49 -33 3 -5 14 -9 24 -9 10 0 23 -7 28 -16 12 -21 26 -12 46 28 22 42 20 80
-5 133 -21 46 -19 65 8 65 12 0 14 8 11 35 -4 32 -2 36 16 33 22 -3 56 30 56
55 0 8 -7 20 -15 27 -11 9 -12 16 -4 26 6 7 9 18 7 24 -2 6 -11 1 -21 -11z"/>
<path d="M4716 1594 c-11 -29 -6 -45 21 -70 27 -25 27 -25 5 -31 -14 -3 -22
-13 -22 -27 1 -20 1 -20 14 -3 11 15 19 16 34 8 14 -7 24 -7 37 3 15 11 16 14
3 19 -13 4 -14 11 -4 41 7 23 17 36 28 36 30 0 29 18 -2 28 -27 10 -29 9 -27
-11 3 -32 -31 -35 -43 -3 -11 29 -35 34 -44 10z"/>
<path d="M5557 1602 c-19 -2 -31 -12 -38 -29 -6 -16 -14 -23 -24 -19 -9 3 -15
0 -15 -8 0 -8 -16 -23 -36 -35 -20 -12 -32 -26 -28 -32 4 -8 9 -8 17 0 6 6 19
11 28 11 10 0 20 11 23 26 7 28 29 28 35 -1 2 -10 -7 -26 -19 -35 l-23 -17 32
-11 c27 -10 31 -15 26 -33 -5 -16 -3 -20 6 -17 8 3 13 16 11 28 -1 13 5 31 14
41 14 16 14 18 -5 29 -27 14 -29 66 -3 72 9 3 23 3 30 0 10 -3 10 -9 -2 -27
-9 -14 -12 -26 -6 -30 5 -3 23 3 41 14 27 17 30 21 16 27 -9 3 -17 11 -17 18
0 17 -32 32 -63 28z"/>
<path d="M395 1590 c-17 -7 -17 -9 -2 -9 9 -1 20 -1 24 -2 4 0 9 4 11 10 4 13
-5 13 -33 1z"/>
<path d="M880 1590 l-25 -8 28 -1 c15 -1 30 -7 33 -15 3 -8 19 -19 35 -25 17
-6 29 -17 29 -28 0 -11 7 -5 18 17 17 33 17 36 2 53 -15 16 -20 17 -38 6 -17
-11 -24 -11 -34 -1 -13 13 -13 13 -48 2z"/>
<path d="M3592 1575 c-7 -14 -12 -28 -12 -30 0 -3 8 -5 19 -5 10 0 24 -7 31
-15 14 -17 40 -20 40 -4 0 11 -52 79 -61 79 -3 0 -11 -11 -17 -25z"/>
<path d="M505 1580 c3 -6 17 -7 31 -4 18 5 24 2 24 -10 0 -18 16 -21 26 -5 3
6 0 15 -7 20 -20 12 -82 11 -74 -1z"/>
<path d="M1184 1567 c-3 -8 -6 -34 -7 -58 -2 -42 0 -44 27 -47 25 -3 28 -1 23
18 -3 12 -1 31 6 41 9 14 7 22 -7 38 -22 24 -35 26 -42 8z"/>
<path d="M1440 1553 c0 -25 4 -31 15 -27 19 8 19 15 0 40 -14 18 -14 17 -15
-13z"/>
<path d="M610 1560 c0 -5 4 -10 9 -10 6 0 13 5 16 10 3 6 -1 10 -9 10 -9 0
-16 -4 -16 -10z"/>
<path d="M2538 1553 c-8 -10 -18 -26 -21 -35 -4 -10 -15 -18 -26 -18 -24 0
-45 -35 -35 -58 4 -9 6 -23 5 -30 -1 -7 12 -15 29 -18 36 -8 40 -24 5 -24 -15
0 -28 -7 -32 -17 -4 -10 -13 -23 -21 -29 -11 -8 -13 -19 -8 -40 10 -36 24 -54
45 -54 22 0 43 37 35 62 -5 16 -8 18 -15 7 -8 -12 -12 -11 -24 5 -18 24 -9 39
19 32 15 -4 30 2 44 15 12 11 22 23 22 28 0 11 -31 36 -53 44 -12 5 -17 15
-15 29 2 17 10 23 28 23 16 0 25 6 25 15 0 8 8 22 18 30 12 10 16 22 12 33 -9
22 -18 22 -37 0z"/>
<path d="M4860 1545 c0 -15 7 -28 18 -32 14 -6 13 -8 -7 -13 -31 -7 -40 -30
-12 -30 26 0 27 -11 1 -33 -11 -9 -20 -21 -20 -27 0 -12 27 -13 34 -1 10 16
46 0 67 -31 20 -27 22 -28 35 -11 7 10 14 33 14 51 0 30 -1 32 -16 18 -8 -9
-19 -16 -24 -16 -5 0 -21 11 -36 25 -21 20 -25 28 -16 37 9 9 15 9 24 0 7 -7
34 -12 60 -12 45 0 48 -2 48 -25 0 -20 5 -25 25 -25 14 0 25 -4 25 -10 0 -5 7
-10 15 -10 25 0 17 20 -20 54 -26 24 -35 41 -35 64 0 32 0 32 -25 16 -14 -9
-25 -23 -25 -31 0 -8 -3 -13 -7 -11 -49 24 -62 34 -72 54 -6 14 -19 24 -31 24
-15 0 -20 -7 -20 -25z"/>
<path d="M440 1540 c-14 -11 -30 -24 -36 -29 -6 -5 -14 -32 -18 -60 -5 -37 -2
-59 9 -81 21 -40 58 -64 90 -56 31 8 55 61 55 123 0 35 -7 52 -32 83 -18 22
-35 40 -38 39 -3 0 -16 -9 -30 -19z m44 -113 c-3 -34 -7 -68 -10 -76 -9 -26
-32 9 -39 58 -5 37 -2 57 10 82 16 30 19 31 30 15 9 -11 12 -38 9 -79z"/>
<path d="M2294 1547 c-8 -22 3 -37 27 -37 24 0 24 12 -1 35 -17 16 -20 16 -26
2z"/>
<path d="M3470 1531 c0 -17 4 -32 9 -35 4 -3 6 -18 3 -33 -5 -28 -5 -28 17 -9
20 19 22 19 42 1 20 -19 20 -19 0 -35 -19 -15 -19 -15 2 -68 21 -51 23 -53 54
-49 29 5 32 3 37 -29 8 -42 38 -48 34 -7 -4 37 24 42 40 8 15 -33 15 -35 -3
-35 -8 0 -15 -7 -15 -16 0 -10 7 -14 22 -12 18 2 23 10 25 41 1 26 -3 40 -12
44 -8 3 -13 9 -10 13 7 11 55 9 55 -1 0 -5 11 -14 25 -19 14 -5 25 -14 25 -20
0 -18 15 -10 27 15 11 24 1 46 -12 25 -11 -18 -21 -11 -20 15 1 14 7 31 13 37
31 31 -1 37 -51 11 -18 -9 -37 -22 -42 -30 -7 -10 -20 -12 -38 -8 -15 4 -27
12 -27 18 0 7 -4 7 -12 -1 -7 -7 -22 -12 -35 -12 -16 0 -30 11 -43 33 -11 17
-20 35 -20 40 0 11 38 9 118 -8 65 -14 75 -14 88 0 9 8 22 15 30 15 9 0 14 11
14 35 0 19 -4 35 -8 35 -16 0 -42 -37 -42 -59 0 -41 -25 -16 -30 30 -4 36 -9
45 -27 47 -17 3 -23 -2 -23 -16 0 -11 7 -25 15 -32 18 -15 20 -53 3 -48 -7 3
-22 23 -33 46 -14 28 -24 39 -31 32 -7 -7 -26 -7 -60 0 -42 9 -52 16 -61 40
-15 40 -43 40 -43 1z m126 -87 c-5 -13 -10 -14 -18 -6 -6 6 -8 18 -4 28 5 13
10 14 18 6 6 -6 8 -18 4 -28z"/>
<path d="M5813 1553 c-20 -8 -15 -30 8 -36 29 -8 49 2 49 24 0 13 -7 19 -22
18 -13 0 -29 -3 -35 -6z"/>
<path d="M648 1539 c-10 -5 -18 -17 -18 -24 0 -8 -4 -15 -10 -15 -5 0 -10 7
-10 15 0 14 -3 13 -25 -1 -14 -9 -25 -20 -25 -24 0 -4 14 -10 31 -14 23 -4 38
-1 56 14 14 11 32 20 40 20 7 0 17 -10 22 -22 7 -19 4 -25 -20 -35 -16 -7 -29
-17 -29 -22 0 -6 11 -13 25 -17 21 -5 25 -12 25 -44 l0 -38 -35 8 c-36 8 -38
7 -48 -22 -5 -14 0 -17 26 -15 43 4 74 26 96 70 18 35 18 36 -2 56 -19 18 -19
23 -7 46 12 23 11 27 -10 50 -25 26 -53 31 -82 14z"/>
<path d="M850 1535 c0 -8 -7 -15 -15 -15 -19 0 -20 -26 -1 -37 24 -15 36 -51
32 -100 -5 -58 -22 -92 -61 -126 -25 -21 -28 -29 -19 -44 6 -10 18 -18 27 -18
9 0 22 -6 29 -13 11 -11 10 -16 -5 -26 -16 -13 -16 -14 7 -29 23 -16 24 -15
29 16 6 44 -8 67 -43 67 -16 0 -31 4 -35 9 -8 14 24 29 47 23 14 -3 17 0 12
12 -4 11 0 16 14 16 12 0 24 -4 27 -10 9 -15 32 -12 39 5 4 11 -3 19 -20 25
-21 8 -23 13 -14 29 5 11 10 40 10 64 0 26 6 49 14 56 11 10 17 7 30 -10 8
-12 12 -27 8 -33 -3 -6 -7 -26 -7 -43 0 -26 4 -33 20 -34 11 -1 38 -2 60 -3
l40 -1 3 64 c2 49 -1 68 -15 83 -11 13 -24 17 -38 13 -24 -8 -108 -7 -147 1
-19 4 -28 12 -28 25 0 12 7 19 19 19 11 0 23 -4 26 -10 8 -14 25 -13 25 1 0
16 -31 38 -52 39 -10 0 -18 -7 -18 -15z m174 -101 c28 -27 16 -104 -16 -104
-4 0 -8 27 -8 60 0 33 2 60 4 60 3 0 12 -7 20 -16z"/>
<path d="M2036 1541 c-4 -7 -5 -15 -2 -18 9 -9 19 4 14 18 -4 11 -6 11 -12 0z"/>
<path d="M2137 1530 c-3 -13 -10 -18 -21 -14 -18 7 -20 -3 -7 -25 8 -12 15
-12 45 3 20 9 36 19 36 21 0 7 -31 35 -40 35 -4 0 -10 -9 -13 -20z"/>
<path d="M2200 1542 c0 -5 6 -16 13 -26 12 -16 14 -16 26 -2 7 8 10 20 6 26
-7 12 -45 14 -45 2z"/>
<path d="M2422 1533 c4 -22 38 -30 49 -11 15 22 10 28 -22 28 -24 0 -30 -4
-27 -17z"/>
<path d="M2590 1538 c0 -18 74 -78 84 -68 5 5 -7 24 -26 44 -36 37 -58 46 -58
24z"/>
<path d="M3952 1527 c-16 -17 -20 -27 -12 -32 6 -4 18 1 26 11 13 18 15 18 25
2 5 -10 16 -18 23 -18 17 0 50 36 39 43 -4 3 -24 8 -43 12 -29 5 -39 2 -58
-18z"/>
<path d="M4600 1535 c0 -8 4 -15 10 -15 5 0 7 7 4 15 -4 8 -8 15 -10 15 -2 0
-4 -7 -4 -15z"/>
<path d="M5341 1519 c-6 -18 -11 -40 -11 -50 0 -11 -4 -19 -10 -19 -5 0 -10
16 -10 35 0 19 -4 35 -8 35 -5 0 -17 -9 -27 -20 -18 -20 -18 -21 3 -27 25 -6
27 -15 10 -43 -18 -28 1 -39 22 -12 10 12 21 22 25 22 4 0 19 -12 32 -26 19
-21 31 -25 56 -22 42 7 57 1 57 -22 0 -10 5 -22 11 -26 14 -8 29 14 29 44 0
15 -6 22 -19 22 -10 0 -22 7 -25 16 -3 9 -16 15 -28 13 -27 -2 -88 11 -88 19
0 3 7 14 17 24 14 16 14 22 3 43 -7 14 -17 25 -21 25 -4 0 -12 -14 -18 -31z"/>
<path d="M4472 1528 c-19 -10 -22 -17 -16 -42 9 -43 12 -46 39 -46 23 0 24 2
12 27 -9 19 -9 27 0 30 11 4 6 44 -6 42 -3 0 -16 -5 -29 -11z"/>
<path d="M3283 1499 c-18 -16 -33 -34 -33 -38 0 -4 11 -14 25 -21 19 -10 22
-16 14 -27 -9 -10 -8 -13 5 -13 9 0 16 6 16 14 0 26 22 30 39 7 l16 -21 19 30
c12 21 23 29 34 25 17 -6 32 10 32 37 0 15 -4 15 -31 6 -17 -6 -34 -21 -39
-34 -11 -28 -22 -30 -40 -9 -10 12 -10 22 -2 39 6 13 8 27 5 30 -12 12 -29 5
-60 -25z"/>
<path d="M4664 1514 c3 -9 6 -18 6 -20 0 -7 36 -5 43 3 8 8 -23 32 -42 33 -8
0 -11 -6 -7 -16z"/>
<path d="M5077 1515 c-8 -18 11 -31 25 -17 11 11 3 32 -12 32 -4 0 -10 -7 -13
-15z"/>
<path d="M6202 1518 c-19 -19 -14 -31 9 -25 15 4 23 0 26 -14 3 -10 9 -19 14
-19 16 0 9 42 -8 56 -22 17 -26 17 -41 2z"/>
<path d="M5672 1504 c-15 -10 -32 -13 -52 -9 -23 5 -30 3 -30 -9 0 -8 3 -17 8
-19 4 -2 35 -1 69 2 34 4 66 5 72 3 6 -2 11 -11 11 -21 0 -9 13 -27 28 -38 25
-18 31 -19 54 -7 15 8 29 23 33 34 3 11 15 20 25 20 24 0 36 20 19 31 -22 14
-29 11 -39 -17 -9 -22 -15 -25 -40 -22 -17 3 -30 1 -30 -4 0 -4 -7 -8 -16 -8
-9 0 -14 6 -11 13 22 53 23 50 -17 43 -28 -5 -38 -3 -42 9 -8 19 -14 19 -42
-1z"/>
<path d="M6560 1505 c0 -8 5 -15 10 -15 6 0 10 7 10 15 0 8 -4 15 -10 15 -5 0
-10 -7 -10 -15z"/>
<path d="M3890 1500 c0 -5 4 -10 9 -10 6 0 13 5 16 10 3 6 -1 10 -9 10 -9 0
-16 -4 -16 -10z"/>
<path d="M1940 1491 c0 -5 7 -11 15 -15 8 -3 15 -1 15 3 0 5 -7 11 -15 15 -8
3 -15 1 -15 -3z"/>
<path d="M2345 1492 c-2 -2 -1 -10 2 -18 3 -8 0 -21 -7 -29 -17 -21 -5 -31 23
-18 12 6 30 14 40 17 9 3 17 14 17 25 0 14 -9 20 -35 23 -20 2 -37 2 -40 0z"/>
<path d="M4057 1494 c-8 -8 15 -44 29 -44 6 0 17 7 25 16 10 13 10 17 -2 25
-16 10 -43 12 -52 3z"/>
<path d="M4547 1470 c-21 -34 -15 -70 15 -97 21 -18 21 -18 16 10 -5 26 -3 28
16 22 29 -9 46 -8 78 4 l27 10 -17 33 c-9 18 -18 34 -18 36 -1 2 -24 5 -51 8
-45 4 -50 2 -66 -26z m88 0 c11 -17 -3 -42 -17 -33 -7 4 -23 6 -35 4 -15 -1
-23 3 -23 13 0 13 16 20 57 25 6 0 15 -4 18 -9z"/>
<path d="M5167 1434 c2 -37 -1 -64 -7 -64 -13 0 -13 -37 -1 -45 6 -3 18 12 27
32 10 21 27 46 38 55 17 14 19 19 9 29 -7 7 -13 22 -13 32 0 14 -5 17 -16 13
-9 -4 -22 -2 -28 3 -9 7 -11 -7 -9 -55z"/>
<path d="M2193 1475 c-8 -22 6 -33 17 -15 13 20 12 30 0 30 -6 0 -13 -7 -17
-15z"/>
<path d="M2260 1465 l-23 -25 31 0 c18 0 32 -4 32 -10 0 -5 5 -10 11 -10 8 0
8 4 -1 15 -6 8 -9 23 -5 35 9 29 -16 26 -45 -5z"/>
<path d="M2589 1462 c-8 -18 -17 -32 -21 -32 -5 0 -8 -5 -8 -11 0 -8 4 -8 13
0 10 7 17 7 24 0 6 -6 16 -8 22 -5 15 10 14 38 -2 61 -13 17 -15 16 -28 -13z"/>
<path d="M2697 1468 c-4 -12 -2 -27 4 -34 7 -8 6 -14 -1 -19 -8 -5 -8 -10 0
-20 9 -11 6 -14 -12 -17 -30 -4 -37 -38 -8 -45 13 -4 19 -11 16 -20 -3 -8 -6
-16 -6 -17 0 -1 -14 -1 -31 2 -17 2 -33 11 -36 18 -6 17 -30 18 -36 2 -3 -8
-6 -6 -6 5 -1 9 -5 17 -10 17 -13 0 -22 -59 -12 -77 4 -9 6 -25 4 -37 -4 -18
-1 -16 19 8 17 20 27 25 32 18 11 -18 23 -14 29 8 5 19 27 29 27 13 1 -19 18
-33 33 -27 12 4 17 18 17 45 0 26 5 42 15 45 9 4 15 19 15 39 0 20 6 35 15 39
8 3 15 15 15 26 0 24 -9 26 -25 3 -18 -24 -36 -8 -25 22 8 21 7 25 -9 25 -11
0 -21 -9 -24 -22z"/>
<path d="M5970 1475 c-9 -11 -10 -19 -3 -26 16 -16 55 -1 51 19 -4 23 -32 26
-48 7z"/>
<path d="M1110 1468 c0 -6 7 -20 16 -30 16 -16 15 -18 -7 -28 l-24 -10 25 3
c18 1 26 9 28 25 4 23 -13 52 -29 52 -5 0 -9 -5 -9 -12z"/>
<path d="M6420 1465 c0 -8 5 -15 10 -15 6 0 10 7 10 15 0 8 -4 15 -10 15 -5 0
-10 -7 -10 -15z"/>
<path d="M4118 1421 c-28 -27 -48 -55 -48 -68 0 -12 -6 -23 -12 -26 -7 -2 -10
-8 -5 -12 8 -10 73 57 82 85 3 11 15 22 26 25 19 6 26 30 12 38 -5 2 -29 -17
-55 -42z"/>
<path d="M1541 1441 c-8 -14 -6 -23 9 -36 20 -18 20 -18 -2 -42 l-21 -23 34 0
c19 0 40 -4 47 -9 11 -7 11 -9 -2 -14 -9 -4 -16 -18 -16 -31 0 -14 -10 -34
-22 -46 -19 -18 -20 -20 -4 -20 10 0 20 9 23 20 3 11 11 20 18 20 7 0 15 7 19
15 3 8 17 15 31 15 29 0 34 20 7 27 -14 3 -18 11 -14 31 2 15 12 35 20 45 15
16 14 18 -6 24 -13 3 -22 13 -22 24 0 11 -4 19 -10 19 -5 0 -10 -9 -10 -19 0
-11 5 -23 10 -26 17 -11 11 -33 -11 -40 -29 -10 -38 4 -14 21 19 14 19 16 3
25 -10 6 -18 17 -18 24 0 22 -38 18 -49 -4z"/>
<path d="M3866 1451 c-4 -7 -5 -15 -2 -18 9 -9 19 4 14 18 -4 11 -6 11 -12 0z"/>
<path d="M4790 1430 c0 -11 5 -20 10 -20 6 0 10 9 10 20 0 11 -4 20 -10 20 -5
0 -10 -9 -10 -20z"/>
<path d="M5130 1436 c0 -8 5 -18 10 -21 6 -3 10 3 10 14 0 12 -4 21 -10 21 -5
0 -10 -6 -10 -14z"/>
<path d="M5685 1437 c-11 -6 -26 -17 -34 -25 -13 -12 -16 -12 -28 4 -10 13
-16 15 -24 7 -19 -19 -3 -40 32 -45 23 -4 39 0 53 13 11 11 23 19 28 19 10 0
11 27 0 34 -4 2 -16 -1 -27 -7z"/>
<path d="M6270 1430 c0 -11 5 -20 11 -20 6 0 9 -12 7 -27 -4 -34 -29 -37 -43
-5 -11 26 -23 28 -31 7 -4 -8 -16 -15 -28 -15 -21 0 -46 -17 -46 -31 0 -4 9
-5 20 -2 13 4 26 -1 35 -13 14 -18 14 -17 15 9 0 29 24 38 34 12 4 -11 13 -14
33 -9 16 4 37 15 49 25 11 11 23 16 26 13 10 -9 38 10 30 21 -7 10 -94 55
-106 55 -3 0 -6 -9 -6 -20z"/>
<path d="M2117 1433 c-2 -5 -7 -20 -11 -36 -6 -24 -4 -26 11 -18 10 5 26 12
36 15 9 3 17 15 17 26 0 15 -7 20 -24 20 -14 0 -27 -3 -29 -7z"/>
<path d="M4019 1413 c-6 -16 -6 -30 0 -36 13 -13 34 2 27 19 -3 8 1 17 9 20
18 7 10 24 -11 24 -8 0 -19 -12 -25 -27z"/>
<path d="M6020 1430 c0 -5 -9 -14 -20 -20 -14 -7 -25 -7 -38 1 -21 13 -76 4
-67 -11 3 -6 17 -10 31 -10 29 0 31 -20 4 -45 -11 -10 -20 -25 -20 -34 0 -9
-9 -24 -20 -34 -25 -21 -26 -37 -1 -37 14 0 27 17 46 58 21 43 39 64 71 84 30
19 42 32 38 43 -7 17 -24 21 -24 5z"/>
<path d="M800 1416 c0 -9 5 -16 10 -16 6 0 8 -11 4 -26 -5 -20 -3 -25 7 -22
18 6 14 45 -6 64 -13 14 -15 14 -15 0z"/>
<path d="M1277 1415 c-9 -7 -17 -14 -17 -17 0 -3 18 -4 40 -4 22 1 40 6 40 11
-1 16 -45 23 -63 10z"/>
<path d="M6173 1423 c-13 -2 -23 -9 -23 -14 0 -14 30 -11 46 6 9 8 12 14 7 14
-4 -1 -18 -4 -30 -6z"/>
<path d="M1177 1413 c-4 -3 -7 -15 -7 -25 0 -10 -5 -18 -11 -18 -7 0 -9 -16
-4 -48 6 -42 4 -50 -19 -71 -31 -29 -33 -56 -6 -73 28 -18 25 -28 -7 -28 -14
0 -23 -3 -19 -7 4 -5 21 -8 38 -8 29 0 29 1 23 42 -4 26 -2 44 5 48 8 5 9 20
5 42 -5 29 -3 35 14 40 16 4 21 14 21 37 0 17 3 41 6 54 5 17 2 22 -13 22 -11
0 -23 -3 -26 -7z"/>
<path d="M2191 1359 c-12 -59 -12 -61 14 -86 14 -15 24 -32 21 -40 -4 -8 2
-13 15 -13 16 0 19 4 14 18 -4 9 -10 27 -12 40 -6 23 9 28 41 16 12 -5 13 -10
5 -25 -12 -24 -4 -39 22 -39 26 0 35 26 15 45 -20 21 -20 29 -1 21 8 -3 25 -2
36 2 20 8 18 11 -27 50 -27 23 -52 42 -56 42 -5 0 -8 -8 -8 -18 0 -10 11 -25
25 -32 14 -7 25 -17 25 -22 0 -9 -70 -6 -87 5 -20 12 -15 54 7 70 23 16 17 27
-15 27 -19 0 -24 -8 -34 -61z"/>
<path d="M2390 1405 c0 -8 -6 -15 -14 -15 -11 0 -12 -5 -3 -25 17 -37 41 -27
45 18 2 28 0 37 -12 37 -9 0 -16 -7 -16 -15z"/>
<path d="M3395 1410 c-6 -10 33 -70 47 -70 4 0 8 -7 8 -15 0 -8 -7 -15 -15
-15 -22 0 -18 -13 10 -40 23 -22 25 -22 50 -6 14 9 25 20 25 25 0 5 -11 12
-24 15 -18 4 -25 15 -31 42 -3 21 -16 45 -28 55 -25 21 -33 23 -42 9z"/>
<path d="M2000 1400 c0 -5 5 -10 10 -10 6 0 10 5 10 10 0 6 -4 10 -10 10 -5 0
-10 -4 -10 -10z"/>
<path d="M2008 1368 c-16 -16 -28 -33 -28 -38 0 -6 -11 -10 -24 -10 -13 0 -29
-7 -36 -15 -7 -9 -21 -13 -31 -10 -15 5 -19 1 -19 -19 0 -22 4 -26 30 -26 23
0 43 12 78 45 26 25 52 45 59 45 11 0 33 29 33 43 0 3 -8 7 -17 9 -11 3 -29
-7 -45 -24z"/>
<path d="M3474 1389 c-3 -6 -1 -16 5 -22 8 -8 11 -5 11 11 0 24 -5 28 -16 11z"/>
<path d="M5720 1390 c0 -5 5 -10 10 -10 6 0 10 5 10 10 0 6 -4 10 -10 10 -5 0
-10 -4 -10 -10z"/>
<path d="M6080 1385 c-7 -8 -19 -15 -26 -15 -8 0 -14 -4 -14 -10 0 -5 5 -10
11 -10 7 0 8 -11 4 -30 -6 -28 -5 -30 24 -30 26 0 31 4 36 34 8 41 4 68 -11
73 -6 2 -17 -3 -24 -12z"/>
<path d="M655 1380 c4 -6 11 -8 16 -5 14 9 11 15 -7 15 -8 0 -12 -5 -9 -10z"/>
<path d="M2890 1375 c-10 -12 -9 -16 4 -21 9 -3 16 -12 16 -20 0 -8 5 -14 11
-14 14 0 7 62 -7 67 -6 2 -17 -3 -24 -12z"/>
<path d="M3325 1370 c-9 -10 -14 -24 -10 -29 7 -12 44 -14 69 -5 22 9 21 46
-1 42 -10 -1 -23 1 -29 5 -6 3 -19 -2 -29 -13z"/>
<path d="M4705 1375 c-46 -21 -89 -60 -81 -73 4 -7 20 -12 36 -12 23 0 30 5
35 30 4 17 11 28 16 24 13 -8 11 -58 -3 -72 -7 -7 -28 -12 -47 -12 -37 0 -75
-23 -83 -50 -4 -10 -12 -3 -28 23 -23 39 -34 45 -46 26 -4 -7 1 -16 10 -21 16
-9 16 -11 2 -27 -15 -16 -15 -21 0 -49 8 -18 22 -32 30 -32 14 0 19 -27 8 -54
-7 -17 -44 -22 -44 -6 0 16 -39 11 -58 -7 -9 -10 -30 -24 -45 -30 -19 -9 -27
-20 -27 -37 0 -38 10 -56 32 -56 14 0 19 6 18 23 -3 38 -1 46 19 56 16 9 18 7
14 -17 -3 -22 -2 -24 6 -10 7 9 19 14 30 11 11 -3 28 4 40 16 15 15 28 20 46
15 18 -5 25 -2 25 9 0 8 6 18 13 20 10 4 10 6 0 6 -23 2 -14 27 18 50 23 18
28 26 19 35 -9 8 -17 4 -36 -17 -20 -23 -27 -26 -44 -17 -11 6 -20 17 -20 25
0 8 -7 15 -15 15 -8 0 -15 5 -15 10 0 6 11 8 25 4 17 -4 25 -2 25 6 0 9 10 11
30 7 16 -4 32 -2 35 3 3 6 13 10 21 10 8 0 23 9 34 20 17 17 24 18 41 9 11 -6
24 -8 27 -4 11 10 -15 40 -32 37 -9 -2 -16 2 -16 8 0 13 41 55 61 62 12 4 12
8 0 31 -16 30 -32 33 -76 12z m-66 -162 c-7 -10 -15 -20 -16 -22 -2 -2 -3 5
-3 17 0 14 6 22 16 22 14 0 15 -3 3 -17z"/>
<path d="M572 1368 c-5 -7 -12 -22 -14 -33 -2 -15 3 -21 25 -23 23 -3 27 0 27
21 0 31 -23 53 -38 35z"/>
<path d="M1703 1372 c-27 -4 -37 -28 -16 -36 22 -9 53 3 53 19 0 18 -9 22 -37
17z"/>
<path d="M4816 1372 c-7 -12 19 -35 34 -30 7 2 3 11 -8 21 -11 10 -23 14 -26
9z"/>
<path d="M337 1338 c-14 -35 -11 -71 6 -65 5 1 10 24 11 50 0 26 0 47 -1 47
-2 0 -9 -15 -16 -32z"/>
<path d="M1420 1354 c0 -8 5 -12 10 -9 6 3 10 10 10 16 0 5 -4 9 -10 9 -5 0
-10 -7 -10 -16z"/>
<path d="M4485 1357 c3 -7 -1 -20 -10 -27 -13 -11 -18 -10 -33 4 -27 24 -43
21 -33 -6 8 -23 35 -35 79 -37 21 -1 23 3 20 36 -2 20 -9 38 -16 41 -7 2 -10
-2 -7 -11z"/>
<path d="M5045 1358 c-3 -7 -6 -24 -7 -37 -3 -21 1 -24 32 -25 24 0 34 3 32
13 -1 7 2 19 9 27 6 7 8 18 4 24 -9 14 -65 13 -70 -2z"/>
<path d="M1240 1340 c0 -17 6 -20 38 -19 21 1 29 3 17 6 -11 3 -24 11 -28 19
-12 20 -27 17 -27 -6z"/>
<path d="M5217 1339 c-12 -14 -17 -33 -15 -57 3 -34 6 -37 36 -40 42 -4 42
-27 0 -60 -15 -12 -21 -11 -45 7 -23 19 -28 20 -35 7 -5 -9 -4 -23 4 -35 10
-16 10 -23 0 -33 -14 -14 -16 -48 -3 -48 5 0 26 15 46 34 36 34 40 33 47 -9 5
-32 31 -23 39 12 4 22 2 36 -7 44 -8 6 -14 20 -14 30 0 21 20 25 37 8 13 -13
36 -3 28 12 -4 5 1 19 9 31 18 25 21 58 7 58 -6 0 -18 -13 -28 -30 -20 -34
-42 -38 -66 -12 -20 21 -22 53 -6 69 11 11 5 33 -9 33 -4 0 -16 -9 -25 -21z"/>
<path d="M5287 1353 c-4 -3 -7 -14 -7 -23 0 -12 12 -16 60 -17 54 -2 60 0 60
18 0 27 -27 35 -50 14 -19 -17 -21 -17 -38 -2 -10 10 -22 14 -25 10z"/>
<path d="M5534 1342 c-20 -17 -20 -17 18 -36 34 -16 43 -16 70 -5 17 7 45 13
61 13 17 1 32 7 34 14 3 8 -10 12 -46 12 -39 0 -51 -4 -51 -15 0 -17 -18 -19
-39 -6 -9 6 -10 11 -2 15 6 4 11 11 11 17 0 15 -33 10 -56 -9z"/>
<path d="M2084 1336 c-3 -7 -4 -19 -2 -27 2 -9 -7 -15 -26 -17 -32 -4 -62 -27
-47 -37 6 -3 8 -12 5 -20 -3 -7 3 -18 15 -24 24 -14 54 -14 46 -1 -3 5 -12 7
-20 3 -9 -3 -15 1 -15 11 0 9 8 16 18 16 9 0 27 17 40 40 12 21 22 43 22 48 0
16 -30 23 -36 8z"/>
<path d="M4540 1336 c0 -9 5 -16 10 -16 6 0 10 4 10 9 0 6 -4 13 -10 16 -5 3
-10 -1 -10 -9z"/>
<path d="M5844 1336 c-11 -6 -19 -17 -16 -24 5 -16 -55 -16 -61 1 -3 7 -6 5
-6 -5 -1 -10 -8 -19 -16 -19 -32 -3 -36 -4 -45 -18 -7 -12 -11 -13 -24 -1 -19
15 -21 13 -30 -17 -6 -20 -4 -23 21 -23 15 0 37 7 47 15 11 8 23 15 28 15 4 0
8 -25 8 -55 0 -42 -5 -60 -20 -75 -11 -11 -20 -29 -20 -40 0 -19 32 -45 43
-34 3 3 14 1 24 -5 17 -10 17 -11 -4 -17 -13 -3 -23 -8 -23 -11 0 -2 5 -13 10
-24 12 -22 32 -26 24 -5 -4 10 1 15 13 15 65 3 86 11 113 45 14 18 14 19 -5
11 -11 -4 -39 -9 -62 -10 -40 -2 -42 -1 -41 27 1 19 -6 34 -20 44 -18 13 -20
18 -9 34 13 22 53 27 59 8 2 -6 10 -8 16 -4 21 13 13 41 -18 59 -30 18 -43 54
-16 44 15 -6 90 65 80 76 -10 9 -25 7 -50 -7z"/>
<path d="M5423 1323 c-4 -10 -11 -21 -17 -25 -8 -5 -7 -14 2 -28 16 -27 6 -60
-18 -60 -10 0 -22 -4 -25 -10 -3 -5 3 -10 13 -10 23 0 46 -25 38 -39 -4 -5 1
-16 9 -24 17 -17 20 -37 6 -37 -6 0 -22 11 -37 25 -43 40 -72 29 -60 -21 5
-20 11 -24 27 -19 15 5 29 -1 50 -21 16 -15 29 -36 29 -46 0 -25 35 -23 54 4
14 20 16 20 22 3 5 -11 1 -21 -9 -27 -17 -9 -24 -38 -9 -38 25 1 52 14 48 25
-5 14 12 35 29 35 5 0 15 -10 20 -22 6 -13 19 -23 30 -23 14 0 20 7 21 25 1
45 4 50 25 50 11 0 17 4 14 11 -5 7 -15 5 -31 -5 -13 -9 -43 -16 -68 -16 -44
0 -67 12 -46 25 15 9 12 25 -5 25 -8 0 -15 5 -15 10 0 6 7 10 15 10 24 0 17
24 -11 37 -20 9 -26 9 -31 -3 -8 -20 -43 -18 -43 4 0 9 -3 28 -7 41 -4 16 -2
22 4 18 6 -4 16 0 23 8 7 8 18 15 24 15 6 0 17 14 25 31 11 26 11 33 -1 45
-12 12 -17 12 -36 -2 -22 -15 -22 -17 -6 -35 9 -11 14 -22 11 -25 -3 -4 -18
-3 -33 0 -27 7 -28 13 -8 84 8 26 -13 31 -23 5z m58 -243 c28 -16 23 -30 -10
-30 -31 0 -47 13 -36 30 8 13 21 13 46 0z"/>
<path d="M1793 1310 c-5 -19 -6 -19 -18 -4 -8 12 -14 14 -19 6 -4 -7 -20 -12
-37 -12 -22 0 -29 -5 -29 -19 0 -28 17 -35 43 -18 12 7 35 17 52 21 41 10 63
46 29 46 -9 0 -18 -9 -21 -20z"/>
<path d="M3204 1297 c7 -51 22 -70 47 -57 14 8 23 6 37 -8 10 -10 22 -17 28
-15 5 1 15 -1 23 -6 11 -7 9 -13 -8 -30 -11 -11 -21 -25 -21 -31 0 -15 26 -12
40 5 9 11 16 12 25 5 10 -8 15 -8 21 1 4 6 0 16 -10 21 -9 5 -16 21 -16 37 0
25 -3 28 -27 23 -21 -4 -25 -2 -20 11 8 22 -8 30 -23 12 -7 -8 -16 -15 -21
-15 -12 0 -11 37 1 45 6 4 8 11 5 16 -4 5 -19 2 -36 -6 -28 -15 -30 -15 -39 7
-9 19 -10 17 -6 -15z"/>
<path d="M4796 1304 c-8 -32 -2 -41 19 -24 8 7 15 8 15 3 0 -6 13 -30 30 -54
16 -24 30 -49 30 -55 0 -15 -46 -35 -65 -28 -8 4 -15 17 -15 30 0 15 -6 24
-15 24 -17 0 -20 -16 -5 -25 6 -3 10 -20 10 -36 0 -19 4 -28 11 -23 6 3 21 2
32 -4 12 -6 37 -16 55 -24 17 -7 32 -17 32 -21 0 -5 10 -7 23 -5 14 2 22 10
22 23 0 12 -6 19 -14 17 -19 -4 -61 26 -61 43 0 24 56 19 74 -7 9 -12 18 -19
21 -16 3 3 -1 13 -10 21 -8 9 -15 20 -15 26 0 6 -6 11 -13 11 -7 0 -18 5 -25
12 -9 9 -5 16 18 30 30 17 30 19 14 43 -9 14 -22 25 -29 25 -7 0 -15 7 -19 15
-3 8 -12 15 -20 15 -7 0 -16 -7 -20 -15 -8 -22 -42 -18 -59 5 -14 21 -15 21
-21 -6z m124 -55 c0 -10 -31 -20 -42 -13 -5 3 -2 14 8 25 13 15 19 17 26 7 4
-7 8 -16 8 -19z"/>
<path d="M1399 1313 c-8 -2 -22 -19 -29 -38 -15 -39 -42 -48 -38 -12 4 28 -11
37 -25 15 -9 -13 -6 -22 15 -43 19 -19 33 -25 48 -20 11 3 18 11 15 16 -3 5
-1 18 5 30 8 14 15 18 22 11 6 -6 18 -2 33 12 16 14 20 23 12 28 -13 8 -32 8
-58 1z"/>
<path d="M1515 1280 c0 -22 3 -40 8 -40 9 0 37 25 37 34 0 6 -37 46 -43 46 -1
0 -2 -18 -2 -40z"/>
<path d="M400 1300 c0 -5 5 -10 10 -10 6 0 10 5 10 10 0 6 -4 10 -10 10 -5 0
-10 -4 -10 -10z"/>
<path d="M730 1292 c0 -9 -10 -22 -22 -27 -20 -9 -22 -16 -20 -57 l4 -48 -36
0 c-26 0 -36 -5 -41 -21 -4 -11 -5 -21 -3 -22 44 -23 46 -26 33 -58 -4 -12 1
-18 18 -23 14 -3 27 -15 30 -26 8 -29 36 -25 43 8 3 15 17 49 29 77 13 27 21
53 19 57 -3 5 -16 8 -29 8 -13 0 -27 5 -30 11 -8 12 13 98 26 114 13 14 11 25
-6 25 -8 0 -15 -8 -15 -18z"/>
<path d="M3028 1303 c-22 -6 -24 -46 -3 -63 8 -7 15 -21 15 -31 0 -11 7 -19
15 -19 17 0 19 11 6 26 -4 5 -11 26 -14 46 -4 29 -2 38 11 41 12 3 13 5 2 5
-8 0 -23 -2 -32 -5z"/>
<path d="M3145 1297 c-4 -8 5 -27 19 -42 22 -24 27 -25 32 -11 4 10 -3 26 -20
42 -21 21 -27 24 -31 11z"/>
<path d="M4560 1295 c0 -8 7 -15 15 -15 8 0 15 7 15 15 0 8 -7 15 -15 15 -8 0
-15 -7 -15 -15z"/>
<path d="M6250 1300 c0 -5 7 -10 15 -10 8 0 15 5 15 10 0 6 -7 10 -15 10 -8 0
-15 -4 -15 -10z"/>
<path d="M6290 1276 c0 -32 14 -55 26 -43 8 8 -7 77 -17 77 -5 0 -9 -15 -9
-34z"/>
<path d="M981 1291 c-16 -10 -5 -54 12 -48 14 4 23 57 10 57 -4 0 -14 -4 -22
-9z"/>
<path d="M2136 1293 c-12 -12 -6 -33 9 -33 8 0 15 6 15 14 0 17 -14 28 -24 19z"/>
<path d="M2390 1280 c0 -11 7 -20 15 -20 8 0 15 9 15 20 0 11 -7 20 -15 20 -8
0 -15 -9 -15 -20z"/>
<path d="M3097 1293 c-11 -10 -8 -41 5 -63 10 -16 10 -24 0 -40 -16 -26 -15
-43 5 -84 13 -28 19 -33 30 -25 9 9 17 8 29 -1 28 -24 37 -51 24 -74 -15 -28
3 -81 25 -72 21 8 29 -12 11 -30 -13 -12 -13 -19 -4 -34 11 -16 9 -22 -7 -34
-17 -13 -18 -15 -4 -21 18 -7 69 10 69 24 0 21 -13 41 -26 41 -8 0 -14 7 -14
15 0 8 7 15 16 15 23 0 13 32 -14 46 -19 9 -20 13 -8 23 7 6 16 21 19 31 4 15
0 20 -14 20 -10 0 -19 6 -19 13 0 16 -72 87 -88 87 -14 0 -17 27 -4 32 5 2 12
18 15 36 5 24 3 34 -8 38 -8 4 -15 14 -15 23 0 21 -15 43 -23 34z"/>
<path d="M1085 1279 c-12 -19 5 -23 22 -6 16 16 16 17 1 17 -9 0 -20 -5 -23
-11z"/>
<path d="M1220 1282 c0 -12 19 -26 26 -19 2 2 -2 10 -11 17 -9 8 -15 8 -15 2z"/>
<path d="M2750 1269 c0 -24 23 -21 28 4 2 10 -3 17 -12 17 -10 0 -16 -9 -16
-21z"/>
<path d="M5983 1276 c-24 -11 -30 -31 -13 -41 6 -4 23 7 39 24 22 23 25 31 13
30 -10 -1 -27 -6 -39 -13z"/>
<path d="M3761 1242 c-1 -39 1 -43 19 -37 24 8 38 -18 20 -39 -9 -12 -7 -19 8
-34 22 -22 39 -18 21 5 -9 10 -8 13 0 13 8 0 11 12 9 33 -3 27 1 33 20 35 16
3 22 8 18 19 -3 8 -6 20 -7 26 0 7 -4 3 -9 -9 -6 -16 -15 -19 -45 -16 -25 3
-39 11 -45 26 -7 17 -9 12 -9 -22z"/>
<path d="M5126 1265 c-3 -9 3 -19 15 -25 27 -15 42 -4 26 20 -14 24 -33 26
-41 5z"/>
<path d="M6240 1270 c0 -5 5 -10 10 -10 6 0 10 5 10 10 0 6 -4 10 -10 10 -5 0
-10 -4 -10 -10z"/>
<path d="M373 1263 c-22 -8 -14 -33 10 -33 25 0 53 15 41 22 -19 11 -40 15
-51 11z"/>
<path d="M5005 1260 c-8 -13 -1 -24 14 -19 6 3 7 10 2 18 -6 10 -10 10 -16 1z"/>
<path d="M6164 1258 c-4 -6 1 -17 10 -24 11 -8 16 -22 14 -40 -2 -15 2 -29 9
-31 7 -3 14 13 19 43 5 34 3 48 -7 55 -19 12 -37 11 -45 -3z"/>
<path d="M1787 1233 c-7 -38 11 -73 39 -73 12 0 25 -7 28 -16 4 -9 13 -14 21
-10 9 3 15 0 15 -9 0 -8 -7 -15 -16 -15 -18 0 -16 -31 2 -37 15 -5 85 68 77
80 -3 5 -16 7 -29 4 -14 -2 -27 -1 -29 3 -3 5 -13 6 -23 3 -12 -3 -25 4 -36
21 -15 23 -15 27 -1 32 12 5 11 10 -9 25 -13 10 -26 19 -29 19 -3 0 -7 -12
-10 -27z"/>
<path d="M3547 1230 c-15 -29 -8 -48 12 -35 17 10 21 -12 6 -25 -24 -20 -18
-40 13 -40 15 0 33 -5 39 -11 7 -7 20 -8 30 -5 16 7 15 10 -9 31 -16 13 -28
31 -28 40 0 8 -4 15 -9 15 -5 0 -12 14 -16 30 -4 17 -10 30 -15 30 -5 0 -15
-13 -23 -30z"/>
<path d="M5060 1241 c-6 -12 -16 -21 -23 -21 -7 0 -18 -4 -26 -9 -12 -8 -12
-12 -2 -25 18 -22 30 -20 42 7 6 13 20 27 31 32 24 11 26 29 4 33 -8 2 -20 -6
-26 -17z"/>
<path d="M5592 1240 c-7 -12 -8 -21 -2 -25 6 -3 10 -20 10 -36 0 -37 16 -30
25 11 4 19 1 37 -7 49 -14 19 -14 19 -26 1z"/>
<path d="M6117 1253 c-4 -7 -3 -28 2 -68 0 -5 7 -3 15 5 9 9 12 26 9 43 -5 26
-17 35 -26 20z"/>
<path d="M638 1244 c-4 -6 -19 -9 -33 -6 -18 3 -25 0 -25 -12 0 -19 47 -33 62
-18 5 5 8 18 6 28 -2 12 -6 15 -10 8z"/>
<path d="M1213 1233 c-16 -6 -17 -35 -1 -51 7 -7 22 -12 35 -12 18 0 23 6 23
24 0 15 7 26 18 29 13 4 12 5 -5 6 -15 1 -23 -6 -25 -19 -4 -26 -23 -26 -23
-1 0 23 -6 30 -22 24z"/>
<path d="M1440 1210 c0 -19 5 -30 14 -30 8 0 18 5 21 11 7 10 19 1 63 -43 20
-22 32 -23 32 -4 0 8 7 16 15 20 19 7 58 -31 51 -50 -3 -8 6 -20 25 -29 25
-13 28 -19 19 -35 -8 -15 -17 -19 -35 -14 -19 5 -25 2 -25 -11 0 -11 5 -15 15
-11 16 6 47 -8 73 -31 7 -7 17 -13 22 -13 4 0 6 -9 3 -20 -7 -27 18 -26 35 0
11 18 9 21 -10 29 -13 5 -31 12 -40 15 -20 6 -24 46 -8 62 14 14 1 47 -15 40
-7 -2 -19 12 -28 33 -17 38 -68 73 -75 52 -2 -6 -10 -11 -18 -11 -16 0 -32 11
-69 48 -12 12 -32 22 -44 22 -17 0 -21 -6 -21 -30z"/>
<path d="M1678 1224 c-33 -17 -36 -44 -8 -62 17 -10 21 -10 26 3 4 8 4 22 0
30 -3 9 0 15 9 15 8 0 15 -7 15 -16 0 -14 2 -14 16 -3 13 11 13 14 3 18 -8 2
-18 10 -24 17 -8 10 -15 10 -37 -2z"/>
<path d="M2910 1224 c0 -9 5 -14 12 -12 18 6 21 28 4 28 -9 0 -16 -7 -16 -16z"/>
<path d="M3436 1232 c-32 -8 -48 -32 -20 -32 10 0 25 -7 34 -15 14 -13 19 -11
45 10 17 13 28 25 25 28 -10 10 -56 15 -84 9z"/>
<path d="M4315 1230 c-9 -14 13 -50 30 -50 16 0 19 18 9 44 -7 18 -30 21 -39
6z"/>
<path d="M6038 1218 c-10 -12 -18 -33 -18 -46 0 -21 -3 -23 -27 -17 -15 3 -32
14 -39 23 -10 14 -14 14 -28 3 -9 -7 -22 -11 -31 -7 -9 3 -19 -3 -25 -14 -13
-24 -13 -70 0 -70 6 0 10 6 10 14 0 18 58 42 71 29 7 -7 24 -7 52 0 23 5 48
12 56 16 19 9 27 91 9 91 -7 0 -21 -10 -30 -22z"/>
<path d="M452 1199 c19 -25 20 -31 8 -39 -8 -5 -27 -6 -42 -3 -17 3 -28 1 -28
-6 0 -6 9 -11 19 -11 11 0 23 -5 26 -10 10 -16 40 6 58 42 16 32 16 32 -15 45
-17 7 -34 13 -39 13 -5 0 1 -14 13 -31z"/>
<path d="M900 1214 c0 -22 26 -34 59 -28 17 4 33 10 36 13 2 4 -18 12 -46 17
-37 8 -49 8 -49 -2z"/>
<path d="M1011 1197 c-14 -41 -44 -61 -71 -47 -10 5 -21 10 -24 10 -13 0 -4
-19 19 -41 13 -13 25 -27 25 -31 0 -15 -33 -8 -46 10 -11 14 -13 14 -14 2 0
-9 7 -26 16 -38 14 -20 14 -23 0 -28 -9 -3 -16 -14 -16 -24 0 -22 -28 -46 -39
-34 -5 5 -11 18 -13 28 -9 52 -48 5 -48 -58 0 -21 -6 -36 -15 -40 -17 -6 -9
-36 10 -36 7 0 15 -5 17 -12 8 -23 27 3 23 33 -4 36 25 72 56 67 16 -2 24 6
34 36 8 22 21 43 29 48 9 5 16 15 16 23 0 11 8 13 29 9 26 -5 33 -2 50 27 12
19 21 37 21 41 0 4 -20 -4 -44 -17 -27 -15 -47 -21 -51 -15 -10 15 5 31 23 26
12 -4 22 6 35 34 17 38 16 60 -3 60 -5 0 -13 -15 -19 -33z"/>
<path d="M1946 1205 c18 -27 34 -33 34 -12 0 17 -20 37 -37 37 -10 0 -10 -6 3
-25z"/>
<path d="M2400 1215 c14 -17 50 -20 50 -4 0 6 -7 9 -15 5 -8 -3 -15 -1 -15 4
0 6 -7 10 -16 10 -14 0 -14 -3 -4 -15z"/>
<path d="M2593 1205 c-10 -22 -9 -27 8 -38 10 -6 19 -19 19 -28 0 -9 7 -20 16
-23 13 -5 15 -1 12 24 -4 27 -2 30 23 30 29 0 47 -25 23 -34 -23 -9 -16 -25
18 -46 24 -14 35 -16 45 -8 7 6 13 17 13 25 0 12 -3 13 -13 4 -15 -12 -27 -5
-27 17 0 9 7 13 20 9 11 -3 22 -2 24 2 3 4 -8 22 -23 40 -24 28 -31 31 -49 22
-16 -8 -21 -7 -26 4 -8 22 -25 18 -37 -9 -14 -31 -38 -24 -31 10 2 13 3 24 1
24 -2 0 -9 -12 -16 -25z"/>
<path d="M2960 1216 c0 -6 7 -21 15 -33 9 -12 14 -26 13 -30 -2 -4 2 -9 7 -10
11 -3 27 46 21 63 -6 16 -56 24 -56 10z"/>
<path d="M525 1194 c-9 -14 -14 -32 -11 -40 5 -12 9 -12 25 -2 29 18 38 68 12
68 -5 0 -16 -12 -26 -26z"/>
<path d="M2153 1210 c-12 -5 -28 -18 -35 -30 -9 -14 -23 -20 -51 -20 -31 0
-38 -3 -35 -17 3 -12 12 -17 26 -16 12 2 22 -1 22 -5 0 -5 14 -6 31 -4 24 4
30 9 26 23 -3 11 -1 22 4 25 5 3 9 -2 9 -10 0 -9 14 -23 31 -32 25 -12 30 -21
26 -40 -2 -13 0 -24 4 -24 5 0 9 -7 9 -15 0 -8 -7 -15 -15 -15 -8 0 -15 -3
-15 -7 1 -14 27 -43 39 -43 9 0 11 9 6 30 -6 25 -3 31 19 41 19 9 29 9 39 0
19 -15 50 -3 43 16 -3 8 -6 19 -6 24 0 5 -11 2 -25 -7 -26 -17 -60 -12 -69 11
-3 9 5 19 22 27 15 8 27 22 27 32 0 24 18 31 42 17 10 -6 12 -11 6 -11 -7 0
-13 -9 -13 -20 0 -13 7 -20 20 -20 17 0 19 5 14 33 -4 17 -15 39 -25 49 -24
21 -59 12 -59 -14 0 -16 -5 -19 -25 -16 -17 4 -29 0 -35 -11 -8 -14 -11 -14
-29 6 -25 26 -27 37 -5 29 22 -8 40 4 23 15 -17 10 -18 10 -46 -1z"/>
<path d="M3198 1213 c-20 -5 -22 -15 -9 -41 5 -9 14 -36 20 -59 9 -33 17 -43
33 -43 11 0 27 -8 34 -17 12 -16 15 -16 24 -3 5 8 10 25 10 38 0 16 -5 22 -17
20 -14 -2 -18 4 -18 27 -1 19 -11 40 -28 58 -16 15 -29 26 -30 26 -1 -1 -10
-3 -19 -6z m46 -66 c12 -19 3 -32 -19 -24 -17 7 -21 51 -3 45 6 -2 16 -12 22
-21z"/>
<path d="M5520 1203 c0 -11 7 -24 16 -27 27 -10 30 3 6 27 l-22 21 0 -21z"/>
<path d="M2533 1203 c-15 -5 -18 -33 -4 -33 5 0 18 -3 28 -6 11 -4 14 -3 7 3
-7 4 -13 15 -15 24 -2 9 -10 14 -16 12z"/>
<path d="M3634 1195 c-7 -18 3 -35 21 -35 21 0 28 19 15 35 -16 19 -29 19 -36
0z"/>
<path d="M4170 1180 c0 -19 5 -30 14 -30 19 0 29 30 15 46 -18 22 -29 16 -29
-16z"/>
<path d="M4716 1202 c-3 -5 -8 -28 -12 -50 -6 -37 -4 -42 13 -42 11 0 33 -15
50 -32 56 -58 71 -70 83 -63 8 5 6 13 -6 26 -10 11 -23 18 -29 15 -6 -2 -28
31 -49 75 -21 43 -40 79 -41 79 -2 0 -6 -4 -9 -8z"/>
<path d="M5680 1200 c0 -5 -9 -10 -20 -10 -20 0 -25 -15 -14 -44 4 -10 18 -16
40 -16 19 0 34 4 34 9 0 5 -10 15 -22 24 -23 15 -23 15 -3 31 18 14 18 15 3
16 -10 0 -18 -4 -18 -10z"/>
<path d="M1317 1193 c-2 -5 -8 -26 -12 -48 -4 -22 -11 -45 -17 -52 -12 -15 -2
-33 19 -33 9 0 13 6 10 14 -3 8 1 17 9 20 9 4 14 20 14 50 0 41 -12 67 -23 49z"/>
<path d="M2906 1184 c-3 -9 -3 -20 0 -25 9 -15 34 10 27 27 -7 19 -19 18 -27
-2z"/>
<path d="M4442 1179 c-19 -29 -6 -37 18 -11 23 25 25 32 7 32 -7 0 -18 -9 -25
-21z"/>
<path d="M2400 1177 c0 -9 5 -19 11 -22 7 -5 2 -15 -12 -28 l-22 -20 23 -19
c13 -10 27 -17 33 -15 5 1 11 19 13 39 2 27 -3 41 -22 59 -19 18 -24 19 -24 6z"/>
<path d="M6440 1184 c0 -4 11 -17 24 -29 18 -16 27 -20 35 -12 6 6 11 20 11
30 0 16 -3 17 -14 8 -10 -8 -16 -9 -21 -1 -7 11 -35 14 -35 4z"/>
<path d="M5080 1158 c0 -17 2 -18 15 -8 8 7 15 14 15 15 0 2 -7 5 -15 9 -10 4
-15 -1 -15 -16z"/>
<path d="M1730 1156 c0 -8 6 -21 13 -28 19 -19 28 -60 15 -75 -5 -7 -7 -21 -3
-30 5 -15 11 -11 31 22 24 41 32 85 14 85 -5 0 -10 6 -10 14 0 14 -21 26 -46
26 -8 0 -14 -6 -14 -14z"/>
<path d="M2794 1156 c-3 -7 6 -26 20 -41 23 -25 27 -26 47 -12 21 15 48 13 60
-5 8 -12 39 1 39 17 0 18 -23 25 -81 25 -35 0 -51 4 -55 15 -8 19 -23 19 -30
1z"/>
<path d="M3040 1151 c0 -14 5 -19 15 -14 17 6 15 25 -3 31 -7 2 -12 -5 -12
-17z"/>
<path d="M3500 1155 c-9 -11 -17 -12 -23 -6 -13 13 -47 -5 -47 -25 0 -16 7
-15 77 9 19 6 29 15 26 24 -7 17 -18 17 -33 -2z"/>
<path d="M4120 1155 c0 -8 7 -15 16 -15 14 0 14 3 4 15 -7 8 -14 15 -16 15 -2
0 -4 -7 -4 -15z"/>
<path d="M1260 1144 c0 -8 5 -12 10 -9 6 3 10 10 10 16 0 5 -4 9 -10 9 -5 0
-10 -7 -10 -16z"/>
<path d="M1460 1150 c0 -5 6 -10 14 -10 8 0 16 -6 19 -12 2 -7 8 -9 13 -5 5 5
1 15 -10 23 -23 16 -36 18 -36 4z"/>
<path d="M5015 1130 c-9 -17 -14 -37 -11 -43 2 -7 5 -4 5 5 1 9 11 18 24 20
14 2 22 10 22 22 0 32 -23 29 -40 -4z"/>
<path d="M2486 1130 c-11 -11 -16 -26 -12 -36 5 -14 8 -13 24 6 15 18 24 22
47 16 l28 -7 -26 -25 c-14 -13 -30 -32 -36 -41 -8 -15 -13 -16 -30 -5 -29 17
-39 15 -46 -8 -6 -18 -8 -18 -21 -5 -9 8 -22 15 -30 15 -12 0 -11 -7 6 -31 13
-17 33 -34 45 -39 28 -11 41 -46 25 -65 -14 -17 -40 -20 -40 -5 0 16 -20 12
-27 -5 -3 -9 2 -24 11 -34 21 -23 20 -34 -3 -26 -14 4 -28 -5 -55 -38 -42 -51
-47 -80 -14 -75 14 2 29 15 37 33 8 17 18 32 24 34 5 2 18 12 29 23 12 12 17
26 13 39 -5 15 -2 22 14 26 12 3 21 11 21 18 0 7 7 16 16 19 12 5 15 14 10 36
-3 18 -1 30 5 30 5 0 17 16 25 35 14 35 36 45 50 24 4 -8 9 -8 17 0 6 6 19 11
30 11 28 0 15 24 -15 28 -19 2 -25 8 -21 21 5 21 -12 37 -52 44 -22 5 -35 1
-49 -13z"/>
<path d="M4390 1135 c0 -17 -16 -20 -25 -5 -8 12 -65 13 -65 1 0 -13 29 -35
37 -27 3 3 11 -4 17 -16 6 -11 18 -25 27 -31 11 -7 22 -3 42 15 15 14 27 28
27 32 0 3 -12 3 -26 0 -24 -6 -25 -5 -15 13 10 20 6 33 -11 33 -4 0 -8 -7 -8
-15z"/>
<path d="M6212 1120 c0 -20 5 -31 19 -35 10 -4 28 -4 38 0 11 3 22 1 26 -5 10
-16 35 -12 35 5 0 21 -28 31 -49 18 -12 -8 -22 -7 -35 3 -16 11 -17 16 -6 29
10 13 9 15 -7 15 -15 0 -20 -7 -21 -30z"/>
<path d="M547 1133 c-4 -3 -7 -12 -7 -20 0 -11 4 -11 19 -1 11 7 17 16 15 20
-6 10 -18 10 -27 1z"/>
<path d="M1360 1130 c0 -4 7 -10 15 -14 20 -7 19 -26 -2 -41 -20 -15 -9 -35
20 -35 16 0 18 3 9 12 -20 20 -13 30 18 26 23 -3 31 0 36 14 3 11 1 25 -5 32
-12 14 -91 19 -91 6z"/>
<path d="M1573 1120 c-10 -11 -25 -20 -35 -20 -26 0 -22 -29 9 -57 20 -19 24
-29 17 -42 -15 -23 -2 -63 23 -72 17 -6 22 -3 26 17 2 13 0 27 -4 30 -5 3 -9
13 -9 22 0 9 -7 30 -15 45 -14 27 -13 30 10 55 14 15 25 30 25 34 0 16 -31 8
-47 -12z"/>
<path d="M4212 1124 c-26 -18 -27 -57 -2 -62 15 -2 40 39 40 65 0 17 -11 16
-38 -3z"/>
<path d="M1087 1102 c-7 -15 -11 -37 -9 -49 5 -33 40 -30 53 3 20 54 -20 96
-44 46z"/>
<path d="M3708 1117 c-16 -6 -28 -19 -28 -29 0 -10 -5 -18 -10 -18 -6 0 -5 -8
2 -20 9 -14 22 -20 38 -18 19 2 25 -3 30 -22 5 -20 7 -22 12 -8 9 22 48 12 48
-12 0 -11 -15 -23 -41 -33 -22 -9 -46 -14 -54 -11 -17 7 -27 -9 -19 -30 8 -20
44 -21 44 -1 0 9 9 15 25 15 14 0 25 -5 25 -11 0 -15 -42 -48 -62 -49 -32 0
-48 -12 -48 -36 0 -13 4 -24 10 -24 13 0 60 -41 60 -52 0 -12 -48 -10 -55 2
-12 20 -32 9 -48 -25 -16 -34 -16 -35 3 -35 10 0 31 5 45 12 20 9 31 9 45 0
15 -9 19 -7 24 14 7 26 36 34 36 9 0 -11 12 -15 48 -15 26 0 53 -5 60 -12 9
-9 12 -6 12 14 0 15 -4 30 -10 33 -5 3 -32 7 -60 8 -27 1 -50 4 -50 6 0 3 5
19 12 37 10 27 9 37 -6 58 -18 28 -14 46 10 46 8 0 14 -9 14 -20 0 -11 4 -28
9 -38 5 -9 13 -26 17 -37 7 -18 8 -18 12 5 2 14 9 31 15 38 9 11 13 11 24 -4
12 -16 13 -16 13 -1 0 10 8 17 19 17 27 0 34 15 16 30 -12 10 -18 10 -31 0
-12 -11 -18 -10 -31 3 -15 15 -17 15 -28 0 -11 -15 -14 -14 -29 10 -19 28 -15
47 10 47 8 0 14 5 14 10 0 6 9 10 20 10 11 0 20 5 20 10 0 14 -23 13 -38 -2
-10 -10 -14 -8 -18 9 -4 12 -22 31 -41 43 -33 19 -37 40 -7 40 24 0 16 24 -13
38 -31 14 -28 14 -65 -1z m23 -50 c-1 -12 -15 -9 -19 4 -3 6 1 10 8 8 6 -3 11
-8 11 -12z m43 -217 c14 -5 26 -13 26 -17 0 -5 -7 -16 -14 -25 -11 -15 -17
-16 -39 -5 -17 8 -27 20 -27 35 0 24 14 27 54 12z"/>
<path d="M6390 1123 c-15 -6 -30 -23 -30 -34 0 -4 10 -9 22 -12 24 -7 58 17
58 40 0 13 -23 16 -50 6z"/>
<path d="M2980 1104 c-11 -13 -9 -19 14 -42 22 -22 28 -24 36 -13 5 10 3 25
-6 43 -8 15 -18 28 -23 28 -5 0 -14 -7 -21 -16z"/>
<path d="M4086 1104 c-11 -28 -7 -46 9 -40 8 3 15 1 15 -4 0 -12 11 -12 29 -1
12 8 12 13 -3 35 -19 29 -41 34 -50 10z"/>
<path d="M4269 1107 c-11 -8 -14 -19 -9 -32 7 -18 8 -19 15 -2 9 21 25 23 25
2 0 -8 7 -15 16 -15 13 0 12 5 -6 30 -12 17 -22 30 -23 30 -1 0 -9 -6 -18 -13z"/>
<path d="M5568 1106 c-23 -17 -23 -26 1 -26 10 0 22 -8 25 -17 9 -24 29 -1 24
28 -4 28 -26 34 -50 15z"/>
<path d="M460 1089 c0 -14 5 -19 17 -17 10 2 19 11 21 21 2 12 -3 17 -17 17
-15 0 -21 -6 -21 -21z"/>
<path d="M1994 1088 c-10 -33 21 -45 73 -30 21 6 19 9 -22 29 l-44 21 -7 -20z"/>
<path d="M4661 1064 c-13 -43 -12 -47 7 -66 40 -40 122 -24 122 24 0 22 -16
24 -24 2 -4 -10 -16 -14 -38 -12 -26 2 -34 8 -36 26 -2 13 2 29 8 37 6 8 9 19
5 25 -14 22 -31 8 -44 -36z"/>
<path d="M5060 1084 c0 -13 -8 -24 -20 -27 -14 -4 -20 -14 -20 -35 0 -18 6
-32 16 -36 27 -10 37 -7 24 9 -9 11 -9 21 1 45 10 20 19 28 30 25 18 -6 44 19
35 34 -4 6 -20 9 -36 8 -23 -2 -30 -7 -30 -23z"/>
<path d="M6050 1102 c0 -4 4 -12 8 -18 9 -14 84 -6 80 8 -4 12 -88 22 -88 10z"/>
<path d="M6155 1100 c-7 -12 2 -30 15 -30 5 0 14 9 20 20 9 17 8 20 -9 20 -11
0 -23 -4 -26 -10z"/>
<path d="M1220 1085 c-7 -8 -24 -16 -39 -16 -19 -1 -15 -4 17 -12 47 -11 69
-1 59 27 -8 20 -21 20 -37 1z"/>
<path d="M2136 1084 c-8 -20 1 -34 20 -34 18 0 18 24 0 39 -11 9 -15 8 -20 -5z"/>
<path d="M3476 1084 c-3 -8 -13 -14 -23 -14 -15 -1 -13 -5 10 -25 15 -13 27
-27 27 -30 0 -3 -13 -5 -29 -5 -22 0 -30 5 -33 21 -3 18 -5 19 -23 5 -19 -14
-19 -15 8 -41 27 -28 28 -45 0 -45 -13 0 -13 -3 -3 -15 18 -21 40 -19 40 4 0
11 5 23 11 26 5 4 30 7 55 7 24 1 44 5 44 10 0 4 -7 8 -15 8 -17 0 -21 45 -5
55 6 3 10 13 10 22 0 12 -3 13 -14 4 -12 -10 -19 -8 -35 8 -16 16 -21 17 -25
5z"/>
<path d="M5997 1077 c-28 -24 -35 -55 -16 -74 7 -7 9 -19 6 -27 -5 -12 -14
-14 -38 -9 -28 5 -31 4 -25 -14 3 -10 0 -28 -9 -39 -21 -28 -18 -44 10 -44 16
0 25 -6 25 -15 0 -18 16 -20 26 -3 4 6 2 14 -4 16 -22 7 -12 45 22 86 18 23
35 50 38 61 3 16 10 19 40 17 20 -2 39 1 43 7 6 11 -1 13 -55 15 -16 1 -25 7
-25 18 0 28 -10 29 -38 5z"/>
<path d="M3574 1079 c-3 -6 -1 -16 5 -22 8 -8 14 -8 22 0 12 12 4 33 -11 33
-5 0 -12 -5 -16 -11z"/>
<path d="M2907 1050 c-19 -31 -57 -41 -57 -15 0 8 -9 15 -20 15 -11 0 -20 5
-20 10 0 6 -7 10 -15 10 -8 0 -15 -6 -15 -13 0 -7 -16 -28 -35 -47 -25 -25
-38 -31 -46 -23 -16 16 7 53 32 53 12 0 17 4 14 11 -4 6 -9 8 -12 6 -2 -3 -20
-1 -39 3 -28 7 -34 5 -34 -9 0 -9 -7 -25 -15 -35 -22 -28 -18 -37 10 -30 19 5
25 2 25 -11 0 -15 6 -17 40 -11 23 4 40 2 40 -3 0 -6 -4 -13 -10 -16 -5 -3
-10 -14 -10 -23 0 -12 3 -13 12 -4 19 19 28 14 28 -18 0 -23 4 -30 20 -30 15
0 20 7 20 25 0 14 -3 25 -7 25 -5 0 -9 12 -10 27 0 15 -6 29 -12 31 -17 6 -13
49 6 56 23 9 37 -8 18 -24 -20 -17 -19 -30 3 -30 27 0 33 -10 21 -32 -8 -14
-8 -23 0 -31 7 -7 12 -5 17 9 4 10 22 33 40 49 36 34 49 67 37 90 -7 12 -12 9
-26 -15z"/>
<path d="M3373 1063 c9 -2 23 -2 30 0 6 3 -1 5 -18 5 -16 0 -22 -2 -12 -5z"/>
<path d="M3840 1056 c0 -10 9 -16 25 -16 14 0 25 5 25 10 0 6 -4 10 -9 10 -5
0 -16 3 -25 6 -11 4 -16 1 -16 -10z"/>
<path d="M4862 1051 c8 -13 23 -21 40 -21 34 0 37 16 6 25 -63 18 -60 18 -46
-4z"/>
<path d="M5235 1026 c-4 -25 -5 -53 -1 -62 9 -24 27 -6 20 21 -11 43 7 48 28
8 24 -44 38 -56 53 -43 13 11 8 68 -7 88 -6 6 -22 12 -37 12 -15 0 -32 5 -38
11 -8 8 -13 -1 -18 -35z"/>
<path d="M505 1050 c-8 -12 20 -24 35 -15 6 3 8 11 5 16 -8 12 -32 12 -40 -1z"/>
<path d="M1880 1044 c-7 -8 -23 -14 -34 -12 -28 3 -46 -9 -46 -33 0 -21 20
-25 37 -8 6 6 31 13 56 15 38 4 45 2 50 -15 3 -12 13 -21 24 -22 10 -1 3 -5
-16 -9 -25 -6 -41 -4 -59 8 -22 14 -26 14 -36 1 -6 -8 -32 -24 -58 -35 -48
-19 -60 -42 -20 -36 12 2 22 -2 22 -7 0 -6 15 -11 34 -11 35 0 55 -13 36 -25
-17 -10 -11 -23 8 -19 11 3 21 -3 27 -18 8 -18 17 -22 43 -20 30 2 32 0 32
-33 0 -19 5 -35 11 -35 6 0 8 8 4 19 -4 14 0 21 15 26 28 9 25 25 -5 25 -21 0
-25 5 -25 30 0 31 7 34 48 24 16 -5 22 -14 22 -33 0 -31 16 -51 42 -51 22 0
23 16 2 28 -13 7 -14 13 -6 29 9 15 7 22 -10 32 -13 8 -18 19 -15 32 4 15 2
17 -12 9 -10 -5 -39 -10 -64 -12 -35 -2 -46 -7 -44 -18 1 -9 -7 -16 -19 -18
-17 -2 -22 4 -27 34 -4 20 -4 40 -2 44 2 4 40 5 85 4 44 -1 80 1 80 7 0 5 -4
9 -9 9 -10 0 -34 38 -47 73 -10 27 -34 20 -35 -10 0 -26 -1 -26 -9 -7 -8 20
-46 54 -61 54 -4 0 -12 -7 -19 -16z m-2 -135 c-2 -6 -8 -10 -13 -10 -5 0 -11
4 -13 10 -2 6 4 11 13 11 9 0 15 -5 13 -11z"/>
<path d="M3061 1039 c-25 -20 -20 -39 10 -39 10 0 19 -7 19 -15 0 -11 -9 -14
-40 -10 -24 3 -40 1 -40 -5 0 -5 11 -10 25 -10 14 0 25 -4 25 -10 0 -5 13 -10
29 -10 19 0 35 -8 44 -21 9 -11 18 -16 21 -11 7 11 -19 42 -35 42 -12 0 -12
56 1 80 8 14 5 19 -14 22 -13 3 -32 -3 -45 -13z"/>
<path d="M6165 1051 c-6 -11 33 -26 43 -16 4 3 0 10 -8 15 -19 12 -27 12 -35
1z"/>
<path d="M6236 1051 c-3 -5 -3 -23 0 -40 6 -27 9 -30 33 -24 32 7 40 14 23 20
-7 3 -17 16 -22 29 -10 25 -24 31 -34 15z"/>
<path d="M6307 1054 c-8 -8 1 -24 14 -24 5 0 9 7 9 15 0 15 -12 20 -23 9z"/>
<path d="M6380 1050 c-12 -8 -12 -10 3 -16 9 -3 17 -14 17 -23 0 -14 2 -14 10
-1 14 21 12 50 -2 50 -7 0 -20 -4 -28 -10z"/>
<path d="M3950 1035 c14 -17 5 -35 -16 -35 -23 0 -11 -23 20 -38 15 -8 30 -21
33 -30 4 -10 12 -21 20 -25 7 -4 13 -15 13 -22 0 -21 46 -19 54 2 4 10 -2 25
-15 39 -18 20 -20 26 -9 39 10 12 16 13 26 4 17 -14 18 -5 4 22 -9 16 -15 17
-31 9 -17 -9 -25 -6 -48 19 -16 17 -37 31 -46 31 -14 0 -15 -3 -5 -15z m66
-56 c3 -6 1 -16 -5 -22 -9 -9 -14 -8 -21 3 -5 8 -10 18 -10 23 0 11 28 8 36
-4z"/>
<path d="M565 1031 c-3 -5 4 -16 16 -25 18 -12 22 -27 25 -83 3 -64 4 -68 27
-69 13 -1 29 -4 36 -8 7 -4 18 -2 26 4 8 6 19 9 25 5 5 -3 10 1 10 10 0 9 -4
13 -10 10 -5 -3 -25 -3 -44 0 -33 7 -33 7 -32 61 1 47 -1 53 -16 48 -17 -5
-23 6 -19 30 2 9 -18 26 -31 26 -4 0 -9 -4 -13 -9z"/>
<path d="M1032 1000 c1 -26 -4 -46 -15 -58 -22 -24 -12 -52 17 -52 30 0 46 18
46 52 0 31 -29 98 -42 98 -5 0 -8 -18 -6 -40z"/>
<path d="M1164 1032 c-15 -10 -37 -69 -30 -81 4 -5 2 -12 -4 -16 -21 -13 -9
-33 39 -63 27 -18 52 -32 55 -32 3 0 6 16 6 35 0 35 0 35 -24 20 -21 -14 -56
-12 -56 4 0 4 7 17 16 29 8 12 13 30 9 40 -3 12 2 26 15 37 11 10 20 22 20 27
0 10 -31 10 -46 0z"/>
<path d="M2056 1033 c-3 -3 2 -12 12 -19 20 -16 32 -17 32 -4 0 12 -35 31 -44
23z"/>
<path d="M3574 1031 c-2 -2 -4 -13 -4 -23 0 -10 7 -18 15 -18 9 0 20 -12 25
-26 11 -28 30 -24 30 8 0 15 3 18 13 10 6 -6 24 -8 38 -5 21 4 25 9 21 25 -3
15 -10 18 -28 14 -17 -5 -24 -2 -24 8 0 9 -12 13 -41 12 -22 0 -42 -3 -45 -5z"/>
<path d="M4110 1020 c0 -11 8 -23 18 -27 9 -3 23 -11 30 -16 9 -7 9 -13 1 -23
-9 -11 -7 -15 5 -20 20 -8 21 -24 1 -24 -8 0 -15 4 -15 10 0 5 -10 14 -21 21
-17 9 -20 8 -14 -1 5 -7 8 -26 7 -41 0 -22 4 -29 19 -29 10 0 22 0 26 -1 13
-1 31 74 26 107 -4 27 -2 34 11 34 16 0 21 11 9 23 -3 4 -14 0 -23 -8 -15 -14
-18 -14 -30 0 -19 22 -50 19 -50 -5z"/>
<path d="M4283 1033 c-28 -5 -29 -19 -3 -33 11 -6 20 -15 20 -20 0 -14 46 -60
53 -53 12 12 7 44 -8 49 -11 5 -12 11 -5 24 21 39 8 46 -57 33z"/>
<path d="M5127 1034 c-3 -4 -3 -19 0 -35 5 -25 2 -29 -15 -29 -12 0 -24 -5
-28 -11 -4 -7 -21 -9 -41 -6 -33 6 -35 5 -29 -18 8 -30 -5 -39 -30 -20 -23 17
-34 19 -34 5 0 -17 38 -53 48 -46 6 3 15 -8 21 -24 12 -36 46 -41 57 -8 4 12
2 24 -3 25 -6 2 -17 9 -26 16 -15 11 -14 14 3 35 l19 23 21 -21 c31 -31 46
-25 41 18 -1 6 5 12 14 12 8 0 15 4 15 10 0 5 6 7 13 4 18 -6 52 20 43 34 -4
7 -18 12 -31 12 -12 0 -25 7 -29 15 -6 16 -18 19 -29 9z"/>
<path d="M2134 1018 c-4 -6 1 -17 11 -25 19 -13 45 -18 45 -8 0 6 -38 45 -44
45 -3 0 -8 -5 -12 -12z"/>
<path d="M3142 1019 c2 -7 10 -15 17 -17 8 -3 12 1 9 9 -2 7 -10 15 -17 17 -8
3 -12 -1 -9 -9z"/>
<path d="M5920 1015 c0 -8 5 -15 10 -15 6 0 10 7 10 15 0 8 -4 15 -10 15 -5 0
-10 -7 -10 -15z"/>
<path d="M1240 1007 c0 -7 6 -19 13 -26 10 -10 9 -15 -5 -25 -17 -12 -17 -14
2 -31 19 -17 22 -17 37 -2 13 13 14 19 4 31 -7 8 -11 19 -8 23 3 4 -6 16 -19
26 -18 13 -24 15 -24 4z"/>
<path d="M2316 1005 c-3 -8 -3 -22 0 -30 9 -22 -14 -18 -26 5 -12 22 -40 27
-40 7 0 -16 42 -57 58 -57 16 0 15 -13 -2 -54 -12 -30 -12 -34 5 -44 10 -7 21
-12 23 -12 2 0 6 17 8 38 3 21 -1 49 -9 65 -13 26 -12 28 12 37 14 5 25 14 25
19 0 12 -28 41 -40 41 -4 0 -10 -7 -14 -15z"/>
<path d="M3300 996 c0 -13 7 -29 14 -36 11 -9 13 -18 5 -37 -13 -36 -2 -63 25
-63 15 0 27 9 34 25 14 31 16 57 3 36 -5 -7 -14 -10 -20 -7 -14 9 -14 49 0 63
8 8 4 15 -12 27 -33 23 -49 20 -49 -8z"/>
<path d="M4913 1013 c-7 -2 -13 -11 -13 -19 0 -11 8 -13 34 -9 20 4 36 2 40
-4 10 -15 36 -14 36 2 0 8 -11 19 -25 25 -27 12 -51 14 -72 5z"/>
<path d="M534 996 c-4 -9 -4 -20 0 -23 3 -4 12 -1 18 5 9 9 9 15 0 24 -9 9
-13 7 -18 -6z"/>
<path d="M1311 994 c13 -16 50 -15 56 1 1 6 -13 11 -33 12 -30 1 -34 0 -23
-13z"/>
<path d="M2971 996 c-13 -7 -20 -16 -15 -19 5 -3 20 3 33 14 27 22 17 25 -18
5z"/>
<path d="M4598 1002 c-40 -5 -47 -38 -14 -70 30 -31 45 -23 23 12 -9 13 -13
26 -10 30 3 3 18 -3 33 -14 34 -24 48 -26 26 -4 -9 8 -16 22 -16 29 0 18 -9
21 -42 17z"/>
<path d="M6084 999 c-8 -14 11 -33 25 -25 16 10 13 36 -3 36 -8 0 -18 -5 -22
-11z"/>
<path d="M974 977 c-4 -10 -2 -23 3 -28 14 -14 24 13 13 32 -7 11 -10 10 -16
-4z"/>
<path d="M6314 978 c-4 -6 1 -17 11 -25 25 -17 34 -17 42 5 4 9 11 20 17 24 6
4 -6 8 -26 8 -20 0 -40 -5 -44 -12z"/>
<path d="M2107 961 l-29 -18 31 -11 c17 -6 31 -15 31 -19 0 -5 -9 -14 -20 -21
-11 -7 -20 -16 -20 -21 0 -5 9 -13 20 -16 11 -3 20 -15 20 -26 0 -10 4 -19 9
-19 7 0 8 22 2 138 0 17 -4 32 -8 32 -5 0 -21 -9 -36 -19z"/>
<path d="M5376 971 c-18 -7 -18 -8 -3 -14 9 -3 17 -11 17 -16 0 -5 -16 -19
-35 -31 -34 -21 -35 -23 -18 -37 13 -10 15 -16 6 -19 -7 -3 -13 -12 -13 -19 0
-9 13 -12 43 -11 35 2 43 6 45 24 2 13 -3 25 -12 28 -20 8 -21 43 0 58 9 7 12
18 8 29 -7 19 -10 19 -38 8z"/>
<path d="M5873 973 c-21 -8 -15 -22 7 -16 11 3 20 9 20 14 0 10 -8 10 -27 2z"/>
<path d="M2570 954 c-50 -10 -53 -12 -27 -19 21 -6 25 -10 17 -20 -7 -9 -7
-15 -1 -19 5 -4 12 -2 16 4 3 5 17 10 31 10 21 0 24 -5 24 -35 0 -24 5 -35 15
-35 9 0 15 9 15 22 0 17 3 19 12 10 17 -17 28 -15 28 6 0 20 -29 52 -47 52 -5
0 -14 8 -19 18 -8 15 -15 16 -64 6z"/>
<path d="M4774 959 c-4 -7 -22 -9 -45 -6 -21 3 -40 2 -43 -1 -3 -3 -1 -11 5
-19 8 -9 23 -11 45 -7 27 5 34 3 34 -10 0 -9 4 -16 10 -16 14 0 43 48 35 60
-8 13 -32 13 -41 -1z"/>
<path d="M6210 952 c0 -27 -53 -82 -79 -82 -24 0 -37 -22 -25 -41 5 -9 11 -7
21 7 11 14 26 19 63 19 55 0 71 17 25 25 -28 6 -29 7 -7 14 12 4 23 16 24 27
0 10 1 24 2 31 1 6 -5 13 -11 16 -8 2 -13 -5 -13 -16z"/>
<path d="M736 951 c-3 -5 0 -14 8 -20 10 -9 15 -8 19 3 9 22 -15 37 -27 17z"/>
<path d="M2207 954 c-7 -7 34 -84 46 -84 12 0 8 25 -9 58 -15 32 -25 38 -37
26z"/>
<path d="M2927 928 c-19 -41 -15 -108 7 -120 9 -5 16 -18 16 -28 0 -11 6 -20
14 -20 24 0 29 19 12 44 -15 23 -14 24 12 31 15 4 33 11 39 17 18 15 16 65 -3
72 -24 9 -25 8 -22 -21 3 -25 -1 -28 -31 -31 -29 -3 -33 -1 -26 15 4 10 10 26
12 36 3 9 10 17 17 17 11 0 -13 20 -25 20 -4 0 -13 -15 -22 -32z"/>
<path d="M4237 954 c-3 -4 -3 -20 0 -36 5 -24 2 -30 -16 -35 -14 -3 -21 -13
-21 -29 0 -13 -9 -28 -20 -34 -11 -6 -20 -17 -20 -25 0 -19 -16 -19 -27 -1 -8
13 -52 40 -58 34 -1 -2 -5 -19 -8 -38 -7 -41 8 -66 45 -75 19 -5 28 -1 41 18
8 13 29 37 45 54 17 16 32 41 34 54 2 13 9 23 16 22 14 -3 52 32 52 48 0 10
-39 48 -51 49 -3 0 -8 -3 -12 -6z m-107 -194 c-19 -13 -30 -13 -30 0 0 6 10
10 23 10 18 0 19 -2 7 -10z"/>
<path d="M4475 951 c-3 -5 -1 -12 4 -16 7 -3 7 -15 1 -29 -5 -13 -7 -26 -4
-29 11 -10 14 -56 4 -62 -12 -8 -12 -16 0 -35 7 -12 13 -9 35 14 24 26 25 29
9 40 -16 12 -16 33 1 79 7 16 -41 52 -50 38z"/>
<path d="M5667 953 c-9 -8 -9 -43 -1 -43 3 0 17 9 30 19 20 16 21 20 8 25 -20
8 -29 8 -37 -1z"/>
<path d="M5745 940 c-15 -17 -15 -19 3 -29 11 -6 22 -7 26 -4 3 3 14 -1 23 -9
10 -9 30 -18 46 -20 25 -5 27 -3 27 29 0 23 -4 33 -12 30 -7 -2 -12 -12 -12
-21 2 -18 -14 -21 -36 -6 -13 9 -13 12 3 24 10 8 15 16 10 19 -18 11 -63 3
-78 -13z"/>
<path d="M1417 935 c-22 -11 -34 -12 -49 -4 -27 15 -48 4 -48 -25 0 -37 -10
-56 -30 -56 -20 0 -60 -49 -60 -72 0 -8 9 -23 20 -33 19 -18 20 -17 20 3 0 11
5 24 10 27 6 3 7 18 4 33 -6 25 -5 26 11 11 9 -9 19 -35 22 -58 5 -39 6 -41
17 -19 9 16 9 33 2 55 -7 27 -6 37 8 52 17 18 17 20 0 29 -15 8 -12 11 15 17
20 4 37 3 44 -4 20 -20 35 -11 39 24 2 19 4 35 3 35 0 0 -13 -7 -28 -15z"/>
<path d="M3556 932 c-4 -11 -15 -18 -29 -18 -17 1 -22 -5 -22 -24 0 -16 6 -26
18 -28 10 -2 17 3 17 12 0 19 21 21 38 4 8 -8 15 -9 22 -2 8 8 6 15 -5 24 -8
7 -15 18 -15 26 0 21 -18 26 -24 6z"/>
<path d="M5563 923 c2 -21 -4 -28 -23 -34 -22 -6 -23 -7 -4 -8 12 -1 27 -8 34
-16 15 -18 34 -9 26 12 -4 9 -1 22 5 29 9 11 8 18 -1 29 -20 24 -39 18 -37
-12z"/>
<path d="M548 929 c-21 -12 -24 -39 -5 -39 6 0 22 3 33 6 15 4 20 11 17 25 -6
21 -19 24 -45 8z"/>
<path d="M880 905 c-19 -21 -21 -25 -7 -25 9 0 17 5 17 11 0 6 12 9 27 7 21
-2 29 -10 37 -37 9 -30 7 -36 -12 -49 -12 -8 -22 -18 -22 -23 0 -5 9 -13 21
-19 17 -10 24 -7 45 15 27 29 31 63 9 71 -8 3 -17 14 -20 25 -4 10 -12 19 -20
19 -7 0 -15 7 -19 15 -8 22 -29 18 -56 -10z"/>
<path d="M4437 917 c-4 -11 -18 -17 -39 -17 -22 0 -37 -7 -46 -20 -11 -19 -10
-20 22 -20 19 0 37 -4 40 -9 3 -5 -3 -19 -13 -32 -16 -20 -21 -21 -35 -10 -13
11 -19 11 -32 0 -13 -10 -20 -10 -44 4 -21 13 -29 14 -32 5 -3 -7 1 -19 9 -26
7 -7 13 -20 13 -29 0 -11 -7 -13 -31 -8 -28 6 -30 5 -27 -16 2 -17 10 -22 36
-23 24 -1 32 3 32 17 0 13 8 17 35 17 19 0 35 -4 35 -10 0 -5 9 -10 19 -10 11
0 21 -6 24 -12 3 -9 13 -4 31 13 19 19 24 32 19 45 -6 17 -8 16 -13 -6 -7 -29
-37 -39 -46 -16 -4 10 4 27 20 43 19 19 26 33 22 49 -4 15 -1 26 9 32 12 6 14
14 7 32 -7 19 -10 20 -15 7z"/>
<path d="M5260 915 c0 -9 9 -15 24 -15 13 0 26 7 30 15 4 11 -2 15 -24 15 -20
0 -30 -5 -30 -15z"/>
<path d="M5424 923 c7 -8 16 -10 66 -20 32 -5 34 -4 21 11 -8 10 -29 16 -54
16 -22 0 -37 -3 -33 -7z"/>
<path d="M6028 906 c-15 -21 -16 -26 -3 -36 12 -10 18 -10 29 -1 10 8 16 9 21
1 9 -15 25 -12 25 5 0 8 7 15 15 15 8 0 19 9 25 20 9 16 8 20 -5 20 -8 0 -24
-9 -35 -20 -11 -11 -22 -20 -24 -20 -2 0 -6 9 -9 20 -3 11 -9 20 -14 20 -4 0
-16 -11 -25 -24z"/>
<path d="M4917 893 c-4 -3 -7 -17 -7 -29 0 -14 8 -25 21 -29 11 -4 23 -4 26
-2 3 3 2 19 -2 36 -6 29 -23 40 -38 24z"/>
<path d="M5155 881 c-16 -10 -38 -16 -47 -13 -25 6 -22 -11 7 -38 22 -20 23
-24 9 -35 -14 -10 -14 -12 0 -24 9 -7 20 -9 28 -4 7 4 24 8 37 8 13 0 26 6 29
14 3 10 -3 12 -26 6 -16 -3 -33 -2 -36 3 -3 6 12 28 34 50 22 22 40 42 40 46
0 12 -46 4 -75 -13z"/>
<path d="M5690 885 c-18 -22 0 -38 33 -30 23 6 24 9 14 26 -14 23 -30 24 -47
4z"/>
<path d="M2176 882 c-7 -12 26 -74 34 -65 12 13 -1 73 -16 73 -7 0 -15 -4 -18
-8z"/>
<path d="M2500 840 c0 -43 3 -50 20 -50 13 0 20 7 20 20 0 11 -7 23 -15 26
-17 7 -21 34 -5 34 6 0 10 5 10 10 0 6 -7 10 -15 10 -11 0 -15 -12 -15 -50z"/>
<path d="M5623 878 c-4 -7 -6 -23 -5 -34 5 -35 -49 -42 -62 -8 -3 8 -12 14
-21 14 -10 0 -15 -10 -15 -30 0 -23 5 -30 19 -30 10 0 24 -7 32 -16 12 -14 14
-14 21 5 4 12 14 21 23 21 9 0 15 9 15 21 0 12 7 27 17 34 9 7 13 17 9 23 -9
16 -23 15 -33 0z"/>
<path d="M554 864 c3 -9 6 -22 6 -30 0 -24 17 -16 22 10 3 16 0 27 -9 30 -22
9 -26 7 -19 -10z"/>
<path d="M2832 868 c-7 -7 -12 -18 -12 -25 0 -18 29 -16 37 3 8 21 -10 37 -25
22z"/>
<path d="M895 860 c4 -6 11 -8 16 -5 14 9 11 15 -7 15 -8 0 -12 -5 -9 -10z"/>
<path d="M3430 856 c0 -8 5 -18 10 -21 8 -5 7 -11 -1 -21 -14 -17 -4 -48 14
-41 17 6 40 -12 54 -45 7 -16 20 -28 28 -28 18 0 13 13 -19 48 -16 18 -18 27
-9 40 8 14 5 24 -18 50 -30 33 -59 42 -59 18z"/>
<path d="M3627 863 c-4 -3 -7 -15 -7 -25 0 -11 -7 -18 -18 -18 -10 0 -25 -13
-35 -29 -18 -30 -23 -71 -9 -71 13 0 32 23 32 39 0 9 15 23 32 32 23 11 34 25
39 47 5 26 3 32 -11 32 -9 0 -20 -3 -23 -7z"/>
<path d="M3963 843 c1 -16 8 -28 15 -28 6 0 12 3 12 8 0 4 0 16 0 27 0 11 -6
20 -14 20 -10 0 -14 -9 -13 -27z"/>
<path d="M5275 860 c3 -5 10 -10 16 -10 5 0 9 5 9 10 0 6 -7 10 -16 10 -8 0
-12 -4 -9 -10z"/>
<path d="M780 844 c0 -8 5 -12 10 -9 6 4 8 11 5 16 -9 14 -15 11 -15 -7z"/>
<path d="M5432 822 c-6 -14 -12 -31 -12 -38 0 -13 65 -74 80 -74 27 0 14 53
-18 74 -8 4 -19 21 -26 36 l-11 28 -13 -26z"/>
<path d="M2574 809 c4 -20 1 -38 -6 -47 -11 -14 -10 -15 7 -8 46 19 52 18 59
-8 5 -21 12 -25 40 -24 l33 1 -57 59 c-31 32 -63 58 -70 58 -9 0 -11 -9 -6
-31z"/>
<path d="M820 815 c0 -8 5 -15 10 -15 6 0 10 -11 10 -25 0 -28 12 -32 29 -11
9 11 7 20 -12 40 -28 30 -37 32 -37 11z"/>
<path d="M3906 815 c-4 -11 1 -15 19 -15 28 0 33 15 9 24 -21 8 -21 8 -28 -9z"/>
<path d="M4012 815 c-11 -13 -9 -15 8 -15 11 0 20 7 20 15 0 19 -11 19 -28 0z"/>
<path d="M5866 823 c-10 -3 -28 -13 -38 -23 -16 -15 -18 -22 -9 -39 7 -12 15
-21 19 -21 11 0 62 64 62 78 0 12 -2 13 -34 5z"/>
<path d="M640 810 c0 -5 5 -10 10 -10 6 0 10 5 10 10 0 6 -4 10 -10 10 -5 0
-10 -4 -10 -10z"/>
<path d="M4935 810 c-3 -5 -12 -7 -20 -3 -9 3 -15 -1 -15 -10 0 -20 32 -77 44
-77 5 0 6 16 3 35 -3 19 -1 37 4 40 12 8 12 25 0 25 -6 0 -12 -4 -16 -10z"/>
<path d="M1111 796 c-9 -11 -7 -19 12 -39 22 -25 23 -25 35 -6 9 14 10 25 2
39 -13 23 -33 26 -49 6z"/>
<path d="M1600 795 c0 -24 -29 -29 -50 -10 -11 10 -22 16 -24 14 -2 -2 -1 -18
1 -35 5 -35 37 -56 70 -48 16 4 20 15 21 50 0 24 -4 44 -9 44 -5 0 -9 -7 -9
-15z"/>
<path d="M2257 785 c-18 -25 -10 -39 17 -29 16 6 22 39 9 47 -5 3 -16 -6 -26
-18z"/>
<path d="M2680 794 c0 -14 3 -14 15 -4 8 7 15 14 15 16 0 2 -7 4 -15 4 -8 0
-15 -7 -15 -16z"/>
<path d="M2840 800 c-13 -9 -12 -12 4 -25 20 -15 20 -15 0 -29 -14 -11 -16
-17 -7 -27 9 -9 16 -2 30 28 11 21 18 44 15 51 -5 15 -22 15 -42 2z"/>
<path d="M5245 800 c-3 -5 -3 -26 1 -46 5 -25 14 -38 32 -45 13 -5 27 -7 30
-4 3 3 0 5 -8 5 -9 0 -11 12 -6 50 6 48 6 50 -18 50 -14 0 -28 -4 -31 -10z"/>
<path d="M770 780 c-11 -11 -20 -28 -19 -37 0 -11 3 -13 6 -5 2 6 10 12 17 12
13 0 46 31 46 43 0 14 -31 6 -50 -13z"/>
<path d="M2175 790 c-7 -11 31 -70 45 -70 19 0 20 20 1 29 -13 7 -17 17 -14
31 4 14 0 20 -10 20 -9 0 -19 -5 -22 -10z"/>
<path d="M2440 784 c0 -8 7 -14 15 -14 8 0 15 -4 15 -10 0 -5 -9 -10 -20 -10
-11 0 -20 -4 -20 -10 0 -11 6 -12 38 -4 14 4 22 14 22 29 0 16 -7 24 -25 27
-17 4 -25 1 -25 -8z"/>
<path d="M4815 790 c-4 -6 7 -10 24 -10 17 0 31 5 31 10 0 6 -11 10 -24 10
-14 0 -28 -4 -31 -10z"/>
<path d="M5032 788 c3 -7 17 -15 33 -16 25 -3 27 -2 16 12 -16 19 -55 22 -49
4z"/>
<path d="M1025 773 c27 -25 65 -36 65 -18 0 17 -6 21 -50 30 -35 7 -35 7 -15
-12z"/>
<path d="M3968 763 c-23 -25 -23 -33 0 -33 10 0 23 -5 30 -12 14 -14 17 3 3
18 -5 5 -11 17 -13 28 -3 18 -4 18 -20 -1z"/>
<path d="M4530 763 c1 -5 10 -19 21 -32 15 -18 23 -21 31 -13 9 9 7 17 -7 32
-18 20 -45 27 -45 13z"/>
<path d="M3048 753 c-20 -5 -31 -30 -15 -36 7 -2 29 -2 50 1 23 2 37 10 37 18
0 8 -6 14 -14 14 -8 0 -20 2 -28 4 -7 2 -20 2 -30 -1z"/>
<path d="M2120 735 c0 -8 7 -15 15 -15 8 0 15 7 15 15 0 8 -7 15 -15 15 -8 0
-15 -7 -15 -15z"/>
<path d="M2920 741 c0 -5 5 -13 10 -16 6 -3 10 -2 10 4 0 5 -4 13 -10 16 -5 3
-10 2 -10 -4z"/>
<path d="M3455 731 c-3 -5 -1 -12 5 -16 5 -3 10 1 10 9 0 18 -6 21 -15 7z"/>
<path d="M4852 728 c6 -18 28 -21 28 -4 0 9 -7 16 -16 16 -9 0 -14 -5 -12 -12z"/>
<path d="M537 2840 c-15 -16 -31 -30 -36 -30 -5 0 -7 -9 -4 -20 3 -11 13 -20
22 -20 10 0 32 13 50 29 25 22 31 35 26 50 -3 12 -12 21 -19 21 -7 0 -25 -13
-39 -30z"/>
<path d="M894 2836 c-7 -17 53 -75 78 -76 12 0 15 6 11 23 -13 51 -76 88 -89
53z"/>
<path d="M5458 2825 c-28 -24 -37 -58 -18 -70 14 -9 90 64 83 81 -8 21 -34 17
-65 -11z"/>
<path d="M5820 2808 c1 -14 25 -45 51 -66 16 -12 49 -7 49 8 0 5 -12 22 -26
39 -16 19 -35 31 -50 31 -13 0 -24 -6 -24 -12z"/>
<path d="M6496 2774 c-4 -11 -1 -14 11 -12 9 2 18 9 21 16 6 18 -25 15 -32 -4z"/>
<path d="M444 2727 c-12 -12 -24 -32 -28 -44 -5 -16 -2 -25 12 -32 16 -8 23
-5 41 20 22 30 25 70 6 76 -5 1 -19 -7 -31 -20z"/>
<path d="M5376 2719 c-33 -39 -34 -69 -3 -69 17 0 29 11 45 40 20 39 20 40 2
50 -15 8 -23 4 -44 -21z"/>
<path d="M997 2733 c-14 -13 -6 -49 16 -77 27 -33 47 -28 47 10 0 45 -41 89
-63 67z"/>
<path d="M5910 2690 c0 -29 42 -91 60 -87 21 3 25 51 6 67 -9 7 -16 19 -16 26
0 8 -10 14 -25 14 -18 0 -25 -5 -25 -20z"/>
<path d="M376 2612 c-3 -3 -6 -16 -6 -29 0 -12 -4 -23 -10 -23 -5 0 -10 -13
-10 -30 0 -38 21 -39 49 -4 27 35 28 80 2 87 -11 3 -22 2 -25 -1z"/>
<path d="M5800 2610 c0 -5 5 -10 10 -10 6 0 10 5 10 10 0 6 -4 10 -10 10 -5 0
-10 -4 -10 -10z"/>
<path d="M1067 2603 c-22 -21 12 -103 43 -103 10 0 22 5 25 10 4 6 -3 31 -15
55 -20 42 -37 54 -53 38z"/>
<path d="M5291 2569 c-17 -32 -19 -44 -10 -55 18 -22 38 -16 50 14 6 15 15 35
20 44 14 28 11 38 -15 38 -18 0 -29 -10 -45 -41z"/>
<path d="M5976 2565 c-8 -21 13 -74 34 -85 9 -5 20 -6 24 -3 10 10 7 62 -4 84
-13 22 -45 25 -54 4z"/>
<path d="M1220 2544 c0 -8 5 -12 10 -9 6 4 8 11 5 16 -9 14 -15 11 -15 -7z"/>
<path d="M326 2461 c-9 -10 -20 -35 -23 -56 -6 -36 -5 -37 23 -33 27 3 29 7
32 47 2 24 -1 48 -6 53 -5 5 -16 1 -26 -11z"/>
<path d="M5257 2473 c-4 -3 -7 -15 -7 -25 0 -11 -7 -26 -15 -35 -21 -21 -14
-38 15 -38 31 0 56 41 46 78 -6 26 -25 35 -39 20z"/>
<path d="M1117 2453 c-4 -3 -7 -17 -7 -29 0 -25 20 -74 29 -74 3 0 15 7 25 15
16 12 17 18 8 27 -7 7 -12 25 -12 40 0 20 -5 28 -18 28 -10 0 -22 -3 -25 -7z"/>
<path d="M6033 2427 c-11 -18 -4 -70 12 -86 7 -7 21 -11 29 -8 18 7 21 49 6
76 -12 24 -37 33 -47 18z"/>
<path d="M5224 2322 c-26 -20 -38 -54 -29 -82 11 -35 39 -23 57 24 13 34 14
48 5 60 -11 14 -14 14 -33 -2z"/>
<path d="M281 2316 c-15 -18 -10 -98 6 -104 8 -2 21 16 33 43 16 36 18 51 9
61 -15 18 -33 18 -48 0z"/>
<path d="M1157 2323 c-4 -3 -7 -31 -7 -61 0 -51 1 -54 23 -48 12 3 25 6 30 6
11 0 8 21 -9 67 -16 42 -24 50 -37 36z"/>
<path d="M6071 2286 c-15 -18 -3 -93 16 -100 8 -4 19 -4 24 0 13 8 11 88 -3
102 -16 16 -23 15 -37 -2z"/>
<path d="M7935 2189 c-4 -6 3 -17 15 -26 20 -14 21 -21 16 -85 -3 -38 -11 -78
-17 -90 -6 -11 -9 -21 -7 -23 3 -3 56 -8 77 -6 11 1 11 5 -2 24 -15 22 -28
124 -16 129 3 2 21 -15 40 -37 19 -22 37 -41 42 -43 4 -2 7 -9 7 -16 0 -16 47
-60 52 -49 3 4 6 48 6 97 1 49 7 95 13 102 6 7 8 18 4 24 -7 11 -58 14 -68 4
-3 -4 0 -16 8 -28 17 -23 20 -92 5 -101 -5 -3 -17 7 -27 22 -16 25 -47 68 -74
101 -12 15 -65 16 -74 1z"/>
<path d="M8213 2178 c-12 -13 -26 -40 -31 -61 -15 -54 8 -115 53 -144 19 -13
43 -23 53 -23 9 0 34 13 53 30 24 19 40 44 49 73 10 38 10 49 -5 76 -28 56
-50 71 -103 71 -37 0 -53 -5 -69 -22z m107 -28 c11 -11 20 -23 21 -27 6 -61 4
-70 -24 -100 -17 -18 -35 -33 -40 -33 -5 0 -17 10 -28 23 -26 31 -26 110 1
137 11 11 27 20 35 20 8 0 24 -9 35 -20z"/>
<path d="M8403 2184 c-3 -8 -1 -20 5 -26 8 -8 15 -8 25 1 11 9 17 8 27 -4 16
-19 8 -148 -10 -170 -7 -9 -11 -17 -9 -19 2 -2 24 -5 49 -7 35 -2 44 0 40 12
-8 26 -11 199 -3 199 4 0 17 -7 27 -15 31 -24 48 -19 44 13 l-3 27 -93 3 c-76
2 -94 -1 -99 -14z"/>
<path d="M8667 2194 c-11 -11 -8 -54 3 -54 6 0 21 7 34 15 21 14 24 14 30 0 9
-23 -3 -157 -16 -172 -16 -20 -2 -29 42 -25 32 3 40 8 36 21 -3 9 -7 49 -10
90 -4 48 -2 78 5 88 8 9 15 10 24 3 17 -14 47 -1 43 19 -3 13 -20 17 -94 19
-49 1 -93 0 -97 -4z"/>
<path d="M8901 2174 c-17 -14 -36 -42 -42 -63 -9 -32 -8 -43 11 -84 14 -30 34
-54 53 -64 26 -13 37 -14 66 -3 45 16 71 38 71 61 0 10 5 21 10 24 6 3 10 24
10 46 0 21 -4 39 -10 39 -5 0 -10 6 -10 13 0 8 -10 23 -23 35 -34 32 -96 30
-136 -4z m103 -30 c9 -9 16 -32 16 -56 0 -51 -27 -98 -56 -98 -16 0 -28 12
-43 43 -12 24 -21 50 -21 59 0 8 9 27 21 42 23 29 60 34 83 10z"/>
<path d="M258 2168 c-29 -23 -25 -88 5 -88 19 0 49 57 42 80 -7 23 -24 26 -47
8z"/>
<path d="M1174 2166 c-3 -7 -4 -33 -2 -57 3 -39 6 -44 28 -44 23 0 25 3 22 44
-3 44 -16 71 -34 71 -5 0 -11 -6 -14 -14z"/>
<path d="M5174 2166 c-8 -22 0 -99 11 -103 22 -7 38 18 43 66 4 50 4 51 -22
51 -15 0 -29 -6 -32 -14z"/>
<path d="M6084 2140 c-5 -5 -7 -31 -4 -57 4 -43 8 -48 30 -48 22 0 25 5 28 43
4 58 -25 91 -54 62z"/>
<path d="M242 2023 c-12 -10 -22 -33 -24 -53 -3 -33 -1 -35 27 -35 27 0 30 3
33 37 2 21 -1 45 -6 53 -7 14 -11 14 -30 -2z"/>
<path d="M1189 2013 c0 -4 -2 -23 -3 -40 -4 -36 15 -59 39 -49 12 4 15 17 13
48 -2 36 -7 44 -25 46 -13 2 -23 0 -24 -5z"/>
<path d="M5157 2013 c-2 -5 -5 -25 -6 -46 -2 -38 -1 -38 31 -35 27 2 33 7 35
28 3 42 -7 60 -32 60 -13 0 -26 -3 -28 -7z"/>
<path d="M6107 1993 c-13 -12 -7 -81 8 -93 12 -10 16 -8 25 15 12 30 12 47 4
69 -6 16 -26 21 -37 9z"/>
<path d="M7860 1976 c0 -9 5 -16 10 -16 6 0 10 4 10 9 0 6 -4 13 -10 16 -5 3
-10 -1 -10 -9z"/>
<path d="M7860 1840 c0 -5 5 -10 10 -10 6 0 10 5 10 10 0 6 -4 10 -10 10 -5 0
-10 -4 -10 -10z"/>
<path d="M8194 1821 c-49 -30 -74 -68 -74 -115 0 -32 7 -50 31 -79 27 -33 36
-37 75 -37 25 0 54 5 65 11 15 7 24 7 34 -1 8 -6 24 -10 37 -8 17 2 24 11 28
33 4 25 10 30 35 30 27 0 30 -3 30 -30 l1 -30 123 -3 c105 -2 127 0 142 14 20
18 25 49 11 58 -5 3 -16 -4 -25 -15 -9 -10 -25 -19 -36 -19 -11 0 -26 -3 -35
-6 -14 -5 -16 5 -16 71 0 42 5 85 10 95 6 10 7 21 2 23 -4 3 -25 8 -46 12
l-39 8 7 -29 c4 -16 11 -55 17 -87 10 -62 0 -97 -26 -97 -15 0 -68 105 -80
159 -4 17 -11 34 -17 37 -14 9 -48 -32 -48 -57 0 -10 -4 -19 -9 -19 -4 0 -16
-21 -26 -47 -10 -27 -21 -52 -26 -57 -5 -6 -17 -2 -30 10 -19 17 -21 18 -30 1
-11 -19 -50 -22 -79 -7 -22 12 -33 51 -24 94 10 58 87 73 100 20 3 -13 10 -24
14 -24 16 0 31 30 28 57 -2 21 -9 29 -28 31 -14 2 -29 8 -34 13 -14 13 -27 11
-62 -10z m248 -116 c13 -28 6 -40 -17 -32 -17 7 -21 57 -5 57 6 0 16 -11 22
-25z"/>
<path d="M7988 1814 c-22 -12 -28 -22 -28 -49 0 -19 6 -39 13 -45 6 -6 30 -21
51 -33 22 -12 41 -27 43 -34 5 -15 -31 -35 -50 -27 -8 3 -17 14 -20 25 -7 26
-25 24 -39 -5 -19 -42 -5 -56 56 -56 65 0 86 16 86 65 0 25 -7 39 -26 52 -14
10 -37 28 -52 40 -25 20 -26 23 -11 38 15 15 18 14 46 -9 17 -14 33 -23 37
-19 3 3 6 17 6 30 0 16 -8 27 -26 33 -34 13 -54 12 -86 -6z"/>
<path d="M8740 1809 c0 -9 6 -22 14 -28 9 -8 13 -32 11 -81 -2 -39 -8 -77 -15
-84 -6 -8 -7 -17 -2 -19 4 -3 45 -6 90 -6 70 0 83 3 92 19 5 10 7 26 4 34 -8
20 -33 21 -40 2 -7 -19 -43 -27 -66 -15 -11 6 -18 21 -18 39 0 25 4 30 25 30
14 0 28 -7 31 -15 4 -8 13 -15 21 -15 10 0 13 9 11 33 -3 31 -4 32 -45 29 -37
-3 -43 -1 -43 16 0 11 6 25 14 31 11 9 23 8 52 -4 46 -19 64 -7 44 29 -12 24
-17 25 -96 23 -70 -2 -84 -5 -84 -18z"/>
<path d="M6485 790 c-3 -5 1 -10 9 -10 9 0 16 5 16 10 0 6 -4 10 -9 10 -6 0
-13 -4 -16 -10z"/>
<path d="M2833 613 c-13 -2 -31 -16 -42 -29 -24 -30 -18 -58 8 -44 10 5 23 16
31 24 18 22 29 20 41 -8 10 -21 7 -30 -17 -62 -16 -21 -39 -48 -51 -60 -13
-13 -23 -30 -23 -39 0 -12 13 -15 70 -15 60 0 71 3 80 21 7 11 9 27 6 35 -4
11 -11 11 -31 4 -54 -21 -59 -7 -15 42 22 24 30 42 30 69 0 28 -6 41 -25 53
-13 9 -28 15 -32 15 -4 -1 -18 -4 -30 -6z"/>
<path d="M930 550 c-30 -16 -68 -31 -83 -35 -19 -4 -27 -11 -25 -22 3 -18 21
-29 59 -37 14 -3 42 -17 63 -31 20 -14 41 -25 46 -25 5 0 10 14 12 31 l3 30
680 -1 c374 0 696 -3 715 -5 42 -6 66 1 74 20 15 40 8 40 -747 40 l-727 0 0
33 c0 17 -3 32 -7 31 -5 0 -33 -13 -63 -29z"/>
<path d="M5394 559 c-3 -6 -1 -16 5 -22 37 -37 40 -37 -891 -39 l-903 -3 -3
-23 -3 -22 423 0 c233 0 638 0 902 0 l478 0 -6 -25 c-9 -37 15 -41 61 -11 21
13 57 30 81 36 23 6 42 17 42 24 0 7 -31 27 -69 44 -39 18 -73 36 -76 42 -8
13 -32 13 -41 -1z"/>
<path d="M3033 542 c-25 -4 -30 -17 -12 -28 8 -4 10 -29 6 -70 l-5 -64 34 0
c18 0 36 5 39 10 3 6 -1 17 -9 26 -9 8 -16 31 -16 49 0 24 6 38 20 45 19 10
20 8 20 -59 l0 -69 70 0 70 0 0 56 c0 32 -6 68 -13 81 -11 23 -17 25 -97 25
-47 1 -95 0 -107 -2z m162 -81 c0 -23 -3 -47 -6 -53 -11 -17 -39 23 -39 56 0
37 7 48 30 44 11 -2 15 -16 15 -47z"/>
<path d="M2750 335 c7 -9 15 -13 17 -11 7 7 -7 26 -19 26 -6 0 -6 -6 2 -15z"/>
<path d="M5555 340 c3 -5 13 -10 21 -10 8 0 14 5 14 10 0 6 -9 10 -21 10 -11
0 -17 -4 -14 -10z"/>
<path d="M828 323 c6 -2 18 -2 25 0 6 3 1 5 -13 5 -14 0 -19 -2 -12 -5z"/>
<path d="M4884 256 c-6 -17 12 -56 26 -56 12 0 30 33 30 54 0 20 -48 22 -56 2z"/>
</g>
</svg>
