<?xml version="1.0" standalone="no"?>
<!DOCTYPE svg PUBLIC "-//W3C//DTD SVG 20010904//EN"
 "http://www.w3.org/TR/2001/REC-SVG-20010904/DTD/svg10.dtd">
<svg version="1.0" xmlns="http://www.w3.org/2000/svg"
 width="1200.000000pt" height="394.000000pt" viewBox="0 0 1200.000000 394.000000"
 preserveAspectRatio="xMidYMid meet">
<g transform="translate(0.000000,394.000000) scale(0.100000,-0.100000)"
fill="#ffffff" stroke="none">
<path d="M9222 3684 c-12 -8 -22 -22 -22 -29 0 -18 48 -31 62 -17 12 12 7 54
-7 59 -6 2 -20 -4 -33 -13z"/>
<path d="M6207 3643 c-13 -12 -7 -23 13 -23 11 0 20 7 20 15 0 15 -21 21 -33
8z"/>
<path d="M8691 3611 c-9 -6 -10 -11 -2 -15 16 -10 13 -88 -4 -110 -8 -11 -15
-32 -15 -48 0 -21 -6 -29 -26 -34 -16 -4 -24 -12 -22 -23 2 -12 17 -17 57 -19
l54 -3 -8 28 c-10 43 -8 75 6 84 19 11 29 2 29 -27 0 -14 7 -38 15 -54 12 -23
22 -30 45 -30 16 0 32 5 36 11 3 6 -8 25 -25 43 -33 34 -43 86 -17 86 20 0 46
44 39 69 -3 12 -18 28 -34 36 -31 16 -106 20 -128 6z m104 -50 c9 -29 -5 -52
-29 -49 -24 4 -33 33 -16 53 17 21 37 19 45 -4z"/>
<path d="M8488 3403 c-10 -2 -18 -9 -18 -14 0 -5 -12 -9 -27 -9 -16 0 -41 -7
-57 -15 -15 -8 -38 -15 -50 -15 -11 0 -30 -7 -40 -15 -11 -8 -30 -15 -42 -15
-13 0 -26 -4 -29 -10 -3 -5 -16 -10 -28 -10 -12 0 -34 -6 -49 -14 -15 -8 -40
-17 -57 -21 -17 -4 -33 -11 -36 -16 -4 -5 -17 -9 -29 -9 -13 0 -37 -7 -52 -15
-16 -8 -36 -15 -45 -15 -8 0 -24 -7 -35 -15 -10 -8 -31 -15 -46 -15 -15 0 -30
-4 -33 -10 -3 -5 -19 -10 -34 -10 -15 0 -36 -7 -47 -15 -10 -8 -31 -15 -45
-15 -15 0 -32 -7 -39 -15 -7 -8 -23 -15 -36 -15 -14 0 -32 -4 -42 -9 -42 -21
-180 -71 -198 -71 -10 0 -28 -7 -38 -15 -11 -8 -29 -15 -40 -15 -12 0 -30 -7
-40 -15 -11 -8 -30 -15 -42 -15 -13 0 -26 -4 -29 -10 -3 -5 -17 -10 -29 -10
-13 0 -29 -7 -36 -15 -7 -8 -25 -15 -39 -15 -15 0 -36 -7 -47 -15 -10 -8 -31
-15 -46 -15 -15 0 -30 -4 -33 -10 -3 -5 -17 -10 -29 -10 -13 0 -29 -7 -36 -15
-7 -8 -25 -15 -41 -15 -15 0 -34 -7 -43 -15 -8 -8 -26 -15 -39 -15 -14 0 -39
-7 -56 -15 -17 -8 -45 -22 -62 -30 -17 -8 -39 -15 -49 -15 -10 0 -22 -4 -25
-10 -3 -5 -19 -10 -34 -10 -16 0 -34 -7 -41 -15 -7 -8 -23 -15 -36 -15 -12 0
-29 -7 -38 -15 -8 -8 -26 -15 -40 -15 -14 0 -28 -4 -31 -10 -3 -5 -17 -10 -31
-10 -14 0 -44 -10 -67 -22 -69 -35 -76 -38 -99 -38 -13 0 -32 -7 -42 -15 -11
-8 -29 -15 -40 -15 -12 0 -30 -7 -40 -15 -11 -8 -32 -15 -47 -15 -15 0 -31 -4
-34 -10 -3 -6 -16 -10 -29 -10 -12 0 -31 -7 -42 -15 -10 -8 -28 -15 -39 -15
-11 0 -29 -7 -39 -15 -11 -8 -30 -15 -42 -15 -12 0 -35 -7 -50 -15 -16 -8 -37
-15 -46 -15 -9 0 -20 -4 -23 -10 -3 -5 -19 -10 -34 -10 -16 0 -34 -7 -41 -15
-7 -8 -25 -15 -40 -15 -15 0 -33 -7 -40 -15 -7 -8 -24 -15 -39 -15 -14 0 -35
-7 -45 -15 -11 -8 -30 -15 -42 -15 -13 0 -26 -4 -29 -10 -3 -5 -19 -10 -34
-10 -15 0 -36 -7 -47 -15 -10 -8 -31 -15 -45 -15 -15 0 -32 -7 -39 -15 -7 -8
-21 -15 -32 -15 -24 0 -120 -30 -133 -41 -5 -5 -18 -9 -30 -9 -12 0 -30 -7
-41 -15 -10 -8 -28 -15 -39 -15 -11 0 -29 -7 -39 -15 -11 -8 -29 -15 -40 -15
-12 0 -30 -7 -40 -15 -11 -8 -32 -15 -47 -15 -15 0 -31 -4 -34 -10 -3 -6 -19
-10 -34 -10 -16 0 -34 -7 -41 -15 -7 -8 -25 -15 -40 -15 -15 0 -33 -7 -40 -15
-7 -8 -25 -15 -41 -15 -15 0 -31 -4 -34 -10 -3 -5 -17 -10 -29 -10 -13 0 -35
-9 -50 -21 -14 -11 -30 -18 -34 -15 -5 3 -21 -2 -36 -10 -16 -7 -41 -14 -56
-14 -15 0 -33 -7 -40 -15 -7 -9 -19 -14 -26 -11 -6 2 -28 -4 -48 -15 -20 -10
-45 -19 -55 -19 -11 0 -23 -4 -26 -10 -3 -5 -19 -10 -34 -10 -15 0 -36 -7 -47
-15 -10 -8 -28 -15 -39 -15 -11 0 -29 -7 -39 -15 -11 -8 -30 -15 -42 -15 -13
0 -26 -4 -29 -10 -3 -5 -14 -10 -23 -10 -10 0 -34 -9 -55 -20 -21 -11 -42 -18
-46 -16 -4 3 -17 -1 -27 -9 -10 -8 -26 -15 -35 -15 -9 0 -30 -7 -45 -15 -16
-8 -39 -15 -50 -15 -12 0 -27 -7 -34 -15 -7 -8 -25 -15 -41 -15 -16 0 -29 -4
-29 -9 0 -5 -15 -11 -32 -14 -37 -5 -89 -22 -131 -43 -16 -8 -36 -14 -46 -14
-9 0 -22 -5 -28 -11 -7 -7 -22 -13 -35 -15 -31 -4 -111 -33 -123 -45 -5 -5
-21 -9 -35 -9 -14 0 -35 -7 -46 -15 -10 -8 -31 -15 -45 -15 -15 0 -32 -7 -39
-15 -7 -8 -25 -15 -41 -15 -15 0 -31 -5 -34 -10 -3 -6 -16 -10 -28 -10 -12 0
-31 -7 -41 -15 -11 -8 -30 -15 -42 -15 -12 0 -27 -7 -34 -15 -7 -8 -25 -15
-41 -15 -15 0 -30 -4 -33 -9 -3 -5 -21 -12 -40 -15 -19 -4 -39 -13 -46 -21 -7
-8 -27 -15 -46 -15 -18 0 -36 -4 -39 -10 -3 -5 -18 -10 -33 -10 -15 0 -36 -7
-46 -15 -11 -8 -29 -15 -41 -15 -12 0 -30 -7 -41 -15 -10 -8 -29 -15 -41 -15
-12 0 -25 -4 -28 -10 -3 -5 -19 -10 -34 -10 -16 0 -34 -7 -41 -15 -7 -8 -21
-15 -32 -15 -11 0 -32 -6 -46 -14 -15 -8 -47 -20 -72 -27 -41 -11 -108 -38
-152 -60 -10 -5 -28 -9 -40 -9 -13 0 -32 -7 -42 -15 -11 -8 -30 -15 -42 -15
-12 0 -27 -7 -34 -15 -7 -8 -25 -15 -41 -15 -15 0 -31 -5 -34 -10 -3 -6 -16
-10 -29 -10 -12 0 -31 -7 -42 -15 -10 -8 -31 -15 -45 -15 -15 0 -32 -7 -39
-15 -7 -8 -25 -15 -41 -15 -15 0 -31 -4 -34 -10 -3 -5 -14 -10 -23 -10 -10 0
-34 -9 -55 -20 -20 -11 -46 -20 -56 -20 -11 0 -23 -5 -26 -10 -3 -6 -17 -10
-29 -10 -13 0 -37 -7 -52 -15 -16 -8 -36 -15 -45 -15 -8 0 -24 -7 -35 -15 -10
-8 -29 -15 -41 -15 -12 0 -25 -5 -28 -10 -3 -6 -16 -10 -29 -10 -12 0 -31 -7
-42 -15 -10 -8 -31 -15 -45 -15 -15 0 -32 -7 -39 -15 -7 -8 -23 -15 -37 -15
-13 0 -34 -6 -46 -12 -12 -7 -38 -13 -57 -13 -29 0 -36 -4 -38 -24 l-4 -23
454 5 c249 3 534 10 633 16 99 5 349 10 555 11 206 1 447 8 535 15 104 9 357
14 720 14 519 1 942 8 956 17 3 2 449 4 990 5 541 1 1063 6 1159 11 455 24
424 21 428 43 2 11 9 25 15 30 7 6 22 30 35 55 12 25 36 68 52 95 16 28 32 57
36 65 3 8 10 22 15 30 5 8 13 25 18 37 6 11 15 24 20 28 6 3 11 13 11 22 0 8
10 29 23 46 26 37 44 66 53 87 17 41 35 74 117 219 26 46 47 89 47 97 0 8 4
14 9 14 4 0 30 42 56 93 26 50 54 99 61 108 8 8 14 21 14 27 0 7 14 31 30 54
17 22 30 49 30 60 0 10 4 18 8 18 5 0 17 18 27 40 10 22 24 45 32 51 7 6 13
20 13 30 0 11 3 19 8 19 4 0 23 30 42 68 19 37 41 73 47 80 7 7 13 19 13 27 0
7 7 15 15 19 8 3 15 12 15 20 0 12 41 89 112 212 9 16 30 54 47 85 16 30 36
61 45 68 9 8 16 22 16 33 0 11 14 39 30 63 17 24 30 48 30 53 0 6 3 12 8 14 4
2 15 19 25 38 9 19 28 55 42 79 14 24 25 50 25 57 0 7 6 17 13 21 6 4 21 26
31 48 11 22 30 54 43 72 13 17 23 38 23 46 0 8 7 20 15 27 8 7 15 18 15 25 0
7 7 18 15 25 8 7 15 19 15 26 0 7 14 33 30 57 20 27 29 49 24 60 -3 9 -9 16
-13 16 -3 -1 -14 -3 -23 -6z m-46 -69 c6 -5 -6 -26 -74 -132 -10 -15 -20 -34
-24 -42 -3 -8 -10 -22 -15 -30 -5 -8 -13 -24 -19 -35 -5 -11 -23 -42 -39 -70
-17 -27 -42 -72 -56 -100 -14 -27 -31 -59 -37 -69 -51 -79 -78 -127 -78 -140
0 -8 -5 -18 -11 -21 -5 -4 -14 -17 -20 -28 -5 -12 -15 -31 -21 -42 -39 -60
-58 -96 -58 -109 0 -8 -6 -19 -14 -23 -7 -4 -22 -26 -32 -48 -10 -22 -35 -68
-56 -102 -21 -35 -38 -68 -38 -74 0 -7 -6 -17 -14 -23 -8 -6 -29 -40 -47 -76
-18 -36 -43 -79 -56 -97 -12 -17 -23 -40 -23 -51 0 -11 -6 -22 -14 -25 -7 -3
-28 -35 -46 -71 -17 -36 -36 -68 -41 -71 -5 -4 -9 -14 -9 -24 0 -10 -7 -24
-16 -31 -8 -8 -28 -38 -43 -69 -15 -31 -37 -72 -49 -91 -12 -19 -36 -64 -53
-100 -18 -36 -38 -72 -45 -80 -6 -8 -27 -44 -45 -78 -35 -65 -78 -145 -118
-217 -12 -22 -26 -48 -32 -58 -5 -9 -14 -25 -19 -35 -6 -9 -14 -27 -19 -39 -6
-11 -15 -24 -20 -28 -6 -3 -11 -15 -11 -26 0 -10 -4 -19 -9 -19 -5 0 -13 -10
-17 -22 -3 -13 -16 -36 -27 -52 -11 -15 -23 -42 -26 -60 -8 -37 -38 -47 -58
-20 -17 25 -199 206 -451 452 -400 388 -678 660 -859 842 -196 196 -205 211
-132 218 19 2 38 8 43 13 6 5 19 9 30 9 12 0 34 7 50 15 15 8 38 15 51 15 12
0 28 7 35 15 7 8 25 15 40 15 15 0 33 6 39 14 6 8 25 17 41 20 17 3 45 9 63
12 17 4 41 13 52 20 11 8 29 14 41 14 12 0 27 7 34 15 7 8 25 15 41 15 16 0
37 4 47 9 71 35 96 45 109 47 9 2 20 7 26 13 6 6 25 11 43 11 17 0 37 7 44 15
7 8 25 15 40 15 15 0 33 7 40 15 7 8 21 15 31 15 10 0 21 5 24 10 3 6 21 10
39 10 19 0 39 7 46 15 7 8 21 15 32 15 11 0 32 6 46 14 15 8 47 19 72 26 25 7
56 18 70 25 14 7 40 16 57 20 18 3 35 11 38 16 4 5 14 9 24 9 10 0 32 7 47 15
16 8 36 15 44 15 8 0 24 7 34 15 11 8 30 15 42 15 13 0 26 5 29 10 3 6 18 10
32 10 13 0 37 6 51 13 15 8 42 21 60 30 19 9 44 17 57 17 13 0 27 5 30 10 3 6
19 10 34 10 16 0 34 7 41 15 7 8 20 15 29 15 9 0 29 7 45 15 15 8 38 15 50 15
11 0 30 7 40 15 11 8 32 15 47 15 14 0 32 7 39 15 7 8 23 15 36 15 14 0 32 4
42 9 32 16 87 33 119 38 18 3 38 11 44 19 6 8 24 14 40 14 16 0 29 4 29 9 0 5
15 12 33 16 49 10 99 26 129 41 14 8 35 14 46 14 11 0 35 8 54 17 18 9 45 22
60 30 14 7 34 13 45 13 10 0 27 7 37 15 21 16 30 18 38 9z m-2706 -1359 c116
-115 280 -277 364 -358 l152 -149 -47 -45 c-25 -26 -55 -63 -65 -84 -11 -21
-24 -40 -29 -44 -5 -3 -21 -30 -35 -60 -14 -29 -31 -57 -36 -60 -6 -3 -10 -19
-10 -34 0 -16 -7 -34 -15 -41 -8 -7 -15 -21 -15 -32 0 -11 -5 -29 -11 -40 -14
-26 -29 -117 -36 -215 l-5 -73 -791 -1 c-436 0 -848 -2 -917 -5 -69 -2 -255
-8 -415 -14 -159 -5 -494 -10 -744 -11 l-454 -1 -2 84 c0 45 -6 93 -13 105 -7
12 -12 49 -12 82 0 33 -4 63 -10 66 -5 3 -10 22 -10 41 0 19 -9 51 -20 71 -11
21 -20 55 -20 75 0 36 2 38 33 38 17 0 41 7 51 15 11 8 29 15 40 15 12 0 30 7
40 15 11 8 30 15 42 15 13 0 26 5 29 10 3 6 16 10 29 10 12 0 31 7 42 15 10 8
28 15 40 15 11 0 29 7 40 15 10 8 31 15 45 15 15 0 32 7 39 15 7 8 25 15 41
15 29 0 34 2 97 33 19 9 43 17 55 17 12 0 31 7 41 15 11 8 32 15 47 15 14 0
32 7 39 15 7 8 25 15 41 15 15 0 31 5 34 10 3 6 16 10 29 10 12 0 31 7 42 15
10 8 31 15 45 15 15 0 32 7 39 15 7 8 24 15 39 15 14 0 35 7 45 15 11 8 28 15
38 15 18 0 25 3 86 33 19 9 43 17 55 17 12 0 31 7 41 15 11 8 29 15 40 15 12
0 30 7 40 15 11 8 32 15 47 15 15 0 31 5 34 10 3 6 16 10 28 10 12 0 31 7 41
15 11 8 29 15 41 15 12 0 30 7 41 15 10 8 31 15 46 15 15 0 30 5 33 10 3 6 19
10 34 10 16 0 34 6 40 14 7 8 27 18 44 21 18 3 41 10 52 14 11 5 45 16 75 26
30 10 64 24 75 32 11 7 32 13 47 13 15 0 30 5 33 10 3 6 15 10 25 10 19 0 69
19 122 46 14 8 38 14 51 14 14 0 28 4 31 9 3 5 22 12 41 15 19 4 35 11 35 16
0 6 10 10 23 10 12 1 33 7 47 15 14 8 35 14 47 15 22 0 70 18 125 46 14 8 38
14 52 14 14 0 26 4 26 9 0 5 15 11 33 14 17 2 55 14 82 25 l50 20 40 -46 c22
-26 135 -141 251 -257z m820 -802 c149 -148 303 -298 344 -336 40 -37 71 -69
69 -71 -2 -2 -150 -6 -329 -9 -179 -3 -398 -8 -487 -12 l-163 -6 0 23 c0 13 5
39 11 58 6 19 14 62 19 95 13 91 26 145 39 158 6 6 11 21 11 33 0 12 7 27 15
34 8 7 15 20 15 29 0 10 24 52 53 95 28 44 60 91 69 105 31 47 51 71 58 71 4
0 128 -120 276 -267z m-4056 24 c0 -24 7 -52 15 -63 8 -10 15 -39 15 -64 0
-25 7 -53 15 -63 8 -12 14 -45 14 -88 0 -38 5 -77 10 -87 6 -11 11 -43 13 -73
l3 -54 -125 -7 c-69 -4 -363 -11 -655 -16 -291 -6 -620 -15 -731 -22 -215 -14
-276 -9 -189 17 136 39 185 55 190 64 4 5 17 9 30 9 13 0 36 6 52 14 15 8 48
20 73 26 25 7 57 18 72 26 14 8 37 14 51 14 14 0 27 7 31 15 3 8 18 15 33 15
15 0 37 7 47 15 11 8 32 15 47 15 15 0 31 5 34 10 3 6 17 10 29 10 13 0 29 7
36 15 7 8 25 15 39 15 15 0 36 7 47 15 10 8 31 15 46 15 15 0 30 5 33 10 3 6
16 10 29 10 13 0 33 9 46 20 13 11 33 20 46 20 13 0 26 5 29 10 3 6 16 10 28
10 12 0 35 7 51 15 15 8 36 15 45 15 9 0 25 7 35 15 11 8 30 15 42 15 13 0 26
5 29 10 3 6 16 10 29 10 12 0 31 7 42 15 10 8 28 15 40 15 11 0 29 7 40 15 10
8 29 15 42 15 22 0 32 3 87 32 17 9 38 17 48 17 14 1 17 -7 17 -42z"/>
<path d="M8122 3068 c-16 -16 -15 -34 4 -53 12 -12 19 -13 30 -4 8 6 14 19 14
28 0 17 -18 41 -30 41 -3 0 -11 -5 -18 -12z"/>
<path d="M5890 2083 c0 -5 5 -15 10 -23 8 -12 10 -11 10 8 0 12 -4 22 -10 22
-5 0 -10 -3 -10 -7z"/>
<path d="M6470 1903 c0 -10 7 -27 15 -37 18 -24 20 -134 3 -171 -15 -33 0 -50
36 -41 24 6 26 10 20 49 l-5 42 20 -24 c12 -13 21 -29 21 -37 0 -22 33 -33 78
-27 l42 6 0 63 c0 35 5 65 10 66 33 4 35 1 40 -62 4 -53 8 -65 24 -68 32 -6
37 12 19 61 -16 44 -16 48 0 64 13 14 19 15 29 5 7 -7 13 -34 14 -60 1 -26 2
-50 3 -54 2 -14 51 -9 57 5 8 22 -14 140 -28 149 -15 9 -172 11 -205 2 -22 -6
-33 -34 -14 -34 14 0 18 -80 6 -97 -10 -14 -16 -11 -43 15 -18 17 -32 36 -32
41 0 6 10 19 21 30 13 12 19 26 15 36 -9 25 -39 14 -56 -20 -15 -30 -15 -29
-18 43 l-3 72 -34 0 c-27 0 -35 -4 -35 -17z"/>
<path d="M6313 1893 c-8 -21 -62 -103 -80 -121 -15 -15 -16 -23 -7 -46 4 -12
20 -16 54 -16 45 0 47 -1 42 -25 -4 -21 -1 -25 21 -25 17 0 28 7 32 20 3 11 3
52 -1 92 -5 40 -7 75 -7 78 1 3 5 18 8 33 7 25 5 27 -24 27 -21 0 -34 -6 -38
-17z m17 -107 c0 -27 -27 -43 -44 -26 -8 8 -4 17 13 31 13 10 25 19 27 19 2 0
4 -11 4 -24z"/>
<path d="M6996 1575 c-3 -8 -1 -15 4 -15 6 0 10 7 10 15 0 8 -2 15 -4 15 -2 0
-6 -7 -10 -15z"/>
<path d="M6900 1554 c0 -14 3 -14 15 -4 8 7 15 14 15 16 0 2 -7 4 -15 4 -8 0
-15 -7 -15 -16z"/>
<path d="M6736 1551 c-4 -5 -2 -12 3 -15 5 -4 12 -2 15 3 4 5 2 12 -3 15 -5 4
-12 2 -15 -3z"/>
<path d="M6492 1538 c3 -7 13 -15 24 -17 16 -3 17 -1 5 13 -16 19 -34 21 -29
4z"/>
<path d="M6820 1231 c0 -6 5 -11 10 -11 6 0 10 -9 10 -20 0 -11 4 -20 9 -20
13 0 2 37 -15 51 -10 8 -14 8 -14 0z"/>
<path d="M6285 1240 c3 -5 10 -10 16 -10 5 0 9 5 9 10 0 6 -7 10 -16 10 -8 0
-12 -4 -9 -10z"/>
<path d="M6136 1099 c-14 -11 -26 -27 -26 -36 0 -12 8 -14 34 -10 23 4 39 1
46 -8 9 -11 6 -17 -14 -30 -14 -10 -26 -22 -26 -27 0 -5 9 -12 20 -15 15 -4
20 -14 20 -39 0 -33 -1 -34 -39 -34 -22 0 -42 -4 -46 -9 -3 -5 2 -17 11 -26
21 -20 69 -12 101 18 21 18 22 27 19 111 -3 78 -6 92 -26 108 -12 10 -28 18
-35 18 -7 0 -24 -9 -39 -21z"/>
<path d="M6333 1103 c-13 -8 -23 -26 -23 -39 0 -12 -4 -26 -10 -29 -18 -11
-10 -25 24 -39 39 -16 52 -45 36 -77 -9 -16 -17 -19 -37 -14 -29 7 -54 -10
-46 -31 3 -9 20 -14 49 -14 40 0 47 4 74 42 16 22 30 44 30 48 0 4 -9 17 -20
30 -11 13 -20 26 -20 30 0 4 -12 12 -26 18 -28 13 -24 32 6 32 21 0 45 34 35
50 -9 15 -47 11 -72 -7z"/>
<path d="M6457 1094 c-13 -17 -17 -33 -12 -52 10 -39 24 -52 54 -52 30 0 71
36 71 62 0 8 -9 27 -21 42 -27 34 -68 34 -92 0z m71 -41 c2 -8 -6 -13 -22 -13
-17 0 -26 5 -26 16 0 10 7 14 22 12 12 -2 23 -9 26 -15z"/>
<path d="M2230 1017 c-14 -7 -25 -19 -25 -27 0 -11 12 -15 44 -15 24 0 46 5
48 11 4 12 -22 44 -35 44 -4 0 -18 -6 -32 -13z"/>
<path d="M2335 1000 c-23 -24 -27 -34 -19 -47 6 -10 23 -26 38 -37 25 -19 29
-19 54 -5 36 19 42 69 13 98 -12 12 -29 21 -39 21 -10 0 -31 -14 -47 -30z m55
-35 c0 -8 -6 -15 -14 -15 -17 0 -28 14 -19 24 12 12 33 6 33 -9z"/>
<path d="M2036 1013 c-32 -8 -67 -47 -60 -66 8 -23 27 -21 49 3 25 28 59 22
63 -10 2 -18 -6 -34 -28 -55 -16 -16 -30 -34 -30 -40 0 -7 -12 -17 -26 -24
-16 -7 -24 -18 -22 -29 3 -14 15 -17 68 -18 65 -2 117 17 105 36 -4 6 -24 10
-46 10 -21 0 -39 5 -39 11 0 6 14 24 30 41 24 24 30 38 30 73 0 23 -6 47 -13
53 -16 14 -57 21 -81 15z"/>
<path d="M2176 951 c-11 -17 5 -39 35 -51 34 -15 48 -35 42 -61 -4 -12 -16
-19 -42 -21 -28 -2 -36 -7 -36 -23 0 -16 8 -21 36 -23 26 -2 42 3 62 22 21 19
27 34 27 65 0 36 -5 44 -42 71 -41 30 -72 38 -82 21z"/>
<path d="M611 3260 c-18 -10 -6 -60 14 -60 10 0 15 10 15 29 0 33 -10 44 -29
31z"/>
<path d="M6978 3263 c6 -2 18 -2 25 0 6 3 1 5 -13 5 -14 0 -19 -2 -12 -5z"/>
<path d="M6542 3220 c-26 -24 -28 -38 -7 -46 11 -5 15 -23 15 -78 0 -40 -5
-77 -11 -83 -7 -7 -9 -19 -5 -28 8 -23 50 -15 54 10 7 47 13 49 38 12 21 -32
30 -37 64 -37 66 0 70 4 70 81 0 53 3 69 14 69 23 0 30 -19 27 -81 -2 -58 9
-80 33 -60 8 7 11 29 8 69 -4 62 3 77 33 65 15 -5 17 -15 12 -64 -6 -64 7 -86
43 -74 23 7 26 32 5 60 -10 12 -13 30 -9 51 3 18 1 41 -5 52 -10 18 -21 20
-104 21 -51 0 -99 -4 -107 -9 -12 -8 -13 -13 -2 -30 6 -11 12 -38 12 -60 0
-37 -2 -40 -28 -40 -20 0 -35 9 -50 30 l-22 30 31 28 c19 17 29 34 25 40 -13
21 -36 13 -56 -20 -24 -39 -31 -25 -27 52 1 42 -1 55 -13 57 -9 2 -26 -6 -38
-17z"/>
<path d="M6370 3208 c-18 -13 -46 -47 -62 -77 -28 -51 -28 -55 -14 -86 9 -18
16 -40 16 -48 0 -18 21 -27 66 -27 30 0 36 5 55 45 21 44 21 45 2 77 -14 24
-27 33 -45 33 -15 0 -30 3 -34 8 -10 9 25 36 48 37 19 0 42 35 33 50 -10 16
-29 12 -65 -12z m20 -153 c0 -31 -3 -35 -25 -35 -22 0 -25 4 -25 35 0 31 3 35
25 35 22 0 25 -4 25 -35z"/>
<path d="M7000 3190 c0 -14 15 -19 29 -11 9 6 7 10 -8 14 -12 3 -21 1 -21 -3z"/>
<path d="M11060 2968 c0 -9 5 -20 11 -23 17 -11 20 0 4 21 -13 17 -14 17 -15
2z"/>
<path d="M11655 2950 c-3 -5 1 -10 10 -10 9 0 13 5 10 10 -3 6 -8 10 -10 10
-2 0 -7 -4 -10 -10z"/>
<path d="M9298 2903 c6 -2 18 -2 25 0 6 3 1 5 -13 5 -14 0 -19 -2 -12 -5z"/>
<path d="M1090 2845 c0 -14 5 -25 10 -25 6 0 10 11 10 25 0 14 -4 25 -10 25
-5 0 -10 -11 -10 -25z"/>
<path d="M10415 2840 c-10 -11 -24 -20 -31 -20 -19 0 -54 -76 -54 -118 0 -27
9 -47 33 -74 30 -35 37 -38 84 -38 46 0 56 4 83 33 29 30 30 36 28 101 l-3 69
-45 33 c-25 18 -52 33 -61 33 -9 1 -24 -8 -34 -19z m56 -43 c8 -7 24 -24 33
-40 13 -19 17 -37 12 -59 -3 -17 -11 -37 -17 -45 -6 -7 -31 -13 -54 -13 -36 0
-44 4 -49 23 -3 12 -6 40 -6 61 0 27 7 47 22 63 24 26 36 28 59 10z"/>
<path d="M10692 2827 c-18 -18 -32 -40 -32 -49 0 -17 70 -78 89 -78 5 0 15 -8
20 -19 7 -13 6 -24 -3 -37 -12 -16 -18 -16 -40 -6 -14 6 -26 18 -26 26 0 16
-27 29 -41 20 -17 -10 -9 -50 14 -72 17 -16 36 -22 69 -22 42 0 48 3 68 36 20
32 21 38 9 62 -8 14 -33 39 -56 56 -48 34 -57 66 -19 66 16 0 27 -7 31 -19 7
-23 30 -18 40 7 8 21 -37 62 -69 62 -12 0 -36 -15 -54 -33z"/>
<path d="M10888 2825 c-36 -33 -38 -37 -38 -99 0 -60 3 -67 34 -100 27 -29 41
-36 72 -36 28 0 46 7 66 27 29 28 38 63 16 63 -7 0 -24 -9 -38 -20 -14 -11
-37 -20 -51 -20 -38 0 -59 29 -59 82 0 86 61 115 119 57 17 -17 36 -27 42 -24
15 10 2 77 -19 93 -8 6 -36 12 -61 12 -38 0 -52 -6 -83 -35z"/>
<path d="M11157 2853 c-4 -3 -7 -17 -7 -29 0 -13 -4 -26 -10 -29 -5 -3 -10
-14 -10 -24 0 -10 -7 -24 -15 -31 -8 -7 -15 -19 -15 -28 0 -8 -7 -23 -15 -32
-8 -9 -16 -31 -17 -50 -3 -32 0 -35 26 -38 39 -5 54 12 33 36 -9 10 -17 23
-17 29 0 6 14 13 31 17 61 12 68 9 71 -31 3 -36 5 -38 51 -46 29 -4 55 -4 67
3 12 7 27 7 45 0 43 -16 74 -12 100 15 27 26 30 41 15 65 -8 12 -15 9 -44 -19
-30 -29 -38 -32 -51 -21 -11 9 -15 32 -15 90 0 57 4 81 15 90 12 10 13 16 4
26 -13 16 -67 18 -89 4 -11 -7 -12 -13 -3 -32 15 -29 27 -140 18 -167 -3 -12
-13 -21 -22 -21 -20 0 -52 40 -53 66 0 12 -7 27 -15 34 -8 7 -15 23 -15 36 0
12 -4 25 -9 28 -4 3 -11 19 -14 36 -6 28 -25 39 -40 23z m33 -118 c0 -21 -28
-31 -43 -16 -9 9 -8 14 3 21 22 14 40 12 40 -5z"/>
<path d="M11517 2854 c-10 -11 -9 -42 2 -46 10 -3 16 -131 10 -177 -4 -24 -2
-25 66 -28 68 -4 72 -3 98 26 15 17 27 35 27 40 0 20 -20 21 -57 1 -21 -11
-48 -20 -60 -20 -22 0 -23 4 -23 80 l0 80 33 0 c18 0 38 -5 45 -12 17 -17 35
3 30 33 -3 23 -7 24 -83 27 -45 1 -84 0 -88 -4z"/>
<path d="M10279 2829 c-8 -5 -39 -7 -69 -4 -30 3 -60 2 -67 -2 -6 -5 -15 -21
-18 -36 -5 -20 -3 -27 7 -27 7 0 24 7 36 16 40 28 50 13 45 -63 -3 -37 -12
-75 -19 -84 -25 -28 -16 -39 30 -39 47 0 66 14 47 33 -6 6 -11 45 -11 89 l0
78 41 0 c32 0 40 3 37 16 -4 21 -40 35 -59 23z"/>
<path d="M9367 2823 c-13 -13 -7 -32 12 -38 18 -6 19 -13 14 -93 -3 -48 -10
-92 -15 -99 -18 -22 50 -44 79 -25 10 6 8 17 -7 47 -19 38 -27 95 -14 108 10
9 114 -104 121 -131 3 -14 12 -22 22 -20 13 3 16 20 17 106 1 62 6 107 13 116
10 12 8 17 -8 26 -22 11 -71 4 -71 -12 0 -5 7 -16 15 -24 16 -16 22 -108 6
-102 -4 2 -37 36 -71 76 -42 48 -70 72 -85 72 -12 0 -25 -3 -28 -7z"/>
<path d="M9668 2801 c-30 -27 -33 -34 -33 -92 0 -49 5 -70 20 -91 24 -31 66
-58 92 -58 27 0 88 60 101 99 9 26 9 44 0 75 -25 92 -115 125 -180 67z m103
-21 c16 0 34 -55 31 -93 -3 -30 -10 -42 -34 -57 -29 -17 -34 -17 -60 -4 -28
14 -29 18 -26 77 3 54 6 63 28 74 14 7 31 11 38 8 8 -3 18 -5 23 -5z"/>
<path d="M9871 2822 c-16 -5 -13 -42 4 -48 8 -4 22 -1 30 6 8 6 19 9 25 5 5
-3 10 -37 10 -74 0 -49 -4 -72 -15 -81 -8 -7 -15 -23 -15 -36 0 -21 4 -23 48
-20 38 2 48 6 50 23 2 11 -4 26 -13 33 -11 9 -15 31 -15 81 0 37 5 71 10 74 6
4 22 -1 36 -9 23 -16 25 -16 36 9 6 14 8 28 5 32 -7 7 -177 11 -196 5z"/>
<path d="M11614 2749 c-18 -20 -18 -21 1 -35 23 -17 27 -17 48 -1 16 11 16 14
2 35 -9 12 -20 22 -24 22 -4 0 -16 -9 -27 -21z"/>
<path d="M5309 2628 c-9 -7 -24 -25 -34 -40 -16 -27 -16 -27 24 -71 40 -43 54
-88 31 -102 -20 -12 -47 6 -56 38 -6 18 -18 33 -27 35 -16 3 -18 -3 -15 -55
l3 -58 52 -3 c46 -3 56 0 77 23 20 21 23 33 19 63 -3 20 -19 54 -35 74 -31 39
-30 58 2 58 11 0 20 -10 24 -26 4 -14 12 -24 19 -21 13 4 43 74 35 83 -3 2
-27 7 -54 10 -33 4 -54 1 -65 -8z"/>
<path d="M8993 2626 c-13 -6 -23 -14 -23 -18 0 -5 14 -8 30 -8 23 0 30 4 30
20 0 22 -4 23 -37 6z"/>
<path d="M4922 2587 c-14 -17 2 -42 22 -34 20 8 21 47 2 47 -7 0 -18 -6 -24
-13z"/>
<path d="M3137 2583 c-4 -3 -7 -17 -7 -30 0 -18 6 -23 24 -23 13 0 29 7 36 15
11 13 10 18 -6 30 -21 16 -37 19 -47 8z"/>
<path d="M933 2573 c-17 -6 -17 -32 0 -39 8 -3 25 0 40 5 18 7 25 15 21 26 -6
14 -36 19 -61 8z"/>
<path d="M1575 2519 c-4 -6 1 -17 11 -24 24 -18 29 -18 45 1 10 13 10 17 -2
25 -19 12 -46 11 -54 -2z"/>
<path d="M9300 2504 c0 -8 5 -12 10 -9 6 4 8 11 5 16 -9 14 -15 11 -15 -7z"/>
<path d="M9530 2480 c0 -5 5 -10 10 -10 6 0 10 5 10 10 0 6 -4 10 -10 10 -5 0
-10 -4 -10 -10z"/>
<path d="M4670 2315 c0 -8 6 -15 14 -15 7 0 19 7 26 15 11 13 8 15 -14 15 -16
0 -26 -5 -26 -15z"/>
<path d="M2290 2190 c0 -5 11 -10 25 -10 14 0 25 5 25 10 0 6 -11 10 -25 10
-14 0 -25 -4 -25 -10z"/>
<path d="M1412 2154 c4 -21 22 -23 26 -1 2 10 -3 17 -13 17 -10 0 -15 -6 -13
-16z"/>
<path d="M7935 2061 c-3 -5 -1 -12 5 -16 5 -3 10 1 10 9 0 18 -6 21 -15 7z"/>
<path d="M1103 1979 c-13 -5 -23 -12 -23 -17 0 -14 23 -32 42 -32 12 0 18 8
18 24 0 14 -3 27 -7 29 -5 3 -18 1 -30 -4z"/>
<path d="M1000 1950 c0 -5 5 -10 10 -10 6 0 10 5 10 10 0 6 -4 10 -10 10 -5 0
-10 -4 -10 -10z"/>
<path d="M10963 1673 c-18 -7 -16 -40 3 -47 33 -13 44 -6 44 24 0 22 -5 30
-17 29 -10 0 -24 -3 -30 -6z"/>
<path d="M10880 1614 c0 -8 5 -12 10 -9 6 4 8 11 5 16 -9 14 -15 11 -15 -7z"/>
<path d="M10252 1188 c-7 -7 -12 -23 -12 -36 0 -19 5 -23 23 -20 17 2 22 10
22 32 0 32 -14 43 -33 24z"/>
<path d="M7497 1126 c-4 -10 -5 -21 -2 -24 9 -9 17 6 13 25 -3 17 -4 17 -11
-1z"/>
<path d="M1220 1029 c0 -11 5 -17 10 -14 6 3 10 13 10 21 0 8 -4 14 -10 14 -5
0 -10 -9 -10 -21z"/>
<path d="M10485 820 c-9 -15 6 -60 20 -60 7 0 18 6 24 14 9 11 10 20 1 35 -11
22 -35 28 -45 11z"/>
<path d="M417 762 c-3 -9 -6 -39 -6 -67 -1 -27 -6 -52 -12 -56 -7 -4 -11 -19
-11 -34 0 -18 -8 -30 -25 -38 -13 -6 -22 -17 -21 -26 3 -13 14 -15 53 -13 28
2 52 5 54 8 2 2 0 14 -6 26 -7 15 -7 33 -1 51 9 23 16 27 47 27 52 0 73 25 69
81 l-3 44 -47 -3 c-25 -2 -55 1 -66 7 -17 9 -22 8 -25 -7z m101 -55 c2 -10 -6
-21 -22 -29 -14 -6 -29 -8 -33 -5 -3 4 -1 19 5 33 14 28 45 30 50 1z"/>
<path d="M11116 772 c-3 -6 -1 -14 5 -17 15 -10 25 3 12 16 -7 7 -13 7 -17 1z"/>
<path d="M7195 689 c-4 -5 -17 -9 -31 -9 -27 0 -81 -54 -101 -103 -18 -40 -17
-96 2 -103 8 -3 17 -14 20 -25 4 -13 -2 -26 -20 -42 -24 -20 -25 -24 -11 -36
13 -11 17 -11 22 3 8 21 23 20 40 -1 13 -17 15 -16 33 6 15 20 17 28 7 43 -9
16 -8 21 7 29 28 16 20 31 -13 24 -26 -6 -30 -3 -36 20 -9 35 2 81 27 116 18
25 27 30 58 27 31 -3 36 -7 39 -30 2 -15 -4 -38 -12 -50 -17 -25 -21 -74 -7
-82 15 -10 38 4 49 29 19 41 24 118 10 144 -15 26 -74 55 -83 40z"/>
<path d="M3194 605 c-4 -8 -3 -22 0 -30 4 -13 10 -14 26 -5 24 13 26 35 4 44
-22 8 -24 8 -30 -9z"/>
<path d="M2544 579 c-3 -6 -2 -15 3 -20 13 -13 43 -1 43 17 0 16 -36 19 -46 3z"/>
<path d="M3520 555 c0 -8 5 -15 10 -15 6 0 10 7 10 15 0 8 -4 15 -10 15 -5 0
-10 -7 -10 -15z"/>
<path d="M290 430 c0 -5 5 -10 10 -10 6 0 10 5 10 10 0 6 -4 10 -10 10 -5 0
-10 -4 -10 -10z"/>
<path d="M7223 433 c-18 -7 -16 -42 3 -50 8 -3 23 1 31 10 13 13 14 19 3 31
-13 17 -17 18 -37 9z"/>
</g>
</svg>
