<?xml version="1.0" standalone="no"?>
<!DOCTYPE svg PUBLIC "-//W3C//DTD SVG 20010904//EN"
 "http://www.w3.org/TR/2001/REC-SVG-20010904/DTD/svg10.dtd">
<svg version="1.0" xmlns="http://www.w3.org/2000/svg"
 width="232.000000pt" height="374.000000pt" viewBox="0 0 232.000000 374.000000"
 preserveAspectRatio="xMidYMid meet">
<g transform="translate(0.000000,374.000000) scale(0.100000,-0.100000)"
fill="#ffffff" stroke="none">
<path d="M1807 3574 c-11 -11 3 -24 18 -18 8 4 12 10 9 15 -6 11 -18 12 -27 3z"/>
<path d="M621 3441 c-36 -9 -66 -22 -69 -29 -2 -7 -9 -12 -17 -12 -7 0 -17
-12 -23 -27 -7 -17 -13 -169 -15 -392 l-5 -364 -25 -21 c-14 -11 -38 -48 -52
-81 -15 -33 -35 -76 -45 -95 -17 -32 -19 -65 -20 -340 -1 -348 -7 -919 -15
-1449 -5 -313 -4 -366 9 -386 l15 -23 348 -3 c457 -5 531 -4 538 3 3 3 8 399
11 879 8 1392 9 1276 -16 1339 -12 30 -26 59 -31 65 -5 5 -9 20 -9 35 -1 35
-23 60 -54 60 l-26 0 0 388 0 387 -40 28 c-21 15 -60 32 -87 38 -26 7 -106 13
-178 14 -97 2 -146 -1 -194 -14z m364 -48 c83 -14 96 -32 43 -54 -46 -19 -323
-19 -403 0 -33 8 -62 16 -64 17 -2 2 2 10 9 19 7 9 30 15 54 16 22 0 50 4 61
9 23 11 227 6 300 -7z m-376 -97 c9 -7 83 -11 210 -11 176 0 199 2 224 19 15
10 30 16 33 13 3 -3 6 -88 7 -190 l2 -184 -25 -11 c-14 -5 -53 -15 -86 -22
-90 -18 -343 -3 -406 24 -14 7 -17 29 -17 178 -1 93 -4 174 -7 180 -4 6 -1 14
6 18 14 9 37 3 59 -14z m-25 -415 c10 -16 87 -23 236 -24 84 0 164 4 190 12
70 18 75 18 73 -4 -2 -11 -3 -90 -4 -175 -1 -94 -6 -161 -13 -172 -6 -10 -18
-18 -28 -18 -9 0 -19 -4 -22 -9 -3 -4 -56 -11 -118 -14 -104 -5 -212 1 -296
19 -56 11 -61 28 -55 222 5 132 9 172 19 172 7 0 15 -4 18 -9z m-79 -350 c8
-37 39 -64 95 -82 60 -19 413 -20 431 -1 7 6 21 12 30 12 21 0 59 58 59 90 0
23 19 23 31 -1 23 -48 39 -92 39 -109 0 -11 5 -20 10 -20 6 0 10 -7 10 -16 0
-13 -7 -15 -31 -10 -17 3 -200 6 -405 6 l-374 0 20 33 c11 17 23 39 26 47 26
62 40 87 46 84 3 -2 9 -17 13 -33z m703 -186 c2 -2 5 -89 5 -194 l2 -191 -407
0 -407 0 -3 196 c-2 108 -1 198 2 201 6 5 802 -6 808 -12z m-105 -428 l109 -2
-1 -180 c0 -99 -1 -184 -1 -188 0 -5 -183 -6 -406 -4 l-407 4 2 184 c0 101 1
186 1 189 0 5 456 3 703 -3z m107 -608 l0 -199 -24 6 c-13 3 -196 9 -407 12
l-382 7 1 185 c0 102 1 186 1 188 1 1 183 2 406 2 l405 -1 0 -200z m-262 -239
l262 0 0 -188 0 -189 -402 4 c-222 2 -407 3 -413 3 -6 0 -9 64 -7 177 1 98 5
184 8 192 4 12 29 13 147 8 78 -4 260 -7 405 -7z m220 -423 l42 5 -2 -192 -3
-193 -190 2 c-104 1 -284 4 -400 7 -116 2 -214 4 -220 4 -6 0 -10 67 -10 182
0 101 3 185 7 188 3 3 170 2 370 -2 199 -4 382 -4 406 -1z"/>
<path d="M1817 3453 c-4 -3 -7 -16 -7 -27 0 -28 -24 -94 -38 -108 -7 -7 -12
-20 -12 -30 0 -13 8 -18 28 -19 15 0 44 -1 65 -3 44 -3 58 14 35 42 -8 9 -24
47 -34 85 -10 37 -21 67 -25 67 -3 0 -9 -3 -12 -7z"/>
<path d="M1242 3335 c0 -16 2 -22 5 -12 2 9 2 23 0 30 -3 6 -5 -1 -5 -18z"/>
<path d="M1816 3231 c-4 -6 -7 -99 -7 -207 0 -184 7 -235 27 -203 11 19 8 399
-4 411 -6 6 -12 6 -16 -1z"/>
<path d="M1810 2781 c-6 -12 -8 -36 -5 -54 3 -17 6 -41 6 -52 0 -11 -1 -113
-2 -228 -1 -114 -5 -210 -10 -213 -5 -3 -5 -13 0 -23 5 -9 9 -75 7 -145 -1
-89 2 -130 10 -137 8 -7 14 -6 19 1 4 6 7 200 8 431 1 420 -4 474 -33 420z"/>
<path d="M1900 2360 c0 -5 5 -10 10 -10 6 0 10 5 10 10 0 6 -4 10 -10 10 -5 0
-10 -4 -10 -10z"/>
<path d="M1607 1932 c-9 -4 -26 -22 -37 -40 l-20 -32 23 -9 c12 -5 30 -12 40
-15 21 -7 22 -29 2 -46 -12 -10 -19 -10 -27 -2 -20 20 -38 13 -38 -13 0 -27
26 -46 50 -36 46 19 60 36 60 74 0 24 -5 40 -15 43 -20 8 -19 34 1 34 10 0 14
7 12 22 -3 24 -22 31 -51 20z"/>
<path d="M1725 1916 c-15 -11 -19 -27 -19 -95 l-1 -82 30 3 30 3 -3 85 c-2 47
-7 88 -11 93 -4 4 -15 1 -26 -7z"/>
<path d="M1862 1857 c-31 -33 -28 -70 9 -101 25 -21 34 -24 50 -15 22 11 21
46 -1 41 -7 -2 -17 3 -21 10 -14 21 -10 48 6 48 8 0 15 -6 15 -12 1 -8 6 -5
15 5 7 11 11 25 8 33 -8 22 -57 17 -81 -9z"/>
<path d="M1973 1868 c-2 -5 -6 -30 -8 -57 -3 -35 0 -53 10 -61 8 -7 22 -10 30
-6 11 4 14 13 9 31 -8 32 3 78 17 69 6 -3 9 -27 7 -53 -3 -42 -1 -46 20 -49
20 -3 23 0 22 25 -1 15 -1 42 -1 58 2 29 2 29 17 10 10 -14 13 -31 8 -58 -6
-38 -5 -38 22 -35 26 3 29 7 32 44 2 29 -3 48 -17 65 -17 21 -27 24 -91 24
-40 0 -74 -3 -77 -7z"/>
<path d="M1811 1682 c-5 -10 -10 -109 -10 -223 1 -112 -3 -307 -6 -434 -7
-218 -8 -272 -4 -312 1 -10 -2 -46 -6 -79 -10 -80 2 -194 20 -194 17 0 28 70
30 205 2 93 6 964 5 1033 0 27 -16 29 -29 4z"/>
<path d="M1747 394 c-6 -7 11 -64 24 -78 5 -6 9 -24 9 -41 0 -17 6 -39 13 -49
13 -17 14 -17 30 -1 9 9 17 28 17 43 0 14 9 45 21 69 11 23 18 46 15 51 -6 9
-120 15 -129 6z"/>
</g>
</svg>
