<?xml version="1.0" standalone="no"?>
<!DOCTYPE svg PUBLIC "-//W3C//DTD SVG 20010904//EN"
 "http://www.w3.org/TR/2001/REC-SVG-20010904/DTD/svg10.dtd">
<svg version="1.0" xmlns="http://www.w3.org/2000/svg"
 width="234.000000pt" height="302.000000pt" viewBox="0 0 234.000000 302.000000"
 preserveAspectRatio="xMidYMid meet">
<g transform="translate(0.000000,302.000000) scale(0.100000,-0.100000)"
fill="#ffffff" stroke="none">
<path d="M970 2826 c0 -9 40 -13 46 -5 3 5 -6 9 -20 9 -14 0 -26 -2 -26 -4z"/>
<path d="M658 2760 c-16 -4 -60 -11 -99 -14 -39 -3 -76 -9 -82 -14 -7 -5 -24
-12 -38 -15 -26 -7 -26 -7 -32 -129 -3 -68 -4 -243 -3 -390 l3 -266 -28 -21
c-16 -12 -29 -27 -29 -34 0 -7 -18 -50 -40 -95 l-40 -81 0 -428 c0 -235 4
-434 9 -442 6 -9 26 -12 67 -10 l59 4 0 -162 c0 -161 0 -162 26 -192 14 -16
39 -33 55 -36 16 -3 43 -10 60 -15 17 -6 98 -10 180 -10 169 0 213 10 256 59
l28 32 -2 157 -3 157 65 0 65 0 3 430 3 430 -27 75 c-14 41 -32 89 -39 105 -7
17 -15 38 -19 48 -3 10 -15 17 -29 17 l-23 0 -2 371 c-1 204 -4 379 -7 389 -3
10 -20 23 -38 30 -18 7 -41 16 -52 20 -18 7 -123 27 -195 36 -14 2 -37 -1 -52
-6z m204 -59 c13 -5 36 -12 51 -16 20 -4 27 -11 25 -23 -3 -13 -19 -19 -78
-25 -96 -11 -329 -2 -363 14 -15 7 -27 18 -27 25 0 7 12 17 28 22 35 13 333
15 364 3z m-388 -78 c3 -4 37 -15 74 -25 88 -23 260 -24 325 -2 83 28 80 33
79 -169 -1 -98 -4 -182 -7 -187 -3 -4 -26 -15 -52 -24 -65 -22 -245 -21 -342
3 -56 13 -76 23 -82 38 -4 12 -12 24 -18 28 -6 3 -8 11 -5 17 8 12 6 250 -2
296 -5 24 -3 32 8 32 8 0 18 -3 22 -7z m91 -455 c51 -13 333 -4 348 11 6 6 18
11 26 11 14 0 16 -21 14 -153 -1 -83 -2 -164 -2 -179 -2 -44 -38 -60 -154 -69
-103 -9 -238 2 -293 22 -17 5 -36 24 -45 42 -13 26 -15 45 -9 84 5 28 5 96 1
150 -4 54 -6 101 -4 104 3 7 18 4 118 -23z m-140 -334 c15 -43 24 -54 53 -65
15 -6 70 -16 122 -22 71 -9 124 -10 210 -2 137 13 165 27 175 86 5 28 12 39
24 39 12 0 22 -13 30 -42 7 -24 19 -55 27 -70 13 -24 10 -63 -5 -54 -3 2 -167
6 -364 7 -198 2 -360 7 -362 10 -2 3 2 17 9 31 7 13 21 46 31 72 10 26 23 45
29 43 6 -2 16 -17 21 -33z m523 -170 l142 -6 2 -174 c0 -96 1 -180 2 -186 1
-10 -17 -12 -64 -11 -36 1 -211 5 -390 9 l-325 6 2 187 c1 102 2 186 3 186
166 0 523 -6 628 -11z m-332 -420 c132 -4 293 -7 358 -8 l117 -1 2 -188 2
-187 -385 2 -385 3 -3 198 -2 199 27 -6 c16 -3 136 -8 269 -12z m331 -429 c9
-3 11 -43 7 -161 -3 -87 -7 -161 -10 -165 -2 -4 -35 -15 -74 -23 -86 -20 -241
-20 -295 -1 -22 8 -48 15 -57 15 -9 0 -28 5 -41 11 -24 11 -24 11 -23 167 1
87 4 159 8 162 7 6 467 1 485 -5z"/>
<path d="M1547 2704 c-4 -4 -7 -20 -7 -35 0 -15 -9 -48 -20 -74 -11 -26 -20
-51 -20 -56 0 -5 29 -9 65 -9 52 0 65 3 65 16 0 8 -6 25 -12 37 -7 12 -18 44
-23 72 -7 31 -16 51 -26 53 -8 1 -18 0 -22 -4z"/>
<path d="M1546 2482 c-11 -35 -15 -202 -5 -208 6 -3 7 -13 4 -23 -4 -9 -7
-112 -6 -230 0 -150 4 -217 12 -227 8 -10 16 -11 22 -5 10 10 11 669 1 696 -8
20 -21 19 -28 -3z"/>
<path d="M2050 1780 c0 -5 5 -10 10 -10 6 0 10 5 10 10 0 6 -4 10 -10 10 -5 0
-10 -4 -10 -10z"/>
<path d="M1408 1759 c-10 -6 -18 -19 -18 -29 0 -21 15 -27 25 -10 12 19 26 -2
20 -30 -4 -20 -2 -29 9 -33 30 -12 16 -27 -24 -27 -28 0 -40 -4 -40 -14 0 -19
27 -46 46 -46 7 0 27 12 44 28 30 27 31 28 22 90 -5 34 -11 64 -13 66 -12 10
-56 14 -71 5z"/>
<path d="M1521 1741 c-7 -11 -7 -30 -1 -50 5 -18 5 -33 -1 -36 -14 -9 -11 -42
7 -59 22 -22 57 -20 80 5 15 17 16 23 6 40 -7 11 -12 37 -11 57 2 21 -1 43 -5
50 -12 19 -64 15 -75 -7z m49 -27 c0 -8 -4 -12 -10 -9 -5 3 -10 10 -10 16 0 5
5 9 10 9 6 0 10 -7 10 -16z m0 -84 c0 -11 -2 -20 -5 -20 -2 0 -9 9 -15 20 -9
16 -8 20 5 20 8 0 15 -9 15 -20z"/>
<path d="M1255 1740 c4 -6 11 -8 16 -5 14 9 11 15 -7 15 -8 0 -12 -5 -9 -10z"/>
<path d="M1692 1695 c-12 -14 -22 -34 -22 -46 0 -53 48 -87 87 -62 13 9 19 21
16 29 -3 8 -11 13 -17 11 -17 -7 -46 12 -46 29 0 13 7 15 35 10 31 -6 35 -4
35 14 0 13 -10 24 -26 30 -14 6 -29 10 -33 10 -4 0 -17 -11 -29 -25z"/>
<path d="M1796 1701 c-4 -5 -5 -24 -4 -43 1 -18 -1 -43 -6 -55 -7 -21 -4 -23
23 -23 28 0 29 2 24 35 -3 19 -2 42 1 52 12 30 27 -7 20 -49 -6 -38 -5 -38 28
-38 18 0 43 -3 56 -6 21 -6 22 -4 22 53 0 33 -5 64 -12 71 -14 14 -144 17
-152 3z m134 -60 c0 -24 -16 -45 -29 -37 -12 8 -15 48 -5 59 10 10 34 -5 34
-22z"/>
<path d="M1545 1529 c-4 -6 -7 -197 -6 -426 0 -308 4 -419 12 -430 11 -12 14
-12 21 2 5 8 11 89 14 178 2 89 4 167 3 172 0 6 -1 118 -3 251 -1 132 -6 246
-10 252 -9 15 -23 15 -31 1z"/>
<path d="M1523 623 c-13 -3 -23 -10 -23 -16 0 -7 9 -32 20 -56 11 -24 20 -59
20 -78 0 -30 3 -34 23 -31 18 2 24 13 32 53 6 28 16 60 23 72 13 24 16 53 5
54 -5 0 -24 1 -43 3 -19 1 -45 1 -57 -1z"/>
<path d="M334 414 c3 -9 6 -18 6 -20 0 -3 4 -3 10 1 11 7 2 35 -12 35 -6 0 -7
-7 -4 -16z"/>
</g>
</svg>
