<?xml version="1.0" standalone="no"?>
<!DOCTYPE svg PUBLIC "-//W3C//DTD SVG 20010904//EN"
 "http://www.w3.org/TR/2001/REC-SVG-20010904/DTD/svg10.dtd">
<svg version="1.0" xmlns="http://www.w3.org/2000/svg"
 width="1184.000000pt" height="528.000000pt" viewBox="0 0 1184.000000 528.000000"
 preserveAspectRatio="xMidYMid meet">
<g transform="translate(0.000000,528.000000) scale(0.100000,-0.100000)"
fill="#ffffff" stroke="none">
<path d="M2424 5056 c-10 -26 4 -48 28 -44 17 2 23 10 23 28 0 18 -6 26 -23
28 -13 2 -25 -3 -28 -12z"/>
<path d="M572 5028 c-17 -17 -15 -36 6 -46 23 -12 42 -4 42 17 0 16 -18 41
-30 41 -3 0 -11 -5 -18 -12z"/>
<path d="M6114 4951 c-2 -2 -4 -13 -4 -23 0 -11 7 -18 20 -18 16 0 20 -7 20
-33 0 -18 -9 -49 -20 -70 -11 -20 -20 -53 -20 -72 0 -39 -34 -95 -58 -95 -8 0
-12 -8 -10 -22 3 -22 5 -23 123 -19 90 2 122 6 128 17 4 8 13 14 19 14 7 0 27
10 45 23 22 14 35 33 39 54 3 18 12 37 20 44 8 7 14 30 14 58 0 41 -5 53 -42
93 l-43 47 -113 3 c-63 2 -116 1 -118 -1z m215 -67 c21 -21 24 -34 23 -91 -1
-49 -5 -69 -17 -75 -8 -5 -15 -16 -15 -23 0 -8 -6 -15 -14 -15 -7 0 -25 -9
-39 -20 -17 -13 -40 -20 -70 -20 -25 0 -48 4 -51 8 -8 13 14 83 30 99 8 8 14
32 14 52 0 22 6 44 15 51 8 7 15 23 15 36 0 22 4 24 43 24 32 0 48 -6 66 -26z"/>
<path d="M2261 4854 c0 -55 -4 -70 -22 -87 -15 -14 -20 -28 -17 -49 4 -24 0
-32 -24 -44 -24 -12 -27 -18 -17 -30 8 -10 36 -14 109 -14 95 0 99 1 130 30
25 23 30 33 21 44 -14 17 -61 9 -79 -12 -7 -9 -28 -17 -48 -18 -30 -1 -37 3
-46 25 -8 22 -6 28 11 40 15 10 21 24 21 53 0 30 6 44 28 63 33 30 62 32 69 5
3 -11 11 -20 19 -20 22 0 67 48 60 65 -4 12 -25 15 -110 15 l-104 0 -1 -66z"/>
<path d="M3110 4875 c0 -16 6 -25 15 -25 9 0 15 9 15 25 0 16 -6 25 -15 25 -9
0 -15 -9 -15 -25z"/>
<path d="M2353 4810 c-17 -7 -23 -18 -23 -39 0 -16 5 -33 10 -36 6 -4 24 8 41
25 25 25 29 33 19 45 -14 17 -16 17 -47 5z"/>
<path d="M3947 4573 c-4 -3 -7 -15 -7 -25 0 -14 8 -18 34 -18 21 0 36 -6 40
-15 3 -9 19 -15 41 -15 28 0 35 4 35 20 0 16 -7 20 -30 20 -19 0 -33 7 -40 20
-7 13 -21 20 -39 20 -15 0 -31 -3 -34 -7z"/>
<path d="M6855 4502 l-30 -16 34 -8 c40 -11 64 4 41 25 -13 12 -20 11 -45 -1z"/>
<path d="M7907 4509 c-19 -11 -23 -44 -6 -54 5 -4 21 -4 35 -1 15 4 24 14 24
26 0 25 -30 41 -53 29z"/>
<path d="M4100 4482 c-23 -16 -107 -17 -1200 -12 -890 4 -1178 2 -1189 -7 -7
-6 -11 -19 -7 -28 5 -15 31 -16 264 -14 l257 2 -4 -59 c-2 -37 -8 -62 -17 -67
-10 -5 -14 -27 -14 -67 0 -47 -4 -64 -20 -80 -16 -16 -20 -32 -19 -75 2 -39
-3 -60 -14 -73 -12 -13 -17 -37 -17 -84 0 -49 -4 -67 -15 -72 -11 -4 -15 -21
-15 -65 0 -50 -3 -62 -20 -71 -17 -9 -20 -21 -20 -90 0 -64 -3 -80 -15 -80
-16 0 -19 -18 -16 -87 2 -33 -1 -44 -19 -53 -19 -10 -21 -19 -19 -87 2 -61 -1
-77 -15 -85 -12 -7 -16 -23 -16 -66 0 -45 -4 -61 -20 -74 -16 -14 -19 -27 -16
-69 2 -41 -1 -55 -16 -68 -14 -12 -18 -29 -18 -73 l0 -58 -150 0 c-131 0 -150
2 -159 17 -9 17 -10 17 -28 0 -24 -21 -62 -22 -69 -2 -4 8 -19 15 -34 15 -20
0 -31 6 -35 20 -4 14 -15 20 -35 20 -15 0 -30 7 -34 15 -3 8 -17 15 -30 15
-15 0 -30 8 -36 20 -12 23 -33 26 -49 6 -9 -10 -9 -20 0 -40 9 -20 20 -26 43
-26 17 0 45 -9 61 -20 17 -11 38 -20 47 -20 21 0 30 -14 22 -34 -4 -11 -10
-13 -18 -8 -6 5 -39 12 -74 16 -35 3 -73 13 -85 21 -28 19 -57 19 -57 0 0 -8
-6 -15 -14 -15 -8 0 -16 7 -20 15 -4 13 -34 15 -176 15 l-171 0 3 -37 3 -38
270 0 c233 0 270 -2 270 -15 0 -10 -12 -16 -35 -18 -47 -4 -100 -32 -100 -54
0 -11 10 -20 27 -24 20 -5 30 -2 44 14 10 13 29 22 44 22 18 0 29 6 32 20 4
14 14 20 33 20 15 0 34 8 41 18 13 15 35 17 257 14 235 -3 242 -4 242 -23 0
-13 114 -134 330 -350 241 -241 330 -336 330 -352 0 -13 7 -32 15 -43 10 -13
14 -45 15 -105 0 -72 3 -89 21 -108 11 -12 28 -21 37 -19 12 2 18 16 20 47 2
32 -2 49 -16 65 -12 14 -19 38 -20 70 -1 41 3 53 24 72 29 28 70 31 96 8 10
-10 39 -19 66 -22 35 -3 51 0 61 11 7 9 10 21 6 27 -3 5 -26 10 -50 10 -31 0
-47 5 -54 17 -8 15 -22 17 -95 15 -55 -2 -86 1 -86 7 0 6 -155 166 -345 356
-319 320 -345 348 -345 380 0 24 6 37 20 45 17 9 20 21 20 71 0 44 4 61 15 65
11 5 15 24 15 80 0 62 3 77 20 91 16 14 20 30 20 76 0 42 4 59 15 63 12 5 15
24 15 83 0 103 13 121 84 121 35 0 58 -5 66 -15 15 -18 46 -20 53 -2 3 9 38
13 118 15 98 2 116 5 127 21 10 15 21 18 52 14 32 -4 40 -2 49 16 8 14 21 21
41 21 20 0 30 5 30 15 0 10 10 15 28 15 19 0 36 11 56 35 16 19 38 35 48 35
24 0 178 154 178 178 0 9 16 30 35 46 25 21 35 38 35 58 0 17 5 28 14 28 15 0
26 21 26 50 0 10 7 20 15 24 8 3 15 18 15 33 0 17 8 33 19 40 16 10 18 21 14
82 -3 62 -1 71 18 84 16 12 20 23 17 56 l-3 41 443 3 c409 2 442 1 442 -14 0
-14 -7 -16 -37 -12 -29 4 -44 0 -61 -16 -13 -11 -29 -22 -35 -24 -6 -2 -8 -11
-4 -20 9 -25 63 -22 77 3 6 11 21 20 33 20 12 0 36 15 52 33 l30 32 905 0
c850 0 905 -1 908 -17 2 -10 -8 -28 -22 -41 -14 -14 -26 -34 -26 -46 0 -11 -4
-21 -9 -21 -5 0 -19 -21 -31 -46 -12 -25 -31 -51 -41 -57 -11 -7 -19 -23 -19
-39 0 -17 -8 -31 -20 -38 -14 -8 -19 -17 -15 -30 4 -13 -1 -22 -15 -30 -12 -6
-20 -21 -20 -36 0 -16 -13 -38 -36 -59 -23 -22 -34 -40 -30 -50 3 -9 -3 -20
-14 -27 -11 -7 -20 -24 -20 -38 0 -14 -9 -31 -20 -38 -11 -7 -20 -21 -20 -31
0 -11 -13 -35 -30 -53 -16 -18 -30 -43 -30 -55 0 -12 -9 -27 -20 -33 -11 -6
-20 -21 -20 -33 0 -12 -14 -35 -31 -52 -17 -16 -33 -42 -36 -57 -3 -15 -11
-29 -19 -32 -8 -3 -14 -17 -14 -30 0 -15 -8 -30 -20 -36 -12 -6 -20 -21 -20
-36 0 -16 -12 -35 -34 -54 -23 -21 -32 -36 -29 -49 3 -13 -2 -23 -16 -30 -14
-8 -21 -21 -21 -41 0 -20 -5 -30 -15 -30 -8 0 -16 -8 -16 -17 -1 -10 -2 -23
-3 -29 0 -6 -16 -24 -33 -40 -19 -16 -33 -38 -33 -51 0 -12 -9 -27 -20 -33
-12 -6 -20 -21 -20 -36 0 -16 -13 -38 -36 -59 -23 -22 -34 -40 -30 -50 3 -9
-3 -20 -14 -27 -11 -7 -20 -24 -20 -38 0 -14 -9 -31 -20 -38 -11 -7 -20 -19
-20 -27 0 -8 -4 -15 -9 -15 -5 0 -14 -13 -20 -30 -5 -16 -15 -30 -20 -30 -6 0
-11 -13 -11 -29 0 -17 -6 -31 -15 -35 -8 -3 -20 -16 -25 -28 -6 -13 -19 -36
-30 -53 -11 -16 -26 -45 -34 -62 -8 -18 -20 -33 -25 -33 -6 0 -11 -12 -11 -28
0 -15 -9 -35 -20 -45 -11 -9 -17 -23 -14 -31 3 -9 -3 -20 -15 -28 -12 -7 -21
-18 -21 -25 0 -6 -16 -32 -35 -57 -19 -26 -35 -55 -35 -66 0 -12 -7 -23 -15
-26 -8 -4 -15 -17 -15 -30 0 -13 -9 -32 -20 -41 -11 -10 -20 -27 -20 -38 0
-12 -15 -34 -35 -51 -27 -22 -34 -34 -30 -51 4 -16 -1 -25 -15 -33 -12 -6 -20
-21 -20 -35 0 -14 -9 -29 -21 -36 -14 -7 -19 -17 -16 -30 3 -13 -6 -28 -29
-49 -22 -19 -34 -38 -34 -54 0 -15 -8 -30 -20 -36 -11 -6 -20 -21 -20 -34 0
-13 -7 -29 -15 -36 -8 -7 -15 -17 -15 -22 0 -12 -42 -71 -57 -81 -7 -4 -13
-19 -13 -32 0 -13 -7 -28 -16 -33 -9 -5 -18 -21 -19 -36 -2 -14 -17 -38 -34
-53 -18 -16 -31 -37 -31 -50 0 -13 -9 -28 -20 -35 -12 -8 -20 -24 -20 -40 0
-16 -4 -28 -9 -28 -5 0 -24 -25 -41 -55 -17 -30 -36 -55 -41 -55 -5 0 -9 -12
-9 -28 0 -17 -8 -32 -21 -40 -13 -8 -18 -19 -14 -31 3 -11 -3 -25 -15 -36 -11
-10 -20 -29 -20 -42 0 -14 -5 -23 -11 -21 -6 2 -22 23 -34 47 -23 43 -77 91
-102 91 -7 0 -13 5 -13 11 0 10 -20 32 -170 188 -36 38 -74 79 -86 92 -11 13
-28 31 -37 39 -9 8 -45 45 -80 83 -34 37 -69 67 -77 67 -26 1 -70 47 -70 75 0
19 -5 25 -23 25 -14 0 -46 23 -85 59 -34 33 -62 62 -62 66 0 9 -153 155 -162
155 -5 0 -8 7 -8 15 0 8 -7 15 -15 15 -9 0 -18 7 -21 15 -7 16 -44 21 -44 6 0
-28 21 -60 42 -63 17 -2 24 -11 28 -33 3 -20 12 -31 25 -33 11 -2 34 -19 52
-38 18 -19 34 -34 37 -34 3 0 17 -11 31 -25 l27 -24 -29 -26 c-99 -90 -113
-106 -113 -125 0 -11 -16 -34 -35 -51 -21 -19 -35 -40 -35 -54 0 -13 -7 -25
-15 -29 -8 -3 -15 -16 -15 -29 0 -13 -9 -32 -20 -42 -11 -10 -20 -28 -20 -40
0 -13 -7 -25 -15 -29 -10 -4 -15 -20 -15 -50 0 -36 -4 -48 -21 -57 -20 -10
-21 -16 -15 -84 6 -67 5 -75 -13 -85 -16 -8 -21 -22 -23 -71 l-3 -61 -478 1
c-432 2 -478 0 -483 -14 -4 -9 -2 -21 3 -26 10 -10 948 -11 3320 -6 1133 2
1183 1 1156 -27 -4 -3 -28 -6 -54 -6 -32 0 -49 -5 -53 -15 -3 -8 -12 -15 -21
-15 -20 0 -20 -39 0 -46 23 -9 65 5 65 21 0 11 11 15 38 15 31 0 46 7 76 38
l37 37 1687 -5 c1282 -4 1690 -2 1701 7 8 6 11 19 7 28 -5 13 -14 16 -34 12
-23 -5 -32 1 -61 40 -19 25 -45 52 -58 60 -13 9 -23 24 -23 35 0 23 -48 67
-73 68 -10 0 -21 9 -25 19 -4 11 -29 45 -57 76 -27 31 -353 360 -722 731 -370
371 -673 682 -673 691 0 18 -117 133 -135 133 -6 0 -29 16 -51 35 -21 19 -42
35 -46 35 -5 0 -8 7 -8 15 0 23 52 19 73 -5 16 -19 27 -20 110 -18 84 3 92 5
92 23 0 18 -8 20 -84 23 -53 2 -91 8 -105 17 -11 8 -42 15 -69 15 -33 0 -49 5
-53 15 -8 19 -64 20 -64 2 0 -7 13 -24 30 -37 28 -24 29 -29 30 -106 0 -63 3
-83 15 -88 11 -4 15 -20 15 -56 0 -47 2 -50 25 -50 24 0 25 2 25 65 0 54 -3
67 -20 77 -24 15 -28 68 -5 68 8 0 15 -4 15 -9 0 -5 45 -55 100 -111 55 -55
100 -108 100 -117 0 -9 118 -133 263 -275 144 -143 265 -263 269 -266 3 -4
188 -191 410 -415 221 -225 426 -432 454 -461 28 -29 55 -62 58 -74 4 -12 14
-22 21 -22 8 0 40 -25 71 -55 32 -30 61 -55 66 -55 5 0 8 -5 6 -10 -2 -7 -519
-11 -1628 -10 -1436 0 -1625 2 -1633 15 -4 8 -19 15 -33 15 -13 0 -27 7 -30
15 -4 9 -19 15 -36 15 -21 0 -31 6 -35 20 -4 14 -14 20 -33 20 -20 0 -31 6
-35 21 -11 32 -39 19 -43 -20 -4 -35 12 -55 36 -46 8 3 25 -4 39 -15 16 -12
41 -20 64 -20 28 0 39 -4 39 -15 0 -13 -34 -14 -256 -10 -141 3 -264 10 -274
15 -27 14 -62 12 -86 -4 -18 -13 -24 -13 -49 4 -28 18 -29 18 -53 -1 -14 -10
-29 -19 -34 -19 -6 0 -26 7 -45 17 -33 15 -37 15 -63 0 -15 -10 -35 -17 -43
-17 -8 0 -26 9 -40 20 -22 18 -36 19 -137 15 -83 -3 -117 -8 -129 -20 -22 -19
-40 -19 -63 2 -16 14 -23 15 -58 3 -31 -10 -43 -11 -52 -2 -9 9 -16 8 -29 -4
-16 -15 -19 -14 -31 5 -7 12 -19 21 -27 21 -8 0 -25 -10 -38 -22 -21 -20 -24
-20 -41 -5 -22 20 -43 22 -59 6 -18 -18 -83 -21 -107 -5 -16 10 -27 11 -40 4
-13 -7 -27 -5 -52 8 -25 14 -39 16 -52 9 -17 -10 -75 -11 -210 -2 -65 4 -75 2
-93 -17 l-20 -21 -18 24 -19 24 -13 -21 c-20 -31 -39 -27 -39 8 0 19 7 33 20
40 11 6 20 21 20 34 0 13 7 26 15 30 8 3 15 17 15 31 0 14 9 30 20 37 11 7 20
23 20 36 0 14 15 36 36 56 20 19 34 38 30 44 -4 6 2 20 14 32 11 11 20 29 20
41 0 11 16 35 35 53 19 19 35 43 35 54 0 12 9 26 19 32 13 6 17 17 14 30 -4
13 1 26 11 33 16 12 36 41 55 83 5 12 17 24 26 28 11 4 15 13 12 26 -3 11 3
26 14 36 10 9 19 27 19 38 0 12 16 37 35 56 19 19 35 42 35 52 0 10 7 21 15
24 8 4 15 17 15 30 0 13 9 32 20 41 11 10 20 28 20 41 0 12 7 25 15 28 8 4 15
16 15 28 0 12 16 37 35 56 20 19 35 44 35 57 0 12 9 27 21 33 15 9 19 18 15
35 -5 18 -1 27 14 35 11 6 20 21 20 33 0 13 14 34 35 51 24 21 35 38 35 57 0
15 7 29 15 33 8 3 15 17 15 30 0 15 8 30 20 36 11 6 20 21 20 33 0 12 14 36
30 54 17 18 30 39 30 48 0 8 9 23 20 32 11 10 20 27 20 38 0 11 9 28 20 38 11
9 20 26 20 37 0 11 14 34 30 50 17 16 30 38 30 50 0 11 9 25 20 32 11 7 20 23
20 35 0 12 12 35 26 50 15 15 33 43 40 61 8 17 19 32 24 32 6 0 10 12 10 28 0
16 8 32 20 40 11 7 20 20 20 30 0 10 14 33 31 52 18 19 33 44 34 55 1 11 3 23
4 28 0 4 8 7 16 7 10 0 15 10 15 28 0 20 10 37 35 58 24 20 35 37 35 56 0 18
5 28 15 28 10 0 15 10 15 30 0 19 7 33 20 40 12 6 20 21 20 36 0 13 7 27 15
30 8 4 15 12 15 19 0 7 6 15 14 18 8 3 16 18 18 34 2 21 9 29 26 31 15 2 33
-5 48 -19 17 -16 30 -20 53 -16 24 5 33 2 41 -13 9 -16 21 -20 68 -20 45 0 61
-4 75 -20 15 -18 29 -20 142 -20 114 0 125 2 135 20 9 17 21 20 79 20 49 0 72
4 81 15 7 8 25 15 41 15 18 0 32 7 39 20 7 13 21 20 41 20 17 0 32 6 35 15 4
8 16 15 28 15 12 0 34 15 50 35 16 19 38 35 49 35 11 0 35 17 53 37 l33 37 20
-25 c11 -13 20 -31 21 -40 0 -16 800 -824 823 -832 8 -2 11 -29 8 -81 -2 -69
-1 -79 17 -92 16 -11 20 -21 15 -49 -7 -42 3 -85 20 -85 18 0 50 57 37 65 -5
3 -10 26 -10 49 0 28 -7 52 -20 69 -11 14 -20 30 -20 36 0 5 11 22 25 37 23
25 27 26 87 19 35 -4 72 -14 83 -21 11 -8 34 -14 53 -14 30 0 33 2 30 27 -5
44 -38 55 -155 50 l-103 -5 -112 114 c-62 62 -305 307 -540 544 -236 237 -428
436 -428 442 0 13 -166 178 -180 178 -5 0 -17 14 -25 30 -21 41 -232 250 -252
250 -9 0 -21 7 -27 15 -8 11 -38 15 -124 17 -79 1 -116 6 -124 15 -9 11 -14
11 -29 -3 -18 -16 -20 -16 -39 1 -11 10 -20 13 -20 8 0 -18 -31 -24 -51 -9
-16 11 -27 11 -49 3 -21 -8 -42 -8 -77 0 -55 14 -119 11 -136 -6 -15 -15 -36
-14 -43 2 -4 10 -39 14 -140 15 -114 2 -141 -1 -166 -15 -28 -17 -30 -17 -42
0 -16 21 -49 22 -67 1 -11 -14 -37 -15 -198 -10 -223 6 -174 6 -364 0 -136 -4
-158 -3 -163 10 -8 21 -52 20 -84 -2z m-945 -63 c2 -3 -4 -23 -15 -44 -14 -28
-20 -59 -20 -107 0 -51 -4 -69 -16 -76 -10 -5 -18 -28 -21 -55 -4 -31 -10 -47
-19 -47 -9 0 -14 -11 -14 -28 0 -16 -8 -32 -20 -40 -11 -7 -20 -21 -20 -33 0
-21 -33 -59 -174 -200 -54 -54 -86 -79 -102 -79 -13 0 -24 -4 -24 -9 0 -5 -20
-21 -45 -36 -28 -16 -53 -24 -65 -20 -13 4 -22 0 -30 -15 -8 -15 -21 -20 -52
-20 -25 0 -45 -6 -52 -16 -10 -12 -42 -15 -189 -17 -134 -2 -178 1 -182 11 -5
15 10 58 24 67 6 3 11 29 11 57 0 35 6 58 17 71 13 14 18 37 19 87 0 49 5 72
17 85 12 11 17 33 17 72 0 40 5 59 16 68 13 9 17 28 17 79 0 55 3 69 20 81 18
12 19 22 15 89 -3 42 -4 77 -2 78 5 5 884 2 889 -3z m2856 -20 c11 -5 62 -54
115 -107 299 -306 446 -452 455 -452 5 0 9 -13 9 -30 0 -16 -3 -30 -7 -30 -5
0 -24 -15 -43 -33 -34 -32 -58 -48 -96 -66 -12 -5 -24 -16 -27 -24 -4 -10 -14
-13 -32 -9 -21 3 -27 0 -32 -17 -4 -17 -13 -21 -49 -21 -30 0 -46 -5 -50 -15
-5 -11 -23 -15 -75 -15 -56 0 -73 -4 -89 -20 -16 -16 -33 -20 -92 -20 -53 0
-83 6 -116 21 -31 16 -55 20 -84 16 -31 -4 -43 -1 -56 14 -11 13 -29 19 -58
19 -28 0 -44 5 -48 15 -3 9 -18 15 -36 15 -16 0 -30 4 -30 9 0 5 14 23 30 41
17 18 33 43 36 55 3 13 12 26 20 29 8 3 14 17 14 31 0 14 9 30 20 37 12 8 20
24 20 39 0 15 7 29 15 33 8 3 15 17 15 30 0 15 8 30 20 36 11 6 20 21 20 33 0
12 16 38 35 57 19 19 35 44 35 56 0 12 7 24 15 28 8 3 15 17 15 30 0 15 8 30
20 36 12 7 20 21 20 38 1 17 11 36 30 52 24 19 30 32 30 62 0 21 3 38 6 38 3
0 14 -5 25 -11z m-2890 -2858 c6 -16 22 -34 37 -40 15 -6 36 -25 47 -41 11
-17 23 -30 27 -30 10 0 328 -321 351 -354 10 -14 24 -26 32 -26 8 0 15 -6 15
-13 0 -15 104 -127 119 -127 5 0 33 -23 62 -50 29 -28 56 -50 61 -50 4 0 8 -7
8 -15 0 -12 -22 -13 -136 -10 -75 3 -142 9 -149 15 -9 7 -21 6 -40 -4 -16 -8
-31 -14 -34 -13 -3 2 -18 9 -33 16 -21 11 -31 11 -41 2 -10 -8 -117 -12 -373
-13 -358 -1 -359 -1 -362 20 -2 13 5 26 17 34 19 11 21 23 21 104 0 69 4 95
15 104 9 8 15 29 15 56 0 34 4 44 20 49 15 5 20 15 20 40 0 20 6 35 15 39 9 3
15 18 15 39 0 22 9 44 26 63 14 16 28 25 30 19 14 -34 23 -39 50 -30 15 6 29
15 31 21 2 6 -11 15 -29 20 -18 5 -34 17 -36 26 -2 10 26 47 67 90 39 40 71
76 71 81 0 4 11 7 26 7 19 0 28 -7 35 -29z"/>
<path d="M2347 4238 c-28 -33 -28 -33 -7 -47 18 -12 20 -24 20 -107 0 -85 -2
-93 -21 -99 -12 -4 -19 -14 -17 -23 2 -13 16 -18 59 -20 43 -2 58 1 62 12 4 9
-2 21 -15 30 -19 14 -21 25 -22 148 -1 109 -4 133 -16 135 -8 2 -28 -12 -43
-29z"/>
<path d="M2562 4263 c-21 -8 -62 -49 -62 -62 0 -11 12 -15 42 -12 23 3 34 -20
16 -33 -12 -9 -17 -36 -19 -111 l-4 -100 35 0 35 0 0 160 c0 134 -2 160 -15
162 -8 1 -21 -1 -28 -4z"/>
<path d="M2787 4262 c-33 -3 -39 -7 -44 -33 -3 -16 -14 -34 -25 -40 -13 -7
-18 -19 -16 -37 2 -22 9 -28 33 -30 33 -4 75 -44 75 -70 -1 -20 -34 -62 -49
-62 -7 0 -14 7 -17 15 -9 23 -26 17 -53 -17 -20 -24 -22 -31 -10 -39 8 -5 37
-9 66 -9 43 0 57 5 78 25 21 22 25 35 25 88 -1 55 -4 64 -26 80 -22 17 -40 24
-66 26 -5 1 -8 8 -8 16 0 11 12 15 50 15 l50 0 0 34 c0 19 -6 36 -12 38 -7 2
-30 2 -51 0z"/>
<path d="M2950 4263 c-18 -5 -70 -78 -70 -98 0 -8 7 -15 15 -15 8 0 15 -6 15
-14 0 -17 22 -26 66 -26 27 0 36 6 49 30 17 32 13 69 -11 108 -14 21 -31 25
-64 15z m34 -59 c13 -34 7 -44 -29 -44 -19 0 -35 3 -35 6 0 8 43 54 51 54 4 0
10 -7 13 -16z"/>
<path d="M5893 3964 c-13 -14 -23 -27 -23 -30 0 -2 -16 -19 -35 -37 -34 -31
-35 -34 -35 -106 0 -65 3 -76 25 -96 15 -14 39 -24 62 -25 52 -4 63 -2 63 11
0 6 8 18 19 27 15 14 17 26 12 77 l-6 60 -47 -2 -48 -1 0 34 c0 30 3 34 28 34
30 1 88 52 77 69 -3 6 -21 11 -38 10 -20 -1 -40 -10 -54 -25z m42 -205 c0 -38
-3 -44 -22 -47 -15 -2 -31 6 -48 25 -13 15 -25 36 -25 46 0 22 36 36 70 27 22
-6 25 -12 25 -51z"/>
<path d="M6067 3960 c-16 -17 -25 -34 -22 -40 3 -5 28 -10 55 -10 45 0 50 3
56 25 9 37 -2 55 -33 55 -18 -1 -39 -12 -56 -30z"/>
<path d="M6250 3975 c0 -8 -9 -19 -21 -25 -16 -9 -20 -19 -17 -57 3 -41 6 -48
31 -56 16 -5 48 -6 73 -2 l44 6 0 47 c-1 35 -7 54 -25 75 -16 18 -34 27 -55
27 -20 0 -30 -5 -30 -15z m49 -54 c28 -21 21 -41 -14 -41 -15 0 -26 7 -30 20
-6 20 0 40 13 40 4 0 18 -9 31 -19z"/>
<path d="M6011 3882 c-12 -23 3 -42 34 -42 12 0 32 -11 44 -24 17 -18 22 -33
19 -62 -3 -39 -3 -39 -46 -39 -26 -1 -47 -6 -52 -15 -14 -22 8 -40 49 -40 27
0 46 8 69 28 29 26 32 35 32 83 0 46 -4 58 -27 80 -16 14 -39 28 -53 31 -14 3
-33 9 -42 12 -11 5 -20 1 -27 -12z"/>
<path d="M2933 1165 c-17 -19 -36 -35 -41 -35 -14 0 -21 -23 -15 -53 5 -23 11
-27 38 -27 18 0 39 -8 48 -18 24 -26 21 -75 -4 -98 -20 -18 -21 -18 -38 5 -26
34 -53 22 -49 -21 3 -31 6 -33 51 -38 43 -5 50 -3 77 25 26 27 30 38 30 88 0
46 -4 59 -17 64 -10 4 -22 12 -28 19 -5 7 -21 14 -34 16 -14 2 -26 8 -28 15
-3 8 13 13 49 15 l53 3 0 35 c0 32 -3 35 -30 38 -24 2 -37 -4 -62 -33z"/>
<path d="M3143 1174 c-13 -14 -23 -30 -23 -34 0 -5 -9 -14 -21 -20 -14 -8 -19
-19 -17 -38 3 -23 8 -27 39 -30 51 -4 71 -29 67 -83 -2 -34 -7 -45 -22 -47
-11 -3 -26 5 -36 19 -23 30 -50 19 -50 -20 0 -16 3 -32 8 -34 4 -2 24 -7 44
-11 34 -6 41 -3 73 28 19 20 35 42 35 51 0 8 4 15 9 15 5 0 12 7 15 16 8 22
-75 102 -110 106 -15 2 -29 9 -32 16 -2 8 11 12 47 12 46 0 52 2 67 31 13 26
14 33 2 40 -7 5 -26 9 -43 9 -20 0 -38 -9 -52 -26z"/>
<path d="M3312 1173 c-18 -20 -22 -34 -20 -71 l3 -47 51 -3 c36 -2 54 1 64 13
7 8 21 15 32 15 37 0 31 29 -15 75 -52 51 -80 56 -115 18z m72 -45 c19 -26 8
-41 -25 -36 -18 2 -25 10 -27 31 -3 21 1 27 17 27 11 0 27 -10 35 -22z"/>
<path d="M10520 4454 c0 -8 5 -12 10 -9 6 4 8 11 5 16 -9 14 -15 11 -15 -7z"/>
<path d="M8355 4450 c-3 -5 1 -10 10 -10 9 0 13 5 10 10 -3 6 -8 10 -10 10 -2
0 -7 -4 -10 -10z"/>
<path d="M8380 4325 c-16 -19 -4 -35 25 -35 13 0 27 -5 30 -11 4 -5 18 -14 31
-19 17 -7 24 -17 24 -35 0 -15 14 -39 35 -61 19 -19 35 -42 35 -50 0 -8 4 -14
9 -14 5 0 13 -9 16 -20 10 -31 53 -73 68 -67 11 4 13 31 9 135 -4 125 -4 130
17 141 11 7 21 18 21 26 0 17 1 17 -60 20 -67 5 -96 -27 -42 -46 26 -9 27 -11
27 -86 0 -52 -4 -78 -13 -81 -7 -2 -15 8 -18 26 -3 16 -21 47 -40 68 -18 21
-38 44 -43 51 -6 6 -13 23 -17 37 -3 14 -9 26 -13 27 -3 0 -25 2 -47 4 -29 3
-46 0 -54 -10z"/>
<path d="M8793 4321 c-10 -10 -27 -23 -38 -29 -11 -6 -26 -30 -34 -56 -12 -43
-12 -59 5 -151 8 -45 57 -75 121 -75 36 0 57 6 73 20 13 11 29 20 37 20 7 0
13 11 13 25 0 14 9 33 20 42 13 12 20 30 20 54 0 23 -7 42 -20 54 -11 10 -20
26 -20 36 0 10 -10 29 -23 43 -18 19 -37 26 -80 31 -46 4 -59 2 -74 -14z m115
-55 c19 -20 22 -35 22 -100 0 -58 -3 -76 -14 -76 -8 0 -16 -7 -20 -15 -9 -24
-75 -19 -103 7 -20 18 -23 31 -23 89 0 56 4 72 23 93 30 34 83 35 115 2z"/>
<path d="M9014 4327 c-19 -11 -18 -63 1 -71 9 -3 19 3 25 14 7 13 21 20 40 20
l30 0 -1 -113 c0 -106 -2 -113 -22 -122 -12 -6 -22 -17 -22 -25 0 -12 17 -16
78 -18 77 -3 78 -2 75 20 -2 17 -11 24 -31 26 -23 3 -27 7 -20 20 8 17 10 150
2 187 -3 16 2 21 25 23 22 3 34 -3 47 -19 22 -30 49 -19 49 20 0 16 -5 33 -11
37 -16 9 -248 11 -265 1z"/>
<path d="M9386 4325 c-21 -21 -21 -64 0 -72 11 -4 23 2 34 16 11 15 25 22 40
19 23 -3 23 -5 23 -112 0 -103 -1 -110 -22 -120 -12 -5 -20 -17 -19 -25 3 -13
18 -16 78 -16 68 0 75 2 75 20 0 15 -8 21 -28 23 -23 3 -27 7 -21 20 11 22 10
149 0 185 -8 26 -7 27 27 27 24 0 39 -6 49 -22 19 -29 38 -15 38 28 l0 34
-107 0 c-60 0 -117 3 -129 6 -13 3 -28 -1 -38 -11z"/>
<path d="M9758 4322 c-7 -9 -22 -22 -32 -28 -11 -6 -23 -17 -26 -25 -4 -8 -15
-28 -24 -46 -20 -39 -21 -73 -1 -99 8 -10 15 -30 15 -44 1 -37 58 -70 120 -70
35 0 59 7 89 27 31 20 41 33 41 54 0 15 7 29 15 33 10 4 15 20 15 51 0 31 -5
47 -15 51 -8 4 -15 16 -15 28 0 11 -11 33 -23 47 -19 20 -36 27 -85 32 -51 6
-63 4 -74 -11z m116 -61 c25 -26 27 -34 25 -92 -3 -52 -8 -68 -27 -86 -32 -32
-89 -31 -119 1 -19 20 -23 35 -23 90 0 60 3 69 28 91 38 34 81 32 116 -4z"/>
<path d="M10138 4320 c-7 -11 -18 -20 -25 -20 -9 0 -13 -17 -13 -50 0 -43 4
-55 28 -75 15 -13 36 -25 47 -25 26 0 65 -42 65 -69 0 -19 -6 -21 -50 -21 -49
0 -50 1 -50 29 0 33 -11 44 -34 35 -12 -4 -14 -17 -11 -52 2 -26 4 -50 5 -54
0 -9 131 -11 154 -2 20 8 39 78 30 107 -9 29 -50 67 -73 67 -24 0 -74 54 -69
77 2 10 14 19 27 21 17 3 33 -6 58 -34 21 -24 37 -34 43 -28 11 11 16 86 7
102 -10 14 -37 4 -37 -14 0 -8 -7 -14 -15 -14 -8 0 -15 6 -15 14 0 14 -21 26
-46 26 -7 0 -19 -9 -26 -20z"/>
<path d="M10408 4328 c-16 -5 -28 -13 -28 -18 0 -4 -9 -10 -20 -13 -15 -4 -20
-14 -20 -37 0 -18 -8 -45 -17 -61 -16 -26 -16 -29 0 -47 9 -10 17 -33 17 -51
0 -22 9 -42 27 -62 25 -25 35 -29 85 -29 55 0 58 2 101 47 25 26 43 53 40 60
-9 24 -40 13 -64 -22 -20 -29 -30 -35 -61 -35 -25 0 -45 8 -62 24 -23 20 -26
32 -26 87 0 55 3 67 27 91 18 19 37 28 59 28 26 0 36 -7 54 -35 15 -24 29 -35
46 -35 22 0 24 4 24 54 0 30 -5 58 -11 62 -7 4 -19 -3 -29 -16 -16 -22 -18
-22 -28 -5 -11 22 -72 28 -114 13z"/>
<path d="M10738 4333 c-12 -3 -18 -14 -18 -33 0 -19 -7 -33 -20 -40 -23 -12
-27 -52 -7 -69 19 -15 37 5 37 42 0 37 24 31 28 -7 2 -15 10 -30 18 -33 8 -3
14 -11 14 -19 0 -9 -19 -14 -67 -16 l-68 -3 -3 -37 c-2 -21 1 -38 7 -38 6 0
19 9 29 21 16 16 29 20 72 17 39 -2 56 -8 64 -21 9 -15 7 -22 -11 -34 -13 -9
-23 -24 -23 -34 0 -18 10 -19 169 -19 163 0 169 1 183 22 l15 22 12 -22 c11
-21 18 -22 119 -22 71 0 112 4 120 12 15 15 16 65 0 74 -6 4 -19 -2 -28 -13
-12 -15 -30 -22 -66 -23 -27 -2 -54 -2 -60 -1 -6 0 -11 21 -11 46 0 44 1 45
33 45 19 0 34 -6 38 -15 7 -19 30 -19 45 -2 8 10 7 17 -1 25 -10 10 -10 17 -1
31 7 10 9 22 6 25 -12 11 -40 6 -53 -10 -8 -8 -25 -14 -39 -12 -24 3 -26 7
-26 48 l0 45 41 3 c30 2 45 -2 59 -18 21 -23 48 -26 64 -6 9 11 6 20 -13 41
-25 27 -30 28 -125 27 -55 0 -104 -3 -110 -7 -18 -11 -12 -25 14 -35 25 -9 25
-11 25 -120 0 -87 -3 -110 -14 -110 -8 0 -16 7 -20 15 -7 19 -25 19 -40 1 -13
-16 -98 -27 -117 -16 -9 6 -10 14 -1 37 13 31 14 134 2 154 -14 21 1 39 30 39
34 0 49 19 28 34 -12 9 -90 12 -140 7 -16 -2 -7 -31 12 -41 19 -10 20 -19 18
-123 l-3 -112 -40 3 c-22 2 -41 5 -43 7 -2 2 -5 20 -7 41 -2 21 -10 41 -19 46
-10 5 -16 22 -16 42 0 21 -6 36 -15 40 -10 3 -15 19 -15 45 0 30 -5 43 -19 51
-11 5 -21 9 -23 9 -2 -1 -11 -3 -20 -6z"/>
<path d="M8414 4214 c-4 -20 -4 -62 -1 -93 6 -52 4 -57 -16 -66 -12 -6 -22
-17 -22 -25 0 -12 15 -16 68 -18 55 -2 68 0 74 14 7 18 -12 34 -43 34 -19 0
-21 4 -16 49 6 68 -6 141 -23 141 -8 0 -17 -15 -21 -36z"/>
<path d="M1325 4060 c-8 -26 -1 -35 20 -26 18 7 17 37 -2 43 -6 2 -14 -5 -18
-17z"/>
<path d="M10608 4062 c-16 -10 -28 -25 -28 -35 0 -16 8 -18 57 -15 43 2 59 7
61 19 2 13 -23 32 -58 45 -3 1 -17 -5 -32 -14z"/>
<path d="M4077 4054 c-12 -12 -8 -52 6 -57 20 -8 36 6 39 33 2 19 -2 26 -17
28 -12 2 -24 0 -28 -4z"/>
<path d="M5313 4044 c-8 -21 21 -44 48 -37 26 7 33 21 19 38 -17 20 -59 19
-67 -1z"/>
<path d="M6672 3968 c6 -18 28 -21 28 -4 0 9 -7 16 -16 16 -9 0 -14 -5 -12
-12z"/>
<path d="M8330 3660 c0 -26 36 -46 56 -29 8 6 14 20 14 30 0 15 -7 19 -35 19
-28 0 -35 -4 -35 -20z"/>
<path d="M607 3613 c-11 -10 -8 -41 4 -49 15 -9 28 13 22 37 -5 20 -15 24 -26
12z"/>
<path d="M8400 3540 c0 -5 4 -10 9 -10 6 0 13 5 16 10 3 6 -1 10 -9 10 -9 0
-16 -4 -16 -10z"/>
<path d="M4770 3316 c0 -19 5 -38 10 -41 6 -3 10 5 10 19 0 13 3 31 6 40 4 11
1 16 -10 16 -12 0 -16 -9 -16 -34z"/>
<path d="M4666 3131 c-18 -20 -13 -46 12 -56 22 -8 46 18 38 43 -9 28 -31 34
-50 13z"/>
<path d="M3397 3133 c-4 -3 -7 -17 -7 -30 0 -19 5 -23 29 -23 35 0 46 22 22
44 -19 17 -34 20 -44 9z"/>
<path d="M2117 3116 c-7 -18 12 -36 38 -36 19 0 20 -6 20 -130 l0 -130 -27 0
c-23 0 -28 -4 -28 -25 0 -26 0 -26 82 -23 70 3 83 6 86 21 3 12 -5 19 -28 23
l-31 7 3 61 c3 53 6 61 24 64 11 2 28 -6 39 -18 31 -35 45 -26 45 30 0 37 -4
52 -15 57 -9 3 -21 -1 -28 -10 -7 -9 -19 -16 -27 -17 -37 -5 -41 0 -38 48 l3
47 50 -3 c28 -2 60 -10 73 -19 13 -8 30 -12 38 -9 21 8 17 54 -5 66 -11 5 -76
10 -144 9 -94 0 -127 -4 -130 -13z"/>
<path d="M470 2975 c0 -8 -9 -15 -19 -15 -28 0 -51 -10 -51 -23 0 -6 -7 -18
-16 -28 -8 -9 -17 -33 -18 -52 -2 -19 -6 -39 -10 -45 -11 -19 10 -86 36 -115
24 -25 31 -27 107 -27 80 0 81 0 81 26 0 28 46 114 61 114 5 0 9 9 9 20 0 19
-5 21 -72 18 -59 -2 -73 -6 -76 -20 -2 -11 5 -18 20 -20 20 -3 23 -8 20 -38
-1 -19 -4 -41 -7 -47 -2 -7 -20 -13 -38 -13 -22 0 -43 9 -61 25 -22 20 -26 33
-26 75 0 47 4 55 40 90 26 25 53 40 77 44 35 6 40 3 63 -29 14 -19 33 -35 43
-35 14 0 17 9 17 55 l0 55 -90 0 c-73 0 -90 -3 -90 -15z"/>
<path d="M5313 2953 c-21 -8 -14 -33 12 -45 21 -9 29 -9 42 4 9 9 13 24 10 32
-6 15 -38 20 -64 9z"/>
<path d="M9000 2696 c0 -8 -3 -21 -6 -30 -4 -11 -1 -16 10 -16 9 0 16 6 16 14
0 8 3 21 6 30 4 11 1 16 -10 16 -9 0 -16 -6 -16 -14z"/>
<path d="M1666 2564 c-4 -10 0 -24 9 -33 12 -12 19 -13 33 -5 9 6 17 20 17 30
0 26 -50 32 -59 8z"/>
<path d="M3930 2540 c0 -5 4 -10 9 -10 6 0 13 5 16 10 3 6 -1 10 -9 10 -9 0
-16 -4 -16 -10z"/>
<path d="M2020 2516 c0 -9 7 -16 16 -16 9 0 14 5 12 12 -6 18 -28 21 -28 4z"/>
<path d="M3572 2408 c-18 -18 -14 -35 11 -42 35 -9 39 -8 35 21 -3 30 -26 41
-46 21z"/>
<path d="M2520 2344 c0 -8 5 -12 10 -9 6 4 8 11 5 16 -9 14 -15 11 -15 -7z"/>
<path d="M3940 2316 c0 -20 27 -39 45 -32 8 3 15 15 15 26 0 16 -7 20 -30 20
-19 0 -30 -5 -30 -14z"/>
<path d="M1540 2265 c-13 -15 -6 -65 8 -65 5 0 17 6 27 14 17 12 18 18 7 40
-13 30 -24 33 -42 11z"/>
<path d="M2114 2166 c-4 -10 -2 -22 4 -28 8 -8 13 -7 18 6 4 10 2 22 -4 28 -8
8 -13 7 -18 -6z"/>
<path d="M2326 2124 c-19 -19 -17 -33 7 -48 13 -8 21 -6 34 7 13 13 15 21 7
34 -15 24 -29 26 -48 7z"/>
<path d="M7241 2096 c-9 -11 -10 -20 -1 -35 14 -27 46 -27 61 1 10 18 8 24 -7
35 -23 17 -39 17 -53 -1z"/>
<path d="M2670 2012 c0 -5 9 -17 20 -27 11 -10 20 -26 20 -35 0 -10 7 -23 15
-30 12 -10 15 -38 15 -131 l0 -119 40 0 c32 0 40 4 40 18 0 11 -9 29 -20 42
-15 18 -20 37 -20 83 0 52 3 62 27 80 23 18 38 21 93 19 52 -3 68 -8 81 -24
11 -14 23 -19 33 -15 13 5 16 16 14 44 l-3 38 -130 0 -131 0 -31 33 c-30 30
-63 43 -63 24z"/>
<path d="M640 1984 c0 -8 5 -12 10 -9 6 4 8 11 5 16 -9 14 -15 11 -15 -7z"/>
<path d="M6876 1822 c-3 -3 -6 -18 -6 -34 0 -30 17 -37 38 -16 18 18 14 45 -7
51 -11 3 -22 2 -25 -1z"/>
<path d="M1840 1775 c-11 -13 -9 -15 15 -15 16 0 25 5 23 12 -7 19 -24 20 -38
3z"/>
<path d="M3534 1626 c-3 -8 -4 -25 -2 -38 2 -18 10 -24 34 -26 34 -3 58 17 49
40 -6 15 -46 38 -66 38 -5 0 -12 -6 -15 -14z"/>
<path d="M1128 1619 c-10 -5 -18 -16 -18 -23 0 -7 8 -20 18 -29 15 -13 20 -14
36 -1 16 12 18 18 8 39 -13 27 -18 29 -44 14z"/>
<path d="M6132 1585 c12 -26 41 -41 58 -30 5 3 10 17 10 31 0 21 -4 24 -40 24
-39 0 -39 -1 -28 -25z"/>
<path d="M9616 1252 c-3 -5 6 -15 19 -22 20 -11 27 -11 40 0 8 7 12 16 9 21
-7 11 -61 12 -68 1z"/>
<path d="M5310 1195 c0 -24 5 -35 15 -35 10 0 15 11 15 35 0 24 -5 35 -15 35
-10 0 -15 -11 -15 -35z"/>
<path d="M10102 1198 c-6 -6 -12 -20 -12 -30 0 -13 8 -18 31 -18 27 0 30 3 27
27 -3 30 -26 41 -46 21z"/>
<path d="M9597 1176 c-6 -15 1 -26 15 -26 11 0 10 27 -1 34 -5 3 -11 0 -14 -8z"/>
<path d="M8355 1100 c3 -5 10 -10 16 -10 5 0 9 5 9 10 0 6 -7 10 -16 10 -8 0
-12 -4 -9 -10z"/>
<path d="M9542 1040 c0 -14 2 -19 5 -12 2 6 2 18 0 25 -3 6 -5 1 -5 -13z"/>
<path d="M1760 996 c0 -20 5 -36 10 -36 6 0 10 9 10 20 0 14 5 18 16 13 12 -4
15 -1 12 13 -2 11 -13 20 -26 22 -19 3 -22 -1 -22 -32z"/>
<path d="M8374 986 c-9 -23 0 -51 17 -54 9 -2 24 4 33 13 12 12 13 21 6 36
-12 22 -48 25 -56 5z"/>
<path d="M9909 943 c-51 -35 -87 -75 -82 -93 3 -12 -3 -22 -16 -29 -17 -10
-21 -21 -21 -60 0 -31 5 -53 15 -61 8 -7 15 -21 15 -32 0 -10 6 -21 13 -23 6
-3 44 -7 82 -9 65 -3 73 -2 104 24 41 35 37 60 -11 60 -22 0 -37 -7 -46 -20
-9 -15 -23 -20 -52 -20 -36 0 -40 2 -40 26 0 14 -5 34 -10 44 -7 13 -7 21 0
25 5 3 10 18 10 32 0 32 71 103 103 103 14 0 31 -13 46 -35 14 -21 31 -35 40
-33 12 3 16 16 16 58 l0 55 -70 3 c-54 2 -76 -2 -96 -15z"/>
<path d="M1443 882 c-24 -25 -43 -49 -43 -53 0 -4 -9 -9 -21 -12 -15 -4 -20
-12 -18 -29 3 -16 -9 -35 -39 -65 -24 -24 -54 -43 -70 -45 -19 -2 -27 -9 -27
-23 0 -15 8 -21 34 -23 19 -2 44 -1 57 2 19 5 24 13 24 36 0 24 6 33 26 40 38
15 64 12 64 -6 0 -9 -7 -22 -17 -29 -9 -7 -14 -19 -10 -27 4 -11 19 -15 54
-14 38 1 48 5 51 20 2 11 -3 23 -12 28 -12 7 -16 25 -16 72 0 42 5 67 14 75
19 16 28 71 15 87 -6 8 -14 14 -18 13 -3 0 -25 -21 -48 -47z m-5 -101 c4 -29
-13 -50 -29 -34 -13 13 -1 65 15 60 6 -2 13 -14 14 -26z"/>
<path d="M8140 885 c-10 -12 -10 -18 0 -30 16 -19 39 -19 46 0 6 15 -11 45
-26 45 -4 0 -13 -7 -20 -15z"/>
<path d="M10316 733 c-3 -3 -6 -17 -6 -30 0 -14 6 -23 15 -23 9 0 15 9 15 24
0 26 -12 40 -24 29z"/>
<path d="M1592 723 c-19 -4 -23 -10 -20 -36 2 -24 9 -33 24 -35 28 -4 56 24
52 52 -3 22 -17 27 -56 19z"/>
<path d="M3872 693 c2 -10 13 -19 26 -21 17 -3 22 2 22 17 0 16 -6 21 -26 21
-19 0 -25 -5 -22 -17z"/>
<path d="M5770 650 c0 -18 3 -19 20 -10 11 6 20 15 20 20 0 6 -9 10 -20 10
-13 0 -20 -7 -20 -20z"/>
<path d="M3774 598 c-4 -7 2 -18 14 -26 18 -12 22 -24 22 -69 0 -40 -6 -62
-20 -80 -11 -14 -20 -39 -20 -54 0 -26 -3 -29 -35 -29 -31 0 -35 -3 -35 -25
l0 -25 101 0 c98 0 101 1 130 29 16 16 29 34 29 40 0 5 8 15 18 20 15 9 15 10
1 11 -33 0 -40 64 -8 80 17 9 20 19 17 58 -3 46 -3 47 -40 50 -28 2 -38 -1
-38 -11 0 -8 10 -21 21 -29 l22 -14 -27 -27 c-40 -40 -105 -35 -69 5 9 10 23
35 30 56 9 28 9 38 0 44 -19 12 -105 9 -113 -4z m136 -212 l0 -44 -40 -4 c-62
-6 -77 19 -37 65 13 15 33 26 50 26 25 1 27 -2 27 -43z"/>
<path d="M4290 585 c-10 -12 -10 -18 1 -31 16 -20 50 -33 67 -27 6 3 12 16 12
29 0 13 -6 25 -12 26 -7 0 -17 2 -23 2 -5 1 -15 5 -21 9 -7 4 -17 0 -24 -8z"/>
<path d="M6726 534 c-8 -31 4 -47 30 -42 14 2 19 12 19 33 0 23 -5 31 -21 33
-16 2 -23 -4 -28 -24z"/>
<path d="M10408 538 c-3 -7 -3 -21 0 -31 3 -12 12 -17 26 -15 15 2 21 10 21
28 0 18 -6 26 -21 28 -12 2 -24 -3 -26 -10z"/>
<path d="M10549 514 c-11 -31 -12 -44 -1 -44 11 0 52 39 52 49 0 5 -9 11 -21
14 -15 4 -22 -1 -30 -19z"/>
<path d="M4084 506 c-3 -8 -4 -25 -2 -38 2 -17 9 -23 28 -23 18 0 26 6 28 23
4 26 -13 52 -35 52 -7 0 -16 -6 -19 -14z"/>
<path d="M5763 500 c-10 -15 -10 -22 3 -35 20 -20 48 -16 52 8 4 20 -14 47
-32 47 -6 0 -17 -9 -23 -20z"/>
<path d="M10685 490 c-4 -7 -3 -16 2 -21 13 -13 65 0 60 15 -5 15 -53 20 -62
6z"/>
<path d="M2181 461 c-8 -14 -7 -22 4 -31 23 -19 50 -8 53 23 3 23 0 27 -22 27
-15 0 -30 -8 -35 -19z"/>
<path d="M9340 455 c0 -14 7 -28 15 -31 20 -8 45 13 45 37 0 14 -7 19 -30 19
-25 0 -30 -4 -30 -25z"/>
<path d="M6995 460 c-3 -5 3 -10 14 -10 12 0 21 5 21 10 0 6 -6 10 -14 10 -8
0 -18 -4 -21 -10z"/>
<path d="M5082 441 c-8 -4 -12 -17 -10 -27 2 -12 13 -20 31 -22 26 -3 28 -1
25 25 -3 29 -23 39 -46 24z"/>
<path d="M6103 434 c-8 -21 13 -64 32 -64 16 0 30 42 21 65 -7 20 -45 19 -53
-1z"/>
<path d="M10234 346 c-10 -26 1 -51 24 -54 30 -4 39 23 17 48 -21 24 -34 25
-41 6z"/>
<path d="M2934 268 c-4 -6 1 -17 11 -24 13 -10 23 -10 37 -3 15 8 17 13 7 25
-14 17 -45 18 -55 2z"/>
<path d="M9080 270 c0 -5 7 -10 15 -14 8 -3 15 -12 15 -21 0 -8 7 -15 15 -15
18 0 36 32 27 47 -8 13 -72 15 -72 3z"/>
<path d="M3874 115 c-4 -9 -2 -21 4 -27 16 -16 47 -5 47 17 0 26 -42 34 -51
10z"/>
</g>
</svg>
