<?xml version="1.0" standalone="no"?>
<!DOCTYPE svg PUBLIC "-//W3C//DTD SVG 20010904//EN"
 "http://www.w3.org/TR/2001/REC-SVG-20010904/DTD/svg10.dtd">
<svg version="1.0" xmlns="http://www.w3.org/2000/svg"
 width="472.000000pt" height="316.000000pt" viewBox="0 0 472.000000 316.000000"
 preserveAspectRatio="xMidYMid meet">
<g transform="translate(0.000000,316.000000) scale(0.100000,-0.100000)"
fill="#ffffff" stroke="none">
<path d="M2099 2920 c-81 -22 -125 -44 -139 -69 -6 -12 -10 -113 -10 -256 l0
-235 -25 6 c-26 7 -204 -24 -219 -37 -6 -5 -18 -9 -27 -9 -9 0 -31 -13 -48
-29 l-31 -29 0 -236 0 -236 -27 -1 c-81 -3 -214 -19 -253 -31 -25 -7 -60 -23
-78 -36 l-32 -23 0 -195 c0 -158 -3 -194 -14 -194 -7 0 -31 7 -51 16 -30 12
-44 13 -62 5 -31 -14 -318 -15 -344 -1 -14 8 -34 6 -74 -5 -30 -9 -55 -22 -55
-29 0 -6 27 -18 61 -25 45 -10 63 -11 72 -2 16 16 311 15 337 -1 16 -10 28 -9
67 5 27 10 50 14 55 9 5 -5 8 -27 6 -48 l-3 -39 -297 3 -297 4 -58 -40 c-32
-22 -74 -55 -93 -74 -19 -18 -56 -50 -82 -71 l-48 -38 0 -309 c0 -170 4 -311
8 -314 4 -2 257 -6 562 -7 305 -2 641 -6 745 -10 105 -4 648 -10 1208 -13
l1017 -7 102 106 c56 58 108 114 115 125 11 15 13 82 11 322 l-3 303 -312 3
-313 2 0 253 c-1 182 -4 256 -13 268 -32 41 -145 79 -238 79 -45 0 -70 5 -78
14 -8 10 -11 79 -9 232 1 121 -2 228 -5 239 -4 11 -18 27 -30 36 -48 34 -247
76 -316 66 -27 -3 -41 -1 -41 6 -1 7 -1 114 -1 238 l0 227 -27 24 c-35 31 -62
43 -147 62 -99 23 -375 20 -466 -4z m386 -40 c108 -11 164 -25 183 -44 14 -14
14 -17 -2 -35 -18 -20 -44 -25 -191 -41 -99 -10 -362 -2 -371 11 -3 5 -18 9
-33 9 -16 0 -39 8 -52 19 -19 15 -21 21 -11 34 14 17 132 46 207 50 98 6 191
5 270 -3z m-445 -137 c64 -30 160 -43 306 -43 118 0 165 5 224 21 41 11 84 22
95 25 20 5 20 1 19 -230 -1 -213 -3 -238 -19 -256 -10 -11 -28 -20 -40 -20
-13 0 -39 -7 -60 -16 -31 -13 -74 -15 -241 -12 -145 2 -207 7 -216 16 -6 6
-23 12 -35 12 -13 0 -36 9 -52 21 l-28 20 3 237 c1 130 3 238 3 240 1 2 4 2 9
0 4 -2 18 -9 32 -15z m-90 -449 c0 -14 5 -34 10 -44 6 -11 37 -29 70 -41 33
-12 60 -26 60 -32 0 -15 -215 1 -372 29 -20 3 -44 14 -53 24 -16 17 -15 20 10
36 29 19 81 32 170 43 106 14 105 14 105 -15z m1005 5 c5 -5 22 -9 38 -9 16 0
45 -10 64 -21 29 -18 32 -24 21 -35 -43 -42 -443 -85 -455 -48 -2 5 21 20 52
33 42 17 55 28 56 44 1 20 3 29 7 48 3 9 206 -2 217 -12z m-1206 -151 c43 -14
92 -18 216 -18 88 0 187 5 220 12 33 6 82 12 109 12 l48 1 -1 -223 c-1 -123
-4 -229 -7 -236 -6 -16 -139 -52 -209 -57 -87 -7 -289 -1 -330 10 -22 5 -57
14 -78 19 -69 18 -67 9 -67 272 0 130 3 240 7 243 3 4 13 1 21 -5 8 -7 40 -21
71 -30z m1341 -203 l0 -244 -27 -14 c-65 -33 -167 -50 -303 -51 -177 0 -239 8
-337 45 -23 9 -23 10 -24 229 -1 121 -2 226 -3 233 -2 19 66 20 125 3 40 -12
100 -16 240 -16 103 0 190 4 193 9 3 4 24 11 47 15 23 4 51 13 62 21 12 8 23
15 24 15 2 0 3 -110 3 -245z m-1496 -207 c3 -7 7 -25 10 -40 4 -18 20 -36 49
-53 24 -14 55 -25 68 -25 13 0 30 -4 37 -9 10 -6 6 -10 -13 -14 -41 -7 -307 4
-327 14 -9 5 -33 9 -52 9 -45 0 -106 29 -106 50 0 12 17 22 58 33 31 9 80 19
107 23 28 3 70 10 95 14 68 11 70 11 74 -2z m1689 -18 c82 -12 140 -35 135
-52 -6 -18 -54 -40 -108 -50 -25 -5 -107 -13 -182 -19 -90 -7 -146 -8 -165 -1
l-28 9 40 7 c74 13 116 29 136 54 10 14 19 32 19 42 0 26 12 32 50 26 19 -3
66 -10 103 -16z m-875 -79 c20 -10 55 -22 77 -26 40 -8 40 -8 12 -16 -38 -10
-252 -10 -280 0 -19 8 -17 10 18 16 57 10 104 25 110 36 9 13 21 11 63 -10z
m1019 -273 l-2 -243 -41 -21 c-54 -28 -115 -36 -304 -37 -172 -2 -258 7 -310
32 l-35 16 -3 238 -2 237 38 0 c21 0 42 -4 48 -9 5 -5 36 -12 69 -15 33 -4 75
-11 94 -17 49 -16 327 5 362 27 13 9 67 30 81 33 3 0 5 -108 5 -241z m-2082
207 c11 -7 40 -13 65 -14 25 -1 61 -7 81 -13 45 -13 189 -5 294 17 44 9 98 18
120 18 l40 2 0 -220 c0 -121 -3 -228 -8 -237 -10 -23 -61 -45 -117 -52 -198
-23 -258 -26 -330 -15 -178 27 -211 36 -226 60 -4 7 -8 117 -8 246 l-1 233 35
-7 c19 -3 44 -11 55 -18z m820 -9 c179 -32 235 -32 395 5 25 6 62 13 83 16
l37 5 -2 -238 -3 -239 -30 -14 c-42 -21 -120 -32 -270 -38 -137 -6 -259 7
-330 34 -22 8 -43 20 -47 26 -4 7 -8 115 -8 241 l0 228 43 -5 c23 -3 83 -13
132 -21z m-955 -441 c0 -31 44 -64 108 -83 26 -7 86 -16 134 -20 47 -4 89 -10
92 -13 3 -3 -2 -12 -11 -20 -15 -12 -105 -13 -573 -9 l-554 5 89 69 c50 39 94
76 98 83 6 10 73 13 312 13 l305 0 0 -25z m2806 2 c3 -8 -30 -50 -76 -96 l-81
-83 -62 6 c-34 3 -284 7 -554 8 -376 2 -493 5 -493 14 0 7 14 24 31 39 21 17
38 24 48 19 20 -9 159 -24 226 -25 99 -1 241 13 285 28 83 29 111 44 120 69
l9 24 263 3 c145 1 267 3 271 5 4 1 10 -4 13 -11z m-2011 -60 c11 -8 47 -22
80 -32 50 -16 91 -19 255 -19 159 0 205 3 250 17 30 10 68 25 83 34 34 18 77
10 77 -15 0 -10 -15 -32 -33 -50 l-33 -32 -547 1 c-301 1 -550 5 -552 9 -11
18 27 29 135 38 119 10 195 28 218 49 17 17 42 16 67 0z m2049 -14 c-4 -10
-10 -122 -13 -250 l-6 -232 -47 -53 c-25 -29 -56 -64 -67 -77 l-21 -24 0 253
0 254 68 72 c65 69 103 94 86 57z m-2674 -127 l115 -1 -1 -32 c0 -18 -1 -141
-2 -273 l-2 -240 -252 6 c-139 3 -388 9 -553 13 l-300 6 -3 269 -3 268 443 -8
c244 -4 495 -8 558 -8z m1271 -14 c3 -4 3 -125 1 -270 l-4 -262 -551 2 -551 3
2 260 c1 143 2 265 2 270 0 7 187 9 547 7 302 -2 551 -6 554 -10z m835 -2
l372 0 -5 -247 c-2 -137 -6 -257 -8 -268 -4 -20 -11 -20 -567 -17 -310 2 -565
7 -568 10 -3 4 -4 126 -2 271 l4 264 201 -6 c111 -4 369 -7 573 -7z"/>
<path d="M2990 2460 c20 -13 40 -13 40 0 0 6 -12 10 -27 10 -22 0 -25 -2 -13
-10z"/>
<path d="M3605 1860 c3 -5 10 -10 16 -10 5 0 9 5 9 10 0 6 -7 10 -16 10 -8 0
-12 -4 -9 -10z"/>
<path d="M3601 1618 c-31 -31 -92 -130 -88 -143 2 -5 12 -11 23 -13 51 -8 62
-13 60 -29 0 -12 7 -19 22 -21 18 -3 22 1 22 21 0 14 6 27 13 30 10 3 10 9 0
26 -7 11 -13 44 -13 73 0 71 -10 85 -39 56z m-3 -110 c-3 -7 -11 -13 -18 -13
-7 0 -15 6 -17 13 -3 7 4 12 17 12 13 0 20 -5 18 -12z"/>
<path d="M441 1556 c-28 -41 -51 -80 -51 -86 0 -5 20 -10 45 -10 41 0 45 -2
45 -25 0 -20 5 -25 26 -25 19 0 24 5 22 18 -2 11 3 27 11 36 13 15 13 19 0 26
-10 7 -14 28 -14 72 0 90 -19 89 -84 -6z m49 -40 c0 -19 -14 -28 -34 -20 -13
5 -14 9 -5 20 15 18 39 18 39 0z"/>
<path d="M697 1621 c-16 -3 -33 -18 -42 -35 -24 -46 -19 -63 19 -70 34 -7 46
-21 46 -57 0 -16 -8 -19 -47 -20 -27 -1 -58 0 -70 1 -34 2 -45 -8 -33 -31 13
-22 38 -25 46 -4 5 12 9 12 30 -2 22 -14 27 -14 59 1 38 19 65 51 65 80 0 10
-16 33 -35 52 -36 33 -45 56 -22 53 32 -4 57 2 57 15 0 8 -7 17 -16 20 -17 7
-16 7 -57 -3z"/>
<path d="M3803 1620 c-25 -10 -57 -65 -50 -84 3 -7 19 -16 36 -19 32 -7 55
-36 45 -60 -4 -10 -23 -16 -60 -19 -30 -1 -58 0 -63 5 -4 4 -16 1 -27 -7 -18
-14 -18 -16 -2 -32 14 -15 19 -15 33 -4 13 11 23 11 50 1 29 -10 38 -9 62 5
40 25 53 44 53 77 0 19 -10 38 -30 57 -16 15 -30 33 -30 39 0 6 13 11 29 11
37 0 48 15 22 29 -23 13 -38 13 -68 1z"/>
<path d="M838 1553 c-48 -55 -44 -115 10 -146 29 -17 32 -17 56 -1 37 23 34
45 -6 42 -27 -3 -34 1 -42 24 -7 19 -6 31 4 43 12 14 14 14 31 -1 14 -12 22
-13 38 -4 17 8 22 8 27 -3 3 -8 4 -32 2 -53 l-3 -39 110 0 c93 0 109 2 106 15
-3 8 -7 39 -10 69 -7 62 -28 84 -61 63 -14 -9 -26 -9 -39 -3 -23 13 -93 2
-106 -16 -9 -12 -14 -11 -29 6 -23 26 -68 27 -88 4z m210 -69 c3 -32 -19 -61
-38 -49 -11 7 -14 68 -3 79 16 16 38 -1 41 -30z m80 -3 c4 -35 -11 -53 -35
-44 -13 5 -18 64 -6 77 4 4 14 5 23 4 9 -2 16 -16 18 -37z"/>
<path d="M3944 1545 c-20 -20 -25 -33 -22 -67 2 -31 10 -46 30 -61 22 -17 33
-18 60 -11 19 6 34 17 36 27 3 16 -1 17 -32 12 -34 -7 -35 -6 -41 29 -4 20 -4
43 -1 52 6 15 9 15 27 -4 11 -12 24 -22 28 -22 5 0 15 7 22 16 11 14 9 19 -11
35 -34 26 -66 24 -96 -6z"/>
<path d="M4081 1561 c-5 -3 -9 -38 -9 -77 l-1 -72 110 -1 c61 0 115 1 120 5 5
3 2 16 -7 28 -9 15 -12 33 -8 50 12 50 -41 97 -73 65 -7 -7 -19 -8 -30 -4 -22
10 -89 14 -102 6z m77 -77 c3 -33 -11 -60 -26 -50 -17 10 -24 57 -11 72 18 21
34 12 37 -22z m80 2 c5 -38 -4 -57 -23 -50 -9 4 -15 19 -15 38 0 18 3 36 7 40
13 13 28 -1 31 -28z"/>
<path d="M3516 1319 c-21 -11 -34 -24 -30 -28 5 -4 28 -14 52 -21 32 -10 48
-11 67 -2 31 14 315 14 332 0 16 -13 143 11 143 27 0 7 -27 19 -60 29 -44 12
-66 13 -80 6 -25 -13 -337 -13 -345 0 -9 15 -36 11 -79 -11z"/>
<path d="M4000 230 c0 -5 5 -10 10 -10 6 0 10 5 10 10 0 6 -4 10 -10 10 -5 0
-10 -4 -10 -10z"/>
</g>
</svg>
