<?xml version="1.0" standalone="no"?>
<!DOCTYPE svg PUBLIC "-//W3C//DTD SVG 20010904//EN"
 "http://www.w3.org/TR/2001/REC-SVG-20010904/DTD/svg10.dtd">
<svg version="1.0" xmlns="http://www.w3.org/2000/svg"
 width="830.000000pt" height="228.000000pt" viewBox="0 0 830.000000 228.000000"
 preserveAspectRatio="xMidYMid meet">
<g transform="translate(0.000000,228.000000) scale(0.100000,-0.100000)"
fill="#ffffff" stroke="none">
<path d="M1160 2033 c-8 -8 -156 -154 -327 -324 -172 -170 -313 -313 -313
-318 0 -4 -8 -12 -19 -17 -10 -5 -39 -33 -65 -62 l-47 -54 2 -429 c0 -236 4
-431 7 -433 4 -2 417 -7 917 -10 l910 -7 33 25 c18 13 176 167 350 343 215
216 323 317 335 315 11 -2 17 3 17 16 0 11 7 25 15 32 19 16 19 44 1 59 -11 9
-13 90 -15 428 0 229 -2 417 -3 419 -2 1 -385 4 -852 6 -651 2 -853 6 -865 15
-22 17 -63 15 -81 -4z m37 -120 l0 -78 -54 -64 c-40 -50 -53 -73 -53 -98 0
-18 -4 -33 -10 -33 -6 0 -10 -42 -10 -106 l0 -106 -37 8 c-21 4 -49 7 -63 7
-46 -2 -121 -20 -132 -31 -7 -7 -20 -12 -30 -12 -10 0 -18 -3 -18 -7 0 -5 -18
-17 -41 -27 -22 -11 -53 -36 -69 -55 l-28 -36 -91 0 c-50 1 -92 3 -92 5 -1 3
43 49 97 102 54 54 140 138 189 186 50 49 129 129 177 178 47 49 99 101 115
115 15 15 52 52 82 83 29 30 57 54 61 51 4 -3 7 -40 7 -82z m1723 62 c0 -9 -8
-19 -17 -22 -9 -4 -24 -14 -33 -23 -9 -9 -25 -23 -36 -31 -11 -8 -33 -31 -48
-51 -16 -21 -32 -38 -36 -38 -5 0 -32 19 -62 43 -64 50 -92 67 -113 67 -9 0
-32 11 -52 24 -29 20 -39 23 -59 14 -18 -8 -31 -8 -50 1 -21 9 -32 9 -57 -4
-16 -8 -47 -15 -68 -15 -21 0 -41 -4 -44 -10 -3 -5 -19 -10 -35 -10 -28 0 -60
-22 -60 -41 0 -5 -8 -9 -19 -9 -27 0 -103 -86 -134 -152 -15 -31 -27 -64 -27
-72 0 -9 -4 -16 -10 -16 -5 0 -10 5 -10 11 0 20 -52 116 -88 162 -37 47 -134
117 -161 117 -8 0 -33 11 -57 25 -24 14 -45 21 -48 17 -3 -5 -58 -12 -122 -15
-65 -4 -122 -11 -128 -17 -5 -5 -17 -10 -27 -10 -9 0 -28 -11 -43 -25 -15 -14
-32 -23 -37 -20 -10 7 -13 98 -2 108 3 4 384 7 845 7 746 0 838 -2 838 -15z
m9 -446 l-1 -400 -276 -274 c-153 -151 -280 -278 -284 -282 -4 -4 -31 -35 -59
-68 -29 -33 -56 -61 -61 -63 -4 -2 -8 56 -8 128 0 113 3 136 19 158 10 15 28
47 40 72 17 36 22 65 23 145 l1 101 58 -9 c44 -7 66 -6 91 4 18 8 39 12 46 11
15 -4 128 55 162 85 57 49 67 60 95 103 49 75 74 151 79 240 6 102 -14 177
-66 249 -10 13 -18 30 -18 37 0 14 139 164 152 164 5 0 7 -180 7 -401z m-1289
371 c0 -5 12 -13 28 -16 15 -4 41 -17 59 -30 17 -13 36 -24 42 -24 13 0 121
-131 121 -148 0 -7 9 -31 21 -54 28 -55 30 -129 5 -157 -10 -11 -35 -23 -55
-27 -81 -13 -142 -28 -147 -36 -3 -4 -97 -8 -208 -8 -169 0 -206 3 -216 15 -7
8 -28 15 -47 15 -48 0 -143 46 -143 70 0 9 7 23 15 30 17 14 20 40 5 40 -5 0
-10 6 -10 12 0 23 52 148 61 148 5 0 9 5 9 11 0 22 102 110 159 138 51 26 66
28 179 30 74 0 122 -3 122 -9z m880 -5 c7 -8 18 -15 25 -15 24 0 112 -51 141
-81 l28 -29 -40 -41 c-21 -23 -57 -55 -79 -71 -48 -35 -242 -224 -255 -248 -8
-14 -21 -16 -87 -12 -54 3 -82 9 -90 19 -7 9 -19 13 -28 9 -9 -3 -32 1 -52 9
-19 8 -42 15 -51 15 -22 0 -52 30 -52 52 0 10 7 21 15 24 9 4 20 14 25 24 8
14 5 16 -15 12 -20 -3 -25 0 -25 16 0 11 7 25 15 32 8 7 15 19 15 26 0 8 11
32 25 54 14 22 25 43 25 48 0 4 24 30 53 58 56 55 124 94 162 94 13 0 27 5 30
10 3 6 50 10 104 10 75 0 101 -4 111 -15z m240 -192 c39 -84 52 -145 40 -196
-4 -21 -10 -40 -12 -41 -36 -22 -98 -40 -124 -37 -12 1 -24 -5 -27 -13 -5 -13
-23 -16 -86 -16 -88 0 -131 -11 -131 -35 0 -13 10 -15 58 -11 31 3 92 8 135
12 43 4 80 11 83 15 3 5 14 9 25 9 10 0 28 9 39 20 12 12 25 18 30 15 15 -9
12 -49 -5 -71 -8 -10 -15 -26 -15 -36 0 -9 -3 -18 -7 -20 -5 -1 -20 -22 -35
-44 -31 -49 -131 -128 -174 -138 -90 -21 -130 -27 -181 -24 -57 3 -58 3 -73
43 -8 22 -23 52 -33 67 -10 15 -17 33 -15 40 2 7 35 42 73 78 39 35 72 69 74
75 2 5 49 54 105 107 67 65 109 98 124 98 16 0 22 6 22 22 0 13 18 41 42 65
23 24 45 43 48 43 4 0 12 -12 20 -27z m-1606 -283 c9 0 16 -4 16 -10 0 -15
-40 -12 -56 5 -9 8 -12 20 -8 26 5 9 11 7 19 -4 7 -10 20 -17 29 -17z m850 15
c3 -8 15 -15 26 -15 11 0 20 -4 20 -10 0 -5 -16 -10 -35 -10 -31 0 -35 3 -35
25 0 27 15 34 24 10z m-737 -51 c36 -12 88 -17 205 -17 l158 -1 -52 -45 -51
-45 -96 -1 -96 0 -48 43 c-26 24 -61 48 -77 54 -17 5 -30 14 -30 19 0 14 34
11 87 -7z m723 -6 c14 -6 32 -14 40 -19 8 -5 24 -13 35 -18 28 -14 101 -60 95
-61 -23 -4 -562 -2 -566 2 -3 3 23 24 57 47 40 27 72 41 93 41 18 0 36 4 42 9
20 20 155 19 204 -1z m121 11 c11 -6 57 -13 102 -17 l82 -7 -41 -44 -42 -45
-33 35 c-19 18 -52 41 -74 50 -41 17 -58 39 -30 39 9 0 25 -5 36 -11z m-1006
-9 c3 -5 14 -10 24 -10 19 0 141 -76 141 -88 0 -8 -549 -7 -557 1 -5 6 59 49
90 60 9 3 17 11 17 17 0 5 11 10 24 10 14 0 28 5 31 10 4 6 53 10 115 10 62 0
111 -4 115 -10z m-498 -157 c2 -5 -6 -18 -17 -28 -11 -10 -20 -26 -20 -36 0
-10 -4 -21 -10 -24 -5 -3 -10 -19 -10 -34 0 -15 -5 -32 -11 -38 -7 -7 -9 -40
-6 -89 5 -88 12 -124 33 -171 8 -17 14 -36 14 -41 0 -6 3 -12 8 -14 4 -1 19
-20 34 -41 l26 -39 -51 -47 c-77 -69 -147 -146 -147 -161 0 -7 -3 -10 -6 -7
-4 3 -6 181 -5 394 0 213 1 388 1 389 0 1 37 0 82 -1 45 -1 83 -6 85 -12z
m716 7 c4 0 7 -9 7 -19 0 -11 3 -21 8 -23 10 -4 42 -67 42 -83 0 -7 7 -18 15
-25 21 -18 17 -120 -5 -130 -8 -4 -25 -12 -37 -18 -13 -7 -34 -12 -47 -12 -13
0 -26 -7 -30 -15 -4 -10 -20 -15 -53 -15 -26 0 -56 -7 -65 -14 -23 -17 -225
-21 -293 -5 -27 6 -70 13 -95 16 -25 3 -54 12 -65 19 -11 8 -29 14 -42 14 -12
0 -25 5 -28 10 -3 6 -15 10 -25 10 -27 0 -39 49 -16 65 18 13 22 35 6 35 -12
0 -13 67 -1 74 4 3 16 27 26 53 10 26 24 53 32 58 8 6 133 9 336 8 177 -1 325
-2 330 -3z m162 -1 c4 -6 -2 -21 -14 -33 -12 -12 -21 -32 -21 -43 0 -22 -23
-47 -33 -36 -4 3 -7 15 -7 25 0 11 -11 34 -25 53 -19 24 -22 34 -13 38 24 10
107 7 113 -4z m721 -64 c0 -43 -4 -69 -13 -76 -16 -14 -17 -31 -1 -47 6 -6 12
-36 13 -67 1 -52 0 -56 -28 -70 -17 -8 -47 -15 -67 -15 -20 0 -45 -7 -56 -15
-15 -11 -53 -14 -174 -14 -116 0 -161 3 -180 14 -14 8 -39 14 -57 15 -17 0
-44 6 -60 14 -15 8 -48 20 -72 28 -25 8 -49 22 -55 32 -9 14 -6 21 14 38 23
18 23 21 7 33 -21 15 -22 64 -2 71 8 4 15 13 15 21 0 9 11 36 25 62 l25 46
333 -2 332 -2 1 -66z m54 -29 c0 -8 7 -26 15 -42 10 -20 13 -45 8 -89 -5 -54
-15 -74 -35 -75 -3 0 -6 52 -6 115 0 68 3 113 9 110 5 -4 9 -12 9 -19z m-850
-240 c0 -7 -7 -19 -15 -26 -8 -7 -15 -20 -15 -30 0 -10 -7 -23 -15 -30 -8 -7
-15 -21 -15 -31 0 -11 -4 -19 -9 -19 -5 0 -12 -8 -16 -19 -12 -37 -137 -141
-170 -141 -13 0 -26 -4 -29 -9 -7 -10 -74 -22 -131 -23 -54 -1 -134 13 -141
23 -3 5 -16 9 -28 9 -13 0 -29 7 -36 15 -7 8 -18 15 -24 15 -14 0 -115 105
-134 137 -6 13 -12 29 -12 37 0 7 -6 19 -14 25 -17 14 -27 59 -14 67 9 6 27
-2 100 -37 10 -5 41 -9 69 -9 31 0 56 -6 65 -15 12 -12 45 -15 163 -15 114 0
152 3 167 15 11 8 41 14 72 15 28 0 52 5 52 10 0 6 10 10 23 10 12 0 33 9 47
20 29 23 60 26 60 6z m97 -6 c14 -11 34 -20 44 -20 10 0 21 -4 24 -10 3 -5 30
-10 60 -10 34 0 55 -5 57 -12 4 -10 50 -14 175 -16 144 -3 173 -1 186 12 9 10
33 16 61 16 25 0 48 5 51 11 4 5 14 9 23 7 12 -2 16 -19 19 -73 3 -64 1 -72
-23 -98 -14 -15 -43 -39 -64 -52 -21 -13 -41 -29 -45 -35 -3 -5 -17 -10 -30
-10 -13 0 -26 -4 -29 -9 -3 -5 -23 -11 -43 -14 -21 -3 -57 -10 -80 -15 -32 -7
-49 -6 -69 4 -14 8 -39 14 -55 14 -15 0 -31 5 -34 10 -3 6 -15 10 -25 10 -20
0 -78 36 -120 74 -41 38 -65 69 -89 119 -13 26 -27 47 -32 47 -5 0 -9 16 -9
35 0 19 5 35 11 35 6 0 22 -9 36 -20z m766 -43 c-22 -57 -33 -67 -34 -31 -3
74 11 105 38 83 10 -9 9 -19 -4 -52z m-823 -49 c19 -56 36 -81 93 -141 47 -47
123 -97 151 -97 8 0 16 -5 18 -11 8 -24 220 -51 241 -30 6 6 20 11 31 11 32 0
158 68 183 98 12 14 25 23 29 20 3 -4 6 -55 7 -115 l0 -108 -871 -1 c-837 -2
-871 -1 -859 16 7 10 33 35 58 57 26 21 66 61 90 90 24 28 47 52 51 52 5 1 30
-15 57 -34 26 -19 57 -35 68 -35 12 0 26 -7 33 -15 7 -8 22 -15 34 -15 11 -1
32 -7 46 -15 33 -19 131 -19 156 0 10 8 30 15 43 15 14 0 53 14 87 31 42 20
82 51 123 95 62 66 91 117 91 161 0 39 23 22 40 -29z"/>
<path d="M1427 1653 c-11 -11 24 -43 48 -43 24 0 45 17 45 37 0 9 -14 13 -43
13 -24 0 -47 -3 -50 -7z"/>
<path d="M1550 1646 c0 -19 19 -32 57 -40 35 -8 48 3 38 34 -5 16 -15 20 -51
20 -31 0 -44 -4 -44 -14z"/>
<path d="M1296 1631 c-3 -5 -3 -17 0 -26 5 -12 16 -15 43 -13 28 2 36 7 36 23
0 16 -8 21 -37 23 -20 2 -39 -1 -42 -7z"/>
<path d="M1692 1618 c3 -20 9 -23 43 -23 33 0 40 3 40 20 0 16 -8 21 -43 23
-40 3 -43 2 -40 -20z"/>
<path d="M1192 1618 c-6 -6 -12 -20 -12 -30 0 -14 8 -18 41 -18 38 0 40 1 37
28 -2 20 -9 28 -28 30 -14 2 -31 -3 -38 -10z"/>
<path d="M1820 1594 c0 -20 28 -43 53 -44 20 0 23 30 5 48 -18 18 -58 15 -58
-4z"/>
<path d="M2310 1640 c0 -21 27 -40 59 -40 20 0 37 32 26 50 -3 5 -24 10 -46
10 -32 0 -39 -3 -39 -20z"/>
<path d="M2440 1636 c0 -32 29 -42 53 -17 11 10 16 24 13 30 -4 6 -20 11 -37
11 -24 0 -29 -4 -29 -24z"/>
<path d="M2182 1618 c3 -20 9 -23 43 -23 33 0 40 3 40 20 0 16 -8 21 -43 23
-40 3 -43 2 -40 -20z"/>
<path d="M2066 1604 c-9 -24 2 -34 40 -34 30 0 34 3 34 25 0 22 -4 25 -34 25
-22 0 -36 -6 -40 -16z"/>
<path d="M2700 1598 c1 -40 70 -69 70 -30 0 10 -5 23 -12 30 -16 16 -58 15
-58 0z"/>
<path d="M781 1111 c-17 -11 -5 -51 16 -51 22 0 73 32 73 47 0 15 -67 18 -89
4z"/>
<path d="M910 1100 c0 -11 7 -23 16 -27 21 -8 64 13 64 32 0 11 -11 15 -40 15
-34 0 -40 -3 -40 -20z"/>
<path d="M1030 1105 c0 -24 40 -38 74 -26 15 6 26 17 24 24 -3 6 -25 13 -51
15 -37 2 -47 0 -47 -13z"/>
<path d="M1172 1093 c3 -24 8 -28 40 -31 29 -3 38 1 43 17 3 12 3 25 0 31 -3
5 -24 10 -46 10 -38 0 -40 -2 -37 -27z"/>
<path d="M654 1085 c-9 -22 4 -35 37 -35 24 0 29 4 29 25 0 21 -5 25 -30 25
-18 0 -33 -6 -36 -15z"/>
<path d="M1291 1081 c-8 -14 -6 -22 8 -35 20 -18 57 -21 67 -5 3 6 -6 22 -22
35 -16 13 -32 23 -36 24 -4 0 -12 -8 -17 -19z"/>
<path d="M1667 1114 c-10 -10 -9 -52 2 -59 13 -8 83 35 78 49 -4 13 -69 21
-80 10z"/>
<path d="M1792 1098 c3 -20 8 -23 38 -20 67 5 66 42 -1 42 -36 0 -40 -2 -37
-22z"/>
<path d="M1912 1103 c2 -10 17 -20 38 -24 36 -8 60 3 60 27 0 10 -14 14 -51
14 -42 0 -50 -3 -47 -17z"/>
<path d="M2057 1113 c-4 -3 -7 -17 -7 -29 0 -17 7 -25 24 -30 29 -7 66 3 66
17 0 27 -22 49 -49 49 -15 0 -31 -3 -34 -7z"/>
<path d="M1534 1085 c-10 -25 4 -45 29 -45 29 0 52 24 43 45 -7 20 -65 20 -72
0z"/>
<path d="M7770 1875 c0 -8 5 -15 10 -15 6 0 10 7 10 15 0 8 -4 15 -10 15 -5 0
-10 -7 -10 -15z"/>
<path d="M6596 1811 c-3 -5 1 -15 10 -22 8 -7 22 -25 30 -41 11 -21 12 -39 5
-80 -18 -97 -18 -93 12 -96 l29 -4 -3 64 c-2 35 -1 65 3 68 7 6 81 -86 91
-113 4 -10 13 -17 20 -14 8 2 12 31 13 93 1 49 5 101 9 117 7 25 5 27 -20 27
l-28 0 6 -71 c3 -39 2 -69 -3 -67 -11 4 -90 101 -90 110 0 4 -16 15 -36 23
-43 18 -41 17 -48 6z"/>
<path d="M6912 1805 c-49 -27 -62 -51 -62 -117 0 -54 4 -66 27 -90 22 -23 35
-28 75 -28 51 0 71 13 96 60 19 37 18 60 -3 108 -12 26 -32 50 -53 62 -38 23
-48 23 -80 5z m69 -44 c25 -23 35 -85 20 -123 -9 -23 -17 -28 -45 -28 -25 0
-40 7 -55 26 -12 15 -21 37 -21 49 0 26 49 94 68 95 7 0 22 -9 33 -19z"/>
<path d="M7597 1803 c-17 -9 -39 -36 -54 -69 -26 -52 -26 -55 -10 -88 30 -64
47 -76 102 -76 40 0 56 5 78 25 24 23 27 33 27 94 0 52 -4 71 -17 83 -20 16
-82 49 -92 47 -3 -1 -19 -8 -34 -16z m77 -54 c46 -55 27 -139 -31 -139 -13 0
-33 5 -44 10 -15 9 -19 22 -19 70 0 50 3 60 20 65 11 3 20 11 20 16 0 19 29 8
54 -22z"/>
<path d="M7079 1790 c-20 -16 -21 -21 -10 -29 8 -5 20 -7 27 -4 13 5 26 53 14
53 -4 0 -18 -9 -31 -20z"/>
<path d="M7207 1803 c-10 -16 13 -53 32 -53 29 0 36 18 15 41 -18 19 -39 25
-47 12z"/>
<path d="M7135 1788 c-2 -7 -3 -58 -2 -113 2 -97 3 -100 26 -103 13 -2 27 0
31 5 4 4 5 45 1 91 -3 45 -2 87 3 92 5 5 6 16 3 24 -8 19 -56 21 -62 4z"/>
<path d="M7337 1793 c-4 -3 -7 -15 -7 -25 0 -14 6 -19 23 -16 14 2 23 11 25
26 3 16 -2 22 -16 22 -10 0 -22 -3 -25 -7z"/>
<path d="M7397 1788 c-2 -7 0 -21 5 -31 10 -20 6 -127 -7 -164 -7 -21 -4 -23
29 -23 l35 0 -2 113 -2 112 -26 3 c-16 2 -29 -2 -32 -10z"/>
<path d="M7484 1785 c-4 -9 -2 -21 4 -27 15 -15 44 -1 40 19 -4 23 -36 29 -44
8z"/>
<path d="M635 1670 c-3 -5 1 -10 10 -10 9 0 13 5 10 10 -3 6 -8 10 -10 10 -2
0 -7 -4 -10 -10z"/>
<path d="M5120 1485 c0 -8 5 -15 10 -15 6 0 10 7 10 15 0 8 -4 15 -10 15 -5 0
-10 -7 -10 -15z"/>
<path d="M7342 1468 c6 -18 28 -21 28 -4 0 9 -7 16 -16 16 -9 0 -14 -5 -12
-12z"/>
<path d="M6580 1394 c0 -14 3 -14 15 -4 8 7 15 14 15 16 0 2 -7 4 -15 4 -8 0
-15 -7 -15 -16z"/>
<path d="M6650 1325 c-32 -33 -33 -36 -19 -61 7 -15 25 -34 39 -43 45 -28 63
-49 57 -65 -9 -23 -35 -19 -70 10 -23 20 -32 22 -38 12 -25 -39 6 -68 76 -68
45 0 55 4 69 25 9 13 16 31 16 39 0 8 -22 34 -50 58 -48 42 -62 70 -39 83 6 4
19 -2 30 -14 11 -12 24 -21 29 -21 6 0 10 11 10 25 0 17 -9 29 -30 40 -16 8
-33 15 -38 15 -4 0 -23 -16 -42 -35z"/>
<path d="M6853 1338 c-49 -35 -64 -68 -56 -124 3 -27 15 -61 25 -76 17 -25 26
-28 75 -28 41 0 59 5 69 18 16 20 18 52 4 52 -5 0 -13 -6 -17 -14 -4 -8 -25
-16 -45 -19 -32 -4 -40 -1 -54 21 -34 53 -7 142 43 142 15 0 35 -11 48 -26 25
-29 45 -25 45 10 0 26 -17 46 -35 40 -6 -3 -18 2 -25 11 -17 21 -40 19 -77 -7z"/>
<path d="M7467 1351 c-20 -4 -40 -10 -43 -14 -3 -3 0 -15 6 -27 7 -13 10 -56
9 -108 l-3 -87 68 -5 c54 -4 73 -2 87 11 20 17 26 59 9 59 -5 0 -19 -9 -30
-20 -13 -13 -33 -20 -56 -20 -35 0 -35 1 -32 38 3 35 5 37 33 34 17 -2 34 -8
40 -13 15 -15 25 -10 25 14 0 39 -12 48 -50 37 -19 -6 -38 -10 -42 -10 -5 0
-8 18 -8 40 0 34 3 40 21 40 11 0 33 -9 47 -21 l27 -21 3 32 c2 18 2 33 0 35
-9 9 -78 12 -111 6z"/>
<path d="M7238 1343 c-2 -5 -2 -59 0 -120 l4 -113 79 0 79 0 0 30 c0 33 -13
38 -36 15 -9 -8 -26 -15 -40 -15 -27 0 -27 -3 -24 123 l2 87 -31 0 c-16 0 -31
-3 -33 -7z"/>
<path d="M7087 1333 c-4 -3 -7 -19 -7 -34 0 -15 -7 -29 -15 -33 -8 -3 -15 -14
-15 -25 0 -11 -4 -23 -10 -26 -5 -3 -10 -17 -10 -30 0 -12 -7 -25 -15 -29 -8
-3 -15 -15 -15 -26 0 -15 7 -20 29 -20 30 0 49 14 32 24 -12 8 -3 42 15 57 8
6 14 24 14 40 0 16 3 29 8 29 10 0 42 -92 42 -124 0 -23 4 -26 35 -26 19 0 35
5 35 11 0 6 -8 28 -19 48 -29 57 -51 111 -51 125 0 12 -31 46 -42 46 -2 0 -8
-3 -11 -7z"/>
<path d="M2516 515 c-3 -9 0 -15 9 -15 16 0 20 16 6 24 -5 3 -11 -1 -15 -9z"/>
<path d="M6014 385 c-8 -19 3 -35 25 -35 18 0 35 33 23 44 -11 12 -43 6 -48
-9z"/>
<path d="M5940 375 c0 -8 2 -15 4 -15 2 0 6 7 10 15 3 8 1 15 -4 15 -6 0 -10
-7 -10 -15z"/>
</g>
</svg>
