<?xml version="1.0" standalone="no"?>
<!DOCTYPE svg PUBLIC "-//W3C//DTD SVG 20010904//EN"
 "http://www.w3.org/TR/2001/REC-SVG-20010904/DTD/svg10.dtd">
<svg version="1.0" xmlns="http://www.w3.org/2000/svg"
 width="520.000000pt" height="310.000000pt" viewBox="0 0 520.000000 310.000000"
 preserveAspectRatio="xMidYMid meet">
<g transform="translate(0.000000,310.000000) scale(0.100000,-0.100000)"
fill="#ffffff" stroke="none">
<path d="M1130 3088 c0 -4 9 -8 20 -8 11 0 20 4 20 8 0 4 -9 8 -20 8 -11 0
-20 -4 -20 -8z"/>
<path d="M2070 3088 c0 -4 9 -8 20 -8 11 0 20 4 20 8 0 4 -9 8 -20 8 -11 0
-20 -4 -20 -8z"/>
<path d="M3100 3088 c0 -11 67 -10 74 0 2 4 -13 8 -35 7 -21 0 -39 -3 -39 -7z"/>
<path d="M2810 3001 c-236 -56 -405 -172 -456 -313 -14 -38 -16 -142 -15 -853
1 -734 3 -812 18 -835 18 -28 84 -97 437 -463 l239 -247 116 0 116 0 76 97
c41 54 136 177 210 273 73 96 166 214 206 262 l71 87 -1 833 c-2 794 -3 835
-21 871 -45 92 -157 184 -290 240 -194 82 -482 101 -706 48z m570 -35 c191
-51 342 -151 396 -262 15 -30 23 -58 20 -62 -4 -4 -163 -7 -353 -7 -268 0
-347 -3 -350 -12 -4 -10 72 -13 357 -13 l362 0 -7 -27 c-4 -16 -8 -38 -10 -50
-8 -69 -106 -172 -226 -237 -144 -78 -315 -110 -539 -103 -180 6 -279 29 -419
100 -194 97 -280 232 -236 368 44 136 181 239 400 302 106 30 174 36 350 32
132 -3 177 -8 255 -29z m-991 -525 c50 -96 212 -197 401 -247 97 -26 119 -28
290 -29 170 0 194 2 293 28 180 46 339 140 396 233 14 24 28 44 31 44 3 0 5
-160 5 -356 0 -242 -3 -350 -10 -337 -21 38 -113 120 -168 150 -375 203 -1081
126 -1234 -134 -14 -24 -27 -43 -29 -43 -2 0 -4 164 -4 365 0 201 2 365 5 365
2 0 14 -17 24 -39z m899 -441 c208 -33 332 -84 431 -176 69 -63 87 -108 76
-183 -10 -64 -27 -92 -82 -138 -110 -90 -248 -143 -441 -167 -155 -20 -220
-20 -368 -1 -230 30 -423 119 -497 228 -122 179 92 378 468 436 160 25 260 25
413 1z m-894 -449 c35 -66 209 -180 303 -197 21 -3 43 -10 48 -14 42 -29 331
-47 505 -31 109 10 219 35 285 66 17 8 46 21 65 29 19 8 48 23 64 33 37 23
116 100 116 113 0 6 5 10 10 10 6 0 10 -97 10 -271 l0 -272 -34 -41 c-54 -66
-104 -116 -115 -116 -6 0 -11 -4 -11 -10 0 -5 -15 -17 -32 -25 -18 -8 -44 -22
-58 -29 -48 -27 -159 -68 -200 -73 -22 -3 -43 -10 -46 -14 -3 -5 -16 -6 -30
-3 -13 3 -24 2 -24 -3 0 -9 -38 -12 -155 -14 -65 -2 -164 6 -170 13 -4 4 -13
4 -21 1 -8 -3 -20 -1 -27 5 -6 5 -30 12 -52 14 -23 3 -61 15 -85 27 -24 11
-51 21 -60 21 -9 0 -37 14 -63 30 -26 16 -52 30 -56 30 -14 0 -161 151 -177
181 -10 21 -14 91 -16 298 -2 149 0 271 4 271 4 0 14 -13 22 -29z m1237 -749
c-11 -16 -27 -35 -36 -42 -9 -8 -31 -34 -48 -59 -26 -39 -92 -125 -139 -181
-7 -9 -33 -42 -58 -75 -25 -33 -53 -67 -62 -77 -10 -10 -18 -22 -18 -28 0 -6
-48 -10 -124 -10 -116 0 -125 1 -131 20 -3 11 -11 20 -16 20 -5 0 -40 33 -77
72 -37 40 -128 135 -203 210 -75 76 -133 138 -129 138 4 0 27 -10 51 -23 24
-13 63 -29 87 -37 23 -7 42 -16 42 -20 0 -14 229 -45 330 -44 99 1 283 28 305
44 6 4 28 13 50 20 42 14 127 56 166 84 32 22 34 20 10 -12z"/>
<path d="M3176 2809 c-30 -35 -32 -56 -10 -87 20 -29 40 -28 60 3 19 29 12 58
-19 73 l-22 11 23 7 c24 7 30 24 8 24 -8 0 -26 -14 -40 -31z m34 -60 c0 -38
-24 -35 -28 4 -2 19 1 27 12 27 11 0 16 -10 16 -31z"/>
<path d="M3304 2775 c-15 -23 -15 -27 0 -50 18 -27 60 -34 69 -12 3 8 -4 13
-22 12 -21 0 -27 5 -29 29 -3 26 -1 28 22 22 19 -5 26 -3 26 9 0 25 -47 18
-66 -10z"/>
<path d="M3389 2796 c0 0 -2 -22 -3 -48 -1 -39 2 -48 15 -48 12 0 16 9 15 36
-1 24 4 39 13 42 11 4 13 -4 9 -36 l-6 -40 44 0 c24 0 46 4 50 9 3 5 0 9 -5 9
-6 0 -11 18 -11 40 0 33 -3 40 -20 40 -11 0 -20 -5 -20 -11 0 -8 -4 -8 -12 -1
-10 8 -64 14 -69 8z m106 -49 c2 -20 -3 -27 -17 -27 -12 0 -18 7 -18 23 0 46
33 49 35 4z"/>
<path d="M4424 2949 c-3 -5 2 -9 10 -9 12 0 16 -11 16 -50 0 -27 -4 -50 -10
-50 -5 0 -10 -4 -10 -10 0 -5 12 -10 26 -10 19 0 24 4 20 18 -25 85 -13 96 31
27 15 -25 31 -45 36 -45 18 0 3 36 -34 80 -40 47 -74 67 -85 49z"/>
<path d="M4523 2939 c9 -5 18 -22 18 -37 2 -27 2 -27 6 -2 3 14 10 31 15 38 8
9 3 12 -23 12 -28 -1 -31 -2 -16 -11z"/>
<path d="M4596 2934 c-9 -8 -16 -31 -16 -49 0 -41 22 -65 59 -65 36 0 61 28
61 68 0 38 -23 62 -60 62 -16 0 -36 -7 -44 -16z m76 -19 c15 -33 -3 -75 -32
-75 -29 0 -47 42 -32 75 7 15 20 25 32 25 12 0 25 -10 32 -25z"/>
<path d="M4710 2935 c0 -12 4 -13 19 -5 30 15 31 14 31 -36 0 -33 -5 -51 -17
-60 -16 -12 -14 -13 20 -14 20 0 37 5 37 10 0 6 -4 10 -10 10 -5 0 -10 23 -10
50 0 48 14 67 26 35 9 -22 24 -18 24 5 0 18 -7 20 -60 20 -47 0 -60 -3 -60
-15z"/>
<path d="M4880 2928 c1 -21 2 -21 11 -5 5 9 17 17 24 17 23 0 20 -89 -2 -106
-16 -12 -14 -13 20 -14 37 0 50 13 22 24 -10 3 -15 19 -15 45 0 44 13 59 35
41 12 -10 15 -9 15 4 0 13 -11 16 -55 16 -50 0 -55 -2 -55 -22z"/>
<path d="M5016 2928 c-36 -51 -8 -108 52 -108 54 0 84 77 44 113 -27 25 -78
22 -96 -5z m79 -12 c22 -33 5 -76 -30 -76 -35 0 -52 43 -30 76 8 13 22 24 30
24 8 0 22 -11 30 -24z"/>
<path d="M995 2807 c-21 -45 -42 -84 -45 -87 -3 -3 -23 -41 -45 -85 -22 -44
-51 -100 -66 -125 -14 -25 -26 -48 -27 -53 -3 -16 -37 -83 -49 -95 -7 -7 -13
-18 -13 -23 0 -6 -14 -30 -30 -54 -17 -24 -34 -52 -38 -62 -4 -10 -19 -36 -33
-58 -15 -22 -66 -107 -114 -190 -48 -82 -116 -197 -150 -255 -34 -58 -93 -157
-130 -220 -37 -63 -82 -140 -101 -172 -40 -66 -44 -113 -13 -152 24 -30 83
-71 143 -99 63 -28 250 -73 391 -93 180 -25 568 -26 745 -1 414 58 631 185
542 315 -10 15 -33 54 -52 87 -56 101 -57 103 -362 620 -36 61 -93 155 -126
210 -34 54 -62 105 -62 113 0 7 -6 12 -12 9 -7 -2 -12 -12 -10 -21 3 -14 -4
-13 -46 8 -119 60 -361 64 -478 7 -21 -11 -41 -18 -42 -16 -2 2 11 30 29 62
55 98 79 147 79 161 0 6 5 12 10 12 6 0 10 9 10 19 0 11 4 21 8 23 10 4 112
210 112 226 0 7 13 12 31 12 21 0 29 4 25 13 -3 6 -9 20 -12 30 -12 32 -29 16
-69 -66z m39 -502 c-2 -25 2 -35 12 -35 9 0 14 8 13 18 -5 55 -5 55 83 47 52
-5 105 -17 143 -33 131 -56 119 -64 -85 -60 l-170 3 0 -98 0 -97 -47 5 c-122
14 -196 40 -246 87 -41 39 -43 55 -10 106 28 45 154 87 269 91 41 1 41 1 38
-34z m346 -84 c0 -6 9 -20 19 -30 10 -10 38 -52 62 -92 24 -41 48 -81 54 -90
5 -9 21 -36 34 -60 13 -24 41 -71 61 -104 20 -33 77 -127 125 -210 48 -82 105
-177 126 -211 22 -33 39 -63 39 -66 0 -3 -31 9 -68 28 -136 68 -359 111 -614
121 l-158 6 0 258 0 259 54 0 c115 0 286 80 286 134 0 24 -17 19 -24 -6 -6
-25 -22 -16 -28 17 -3 18 -11 20 -73 20 -59 0 -70 -3 -73 -18 -7 -37 17 -49
85 -41 43 4 63 3 63 -5 0 -22 -129 -63 -237 -75 l-53 -7 0 86 c0 84 0 85 25
85 14 0 25 -4 25 -10 0 -5 7 -7 15 -4 22 9 19 -20 -5 -41 -11 -10 -20 -22 -20
-27 0 -11 58 -10 65 2 3 6 -1 10 -10 10 -12 0 -14 4 -5 19 5 11 10 28 10 38 0
16 12 18 110 21 73 2 110 0 110 -7z m-126 -47 c22 -9 20 -24 -3 -24 -21 0 -34
13 -24 24 8 7 8 7 27 0z m46 -9 c0 -8 -4 -15 -10 -15 -5 0 -10 7 -10 15 0 8 5
15 10 15 6 0 10 -7 10 -15z m-595 -24 c8 -16 29 -38 47 -49 50 -31 164 -62
224 -62 l54 0 0 -259 0 -258 -152 -6 c-253 -10 -476 -54 -610 -121 -37 -19
-68 -31 -68 -28 0 5 26 49 85 142 12 19 62 103 110 185 49 83 128 217 176 298
48 81 91 157 94 167 9 28 22 25 40 -9z m327 -778 l3 -128 464 -5 465 -5 -35
-39 c-93 -106 -405 -182 -789 -193 -367 -9 -683 35 -865 122 -80 38 -94 49
-120 88 -17 26 -17 30 -1 65 19 42 69 77 156 110 175 66 344 93 687 110 l32 2
3 -127z m418 96 c127 -19 302 -60 339 -79 9 -5 38 -18 64 -31 50 -22 97 -64
97 -86 0 -10 -89 -13 -420 -13 l-420 0 0 30 c0 25 -4 30 -25 30 -25 0 -25 1
-25 90 l0 90 128 -6 c70 -3 188 -14 262 -25z m-362 -192 c2 -10 -3 -17 -12
-17 -10 0 -16 9 -16 21 0 24 23 21 28 -4z"/>
<path d="M1240 1193 c-25 -32 -24 -81 3 -97 43 -27 78 48 36 78 -24 17 -24 17
6 34 20 11 20 11 -2 12 -12 0 -31 -12 -43 -27z m38 -56 c2 -19 -1 -27 -13 -27
-19 0 -30 24 -21 46 9 23 31 11 34 -19z"/>
<path d="M1371 1167 c-15 -15 -14 -50 1 -65 17 -17 174 -17 161 1 -12 15 -2
59 12 55 6 -2 9 -18 9 -35 -1 -26 3 -33 17 -33 15 0 17 6 12 38 -3 20 -8 39
-10 42 -9 10 -192 7 -202 -3z m43 -4 c4 -4 15 -8 24 -8 11 0 17 -8 17 -25 0
-14 -6 -25 -12 -24 -7 1 -22 2 -33 3 -23 1 -35 23 -26 46 6 16 18 19 30 8z
m94 -34 c-4 -28 -31 -32 -36 -6 -5 23 18 51 30 39 6 -6 8 -20 6 -33z"/>
<path d="M1080 2807 c0 -7 13 -38 29 -69 70 -135 96 -183 102 -188 3 -3 13
-23 23 -45 16 -34 81 -150 93 -165 2 -2 8 2 13 10 5 8 6 17 2 20 -4 3 -14 19
-22 35 -8 17 -17 32 -20 35 -3 3 -14 23 -26 45 -11 22 -26 49 -32 60 -6 11
-17 34 -25 50 -23 48 -62 120 -68 125 -3 3 -12 20 -20 38 -8 17 -17 32 -21 32
-5 0 -8 7 -8 15 0 8 -4 15 -10 15 -5 0 -10 -6 -10 -13z"/>
<path d="M1030 2800 c0 -5 7 -10 15 -10 8 0 15 5 15 10 0 6 -7 10 -15 10 -8 0
-15 -4 -15 -10z"/>
<path d="M1037 2773 c-3 -5 -5 -82 -5 -173 0 -115 3 -167 11 -172 9 -6 9 -8 0
-8 -7 0 -13 -7 -13 -15 0 -8 7 -15 15 -15 13 0 15 28 15 195 0 174 -5 217 -23
188z"/>
<path d="M4567 2724 c-22 -12 -27 -21 -27 -53 0 -64 64 -96 105 -51 10 11 13
20 7 20 -6 0 -14 -4 -17 -10 -9 -14 -48 -13 -63 2 -18 18 -15 53 6 71 23 21
38 22 46 2 8 -22 26 -18 26 6 0 12 -5 19 -12 16 -7 -2 -20 -1 -28 3 -9 5 -27
2 -43 -6z"/>
<path d="M4816 2731 c-14 -5 -16 -10 -8 -15 7 -4 12 -27 12 -52 0 -36 -3 -44
-18 -44 -19 0 -34 22 -49 74 -12 38 -30 44 -42 14 -24 -66 -24 -68 7 -68 35 0
45 -9 31 -27 -9 -11 3 -13 69 -13 71 0 83 3 92 20 11 20 -3 30 -15 10 -3 -5
-17 -10 -31 -10 -22 0 -24 4 -24 50 0 29 5 50 11 50 5 0 7 5 4 10 -7 11 -12
12 -39 1z m-78 -59 c2 -7 -3 -12 -12 -12 -9 0 -16 7 -16 16 0 17 22 14 28 -4z"/>
<path d="M4440 2710 c-8 -16 -4 -24 25 -47 19 -15 35 -31 35 -35 0 -12 -35 -9
-48 4 -9 9 -12 7 -12 -10 0 -18 6 -22 34 -22 55 0 62 55 10 78 -13 7 -24 18
-24 27 0 17 16 20 25 5 9 -15 35 -12 35 3 0 23 -68 20 -80 -3z"/>
<path d="M4923 2719 c12 -7 17 -23 17 -54 0 -25 -4 -45 -10 -45 -5 0 -10 -4
-10 -10 0 -5 21 -10 48 -10 36 0 50 5 60 20 7 11 8 20 3 20 -6 0 -13 -4 -16
-10 -3 -5 -17 -10 -31 -10 -19 0 -24 5 -24 25 0 22 3 25 25 19 19 -5 25 -2 25
10 0 12 -6 15 -25 10 -21 -5 -25 -3 -25 16 0 20 4 22 30 17 17 -4 30 -2 30 3
0 6 -26 10 -57 10 -44 -1 -54 -3 -40 -11z"/>
<path d="M3995 2624 c-10 -24 -12 -40 -5 -44 6 -4 11 -113 12 -290 2 -182 7
-285 13 -285 6 0 11 101 13 279 1 172 6 284 13 292 12 15 2 59 -17 74 -10 9
-16 4 -29 -26z"/>
<path d="M4667 2624 c-13 -13 -7 -24 14 -24 11 0 19 5 17 12 -5 14 -22 21 -31
12z"/>
<path d="M3899 1957 c8 -11 6 -28 -8 -70 -22 -62 -11 -89 13 -34 14 36 33 54
43 43 4 -3 1 -18 -6 -32 -7 -17 -8 -31 -3 -36 14 -14 24 7 28 53 4 43 -8 50
-38 22 -21 -19 -23 -8 -3 27 20 35 19 40 -11 40 -21 0 -24 -3 -15 -13z"/>
<path d="M4210 1949 c-11 -8 -12 -12 -2 -16 16 -6 16 -93 0 -93 -9 0 -9 -3 -1
-11 26 -26 38 -3 35 65 -4 68 -7 73 -32 55z"/>
<path d="M4290 1945 c-12 -14 -12 -20 -1 -38 10 -15 11 -22 2 -25 -16 -5 -14
-37 4 -52 32 -26 69 16 46 53 -10 15 -10 21 -1 27 18 11 7 45 -16 48 -11 2
-27 -4 -34 -13z m40 -20 c0 -8 -4 -15 -9 -15 -13 0 -22 16 -14 24 11 11 23 6
23 -9z m-2 -69 c3 -12 -1 -17 -10 -14 -7 3 -15 13 -16 22 -3 12 1 17 10 14 7
-3 15 -13 16 -22z"/>
<path d="M4025 1910 c3 -5 28 -10 56 -10 27 0 49 5 49 10 0 6 -25 10 -56 10
-34 0 -53 -4 -49 -10z"/>
<path d="M4427 1899 c-8 -11 -13 -28 -10 -38 6 -24 47 -46 64 -35 10 6 7 10
-11 14 -18 4 -26 14 -28 34 -3 26 -1 28 22 22 19 -5 26 -3 26 9 0 23 -46 19
-63 -6z"/>
<path d="M4507 1907 c-9 -6 -9 -10 0 -13 8 -4 9 -14 3 -35 -5 -16 -8 -29 -7
-29 1 -1 34 -2 72 -2 69 -2 70 -1 67 23 -8 68 -8 68 -67 67 -30 -1 -61 -6 -68
-11z m63 -37 c0 -23 -4 -30 -20 -30 -14 0 -20 7 -20 23 0 27 7 37 27 37 8 0
13 -12 13 -30z m50 0 c0 -23 -4 -30 -20 -30 -14 0 -20 7 -20 23 0 27 7 37 27
37 8 0 13 -12 13 -30z"/>
<path d="M4025 1870 c3 -5 28 -10 56 -10 27 0 49 5 49 10 0 6 -25 10 -56 10
-34 0 -53 -4 -49 -10z"/>
<path d="M4006 1713 c-3 -3 -6 -136 -6 -295 0 -246 -2 -288 -15 -288 -11 0
-10 -7 6 -35 12 -19 25 -35 29 -35 13 0 32 64 20 68 -6 2 -10 103 -10 292 0
262 -4 313 -24 293z"/>
<path d="M750 881 c0 -6 5 -11 10 -11 6 0 10 -22 10 -50 0 -27 -4 -50 -10 -50
-5 0 -10 -4 -10 -10 0 -5 11 -10 24 -10 14 0 28 5 31 10 3 6 1 10 -4 10 -6 0
-11 12 -11 26 0 21 4 24 20 19 14 -5 20 -2 20 10 0 12 -6 15 -20 10 -16 -5
-20 -2 -20 15 0 19 4 22 30 18 19 -3 29 -1 27 6 -5 14 -97 21 -97 7z"/>
<path d="M1095 850 c-10 -11 -13 -20 -7 -20 7 0 12 -15 12 -34 0 -36 12 -52
30 -41 6 4 4 12 -5 21 -22 22 -19 54 4 54 16 0 20 -8 23 -37 l3 -38 58 -3 c34
-2 57 1 57 8 0 5 -4 10 -10 10 -14 0 -13 33 2 48 22 22 31 12 25 -28 -4 -34
-2 -40 13 -40 13 0 17 8 16 36 -1 24 4 39 13 42 11 4 13 -4 8 -37 -4 -35 -2
-41 13 -41 16 0 18 6 14 38 -3 20 -7 42 -9 49 -4 13 -102 12 -123 -1 -6 -4
-12 -2 -12 3 0 6 -6 11 -14 11 -11 0 -13 -10 -9 -40 5 -32 2 -40 -10 -40 -11
0 -17 11 -19 37 -2 29 -8 39 -23 42 -11 2 -23 7 -26 12 -3 5 -14 0 -24 -11z
m145 -55 c0 -14 -4 -25 -10 -25 -5 0 -10 11 -10 25 0 14 5 25 10 25 6 0 10
-11 10 -25z"/>
<path d="M862 841 c-4 -4 -7 -25 -7 -48 -1 -34 3 -43 16 -43 10 0 21 5 24 10
3 6 1 10 -5 10 -6 0 -10 12 -8 28 2 19 9 28 25 30 19 3 22 -2 25 -35 3 -36 5
-38 41 -40 31 -2 38 1 33 13 -3 9 -6 31 -6 50 0 23 -5 34 -14 34 -11 0 -13
-10 -9 -40 5 -33 3 -40 -11 -40 -12 0 -16 10 -16 40 l0 41 -40 -3 c-22 -1 -44
-4 -48 -7z"/>
<path d="M1020 836 c0 -25 12 -46 26 -46 8 0 14 -4 14 -10 0 -5 -9 -10 -20
-10 -11 0 -20 -4 -20 -10 0 -16 47 -11 54 6 10 27 7 34 -21 46 -27 11 -27 12
-5 15 30 6 28 23 -3 23 -15 0 -25 -6 -25 -14z"/>
<path d="M3231 241 c-9 -6 -10 -11 -2 -15 6 -4 11 -29 11 -57 0 -37 -4 -49
-15 -49 -22 0 -32 50 -13 64 14 10 14 13 0 26 -12 10 -17 11 -20 2 -5 -16 -29
-15 -35 1 -3 9 -7 9 -20 -2 -13 -10 -14 -17 -6 -27 6 -7 10 -21 9 -31 -4 -35
0 -43 22 -43 20 0 21 1 4 13 -21 16 -18 62 4 62 10 0 16 -12 18 -37 3 -37 4
-38 43 -38 28 0 38 3 33 12 -4 6 -6 38 -5 70 2 58 -2 65 -28 49z"/>
<path d="M2900 231 c0 -5 7 -11 15 -15 21 -8 19 -65 -2 -88 -17 -19 -15 -19
42 -16 55 3 60 5 63 27 2 13 -2 27 -9 32 -10 6 -10 11 0 23 22 27 -4 46 -60
46 -27 0 -49 -4 -49 -9z m90 -26 c0 -9 -9 -15 -25 -15 -16 0 -25 6 -25 15 0 9
9 15 25 15 16 0 25 -6 25 -15z m6 -46 c9 -16 -21 -43 -40 -36 -9 4 -16 16 -16
27 0 15 7 20 24 20 14 0 28 -5 32 -11z"/>
<path d="M3052 188 c-7 -7 -12 -21 -12 -33 0 -46 53 -62 71 -21 21 45 -26 87
-59 54z m44 -23 c4 -8 3 -23 0 -32 -6 -15 -8 -15 -23 -1 -16 17 -12 48 7 48 6
0 13 -7 16 -15z"/>
<path d="M3284 186 c-3 -8 -4 -27 -2 -43 2 -20 9 -29 26 -31 31 -5 55 5 47 18
-5 8 -11 7 -21 -1 -11 -9 -17 -9 -29 1 -23 19 -18 30 13 30 35 0 45 9 31 27
-15 17 -58 17 -65 -1z"/>
</g>
</svg>
