<?xml version="1.0" standalone="no"?>
<!DOCTYPE svg PUBLIC "-//W3C//DTD SVG 20010904//EN"
 "http://www.w3.org/TR/2001/REC-SVG-20010904/DTD/svg10.dtd">
<svg version="1.0" xmlns="http://www.w3.org/2000/svg"
 width="362.000000pt" height="331.000000pt" viewBox="0 0 362.000000 331.000000"
 preserveAspectRatio="xMidYMid meet">
<g transform="translate(0.000000,331.000000) scale(0.100000,-0.100000)"
fill="#ffffff" stroke="none">
<path d="M1730 3125 c0 -18 5 -25 20 -25 29 0 27 -37 -2 -43 -17 -3 -15 -5 8
-6 23 -1 33 4 37 18 5 21 -9 41 -30 41 -7 0 -13 6 -13 14 0 9 7 12 20 9 11 -3
20 0 20 6 0 6 -13 11 -30 11 -25 0 -30 -4 -30 -25z"/>
<path d="M2769 3138 c-6 -12 -4 -48 2 -49 5 -1 15 -2 22 -3 22 -2 13 -30 -13
-37 -23 -6 -23 -7 -6 -14 26 -11 51 7 51 36 0 17 -6 25 -22 27 -28 4 -30 22
-3 22 11 0 20 5 20 10 0 8 -47 15 -51 8z"/>
<path d="M2310 3121 c0 -6 5 -13 10 -16 6 -3 10 -14 10 -23 0 -9 10 -28 21
-42 l21 -25 -6 34 c-4 24 -1 40 11 53 9 10 13 21 9 25 -4 4 -16 -3 -26 -17
l-20 -25 0 23 c0 13 -6 22 -15 22 -8 0 -15 -4 -15 -9z"/>
<path d="M2307 3053 c-4 -3 -7 -13 -7 -21 0 -12 3 -12 15 -2 8 7 15 16 15 21
0 11 -14 12 -23 2z"/>
<path d="M1316 3014 c-9 -24 -7 -29 6 -16 7 7 20 12 31 12 10 0 15 5 12 10
-10 16 -42 12 -49 -6z"/>
<path d="M1385 3020 c-4 -6 7 -10 24 -10 17 0 31 5 31 10 0 6 -11 10 -24 10
-14 0 -28 -4 -31 -10z"/>
<path d="M1460 3020 c0 -5 14 -10 31 -10 17 0 28 4 24 10 -3 6 -17 10 -31 10
-13 0 -24 -4 -24 -10z"/>
<path d="M1540 3020 c0 -5 9 -10 20 -10 11 0 20 5 20 10 0 6 -9 10 -20 10 -11
0 -20 -4 -20 -10z"/>
<path d="M1605 3020 c-4 -6 7 -10 24 -10 17 0 31 5 31 10 0 6 -11 10 -24 10
-14 0 -28 -4 -31 -10z"/>
<path d="M1680 3020 c0 -5 12 -10 26 -10 14 0 23 4 19 10 -3 6 -15 10 -26 10
-10 0 -19 -4 -19 -10z"/>
<path d="M1755 3020 c-4 -6 5 -10 19 -10 14 0 26 5 26 10 0 6 -9 10 -19 10
-11 0 -23 -4 -26 -10z"/>
<path d="M1820 3020 c0 -5 14 -10 31 -10 17 0 28 4 24 10 -3 6 -17 10 -31 10
-13 0 -24 -4 -24 -10z"/>
<path d="M1895 3020 c-4 -6 7 -10 25 -10 18 0 29 4 25 10 -3 6 -15 10 -25 10
-10 0 -22 -4 -25 -10z"/>
<path d="M1965 3020 c-4 -6 7 -10 24 -10 17 0 31 5 31 10 0 6 -11 10 -24 10
-14 0 -28 -4 -31 -10z"/>
<path d="M2045 3020 c-4 -6 5 -10 19 -10 14 0 26 5 26 10 0 6 -9 10 -19 10
-11 0 -23 -4 -26 -10z"/>
<path d="M2115 3020 c-4 -6 5 -10 19 -10 14 0 26 5 26 10 0 6 -9 10 -19 10
-11 0 -23 -4 -26 -10z"/>
<path d="M2185 3020 c-4 -6 7 -10 25 -10 18 0 29 4 25 10 -3 6 -15 10 -25 10
-10 0 -22 -4 -25 -10z"/>
<path d="M2695 3011 c-220 -3 -390 -8 -379 -11 18 -4 -9 -30 -148 -140 -94
-74 -175 -140 -182 -145 -6 -6 -65 -53 -131 -105 -66 -52 -160 -127 -210 -168
-49 -40 -105 -85 -123 -100 -22 -17 -45 -26 -68 -27 -37 0 -52 9 -34 20 5 3
10 19 10 36 0 22 5 29 20 29 11 0 20 5 20 10 0 6 -20 10 -45 10 -25 0 -45 -4
-45 -10 0 -5 7 -10 15 -10 19 0 19 -36 1 -72 l-15 -28 55 0 c36 0 54 -4 54
-12 0 -20 -28 -168 -41 -215 l-12 -43 -78 0 c-81 0 -100 -8 -169 -68 -23 -19
-243 -197 -369 -297 -62 -49 -158 -128 -214 -174 -56 -46 -107 -85 -114 -88
-14 -6 -26 -33 -14 -33 5 0 96 71 203 158 107 86 210 168 228 182 18 14 109
87 203 163 l170 137 69 0 c37 0 68 -4 68 -9 0 -4 -11 -25 -25 -45 -14 -20 -25
-40 -25 -44 0 -12 -113 -137 -173 -191 -65 -58 -179 -135 -265 -177 -31 -16
-58 -32 -60 -36 -2 -5 -9 -8 -15 -8 -6 0 -29 -9 -51 -19 -101 -47 -323 -124
-336 -116 -5 3 -10 15 -10 26 0 10 -5 19 -10 19 -7 0 -9 -183 -8 -543 l3 -542
554 -3 c363 -1 558 1 565 8 7 7 -5 10 -35 10 -25 0 -50 5 -55 10 -12 12 9 171
30 235 8 22 17 56 21 75 19 91 133 284 230 388 80 86 265 209 355 237 14 4 39
13 55 21 26 12 112 35 180 50 11 2 34 7 50 10 29 7 30 6 13 -13 -10 -11 -18
-23 -18 -27 0 -4 -9 -26 -20 -50 -24 -53 -40 -149 -40 -241 l0 -70 -70 -50
c-39 -27 -79 -57 -90 -65 -11 -8 -49 -35 -86 -60 -57 -40 -191 -136 -219 -157
-5 -4 -28 -20 -50 -35 -22 -14 -78 -54 -125 -87 -47 -33 -112 -79 -145 -102
-73 -51 -70 -48 -62 -55 6 -6 49 21 177 111 36 25 92 64 125 87 33 23 96 68
140 100 107 77 133 95 250 177 55 39 105 74 111 79 5 5 20 15 32 21 19 10 22
20 22 83 0 39 4 85 9 102 5 17 17 67 27 111 10 44 20 72 22 63 6 -29 24 -21
22 10 -1 15 -2 34 -1 43 1 9 89 84 197 165 108 82 233 178 279 214 45 36 93
72 105 80 12 8 48 35 80 60 31 25 69 54 84 65 16 11 47 35 69 52 23 18 44 28
45 23 2 -6 8 -10 13 -10 8 0 14 1019 7 1021 -18 4 -282 4 -603 0z m555 -22 c0
-4 -6 -9 -12 -12 -14 -5 -391 -312 -494 -402 -7 -5 -29 -23 -50 -40 -20 -16
-70 -57 -109 -90 -40 -33 -90 -75 -112 -93 l-39 -32 -457 -3 c-251 -1 -457 1
-457 6 0 4 4 7 9 7 5 0 40 25 78 56 91 74 119 96 145 116 13 10 102 81 198
158 96 76 186 148 200 159 14 11 69 55 122 98 l96 78 441 0 c243 0 441 -3 441
-6z m18 -960 c-7 -4 -22 -14 -33 -23 -18 -15 -84 -65 -165 -126 -37 -28 -242
-185 -340 -260 -36 -28 -74 -57 -85 -65 -90 -69 -154 -118 -173 -135 -13 -11
-28 -20 -32 -20 -5 0 -9 197 -9 448 l0 447 197 160 c202 165 474 388 504 415
9 8 31 26 49 40 18 14 47 39 64 55 l30 30 3 -479 c2 -378 0 -481 -10 -487z
m-848 -183 l0 -454 -27 -6 c-16 -4 -58 -13 -95 -21 -152 -32 -358 -126 -453
-206 -160 -136 -229 -232 -328 -459 -8 -19 -19 -53 -22 -75 -4 -22 -11 -44
-15 -50 -10 -13 -30 -142 -30 -194 l0 -41 -495 0 -495 0 0 500 c0 478 1 500
18 500 10 0 22 3 26 7 3 4 12 8 19 9 24 3 203 66 257 91 107 48 260 127 260
135 0 4 6 8 13 8 15 0 168 120 220 172 47 48 127 152 127 166 0 7 4 12 9 12 5
0 13 10 17 23 4 12 17 45 29 72 24 52 48 177 46 233 l-2 32 461 0 460 0 0
-454z"/>
<path d="M2551 2247 c-8 -10 -7 -19 4 -33 21 -28 18 -44 -7 -44 -17 0 -19 -3
-10 -12 9 -9 18 -9 37 0 30 14 32 37 5 52 -23 12 -18 32 5 23 9 -3 15 1 15 11
0 19 -33 21 -49 3z"/>
<path d="M3362 2948 c3 -59 21 -73 36 -28 14 40 33 39 25 -1 -9 -46 15 -34 44
22 26 50 28 62 11 57 -6 -2 -17 -20 -24 -39 -9 -25 -13 -29 -13 -12 -1 27 -11
53 -20 53 -4 0 -13 -16 -20 -36 -14 -40 -31 -31 -23 12 2 14 0 24 -7 24 -8 0
-11 -17 -9 -52z"/>
<path d="M1261 2977 c-6 -8 -8 -17 -5 -20 9 -8 44 11 44 23 0 15 -26 12 -39
-3z"/>
<path d="M1205 2930 c-25 -27 -10 -39 16 -13 12 11 17 23 11 27 -5 3 -17 -3
-27 -14z"/>
<path d="M1146 2884 c-4 -9 -4 -19 -1 -22 6 -6 35 18 35 29 0 16 -28 10 -34
-7z"/>
<path d="M1087 2842 c-10 -10 -14 -21 -11 -25 9 -9 44 16 44 30 0 18 -14 16
-33 -5z"/>
<path d="M1030 2795 c-7 -9 -10 -18 -7 -21 6 -7 47 18 47 28 0 14 -27 9 -40
-7z"/>
<path d="M976 2755 c-23 -17 -13 -34 11 -19 19 12 29 34 16 34 -4 0 -17 -7
-27 -15z"/>
<path d="M917 2712 c-10 -10 -14 -21 -11 -25 9 -9 44 16 44 30 0 18 -14 16
-33 -5z"/>
<path d="M857 2666 c-13 -10 -14 -15 -4 -19 15 -6 50 17 40 26 -9 10 -15 8
-36 -7z"/>
<path d="M807 2626 c-16 -12 -24 -36 -12 -36 3 0 15 9 26 19 24 22 12 35 -14
17z"/>
<path d="M741 2577 c-6 -8 -8 -17 -5 -20 7 -7 44 14 44 25 0 13 -27 9 -39 -5z"/>
<path d="M686 2535 c-10 -7 -15 -18 -12 -24 4 -6 14 -4 26 7 34 29 22 44 -14
17z"/>
<path d="M638 2499 c-10 -6 -18 -17 -18 -24 0 -19 8 -19 27 0 20 20 13 37 -9
24z"/>
<path d="M570 2445 c-7 -9 -10 -18 -7 -22 8 -7 37 15 37 28 0 14 -16 11 -30
-6z"/>
<path d="M516 2404 c-23 -22 -8 -39 15 -18 10 9 19 21 19 26 0 13 -17 9 -34
-8z"/>
<path d="M452 2358 c-7 -7 -12 -22 -12 -35 0 -19 5 -23 31 -23 19 0 28 4 24
11 -4 6 -13 8 -21 5 -8 -3 -14 1 -14 10 0 8 7 17 15 20 8 4 15 10 15 15 0 13
-24 11 -38 -3z"/>
<path d="M520 2310 c0 -5 12 -10 26 -10 14 0 23 4 19 10 -3 6 -15 10 -26 10
-10 0 -19 -4 -19 -10z"/>
<path d="M595 2310 c-4 -6 5 -10 19 -10 14 0 26 5 26 10 0 6 -9 10 -19 10 -11
0 -23 -4 -26 -10z"/>
<path d="M660 2310 c0 -5 14 -10 31 -10 17 0 28 4 24 10 -3 6 -17 10 -31 10
-13 0 -24 -4 -24 -10z"/>
<path d="M740 2310 c0 -5 9 -10 20 -10 11 0 20 5 20 10 0 6 -9 10 -20 10 -11
0 -20 -4 -20 -10z"/>
<path d="M805 2310 c-4 -6 7 -10 24 -10 17 0 31 5 31 10 0 6 -11 10 -24 10
-14 0 -28 -4 -31 -10z"/>
<path d="M880 2310 c0 -5 14 -10 31 -10 17 0 28 4 24 10 -3 6 -17 10 -31 10
-13 0 -24 -4 -24 -10z"/>
<path d="M955 2310 c-4 -6 5 -10 19 -10 14 0 26 5 26 10 0 6 -9 10 -19 10 -11
0 -23 -4 -26 -10z"/>
<path d="M1025 2310 c-4 -6 7 -10 24 -10 17 0 31 5 31 10 0 6 -11 10 -24 10
-14 0 -28 -4 -31 -10z"/>
<path d="M1100 2310 c0 -5 12 -10 26 -10 14 0 23 4 19 10 -3 6 -15 10 -26 10
-10 0 -19 -4 -19 -10z"/>
<path d="M1170 2310 c0 -5 11 -10 25 -10 14 0 25 5 25 10 0 6 -11 10 -25 10
-14 0 -25 -4 -25 -10z"/>
<path d="M1245 2310 c-4 -6 7 -10 25 -10 18 0 29 4 25 10 -3 6 -15 10 -25 10
-10 0 -22 -4 -25 -10z"/>
<path d="M1315 2310 c-4 -6 5 -10 19 -10 14 0 26 5 26 10 0 6 -9 10 -19 10
-11 0 -23 -4 -26 -10z"/>
<path d="M440 2245 c0 -14 5 -25 10 -25 6 0 10 11 10 25 0 14 -4 25 -10 25 -5
0 -10 -11 -10 -25z"/>
<path d="M440 2175 c0 -14 5 -25 10 -25 6 0 10 11 10 25 0 14 -4 25 -10 25 -5
0 -10 -11 -10 -25z"/>
<path d="M447 2123 c-11 -10 -8 -43 3 -43 6 0 10 11 10 25 0 26 -2 29 -13 18z"/>
<path d="M3362 2051 c6 -61 15 -73 33 -46 8 11 19 25 24 32 6 6 13 23 17 37
10 39 -13 32 -26 -9 -14 -43 -30 -46 -30 -6 0 17 -5 33 -11 37 -9 5 -10 -8 -7
-45z"/>
<path d="M440 2030 c0 -16 5 -30 10 -30 6 0 10 14 10 30 0 17 -4 30 -10 30 -5
0 -10 -13 -10 -30z"/>
<path d="M440 1955 c0 -14 5 -25 10 -25 6 0 10 11 10 25 0 14 -4 25 -10 25 -5
0 -10 -11 -10 -25z"/>
<path d="M3280 1940 c0 -16 5 -30 10 -30 6 0 10 14 10 30 0 17 -4 30 -10 30
-5 0 -10 -13 -10 -30z"/>
<path d="M440 1885 c0 -14 5 -25 10 -25 6 0 10 11 10 25 0 14 -4 25 -10 25 -5
0 -10 -11 -10 -25z"/>
<path d="M3280 1870 c0 -11 5 -20 10 -20 6 0 10 9 10 20 0 11 -4 20 -10 20 -5
0 -10 -9 -10 -20z"/>
<path d="M440 1810 c0 -16 5 -30 10 -30 6 0 10 14 10 30 0 17 -4 30 -10 30 -5
0 -10 -13 -10 -30z"/>
<path d="M3280 1795 c0 -14 5 -25 10 -25 6 0 10 11 10 25 0 14 -4 25 -10 25
-5 0 -10 -11 -10 -25z"/>
<path d="M440 1741 c0 -11 5 -23 10 -26 6 -4 10 5 10 19 0 14 -4 26 -10 26 -5
0 -10 -9 -10 -19z"/>
<path d="M3280 1725 c0 -14 5 -25 10 -25 6 0 10 11 10 25 0 14 -4 25 -10 25
-5 0 -10 -11 -10 -25z"/>
<path d="M440 1665 c0 -14 5 -25 10 -25 6 0 10 11 10 25 0 14 -4 25 -10 25 -5
0 -10 -11 -10 -25z"/>
<path d="M3280 1655 c0 -14 5 -25 10 -25 6 0 10 11 10 25 0 14 -4 25 -10 25
-5 0 -10 -11 -10 -25z"/>
<path d="M440 1590 c0 -16 5 -30 10 -30 6 0 10 14 10 30 0 17 -4 30 -10 30 -5
0 -10 -13 -10 -30z"/>
<path d="M3280 1580 c0 -16 5 -30 10 -30 6 0 10 14 10 30 0 17 -4 30 -10 30
-5 0 -10 -13 -10 -30z"/>
<path d="M440 1520 c0 -11 5 -20 10 -20 6 0 10 9 10 20 0 11 -4 20 -10 20 -5
0 -10 -9 -10 -20z"/>
<path d="M3280 1505 c0 -14 5 -25 10 -25 6 0 10 11 10 25 0 14 -4 25 -10 25
-5 0 -10 -11 -10 -25z"/>
<path d="M447 1473 c-11 -10 -8 -53 3 -53 6 0 10 14 10 30 0 31 -2 35 -13 23z"/>
<path d="M3280 1435 c0 -14 5 -25 10 -25 6 0 10 11 10 25 0 14 -4 25 -10 25
-5 0 -10 -11 -10 -25z"/>
<path d="M3280 1360 c0 -16 5 -30 10 -30 6 0 10 14 10 30 0 17 -4 30 -10 30
-5 0 -10 -13 -10 -30z"/>
<path d="M244 1335 c-11 -62 18 -93 54 -57 24 24 40 96 20 90 -7 -3 -14 -18
-16 -36 -4 -37 -22 -55 -42 -42 -12 8 -13 13 -2 30 14 23 16 50 2 50 -5 0 -12
-16 -16 -35z"/>
<path d="M2527 1293 c-16 -56 -18 -95 -5 -91 7 3 14 14 16 26 4 27 22 19 22
-9 0 -10 5 -19 11 -19 6 0 9 10 8 23 -1 12 1 30 6 40 4 9 5 24 1 32 -8 21 -53
19 -59 -2z m43 -12 c0 -12 -20 -25 -27 -18 -7 7 6 27 18 27 5 0 9 -4 9 -9z"/>
<path d="M3280 1285 c0 -14 5 -25 10 -25 6 0 10 11 10 25 0 14 -4 25 -10 25
-5 0 -10 -11 -10 -25z"/>
<path d="M2407 1243 c-11 -10 -8 -43 3 -43 6 0 10 11 10 25 0 26 -2 29 -13 18z"/>
<path d="M3280 1215 c0 -14 5 -25 10 -25 6 0 10 11 10 25 0 14 -4 25 -10 25
-5 0 -10 -11 -10 -25z"/>
<path d="M2404 1166 c-7 -20 2 -46 16 -46 13 0 13 47 0 55 -6 3 -13 -1 -16 -9z"/>
<path d="M3280 1140 c0 -16 5 -30 10 -30 6 0 10 14 10 30 0 17 -4 30 -10 30
-5 0 -10 -13 -10 -30z"/>
<path d="M2410 1081 c0 -20 13 -35 23 -25 7 8 -4 44 -14 44 -5 0 -9 -9 -9 -19z"/>
<path d="M3277 1067 c-5 -36 -3 -42 12 -32 13 8 15 52 2 59 -5 3 -11 -9 -14
-27z"/>
<path d="M2417 1023 c-2 -4 -1 -17 3 -28 7 -19 8 -19 15 -2 8 18 -9 46 -18 30z"/>
<path d="M3232 1018 c-7 -7 -12 -19 -12 -27 0 -11 4 -10 20 4 21 19 26 35 12
35 -4 0 -13 -5 -20 -12z"/>
<path d="M3174 966 c-10 -8 -16 -17 -12 -21 7 -7 48 16 48 27 0 12 -14 9 -36
-6z"/>
<path d="M2420 930 c0 -18 4 -29 10 -25 6 3 10 15 10 25 0 10 -4 22 -10 25 -6
4 -10 -7 -10 -25z"/>
<path d="M3121 927 c-13 -13 -15 -37 -3 -37 5 0 17 8 26 19 14 15 14 19 3 24
-8 3 -20 0 -26 -6z"/>
<path d="M3066 875 c-11 -8 -17 -18 -13 -21 10 -11 37 4 37 21 0 18 0 18 -24
0z"/>
<path d="M2417 860 c3 -11 11 -20 18 -20 8 0 11 8 8 20 -3 11 -11 20 -18 20
-8 0 -11 -8 -8 -20z"/>
<path d="M3010 825 c-7 -9 -11 -18 -8 -20 9 -10 38 7 38 21 0 18 -14 18 -30
-1z"/>
<path d="M2422 788 c5 -32 28 -35 28 -4 0 17 -5 26 -16 26 -10 0 -14 -7 -12
-22z"/>
<path d="M2950 775 c-7 -9 -11 -18 -8 -20 8 -9 36 5 42 21 7 19 -18 18 -34 -1z"/>
<path d="M2990 739 c-12 -8 -12 -12 -2 -16 20 -8 15 -63 -5 -63 -14 0 -15 -2
-5 -9 7 -4 25 -6 39 -3 21 4 23 6 9 14 -11 6 -15 19 -12 43 5 39 -3 49 -24 34z"/>
<path d="M3063 743 c-19 -7 -16 -78 3 -94 23 -19 48 1 52 40 5 47 -18 70 -55
54z m35 -54 c-5 -35 -28 -36 -28 -1 0 16 3 32 7 36 11 11 25 -10 21 -35z"/>
<path d="M2430 709 c0 -17 4 -28 10 -24 6 3 10 17 10 31 0 13 -4 24 -10 24 -5
0 -10 -14 -10 -31z"/>
<path d="M2900 730 c-8 -5 -12 -12 -9 -15 8 -8 39 5 39 16 0 11 -11 11 -30 -1z"/>
<path d="M2847 689 c-9 -6 -17 -14 -17 -19 0 -16 30 -11 37 5 8 21 1 25 -20
14z"/>
<path d="M2430 640 c0 -11 5 -20 10 -20 6 0 10 9 10 20 0 11 -4 20 -10 20 -5
0 -10 -9 -10 -20z"/>
<path d="M2793 643 c-14 -5 -18 -33 -5 -33 10 0 32 22 32 32 0 9 -8 9 -27 1z"/>
<path d="M2430 572 c0 -33 16 -43 27 -16 3 8 -2 23 -11 32 -15 15 -16 14 -16
-16z"/>
<path d="M2731 587 c-6 -8 -8 -17 -5 -20 7 -7 44 14 44 25 0 13 -27 9 -39 -5z"/>
<path d="M2675 540 c-18 -20 -11 -25 19 -14 17 6 23 34 8 34 -5 0 -17 -9 -27
-20z"/>
<path d="M2430 511 c0 -17 12 -41 21 -41 5 0 9 11 9 25 0 16 -6 25 -15 25 -8
0 -15 -4 -15 -9z"/>
<path d="M2625 496 c-10 -7 -16 -18 -14 -24 3 -7 12 -5 28 7 13 10 19 21 14
24 -6 4 -18 0 -28 -7z"/>
<path d="M2566 444 c-4 -9 -4 -19 -1 -22 6 -6 35 18 35 29 0 16 -28 10 -34 -7z"/>
<path d="M2447 443 c-11 -10 -8 -43 3 -43 6 0 10 11 10 25 0 26 -2 29 -13 18z"/>
<path d="M2517 402 c-10 -10 -14 -22 -10 -25 7 -8 43 21 43 35 0 14 -16 9 -33
-10z"/>
<path d="M2440 355 c0 -15 6 -25 14 -25 18 0 40 26 27 34 -5 3 -12 0 -14 -6
-3 -8 -6 -6 -6 5 -1 27 -21 20 -21 -8z"/>
<path d="M1590 330 c0 -5 9 -10 19 -10 11 0 23 5 26 10 4 6 -5 10 -19 10 -14
0 -26 -4 -26 -10z"/>
<path d="M1660 330 c0 -5 11 -10 25 -10 14 0 25 5 25 10 0 6 -11 10 -25 10
-14 0 -25 -4 -25 -10z"/>
<path d="M1730 330 c0 -5 11 -10 25 -10 14 0 25 5 25 10 0 6 -11 10 -25 10
-14 0 -25 -4 -25 -10z"/>
<path d="M1800 330 c0 -5 11 -10 25 -10 14 0 25 5 25 10 0 6 -11 10 -25 10
-14 0 -25 -4 -25 -10z"/>
<path d="M1875 330 c3 -5 17 -10 31 -10 13 0 24 5 24 10 0 6 -14 10 -31 10
-17 0 -28 -4 -24 -10z"/>
<path d="M1950 330 c0 -5 11 -10 25 -10 14 0 25 5 25 10 0 6 -11 10 -25 10
-14 0 -25 -4 -25 -10z"/>
<path d="M2020 330 c0 -5 11 -10 25 -10 14 0 25 5 25 10 0 6 -11 10 -25 10
-14 0 -25 -4 -25 -10z"/>
<path d="M2090 330 c0 -5 11 -10 25 -10 14 0 25 5 25 10 0 6 -11 10 -25 10
-14 0 -25 -4 -25 -10z"/>
<path d="M2160 330 c0 -5 11 -10 24 -10 14 0 28 5 31 10 4 6 -7 10 -24 10 -17
0 -31 -4 -31 -10z"/>
<path d="M2235 330 c3 -5 17 -10 31 -10 13 0 24 5 24 10 0 6 -14 10 -31 10
-17 0 -28 -4 -24 -10z"/>
<path d="M2310 330 c0 -5 11 -10 25 -10 14 0 25 5 25 10 0 6 -11 10 -25 10
-14 0 -25 -4 -25 -10z"/>
<path d="M2380 330 c0 -5 11 -10 25 -10 14 0 25 5 25 10 0 6 -11 10 -25 10
-14 0 -25 -4 -25 -10z"/>
<path d="M933 213 c-31 -6 -33 -53 -3 -53 31 0 24 -28 -7 -32 -24 -4 -25 -5
-10 -12 21 -10 67 11 67 30 0 6 -14 17 -31 23 -17 6 -28 15 -24 20 3 6 12 8
20 4 9 -3 15 1 15 11 0 9 -1 15 -2 15 -2 -1 -13 -4 -25 -6z"/>
<path d="M1467 211 c-10 -4 -24 -19 -32 -35 -14 -26 -14 -31 2 -48 9 -10 24
-17 32 -16 9 1 22 -1 29 -6 7 -4 16 -5 20 -1 3 3 0 10 -7 14 -9 6 -10 11 -2
15 6 4 11 22 11 40 0 36 -19 49 -53 37z m28 -22 c4 -5 4 -21 1 -35 -9 -32 -46
-34 -46 -1 0 35 31 60 45 36z"/>
<path d="M2002 212 c-31 -5 -27 -46 6 -50 32 -5 28 -32 -5 -32 -21 0 -24 -3
-15 -12 9 -9 18 -9 37 0 31 14 35 52 5 52 -11 0 -20 7 -20 16 0 8 4 13 8 10 4
-2 14 -1 21 3 17 11 -5 18 -37 13z"/>
<path d="M396 193 c-15 -54 -17 -83 -6 -83 7 0 14 8 17 18 2 10 14 22 26 27
12 6 23 20 25 33 3 19 -1 22 -27 22 -20 0 -31 -6 -35 -17z m44 -14 c0 -5 -7
-9 -15 -9 -9 0 -12 6 -9 15 6 15 24 11 24 -6z"/>
</g>
</svg>
