<?xml version="1.0" standalone="no"?> <!DOCTYPE svg PUBLIC "-//W3C//DTD SVG 20010904//EN" "http://www.w3.org/TR/2001/REC-SVG-20010904/DTD/svg10.dtd"> <svg version="1.0" xmlns="http://www.w3.org/2000/svg" width="392.000000pt" height="123.000000pt" viewBox="0 0 392.000000 123.000000" preserveAspectRatio="xMidYMid meet"> <g transform="translate(0.000000,123.000000) scale(0.100000,-0.100000)" fill="#ffffff" stroke="none"> <path d="M3012 1093 l-53 -46 46 -47 47 -48 -46 -38 c-56 -47 -56 -48 -5 -100 l40 -41 -51 -43 -51 -43 43 -44 43 -44 -52 -47 -52 -47 49 -55 49 -55 46 45 46 45 35 -40 c18 -22 34 -43 34 -47 0 -18 24 -5 69 37 l48 45 39 -50 c47 -59 51 -60 94 -15 43 44 52 44 87 -5 39 -54 42 -54 104 0 l54 48 -45 47 -45 47 50 44 49 44 -42 43 c-52 53 -52 54 3 96 54 40 55 47 10 91 -44 43 -44 43 10 93 l46 42 -47 53 c-56 63 -51 62 -107 8 l-44 -44 -37 44 c-45 54 -50 54 -101 4 l-41 -40 -34 45 c-41 55 -53 56 -102 8 -24 -23 -42 -34 -46 -27 -28 42 -66 84 -76 84 -6 0 -35 -21 -64 -47z m98 -18 l34 -35 -37 -38 -38 -37 -34 40 -34 40 31 32 c39 40 37 41 78 -2z m530 -27 c37 -41 37 -43 -4 -84 l-34 -34 -35 42 -35 42 36 33 c45 39 37 39 72 1z m-451 -145 l-39 -35 -23 28 c-50 62 -49 56 -9 91 l37 33 36 -41 37 -41 -39 -35z m151 93 c0 -2 -7 -7 -16 -10 -8 -3 -12 -2 -9 4 6 10 25 14 25 6z m214 -42 l29 -36 -37 -36 -36 -37 -37 37 -37 38 34 35 c42 44 48 44 84 -1z m-304 11 c0 -3 -2 -5 -5 -5 -3 0 -5 2 -5 5 0 3 2 5 5 5 3 0 5 -2 5 -5z m180 -10 c-7 -9 -15 -13 -19 -10 -3 3 1 10 9 15 21 14 24 12 10 -5z m-146 -10 c-4 -8 -11 -15 -16 -15 -6 0 -5 6 2 15 7 8 14 15 16 15 2 0 1 -7 -2 -15z m113 -22 c-4 -3 -10 -3 -14 0 -3 4 0 7 7 7 7 0 10 -3 7 -7z m-118 -41 l30 -39 -40 -38 c-22 -20 -41 -36 -42 -34 -1 2 -18 21 -37 42 l-35 38 40 35 c49 42 47 42 84 -4z m181 -12 l32 -41 -38 -34 c-47 -41 -42 -42 -83 6 l-34 39 39 35 c49 43 46 43 84 -5z m-120 6 c0 -3 -4 -8 -10 -11 -5 -3 -10 -1 -10 4 0 6 5 11 10 11 6 0 10 -2 10 -4z m-213 -23 c-4 -3 -10 -3 -14 0 -3 4 0 7 7 7 7 0 10 -3 7 -7z m408 -23 c3 -5 4 -10 1 -10 -3 0 -8 5 -11 10 -3 6 -4 10 -1 10 3 0 8 -4 11 -10z m-374 -17 c13 -15 12 -15 -8 -4 -24 12 -29 21 -14 21 5 0 15 -7 22 -17z m198 -24 l34 -41 -40 -40 -40 -40 -38 46 -38 46 39 35 c48 42 42 43 83 -6z m-239 16 c0 -3 -2 -5 -5 -5 -3 0 -5 2 -5 5 0 3 2 5 5 5 3 0 5 -2 5 -5z m401 -12 c13 -17 13 -17 -6 -3 -11 8 -22 16 -24 17 -2 2 0 3 6 3 6 0 17 -8 24 -17z m44 -3 c3 -5 4 -10 1 -10 -3 0 -8 5 -11 10 -3 6 -4 10 -1 10 3 0 8 -4 11 -10z m-431 -62 c4 4 11 7 15 7 12 0 40 32 34 39 -4 3 -1 6 5 6 22 0 11 -25 -23 -53 l-34 -28 -30 33 c-39 42 -41 58 -3 18 16 -16 32 -26 36 -22z m456 37 c0 -3 -2 -5 -5 -5 -3 0 -5 2 -5 5 0 3 2 5 5 5 3 0 5 -2 5 -5z m-125 -41 c15 -21 25 -25 49 -20 l30 6 -22 -20 c-11 -11 -25 -20 -29 -19 -15 1 -76 79 -62 79 8 0 23 -12 34 -26z m99 5 c-3 -5 -10 -7 -15 -3 -5 3 -7 10 -3 15 3 5 10 7 15 3 5 -3 7 -10 3 -15z m-307 -28 l32 -39 -27 -24 c-49 -43 -52 -44 -88 -2 l-32 39 31 32 c41 41 45 41 84 -6z m202 -34 c13 -16 10 -22 -19 -52 -42 -43 -42 -44 -80 6 l-33 40 23 16 c13 9 30 24 39 35 17 19 22 16 70 -45z m-342 9 c-1 -1 -13 -10 -25 -21 l-24 -20 13 27 c10 22 9 31 -2 45 -7 10 -1 7 14 -6 15 -14 26 -25 24 -25z m473 29 c0 -3 -2 -5 -5 -5 -3 0 -5 2 -5 5 0 3 2 5 5 5 3 0 5 -2 5 -5z m-46 -39 c-18 -14 -18 -15 0 -35 11 -12 15 -21 9 -21 -5 0 -18 9 -28 20 -17 19 -17 20 6 39 13 11 26 17 28 15 3 -2 -4 -11 -15 -18z m-355 -85 c-1 -14 -69 -62 -80 -56 -7 5 -2 12 12 19 28 14 35 59 11 78 -13 11 -14 11 -7 -1 5 -10 4 -12 -3 -7 -14 9 -48 -14 -47 -32 0 -7 7 -17 15 -22 8 -5 11 -10 6 -10 -5 0 -18 7 -27 16 -18 16 -17 18 19 55 l37 38 33 -35 c17 -20 32 -39 31 -43z m131 62 c0 -5 14 -22 30 -40 l30 -32 -37 -35 c-47 -44 -43 -44 -82 5 l-33 40 39 34 c38 34 53 42 53 28z m200 -44 c0 -4 -7 -10 -16 -13 -12 -5 -15 -2 -10 11 5 14 1 12 -13 -4 -10 -12 -21 -19 -25 -16 -10 10 -7 -14 6 -42 6 -14 18 -25 27 -25 11 0 12 -3 4 -11 -8 -8 -20 -1 -45 26 l-34 38 40 37 c39 36 64 36 66 -1z m-473 14 c-4 -3 -10 -3 -14 0 -3 4 0 7 7 7 7 0 10 -3 7 -7z m528 -23 c3 -5 4 -10 1 -10 -3 0 -8 5 -11 10 -3 6 -4 10 -1 10 3 0 8 -4 11 -10z m-15 -34 c0 -2 -8 -7 -17 -10 -10 -4 -14 -4 -10 0 4 4 1 14 -6 22 -10 13 -9 14 11 3 12 -6 22 -13 22 -15z m-320 -33 c33 -46 13 -41 -28 7 -9 10 -15 11 -20 4 -4 -6 -15 -13 -25 -17 -13 -5 21 42 39 53 0 0 16 -21 34 -47z m179 -4 c15 -22 15 -23 -1 -11 -19 15 -82 -3 -72 -20 3 -4 -3 -8 -13 -8 -14 0 -10 8 17 34 40 39 47 39 69 5z m-332 -26 c-4 -3 -7 0 -7 7 0 7 3 10 7 7 3 -4 3 -10 0 -14z m60 0 c-4 -3 -10 -3 -14 0 -3 4 0 7 7 7 7 0 10 -3 7 -7z m313 -18 c0 -3 -2 -5 -5 -5 -3 0 -5 2 -5 5 0 3 2 5 5 5 3 0 5 -2 5 -5z"/> <path d="M3140 725 c0 -3 2 -5 5 -5 3 0 5 2 5 5 0 3 -2 5 -5 5 -3 0 -5 -2 -5 -5z"/> <path d="M3200 705 c0 -9 -4 -13 -10 -10 -5 3 -10 3 -11 -2 0 -4 -2 -15 -4 -24 -2 -12 3 -15 19 -12 17 4 18 3 6 -6 -12 -9 -9 -10 14 -7 40 7 56 24 35 39 -9 7 -16 17 -17 22 -2 17 -32 18 -32 0z m28 -50 c-3 -3 -9 2 -12 12 -6 14 -5 15 5 6 7 -7 10 -15 7 -18z m22 10 c0 -3 -2 -5 -5 -5 -3 0 -5 2 -5 5 0 3 2 5 5 5 3 0 5 -2 5 -5z"/> <path d="M3377 680 c-9 -11 -17 -24 -17 -29 0 -16 40 -23 55 -11 8 6 20 9 27 5 7 -4 6 -1 -3 7 -8 7 -18 21 -22 31 -8 22 -19 22 -40 -3z m23 5 c0 -3 -2 -5 -5 -5 -3 0 -5 2 -5 5 0 3 2 5 5 5 3 0 5 -2 5 -5z m5 -43 c-3 -3 -11 0 -18 7 -9 10 -8 11 6 5 10 -3 15 -9 12 -12z"/> <path d="M3420 625 c0 -3 2 -5 5 -5 3 0 5 2 5 5 0 3 -2 5 -5 5 -3 0 -5 -2 -5 -5z"/> <path d="M3393 613 c4 -3 10 -3 14 0 3 4 0 7 -7 7 -7 0 -10 -3 -7 -7z"/> <path d="M3150 585 c0 -3 2 -5 5 -5 3 0 5 2 5 5 0 3 -2 5 -5 5 -3 0 -5 -2 -5 -5z"/> <path d="M3292 612 c1 -4 -3 -17 -10 -29 -7 -13 -10 -23 -6 -23 3 0 15 10 26 23 11 12 17 17 14 10 -4 -6 -3 -13 1 -16 5 -2 2 -2 -4 -1 -12 3 -17 -9 -14 -29 1 -5 -4 -5 -10 -1 -8 4 -9 3 -5 -4 11 -18 39 -15 33 2 -4 11 -1 13 10 9 10 -4 14 -2 10 4 -4 6 -1 14 5 16 10 4 10 6 0 6 -7 1 -11 5 -8 10 3 4 -6 13 -19 19 -14 6 -24 8 -23 4z"/> <path d="M3260 585 c0 -3 2 -5 5 -5 3 0 5 2 5 5 0 3 -2 5 -5 5 -3 0 -5 -2 -5 -5z"/> <path d="M1992 982 l-53 -47 45 -44 46 -45 -53 -47 -52 -47 44 -46 44 -45 -32 -26 c-17 -15 -41 -35 -53 -45 l-22 -17 45 -52 c53 -62 52 -62 107 -9 l44 43 46 -53 45 -53 48 47 47 46 38 -51 c47 -62 44 -62 107 -2 l52 50 -44 45 -45 46 40 34 c21 20 42 35 47 36 17 1 4 29 -28 60 -44 43 -44 43 10 93 l46 42 -47 53 c-56 62 -58 62 -109 11 l-40 -40 -39 46 c-46 54 -50 55 -98 8 l-37 -36 -42 46 c-50 57 -42 57 -107 -1z m98 -17 l34 -35 -34 -35 c-41 -43 -47 -43 -84 1 l-29 35 34 35 c40 42 38 42 79 -1z m350 -27 c37 -41 37 -41 -3 -83 l-33 -35 -36 44 -37 43 37 31 c45 38 37 38 72 0z m-270 -73 l34 -35 -34 -35 c-42 -44 -48 -44 -86 2 l-32 38 37 32 c45 40 40 40 81 -2z m181 -16 l33 -42 -39 -33 c-43 -36 -49 -35 -87 19 l-21 29 34 33 c44 42 42 42 80 -6z m-104 -159 l-42 -39 -37 42 c-45 51 -46 45 5 85 l42 32 37 -40 36 -41 -41 -39z m-147 56 c0 -3 -4 -8 -10 -11 -5 -3 -10 -1 -10 4 0 6 5 11 10 11 6 0 10 -2 10 -4z m20 -32 c0 -8 -5 -12 -10 -9 -6 4 -8 11 -5 16 9 14 15 11 15 -7z m228 -4 c7 -11 11 -20 9 -20 -2 0 -12 9 -22 20 -10 11 -14 20 -9 20 5 0 15 -9 22 -20z m-298 -5 c0 -3 -2 -5 -5 -5 -3 0 -5 2 -5 5 0 3 2 5 5 5 3 0 5 -2 5 -5z m284 -40 c29 -31 31 -36 18 -47 -13 -11 -14 -11 -8 0 6 9 -3 25 -25 48 -18 19 -29 34 -25 34 4 0 22 -16 40 -35z m-54 20 c0 -3 -2 -5 -5 -5 -3 0 -5 2 -5 5 0 3 2 5 5 5 3 0 5 -2 5 -5z m-136 -72 c-21 -17 -43 -29 -48 -26 -5 4 0 10 11 14 33 12 55 49 40 68 -6 9 -1 7 12 -4 l23 -20 -38 -32z m126 52 c0 -3 -2 -5 -5 -5 -3 0 -5 2 -5 5 0 3 2 5 5 5 3 0 5 -2 5 -5z m115 -5 c3 -5 4 -10 1 -10 -3 0 -8 5 -11 10 -3 6 -4 10 -1 10 3 0 8 -4 11 -10z m-330 -10 c3 -5 4 -10 1 -10 -3 0 -8 5 -11 10 -3 6 -4 10 -1 10 3 0 8 -4 11 -10z m192 -14 c0 -8 -6 -12 -14 -9 -7 3 -13 9 -13 14 0 5 6 9 13 9 8 0 14 -6 14 -14z m-33 -22 c3 -8 2 -13 -3 -10 -4 3 -23 -6 -41 -19 -46 -34 -48 -31 -8 10 38 39 43 41 52 19z m84 -30 c13 8 17 -6 5 -17 -8 -8 -43 22 -43 36 0 6 6 3 13 -8 8 -10 19 -15 25 -11z m89 19 c-4 -3 -10 -3 -14 0 -3 4 0 7 7 7 7 0 10 -3 7 -7z m-307 -38 c0 -3 -2 -5 -5 -5 -3 0 -5 2 -5 5 0 3 2 5 5 5 3 0 5 -2 5 -5z m180 -10 c0 -3 -2 -5 -5 -5 -3 0 -5 2 -5 5 0 3 2 5 5 5 3 0 5 -2 5 -5z m70 1 c0 -3 -5 -8 -12 -12 -7 -4 -8 -3 -4 4 7 12 16 16 16 8z"/> <path d="M1278 927 c-58 -52 -58 -51 -5 -105 l42 -44 -49 -43 c-53 -48 -54 -46 7 -115 l37 -44 46 45 45 44 43 -49 43 -50 51 44 c62 51 62 53 12 110 l-40 45 28 21 c15 12 38 31 51 41 l25 20 -44 52 c-51 61 -63 62 -110 16 l-37 -36 -37 46 c-46 55 -49 55 -108 2z m92 -22 l34 -35 -37 -38 -38 -37 -34 40 -33 40 31 33 c38 40 36 40 77 -3z m172 -12 c36 -34 35 -42 -6 -82 l-33 -32 -34 42 -33 42 32 28 c39 35 39 35 74 2z m-84 -93 l32 -38 -41 -33 -42 -33 -34 39 -34 39 33 33 c41 40 46 40 86 -7z"/> <path d="M1930 965 c0 -3 2 -5 5 -5 3 0 5 2 5 5 0 3 -2 5 -5 5 -3 0 -5 -2 -5 -5z"/> <path d="M733 867 c-97 -75 -96 -72 -25 -156 34 -39 38 -38 114 30 l38 34 -49 57 -49 57 -29 -22z m50 -125 l-38 -33 -33 38 -32 38 37 33 38 34 33 -39 34 -38 -39 -33z"/> <path d="M1290 325 c0 -3 2 -5 5 -5 3 0 5 2 5 5 0 3 -2 5 -5 5 -3 0 -5 -2 -5 -5z"/> <path d="M165 270 c0 -32 3 -40 18 -40 12 0 17 5 14 14 -5 13 31 31 42 21 2 -3 -1 -5 -7 -5 -7 0 -12 -7 -12 -15 0 -13 20 -15 121 -15 l120 0 -3 28 c-3 26 -5 27 -65 28 -34 0 -65 2 -68 5 -3 3 -25 4 -49 2 -25 -2 -47 1 -51 6 -3 6 -18 11 -33 11 -25 0 -27 -3 -27 -40z m32 3 c-4 -3 -7 0 -7 7 0 7 3 10 7 7 3 -4 3 -10 0 -14z m103 -18 c0 -3 -2 -5 -5 -5 -3 0 -5 2 -5 5 0 3 2 5 5 5 3 0 5 -2 5 -5z m67 -2 c-4 -3 -10 -3 -14 0 -3 4 0 7 7 7 7 0 10 -3 7 -7z m33 2 c0 -3 -2 -5 -5 -5 -3 0 -5 2 -5 5 0 3 2 5 5 5 3 0 5 -2 5 -5z"/> <path d="M699 308 c-8 -34 -3 -78 8 -83 23 -8 32 3 28 33 -2 15 -4 33 -4 40 -1 10 -29 19 -32 10z"/> <path d="M1327 303 c-12 -12 -7 -23 10 -23 15 0 15 -2 -1 -19 -22 -24 -14 -41 16 -36 29 6 48 25 24 25 -15 0 -16 3 -6 15 23 28 -18 64 -43 38z"/> <path d="M2146 301 c-3 -5 1 -16 9 -24 19 -20 19 -27 0 -27 -20 0 -19 -19 0 -26 24 -10 45 15 42 50 -2 31 -37 50 -51 27z"/> <path d="M3246 285 c-20 -30 -20 -35 -1 -35 8 0 15 -4 15 -10 0 -5 7 -10 15 -10 11 0 15 11 15 40 0 47 -19 53 -44 15z"/> <path d="M2200 225 c0 -3 2 -5 5 -5 3 0 5 2 5 5 0 3 -2 5 -5 5 -3 0 -5 -2 -5 -5z"/> <path d="M1300 195 c0 -3 2 -5 5 -5 3 0 5 2 5 5 0 3 -2 5 -5 5 -3 0 -5 -2 -5 -5z"/> <path d="M1330 195 c0 -3 2 -5 5 -5 3 0 5 2 5 5 0 3 -2 5 -5 5 -3 0 -5 -2 -5 -5z"/> <path d="M2220 195 c0 -3 2 -5 5 -5 3 0 5 2 5 5 0 3 -2 5 -5 5 -3 0 -5 -2 -5 -5z"/> </g> </svg>