<?xml version="1.0" standalone="no"?>
<!DOCTYPE svg PUBLIC "-//W3C//DTD SVG 20010904//EN"
 "http://www.w3.org/TR/2001/REC-SVG-20010904/DTD/svg10.dtd">
<svg version="1.0" xmlns="http://www.w3.org/2000/svg"
 width="718.000000pt" height="660.000000pt" viewBox="0 0 718.000000 660.000000"
 preserveAspectRatio="xMidYMid meet">
<g transform="translate(0.000000,660.000000) scale(0.100000,-0.100000)"
fill="#ffffff" stroke="none">
<path d="M3097 6313 c-4 -3 -7 -24 -7 -45 0 -21 -4 -38 -8 -38 -5 0 -16 -18
-26 -41 -14 -30 -15 -44 -7 -52 17 -17 45 4 49 35 2 14 12 34 22 43 16 15 22
16 35 5 14 -11 17 -10 22 8 3 12 9 22 14 22 18 0 8 39 -13 54 -23 16 -69 21
-81 9z"/>
<path d="M3087 6110 c-9 -11 -17 -34 -17 -50 0 -17 -11 -48 -25 -70 -14 -22
-25 -44 -25 -49 0 -5 -7 -11 -15 -15 -8 -3 -15 -10 -15 -16 0 -5 -13 -29 -30
-52 -16 -22 -30 -44 -30 -49 0 -4 -23 -45 -52 -91 -71 -114 -107 -178 -119
-210 -6 -16 -14 -28 -19 -28 -4 0 -10 -8 -14 -17 -3 -10 -11 -27 -18 -38 -24
-36 -74 -120 -82 -135 -16 -34 -54 -98 -87 -150 -20 -30 -51 -82 -69 -115 -18
-33 -41 -73 -51 -90 -10 -16 -40 -67 -66 -113 -26 -46 -53 -91 -58 -100 -19
-31 -118 -207 -140 -247 -31 -59 -49 -89 -56 -95 -3 -3 -20 -34 -39 -70 -47
-92 -53 -102 -71 -125 -9 -11 -29 -42 -44 -70 -14 -27 -35 -63 -46 -80 -10
-16 -27 -46 -37 -65 -20 -39 -59 -104 -109 -182 -18 -27 -33 -56 -33 -63 0 -7
-6 -18 -14 -24 -8 -6 -20 -26 -27 -44 -7 -18 -21 -41 -31 -51 -9 -10 -30 -44
-46 -75 -27 -51 -62 -113 -124 -214 -15 -26 -41 -47 -78 -66 -30 -16 -73 -40
-95 -55 -22 -15 -60 -37 -85 -48 -25 -11 -58 -30 -75 -42 -26 -18 -72 -44
-168 -93 -15 -8 -27 -19 -27 -24 0 -5 -6 -9 -13 -9 -7 0 -58 -27 -113 -60 -54
-33 -102 -60 -107 -60 -4 0 -26 -12 -50 -27 -23 -15 -67 -41 -97 -56 -30 -16
-62 -36 -71 -43 -8 -8 -20 -14 -26 -14 -5 0 -18 -8 -27 -19 -15 -17 -17 -50
-14 -355 l3 -337 25 -19 c14 -10 54 -34 90 -52 36 -18 67 -36 70 -39 3 -4 39
-25 81 -47 42 -22 95 -52 118 -66 22 -14 45 -26 50 -26 5 0 14 -7 21 -15 7 -8
23 -15 35 -15 13 0 25 -6 28 -13 3 -8 22 -22 44 -32 21 -10 50 -26 65 -36 14
-11 31 -19 38 -19 6 0 26 -11 43 -24 18 -13 59 -38 92 -55 33 -18 94 -52 135
-77 41 -24 84 -49 95 -55 11 -5 52 -27 90 -49 39 -22 79 -45 90 -50 11 -6 43
-24 70 -40 28 -17 70 -41 95 -53 25 -12 46 -25 48 -29 2 -5 12 -8 22 -8 10 0
20 -4 22 -9 4 -11 105 -71 119 -71 5 0 20 -10 32 -21 12 -12 51 -36 87 -53 36
-17 91 -49 123 -70 33 -21 73 -44 90 -52 38 -17 120 -64 127 -73 3 -3 21 -14
40 -24 19 -10 71 -38 115 -62 44 -25 89 -49 100 -55 11 -5 29 -16 39 -22 43
-28 123 -74 161 -93 22 -11 58 -32 79 -47 21 -16 47 -28 58 -28 10 0 18 -3 18
-8 0 -4 18 -15 40 -25 34 -14 40 -21 40 -47 0 -20 5 -30 15 -30 8 0 15 9 15
20 0 20 43 52 105 79 17 7 56 30 87 52 32 21 62 39 66 39 5 0 28 13 50 30 23
16 45 30 48 30 4 0 22 11 40 25 18 14 35 25 39 25 3 0 34 17 68 38 75 47 251
150 292 173 49 26 78 43 120 70 22 14 56 33 75 42 19 10 58 31 85 47 28 16 68
39 90 51 22 12 42 25 45 29 3 3 21 15 40 26 19 10 37 22 40 25 3 3 25 16 50
27 46 22 64 32 115 68 17 11 46 26 65 34 19 8 46 21 60 31 33 22 78 48 178
104 45 26 82 51 82 56 0 5 7 9 15 9 16 0 28 6 137 77 37 24 73 43 79 43 7 0
26 11 43 23 26 20 94 60 171 101 11 6 34 21 50 32 17 12 48 31 70 43 46 24 68
38 110 66 17 12 49 29 73 39 23 11 42 23 42 28 0 4 5 8 10 8 6 0 28 11 51 25
22 14 43 24 47 21 5 -3 21 6 37 18 26 21 28 27 18 47 -11 23 -21 207 -26 483
-2 96 1 130 10 133 7 3 13 9 13 13 0 9 -126 87 -210 130 -26 14 -54 30 -61 37
-21 17 -139 83 -150 83 -6 0 -19 8 -30 19 -11 10 -50 34 -87 52 -37 18 -74 38
-82 45 -8 7 -51 31 -95 54 -44 23 -87 48 -95 55 -8 7 -49 30 -90 52 -41 22
-91 49 -111 61 -20 11 -47 26 -60 33 -13 6 -31 16 -39 21 -8 5 -27 14 -41 20
-25 11 -89 95 -89 116 0 5 -16 29 -35 53 -19 24 -35 47 -35 51 0 9 -108 185
-137 224 -13 17 -23 34 -23 38 0 3 -18 33 -40 65 -22 32 -40 62 -40 66 0 7
-37 56 -65 86 -8 9 -15 23 -15 32 0 10 -4 17 -10 17 -5 0 -10 6 -10 13 0 8
-19 40 -42 73 -23 32 -53 80 -68 105 -27 50 -36 64 -177 279 -51 77 -93 144
-93 149 0 5 -7 14 -15 21 -9 7 -23 29 -32 49 -9 20 -33 59 -53 86 -19 28 -46
70 -59 95 -13 25 -37 61 -53 81 -15 20 -28 40 -28 44 0 3 -22 40 -50 81 -27
40 -60 95 -74 122 -13 26 -32 54 -40 61 -9 8 -16 18 -16 23 0 5 -18 36 -40 69
-22 33 -40 63 -40 66 0 3 -10 20 -23 37 -13 17 -27 38 -30 46 -4 8 -16 29 -27
45 -11 17 -29 47 -40 68 -12 21 -29 46 -38 55 -10 10 -27 38 -39 62 -12 25
-40 70 -62 100 -33 44 -41 62 -39 91 3 63 -39 90 -75 49z m65 -134 c42 -84 89
-168 117 -206 17 -24 31 -48 31 -55 0 -6 11 -22 25 -35 14 -13 25 -27 25 -32
0 -4 37 -67 83 -138 45 -72 91 -148 102 -168 21 -39 82 -136 144 -231 20 -29
46 -72 59 -94 12 -23 29 -48 37 -57 8 -9 15 -20 15 -24 0 -4 18 -33 40 -65 22
-31 40 -60 40 -65 0 -4 14 -28 30 -52 17 -24 44 -64 60 -88 17 -24 30 -47 30
-51 0 -3 17 -29 38 -58 44 -62 59 -85 71 -112 5 -12 16 -27 24 -34 9 -7 29
-39 46 -71 26 -50 31 -70 31 -132 0 -74 -20 -154 -53 -215 -10 -18 -22 -33
-26 -33 -5 0 -23 -22 -40 -50 -17 -27 -38 -50 -46 -50 -17 0 -42 13 -99 53
-21 15 -44 27 -49 27 -6 0 -18 6 -26 14 -9 7 -46 30 -83 49 -37 20 -96 53
-130 74 -35 21 -78 45 -96 52 -18 8 -36 19 -40 25 -4 7 -34 25 -67 41 -33 17
-62 33 -65 36 -3 3 -17 12 -31 20 -15 8 -49 26 -77 42 l-51 27 -38 -21 c-60
-33 -205 -120 -235 -141 -15 -10 -48 -30 -73 -43 -25 -14 -67 -37 -93 -51 -26
-15 -63 -35 -82 -44 -19 -10 -44 -28 -54 -39 -11 -12 -25 -21 -32 -21 -8 0
-44 -20 -81 -46 -64 -42 -68 -44 -71 -23 -2 12 1 26 7 32 6 6 11 20 11 32 0
12 7 30 15 41 8 10 15 29 15 41 0 12 5 25 10 28 6 3 10 18 10 33 1 15 7 38 15
52 8 14 14 39 15 57 0 17 5 35 10 38 6 3 10 17 10 30 0 13 7 30 15 38 15 16
55 140 62 197 2 19 10 49 18 65 45 101 65 160 65 188 0 10 4 25 9 35 5 9 13
35 19 57 11 46 50 162 63 187 5 10 9 29 9 42 0 13 7 37 15 52 8 16 15 41 15
55 0 15 7 32 15 39 8 7 15 25 15 41 0 15 5 31 10 34 6 3 10 19 10 35 0 16 5
32 10 35 6 3 10 19 10 34 0 16 6 34 14 40 8 7 17 34 21 61 4 28 11 52 16 56 5
3 9 18 9 34 0 16 5 32 10 35 6 3 10 17 10 30 0 13 4 26 9 29 16 10 41 104 41
155 0 40 -4 51 -16 51 -8 0 -13 4 -9 9 3 5 22 7 42 4 l36 -6 -6 44 c-3 25 -9
53 -13 63 -6 16 -5 16 13 5 11 -6 27 -26 35 -43z m-112 -110 c0 -14 -4 -28
-10 -31 -5 -3 -10 -18 -10 -33 -1 -15 -7 -38 -15 -52 -8 -14 -14 -37 -15 -52
0 -15 -7 -33 -15 -42 -8 -8 -15 -23 -15 -33 0 -11 -7 -28 -15 -39 -8 -10 -15
-31 -15 -46 0 -15 -4 -30 -10 -33 -5 -3 -10 -17 -10 -30 0 -13 -4 -26 -9 -29
-5 -3 -12 -30 -15 -60 -4 -30 -14 -60 -22 -67 -8 -6 -14 -22 -14 -35 0 -14 -4
-32 -9 -42 -13 -27 -51 -144 -56 -173 -2 -15 -11 -43 -19 -64 -9 -21 -16 -48
-16 -61 0 -12 -4 -25 -9 -28 -5 -3 -11 -16 -14 -28 -3 -13 -14 -46 -25 -75
-11 -29 -23 -75 -27 -103 -4 -27 -11 -50 -16 -50 -5 0 -9 -12 -9 -27 0 -16 -7
-37 -15 -47 -8 -11 -15 -30 -15 -42 0 -13 -4 -26 -10 -29 -5 -3 -10 -17 -10
-30 0 -13 -4 -26 -9 -29 -4 -3 -11 -28 -15 -55 -4 -28 -11 -53 -16 -56 -6 -3
-10 -18 -10 -32 0 -15 -6 -34 -13 -42 -14 -16 -67 -176 -67 -200 0 -15 -29
-108 -41 -133 -5 -10 -9 -31 -9 -47 0 -30 -21 -57 -68 -89 -23 -15 -25 -13
-88 49 -36 35 -79 87 -97 114 -17 28 -34 52 -38 55 -11 8 -31 141 -30 195 2
64 17 108 57 165 17 25 41 65 53 90 12 25 30 59 41 75 10 17 27 46 36 65 10
19 28 49 41 66 13 17 23 38 23 46 0 9 7 21 15 28 8 7 15 16 15 21 0 4 18 35
40 68 22 33 40 64 40 70 0 5 23 46 50 90 28 44 50 84 50 87 0 3 15 27 34 53
18 25 45 71 59 101 14 31 36 69 50 85 13 17 34 51 46 77 11 26 26 50 32 53 6
4 24 35 40 69 30 62 50 97 60 106 3 3 36 62 75 132 38 70 72 128 77 128 4 0 7
-11 7 -24z m279 -1655 c43 -26 97 -57 120 -67 22 -10 41 -21 41 -26 0 -4 8 -8
18 -8 11 0 27 -9 38 -21 10 -12 39 -31 64 -42 25 -12 51 -27 58 -34 7 -7 20
-13 28 -13 8 0 25 -9 37 -21 12 -11 34 -23 50 -26 15 -3 27 -9 27 -14 0 -5 4
-9 9 -9 6 0 31 -14 57 -32 26 -17 63 -37 83 -44 20 -7 36 -17 36 -23 0 -9 -87
-71 -100 -71 -3 0 -27 -13 -53 -30 -27 -16 -57 -30 -66 -30 -9 0 -16 -4 -16
-10 0 -5 -7 -10 -15 -10 -8 0 -48 -11 -89 -25 -41 -14 -83 -25 -94 -25 -11 0
-25 -6 -31 -14 -13 -15 -49 -20 -251 -35 -169 -12 -488 9 -524 35 -11 8 -35
14 -53 14 -17 0 -34 4 -37 9 -3 5 -35 17 -71 26 -36 10 -68 22 -71 27 -3 4
-16 8 -30 8 -14 0 -27 7 -30 15 -4 8 -12 15 -19 15 -7 0 -18 7 -25 15 -7 8
-22 15 -34 16 -20 0 -20 1 3 10 13 5 37 20 53 34 16 14 34 25 40 25 5 0 22 8
36 18 15 11 56 34 92 52 36 19 86 49 111 67 26 18 51 33 57 33 5 0 15 7 22 15
7 8 19 15 27 15 8 0 47 21 86 47 40 26 97 60 127 75 30 16 60 35 66 43 6 8 17
15 25 16 8 0 30 11 49 24 19 13 43 24 53 24 9 1 53 -21 96 -48z m965 -39 c30
-62 57 -108 103 -179 21 -32 44 -67 50 -78 52 -84 111 -175 130 -198 13 -16
23 -33 23 -39 0 -6 11 -26 25 -44 14 -18 25 -37 25 -42 0 -4 10 -18 23 -30 27
-25 63 -90 54 -98 -3 -3 -26 8 -51 25 -24 17 -49 31 -54 31 -5 0 -17 9 -26 19
-10 11 -32 25 -49 32 -18 7 -57 29 -87 48 -49 31 -81 50 -192 108 -16 8 -28
18 -28 21 0 4 -15 13 -32 20 -48 20 -112 54 -119 64 -3 4 18 32 46 61 28 29
66 81 83 116 28 56 32 74 32 143 0 52 4 77 10 73 6 -4 21 -28 34 -53z m-2226
-41 c0 -65 4 -86 24 -117 13 -22 30 -52 38 -69 14 -27 110 -129 154 -164 16
-12 14 -15 -26 -35 -24 -11 -62 -33 -85 -49 -24 -15 -47 -27 -51 -27 -5 0 -30
-16 -55 -35 -25 -19 -53 -35 -61 -35 -9 0 -16 -4 -16 -9 0 -5 -8 -12 -17 -15
-30 -11 -77 -38 -98 -56 -11 -9 -40 -26 -65 -37 -25 -12 -69 -37 -99 -57 -29
-20 -56 -36 -59 -36 -3 0 -20 -11 -38 -25 -34 -26 -54 -32 -54 -16 0 14 34 71
43 71 4 0 7 5 7 10 0 6 14 29 30 52 17 22 30 46 30 51 0 6 10 24 23 41 13 17
43 67 66 110 24 44 51 91 61 105 35 51 97 157 116 196 10 22 23 45 30 52 6 6
28 48 50 92 21 44 42 81 46 81 3 0 6 -36 6 -79z m2018 -346 c4 -8 12 -15 19
-15 7 0 15 -3 17 -7 2 -5 28 -21 58 -37 30 -16 94 -53 142 -82 48 -30 92 -54
98 -54 5 0 18 -7 29 -17 27 -23 140 -83 156 -83 7 0 15 -7 19 -15 3 -8 31 -27
63 -41 86 -38 107 -51 118 -71 6 -9 16 -23 24 -29 8 -6 11 -16 7 -22 -3 -6 4
-23 17 -39 13 -15 30 -39 37 -53 7 -13 36 -56 64 -95 28 -38 52 -77 54 -85 2
-8 9 -22 16 -30 7 -8 18 -31 25 -50 7 -19 19 -47 27 -61 7 -14 11 -29 7 -32
-3 -4 2 -18 11 -31 12 -19 16 -49 16 -123 -1 -66 -5 -106 -15 -123 -8 -14 -14
-37 -15 -51 0 -14 -3 -29 -7 -32 -3 -4 -14 -29 -23 -55 -29 -82 -106 -192
-210 -301 -48 -50 -189 -155 -255 -190 -22 -12 -47 -25 -55 -30 -24 -13 -62
-33 -100 -53 -19 -10 -42 -22 -50 -27 -34 -21 -116 -53 -147 -58 -18 -3 -36
-10 -39 -14 -3 -5 -16 -9 -29 -9 -13 0 -30 -7 -39 -15 -8 -8 -26 -15 -40 -15
-15 0 -34 -4 -44 -9 -16 -9 -81 -23 -192 -40 -25 -4 -55 -13 -67 -19 -12 -7
-39 -12 -60 -12 -22 0 -43 -4 -48 -9 -6 -5 -39 -12 -75 -14 -346 -27 -401 -29
-590 -17 -310 18 -344 21 -355 31 -5 5 -24 9 -43 9 -18 0 -43 5 -54 11 -11 6
-44 15 -72 20 -119 20 -185 34 -192 42 -4 4 -20 7 -35 7 -15 0 -30 4 -33 9 -4
5 -32 17 -64 27 -31 9 -70 24 -87 32 -16 8 -38 19 -47 23 -10 5 -23 9 -30 9
-6 0 -19 7 -28 15 -9 8 -34 21 -55 28 -29 10 -41 21 -47 43 -10 37 -1 81 19
88 11 5 14 15 9 40 -4 23 -2 37 8 45 8 7 17 34 21 62 4 27 11 49 16 49 5 0 9
13 9 29 0 16 7 34 15 41 8 7 15 23 15 36 0 12 5 26 10 29 6 3 10 17 10 30 0
13 4 26 9 30 5 3 13 30 16 60 4 30 11 55 16 55 5 0 9 12 9 28 0 15 7 36 15 46
8 11 15 27 15 37 0 9 7 30 15 45 8 16 15 39 15 51 0 12 5 25 10 28 6 3 10 26
10 49 0 27 6 48 15 56 8 7 15 22 15 34 0 11 7 30 15 40 8 11 15 28 15 38 0 10
5 27 11 37 7 10 9 30 5 45 -6 26 -8 27 -29 13 -15 -10 -25 -31 -32 -65 -5 -28
-13 -54 -17 -58 -5 -4 -8 -20 -8 -34 0 -15 -7 -33 -15 -40 -8 -7 -15 -20 -15
-30 0 -9 -3 -20 -7 -24 -10 -9 -42 -136 -43 -166 0 -14 -7 -34 -15 -44 -8 -11
-15 -29 -15 -41 0 -12 -4 -25 -9 -30 -14 -15 -61 -159 -61 -187 0 -25 -5 -37
-44 -116 -9 -19 -16 -45 -16 -58 0 -13 -5 -24 -11 -24 -7 0 -9 -12 -7 -32 4
-23 0 -36 -11 -45 -11 -8 -16 -27 -16 -60 0 -45 -2 -48 -29 -51 -20 -3 -42 6
-71 27 -24 17 -47 31 -52 31 -10 0 -184 167 -234 225 -18 22 -43 58 -54 80
-11 22 -30 57 -42 77 -13 21 -23 46 -23 57 0 11 -4 23 -10 26 -5 3 -10 21 -10
38 -1 18 -7 43 -15 57 -20 35 -20 215 0 250 8 14 14 37 15 52 0 15 5 30 10 33
6 3 10 17 10 30 0 13 4 26 9 30 11 6 41 63 41 77 0 5 11 24 25 42 14 18 25 36
25 41 0 4 11 20 25 37 14 16 25 37 25 46 0 21 39 62 61 62 9 0 22 7 29 15 7 8
18 15 25 15 16 0 149 79 153 91 2 5 12 9 21 9 10 0 35 11 55 25 20 14 41 25
45 25 5 0 14 6 20 14 7 8 37 26 68 41 32 15 70 38 86 51 16 13 32 24 37 24 12
0 144 83 148 92 2 5 8 8 14 8 6 0 26 11 44 25 36 27 63 32 82 13 17 -17 15
-55 -3 -62 -8 -3 -15 -16 -15 -29 0 -14 -7 -30 -15 -37 -8 -7 -15 -23 -15 -36
0 -12 -4 -26 -10 -29 -6 -3 -10 -21 -10 -40 0 -19 -4 -37 -10 -40 -5 -3 -10
-17 -10 -29 0 -13 -7 -29 -15 -36 -22 -19 -18 -45 9 -58 13 -6 27 -8 30 -5 3
4 6 19 6 35 0 15 5 28 10 28 6 0 10 10 10 22 0 22 36 150 50 178 4 9 11 35 15
58 8 48 22 52 70 21 45 -29 114 -59 135 -59 10 0 22 -4 25 -10 3 -5 19 -10 36
-10 16 0 37 -4 47 -9 25 -13 99 -32 167 -42 33 -5 132 -12 220 -15 113 -3 191
-1 265 10 137 19 204 34 208 46 2 6 19 10 38 10 19 0 42 4 52 9 9 6 43 17 74
27 32 9 63 23 69 30 6 8 17 14 23 14 18 0 114 55 166 94 48 37 87 45 96 21z
m837 -477 c37 -27 59 -40 107 -64 19 -10 46 -25 60 -34 51 -34 156 -94 195
-113 22 -11 63 -34 91 -53 28 -18 64 -39 80 -46 16 -6 42 -21 59 -33 38 -25
98 -59 153 -85 23 -11 42 -24 42 -28 0 -4 39 -27 88 -50 97 -48 147 -81 121
-82 -17 0 -45 -13 -89 -41 -14 -9 -50 -30 -80 -46 -30 -16 -75 -43 -100 -59
-25 -15 -61 -36 -80 -46 -37 -18 -56 -30 -105 -63 -16 -12 -42 -26 -57 -32
-15 -7 -46 -25 -70 -40 -24 -15 -68 -41 -98 -57 -30 -16 -69 -40 -86 -53 -17
-12 -34 -23 -38 -23 -3 0 -52 -28 -109 -63 -56 -35 -108 -67 -114 -71 -29 -17
-10 16 35 62 26 26 61 66 78 88 53 66 124 216 124 260 0 12 5 26 10 29 6 4 10
63 10 145 0 82 -4 141 -10 145 -5 3 -10 16 -10 27 0 12 -13 50 -30 85 -16 34
-30 68 -30 73 0 6 -3 10 -8 10 -4 0 -13 14 -21 32 -8 17 -21 39 -30 48 -9 9
-20 24 -26 32 -49 75 -64 95 -79 107 -9 7 -16 19 -16 27 0 7 -8 18 -17 23 -17
10 -17 10 0 11 11 0 33 -10 50 -22z m-3503 -110 c0 -6 -17 -34 -39 -62 -45
-60 -102 -177 -130 -267 -14 -45 -15 -315 -1 -324 6 -3 10 -18 10 -32 0 -13 6
-37 13 -51 75 -148 95 -183 126 -222 19 -25 58 -66 86 -92 27 -26 44 -47 36
-48 -15 0 -114 59 -119 72 -2 5 -8 8 -13 8 -5 0 -38 18 -74 40 -36 22 -68 40
-71 40 -3 0 -18 8 -32 19 -15 10 -58 34 -95 54 -37 19 -73 40 -80 45 -7 5 -37
22 -67 38 -30 15 -73 39 -95 53 -52 33 -93 56 -130 74 -17 8 -62 33 -99 56
-38 23 -79 44 -91 47 -27 7 -65 44 -46 44 18 0 121 52 121 61 0 4 12 12 28 18
32 12 145 73 164 88 7 6 45 27 83 48 39 20 77 42 85 49 8 6 35 22 60 35 25 14
68 39 95 56 28 18 77 47 110 64 33 17 80 47 105 65 25 19 48 35 53 35 4 1 7
-4 7 -11z m4520 -805 l-1 -308 -69 -35 c-39 -19 -70 -38 -70 -42 0 -5 -9 -8
-20 -8 -11 0 -20 -4 -20 -10 0 -5 -6 -10 -14 -10 -7 0 -25 -9 -39 -20 -14 -11
-56 -37 -94 -57 -37 -20 -82 -47 -99 -60 -17 -13 -34 -23 -37 -23 -4 0 -53
-28 -109 -61 -57 -34 -136 -82 -176 -105 -40 -24 -75 -44 -77 -44 -3 0 -41
-23 -85 -50 -44 -27 -82 -50 -85 -50 -3 0 -40 -22 -83 -49 -42 -26 -87 -51
-100 -55 -12 -4 -22 -12 -22 -17 0 -5 -6 -9 -13 -9 -7 0 -35 -14 -63 -31 -75
-49 -173 -105 -251 -144 -29 -15 -57 -33 -64 -41 -6 -8 -16 -14 -21 -14 -5 0
-24 -11 -42 -25 -18 -14 -40 -25 -49 -25 -9 0 -19 -5 -22 -11 -4 -5 -17 -15
-28 -20 -12 -5 -40 -20 -62 -34 -22 -14 -53 -32 -70 -40 -47 -23 -135 -75
-195 -114 -30 -19 -73 -44 -95 -54 -22 -10 -42 -21 -45 -25 -10 -14 -59 -42
-73 -42 -7 0 -24 -11 -37 -25 -13 -14 -29 -25 -36 -25 -6 0 -17 -6 -23 -14 -6
-8 -40 -27 -74 -44 -34 -16 -71 -39 -81 -51 -11 -11 -25 -21 -33 -21 -8 0 -41
-18 -73 -40 -68 -46 -96 -52 -85 -17 3 12 7 150 8 306 2 273 3 284 22 295 11
6 38 22 60 35 22 14 63 37 91 52 47 25 103 57 149 86 11 7 36 22 55 33 19 11
58 34 85 51 28 16 59 34 70 39 23 11 58 33 65 40 3 3 19 12 35 21 17 9 71 40
120 69 50 29 110 64 135 77 25 14 64 38 88 54 24 16 47 29 52 29 4 0 10 4 12
8 3 8 87 56 218 124 30 15 73 39 95 53 22 14 54 32 70 40 17 9 57 33 90 55 33
21 93 55 134 76 40 20 107 56 148 80 40 24 76 44 78 44 3 0 24 12 48 27 49 32
77 48 146 86 28 15 51 32 51 37 0 6 6 10 13 10 18 0 142 67 157 85 7 8 18 15
24 15 6 0 39 18 74 40 34 22 65 40 67 40 3 0 34 18 70 40 36 22 69 40 73 40 4
0 34 21 66 45 33 25 61 45 63 45 2 0 3 -138 3 -307z m-5390 205 c0 -4 5 -8 11
-8 7 0 35 -14 63 -32 28 -17 85 -49 126 -71 41 -22 77 -43 80 -46 7 -8 38 -25
140 -79 47 -24 87 -48 90 -52 3 -4 28 -19 55 -33 75 -37 125 -64 138 -75 7 -5
36 -22 65 -37 29 -15 55 -31 58 -36 3 -5 12 -9 20 -9 9 0 30 -11 48 -25 18
-14 40 -25 49 -25 8 0 17 -3 19 -7 2 -5 23 -18 48 -31 25 -12 68 -36 95 -52
28 -16 68 -39 90 -49 38 -19 40 -23 42 -68 2 -28 -4 -64 -14 -86 -12 -29 -21
-37 -37 -35 -17 2 -21 10 -20 41 1 25 9 45 23 58 11 11 21 26 21 34 0 24 -41
2 -73 -38 -33 -40 -38 -85 -13 -99 15 -9 15 -11 -1 -38 -9 -16 -14 -32 -10
-36 3 -4 33 -8 66 -10 45 -4 63 -1 75 12 23 22 14 40 -18 36 -34 -4 -33 14 2
32 34 17 60 80 42 101 -6 8 -9 19 -5 25 10 16 34 12 62 -10 14 -11 32 -20 39
-20 8 0 14 -3 14 -7 0 -5 10 -13 23 -19 38 -18 150 -78 164 -89 8 -5 19 -15
26 -21 7 -6 37 -24 67 -40 30 -17 81 -46 112 -67 31 -20 64 -37 72 -37 8 0 16
-4 18 -8 5 -13 107 -72 123 -72 8 0 15 -4 15 -10 0 -5 6 -10 14 -10 7 0 19 -7
26 -15 7 -8 23 -15 36 -15 13 0 24 -5 24 -10 0 -6 17 -19 38 -28 20 -9 51 -27
69 -39 17 -13 38 -23 46 -23 9 0 19 -5 22 -10 3 -6 26 -19 51 -30 24 -11 44
-24 44 -28 0 -4 23 -16 50 -27 28 -11 50 -23 50 -27 0 -4 9 -8 20 -8 11 0 23
-6 26 -14 3 -8 27 -24 54 -35 l49 -21 3 -308 c2 -169 2 -309 1 -311 -2 -2 -11
3 -21 12 -10 10 -27 17 -36 17 -10 0 -27 11 -38 25 -11 14 -28 25 -39 25 -10
0 -19 3 -19 8 0 4 -8 12 -19 17 -10 6 -49 26 -87 46 -38 20 -94 51 -124 71
-30 19 -71 42 -90 52 -39 19 -98 52 -150 84 -19 12 -42 25 -50 29 -8 3 -33 18
-55 32 -63 39 -158 92 -177 98 -10 3 -18 9 -18 13 0 4 -31 22 -70 41 -38 18
-70 37 -70 41 0 4 -8 8 -18 8 -11 0 -27 9 -36 19 -9 10 -47 33 -84 51 -37 18
-74 38 -82 45 -8 7 -51 32 -95 55 -44 23 -87 48 -95 54 -8 7 -42 27 -75 44
-119 60 -150 77 -153 85 -2 4 -8 7 -13 7 -6 0 -22 8 -37 18 -49 34 -156 96
-207 120 -27 13 -57 30 -65 37 -8 7 -37 25 -65 39 -55 30 -62 34 -152 88 -34
21 -68 38 -74 38 -7 0 -26 10 -43 23 -17 13 -58 36 -91 52 -33 16 -71 37 -84
47 -13 10 -47 29 -75 42 -29 14 -58 31 -63 38 -7 8 -13 121 -17 292 -4 153
-11 287 -16 296 -7 13 -6 20 3 23 13 5 67 -23 67 -35z m1650 -878 c0 -5 -4
-10 -9 -10 -6 0 -13 5 -16 10 -3 6 1 10 9 10 9 0 16 -4 16 -10z m2000 6 c0 -2
-30 -19 -67 -37 -38 -18 -69 -36 -71 -41 -2 -4 -12 -8 -22 -8 -10 0 -22 -4
-25 -10 -3 -5 -30 -21 -58 -35 -29 -13 -70 -36 -92 -50 -22 -14 -49 -29 -60
-35 -11 -6 -36 -20 -55 -32 -19 -11 -55 -32 -80 -46 -25 -13 -52 -31 -61 -38
-8 -8 -21 -14 -28 -14 -7 0 -38 -18 -68 -40 -31 -22 -60 -40 -65 -40 -5 0 -39
-19 -76 -41 -37 -23 -91 -55 -120 -71 l-54 -30 -46 24 c-26 12 -48 26 -50 31
-2 4 -9 7 -15 7 -6 0 -18 6 -26 14 -9 7 -50 31 -91 53 -72 39 -129 70 -215
119 -22 12 -69 38 -105 57 -104 54 -185 99 -190 106 -3 3 -58 32 -122 65 -65
32 -118 62 -118 67 0 14 31 11 49 -4 21 -18 226 -67 278 -67 24 0 46 -6 53
-15 8 -10 31 -15 70 -15 32 0 75 -7 96 -17 34 -15 82 -17 394 -17 303 0 364 3
418 17 35 9 83 17 107 17 26 0 47 6 55 15 7 9 30 15 54 15 22 0 79 10 126 21
47 11 97 23 112 26 15 3 33 11 39 19 6 8 24 14 40 14 15 0 31 5 34 10 6 9 55
15 55 6z"/>
<path d="M3072 5637 c-14 -17 -4 -57 14 -57 9 0 14 11 14 29 0 34 -13 47 -28
28z"/>
<path d="M3375 5351 c-3 -5 -1 -12 5 -16 5 -3 10 1 10 9 0 18 -6 21 -15 7z"/>
<path d="M3540 4863 l-23 -16 23 -19 c12 -10 26 -18 30 -18 14 0 40 31 35 41
-4 5 -14 13 -24 18 -13 7 -25 5 -41 -6z"/>
<path d="M3016 4751 c-4 -7 -5 -15 -2 -18 9 -9 19 4 14 18 -4 11 -6 11 -12 0z"/>
<path d="M2636 4975 c-3 -8 -1 -15 4 -15 6 0 10 7 10 15 0 8 -2 15 -4 15 -2 0
-6 -7 -10 -15z"/>
<path d="M2200 4266 c0 -9 5 -16 10 -16 6 0 10 4 10 9 0 6 -4 13 -10 16 -5 3
-10 -1 -10 -9z"/>
<path d="M2295 4020 c3 -5 10 -10 16 -10 5 0 9 5 9 10 0 6 -7 10 -16 10 -8 0
-12 -4 -9 -10z"/>
<path d="M2836 3911 c-4 -5 -2 -12 3 -15 5 -4 12 -2 15 3 4 5 2 12 -3 15 -5 4
-12 2 -15 -3z"/>
<path d="M1935 3350 c-3 -5 1 -10 10 -10 9 0 13 5 10 10 -3 6 -8 10 -10 10 -2
0 -7 -4 -10 -10z"/>
<path d="M2004 3302 c-28 -24 -54 -75 -54 -105 0 -30 27 -63 57 -72 50 -14 88
79 43 107 -11 7 -20 17 -20 23 0 6 9 18 20 28 12 10 18 22 15 27 -9 15 -38 11
-61 -8z m26 -112 c0 -31 -16 -41 -26 -15 -8 19 2 45 16 45 5 0 10 -13 10 -30z"/>
<path d="M2108 3315 c-6 -6 0 -159 8 -183 2 -9 9 -10 21 -3 16 8 17 20 13 97
-4 70 -8 89 -20 92 -9 1 -19 0 -22 -3z"/>
<path d="M2255 3262 c-16 -2 -33 -9 -37 -15 -4 -7 -8 -31 -8 -54 0 -34 5 -46
24 -58 25 -17 51 -12 60 12 8 20 -1 33 -25 33 -15 0 -20 6 -17 23 2 15 9 21
21 19 19 -3 35 25 21 37 -5 3 -22 5 -39 3z"/>
<path d="M2380 3263 c-24 -3 -50 -9 -57 -15 -12 -9 -14 -49 -7 -95 4 -22 9
-23 84 -23 l80 0 0 51 c0 58 -14 90 -38 87 -9 -1 -37 -3 -62 -5z m0 -80 c0
-12 -5 -25 -10 -28 -15 -9 -23 21 -15 52 5 21 8 24 16 12 5 -7 9 -24 9 -36z
m65 7 c0 -13 -6 -25 -12 -27 -16 -6 -27 21 -19 43 9 23 31 11 31 -16z"/>
<path d="M1600 3090 c0 -5 5 -10 10 -10 6 0 10 5 10 10 0 6 -4 10 -10 10 -5 0
-10 -4 -10 -10z"/>
<path d="M3310 2852 c-22 -11 -36 -26 -38 -40 -2 -12 -8 -22 -13 -22 -5 0 -9
-17 -9 -37 1 -46 29 -83 62 -83 27 0 90 42 100 68 12 32 8 90 -8 106 -8 9 -19
16 -24 16 -5 0 -14 2 -22 5 -7 2 -29 -4 -48 -13z m60 -64 c0 -18 -7 -41 -14
-50 -13 -17 -56 -25 -69 -12 -6 6 16 57 35 82 6 6 19 12 29 12 15 0 19 -7 19
-32z"/>
<path d="M3133 2739 c-6 -6 -9 -17 -7 -23 5 -12 -55 -46 -82 -46 -8 0 -20 -11
-26 -25 -6 -14 -17 -25 -25 -25 -7 0 -31 -11 -53 -25 -22 -14 -43 -25 -47 -25
-3 0 -14 -6 -22 -14 -9 -7 -36 -24 -60 -37 -24 -13 -57 -36 -73 -51 -28 -26
-28 -27 -6 -34 13 -4 24 -2 26 5 2 6 9 11 16 11 7 0 50 23 96 50 46 28 85 50
88 50 2 0 15 9 29 20 14 11 36 20 49 20 13 0 37 15 57 35 26 27 42 35 69 35
22 0 41 7 52 19 17 18 17 21 1 45 -12 17 -26 26 -44 26 -15 0 -32 -5 -38 -11z"/>
<path d="M4182 2677 c-12 -6 -22 -16 -22 -24 0 -26 70 -37 85 -13 8 13 -5 38
-23 42 -10 3 -27 0 -40 -5z"/>
<path d="M1396 2591 c-4 -5 -2 -12 3 -15 5 -4 12 -2 15 3 4 5 2 12 -3 15 -5 4
-12 2 -15 -3z"/>
<path d="M3137 2504 c-13 -13 -7 -24 14 -24 11 0 19 5 17 12 -5 14 -22 21 -31
12z"/>
<path d="M2313 2443 c-13 -8 -23 -24 -23 -34 0 -17 5 -18 40 -13 31 5 40 3 40
-8 0 -19 -37 -58 -55 -58 -20 0 -30 -40 -14 -51 19 -12 92 -7 96 7 2 7 -3 19
-13 28 -18 18 -12 46 10 46 15 0 26 -21 26 -50 0 -11 10 -24 21 -31 18 -9 26
-7 48 8 21 16 27 29 29 72 3 44 0 54 -23 75 -23 21 -30 23 -47 13 -11 -7 -26
-25 -34 -42 -11 -26 -13 -27 -14 -8 0 23 -36 63 -54 62 -6 0 -21 -7 -33 -16z
m167 -71 c0 -15 -3 -38 -7 -50 -4 -18 -8 -20 -14 -10 -10 15 -12 82 -3 91 12
12 24 -4 24 -31z"/>
<path d="M4843 2423 c9 -2 23 -2 30 0 6 3 -1 5 -18 5 -16 0 -22 -2 -12 -5z"/>
<path d="M2571 2391 c-28 -39 -27 -85 1 -105 30 -21 45 -20 58 4 9 16 6 22
-20 35 -16 8 -30 22 -30 30 0 11 8 13 30 9 26 -6 30 -3 30 14 0 18 -25 42 -44
42 -2 0 -14 -13 -25 -29z"/>
<path d="M2656 2387 c-2 -12 -3 -40 -3 -62 l2 -40 53 -2 52 -2 0 45 c0 28 4
43 10 39 6 -3 10 -23 10 -45 0 -26 5 -40 16 -44 9 -4 22 -2 29 4 9 7 10 23 4
57 -5 25 -14 52 -20 59 -6 8 -36 13 -80 13 -63 0 -69 -2 -73 -22z m75 -29 c2
-18 -2 -42 -7 -47 -2 -3 -11 4 -18 15 -10 13 -11 23 -4 31 13 17 28 17 29 1z"/>
<path d="M4792 2399 c2 -6 8 -10 13 -10 5 0 11 4 13 10 2 6 -4 11 -13 11 -9 0
-15 -5 -13 -11z"/>
<path d="M4830 2345 c-7 -14 -10 -28 -7 -32 4 -3 7 1 7 10 0 10 4 17 9 17 5 0
11 7 15 15 9 25 -10 17 -24 -10z"/>
<path d="M2261 2199 c-34 -21 -64 -39 -67 -39 -3 0 -25 -13 -49 -30 -24 -16
-46 -30 -50 -30 -3 0 -36 -20 -74 -45 -38 -25 -75 -45 -83 -45 -17 0 -58 -41
-58 -58 0 -7 15 -12 35 -12 23 0 37 6 44 19 6 10 30 29 53 41 48 26 91 50 116
65 102 62 170 101 195 114 17 9 32 21 35 28 2 6 -5 16 -16 22 -14 8 -31 2 -81
-30z"/>
<path d="M1756 2201 c-4 -7 -5 -15 -2 -18 9 -9 19 4 14 18 -4 11 -6 11 -12 0z"/>
<path d="M5610 2775 c7 -9 15 -13 17 -11 7 7 -7 26 -19 26 -6 0 -6 -6 2 -15z"/>
<path d="M5452 1951 c2 -7 7 -12 11 -12 12 1 9 15 -3 20 -7 2 -11 -2 -8 -8z"/>
<path d="M5360 1920 c0 -5 4 -10 9 -10 6 0 13 5 16 10 3 6 -1 10 -9 10 -9 0
-16 -4 -16 -10z"/>
<path d="M4790 1600 c0 -5 4 -10 9 -10 6 0 13 5 16 10 3 6 -1 10 -9 10 -9 0
-16 -4 -16 -10z"/>
<path d="M3960 1151 c0 -15 16 -22 35 -15 13 5 14 8 3 15 -18 12 -38 11 -38 0z"/>
<path d="M575 2451 c-3 -5 -1 -12 5 -16 5 -3 10 1 10 9 0 18 -6 21 -15 7z"/>
<path d="M1150 1790 c-13 -8 -12 -10 3 -10 9 0 17 5 17 10 0 12 -1 12 -20 0z"/>
<path d="M1572 1551 c4 -13 18 -16 19 -4 0 4 -5 9 -11 12 -7 2 -11 -2 -8 -8z"/>
<path d="M2480 1346 c0 -9 5 -16 10 -16 6 0 10 4 10 9 0 6 -4 13 -10 16 -5 3
-10 -1 -10 -9z"/>
<path d="M2316 1131 c-4 -5 -2 -12 3 -15 5 -4 12 -2 15 3 4 5 2 12 -3 15 -5 4
-12 2 -15 -3z"/>
<path d="M2605 970 c-4 -6 -4 -10 -1 -10 2 0 11 -3 20 -6 9 -3 16 -2 16 4 0
14 -28 23 -35 12z"/>
<path d="M5472 6068 c-13 -13 -15 -37 -6 -62 8 -22 27 -20 42 4 10 17 9 25 -4
45 -9 14 -17 25 -18 25 -1 0 -7 -5 -14 -12z"/>
<path d="M2900 6054 c0 -8 5 -12 10 -9 6 3 10 10 10 16 0 5 -4 9 -10 9 -5 0
-10 -7 -10 -16z"/>
<path d="M3460 5908 c0 -19 2 -20 10 -8 13 19 13 30 0 30 -5 0 -10 -10 -10
-22z"/>
<path d="M3440 5790 c0 -5 5 -10 10 -10 6 0 10 5 10 10 0 6 -4 10 -10 10 -5 0
-10 -4 -10 -10z"/>
<path d="M3477 5764 c-9 -9 4 -35 14 -28 5 3 9 12 9 20 0 14 -12 19 -23 8z"/>
<path d="M6267 5369 c-10 -6 -29 -8 -42 -5 -13 3 -27 0 -34 -8 -10 -11 -7 -18
11 -30 20 -15 23 -23 20 -80 -3 -59 -2 -65 18 -71 32 -10 42 11 36 73 -6 63 0
83 21 75 23 -9 35 19 16 39 -19 21 -22 21 -46 7z"/>
<path d="M6375 5372 c-3 -3 -5 -16 -5 -29 0 -18 5 -23 25 -23 22 0 25 -4 25
-34 0 -19 -4 -46 -10 -60 -8 -22 -6 -28 15 -42 13 -9 29 -13 34 -9 7 4 8 33 4
80 -5 65 -4 75 10 75 21 0 32 -19 29 -50 -3 -31 27 -81 60 -98 21 -12 29 -11
59 7 21 13 40 34 47 55 11 29 10 41 -2 69 -8 21 -27 41 -47 51 -36 18 -59 21
-59 6 0 -14 -48 -24 -63 -12 -13 10 -114 22 -122 14z m240 -66 c15 -22 15 -27
0 -55 -9 -18 -23 -31 -34 -31 -21 0 -31 19 -31 55 0 36 10 55 31 55 10 0 26
-11 34 -24z"/>
<path d="M5830 5351 c0 -10 7 -24 15 -31 11 -9 13 -26 8 -76 -5 -54 -3 -64 11
-70 10 -4 24 0 34 9 14 15 14 18 -1 35 -9 10 -17 28 -17 40 0 38 22 27 60 -30
26 -39 43 -44 48 -13 5 23 -18 65 -34 65 -8 0 -22 17 -33 39 -18 35 -42 50
-78 51 -7 0 -13 -8 -13 -19z"/>
<path d="M5955 5360 c-11 -18 6 -51 23 -48 21 4 28 38 10 49 -17 11 -26 11
-33 -1z"/>
<path d="M6060 5363 c-28 -10 -50 -48 -50 -85 0 -28 8 -46 31 -73 17 -19 38
-35 48 -35 9 0 32 15 51 33 33 30 35 35 32 84 -4 47 -7 53 -37 67 -34 17 -49
18 -75 9z m54 -46 c12 -9 17 -23 14 -46 -2 -19 -11 -39 -20 -45 -13 -8 -23 -5
-43 14 -14 13 -25 29 -25 37 0 14 35 53 48 53 5 0 16 -6 26 -13z"/>
<path d="M5872 5080 c-16 -13 -22 -28 -20 -47 2 -21 12 -32 41 -46 20 -9 37
-24 37 -32 0 -17 -35 -21 -45 -5 -3 6 -13 10 -21 10 -8 0 -14 -10 -14 -25 0
-19 5 -25 23 -25 12 0 28 -4 36 -9 9 -6 21 -5 33 2 12 8 18 24 18 49 0 29 -6
41 -32 62 -26 20 -30 28 -20 38 9 9 15 8 26 -8 14 -18 15 -19 22 0 18 45 -43
71 -84 36z"/>
<path d="M6007 5072 c-22 -23 -27 -37 -27 -78 0 -36 5 -55 18 -66 25 -22 49
-28 82 -21 21 4 30 11 30 25 0 17 -5 19 -26 14 -14 -4 -34 -4 -45 -1 -14 5
-19 16 -19 44 0 20 6 46 14 56 13 18 15 18 41 1 32 -21 58 -15 48 11 -18 49
-76 57 -116 15z"/>
<path d="M6298 5095 c-3 -4 -2 -21 3 -38 5 -18 9 -51 9 -74 0 -32 -4 -43 -15
-43 -9 0 -18 8 -21 18 -3 9 -10 26 -14 37 -5 11 -13 34 -18 50 -5 19 -16 31
-29 33 -16 2 -22 -4 -27 -29 -3 -18 -17 -47 -31 -65 -24 -31 -32 -64 -19 -77
11 -11 46 14 40 29 -3 7 2 18 12 23 22 12 52 -4 52 -28 0 -10 8 -21 18 -23 9
-2 57 -1 105 2 49 3 111 3 138 0 35 -5 55 -2 69 7 11 8 20 20 20 28 0 23 -22
29 -36 11 -17 -24 -59 -17 -59 9 0 16 7 20 30 20 20 0 30 5 30 15 0 10 -10 15
-30 15 -23 0 -31 5 -33 23 -3 16 2 22 17 22 11 0 23 -4 26 -10 7 -12 16 -12
34 -1 10 7 11 13 2 30 -10 17 -21 21 -61 21 -71 0 -80 -6 -69 -40 6 -15 9 -45
7 -66 -3 -35 -6 -39 -41 -47 -21 -5 -41 -6 -44 -3 -4 3 -7 39 -7 79 -1 69 -2
72 -26 75 -14 2 -29 0 -32 -3z m-84 -100 c-4 -8 -7 -15 -9 -15 -2 0 -5 7 -9
15 -3 9 0 15 9 15 9 0 12 -6 9 -15z"/>
<path d="M4076 4795 c4 -8 8 -15 10 -15 2 0 4 7 4 15 0 8 -4 15 -10 15 -5 0
-7 -7 -4 -15z"/>
<path d="M6137 4755 c-5 -11 0 -15 19 -15 16 0 24 5 22 13 -7 18 -35 20 -41 2z"/>
<path d="M4270 4475 c0 -8 5 -15 10 -15 6 0 10 7 10 15 0 8 -4 15 -10 15 -5 0
-10 -7 -10 -15z"/>
<path d="M4480 4280 c0 -5 6 -10 14 -10 8 0 18 5 21 10 3 6 -3 10 -14 10 -12
0 -21 -4 -21 -10z"/>
<path d="M1802 4110 c0 -14 2 -19 5 -12 2 6 2 18 0 25 -3 6 -5 1 -5 -13z"/>
<path d="M1755 4081 c-3 -5 -1 -12 5 -16 5 -3 10 1 10 9 0 18 -6 21 -15 7z"/>
<path d="M6048 2763 c-18 -5 -31 -30 -22 -44 6 -10 67 -12 77 -3 8 9 -9 41
-25 46 -7 2 -20 3 -30 1z"/>
<path d="M6245 2756 c-11 -8 -16 -19 -12 -30 4 -11 18 -16 46 -16 44 0 60 20
35 45 -19 19 -44 19 -69 1z"/>
<path d="M6142 2752 c-9 -6 -11 -21 -6 -49 4 -24 1 -49 -5 -62 -10 -17 -9 -22
4 -27 12 -5 14 -15 9 -41 -6 -33 -6 -34 22 -31 25 3 29 7 27 32 -1 17 2 36 8
42 6 7 7 18 3 25 -4 7 -7 35 -8 63 -1 43 -4 51 -21 54 -11 1 -26 -2 -33 -6z"/>
<path d="M6347 2618 c6 -7 13 -20 16 -28 3 -9 6 -3 6 13 1 19 -4 27 -15 27
-12 0 -14 -4 -7 -12z"/>
<path d="M6037 2493 c-11 -10 -8 -43 3 -43 13 0 13 -83 0 -96 -8 -8 -6 -15 5
-24 12 -10 21 -11 33 -3 14 8 16 24 13 84 -2 41 -4 75 -5 75 -8 7 -44 13 -49
7z"/>
<path d="M6148 2487 c-9 -9 -13 -38 -13 -83 l0 -69 44 -3 c28 -2 47 1 52 9 4
7 1 29 -7 48 -13 32 -13 37 1 47 20 15 19 27 -3 47 -22 20 -56 22 -74 4z m42
-37 c0 -5 -4 -10 -10 -10 -5 0 -10 5 -10 10 0 6 5 10 10 10 6 0 10 -4 10 -10z
m4 -75 c3 -9 0 -15 -9 -15 -8 0 -15 7 -15 15 0 8 4 15 9 15 5 0 11 -7 15 -15z"/>
<path d="M6281 2427 c-17 -17 -13 -73 6 -92 11 -11 25 -15 42 -10 24 5 108 7
135 2 6 -1 11 12 11 28 0 17 5 30 10 30 6 0 10 -11 10 -24 1 -32 28 -49 49
-32 11 9 13 18 7 25 -5 6 -11 27 -13 46 l-3 35 -121 2 c-79 1 -125 -2 -133
-10z m95 -50 c-5 -22 -10 -24 -38 -18 -41 8 -52 41 -14 41 14 0 28 5 32 11 11
19 27 -7 20 -34z m77 9 c7 -16 -1 -26 -20 -26 -7 0 -13 9 -13 20 0 23 25 27
33 6z"/>
<path d="M6160 2248 c0 -17 -8 -40 -17 -50 -15 -17 -15 -21 1 -54 13 -28 14
-39 5 -50 -18 -22 -3 -46 28 -42 27 3 28 5 25 51 -2 28 2 55 9 63 9 11 9 18 1
26 -7 7 -12 29 -12 50 0 31 -4 38 -20 38 -16 0 -20 -7 -20 -32z"/>
<path d="M6035 2090 c-7 -12 12 -50 26 -50 23 0 49 22 49 40 0 16 -7 20 -34
20 -19 0 -38 -4 -41 -10z"/>
<path d="M6244 2085 c-9 -22 14 -45 46 -45 27 0 40 15 40 46 0 20 -79 19 -86
-1z"/>
<path d="M5930 1956 c0 -19 5 -38 10 -41 6 -3 19 -3 31 0 16 5 19 14 17 38 -2
27 -8 33 -30 35 -26 3 -28 1 -28 -32z"/>
<path d="M5945 1870 c-23 -25 -72 -50 -97 -50 -11 0 -22 -9 -25 -20 -3 -11
-16 -23 -29 -26 -13 -3 -24 -9 -24 -13 0 -4 -20 -18 -45 -30 -24 -12 -47 -26
-50 -32 -4 -5 -14 -9 -24 -9 -10 0 -26 -9 -36 -20 -10 -11 -30 -26 -44 -33
-56 -29 -143 -78 -181 -102 -22 -14 -42 -25 -45 -25 -4 0 -21 -11 -39 -25 -18
-14 -37 -25 -41 -25 -4 0 -23 -11 -40 -24 -18 -14 -51 -33 -74 -43 -22 -10
-41 -21 -41 -25 0 -5 -6 -8 -13 -8 -7 0 -29 -12 -50 -26 -21 -14 -73 -44 -115
-65 -42 -22 -85 -50 -94 -62 -40 -50 -12 -49 89 4 43 22 92 49 108 59 17 11
48 30 70 42 22 12 49 28 60 35 11 7 27 15 35 19 8 4 41 25 73 46 32 21 65 38
73 38 8 0 14 5 14 10 0 6 7 10 15 10 8 0 15 4 15 9 0 5 12 14 28 20 26 10 61
30 72 41 3 3 21 13 40 23 19 9 49 26 65 37 17 11 39 24 50 29 11 5 51 30 89
55 38 25 73 46 77 46 5 0 13 9 20 21 8 15 14 18 22 10 6 -6 14 -11 19 -11 4 0
22 12 40 28 18 15 42 32 53 38 24 13 34 74 12 74 -8 0 -22 -9 -32 -20z"/>
<path d="M5956 1765 c-9 -24 -7 -53 3 -59 5 -4 17 -3 26 0 11 5 15 16 13 38
-3 34 -31 48 -42 21z"/>
<path d="M815 1640 c4 -6 11 -8 16 -5 14 9 11 15 -7 15 -8 0 -12 -5 -9 -10z"/>
<path d="M5710 1480 c0 -5 5 -10 10 -10 6 0 10 5 10 10 0 6 -4 10 -10 10 -5 0
-10 -4 -10 -10z"/>
<path d="M4606 1167 c-14 -10 -18 -27 -17 -82 0 -75 10 -89 51 -79 14 3 26 7
28 8 5 5 7 144 2 149 -14 13 -48 16 -64 4z m34 -77 c0 -38 -14 -61 -22 -37 -8
20 3 87 13 81 5 -3 9 -23 9 -44z"/>
<path d="M4505 1132 c-9 -22 -25 -42 -36 -45 -11 -3 -19 -14 -19 -25 0 -21 25
-36 42 -26 5 3 15 -2 23 -12 11 -15 15 -16 29 -5 17 14 22 52 9 65 -5 4 -8 24
-8 43 0 20 -6 38 -12 40 -7 3 -19 -13 -28 -35z"/>
<path d="M4720 1101 c-12 -23 -13 -61 -2 -77 11 -18 50 -26 69 -15 11 6 24 6
36 -1 13 -6 23 -6 33 3 12 10 17 10 23 0 5 -8 18 -10 35 -5 15 3 32 1 40 -5
23 -20 36 9 28 64 l-7 50 -69 3 c-38 2 -75 1 -83 -2 -11 -5 -11 -9 -1 -26 10
-15 10 -24 2 -38 -11 -16 -29 -18 -61 -7 -7 2 -13 14 -13 25 0 21 14 27 25 10
9 -15 25 -2 25 21 0 15 -7 19 -35 19 -24 0 -37 -6 -45 -19z m170 -26 c10 -12
10 -19 2 -27 -16 -16 -42 -2 -42 22 0 24 22 26 40 5z m60 -10 c0 -27 -7 -30
-30 -15 -13 9 -12 12 4 25 11 8 21 15 23 15 2 0 3 -11 3 -25z"/>
<path d="M4394 957 c-55 -38 -122 -78 -174 -104 -19 -9 -37 -20 -40 -24 -3 -4
-41 -26 -85 -49 -44 -24 -99 -56 -123 -71 -24 -16 -47 -29 -53 -29 -5 0 -9 -3
-9 -7 0 -5 -19 -17 -43 -27 -23 -11 -49 -25 -57 -32 -8 -7 -37 -24 -65 -39
-79 -43 -88 -49 -120 -71 -17 -11 -37 -24 -45 -27 -8 -4 -28 -15 -45 -26 -162
-99 -218 -131 -234 -131 -9 0 -28 -11 -40 -24 -12 -13 -35 -26 -50 -29 -30 -6
-44 -27 -35 -51 6 -16 52 -10 75 10 9 8 18 11 22 8 3 -3 15 -3 26 1 14 4 21
15 21 31 0 18 5 24 21 24 11 0 33 8 47 18 15 10 34 22 42 25 8 4 29 16 45 27
17 11 44 26 60 33 17 8 45 28 64 45 18 18 37 30 41 27 5 -3 15 2 23 10 9 8 20
15 26 15 16 0 111 61 111 71 0 5 6 9 13 9 16 0 125 57 150 78 9 9 39 27 66 41
44 23 153 86 206 118 11 7 27 15 35 19 8 4 38 22 65 39 28 18 68 40 89 50 21
10 40 25 43 32 3 8 -1 21 -9 29 -13 13 -21 11 -64 -19z"/>
<path d="M4540 870 c0 -5 5 -10 10 -10 6 0 10 5 10 10 0 6 -4 10 -10 10 -5 0
-10 -4 -10 -10z"/>
<path d="M2110 850 c-13 -8 -12 -10 3 -10 9 0 17 5 17 10 0 12 -1 12 -20 0z"/>
<path d="M4620 850 c0 -5 5 -10 10 -10 6 0 10 5 10 10 0 6 -4 10 -10 10 -5 0
-10 -4 -10 -10z"/>
<path d="M4820 846 c0 -9 5 -16 10 -16 6 0 10 4 10 9 0 6 -4 13 -10 16 -5 3
-10 -1 -10 -9z"/>
<path d="M4880 845 c0 -9 5 -15 11 -13 6 2 11 8 11 13 0 5 -5 11 -11 13 -6 2
-11 -4 -11 -13z"/>
<path d="M4285 696 c-11 -8 -14 -15 -8 -19 6 -4 16 0 23 8 17 21 8 28 -15 11z"/>
<path d="M1748 674 c24 -17 39 -14 27 5 -3 6 -16 11 -28 11 l-21 0 22 -16z"/>
<path d="M3172 338 c4 -41 34 -51 47 -16 12 32 3 48 -26 48 -21 0 -24 -4 -21
-32z"/>
<path d="M3187 163 c-4 -3 -7 -21 -7 -38 0 -35 19 -58 37 -47 18 12 27 61 13
77 -13 16 -32 19 -43 8z"/>
</g>
</svg>
