<?xml version="1.0" standalone="no"?>
<!DOCTYPE svg PUBLIC "-//W3C//DTD SVG 20010904//EN"
 "http://www.w3.org/TR/2001/REC-SVG-20010904/DTD/svg10.dtd">
<svg version="1.0" xmlns="http://www.w3.org/2000/svg"
 width="1196.000000pt" height="918.000000pt" viewBox="0 0 1196.000000 918.000000"
 preserveAspectRatio="xMidYMid meet">
<g transform="translate(0.000000,918.000000) scale(0.100000,-0.100000)"
fill="#ffffff" stroke="none">
<path d="M2445 8830 c-4 -6 3 -10 14 -10 25 0 27 6 6 13 -8 4 -17 2 -20 -3z"/>
<path d="M2177 8814 c-13 -14 -7 -62 8 -68 13 -4 15 -19 13 -68 -3 -52 -7 -64
-24 -73 -41 -20 -51 -34 -46 -65 2 -17 8 -32 12 -35 9 -5 100 79 100 92 0 10
24 44 53 74 9 11 17 23 17 27 0 5 9 19 20 32 21 24 25 56 11 79 -6 9 -18 11
-34 7 -22 -5 -26 -11 -25 -45 0 -39 -16 -81 -32 -81 -5 0 -10 28 -12 63 -3 58
-5 62 -28 65 -14 2 -29 0 -33 -4z"/>
<path d="M2495 8760 c-17 -19 -17 -20 -1 -20 23 0 56 18 56 30 0 17 -36 11
-55 -10z"/>
<path d="M2047 8433 c-12 -11 -8 -23 8 -23 8 0 15 7 15 15 0 16 -12 20 -23 8z"/>
<path d="M2200 8378 c0 -18 -7 -46 -15 -62 -8 -15 -15 -34 -15 -40 0 -6 -9
-19 -20 -29 -12 -10 -20 -29 -20 -47 0 -28 3 -30 35 -30 l35 0 0 -344 c0 -219
-4 -347 -10 -351 -5 -3 -10 -2 -10 4 0 5 -24 38 -52 73 -29 34 -72 87 -95 116
-35 45 -86 102 -250 278 -12 13 -29 24 -36 24 -8 0 -18 -12 -21 -26 -6 -23 4
-37 83 -116 92 -92 169 -178 185 -207 5 -9 23 -30 40 -47 17 -18 49 -51 71
-75 22 -24 53 -53 68 -64 l28 -21 0 -713 c-1 -557 2 -717 12 -729 9 -12 13
-311 17 -1387 4 -1150 7 -1375 19 -1389 12 -14 11 -19 -3 -34 -9 -11 -16 -36
-16 -59 0 -24 -6 -46 -15 -53 -8 -7 -15 -22 -15 -34 0 -12 -7 -31 -15 -43 -8
-11 -17 -39 -21 -62 -4 -22 -13 -46 -20 -52 -8 -6 -14 -26 -14 -44 0 -18 -6
-38 -14 -44 -7 -6 -16 -32 -19 -59 -3 -26 -13 -60 -21 -77 -9 -16 -16 -44 -16
-61 0 -17 -7 -37 -15 -44 -8 -7 -15 -26 -15 -42 0 -16 -7 -42 -15 -58 -8 -16
-18 -57 -22 -90 -3 -33 -12 -65 -19 -71 -8 -6 -14 -26 -14 -43 0 -18 -7 -41
-15 -52 -8 -10 -15 -33 -15 -50 0 -17 -9 -60 -20 -94 -11 -34 -20 -77 -20 -95
0 -18 -7 -38 -15 -45 -8 -7 -15 -28 -15 -47 0 -19 -6 -47 -14 -62 -8 -15 -16
-52 -17 -82 -1 -30 -11 -70 -21 -89 -10 -19 -18 -48 -18 -65 0 -16 -7 -39 -15
-49 -8 -11 -15 -35 -15 -53 0 -19 -7 -50 -16 -71 -9 -20 -16 -62 -16 -92 -1
-42 -5 -58 -19 -68 -14 -9 -19 -26 -19 -56 0 -28 -5 -46 -14 -49 -13 -5 -20
-56 -17 -131 0 -16 -11 -43 -25 -61 -24 -31 -26 -32 -52 -19 -22 10 -83 13
-275 12 -196 -2 -250 -5 -259 -16 -10 -11 -67 -13 -307 -11 l-296 2 0 -24 0
-24 582 3 c320 2 587 1 593 -3 7 -4 4 -18 -10 -39 -11 -19 -20 -46 -20 -62 0
-16 -7 -42 -15 -58 -8 -15 -15 -54 -15 -86 0 -43 -5 -63 -20 -80 -13 -15 -20
-37 -20 -62 0 -25 -5 -41 -15 -44 -8 -4 -15 -12 -15 -19 0 -15 22 -25 56 -25
21 0 24 4 24 38 0 21 4 42 10 48 5 5 16 41 24 79 8 39 19 88 25 110 6 22 11
56 11 76 0 20 6 42 14 49 8 6 16 27 18 46 l3 34 294 1 294 2 1 -239 c1 -231 2
-239 21 -242 40 -5 43 7 33 136 -5 67 -7 177 -6 245 l3 122 40 -5 c53 -7 1409
-5 1600 2 83 3 719 6 1414 7 875 1 1268 4 1277 12 9 7 19 7 35 -1 18 -10 24
-9 31 4 9 15 12 16 31 3 17 -11 36 -12 82 -6 75 11 424 9 431 -2 3 -5 16 -2
30 7 15 11 24 12 24 5 0 -21 30 -24 44 -5 11 15 17 16 29 6 12 -11 19 -11 35
-1 16 10 23 10 35 0 12 -10 19 -10 35 0 16 10 23 10 36 0 13 -11 19 -11 31 -1
13 10 19 10 33 -3 16 -15 20 -15 34 -1 13 13 19 14 37 2 15 -9 24 -10 29 -2 4
6 48 11 107 12 55 1 137 4 181 7 l82 6 10 -31 c6 -17 9 -37 6 -44 -3 -8 -1
-17 5 -21 6 -3 11 -23 11 -44 0 -21 6 -44 14 -50 7 -6 16 -36 19 -67 3 -31 11
-62 16 -67 6 -6 11 -23 11 -37 0 -14 9 -42 20 -63 11 -20 20 -55 20 -77 0 -34
4 -41 25 -46 14 -3 32 -4 40 0 21 8 19 49 -5 69 -13 11 -20 29 -20 51 0 18 -7
39 -15 46 -9 7 -15 30 -15 54 -1 22 -9 59 -20 81 -11 22 -19 47 -20 56 0 9 -7
22 -15 29 -16 13 -21 80 -6 80 4 0 21 -19 37 -42 39 -57 67 -89 147 -169 37
-37 67 -70 67 -74 0 -11 45 -69 101 -127 47 -50 62 -59 85 -56 41 4 41 30 2
57 -18 13 -55 52 -82 88 -28 35 -77 93 -110 128 -34 34 -86 89 -117 121 -31
33 -72 74 -92 92 -21 19 -37 38 -37 43 0 5 8 9 18 9 269 3 1167 -1 1170 -5 3
-3 0 -11 -6 -17 -7 -7 -12 -25 -12 -40 0 -37 20 -36 77 2 24 17 53 30 64 30
10 0 19 5 19 10 0 6 11 16 25 22 14 6 25 17 25 24 0 19 -41 44 -73 44 -15 0
-30 7 -33 15 -7 17 -69 55 -91 55 -11 0 -14 -7 -10 -28 3 -15 7 -35 9 -45 3
-17 -28 -18 -612 -18 l-615 -1 -17 29 c-10 15 -18 44 -18 64 0 20 -7 42 -15
49 -9 8 -15 30 -15 60 0 30 -6 52 -15 60 -8 7 -15 28 -15 47 0 20 -9 46 -20
60 -11 14 -20 41 -20 60 0 19 -7 41 -15 49 -9 9 -15 34 -15 58 0 27 -6 48 -15
56 -8 7 -15 22 -15 35 0 12 -9 32 -20 45 -12 14 -20 38 -20 59 -1 20 -7 47
-15 61 -8 14 -14 41 -15 60 0 23 -7 42 -21 53 -12 11 -18 25 -14 36 3 10 -3
29 -15 44 -12 15 -20 40 -20 65 0 23 -6 45 -15 52 -8 7 -15 22 -15 33 0 11 -7
28 -15 37 -9 10 -18 35 -21 56 -3 22 -12 53 -20 71 -8 17 -14 40 -14 51 0 11
-6 25 -14 31 -7 6 -16 27 -19 46 -3 19 -13 42 -21 51 -9 8 -16 30 -16 47 0 18
-7 41 -15 51 -8 11 -15 30 -15 42 0 12 -7 24 -15 28 -9 3 -15 18 -15 38 0 18
-9 50 -20 71 -11 20 -20 46 -20 57 0 11 -7 23 -15 26 -9 4 -15 19 -15 39 0 18
-7 38 -15 45 -8 7 -17 28 -21 48 -4 19 -13 47 -20 61 -8 14 -14 32 -14 39 0 7
-7 15 -15 18 -9 4 -15 19 -15 41 0 20 -9 46 -20 60 -11 14 -20 36 -20 48 0 12
-7 28 -15 35 -8 7 -15 25 -15 40 0 15 -7 33 -15 40 -8 7 -15 22 -15 34 0 11
-9 35 -20 51 -11 17 -20 37 -20 46 0 9 -7 22 -15 29 -8 7 -15 26 -15 42 0 16
-6 31 -15 34 -9 4 -15 19 -15 40 0 22 -7 40 -20 51 -11 10 -20 29 -20 44 0 15
-7 29 -15 33 -9 3 -15 18 -15 34 0 16 -6 35 -14 41 -8 7 -18 27 -22 44 -3 18
-11 38 -17 46 -12 14 -31 61 -48 119 -6 17 -14 32 -19 32 -4 0 -11 13 -15 29
-3 16 -13 35 -21 42 -8 6 -14 22 -14 35 0 12 -7 29 -15 37 -7 8 -17 27 -21 42
-4 14 -13 29 -20 32 -8 3 -14 19 -14 38 0 20 -6 35 -15 39 -8 3 -15 15 -15 26
0 22 -35 93 -57 118 -7 7 -13 24 -13 36 0 13 -7 29 -15 36 -8 7 -15 22 -15 35
0 12 -9 30 -20 40 -11 10 -20 31 -20 47 0 15 -4 28 -10 28 -5 0 -12 11 -16 25
-3 13 -12 29 -20 36 -8 6 -14 22 -14 35 0 13 -9 28 -20 34 -11 6 -20 20 -20
31 0 11 -7 27 -15 35 -8 9 -15 24 -15 34 0 11 -6 23 -13 27 -7 4 -30 35 -52
68 -39 59 -98 137 -122 163 -7 7 -13 17 -13 21 0 5 -16 26 -35 47 -19 21 -35
42 -35 46 0 5 -4 14 -10 21 -45 56 -60 76 -60 84 0 5 -13 23 -29 40 -15 17
-39 49 -52 70 -12 21 -29 42 -36 46 -7 4 -13 14 -13 22 0 8 -6 18 -13 22 -6 4
-26 28 -42 52 -17 25 -48 62 -70 84 -21 23 -50 57 -63 76 -45 66 -324 347
-354 357 -10 3 -31 17 -46 31 -15 14 -41 32 -59 39 -17 8 -34 18 -38 24 -3 5
-17 10 -29 10 -13 0 -29 7 -36 15 -7 8 -20 15 -29 15 -9 0 -26 7 -37 14 -37
26 -137 55 -217 62 -42 3 -80 10 -83 15 -7 12 -311 12 -318 0 -3 -4 -43 -12
-88 -16 -79 -6 -165 -33 -199 -62 -8 -7 -23 -13 -32 -13 -9 0 -36 -13 -60 -30
-25 -16 -50 -30 -56 -30 -5 0 -15 -9 -21 -20 -6 -11 -17 -20 -24 -20 -7 0 -21
-10 -32 -21 -10 -12 -35 -32 -55 -44 -20 -13 -62 -48 -93 -79 -31 -31 -60 -56
-64 -56 -12 -1 -64 -52 -112 -110 -25 -30 -48 -56 -52 -58 -5 -2 -8 -10 -8
-19 0 -21 -42 -12 -55 12 -5 11 -34 44 -62 74 -29 29 -53 59 -53 66 0 8 -13
22 -30 32 -16 9 -30 24 -30 32 0 8 -17 31 -37 51 -21 20 -81 82 -133 139 -52
57 -124 133 -159 170 -35 36 -89 98 -120 137 -32 39 -90 105 -131 147 -40 43
-80 87 -89 99 -8 12 -51 60 -96 105 -149 154 -205 217 -205 231 0 4 -63 73
-140 151 -77 79 -140 152 -140 161 0 10 -5 20 -11 22 -8 3 -12 112 -13 371
l-1 367 47 0 c26 0 49 4 53 10 3 5 -2 17 -12 27 -10 10 -24 31 -30 46 -7 15
-17 27 -23 27 -5 0 -10 16 -10 35 0 38 -34 95 -57 95 -8 0 -13 -12 -13 -32z
m75 -1056 c6 -4 22 -23 35 -42 14 -19 55 -66 92 -104 38 -37 68 -70 68 -73 0
-13 102 -131 197 -229 59 -61 131 -137 158 -169 28 -33 73 -83 101 -111 29
-29 72 -79 97 -111 25 -32 64 -79 88 -104 24 -26 94 -99 154 -164 61 -65 140
-149 178 -188 37 -39 67 -76 67 -82 0 -16 144 -165 159 -165 6 0 11 -13 11
-30 0 -16 -4 -30 -9 -30 -5 0 -22 -17 -38 -39 -31 -42 -90 -112 -152 -181 -22
-25 -41 -49 -41 -55 0 -5 -14 -23 -30 -39 -16 -16 -32 -37 -35 -47 -4 -11 -10
-19 -15 -19 -5 0 -12 -10 -16 -22 -3 -13 -13 -30 -21 -38 -12 -13 -78 -109
-108 -158 -5 -9 -18 -28 -27 -41 -10 -13 -18 -32 -18 -41 0 -10 -7 -20 -15
-24 -8 -3 -15 -12 -15 -19 0 -8 -7 -20 -15 -27 -8 -7 -15 -21 -15 -32 0 -10
-6 -21 -14 -24 -8 -3 -19 -18 -25 -32 -6 -15 -20 -40 -30 -57 -11 -16 -34 -58
-51 -92 -18 -35 -36 -63 -41 -63 -5 0 -9 -10 -9 -23 0 -12 -9 -30 -20 -40 -11
-9 -20 -25 -20 -36 0 -11 -3 -21 -7 -23 -14 -6 -53 -67 -53 -82 0 -8 -7 -21
-15 -30 -8 -8 -19 -25 -25 -38 -5 -13 -14 -31 -20 -40 -5 -10 -15 -26 -20 -35
-6 -10 -16 -29 -22 -43 -7 -14 -18 -29 -25 -33 -7 -4 -13 -15 -13 -23 0 -17
-65 -141 -86 -165 -8 -8 -14 -22 -14 -31 0 -16 -74 -166 -91 -183 -5 -5 -9
-21 -9 -36 0 -15 -7 -32 -15 -39 -8 -7 -15 -20 -15 -29 0 -9 -9 -29 -20 -46
-11 -16 -20 -40 -20 -51 0 -12 -7 -24 -15 -28 -9 -3 -15 -19 -15 -41 0 -22 -6
-38 -15 -41 -8 -4 -15 -17 -15 -30 0 -13 -6 -38 -14 -56 -8 -18 -18 -50 -21
-70 -3 -21 -10 -38 -15 -38 -5 0 -16 -12 -25 -27 -16 -28 -16 -28 -10 17 4 25
8 233 11 463 3 294 1 424 -7 439 -8 15 -8 27 0 46 8 17 9 28 1 36 -16 16 -12
53 8 61 15 6 16 8 1 18 -14 11 -17 146 -23 1422 -5 945 -11 1414 -18 1423 -7
8 -6 17 3 28 11 14 11 18 -4 29 -9 7 -17 17 -17 24 0 12 20 14 35 3z m2795
-1018 c36 -9 79 -18 97 -21 18 -3 38 -11 44 -19 6 -8 25 -14 41 -14 16 0 31
-6 34 -15 4 -8 10 -15 16 -15 10 0 102 -43 133 -62 11 -7 26 -21 33 -30 7 -10
18 -18 24 -18 18 0 91 -62 163 -140 38 -41 86 -91 105 -110 19 -20 53 -58 75
-85 22 -27 54 -64 70 -82 17 -18 44 -51 60 -73 17 -23 47 -60 67 -83 21 -23
38 -47 38 -53 0 -6 12 -24 26 -40 14 -16 46 -59 71 -96 24 -38 49 -68 53 -68
5 0 12 -10 16 -22 3 -13 44 -71 90 -131 46 -59 84 -112 84 -117 0 -6 4 -10 9
-10 5 0 13 -12 19 -28 5 -15 21 -39 35 -52 15 -14 27 -30 27 -37 0 -16 16 -52
40 -88 11 -16 25 -41 30 -55 26 -59 52 -110 61 -116 5 -3 9 -14 9 -25 0 -11 7
-22 15 -25 8 -4 15 -16 15 -29 0 -21 71 -170 91 -189 5 -6 9 -17 9 -26 0 -9 9
-33 20 -55 19 -37 19 -47 9 -212 -6 -95 -8 -235 -5 -311 4 -75 9 -415 12 -754
4 -400 3 -618 -4 -618 -5 0 -22 18 -37 40 -15 22 -31 40 -36 40 -4 0 -11 10
-15 23 -3 12 -14 29 -23 38 -9 9 -52 56 -96 105 -44 48 -105 113 -135 145 -49
51 -182 194 -235 254 -11 12 -49 57 -85 100 -36 43 -81 95 -100 114 -19 20
-84 90 -145 155 -60 65 -143 152 -182 194 -40 41 -73 79 -73 84 0 5 -17 26
-37 47 -39 38 -161 172 -208 226 -41 48 -150 164 -277 296 -65 68 -118 127
-118 132 0 5 -13 23 -30 40 -16 18 -67 72 -112 121 -46 49 -100 106 -120 127
-21 21 -38 41 -38 46 0 5 -50 60 -111 123 -60 63 -130 136 -155 161 -24 26
-44 52 -44 59 0 6 -36 49 -79 93 -146 151 -176 183 -205 218 -16 19 -64 72
-107 118 -44 46 -79 87 -79 93 0 5 -36 44 -80 87 -44 43 -80 80 -80 83 0 11
196 208 207 208 5 0 31 23 57 50 26 28 51 50 55 50 5 0 11 7 15 15 3 8 12 15
20 15 7 0 16 7 20 15 3 8 11 15 18 15 8 0 30 16 49 35 20 19 47 39 60 45 24
10 34 15 74 38 11 7 30 16 42 21 11 6 24 15 28 20 3 6 16 11 28 11 12 0 49 9
82 19 51 16 93 19 275 20 161 0 231 -4 280 -15z m-1309 -636 c13 -18 36 -46
51 -63 14 -16 44 -50 65 -75 32 -38 130 -146 298 -329 22 -24 57 -60 78 -79
20 -19 37 -41 37 -49 0 -7 4 -13 8 -13 5 0 22 -19 39 -42 17 -24 77 -90 133
-147 56 -58 122 -129 148 -159 85 -97 94 -106 168 -184 41 -42 74 -79 74 -82
0 -3 11 -17 25 -32 14 -15 36 -41 48 -57 12 -16 54 -62 92 -101 82 -85 273
-290 337 -361 24 -27 63 -70 85 -95 23 -25 89 -100 148 -167 59 -68 111 -123
116 -123 5 0 13 -8 16 -17 4 -9 45 -56 92 -103 109 -110 226 -239 282 -310 24
-30 63 -75 86 -99 24 -24 47 -50 51 -57 8 -14 161 -179 277 -297 44 -45 93
-101 109 -125 16 -23 72 -87 125 -141 53 -54 107 -112 121 -128 14 -16 67 -74
118 -130 50 -56 92 -105 92 -110 0 -5 12 -20 28 -33 15 -14 40 -41 56 -60 52
-63 179 -202 269 -292 48 -48 87 -91 87 -94 0 -10 67 -90 120 -145 25 -26 81
-87 125 -135 44 -49 122 -131 174 -182 52 -50 92 -94 89 -97 -5 -5 -2616 -20
-2706 -16 -24 1 -50 -3 -58 -10 -11 -9 -18 -8 -29 1 -12 10 -21 10 -38 2 -15
-8 -449 -13 -1450 -19 -786 -4 -1431 -5 -1433 -2 -2 3 -4 521 -5 1151 -1 1044
0 1148 15 1169 9 13 16 35 16 50 0 14 9 34 20 44 11 10 20 30 20 44 0 14 7 35
15 45 8 11 15 30 15 42 0 12 7 27 15 34 8 7 15 23 15 35 0 12 7 28 15 35 8 7
18 30 21 51 4 21 13 40 20 43 8 3 14 17 14 32 0 14 9 37 20 51 11 14 20 31 20
39 0 11 13 40 41 94 33 62 59 121 59 133 0 8 7 20 15 27 8 7 15 18 15 25 0 7
6 15 14 18 7 3 16 22 20 41 4 20 11 36 16 36 5 0 12 10 16 23 3 12 19 41 35
65 16 23 31 53 35 67 3 13 12 26 20 29 8 3 14 17 14 30 0 14 6 29 13 33 7 4
25 33 40 63 15 30 36 69 47 85 11 17 23 37 26 45 11 27 15 35 39 75 14 22 29
50 34 62 5 11 15 24 20 28 6 3 11 14 11 23 0 10 9 25 20 35 11 9 20 25 20 36
0 11 3 21 8 23 11 5 52 66 52 78 0 5 16 33 35 60 19 27 35 55 35 61 0 6 15 29
33 52 19 23 37 49 41 57 18 38 29 55 181 258 28 37 63 81 78 97 82 91 97 110
97 119 0 14 31 46 45 46 7 0 23 -14 36 -32z m3119 -1552 c0 -26 6 -48 15 -56
8 -7 15 -21 15 -31 0 -10 9 -33 20 -51 11 -18 20 -43 20 -55 0 -12 4 -24 9
-28 5 -3 12 -18 16 -34 3 -16 13 -32 21 -35 8 -3 14 -18 14 -34 0 -15 7 -37
15 -48 8 -10 15 -29 15 -42 0 -12 9 -30 20 -39 11 -10 20 -27 20 -39 0 -12 7
-27 15 -34 8 -7 15 -25 15 -40 0 -15 7 -33 15 -40 8 -7 15 -25 15 -41 0 -18 8
-34 20 -41 12 -8 20 -24 20 -41 0 -15 4 -35 9 -45 24 -44 61 -132 61 -146 0
-8 4 -17 9 -21 5 -3 17 -29 25 -58 8 -29 27 -74 41 -100 14 -27 25 -56 25 -65
0 -9 7 -26 15 -36 8 -11 15 -32 15 -47 0 -16 6 -32 13 -36 8 -4 17 -25 20 -47
3 -21 13 -46 22 -56 8 -9 15 -25 15 -36 0 -10 7 -28 15 -38 8 -11 15 -34 15
-52 0 -19 6 -37 15 -42 9 -4 17 -21 19 -38 2 -16 11 -42 20 -59 9 -16 16 -42
16 -56 0 -15 6 -32 14 -38 8 -7 17 -27 20 -46 4 -18 11 -35 17 -37 6 -2 13
-26 16 -53 3 -28 12 -59 19 -70 8 -11 14 -31 14 -45 0 -15 9 -31 21 -38 14 -9
19 -20 15 -34 -3 -12 4 -41 15 -64 10 -24 19 -56 19 -72 0 -17 6 -32 15 -36 8
-3 15 -18 15 -32 0 -15 7 -35 15 -44 9 -10 18 -36 21 -58 2 -23 11 -57 19 -76
8 -20 15 -44 15 -54 0 -11 7 -25 15 -32 8 -7 15 -24 15 -39 0 -15 6 -35 14
-46 7 -11 16 -39 19 -61 4 -23 14 -54 22 -70 8 -16 15 -42 15 -57 0 -15 7 -30
15 -33 8 -4 15 -18 15 -33 0 -14 8 -42 18 -61 11 -19 22 -50 25 -67 5 -27 3
-33 -11 -33 -9 0 -23 9 -29 19 -22 36 -164 200 -228 265 -36 36 -65 70 -65 76
0 5 -4 10 -10 10 -5 0 -15 11 -22 25 -8 14 -70 85 -140 157 -185 196 -298 320
-298 331 0 2 -24 29 -52 59 -53 54 -183 197 -245 268 l-33 37 -6 906 c-3 498
-3 911 1 917 14 22 25 8 25 -34z m-4614 -1158 c-11 -108 -17 -991 -9 -1503 5
-291 7 -534 6 -540 -2 -6 -96 -10 -256 -10 -138 0 -264 -4 -279 -9 -27 -8 -28
-7 -28 31 0 22 9 66 20 99 11 32 20 75 20 95 0 20 7 42 15 49 8 7 15 27 15 44
0 17 6 42 13 56 8 15 17 57 20 94 4 40 13 76 22 86 8 9 15 35 15 57 0 25 5 43
13 46 9 3 16 31 21 77 3 40 11 81 17 92 6 11 12 38 14 60 2 22 11 48 19 57 10
11 16 36 16 63 0 29 5 48 13 51 9 3 16 31 20 75 4 38 14 82 22 98 8 16 15 43
15 59 0 17 7 39 15 49 8 11 15 36 15 56 0 20 3 40 7 44 15 14 30 75 25 104 -3
23 1 34 17 44 14 9 21 23 21 44 0 18 7 45 15 60 8 16 15 46 15 66 0 20 7 43
15 52 8 8 15 27 15 43 0 15 6 40 14 55 8 14 17 46 21 70 4 24 14 55 21 70 8
15 14 36 14 48 0 12 7 20 16 20 13 0 15 -9 10 -52z"/>
<path d="M2880 6350 c0 -5 5 -10 10 -10 6 0 10 5 10 10 0 6 -4 10 -10 10 -5 0
-10 -4 -10 -10z"/>
<path d="M3277 6023 c-13 -12 -7 -23 13 -23 13 0 18 5 14 15 -7 16 -17 19 -27
8z"/>
<path d="M3240 5980 c0 -5 4 -10 9 -10 6 0 13 5 16 10 3 6 -1 10 -9 10 -9 0
-16 -4 -16 -10z"/>
<path d="M3180 5846 c0 -16 18 -31 27 -22 3 3 -2 12 -11 21 -14 14 -16 14 -16
1z"/>
<path d="M3323 5821 c-13 -8 -32 -84 -45 -185 -11 -77 -11 -79 13 -97 14 -11
32 -17 44 -14 11 4 38 9 60 12 27 4 49 16 68 36 15 17 27 36 27 43 0 6 7 17
15 24 10 9 15 32 15 75 0 58 -3 65 -30 88 -25 22 -40 25 -94 25 -35 0 -68 -3
-73 -7z m126 -65 c18 -19 21 -31 16 -59 -9 -48 -40 -96 -70 -107 -30 -11 -75
3 -75 24 0 7 7 19 15 26 10 8 15 30 15 64 0 29 5 57 12 64 20 20 63 14 87 -12z"/>
<path d="M3160 5300 c0 -5 7 -10 15 -10 8 0 15 5 15 10 0 6 -7 10 -15 10 -8 0
-15 -4 -15 -10z"/>
<path d="M3056 5075 c-3 -8 -1 -15 4 -15 6 0 10 7 10 15 0 8 -2 15 -4 15 -2 0
-6 -7 -10 -15z"/>
<path d="M2950 4930 c0 -5 5 -10 10 -10 6 0 10 5 10 10 0 6 -4 10 -10 10 -5 0
-10 -4 -10 -10z"/>
<path d="M2715 4480 c4 -6 11 -8 16 -5 14 9 11 15 -7 15 -8 0 -12 -5 -9 -10z"/>
<path d="M2580 4383 c8 -3 18 -11 22 -17 5 -7 8 -4 8 7 0 11 -7 17 -22 16 -16
0 -18 -2 -8 -6z"/>
<path d="M4338 5983 c-10 -2 -18 -13 -18 -24 0 -10 3 -19 6 -19 4 0 17 11 30
25 22 24 19 28 -18 18z"/>
<path d="M5600 5770 c0 -5 5 -10 10 -10 6 0 10 5 10 10 0 6 -4 10 -10 10 -5 0
-10 -4 -10 -10z"/>
<path d="M5815 5560 c3 -5 10 -10 16 -10 5 0 9 5 9 10 0 6 -7 10 -16 10 -8 0
-12 -4 -9 -10z"/>
<path d="M4295 5378 c-9 -22 4 -43 17 -30 7 7 7 16 0 29 -10 17 -11 17 -17 1z"/>
<path d="M4617 5134 c-8 -8 1 -24 14 -24 5 0 9 7 9 15 0 15 -12 20 -23 9z"/>
<path d="M4535 5090 c3 -5 10 -10 16 -10 5 0 9 5 9 10 0 6 -7 10 -16 10 -8 0
-12 -4 -9 -10z"/>
<path d="M4575 5030 c-4 -6 6 -10 22 -10 22 0 25 2 13 10 -19 12 -27 12 -35 0z"/>
<path d="M4930 4756 c0 -8 5 -18 10 -21 6 -3 10 3 10 14 0 12 -4 21 -10 21 -5
0 -10 -6 -10 -14z"/>
<path d="M6445 4720 c4 -6 11 -8 16 -5 14 9 11 15 -7 15 -8 0 -12 -5 -9 -10z"/>
<path d="M6400 4650 c0 -5 9 -10 21 -10 11 0 17 5 14 10 -3 6 -13 10 -21 10
-8 0 -14 -4 -14 -10z"/>
<path d="M4930 4634 c0 -9 5 -14 12 -12 18 6 21 28 4 28 -9 0 -16 -7 -16 -16z"/>
<path d="M5250 4551 c0 -6 5 -13 10 -16 6 -3 10 1 10 9 0 9 -4 16 -10 16 -5 0
-10 -4 -10 -9z"/>
<path d="M5205 4371 c-7 -12 12 -24 25 -16 11 7 4 25 -10 25 -5 0 -11 -4 -15
-9z"/>
<path d="M5235 4311 c-3 -5 -1 -12 5 -16 5 -3 10 1 10 9 0 18 -6 21 -15 7z"/>
<path d="M5415 4160 c4 -6 11 -8 16 -5 14 9 11 15 -7 15 -8 0 -12 -5 -9 -10z"/>
<path d="M5735 3750 c-3 -5 1 -10 9 -10 9 0 16 5 16 10 0 6 -4 10 -9 10 -6 0
-13 -4 -16 -10z"/>
<path d="M6521 2944 c-7 -8 -10 -18 -7 -21 7 -7 36 16 36 28 0 13 -13 10 -29
-7z"/>
<path d="M6560 2880 c0 -5 7 -10 15 -10 8 0 15 5 15 10 0 6 -7 10 -15 10 -8 0
-15 -4 -15 -10z"/>
<path d="M6520 2866 c0 -8 7 -16 15 -20 13 -4 14 -2 5 14 -13 23 -20 26 -20 6z"/>
<path d="M6670 2750 c0 -5 5 -10 10 -10 6 0 10 5 10 10 0 6 -4 10 -10 10 -5 0
-10 -4 -10 -10z"/>
<path d="M4470 4680 c0 -5 5 -10 10 -10 6 0 10 5 10 10 0 6 -4 10 -10 10 -5 0
-10 -4 -10 -10z"/>
<path d="M3015 4391 c-6 -11 9 -23 19 -14 9 9 7 23 -3 23 -6 0 -12 -4 -16 -9z"/>
<path d="M4770 4110 c0 -11 5 -20 10 -20 6 0 10 9 10 20 0 11 -4 20 -10 20 -5
0 -10 -9 -10 -20z"/>
<path d="M5135 3930 c-3 -5 1 -10 10 -10 9 0 13 5 10 10 -3 6 -8 10 -10 10 -2
0 -7 -4 -10 -10z"/>
<path d="M5170 3900 c0 -5 5 -10 10 -10 6 0 10 5 10 10 0 6 -4 10 -10 10 -5 0
-10 -4 -10 -10z"/>
<path d="M5090 3890 c0 -5 5 -10 10 -10 6 0 10 5 10 10 0 6 -4 10 -10 10 -5 0
-10 -4 -10 -10z"/>
<path d="M2780 3880 c0 -5 5 -10 10 -10 6 0 10 5 10 10 0 6 -4 10 -10 10 -5 0
-10 -4 -10 -10z"/>
<path d="M5317 3756 c-3 -8 -2 -18 3 -21 13 -8 20 9 11 24 -6 10 -10 9 -14 -3z"/>
<path d="M5335 3651 c-6 -11 9 -23 19 -14 9 9 7 23 -3 23 -6 0 -12 -4 -16 -9z"/>
<path d="M5414 3626 c-3 -8 4 -25 15 -37 12 -13 21 -18 21 -11 0 6 -5 14 -11
17 -6 4 -8 13 -5 21 3 7 1 16 -5 19 -5 4 -12 -1 -15 -9z"/>
<path d="M5615 3440 c4 -6 11 -8 16 -5 14 9 11 15 -7 15 -8 0 -12 -5 -9 -10z"/>
<path d="M5835 3139 c-4 -6 -5 -13 -2 -16 7 -7 27 6 27 18 0 12 -17 12 -25 -2z"/>
<path d="M2440 3040 c0 -5 5 -10 10 -10 6 0 10 5 10 10 0 6 -4 10 -10 10 -5 0
-10 -4 -10 -10z"/>
<path d="M6110 2835 c0 -8 7 -15 15 -15 9 0 12 6 9 15 -4 8 -10 15 -15 15 -5
0 -9 -7 -9 -15z"/>
<path d="M6720 2157 c-39 -14 -50 -40 -43 -103 4 -33 1 -45 -16 -61 -18 -17
-22 -30 -19 -69 l3 -49 101 -3 c84 -2 103 0 107 13 4 8 4 22 0 30 -4 13 -17
15 -74 9 l-69 -7 0 29 c0 16 4 35 9 43 8 12 18 13 62 3 38 -9 55 -9 65 -1 17
14 18 45 2 56 -7 4 -36 6 -64 4 -32 -1 -55 2 -59 9 -4 6 2 21 14 34 18 19 28
21 86 18 61 -4 65 -3 65 17 0 14 -9 25 -26 31 -34 13 -101 12 -144 -3z"/>
<path d="M7520 1313 c0 -6 8 -17 18 -24 16 -13 16 -13 2 6 -8 11 -16 22 -17
24 -2 2 -3 0 -3 -6z"/>
<path d="M7586 1231 c-4 -5 -2 -12 3 -15 5 -4 12 -2 15 3 4 5 2 12 -3 15 -5 4
-12 2 -15 -3z"/>
<path d="M7454 1169 c-3 -6 -1 -16 5 -22 8 -8 14 -8 22 0 12 12 4 33 -11 33
-5 0 -12 -5 -16 -11z"/>
<path d="M3737 1083 c-12 -11 -8 -23 8 -23 8 0 15 7 15 15 0 16 -12 20 -23 8z"/>
<path d="M2440 1030 c0 -5 9 -10 21 -10 11 0 17 5 14 10 -3 6 -13 10 -21 10
-8 0 -14 -4 -14 -10z"/>
<path d="M7040 2345 c0 -9 9 -15 21 -15 18 0 19 2 9 15 -7 8 -16 15 -21 15 -5
0 -9 -7 -9 -15z"/>
<path d="M7255 2110 c-7 -12 2 -30 16 -30 12 0 12 27 0 35 -5 3 -12 1 -16 -5z"/>
<path d="M7485 1800 c3 -5 13 -10 21 -10 8 0 14 5 14 10 0 6 -9 10 -21 10 -11
0 -17 -4 -14 -10z"/>
<path d="M1975 1331 c-6 -11 9 -23 19 -14 9 9 7 23 -3 23 -6 0 -12 -4 -16 -9z"/>
<path d="M2435 8330 c-3 -5 1 -10 9 -10 9 0 16 5 16 10 0 6 -4 10 -9 10 -6 0
-13 -4 -16 -10z"/>
<path d="M2490 8300 c0 -5 7 -10 15 -10 8 0 15 5 15 10 0 6 -7 10 -15 10 -8 0
-15 -4 -15 -10z"/>
<path d="M2540 8252 c0 -5 -10 -14 -22 -20 -23 -10 -23 -11 5 -11 21 -1 27 4
27 19 0 11 -2 20 -5 20 -3 0 -5 -4 -5 -8z"/>
<path d="M1880 8040 c0 -5 7 -7 15 -4 8 4 15 8 15 10 0 2 -7 4 -15 4 -8 0 -15
-4 -15 -10z"/>
<path d="M1590 8020 c0 -5 4 -10 9 -10 6 0 13 5 16 10 3 6 -1 10 -9 10 -9 0
-16 -4 -16 -10z"/>
<path d="M1880 8010 c0 -6 7 -10 15 -10 8 0 15 2 15 4 0 2 -7 6 -15 10 -8 3
-15 1 -15 -4z"/>
<path d="M1625 7910 c-3 -5 1 -10 10 -10 9 0 13 5 10 10 -3 6 -8 10 -10 10 -2
0 -7 -4 -10 -10z"/>
<path d="M1495 7880 c3 -5 10 -10 16 -10 5 0 9 5 9 10 0 6 -7 10 -16 10 -8 0
-12 -4 -9 -10z"/>
<path d="M2540 7350 c0 -5 5 -10 10 -10 6 0 10 5 10 10 0 6 -4 10 -10 10 -5 0
-10 -4 -10 -10z"/>
<path d="M6530 7015 c0 -8 5 -15 10 -15 6 0 10 7 10 15 0 8 -4 15 -10 15 -5 0
-10 -7 -10 -15z"/>
<path d="M5130 6980 c0 -5 4 -10 9 -10 6 0 13 5 16 10 3 6 -1 10 -9 10 -9 0
-16 -4 -16 -10z"/>
<path d="M6178 6967 c-4 -19 -1 -27 8 -27 15 0 16 6 5 35 -7 17 -8 17 -13 -8z"/>
<path d="M3765 6951 c-3 -5 -1 -12 4 -15 13 -8 42 4 35 15 -7 12 -31 12 -39 0z"/>
<path d="M5920 6950 c0 -5 5 -10 10 -10 6 0 10 5 10 10 0 6 -4 10 -10 10 -5 0
-10 -4 -10 -10z"/>
<path d="M4065 6940 c3 -5 10 -10 16 -10 5 0 9 5 9 10 0 6 -7 10 -16 10 -8 0
-12 -4 -9 -10z"/>
<path d="M6216 6923 c-11 -11 -6 -23 9 -23 8 0 15 4 15 9 0 13 -16 22 -24 14z"/>
<path d="M6250 6920 c0 -5 4 -10 9 -10 6 0 13 5 16 10 3 6 -1 10 -9 10 -9 0
-16 -4 -16 -10z"/>
<path d="M6495 6920 c3 -5 10 -10 16 -10 5 0 9 5 9 10 0 6 -7 10 -16 10 -8 0
-12 -4 -9 -10z"/>
<path d="M6240 6890 c0 -5 5 -10 10 -10 6 0 10 5 10 10 0 6 -4 10 -10 10 -5 0
-10 -4 -10 -10z"/>
<path d="M3742 6757 c-25 -26 -32 -41 -32 -74 0 -24 -6 -46 -15 -53 -19 -16
-19 -59 0 -84 8 -11 15 -33 15 -48 0 -16 7 -40 16 -53 18 -27 71 -58 85 -49
19 11 8 44 -23 67 -28 23 -32 32 -36 86 -2 33 -1 81 2 105 6 36 13 49 37 63
23 13 29 24 27 43 -5 38 -37 37 -76 -3z"/>
<path d="M4000 6770 c0 -12 10 -31 23 -43 44 -43 57 -74 57 -138 0 -56 -3 -66
-35 -105 -19 -23 -35 -49 -35 -57 0 -8 7 -20 15 -27 13 -11 20 -9 40 10 14 13
25 29 25 35 0 7 9 20 20 30 17 16 20 31 20 112 0 80 -3 99 -20 120 -11 14 -20
31 -20 37 0 14 -52 46 -74 46 -9 0 -16 -8 -16 -20z"/>
<path d="M5095 6778 c-16 -6 -32 -12 -34 -14 -2 -2 -5 -18 -6 -35 -2 -35 21
-51 39 -27 6 8 21 18 34 22 16 5 24 3 29 -10 4 -12 -3 -25 -25 -44 -18 -15
-32 -29 -32 -33 0 -4 14 -13 30 -22 21 -11 30 -23 30 -40 0 -13 -4 -27 -10
-30 -5 -3 -24 2 -41 10 -27 15 -33 15 -46 2 -9 -9 -12 -23 -8 -40 5 -18 16
-28 36 -32 16 -4 43 -4 59 0 41 9 57 46 50 111 -3 28 -2 62 1 75 14 49 10 78
-13 93 -35 21 -60 25 -93 14z"/>
<path d="M6058 6773 c-28 -14 -35 -37 -20 -61 7 -10 16 -9 46 3 20 9 41 13 46
10 21 -13 9 -52 -25 -85 -19 -19 -35 -42 -35 -52 0 -9 -9 -22 -21 -28 -11 -6
-19 -19 -17 -28 2 -13 17 -18 58 -23 78 -8 114 1 118 30 5 30 -13 50 -30 33
-13 -13 -54 -16 -62 -4 -2 4 11 25 30 46 19 21 34 45 34 52 0 8 7 17 15 20 20
8 19 48 -2 69 -20 21 -57 35 -86 34 -12 -1 -34 -8 -49 -16z"/>
<path d="M6296 6737 c-10 -23 -27 -51 -37 -62 -10 -11 -19 -33 -21 -50 -3 -28
-1 -30 36 -33 36 -3 38 -5 33 -31 -3 -15 -3 -32 1 -38 4 -6 21 -13 37 -15 29
-3 30 -1 33 40 2 28 8 42 18 42 21 0 17 33 -7 48 -19 12 -21 20 -15 64 8 56
-3 78 -38 78 -15 0 -26 -13 -40 -43z m21 -83 c6 -16 -15 -37 -29 -28 -4 3 -8
14 -8 25 0 23 28 26 37 3z"/>
<path d="M6561 6768 c-1 -9 -6 -18 -12 -20 -7 -2 -10 -11 -7 -18 3 -11 8 -9
17 8 7 13 10 28 7 35 -2 7 -5 5 -5 -5z"/>
<path d="M5709 6754 c-6 -7 -9 -32 -7 -56 l3 -43 -35 0 c-19 0 -41 -4 -47 -8
-7 -5 -13 -19 -13 -33 0 -22 4 -24 50 -24 l49 0 -6 -49 c-5 -48 -4 -50 21 -57
14 -3 33 -3 41 0 13 4 14 16 9 56 l-7 50 52 0 c42 0 51 3 51 18 0 32 -18 47
-57 47 l-38 0 -3 51 c-3 46 -6 52 -27 57 -14 2 -30 -2 -36 -9z"/>
<path d="M3532 6684 c-21 -14 -22 -22 -22 -143 0 -85 4 -131 12 -139 17 -17
68 -14 103 7 23 13 31 26 33 52 1 19 -2 40 -6 47 -5 7 -28 16 -51 20 l-43 7
-4 53 c-3 40 -1 54 11 58 19 8 45 -13 45 -36 0 -10 -9 -20 -20 -23 -11 -3 -20
-10 -20 -15 0 -18 33 -23 56 -7 19 12 24 24 24 60 0 26 -6 50 -16 59 -20 20
-73 20 -102 0z m78 -213 c0 -22 -33 -34 -49 -18 -20 20 -12 37 19 37 23 0 30
-5 30 -19z"/>
<path d="M3842 6670 c-10 -27 -8 -31 16 -42 14 -7 25 -16 24 -20 -1 -5 -2 -16
-2 -25 0 -10 -15 -25 -33 -33 -34 -16 -47 -47 -25 -61 19 -13 26 -11 45 11 10
11 23 20 29 20 6 0 18 -10 26 -22 11 -16 20 -20 41 -14 39 9 35 39 -8 65 -31
18 -34 24 -25 41 6 11 24 27 40 35 33 17 49 53 29 66 -22 14 -38 10 -49 -11
-6 -11 -15 -20 -20 -20 -6 0 -18 9 -27 20 -25 29 -49 25 -61 -10z"/>
<path d="M4354 6687 c-3 -9 -4 -26 -2 -39 3 -23 4 -23 118 -20 63 1 118 6 123
11 6 6 -1 20 -17 35 -20 21 -31 25 -53 20 -36 -9 -124 -9 -145 1 -12 5 -20 2
-24 -8z"/>
<path d="M5263 6684 c-4 -10 0 -20 10 -26 27 -15 38 -44 27 -72 -5 -14 -16
-26 -24 -26 -17 0 -49 -54 -39 -64 4 -3 17 -6 30 -6 16 0 27 8 33 25 5 14 14
25 19 25 5 0 12 -11 15 -24 8 -31 52 -41 66 -15 16 28 12 50 -10 56 -11 3 -20
9 -20 13 0 5 -3 15 -6 24 -4 10 8 24 35 42 24 15 41 35 41 45 0 15 -7 19 -33
19 -22 0 -36 -7 -45 -21 l-14 -21 -14 21 c-18 25 -62 28 -71 5z"/>
<path d="M4824 6642 c-36 -18 -46 -33 -33 -48 6 -7 46 -10 120 -8 62 1 115 6
120 11 4 4 3 19 -4 32 -11 23 -18 25 -93 27 -56 1 -89 -3 -110 -14z"/>
<path d="M6540 6618 c0 -19 2 -20 10 -8 13 19 13 30 0 30 -5 0 -10 -10 -10
-22z"/>
<path d="M4345 6580 c-3 -5 0 -18 6 -29 10 -15 24 -19 71 -18 32 0 61 4 64 8
2 5 24 8 48 7 49 -1 66 6 66 28 0 11 -23 14 -124 14 -69 0 -127 -4 -131 -10z"/>
<path d="M6540 6550 c0 -5 5 -10 10 -10 6 0 10 5 10 10 0 6 -4 10 -10 10 -5 0
-10 -4 -10 -10z"/>
<path d="M6510 6506 c0 -15 18 -31 26 -23 7 7 -7 37 -17 37 -5 0 -9 -6 -9 -14z"/>
<path d="M4013 6268 c2 -7 10 -13 17 -13 7 0 15 6 18 13 2 7 -5 12 -18 12 -13
0 -20 -5 -17 -12z"/>
<path d="M3870 6216 c0 -9 7 -16 16 -16 17 0 14 22 -4 28 -7 2 -12 -3 -12 -12z"/>
<path d="M3890 6130 c0 -5 5 -10 10 -10 6 0 10 5 10 10 0 6 -4 10 -10 10 -5 0
-10 -4 -10 -10z"/>
<path d="M3590 6100 c0 -5 5 -10 10 -10 6 0 10 5 10 10 0 6 -4 10 -10 10 -5 0
-10 -4 -10 -10z"/>
<path d="M6055 5911 c-3 -5 -1 -12 5 -16 5 -3 10 1 10 9 0 18 -6 21 -15 7z"/>
<path d="M6240 5604 c0 -8 5 -12 10 -9 6 3 10 10 10 16 0 5 -4 9 -10 9 -5 0
-10 -7 -10 -16z"/>
<path d="M6280 5530 c0 -5 5 -10 10 -10 6 0 10 5 10 10 0 6 -4 10 -10 10 -5 0
-10 -4 -10 -10z"/>
<path d="M6532 5318 c6 -18 28 -21 28 -4 0 9 -7 16 -16 16 -9 0 -14 -5 -12
-12z"/>
<path d="M6712 4796 c7 -8 15 -12 17 -11 5 6 -10 25 -20 25 -5 0 -4 -6 3 -14z"/>
<path d="M6800 4794 c0 -8 5 -12 10 -9 6 3 10 10 10 16 0 5 -4 9 -10 9 -5 0
-10 -7 -10 -16z"/>
<path d="M7090 4790 c0 -5 4 -10 9 -10 6 0 13 5 16 10 3 6 -1 10 -9 10 -9 0
-16 -4 -16 -10z"/>
<path d="M6923 4713 c-7 -3 -13 -13 -13 -23 0 -9 -6 -23 -14 -29 -8 -7 -15
-40 -18 -82 -3 -39 -11 -76 -17 -82 -18 -18 -13 -55 10 -67 36 -20 49 -6 49
55 l0 56 53 -1 c84 -3 87 -2 87 23 0 41 -14 50 -63 43 -49 -8 -61 2 -46 42 10
25 28 27 82 8 36 -13 40 -13 65 11 25 23 26 25 9 38 -12 8 -46 13 -95 13 -42
-1 -83 -3 -89 -5z"/>
<path d="M2080 4496 c0 -9 5 -16 10 -16 6 0 10 4 10 9 0 6 -4 13 -10 16 -5 3
-10 -1 -10 -9z"/>
<path d="M7140 4135 c0 -15 4 -24 10 -20 6 3 10 12 10 20 0 8 -4 17 -10 20 -6
4 -10 -5 -10 -20z"/>
<path d="M7357 3764 c-13 -13 -7 -24 14 -24 11 0 19 5 17 12 -5 14 -22 21 -31
12z"/>
<path d="M7355 3590 c-3 -5 1 -10 9 -10 9 0 16 5 16 10 0 6 -4 10 -9 10 -6 0
-13 -4 -16 -10z"/>
<path d="M7340 3505 c0 -8 5 -15 10 -15 6 0 10 7 10 15 0 8 -4 15 -10 15 -5 0
-10 -7 -10 -15z"/>
<path d="M2045 3277 c-43 -17 -113 -85 -119 -116 -21 -99 -13 -146 33 -188 31
-29 85 -31 108 -3 10 11 23 20 30 20 23 0 43 32 43 71 0 50 -18 51 -54 4 -29
-37 -61 -51 -95 -40 -18 5 -21 15 -21 59 0 49 3 57 44 101 46 49 78 57 84 20
6 -30 22 -45 47 -45 16 0 24 7 28 26 2 15 -2 31 -10 40 -20 19 -79 64 -84 63
-2 0 -17 -6 -34 -12z"/>
<path d="M1760 2780 c0 -5 5 -10 10 -10 6 0 10 5 10 10 0 6 -4 10 -10 10 -5 0
-10 -4 -10 -10z"/>
<path d="M9760 2670 c0 -5 5 -10 10 -10 6 0 10 5 10 10 0 6 -4 10 -10 10 -5 0
-10 -4 -10 -10z"/>
<path d="M9658 2588 c9 -9 15 -9 24 0 9 9 7 12 -12 12 -19 0 -21 -3 -12 -12z"/>
<path d="M9658 2493 c-19 -5 -25 -48 -8 -58 6 -3 26 -1 45 6 19 7 38 10 41 6
4 -4 -8 -22 -27 -41 -19 -18 -38 -41 -44 -50 -9 -14 -14 -15 -43 -4 -30 12
-35 11 -48 -6 -13 -18 -15 -18 -32 -3 -10 9 -31 17 -45 17 -22 0 -27 -5 -27
-25 0 -14 8 -29 21 -35 31 -17 22 -61 -16 -79 -34 -16 -45 -29 -45 -54 0 -31
29 -31 62 -1 l30 29 15 -22 c22 -32 61 -30 73 3 11 28 6 44 -14 44 -8 0 -21
11 -30 24 -15 24 -15 25 29 55 l44 30 25 -20 c15 -12 40 -19 65 -19 35 0 42 4
47 24 7 29 -1 46 -22 46 -20 0 -17 17 6 37 13 11 20 30 20 50 0 27 -5 35 -26
43 -26 10 -65 11 -96 3z"/>
<path d="M8490 2461 c-14 -28 -13 -39 8 -45 9 -3 27 -21 40 -39 16 -25 22 -48
22 -88 0 -33 -6 -63 -15 -75 -8 -10 -15 -27 -15 -36 0 -9 -9 -20 -20 -23 -15
-5 -20 -15 -20 -41 0 -22 5 -34 14 -34 7 0 32 18 53 40 29 28 42 52 48 82 22
126 -3 218 -72 263 -12 8 -25 15 -27 15 -3 0 -10 -9 -16 -19z"/>
<path d="M8700 2472 c0 -5 7 -16 16 -23 14 -12 16 -11 13 5 -4 20 -29 35 -29
18z"/>
<path d="M8219 2438 c-16 -18 -29 -43 -29 -56 0 -12 -7 -25 -15 -28 -11 -5
-15 -22 -15 -69 0 -43 5 -66 15 -75 8 -7 15 -21 15 -30 0 -25 69 -100 92 -100
14 0 18 8 18 35 0 27 4 35 18 35 11 0 27 9 37 20 21 23 35 26 35 6 0 -7 6 -19
14 -25 12 -10 19 -8 35 8 12 12 21 28 21 36 0 9 -11 20 -25 25 -14 5 -25 16
-25 23 0 7 16 28 36 45 38 33 42 64 11 70 -10 2 -25 -4 -32 -14 -13 -18 -14
-18 -33 -1 -12 11 -31 17 -49 15 -22 -2 -27 -7 -25 -23 2 -11 13 -26 24 -33
13 -10 18 -23 16 -45 -2 -25 -8 -33 -28 -36 -29 -4 -40 -17 -40 -48 0 -13 -4
-23 -8 -23 -5 0 -19 11 -32 25 -20 21 -23 35 -23 110 l-1 85 37 31 c40 33 47
53 21 63 -27 10 -34 7 -65 -26z"/>
<path d="M8094 2437 c-11 -13 -24 -29 -29 -37 -5 -8 -10 -68 -12 -133 -2 -128
1 -136 52 -123 28 7 32 31 10 60 -20 26 -19 71 2 102 14 21 14 29 4 46 -10 17
-9 23 13 43 33 31 35 65 3 65 -13 0 -32 -10 -43 -23z"/>
<path d="M10343 2434 c-14 -23 -9 -69 9 -80 5 -3 18 3 29 15 23 24 42 27 58 8
8 -11 6 -18 -9 -32 -11 -10 -20 -25 -20 -33 0 -18 -38 -83 -58 -99 -12 -10
-13 -15 -2 -28 7 -8 25 -15 41 -15 21 0 29 5 29 18 0 10 6 27 14 38 22 31 56
134 56 169 0 16 -4 35 -8 41 -4 7 -34 14 -66 15 -51 4 -61 1 -73 -17z"/>
<path d="M11220 2453 c-29 -10 -70 -57 -70 -79 0 -12 9 -33 20 -47 l21 -26
-21 -11 c-42 -23 -14 -101 43 -119 24 -8 42 -7 72 3 29 10 41 21 47 42 4 16 4
41 -1 55 -5 14 -7 47 -4 72 8 72 -1 94 -45 106 -41 12 -40 12 -62 4z m48 -62
c12 -11 22 -23 22 -28 0 -5 -11 -20 -26 -33 -21 -21 -27 -22 -34 -10 -16 25
-9 91 9 90 3 -1 16 -9 29 -19z m0 -107 c15 -10 22 -24 20 -37 -2 -17 -10 -22
-33 -22 -24 0 -31 5 -33 23 -4 27 4 52 15 52 5 0 19 -7 31 -16z"/>
<path d="M9175 2441 c-3 -5 -1 -12 5 -16 5 -3 10 1 10 9 0 18 -6 21 -15 7z"/>
<path d="M10004 2417 c-2 -7 -3 -33 -2 -58 l3 -44 -42 3 c-39 3 -44 1 -53 -23
-6 -15 -8 -31 -4 -36 3 -5 28 -9 56 -9 l51 0 -6 -32 c-3 -18 -7 -39 -9 -46 -1
-8 4 -19 14 -25 12 -8 20 -8 32 2 12 10 14 24 9 57 l-6 44 52 0 c47 0 51 2 51
24 0 32 -22 48 -62 44 l-33 -3 -3 58 c-3 49 -6 57 -23 57 -11 0 -22 -6 -25
-13z"/>
<path d="M10906 2411 c-11 -12 -16 -31 -14 -53 3 -32 2 -33 -37 -38 -37 -5
-40 -8 -43 -37 -3 -29 0 -33 22 -33 13 0 26 6 29 13 3 9 9 8 22 -4 13 -13 15
-21 6 -36 -8 -16 -5 -27 12 -51 12 -18 29 -31 37 -29 11 2 15 16 15 52 0 49 1
50 33 53 24 2 36 11 47 32 8 16 15 32 15 36 0 4 -20 4 -45 2 -29 -4 -45 -2
-46 6 -1 6 -2 31 -3 56 -1 32 -6 45 -17 48 -8 1 -23 -6 -33 -17z"/>
<path d="M8760 2340 c-4 -8 -4 -25 1 -38 8 -20 13 -22 51 -17 24 4 53 8 65 11
12 2 34 -1 49 -6 34 -13 56 3 52 39 l-3 26 -103 0 c-83 0 -105 -3 -112 -15z"/>
<path d="M10547 2353 c-14 -13 -7 -31 14 -36 17 -5 20 -12 17 -43 -3 -33 -7
-39 -35 -46 -29 -8 -33 -13 -33 -43 0 -19 5 -35 11 -35 6 0 25 11 43 25 18 14
35 25 38 25 3 0 8 -9 11 -20 7 -29 34 -35 57 -15 26 24 25 48 -2 60 -15 7 -23
19 -23 35 0 18 10 30 40 47 22 12 40 28 40 35 0 8 -15 14 -35 16 -23 2 -38 -2
-46 -12 -10 -14 -13 -15 -24 -1 -13 15 -61 21 -73 8z"/>
<path d="M9376 2322 c-4 -3 -43 -6 -88 -6 -80 -1 -82 -1 -89 -28 -5 -18 -3
-31 4 -35 16 -10 220 -4 231 7 4 5 0 20 -10 34 -21 27 -39 38 -48 28z"/>
<path d="M8753 2245 c-3 -9 -1 -21 4 -26 5 -5 61 -8 129 -7 111 3 119 4 119
23 0 19 -8 20 -123 23 -105 2 -123 0 -129 -13z"/>
<path d="M9850 2150 c0 -5 5 -10 10 -10 6 0 10 5 10 10 0 6 -4 10 -10 10 -5 0
-10 -4 -10 -10z"/>
<path d="M8710 2095 c0 -8 5 -15 10 -15 6 0 10 7 10 15 0 8 -4 15 -10 15 -5 0
-10 -7 -10 -15z"/>
<path d="M11100 2076 c0 -9 7 -16 16 -16 9 0 14 5 12 12 -6 18 -28 21 -28 4z"/>
<path d="M10518 2002 c25 -27 27 -28 30 -10 2 11 2 21 0 23 -2 2 -15 6 -30 10
l-28 7 28 -30z"/>
<path d="M8700 2010 c0 -5 7 -10 16 -10 8 0 12 5 9 10 -3 6 -10 10 -16 10 -5
0 -9 -4 -9 -10z"/>
<path d="M9996 1985 c-10 -15 -15 -29 -12 -32 8 -8 67 30 63 42 -7 21 -35 15
-51 -10z"/>
<path d="M8350 1990 c0 -5 5 -10 10 -10 6 0 10 5 10 10 0 6 -4 10 -10 10 -5 0
-10 -4 -10 -10z"/>
<path d="M9440 1990 c0 -5 5 -10 10 -10 6 0 10 5 10 10 0 6 -4 10 -10 10 -5 0
-10 -4 -10 -10z"/>
<path d="M8046 1972 c-9 -14 21 -35 40 -28 8 3 14 12 12 19 -6 15 -44 22 -52
9z"/>
<path d="M8445 1960 c3 -5 10 -10 16 -10 5 0 9 5 9 10 0 6 -7 10 -16 10 -8 0
-12 -4 -9 -10z"/>
<path d="M10983 1963 c9 -2 23 -2 30 0 6 3 -1 5 -18 5 -16 0 -22 -2 -12 -5z"/>
<path d="M10057 1947 c-3 -8 -1 -20 4 -28 6 -10 9 -7 9 14 0 29 -5 35 -13 14z"/>
<path d="M9917 1936 c-6 -15 1 -26 15 -26 11 0 10 27 -1 34 -5 3 -11 0 -14 -8z"/>
<path d="M1565 1340 c-7 -12 2 -30 16 -30 5 0 9 9 9 20 0 21 -15 27 -25 10z"/>
<path d="M8126 1272 c-3 -6 -1 -14 5 -17 15 -10 25 3 12 16 -7 7 -13 7 -17 1z"/>
<path d="M9900 1134 c0 -8 5 -12 10 -9 6 4 8 11 5 16 -9 14 -15 11 -15 -7z"/>
<path d="M1480 1060 c0 -5 4 -10 9 -10 6 0 13 5 16 10 3 6 -1 10 -9 10 -9 0
-16 -4 -16 -10z"/>
<path d="M9671 1036 c-9 -11 -6 -17 14 -30 22 -14 26 -24 23 -54 -3 -32 -7
-38 -36 -47 -21 -6 -35 -17 -38 -32 -8 -29 2 -43 30 -43 29 0 46 18 46 48 0
32 24 23 28 -10 4 -31 26 -42 53 -28 23 13 24 29 4 56 -21 28 -19 71 4 77 21
5 33 51 18 66 -17 17 -34 13 -40 -9 -3 -11 -10 -20 -16 -20 -6 0 -15 9 -21 20
-12 23 -52 27 -69 6z"/>
<path d="M7860 841 c-5 -11 -10 -32 -10 -46 0 -15 -7 -33 -15 -41 -9 -9 -15
-34 -15 -59 0 -24 -8 -57 -17 -74 -12 -20 -15 -33 -8 -40 6 -6 47 -11 91 -12
70 -1 85 1 112 21 l31 23 -1 108 c0 72 -4 111 -12 118 -7 6 -42 13 -79 16 -59
5 -67 3 -77 -14z m129 -55 c2 -11 -5 -26 -15 -33 -21 -16 -70 -17 -79 -2 -4 5
-4 21 -1 35 6 23 11 25 49 22 32 -2 43 -8 46 -22z m-11 -99 c35 -27 -6 -57
-79 -57 -34 0 -39 3 -39 23 0 29 46 58 80 50 14 -3 31 -10 38 -16z"/>
<path d="M1353 788 c-11 -13 -24 -33 -28 -45 -3 -13 -10 -23 -15 -23 -4 0 -13
-12 -19 -27 -11 -29 -17 -39 -60 -106 -20 -32 -22 -41 -13 -62 6 -14 18 -25
25 -25 8 0 22 19 33 41 10 23 24 47 30 54 6 6 28 9 48 7 33 -4 36 -7 36 -37 0
-37 8 -65 20 -65 4 0 17 8 28 19 23 20 30 69 12 87 -6 6 -14 51 -17 100 -3 49
-11 92 -17 96 -20 14 -42 8 -63 -14z m40 -90 c2 -7 1 -23 -4 -35 -6 -16 -17
-23 -34 -23 -30 0 -34 24 -8 52 19 21 39 23 46 6z"/>
<path d="M2422 757 c-19 -20 -22 -35 -22 -110 0 -84 1 -87 33 -116 17 -17 40
-31 51 -31 10 0 36 18 57 40 37 38 39 43 39 106 0 50 -5 75 -21 100 -19 31
-25 34 -68 34 -37 0 -52 -5 -69 -23z m96 -115 c-2 -39 -8 -58 -20 -66 -45 -28
-71 82 -33 140 l18 28 19 -24 c14 -18 18 -36 16 -78z"/>
<path d="M1707 483 c-11 -10 -8 -43 3 -43 15 0 24 30 13 41 -5 5 -12 6 -16 2z"/>
<path d="M8002 430 c0 -14 2 -19 5 -12 2 6 2 18 0 25 -3 6 -5 1 -5 -13z"/>
<path d="M2110 430 c0 -5 5 -10 10 -10 6 0 10 5 10 10 0 6 -4 10 -10 10 -5 0
-10 -4 -10 -10z"/>
</g>
</svg>
