<?xml version="1.0" standalone="no"?>
<!DOCTYPE svg PUBLIC "-//W3C//DTD SVG 20010904//EN"
 "http://www.w3.org/TR/2001/REC-SVG-20010904/DTD/svg10.dtd">
<svg version="1.0" xmlns="http://www.w3.org/2000/svg"
 width="756.000000pt" height="392.000000pt" viewBox="0 0 756.000000 392.000000"
 preserveAspectRatio="xMidYMid meet">
<g transform="translate(0.000000,392.000000) scale(0.100000,-0.100000)"
fill="#ffffff" stroke="none">
<path d="M4402 3821 c-8 -4 -140 -9 -295 -11 -301 -3 -306 -3 -467 -19 -58 -6
-253 -13 -435 -16 -533 -9 -662 -15 -676 -31 -6 -8 -19 -14 -29 -14 -10 0 -21
-7 -24 -16 -4 -9 -13 -14 -21 -10 -9 3 -18 -1 -21 -9 -4 -8 -13 -15 -21 -15
-8 0 -29 -10 -46 -23 -40 -28 -60 -40 -117 -70 -86 -45 -155 -84 -223 -126
-37 -22 -72 -41 -77 -41 -6 0 -10 -4 -10 -10 0 -5 -6 -10 -14 -10 -7 0 -41
-18 -74 -40 -33 -22 -64 -40 -70 -40 -5 0 -15 -7 -22 -15 -7 -8 -21 -15 -31
-15 -11 0 -19 -4 -19 -10 0 -5 -11 -12 -25 -16 -14 -3 -25 -10 -25 -15 0 -5
-7 -9 -17 -9 -9 0 -31 -11 -49 -25 -18 -14 -37 -25 -42 -25 -5 0 -15 -7 -22
-15 -7 -8 -21 -15 -31 -15 -11 0 -19 -4 -19 -8 0 -5 -17 -17 -37 -28 -21 -10
-42 -25 -46 -31 -4 -7 -16 -13 -25 -13 -9 0 -28 -9 -42 -20 -14 -11 -31 -20
-38 -20 -7 0 -15 -7 -18 -15 -4 -8 -14 -15 -24 -15 -10 0 -23 -7 -30 -15 -7
-8 -16 -15 -20 -15 -11 0 -153 -81 -160 -90 -3 -4 -32 -22 -65 -39 -33 -18
-82 -46 -110 -62 -27 -16 -59 -34 -70 -39 -23 -11 -58 -33 -65 -40 -3 -3 -23
-14 -45 -25 -22 -10 -47 -24 -55 -31 -8 -7 -42 -27 -75 -44 -33 -18 -67 -41
-77 -51 -9 -10 -21 -19 -27 -19 -6 0 -29 -11 -51 -25 -22 -14 -42 -25 -45 -25
-4 0 -21 -11 -39 -25 -18 -14 -38 -25 -44 -25 -6 0 -17 -7 -25 -15 -13 -12
-14 -56 -11 -282 2 -148 6 -356 9 -463 4 -107 8 -244 9 -305 2 -60 4 -279 5
-485 1 -206 5 -381 10 -389 7 -11 13 -12 23 -4 9 8 128 13 353 16 187 3 383 7
435 10 52 3 214 9 360 12 146 4 297 11 335 15 39 5 143 10 231 10 131 0 164 3
174 15 7 8 19 15 28 15 8 0 40 17 71 38 31 21 72 46 91 55 19 10 58 31 85 48
28 17 58 33 68 36 9 3 17 9 17 14 0 5 7 9 15 9 16 0 77 39 83 53 2 4 10 7 19
7 8 0 29 10 46 23 43 31 54 36 222 124 17 9 32 19 35 23 3 3 12 9 20 13 8 3
38 20 65 37 28 17 58 33 68 36 9 4 17 10 17 15 0 5 7 9 17 9 9 0 31 11 49 25
18 14 37 25 42 25 5 0 15 7 22 15 7 8 21 15 30 15 10 0 20 3 22 8 4 9 107 72
119 72 5 0 9 5 9 10 0 6 5 10 10 10 6 0 36 17 68 39 31 21 85 53 120 70 34 17
62 36 62 41 0 6 8 10 18 10 10 0 22 4 27 9 6 5 37 24 70 41 33 18 62 35 65 39
3 3 23 15 45 25 22 11 54 29 70 41 17 12 58 35 92 52 34 17 75 40 90 50 15 11
35 23 43 26 8 4 29 16 45 27 17 11 37 23 45 27 8 3 27 15 42 25 14 10 31 18
38 18 6 0 30 17 51 37 l40 38 -6 643 c-2 354 -8 648 -11 653 -10 16 -36 -13
-30 -33 2 -12 -2 -22 -11 -25 -13 -5 -14 -31 -10 -192 4 -102 9 -376 12 -607
6 -377 5 -422 -9 -427 -9 -4 -16 -12 -16 -20 0 -7 -20 -24 -45 -36 -25 -12
-45 -27 -45 -32 0 -5 -6 -9 -14 -9 -19 0 -132 -60 -156 -82 -11 -10 -26 -18
-34 -18 -8 0 -18 -5 -21 -10 -3 -5 -14 -10 -23 -10 -9 -1 -33 -14 -52 -30 -19
-17 -40 -30 -46 -30 -7 0 -14 -3 -16 -7 -4 -9 -66 -43 -78 -43 -5 0 -21 -11
-36 -25 -15 -14 -33 -25 -41 -25 -7 0 -31 -11 -53 -25 -22 -14 -44 -25 -49
-25 -5 0 -14 -6 -20 -14 -7 -8 -36 -26 -66 -40 -30 -14 -63 -34 -73 -44 -11
-11 -41 -30 -68 -43 -26 -13 -59 -34 -72 -46 -14 -13 -33 -23 -43 -23 -11 0
-19 -4 -19 -10 0 -5 -6 -10 -13 -10 -7 0 -31 -13 -53 -30 -21 -16 -45 -30 -51
-30 -7 0 -13 -4 -13 -10 0 -5 -8 -10 -19 -10 -10 0 -24 -7 -31 -15 -7 -8 -17
-15 -22 -15 -5 0 -24 -11 -42 -25 -18 -14 -37 -25 -43 -25 -16 0 -73 -31 -73
-39 0 -4 -30 -23 -67 -41 -38 -18 -82 -44 -100 -57 -17 -12 -39 -23 -47 -23
-9 0 -16 -3 -16 -7 0 -5 -29 -24 -65 -42 -36 -19 -65 -39 -65 -43 0 -4 -7 -8
-15 -8 -9 0 -43 -18 -76 -40 -33 -22 -66 -40 -74 -40 -7 0 -15 -3 -17 -7 -1
-5 -21 -17 -43 -28 -22 -11 -54 -30 -71 -42 -17 -13 -34 -23 -38 -23 -3 0 -25
-14 -48 -30 -23 -17 -42 -29 -44 -27 -1 1 -4 308 -5 682 -1 374 -3 683 -5 686
-2 4 -6 112 -9 242 l-4 235 26 7 c15 3 40 16 57 28 32 23 53 35 127 73 26 13
52 31 59 39 7 8 20 15 30 15 10 0 23 7 30 15 7 8 17 15 23 15 6 0 19 8 29 17
18 16 18 15 12 -41 -7 -57 -7 -58 17 -54 20 2 25 10 27 39 2 23 -3 42 -12 52
-20 19 -21 37 -3 37 21 0 76 29 128 67 26 18 53 33 62 33 8 0 20 7 27 15 7 8
18 15 25 15 7 0 18 6 24 14 7 8 35 26 64 41 84 42 112 58 117 65 3 3 31 18 63
33 32 15 60 34 63 42 4 8 12 15 19 15 16 0 159 80 163 91 2 5 10 9 17 9 14 0
77 37 105 62 9 8 32 22 53 31 38 18 46 34 25 55 -8 8 -17 8 -30 1 -11 -6 -31
-8 -44 -5 -17 5 -26 2 -30 -9 -4 -8 -1 -22 6 -30 10 -12 9 -15 -9 -15 -11 0
-21 -4 -21 -9 0 -5 -12 -14 -27 -20 -16 -5 -55 -26 -88 -46 -33 -19 -71 -41
-85 -47 -14 -7 -29 -18 -33 -25 -4 -7 -17 -13 -27 -13 -11 0 -20 -4 -20 -10 0
-5 -7 -10 -15 -10 -8 0 -15 -4 -15 -10 0 -5 -8 -10 -19 -10 -10 0 -24 -7 -31
-15 -7 -8 -18 -15 -25 -15 -7 0 -18 -7 -25 -15 -7 -8 -19 -15 -27 -15 -7 0
-26 -11 -41 -25 -15 -14 -34 -25 -44 -25 -9 0 -19 -4 -22 -9 -3 -5 -34 -23
-68 -41 -35 -18 -77 -43 -95 -56 -17 -13 -36 -24 -41 -24 -4 0 -19 -11 -32
-25 -12 -13 -27 -22 -32 -19 -4 3 -7 24 -6 47 3 37 0 42 -21 45 -23 4 -23 2
-20 -60 4 -59 3 -63 -18 -66 -13 -2 -23 -7 -23 -11 0 -4 -19 -16 -42 -27 -24
-10 -57 -29 -74 -41 -17 -13 -38 -23 -47 -23 -10 0 -17 -4 -17 -9 0 -5 -10
-13 -22 -17 -12 -3 -45 -22 -74 -40 -29 -19 -57 -34 -62 -34 -5 0 -15 -6 -21
-13 -8 -11 -81 -15 -328 -20 -175 -4 -333 -11 -352 -17 -19 -5 -149 -10 -290
-10 -141 -1 -274 -5 -296 -10 -43 -10 -535 -19 -535 -9 0 3 21 15 48 28 67 31
126 65 130 74 2 4 10 7 17 7 15 0 108 59 113 72 2 4 12 8 22 8 9 0 23 7 30 15
7 8 18 15 26 15 7 0 25 11 40 25 15 14 33 25 41 25 7 0 31 11 53 25 22 14 42
25 45 25 4 0 21 10 38 23 18 13 50 32 72 43 22 10 45 24 50 31 14 16 83 53
100 53 8 0 18 6 22 13 9 14 41 35 66 43 9 4 17 10 17 15 0 5 8 9 18 9 10 0 23
5 29 11 12 12 20 17 115 68 35 19 77 45 94 57 17 13 37 24 45 24 8 0 26 11 41
25 15 14 34 25 42 25 8 0 18 4 21 10 9 14 66 39 100 42 24 2 31 8 33 31 3 21
9 27 28 27 13 0 24 5 24 10 0 6 7 10 16 10 9 0 43 18 76 40 33 22 67 40 74 40
8 0 14 5 14 10 0 6 8 10 18 10 9 1 33 14 52 30 19 17 40 30 47 30 7 0 13 5 13
10 0 6 8 10 19 10 10 0 24 7 31 15 7 9 19 14 26 11 8 -3 17 0 21 7 10 16 59
47 74 47 7 0 27 11 45 25 18 14 38 25 44 25 6 0 13 7 16 15 4 8 12 15 20 15 8
0 22 4 32 9 61 30 96 35 287 38 110 2 241 8 290 14 50 6 275 15 500 20 226 5
484 13 575 17 91 5 171 6 177 4 20 -6 5 -22 -21 -22 -12 0 -33 -11 -46 -25
-13 -14 -30 -23 -36 -21 -7 3 -18 -2 -24 -10 -7 -8 -18 -14 -26 -14 -14 0 -77
-38 -106 -64 -10 -9 -23 -16 -28 -16 -6 0 -29 -12 -51 -26 -23 -14 -75 -44
-116 -65 -41 -22 -90 -51 -108 -64 -17 -14 -38 -25 -44 -25 -7 0 -25 -9 -41
-20 -15 -11 -39 -24 -54 -30 -14 -5 -26 -14 -26 -20 0 -5 -9 -10 -20 -10 -26
0 -26 -27 0 -35 13 -4 43 7 89 34 38 23 74 41 81 41 6 0 13 7 16 15 4 8 13 15
21 15 9 0 42 18 75 40 33 22 67 40 74 40 8 0 14 5 14 10 0 6 8 10 19 10 10 0
24 7 31 15 7 8 18 15 24 15 7 0 23 11 36 25 13 14 31 25 39 26 9 0 36 14 61
30 25 16 69 40 98 54 28 14 52 30 52 35 0 6 6 10 13 10 7 0 24 11 39 25 15 14
31 25 35 25 4 0 7 -91 5 -202 -3 -174 -1 -203 12 -210 9 -5 16 -15 16 -22 0
-16 27 -29 35 -17 2 5 0 22 -5 37 -5 16 -11 112 -14 214 -4 196 -5 202 -12
238 -5 23 -19 28 -42 13z m-2286 -1453 c-1 -46 1 -231 3 -411 3 -292 2 -330
-13 -346 -24 -27 -19 -41 15 -41 24 0 29 -3 21 -13 -6 -7 -11 -37 -12 -67 -2
-107 10 -776 15 -832 l5 -57 -303 -4 c-405 -5 -1088 -26 -1107 -33 -8 -3 -108
-8 -222 -11 -171 -5 -208 -3 -212 8 -3 8 -7 388 -10 844 -3 457 -8 862 -11
901 -6 69 -5 72 21 89 22 14 28 15 40 3 11 -11 30 -12 87 -7 39 4 178 8 307 9
129 0 321 7 425 15 105 8 289 15 410 16 121 0 245 4 275 9 30 4 103 8 161 9
l105 1 0 -82z"/>
<path d="M1990 1551 c0 -5 -10 -13 -22 -17 -29 -8 -37 -21 -31 -45 3 -11 14
-19 27 -19 26 0 91 63 82 79 -9 13 -56 15 -56 2z"/>
<path d="M1860 1470 c-8 -5 -23 -11 -32 -14 -12 -4 -18 -16 -18 -36 0 -31 9
-36 38 -21 9 5 25 12 35 15 13 4 17 14 15 33 -3 29 -15 36 -38 23z"/>
<path d="M1693 1378 c-45 -12 -59 -68 -17 -68 21 0 96 49 90 59 -9 14 -39 18
-73 9z"/>
<path d="M1528 1282 c-16 -10 -28 -23 -28 -29 0 -7 11 -15 25 -19 29 -7 88 24
93 49 3 13 -4 17 -30 16 -18 0 -45 -8 -60 -17z"/>
<path d="M1410 1211 c0 -5 -9 -11 -20 -14 -14 -3 -20 -14 -20 -31 0 -15 6 -26
14 -26 21 0 81 44 84 63 3 13 -4 17 -27 17 -17 0 -31 -4 -31 -9z"/>
<path d="M1286 1135 c-8 -8 -22 -15 -31 -15 -8 0 -18 -7 -22 -16 -6 -17 6 -46
23 -51 5 -1 27 13 48 32 34 29 38 35 27 49 -17 20 -26 20 -45 1z"/>
<path d="M1140 1055 c-7 -8 -21 -15 -31 -15 -15 0 -19 -7 -19 -35 0 -24 5 -35
14 -35 8 0 18 5 21 11 4 5 18 14 32 20 19 7 24 15 21 36 -4 32 -20 40 -38 18z"/>
<path d="M975 955 c-44 -23 -50 -32 -35 -50 14 -17 50 -21 50 -4 0 5 14 15 31
21 19 7 29 16 27 27 -4 22 -37 25 -73 6z"/>
<path d="M834 876 c-3 -9 -12 -16 -20 -16 -15 0 -17 -10 -8 -34 8 -22 27 -20
49 4 10 11 24 20 32 20 8 0 13 7 11 18 -4 23 -56 29 -64 8z"/>
<path d="M700 795 c-7 -8 -21 -15 -32 -15 -14 0 -19 -6 -16 -22 2 -18 9 -22
27 -20 37 4 91 41 84 58 -7 18 -47 18 -63 -1z"/>
<path d="M573 720 c-4 -14 -11 -19 -23 -15 -9 3 -23 -1 -29 -9 -9 -11 -10 -20
-1 -35 13 -25 28 -27 36 -6 4 8 14 15 25 15 10 0 23 9 29 21 9 15 8 24 -1 35
-16 20 -30 18 -36 -6z"/>
<path d="M418 634 c-29 -15 -52 -47 -41 -58 13 -13 40 -5 73 22 20 17 30 33
26 40 -9 16 -25 15 -58 -4z"/>
<path d="M4873 3743 c-7 -2 -13 -13 -13 -24 0 -14 7 -19 25 -19 20 0 25 5 25
25 0 24 -11 29 -37 18z"/>
<path d="M6175 3740 c4 -6 11 -8 16 -5 14 9 11 15 -7 15 -8 0 -12 -5 -9 -10z"/>
<path d="M6880 3700 c0 -23 13 -26 29 -6 9 11 8 15 -5 20 -23 9 -24 8 -24 -14z"/>
<path d="M6116 3664 c-9 -22 -8 -24 9 -24 8 0 15 6 15 14 0 22 -17 28 -24 10z"/>
<path d="M2537 3623 c-14 -13 -7 -81 9 -94 33 -27 64 21 50 77 -5 17 -13 24
-30 24 -12 0 -26 -3 -29 -7z"/>
<path d="M2535 3468 c-2 -7 -3 -28 -2 -47 4 -68 67 -64 67 5 0 23 -6 37 -19
44 -26 13 -41 13 -46 -2z"/>
<path d="M2542 3308 c-6 -6 -12 -20 -12 -30 0 -21 30 -58 47 -58 15 0 26 38
21 71 -3 27 -36 37 -56 17z"/>
<path d="M4437 3294 c-4 -4 -7 -16 -7 -26 0 -13 7 -18 26 -18 21 0 25 4 22 22
-3 23 -27 35 -41 22z"/>
<path d="M2536 3152 c-7 -12 19 -95 31 -99 19 -7 34 25 31 64 -3 33 -7 38 -30
41 -14 2 -29 -1 -32 -6z"/>
<path d="M4795 3110 c-3 -5 1 -10 10 -10 9 0 13 5 10 10 -3 6 -8 10 -10 10 -2
0 -7 -4 -10 -10z"/>
<path d="M4740 3096 c0 -9 5 -16 10 -16 6 0 10 4 10 9 0 6 -4 13 -10 16 -5 3
-10 -1 -10 -9z"/>
<path d="M2277 3076 c-4 -9 -2 -18 4 -21 14 -9 51 5 46 18 -6 18 -44 20 -50 3z"/>
<path d="M2554 2997 c-3 -8 -4 -34 -2 -58 2 -36 7 -44 23 -44 18 0 20 7 20 55
0 44 -3 55 -18 58 -9 2 -20 -3 -23 -11z"/>
<path d="M4658 2959 c-10 -10 -18 -22 -18 -26 0 -3 -11 -21 -25 -39 -14 -18
-25 -42 -25 -53 0 -12 -4 -21 -10 -21 -5 0 -10 -7 -10 -15 0 -11 12 -15 50
-15 49 0 50 0 50 -31 0 -20 4 -29 13 -27 6 3 14 15 15 29 2 13 8 29 13 36 7 7
6 14 -1 18 -8 5 -11 34 -8 84 2 61 0 76 -12 78 -8 1 -23 -7 -32 -18z m12 -104
c0 -28 -4 -35 -19 -35 -27 0 -35 29 -14 51 10 10 21 18 26 18 4 1 7 -15 7 -34z"/>
<path d="M4850 2956 c0 -13 -7 -26 -15 -30 -8 -3 -15 -17 -15 -31 0 -21 5 -25
30 -25 34 0 55 -29 46 -66 -7 -25 -25 -31 -42 -14 -14 14 -37 -13 -32 -37 4
-22 50 -29 69 -10 8 7 22 16 32 20 13 5 17 18 17 54 0 36 -5 53 -20 66 -11 9
-29 17 -40 17 -11 0 -20 3 -20 6 0 12 28 32 51 36 13 1 25 11 27 21 3 14 -4
17 -42 17 -42 0 -46 -2 -46 -24z"/>
<path d="M5146 2915 c-6 -17 -36 -21 -36 -5 0 12 -90 1 -108 -13 -10 -8 -10
-13 2 -26 11 -12 14 -28 9 -54 -3 -20 -12 -42 -19 -48 -24 -20 -15 -30 24 -27
l37 3 -1 60 c-1 60 7 78 33 68 15 -6 17 -56 4 -82 -13 -24 2 -45 26 -37 17 5
20 16 21 61 0 60 6 75 28 75 10 0 14 -12 14 -43 0 -24 -5 -48 -12 -55 -17 -17
3 -35 33 -30 23 3 24 6 21 67 -4 66 -22 101 -53 101 -9 0 -19 -7 -23 -15z"/>
<path d="M7193 2831 l-29 -29 -23 24 c-24 25 -65 32 -77 13 -4 -7 -22 -9 -50
-4 -36 5 -44 3 -53 -13 -7 -14 -7 -24 3 -37 14 -20 36 -13 36 11 0 9 6 14 13
12 8 -3 13 -32 15 -86 2 -68 0 -82 -13 -82 -8 0 -15 -7 -15 -15 0 -11 12 -15
50 -15 38 0 50 4 50 15 0 8 -4 15 -10 15 -6 0 -10 37 -10 90 0 50 4 90 8 90 5
0 18 -10 30 -23 16 -17 22 -36 22 -73 1 -40 6 -55 30 -81 25 -28 37 -33 75
-33 54 0 87 24 105 79 10 32 10 46 -2 82 -9 26 -24 49 -37 55 -13 7 -28 17
-34 23 -19 19 -55 12 -84 -18z m91 -43 c9 -12 16 -41 16 -63 0 -66 -34 -98
-84 -79 -9 3 -16 14 -16 24 0 11 -4 22 -10 25 -17 10 -11 55 11 86 25 35 61
38 83 7z"/>
<path d="M6251 2821 c-18 -11 -5 -31 20 -31 17 0 19 -8 19 -85 0 -66 -3 -87
-15 -91 -10 -4 -12 -11 -5 -23 6 -13 18 -16 44 -13 35 4 45 18 27 37 -12 14
-22 103 -12 109 7 5 60 -60 88 -108 18 -31 38 -26 41 11 3 25 -3 36 -30 57
-19 14 -54 53 -78 86 -43 60 -66 72 -99 51z"/>
<path d="M6403 2814 c-3 -9 0 -20 8 -25 7 -4 14 -22 15 -39 1 -18 7 -37 13
-43 8 -8 11 0 11 31 0 31 5 44 21 52 16 9 18 14 8 26 -16 19 -68 18 -76 -2z"/>
<path d="M6526 2790 c-30 -34 -36 -47 -36 -85 0 -38 6 -51 36 -85 29 -32 43
-40 70 -40 19 0 34 4 34 9 0 5 9 13 20 16 11 4 30 25 42 48 18 37 19 47 10 84
-6 23 -22 53 -35 67 -18 20 -34 26 -64 26 -35 0 -46 -6 -77 -40z m108 -6 c12
-5 16 -21 16 -71 0 -51 -4 -69 -17 -79 -28 -21 -59 -16 -77 11 -19 29 -21 81
-3 118 8 19 20 27 39 27 14 0 33 -3 42 -6z"/>
<path d="M6710 2815 c-6 -8 -5 -18 4 -30 9 -12 15 -15 20 -7 4 7 16 12 27 12
17 0 19 -7 19 -73 0 -51 -5 -80 -16 -96 -12 -17 -13 -26 -5 -34 8 -8 14 -8 23
1 7 7 22 12 34 12 31 0 39 17 20 39 -11 12 -16 37 -16 84 0 60 2 67 19 67 11
0 23 -4 26 -10 3 -5 13 -10 21 -10 11 0 14 8 12 28 l-3 27 -88 1 c-54 0 -91
-4 -97 -11z"/>
<path d="M4747 2780 c-7 -27 1 -50 17 -50 23 0 38 18 34 41 -4 32 -43 39 -51
9z"/>
<path d="M1470 2720 c-11 -7 -12 -14 -4 -27 15 -24 29 -26 48 -7 13 12 14 19
5 30 -13 16 -28 18 -49 4z"/>
<path d="M5972 2591 c4 -13 18 -16 19 -4 0 4 -5 9 -11 12 -7 2 -11 -2 -8 -8z"/>
<path d="M2549 2533 c-3 -26 4 -99 10 -106 4 -4 15 -5 24 -1 12 4 17 18 17 44
0 51 -8 70 -31 70 -10 0 -19 -3 -20 -7z"/>
<path d="M6816 2463 c-3 -3 -6 -14 -6 -23 0 -10 -7 -23 -15 -30 -8 -7 -15 -20
-15 -30 0 -10 -7 -23 -15 -30 -8 -7 -15 -20 -15 -30 0 -10 -6 -29 -13 -43 -12
-22 -14 -23 -24 -9 -8 14 -14 15 -34 5 -41 -19 -58 -23 -89 -16 -29 5 -30 7
-30 64 0 47 4 60 19 69 31 16 66 12 86 -10 10 -11 24 -20 32 -20 17 0 17 41 0
64 -10 13 -27 17 -71 17 -46 0 -63 -4 -81 -21 -12 -12 -25 -38 -28 -58 -8 -48
7 -110 31 -134 27 -27 104 -28 133 -2 20 18 21 18 34 0 20 -26 49 -17 53 18 2
18 11 30 23 33 14 4 18 11 13 22 -13 30 -9 55 9 59 13 3 17 -3 17 -31 0 -19 6
-40 14 -46 7 -6 11 -22 8 -36 -3 -17 0 -25 9 -26 8 0 61 -1 118 -2 84 -2 105
1 111 13 4 8 12 25 18 37 16 30 -3 41 -26 15 -9 -11 -32 -22 -49 -26 l-33 -5
0 89 c0 53 4 90 10 90 6 0 10 7 10 15 0 11 -12 15 -50 15 -36 0 -50 -4 -50
-14 0 -7 9 -16 20 -19 19 -5 21 -12 18 -89 -3 -77 -5 -83 -25 -86 -17 -3 -26
6 -42 44 -12 25 -21 52 -21 59 0 7 -7 18 -15 25 -8 7 -15 27 -15 46 0 32 -11
50 -24 37z"/>
<path d="M7105 2451 c-3 -6 4 -15 15 -21 17 -9 20 -21 20 -88 0 -44 -5 -83
-11 -89 -6 -6 -9 -16 -5 -21 6 -11 122 -23 142 -15 8 3 14 14 14 24 0 11 7 22
15 25 8 4 15 12 15 19 0 26 -22 27 -44 3 -11 -14 -36 -28 -53 -31 -33 -6 -33
-6 -33 33 l0 40 44 -6 c41 -6 44 -5 48 20 3 14 3 28 1 30 -3 2 -23 -2 -45 -10
-22 -8 -42 -14 -44 -14 -2 0 -4 18 -4 40 0 37 2 40 29 40 16 0 34 -7 41 -15
19 -23 30 -18 30 15 l0 30 -84 0 c-47 0 -87 -4 -91 -9z"/>
<path d="M6360 2404 l-23 -35 33 -34 c18 -18 43 -36 56 -39 17 -5 24 -13 24
-32 0 -36 -26 -41 -59 -10 -39 37 -53 34 -49 -11 3 -36 5 -38 49 -47 41 -8 49
-6 67 12 27 27 37 64 23 89 -5 11 -26 31 -45 44 -20 13 -36 32 -36 42 0 24 37
22 50 -3 15 -28 30 -16 30 26 l0 34 -49 0 c-46 0 -51 -3 -71 -36z"/>
<path d="M2550 2325 c0 -53 1 -56 23 -53 19 3 22 9 22 53 0 44 -3 50 -22 53
-22 3 -23 0 -23 -53z"/>
<path d="M6186 2304 c-4 -9 -1 -23 5 -30 8 -10 16 -11 30 -3 16 8 17 13 6 29
-14 24 -33 26 -41 4z"/>
<path d="M6075 2291 c-3 -5 -1 -12 5 -16 5 -3 10 1 10 9 0 18 -6 21 -15 7z"/>
<path d="M2554 2217 c-3 -8 -4 -34 -2 -58 2 -36 7 -44 23 -44 18 0 20 7 20 55
0 44 -3 55 -18 58 -9 2 -20 -3 -23 -11z"/>
<path d="M6196 2171 c-4 -5 -2 -12 3 -15 5 -4 12 -2 15 3 4 5 2 12 -3 15 -5 4
-12 2 -15 -3z"/>
<path d="M2557 2054 c-4 -4 -7 -27 -7 -51 0 -40 2 -44 23 -41 19 3 22 9 22 48
0 32 -4 46 -15 48 -9 1 -19 0 -23 -4z"/>
<path d="M4258 1929 c-10 -5 -18 -16 -18 -23 0 -20 27 -27 67 -20 28 5 33 11
31 28 -2 15 -11 22 -33 23 -16 2 -38 -2 -47 -8z"/>
<path d="M3474 1906 c-15 -12 -17 -18 -8 -33 7 -11 23 -18 44 -18 36 0 57 22
47 49 -8 20 -56 21 -83 2z"/>
<path d="M3610 1906 c0 -35 13 -46 51 -46 28 0 41 5 49 19 5 11 10 24 10 30 0
7 -23 11 -55 11 -41 0 -55 -4 -55 -14z"/>
<path d="M3766 1912 c-2 -4 2 -15 9 -25 10 -14 24 -17 57 -15 36 2 44 7 46 26
3 20 0 22 -52 22 -30 0 -57 -3 -60 -8z"/>
<path d="M3922 1903 c3 -15 14 -18 58 -18 44 0 55 3 58 18 3 15 -5 17 -58 17
-53 0 -61 -2 -58 -17z"/>
<path d="M4077 1914 c-3 -3 -3 -12 0 -20 3 -10 22 -14 58 -14 36 0 55 4 58 14
3 8 3 17 0 20 -4 3 -30 6 -58 6 -28 0 -54 -3 -58 -6z"/>
<path d="M2548 1875 c-21 -27 -23 -61 -6 -71 6 -4 16 0 23 9 7 10 22 17 34 17
14 0 21 6 21 18 0 19 -29 52 -46 52 -5 0 -17 -11 -26 -25z"/>
<path d="M2836 1884 c-3 -8 -2 -24 4 -34 7 -14 19 -17 47 -15 43 4 69 31 52
52 -6 7 -31 13 -54 13 -30 0 -45 -5 -49 -16z"/>
<path d="M2994 1885 c-10 -26 10 -36 62 -33 41 3 49 6 49 23 0 17 -8 20 -53
23 -41 2 -54 0 -58 -13z"/>
<path d="M3150 1875 c0 -24 3 -25 55 -25 52 0 55 1 55 25 0 24 -3 25 -55 25
-52 0 -55 -1 -55 -25z"/>
<path d="M3304 1885 c-10 -26 10 -36 62 -33 41 3 49 6 49 23 0 17 -8 20 -53
23 -41 2 -54 0 -58 -13z"/>
<path d="M2686 1868 c-3 -13 -2 -26 3 -31 5 -5 26 -7 47 -5 34 3 39 6 42 31 3
26 1 27 -41 27 -38 0 -46 -3 -51 -22z"/>
<path d="M2401 1785 c-40 -34 -40 -55 -1 -55 17 0 30 4 30 9 0 5 12 12 26 15
19 5 25 12 22 29 -4 32 -40 33 -77 2z"/>
<path d="M2253 1698 c-18 -13 -31 -27 -29 -33 4 -15 36 -18 60 -7 11 6 29 13
39 16 9 3 17 15 17 26 0 15 -7 20 -28 20 -15 0 -42 -10 -59 -22z"/>
<path d="M4136 1551 c-4 -5 -2 -12 3 -15 5 -4 12 -2 15 3 4 5 2 12 -3 15 -5 4
-12 2 -15 -3z"/>
<path d="M3416 1491 c-4 -5 -2 -12 3 -15 5 -4 12 -2 15 3 4 5 2 12 -3 15 -5 4
-12 2 -15 -3z"/>
<path d="M3428 1155 c-16 -13 -28 -28 -28 -34 0 -20 21 -22 46 -6 14 9 27 15
30 13 2 -2 5 -15 6 -28 2 -18 -4 -28 -19 -35 -13 -5 -23 -13 -23 -18 0 -4 11
-12 25 -17 25 -10 30 -25 19 -54 -8 -20 -28 -20 -48 -1 -13 14 -16 13 -26 -6
-17 -31 -5 -49 33 -49 23 0 41 8 57 25 22 24 24 33 22 113 -2 75 -5 89 -23
105 -12 9 -26 17 -33 17 -6 0 -23 -12 -38 -25z"/>
<path d="M3663 1170 c-25 -10 -40 -47 -24 -63 7 -7 16 -5 31 8 16 14 25 16 37
9 9 -5 15 -13 14 -17 -1 -4 -4 -20 -7 -37 -4 -16 -10 -30 -15 -30 -5 0 -9 -5
-9 -10 0 -6 -12 -21 -27 -34 -17 -15 -24 -29 -20 -39 5 -13 16 -15 59 -11 72
8 78 10 78 34 0 18 -4 20 -34 15 -18 -4 -36 -3 -39 2 -3 5 7 17 24 27 19 11
29 25 29 41 0 13 4 27 10 30 15 9 -20 73 -44 79 -27 7 -36 7 -63 -4z"/>
<path d="M2734 1135 c-4 -9 -2 -21 4 -27 15 -15 44 -1 40 19 -4 23 -36 29 -44
8z"/>
<path d="M3896 1111 c-3 -5 -14 -7 -24 -4 -10 2 -25 -3 -32 -12 -11 -13 -11
-21 -2 -35 6 -11 10 -25 8 -32 -2 -7 -7 -28 -10 -46 -6 -32 -5 -33 27 -30 23
2 31 7 28 18 -12 42 -12 82 -1 95 7 8 16 15 20 15 12 0 20 -83 8 -97 -15 -18
-1 -33 33 -33 19 0 29 5 29 14 0 8 -4 18 -10 21 -16 10 -12 71 5 85 10 8 19 9
24 4 14 -16 20 -71 9 -82 -17 -17 -1 -42 27 -42 24 0 25 2 25 60 0 71 -20 110
-56 110 -15 0 -24 -6 -24 -15 0 -8 -4 -15 -9 -15 -5 0 -14 7 -21 15 -14 17
-46 20 -54 6z"/>
<path d="M3564 975 c-8 -20 38 -58 48 -42 4 7 8 22 8 35 0 17 -6 22 -25 22
-14 0 -28 -7 -31 -15z"/>
<path d="M2980 900 c0 -5 7 -7 15 -4 8 4 15 8 15 10 0 2 -7 4 -15 4 -8 0 -15
-4 -15 -10z"/>
<path d="M2415 560 c4 -6 11 -8 16 -5 14 9 11 15 -7 15 -8 0 -12 -5 -9 -10z"/>
<path d="M1196 429 c-30 -23 -33 -49 -11 -83 15 -23 11 -56 -6 -56 -15 0 -10
-39 7 -65 23 -35 71 -34 101 2 24 28 23 54 -3 84 -19 21 -18 31 6 52 11 9 20
21 20 26 0 16 -53 61 -71 61 -9 0 -28 -9 -43 -21z m59 -49 c0 -36 -29 -33 -33
3 -3 23 0 28 15 25 12 -2 18 -12 18 -28z m3 -105 c7 -14 12 -28 12 -30 0 -3
-11 -5 -25 -5 -27 0 -41 20 -31 45 9 23 32 18 44 -10z"/>
<path d="M951 417 c-13 -6 -30 -22 -39 -34 -13 -20 -13 -23 2 -29 9 -4 25 1
35 10 10 9 27 16 39 16 17 0 22 -6 22 -26 0 -14 -11 -39 -25 -56 -14 -16 -25
-36 -25 -44 0 -8 -10 -14 -26 -14 -21 0 -25 -4 -22 -22 3 -22 7 -23 68 -20 45
3 69 9 78 20 16 22 15 42 -3 42 -8 0 -15 -4 -15 -10 0 -5 -12 -10 -26 -10
l-26 0 30 38 c16 20 32 54 36 74 5 30 3 41 -14 58 -23 23 -54 25 -89 7z"/>
<path d="M1512 378 c-6 -6 -43 -10 -86 -9 -62 2 -76 -1 -76 -13 0 -8 5 -18 10
-21 6 -3 10 -26 10 -50 0 -29 -5 -45 -15 -49 -12 -4 -13 -10 -6 -24 9 -16 16
-17 81 -8 66 9 71 11 64 30 -4 12 -7 39 -8 61 -1 34 2 40 19 40 17 0 21 -8 25
-55 5 -51 7 -55 30 -55 21 0 25 4 23 25 -6 73 -19 113 -42 127 -13 8 -22 8
-29 1z m-64 -97 c3 -46 1 -52 -15 -49 -13 2 -19 14 -21 42 -4 46 4 69 21 64 7
-3 13 -26 15 -57z"/>
<path d="M2210 285 c-16 -19 -4 -35 26 -35 19 0 24 5 24 25 0 18 -5 25 -19 25
-10 0 -24 -7 -31 -15z"/>
<path d="M1094 238 c-4 -15 -1 -25 11 -34 9 -7 23 -10 31 -7 28 10 9 63 -22
63 -7 0 -16 -10 -20 -22z"/>
<path d="M7117 163 c-4 -3 -7 -15 -7 -25 0 -13 7 -18 25 -18 18 0 25 5 25 19
0 10 -7 22 -16 25 -19 7 -19 7 -27 -1z"/>
<path d="M1253 23 c-27 -10 -11 -23 29 -23 25 0 38 4 33 9 -14 12 -48 20 -62
14z"/>
<path d="M2463 22 c-34 -5 -28 -22 7 -22 17 0 30 4 30 9 0 14 -11 18 -37 13z"/>
<path d="M3280 15 c0 -11 12 -15 42 -15 47 0 41 14 -9 23 -25 5 -33 3 -33 -8z"/>
<path d="M4388 23 c-33 -9 -18 -23 23 -23 28 0 39 4 37 13 -5 13 -32 18 -60
10z"/>
<path d="M6828 23 c-33 -8 -18 -23 23 -23 36 0 40 2 29 15 -13 15 -21 16 -52
8z"/>
<path d="M170 10 c0 -5 11 -10 25 -10 14 0 25 5 25 10 0 6 -11 10 -25 10 -14
0 -25 -4 -25 -10z"/>
<path d="M390 10 c0 -5 11 -10 25 -10 14 0 25 5 25 10 0 6 -11 10 -25 10 -14
0 -25 -4 -25 -10z"/>
<path d="M905 10 c-4 -6 20 -10 65 -10 45 0 69 4 65 10 -8 13 -122 13 -130 0z"/>
<path d="M1700 10 c0 -5 16 -10 35 -10 19 0 35 5 35 10 0 6 -16 10 -35 10 -19
0 -35 -4 -35 -10z"/>
<path d="M5580 10 c0 -5 14 -10 30 -10 17 0 30 5 30 10 0 6 -13 10 -30 10 -16
0 -30 -4 -30 -10z"/>
<path d="M6910 10 c0 -5 7 -10 15 -10 8 0 15 5 15 10 0 6 -7 10 -15 10 -8 0
-15 -4 -15 -10z"/>
<path d="M6985 10 c-4 -6 8 -10 29 -10 20 0 36 5 36 10 0 6 -13 10 -29 10 -17
0 -33 -4 -36 -10z"/>
<path d="M7090 10 c0 -5 16 -10 36 -10 21 0 33 4 29 10 -3 6 -19 10 -36 10
-16 0 -29 -4 -29 -10z"/>
</g>
</svg>
