<?xml version="1.0" standalone="no"?>
<!DOCTYPE svg PUBLIC "-//W3C//DTD SVG 20010904//EN"
 "http://www.w3.org/TR/2001/REC-SVG-20010904/DTD/svg10.dtd">
<svg version="1.0" xmlns="http://www.w3.org/2000/svg"
 width="417.000000pt" height="260.000000pt" viewBox="0 0 417.000000 260.000000"
 preserveAspectRatio="xMidYMid meet">
<g transform="translate(0.000000,260.000000) scale(0.100000,-0.100000)"
fill="#ffffff" stroke="none">
<path d="M1435 2341 c-3 -5 -2 -12 3 -15 5 -3 9 1 9 9 0 17 -3 19 -12 6z"/>
<path d="M1362 2293 c-5 -16 -13 -36 -17 -46 -6 -13 -3 -16 9 -11 14 6 16 -16
16 -215 l0 -220 -32 6 c-18 3 -46 11 -63 19 -16 7 -75 25 -130 39 -55 14 -109
30 -120 36 -19 9 -51 18 -300 88 -60 17 -119 36 -130 41 -11 5 -47 16 -80 24
-33 9 -100 28 -150 44 -122 39 -145 44 -145 32 0 -5 8 -10 18 -10 10 0 22 -4
27 -9 6 -5 57 -21 115 -36 58 -15 110 -31 115 -35 6 -4 33 -12 60 -19 28 -6
93 -25 145 -41 52 -16 149 -45 215 -65 66 -20 163 -49 215 -65 52 -17 125 -37
163 -46 37 -9 67 -20 67 -24 0 -4 -9 -15 -20 -25 -25 -22 -90 -116 -115 -165
-10 -19 -21 -37 -25 -40 -3 -3 -23 -39 -43 -80 l-36 -75 -447 0 c-347 0 -448
-3 -451 -12 -4 -10 92 -13 441 -15 l445 -3 -25 -50 c-13 -27 -34 -77 -46 -110
-12 -33 -27 -69 -34 -80 -6 -11 -22 -51 -34 -90 -13 -38 -26 -74 -30 -80 -5
-5 -18 -44 -30 -85 -13 -41 -27 -80 -31 -86 -5 -6 -18 -42 -30 -80 -12 -38
-26 -75 -31 -81 -6 -7 -7 -13 -3 -13 4 0 3 -6 -2 -12 -6 -7 -20 -47 -33 -88
-12 -41 -26 -80 -31 -87 -7 -7 -6 -14 1 -18 5 -3 13 2 16 12 3 10 11 32 17 48
7 17 12 32 12 35 0 3 3 10 7 15 3 6 13 33 21 60 20 64 84 241 101 280 8 17 24
62 36 100 13 39 26 75 30 80 4 6 15 35 25 65 9 30 23 64 29 75 7 11 25 53 40
92 15 40 32 75 37 79 5 3 7 10 4 15 -4 5 44 9 119 9 l126 0 0 -520 c0 -340 3
-520 10 -520 7 0 10 180 10 520 l0 520 420 0 c231 0 419 -3 418 -7 -1 -5 5
-24 14 -43 8 -19 21 -53 28 -75 7 -22 19 -49 25 -60 7 -11 15 -32 19 -46 3
-14 13 -43 23 -65 9 -21 17 -41 18 -44 1 -3 9 -22 18 -44 9 -21 17 -42 17 -47
0 -5 9 -28 20 -52 20 -44 65 -163 106 -282 14 -38 31 -83 38 -100 8 -16 19
-47 26 -67 6 -21 16 -38 21 -38 13 0 11 24 -3 38 -7 7 -8 12 -4 12 5 0 4 6 -1
13 -6 6 -21 44 -33 82 -12 39 -26 75 -30 80 -4 6 -18 42 -30 80 -12 39 -26 75
-30 80 -4 6 -20 44 -34 85 -15 41 -31 84 -36 95 -5 11 -21 52 -36 90 -71 189
-84 223 -103 262 -12 23 -21 45 -21 48 0 3 111 5 248 5 221 0 288 -5 342 -27
8 -4 17 -7 20 -8 3 -1 12 -4 20 -8 8 -3 56 -17 105 -31 195 -54 271 -76 290
-85 20 -10 161 -51 330 -97 50 -13 98 -28 107 -34 22 -13 38 -13 38 0 0 5 -19
14 -42 20 -24 6 -50 14 -58 19 -9 5 -63 21 -120 35 -58 15 -114 31 -125 36
-11 6 -58 21 -105 34 -161 46 -307 90 -330 99 -8 4 -49 15 -90 26 l-75 19 468
1 467 1 0 -22 c0 -19 2 -20 18 -6 9 9 31 20 47 25 l30 10 -44 21 c-54 26 -51
26 -51 5 0 -17 -29 -18 -517 -13 -507 5 -520 6 -593 29 -41 13 -79 27 -85 31
-5 4 -50 17 -100 30 -49 12 -94 26 -100 30 -5 4 -44 15 -85 25 -41 10 -81 23
-89 29 -7 6 -28 42 -46 81 -53 115 -200 259 -291 284 -50 14 -159 14 -226 0
-55 -12 -150 -63 -183 -99 -10 -11 -21 -20 -24 -20 -3 0 -5 97 -3 216 2 190 5
215 18 210 9 -3 14 -3 12 1 -2 5 -10 25 -18 46 -17 44 -25 46 -38 10z m438
-375 c109 -30 259 -177 318 -312 15 -35 9 -43 -21 -27 -21 11 -76 27 -292 87
-49 14 -97 28 -105 31 -8 3 -17 7 -20 7 -3 1 -9 4 -15 7 -5 4 -44 14 -85 24
-41 10 -81 22 -87 28 -7 5 -13 6 -13 2 0 -4 -6 -3 -12 3 -7 5 -28 13 -46 17
l-33 7 58 43 c32 23 76 48 98 55 22 7 46 17 53 23 6 5 12 7 12 4 0 -3 12 -1
28 3 26 9 130 7 162 -2z m-351 -163 c19 -4 80 -22 137 -41 57 -19 111 -34 120
-34 9 0 30 -7 47 -14 18 -8 77 -27 132 -41 55 -15 114 -33 132 -41 17 -8 35
-14 40 -14 4 0 25 -5 46 -11 35 -10 42 -17 73 -85 19 -41 34 -77 34 -80 0 -2
-184 -3 -410 -2 l-409 2 -3 189 c-2 104 -1 191 1 193 2 2 9 0 15 -5 6 -5 26
-12 45 -16z m-79 -179 l0 -184 -115 2 c-63 0 -115 3 -115 4 0 8 95 179 129
232 34 54 91 130 98 130 2 0 3 -83 3 -184z m826 -45 c5 -4 52 -19 104 -31 52
-12 109 -28 125 -36 27 -11 138 -43 208 -58 15 -4 27 -11 27 -17 0 -6 -7 -8
-16 -5 -9 3 -105 6 -214 6 l-197 1 -32 68 c-17 37 -31 71 -31 74 0 10 14 9 26
-2z"/>
<path d="M1462 2299 c20 -53 20 -60 -1 -66 -24 -6 -29 -23 -7 -23 24 0 45 38
37 68 -4 14 -13 28 -21 30 -8 3 -11 -1 -8 -9z"/>
<path d="M1504 2290 c0 -24 20 -21 24 3 2 9 -3 17 -10 17 -8 0 -14 -9 -14 -20z"/>
<path d="M942 1788 c-23 -12 -36 -43 -30 -75 5 -26 68 -32 67 -6 0 10 -3 13
-6 6 -6 -16 -25 -17 -41 -1 -12 12 -2 40 24 65 17 17 24 16 24 -3 0 -14 2 -14
16 -3 14 12 14 14 -3 20 -23 10 -24 10 -51 -3z"/>
<path d="M1016 1776 c-9 -14 -16 -36 -16 -48 0 -23 39 -83 40 -61 0 6 -4 15
-10 18 -13 8 -13 61 1 87 16 29 4 33 -15 4z"/>
<path d="M1066 1785 c-28 -29 -18 -95 15 -95 38 0 52 65 20 94 -17 16 -20 16
-35 1z m34 -47 c0 -15 -4 -29 -9 -33 -14 -8 -24 32 -16 63 5 20 8 23 16 11 5
-7 9 -26 9 -41z"/>
<path d="M1230 1790 c0 -5 5 -12 10 -15 13 -8 13 -71 0 -96 -8 -13 -7 -19 0
-19 21 0 40 66 29 98 -10 28 -39 52 -39 32z"/>
<path d="M1160 1780 c0 -5 9 -10 20 -10 11 0 20 -4 20 -10 0 -5 -5 -10 -11
-10 -8 0 -8 -4 1 -15 14 -17 5 -36 -15 -28 -8 3 -15 0 -15 -6 0 -15 47 -14 52
2 3 6 3 29 0 50 -3 31 -8 37 -28 37 -13 0 -24 -4 -24 -10z"/>
<path d="M1125 1700 c-3 -5 0 -10 7 -10 10 0 9 -3 -2 -11 -13 -9 -13 -10 0 -6
17 4 27 37 11 37 -5 0 -13 -4 -16 -10z"/>
<path d="M2196 1641 c-3 -22 -9 -46 -12 -55 -5 -13 1 -16 30 -16 25 0 36 4 36
15 0 8 5 15 12 15 6 0 9 3 6 6 -4 3 -17 -2 -31 -11 -17 -11 -27 -13 -32 -6 -9
16 5 33 21 27 8 -3 14 1 14 10 0 8 -4 13 -9 9 -17 -10 -21 12 -5 26 12 10 17
10 23 0 6 -10 10 -9 14 3 5 13 -1 16 -27 16 -31 0 -34 -3 -40 -39z"/>
<path d="M969 1653 c-13 -16 -12 -17 4 -4 9 7 17 15 17 17 0 8 -8 3 -21 -13z"/>
<path d="M1149 1653 c-13 -16 -12 -17 4 -4 9 7 17 15 17 17 0 8 -8 3 -21 -13z"/>
<path d="M2300 1561 c0 -6 4 -13 10 -16 6 -3 7 1 4 9 -7 18 -14 21 -14 7z"/>
<path d="M2750 1516 c0 -14 -4 -27 -9 -30 -5 -3 -11 -17 -13 -31 -5 -22 -2
-25 24 -25 48 0 68 16 68 55 0 24 -6 38 -19 45 -33 17 -51 12 -51 -14z m48
-15 c9 -26 8 -32 -15 -46 -32 -22 -37 -16 -23 34 13 48 24 52 38 12z"/>
<path d="M3861 1388 c8 -15 6 -20 -12 -27 -14 -5 -18 -10 -11 -15 6 -3 13 -2
16 3 3 5 16 7 29 5 12 -2 16 -2 10 2 -18 8 -16 34 2 34 8 0 15 4 15 9 0 5 -13
9 -30 9 -25 -1 -28 -3 -19 -20z"/>
<path d="M1275 1324 c-34 -36 -33 -72 2 -80 32 -9 55 5 68 40 20 56 -29 84
-70 40z m55 1 c9 -11 8 -20 -9 -44 -13 -19 -27 -28 -36 -24 -19 7 -19 18 2 54
20 33 26 35 43 14z"/>
<path d="M610 1329 c0 -6 -16 -31 -36 -55 -25 -31 -32 -44 -21 -44 8 0 21 14
29 30 7 17 16 30 20 30 4 0 3 -13 -2 -30 -7 -25 -6 -30 8 -30 14 0 18 11 20
55 1 32 -2 55 -8 55 -5 0 -10 -5 -10 -11z"/>
<path d="M649 1302 c-9 -32 -8 -44 5 -70 9 -18 21 -32 26 -32 15 0 12 16 -6
30 -18 16 -16 68 5 93 12 15 12 17 -2 17 -10 0 -21 -14 -28 -38z"/>
<path d="M835 1285 c0 -30 5 -55 10 -55 6 0 9 23 7 55 -5 71 -17 71 -17 0z"/>
<path d="M932 1328 c-17 -17 -15 -73 4 -89 14 -11 18 -10 30 6 15 20 17 38 8
73 -7 24 -24 28 -42 10z m28 -44 c0 -27 -4 -43 -10 -39 -17 11 -11 85 7 85 2
0 3 -21 3 -46z"/>
<path d="M990 1335 c0 -4 7 -19 16 -34 15 -25 15 -30 0 -59 -18 -36 -19 -42
-7 -42 5 0 14 14 21 31 15 35 4 100 -17 107 -7 2 -13 1 -13 -3z"/>
<path d="M2370 1322 c0 -10 -4 -22 -9 -27 -18 -20 -23 -55 -8 -55 9 0 17 15
21 39 3 22 10 42 15 46 12 7 9 -54 -2 -72 -11 -17 8 -16 22 1 6 7 9 20 5 29
-3 8 -1 18 5 21 17 11 0 36 -25 36 -16 0 -24 -6 -24 -18z"/>
<path d="M2439 1313 c-6 -15 -8 -42 -4 -59 6 -36 29 -61 40 -44 3 5 0 13 -8
16 -23 8 -30 52 -13 85 8 16 10 29 5 29 -5 0 -14 -12 -20 -27z"/>
<path d="M2480 1330 c0 -5 7 -10 15 -10 8 0 16 -9 17 -20 0 -11 1 -26 2 -32 1
-7 -7 -12 -16 -10 -21 3 -32 -14 -13 -21 8 -4 24 2 37 12 20 17 21 21 8 36
-12 15 -12 19 -2 23 10 3 10 7 1 18 -13 16 -49 19 -49 4z"/>
<path d="M2585 1311 c-9 -44 2 -71 30 -71 16 0 24 7 27 23 7 38 -6 72 -29 75
-16 2 -23 -4 -28 -27z m45 -20 c0 -17 -4 -32 -9 -35 -12 -8 -23 23 -16 45 10
29 25 22 25 -10z"/>
<path d="M2660 1321 c13 -25 13 -88 0 -96 -5 -3 -10 -11 -10 -18 0 -6 9 -2 21
10 24 23 29 84 9 108 -18 22 -33 18 -20 -4z"/>
<path d="M2305 1321 c-6 -11 13 -26 22 -17 4 3 1 6 -6 6 -7 0 -9 5 -6 10 3 6
4 10 1 10 -3 0 -7 -4 -11 -9z"/>
<path d="M703 1283 c4 -3 25 -6 47 -6 22 0 43 3 47 6 3 4 -18 7 -47 7 -29 0
-50 -3 -47 -7z"/>
<path d="M890 1241 c0 -12 5 -21 10 -21 6 0 10 6 10 14 0 8 -4 18 -10 21 -5 3
-10 -3 -10 -14z"/>
<path d="M2545 1250 c-3 -5 -2 -10 4 -10 6 0 7 -7 4 -17 -4 -11 -3 -14 5 -9
14 9 16 46 3 46 -6 0 -13 -4 -16 -10z"/>
<path d="M3838 1072 c-24 -40 -23 -85 2 -107 11 -10 20 -13 20 -7 0 6 -4 14
-10 17 -13 8 -13 68 1 82 6 6 9 18 7 28 -2 12 -7 9 -20 -13z"/>
<path d="M3930 1086 c0 -8 5 -18 10 -21 14 -9 12 -88 -2 -104 -11 -11 -10 -13
2 -9 8 2 21 17 28 32 15 30 5 74 -23 102 -13 14 -15 14 -15 0z"/>
<path d="M3755 1038 c-13 -43 -10 -76 8 -87 14 -9 22 -9 33 0 20 16 17 39 -5
39 -13 0 -18 7 -18 25 0 31 14 33 19 3 3 -21 4 -21 9 5 5 23 3 27 -18 27 -13
0 -25 -6 -28 -12z m45 -68 c0 -5 -6 -10 -14 -10 -8 0 -18 5 -21 10 -3 6 3 10
14 10 12 0 21 -4 21 -10z"/>
<path d="M3882 1020 c9 -28 25 -47 32 -39 8 10 -17 69 -29 69 -11 0 -12 -6 -3
-30z"/>
<path d="M3910 1040 c0 -5 5 -10 10 -10 6 0 10 5 10 10 0 6 -4 10 -10 10 -5 0
-10 -4 -10 -10z"/>
<path d="M3860 990 c0 -5 5 -10 11 -10 5 0 7 5 4 10 -3 6 -8 10 -11 10 -2 0
-4 -4 -4 -10z"/>
<path d="M3620 894 c0 -14 3 -15 18 -3 9 7 19 15 21 16 2 2 -5 3 -17 3 -14 0
-22 -6 -22 -16z"/>
<path d="M3606 861 c-3 -5 1 -11 9 -14 9 -4 12 -1 8 9 -6 16 -10 17 -17 5z"/>
<path d="M3360 500 c0 -5 5 -10 10 -10 6 0 10 5 10 10 0 6 -4 10 -10 10 -5 0
-10 -4 -10 -10z"/>
<path d="M2534 368 c-14 -22 -10 -98 4 -98 8 0 13 10 12 28 -3 48 0 63 11 56
6 -3 8 -17 5 -30 -7 -28 21 -97 36 -88 5 3 3 13 -6 23 -21 23 -20 65 0 96 17
26 7 34 -14 13 -9 -9 -12 -9 -12 0 0 15 -27 16 -36 0z"/>
<path d="M2670 371 c0 -5 7 -14 15 -21 16 -13 21 -80 6 -80 -5 0 -11 -7 -15
-15 -11 -30 15 -14 28 17 14 32 13 45 -7 86 -10 22 -27 30 -27 13z"/>
<path d="M2615 340 c-3 -5 -1 -10 4 -10 6 0 11 -8 11 -17 0 -22 17 -49 25 -41
6 6 -20 78 -29 78 -3 0 -8 -4 -11 -10z"/>
<path d="M2650 330 c0 -5 7 -10 16 -10 8 0 12 5 9 10 -3 6 -10 10 -16 10 -5 0
-9 -4 -9 -10z"/>
<path d="M2605 280 c-3 -5 -1 -10 4 -10 6 0 11 5 11 10 0 6 -2 10 -4 10 -3 0
-8 -4 -11 -10z"/>
<path d="M2616 208 c3 -5 10 -6 15 -3 13 9 11 12 -6 12 -8 0 -12 -4 -9 -9z"/>
</g>
</svg>
