<?xml version="1.0" standalone="no"?> <!DOCTYPE svg PUBLIC "-//W3C//DTD SVG 20010904//EN" "http://www.w3.org/TR/2001/REC-SVG-20010904/DTD/svg10.dtd"> <svg version="1.0" xmlns="http://www.w3.org/2000/svg" width="662.000000pt" height="292.000000pt" viewBox="0 0 662.000000 292.000000" preserveAspectRatio="xMidYMid meet"> <g transform="translate(0.000000,292.000000) scale(0.100000,-0.100000)" fill="#ffffff" stroke="none"> <path d="M1867 2553 c-8 -16 -35 -67 -61 -114 -25 -48 -46 -96 -46 -107 0 -26 65 -149 95 -182 l24 -25 -43 -66 c-65 -102 -102 -177 -91 -186 6 -4 71 -7 145 -5 l135 3 37 62 c20 34 46 84 57 110 16 37 25 47 38 43 10 -2 68 -6 128 -8 104 -3 110 -2 113 17 2 18 -29 83 -104 212 -11 18 -25 35 -33 38 -14 6 -188 9 -210 3 -8 -2 -19 6 -25 17 -96 178 -119 215 -131 215 -7 0 -20 -12 -28 -27z m73 -118 c19 -36 38 -65 44 -65 5 0 6 -3 2 -7 -11 -11 -166 -12 -172 -1 -3 4 6 23 19 40 13 18 30 48 37 66 7 17 18 32 24 32 7 0 27 -29 46 -65z m50 -132 c0 -7 -15 -36 -33 -65 -19 -29 -36 -61 -40 -70 -7 -20 -37 -25 -37 -6 0 16 -40 99 -58 120 -7 9 -12 20 -9 25 3 4 44 8 91 8 63 1 86 -3 86 -12z m168 7 l74 0 -21 -32 c-12 -18 -33 -57 -47 -85 -14 -29 -29 -53 -34 -53 -9 0 -90 154 -90 171 0 7 9 9 23 5 12 -3 55 -6 95 -6z m183 -166 c6 -8 10 -16 8 -18 -7 -7 -178 -10 -184 -4 -4 3 9 26 27 51 18 24 41 59 51 78 l18 33 34 -62 c18 -35 39 -70 46 -78z m-243 -53 c10 -6 8 -15 -11 -37 -13 -16 -34 -48 -46 -71 -12 -24 -25 -43 -30 -43 -4 0 -17 19 -27 42 -10 23 -29 55 -42 70 -13 15 -21 32 -18 37 8 12 156 13 174 2z m-188 -40 c0 -20 45 -107 61 -117 5 -3 7 -10 4 -15 -7 -11 -165 -12 -165 -1 0 4 17 40 37 79 37 70 63 93 63 54z"/> <path d="M3114 2546 c-3 -7 9 -37 25 -65 17 -29 31 -54 31 -57 0 -3 9 -19 21 -35 11 -16 37 -62 58 -102 55 -107 93 -171 105 -179 8 -5 7 -12 -1 -25 -12 -17 -79 -128 -111 -185 -15 -26 -14 -31 28 -110 24 -46 55 -104 68 -131 24 -45 26 -47 43 -31 11 10 19 21 19 26 0 5 13 28 28 51 15 23 39 65 52 92 13 28 32 61 41 75 32 47 70 115 85 151 l15 35 120 -4 c104 -4 122 -2 139 13 11 10 20 22 20 27 0 5 13 28 28 51 52 77 93 160 84 169 -5 5 -119 11 -253 13 l-244 3 -26 49 c-14 26 -36 66 -49 88 -13 22 -30 52 -37 68 l-14 27 -135 0 c-104 0 -136 -3 -140 -14z m161 -31 c33 -1 63 -2 67 -3 4 -1 -10 -30 -32 -64 -22 -33 -40 -67 -40 -75 0 -7 -6 -13 -12 -13 -7 0 -24 24 -37 53 -14 28 -33 64 -43 79 -10 14 -18 29 -18 33 0 4 12 3 28 -1 15 -5 54 -9 87 -9z m175 -145 c11 -15 20 -36 20 -45 0 -14 -3 -15 -14 -6 -9 8 -44 12 -93 10 -57 -1 -77 2 -75 11 1 6 18 36 37 66 19 30 35 58 35 62 0 4 5 13 12 20 8 8 17 -1 35 -39 12 -28 32 -63 43 -79z m22 -96 c-2 -10 -12 -30 -22 -44 -9 -14 -27 -44 -39 -67 -23 -46 -38 -54 -47 -25 -12 35 -56 122 -65 127 -5 4 -9 12 -9 18 0 9 27 12 92 10 84 -1 93 -3 90 -19z m176 13 c34 0 62 -2 62 -5 0 -14 -84 -172 -92 -172 -4 0 -14 15 -22 33 -9 17 -29 56 -45 86 -17 30 -28 58 -25 63 3 4 17 5 32 1 15 -5 55 -7 90 -6z m311 -13 c2 -2 -2 -12 -11 -21 -8 -10 -25 -40 -39 -68 -13 -27 -28 -53 -34 -57 -5 -4 -24 21 -42 55 -18 33 -37 65 -43 71 -5 5 -10 15 -10 22 0 9 24 10 88 7 48 -3 89 -7 91 -9z m-189 -50 c11 -26 29 -58 40 -73 35 -51 32 -53 -62 -53 -49 0 -90 1 -94 1 -3 1 6 16 19 34 13 17 35 56 47 85 13 28 25 52 27 52 2 0 13 -21 23 -46z m-178 -156 c3 -7 -10 -33 -27 -58 -18 -25 -38 -59 -46 -77 -10 -24 -16 -29 -26 -21 -7 6 -13 14 -13 19 0 5 -18 39 -40 75 -22 36 -40 68 -40 70 0 2 42 4 94 4 66 0 96 -4 98 -12z m-193 -55 c7 -21 26 -57 42 -80 16 -23 29 -46 29 -51 0 -6 -14 -7 -37 -1 -21 5 -64 9 -95 9 -32 0 -58 2 -58 4 0 2 16 28 35 58 20 29 38 63 41 76 9 33 28 27 43 -15z m31 -233 c-22 -35 -40 -69 -40 -76 0 -7 -6 -14 -12 -17 -8 -2 -24 18 -38 47 -14 28 -33 62 -42 76 -10 13 -18 28 -18 32 0 4 38 4 84 1 64 -4 85 -3 91 8 6 8 10 9 12 2 2 -6 -14 -39 -37 -73z"/> <path d="M402 2368 c-6 -6 -6 -20 1 -41 12 -40 13 -42 65 -115 23 -34 42 -67 42 -75 0 -7 8 -22 18 -33 10 -10 30 -45 45 -76 16 -32 33 -60 38 -64 5 -3 17 -23 26 -45 8 -21 20 -39 27 -39 13 0 56 78 56 102 0 9 8 23 18 30 19 15 42 52 42 70 1 7 14 29 30 48 17 19 30 42 30 51 0 9 9 24 20 34 11 10 20 26 20 35 0 9 14 35 31 58 17 23 29 49 26 56 -5 11 -55 14 -265 14 -159 0 -264 -4 -270 -10z m238 -42 c0 -8 -3 -16 -8 -18 -4 -1 -21 -30 -39 -63 -17 -33 -41 -66 -52 -74 -19 -12 -21 -11 -21 11 0 24 -48 109 -69 122 -27 17 -5 25 77 29 48 1 93 4 100 5 6 1 12 -4 12 -12z m230 2 c0 -13 -24 -63 -39 -81 -9 -10 -20 -32 -26 -50 -5 -17 -15 -32 -21 -34 -5 -2 -27 33 -47 77 -20 44 -37 83 -37 87 0 5 38 8 85 8 47 0 85 -3 85 -7z m-120 -231 c0 -7 -13 -28 -30 -47 -16 -19 -29 -42 -30 -51 0 -8 -6 -23 -13 -33 -11 -15 -17 -9 -55 54 -23 38 -42 75 -42 80 0 6 36 10 85 10 63 0 85 -3 85 -13z"/> <path d="M2793 2098 c2 -7 10 -13 17 -13 7 0 15 6 18 13 2 7 -5 12 -18 12 -13 0 -20 -5 -17 -12z"/> <path d="M3955 1980 c4 -6 11 -8 16 -5 14 9 11 15 -7 15 -8 0 -12 -5 -9 -10z"/> <path d="M600 1140 c0 -19 3 -21 12 -12 9 9 9 15 0 24 -9 9 -12 7 -12 -12z"/> <path d="M5727 1146 c-3 -8 -3 -39 0 -70 6 -59 25 -88 45 -68 8 8 8 15 1 24 -11 13 -16 40 -14 66 0 8 7 12 14 10 6 -3 14 -24 17 -48 3 -25 12 -47 22 -54 26 -16 33 0 19 40 -9 26 -10 39 -2 47 16 16 13 57 -4 63 -8 4 -22 1 -31 -6 -11 -10 -18 -10 -26 -2 -16 16 -35 15 -41 -2z"/> <path d="M5496 1124 c-12 -11 -13 -20 -6 -34 13 -24 13 -97 0 -105 -5 -3 -10 -13 -10 -21 0 -9 11 -14 33 -14 19 0 37 3 40 7 4 3 1 13 -5 21 -10 11 -8 17 7 28 11 7 26 18 33 24 17 15 15 76 -4 94 -20 20 -68 20 -88 0z m69 -54 c0 -13 -6 -25 -12 -27 -16 -6 -27 21 -19 43 9 23 31 11 31 -16z"/> <path d="M5626 1124 c-9 -23 -8 -24 13 -24 33 0 33 -18 1 -35 -16 -8 -30 -21 -30 -28 0 -22 23 -37 56 -37 37 0 57 19 44 40 -6 8 -10 29 -10 46 0 16 -5 35 -12 42 -17 17 -55 15 -62 -4z"/> <path d="M5876 1115 c-21 -31 -21 -79 1 -96 9 -8 41 -15 74 -15 l59 -1 -3 46 c-2 41 0 46 21 49 23 3 24 1 20 -45 -3 -45 -2 -48 22 -48 19 0 24 4 22 20 -9 51 -7 70 8 70 11 0 15 -12 15 -45 0 -40 3 -45 24 -48 23 -4 24 -3 18 53 -3 31 -11 63 -17 70 -11 14 -66 15 -88 1 -6 -3 -14 -2 -17 4 -5 8 -11 8 -20 0 -9 -7 -15 -8 -20 -1 -4 7 -12 7 -25 -2 -16 -9 -24 -9 -40 1 -11 6 -24 12 -29 12 -5 0 -16 -11 -25 -25z m94 -55 c0 -20 -8 -24 -45 -20 -51 5 -42 40 11 40 27 0 34 -4 34 -20z"/> <path d="M2452 1116 c7 -8 15 -12 17 -11 5 6 -10 25 -20 25 -5 0 -4 -6 3 -14z"/> <path d="M3586 1109 c-10 -15 -12 -27 -6 -33 6 -6 10 -29 10 -52 0 -45 11 -60 37 -50 12 5 14 9 5 18 -7 7 -12 29 -12 50 0 27 4 38 15 38 11 0 15 -12 15 -50 0 -53 13 -69 46 -56 16 6 16 8 0 24 -18 20 -22 67 -6 77 14 9 12 21 -7 40 -16 16 -17 16 -30 -1 -12 -16 -14 -17 -32 0 -18 16 -20 16 -35 -5z"/> <path d="M3378 1103 c-16 -2 -28 -7 -29 -11 0 -4 -1 -44 -2 -90 l-2 -82 29 0 c25 0 28 3 24 25 -4 20 -1 25 14 25 12 0 24 13 34 37 14 33 14 40 0 70 -9 18 -21 32 -28 32 -7 -1 -25 -4 -40 -6z m46 -49 c7 -19 -11 -57 -25 -49 -5 4 -9 19 -9 36 0 18 5 29 14 29 8 0 17 -7 20 -16z"/> <path d="M3485 1096 c-12 -9 -16 -19 -11 -31 5 -14 9 -16 18 -7 21 21 34 13 34 -23 0 -23 -5 -35 -14 -35 -9 0 -12 6 -8 16 4 11 1 14 -12 12 -11 -2 -17 -12 -17 -28 0 -22 5 -25 39 -28 21 -2 45 -1 54 3 12 4 13 8 4 17 -7 7 -12 29 -12 49 0 37 -20 69 -44 69 -7 0 -21 -6 -31 -14z"/> <path d="M3731 1084 c-25 -32 -26 -56 -5 -89 19 -29 58 -33 72 -9 8 15 10 15 15 0 4 -9 18 -16 31 -16 24 0 25 2 19 51 -6 49 -5 51 18 47 18 -2 25 -10 27 -31 2 -16 -2 -35 -8 -42 -10 -12 -9 -16 3 -20 8 -4 39 -5 68 -3 42 2 53 6 50 18 -2 8 -8 35 -12 60 -5 24 -13 48 -17 52 -5 5 -28 5 -50 -1 -25 -5 -44 -5 -48 0 -6 10 -53 1 -72 -14 -9 -7 -18 -5 -30 7 -10 9 -24 16 -30 16 -6 0 -20 -12 -31 -26z m239 -49 c0 -24 -5 -35 -15 -35 -10 0 -15 10 -15 28 0 16 3 32 7 35 15 15 23 5 23 -28z m-140 0 c0 -21 -47 -42 -67 -29 -25 15 -20 28 12 35 48 11 55 10 55 -6z"/> <path d="M2005 1049 c-4 -5 -3 -22 1 -37 4 -15 8 -43 8 -62 l1 -35 58 -2 c53 -2 72 7 46 23 -7 4 -9 25 -4 59 7 59 -2 73 -34 53 -16 -10 -23 -10 -33 0 -15 15 -35 16 -43 1z m71 -54 c4 -8 3 -27 0 -41 -6 -21 -9 -24 -21 -14 -15 13 -20 51 -8 63 11 11 23 8 29 -8z"/> <path d="M1779 1033 c-1 -5 -2 -39 -3 -78 -1 -38 -5 -78 -10 -87 -7 -15 -3 -18 27 -18 36 0 56 13 37 25 -15 9 -12 35 4 35 26 0 46 30 46 69 0 20 -5 42 -12 49 -13 13 -87 17 -89 5z m66 -63 c0 -13 -6 -25 -12 -27 -16 -6 -27 21 -19 43 9 23 31 11 31 -16z"/> <path d="M1900 1020 c-10 -18 -8 -20 19 -20 16 0 32 -4 35 -9 3 -5 -10 -16 -30 -26 -23 -11 -34 -22 -32 -33 3 -13 14 -17 53 -17 l50 0 -3 35 c-1 19 -7 47 -13 63 -9 20 -18 27 -40 27 -18 0 -32 -7 -39 -20z"/> <path d="M2155 1006 c-15 -28 -17 -41 -9 -63 9 -26 14 -28 68 -31 78 -4 88 0 76 33 -7 18 -7 33 1 46 10 19 12 20 29 4 14 -13 16 -23 10 -45 -10 -35 4 -52 35 -40 13 5 26 5 31 0 5 -5 19 -7 31 -4 20 6 21 11 16 58 -3 28 -10 56 -15 63 -9 11 -47 12 -188 3 -8 -1 -26 2 -41 5 -21 6 -28 1 -44 -29z m243 -38 c-3 -34 -20 -42 -26 -13 -5 22 5 45 18 45 7 0 10 -14 8 -32z m-148 -3 c0 -22 -4 -25 -35 -25 -19 0 -35 5 -35 10 0 6 0 13 0 18 -1 4 14 10 32 13 18 4 34 7 36 8 1 0 2 -10 2 -24z"/> <path d="M565 994 c-11 -17 -13 -29 -6 -37 5 -7 11 -30 13 -51 2 -23 10 -43 20 -50 23 -14 34 -1 21 27 -21 43 -24 60 -11 69 23 14 28 8 28 -36 0 -47 19 -72 45 -62 15 5 15 8 1 28 -18 26 -21 59 -6 74 8 8 7 19 -1 37 -7 15 -16 27 -20 27 -4 0 -11 -9 -14 -20 -7 -23 -35 -27 -35 -6 0 26 -17 26 -35 0z"/> <path d="M333 977 c-3 -5 -5 -38 -4 -73 1 -35 -3 -65 -9 -69 -17 -11 -1 -25 29 -25 34 0 44 9 30 27 -9 10 -8 13 3 13 26 0 51 38 52 79 0 22 -3 43 -6 47 -12 11 -88 12 -95 1z m73 -41 c7 -18 -14 -58 -27 -51 -10 7 -12 48 -2 58 11 11 23 8 29 -7z"/> <path d="M460 975 c-16 -19 -5 -33 23 -28 20 4 23 1 24 -31 1 -24 -4 -36 -12 -36 -8 0 -11 8 -8 21 5 17 2 20 -13 17 -14 -2 -19 -12 -19 -33 0 -29 2 -30 47 -33 l47 -3 -6 58 c-5 59 -21 83 -54 83 -9 0 -22 -7 -29 -15z"/> <path d="M730 983 c-43 -17 -53 -78 -17 -111 27 -26 55 -28 64 -6 5 15 7 15 15 0 5 -9 20 -16 33 -16 23 0 24 2 18 51 -6 49 -5 51 18 47 22 -3 24 -7 22 -49 l-3 -46 61 -1 61 -1 -7 42 c-4 23 -7 49 -7 57 -1 8 -4 20 -9 25 -4 6 -43 10 -89 10 -56 -1 -84 -6 -90 -15 -7 -11 -11 -10 -25 3 -17 18 -21 19 -45 10z m51 -51 c18 2 24 -2 24 -17 0 -15 -8 -21 -30 -23 -16 -1 -36 2 -44 7 -10 7 -11 13 -1 31 8 15 15 19 19 11 4 -6 18 -10 32 -9z m169 -18 c0 -24 -4 -34 -12 -32 -24 8 -22 68 2 68 5 0 10 -16 10 -36z"/> <path d="M5906 914 c-18 -18 -20 -26 -7 -39 6 -6 11 -39 13 -75 l3 -65 32 -3 c27 -3 35 1 45 22 6 14 14 26 18 26 4 0 12 -11 18 -24 10 -22 16 -24 81 -24 53 0 71 3 71 13 0 8 -4 17 -10 20 -20 13 -10 45 20 60 31 16 40 34 18 36 -27 3 -54 -2 -76 -13 -17 -9 -25 -9 -34 0 -19 19 -52 14 -63 -10 -14 -30 -28 -32 -40 -6 -7 16 -18 22 -33 21 -19 -2 -22 2 -22 32 0 18 -4 36 -9 40 -5 3 -17 -2 -25 -11z m67 -106 c5 -16 -10 -48 -23 -48 -6 0 -10 14 -10 30 0 19 5 30 14 30 8 0 16 -6 19 -12z m157 -24 c0 -23 -3 -25 -37 -22 -50 4 -52 31 -3 39 19 4 36 7 38 8 1 0 2 -11 2 -25z"/> <path d="M4116 891 c-4 -5 -2 -12 3 -15 5 -4 12 -2 15 3 4 5 2 12 -3 15 -5 4 -12 2 -15 -3z"/> <path d="M3763 883 c-9 -3 -11 -25 -6 -81 3 -42 10 -85 15 -94 11 -23 51 -23 69 -2 15 18 21 67 13 97 -3 10 -15 17 -29 17 -19 0 -24 6 -27 32 -3 32 -13 40 -35 31z m71 -109 c6 -17 -9 -54 -23 -54 -13 0 -22 30 -16 51 8 23 31 25 39 3z"/> <path d="M5496 847 c-15 -11 -16 -17 -5 -40 10 -21 10 -30 1 -39 -7 -7 -12 -17 -12 -24 0 -9 51 -12 208 -11 l207 2 -3 35 c-4 54 -22 90 -43 90 -11 0 -19 -5 -19 -10 0 -7 -6 -7 -18 -1 -19 10 -60 9 -78 -1 -5 -4 -16 -3 -24 3 -8 5 -21 9 -27 9 -16 0 -17 -32 -2 -47 8 -8 8 -17 -1 -33 -7 -12 -16 -18 -20 -14 -5 5 -10 27 -12 49 l-3 39 -66 3 c-41 2 -72 -2 -83 -10z m116 -79 c-9 -9 -12 -1 -11 33 l1 44 11 -33 c7 -24 7 -36 -1 -44z m-44 25 c2 -11 -3 -25 -11 -32 -12 -9 -16 -7 -21 14 -4 14 -4 30 0 36 9 15 29 5 32 -18z m222 -2 c0 -38 -16 -48 -30 -20 -14 25 -6 49 15 49 10 0 15 -10 15 -29z m65 18 c4 -5 4 -21 1 -34 -4 -16 -11 -22 -21 -19 -15 6 -21 45 -8 57 9 10 21 8 28 -4z m-125 -19 c0 -11 -4 -20 -10 -20 -5 0 -10 9 -10 20 0 11 5 20 10 20 6 0 10 -9 10 -20z"/> <path d="M2186 815 c-18 -19 -20 -31 -6 -40 6 -3 10 -31 10 -62 0 -60 -8 -67 -15 -14 -6 52 -19 61 -88 57 -34 -2 -66 -5 -72 -6 -5 -2 -18 0 -27 4 -10 5 -26 5 -35 2 -12 -5 -14 -9 -5 -18 7 -7 12 -27 12 -45 0 -22 -5 -33 -14 -33 -11 0 -16 14 -18 48 l-3 47 -71 3 c-54 1 -75 -2 -84 -13 -9 -11 -10 -19 -1 -28 7 -9 8 -24 2 -45 -5 -18 -6 -34 -2 -36 4 -3 118 -4 254 -4 l247 1 12 38 c9 31 8 44 -2 64 -9 16 -22 25 -38 25 -20 0 -23 4 -18 24 3 14 0 28 -8 35 -11 9 -18 8 -30 -4z m-286 -126 c0 -16 -4 -29 -9 -29 -11 0 -21 38 -14 56 8 22 23 6 23 -27z m173 27 c8 -21 -3 -56 -18 -56 -17 0 -27 41 -13 57 14 17 25 16 31 -1z m67 -27 c0 -18 -5 -29 -14 -29 -20 0 -30 38 -16 55 17 21 30 9 30 -26z m115 21 c7 -21 -9 -50 -26 -50 -10 0 -12 53 -2 63 12 12 22 7 28 -13z m-410 0 c8 -13 -4 -50 -16 -50 -13 0 -22 27 -15 45 6 17 22 20 31 5z m171 -16 c-3 -9 -6 -21 -6 -27 0 -16 -20 14 -20 31 0 6 7 12 16 12 11 0 14 -5 10 -16z"/> <path d="M3607 819 c-21 -3 -48 -4 -61 -2 -22 5 -23 3 -18 -47 4 -42 2 -52 -9 -48 -9 3 -15 22 -17 50 l-3 46 -75 1 c-40 0 -74 -3 -75 -7 0 -4 -2 -33 -3 -64 -2 -57 -2 -58 25 -58 26 0 27 2 26 46 -1 32 2 48 12 52 11 4 13 -5 8 -47 -6 -49 -5 -51 18 -51 23 0 24 2 18 49 -3 31 -1 51 6 55 7 5 11 -7 11 -37 0 -25 6 -49 13 -55 8 -7 62 -11 137 -11 68 0 127 2 132 5 5 3 5 11 -1 18 -5 6 -11 32 -13 56 l-3 45 -45 5 c-25 3 -62 3 -83 -1z m43 -63 c0 -42 -27 -57 -36 -21 -8 32 1 55 21 55 10 0 15 -10 15 -34z m58 -3 c-2 -21 -7 -38 -13 -38 -5 0 -11 17 -13 38 -3 29 0 37 13 37 13 0 16 -8 13 -37z m-123 -1 c0 -31 -19 -28 -23 4 -3 18 0 25 10 22 7 -3 13 -14 13 -26z"/> <path d="M4015 823 c-11 -3 -26 -10 -34 -17 -11 -8 -15 -8 -18 2 -7 18 -58 14 -76 -6 -21 -23 -22 -56 -1 -87 19 -29 58 -33 72 -9 8 15 10 15 15 0 8 -21 67 -22 67 -2 0 8 -4 18 -10 21 -5 3 -10 17 -10 31 0 17 8 27 25 34 29 11 32 25 9 34 -9 3 -16 5 -17 5 -1 -1 -11 -4 -22 -6z m-25 -72 c0 -13 -9 -21 -30 -26 -19 -4 -36 -2 -45 5 -23 19 -18 28 18 33 17 2 38 5 45 5 6 1 12 -7 12 -17z"/> <path d="M734 766 c-3 -8 0 -33 6 -56 6 -23 8 -55 5 -70 -5 -21 -1 -34 14 -49 12 -12 27 -21 35 -21 21 0 43 40 44 82 1 39 -18 64 -43 54 -12 -4 -15 3 -15 34 0 34 -3 40 -20 40 -11 0 -23 -6 -26 -14z m79 -108 c6 -19 -3 -38 -18 -38 -18 0 -26 15 -19 34 7 19 31 21 37 4z"/> <path d="M2445 763 c-11 -3 -26 -10 -33 -16 -9 -7 -16 -7 -24 1 -18 18 -56 14 -68 -7 -5 -11 -10 -38 -10 -60 0 -47 7 -50 98 -50 43 0 62 4 62 13 0 6 -5 17 -11 23 -15 15 -3 63 16 63 20 0 30 21 14 31 -8 5 -16 8 -19 8 -3 -1 -14 -4 -25 -6z m-25 -59 c0 -20 -24 -44 -44 -44 -22 0 -59 29 -40 31 23 2 58 10 63 14 6 7 21 6 21 -1z"/> <path d="M515 710 c-5 -8 -8 -34 -6 -58 1 -32 -1 -43 -11 -40 -7 3 -14 23 -16 47 -3 45 -22 62 -46 42 -9 -8 -16 -8 -20 -2 -6 8 -24 9 -86 2 -3 -1 -5 -28 -5 -61 0 -49 3 -61 18 -66 10 -3 22 -3 25 1 4 4 7 27 7 51 0 24 5 42 10 41 6 -1 10 -22 10 -47 0 -44 2 -46 35 -41 7 0 8 19 4 51 -5 34 -3 50 5 50 6 0 11 -16 11 -38 0 -21 5 -43 12 -50 7 -7 40 -12 76 -12 l64 0 -6 38 c-7 40 5 69 23 58 14 -9 14 -51 1 -77 -10 -18 -7 -19 49 -19 l60 0 -6 53 c-3 28 -10 57 -14 63 -6 7 -36 10 -81 8 -39 -2 -73 -6 -76 -9 -3 -2 -10 3 -17 12 -10 13 -14 13 -20 3z m175 -76 c0 -24 -4 -34 -12 -32 -15 5 -22 42 -14 64 10 25 26 5 26 -32z m-120 0 c0 -8 -7 -14 -15 -14 -10 0 -15 10 -15 26 0 22 2 25 15 14 8 -7 15 -19 15 -26z"/> <path d="M875 694 c-14 -15 -25 -37 -25 -49 0 -29 36 -75 59 -75 9 0 22 5 29 12 9 9 15 9 24 0 17 -17 48 -15 55 4 3 8 1 20 -6 27 -6 6 -11 21 -11 33 0 16 7 24 22 26 25 3 32 17 19 37 -8 12 -12 13 -25 1 -9 -7 -19 -10 -23 -7 -3 4 -14 2 -24 -4 -14 -7 -25 -5 -44 7 -23 15 -25 15 -50 -12z m93 -58 c-2 -14 -11 -22 -28 -24 -29 -3 -66 20 -57 35 4 6 25 10 47 10 36 0 41 -2 38 -21z"/> <path d="M5795 597 c-8 -19 -21 -37 -30 -41 -11 -4 -15 -15 -13 -33 2 -22 9 -29 31 -31 19 -2 27 -8 25 -20 -2 -11 5 -18 18 -20 17 -2 23 4 28 28 3 18 1 40 -4 50 -5 10 -9 35 -7 56 1 30 -2 39 -16 42 -12 2 -22 -7 -32 -31z m15 -53 c0 -8 -4 -12 -10 -9 -5 3 -10 10 -10 16 0 5 5 9 10 9 6 0 10 -7 10 -16z"/> <path d="M3688 586 c-10 -7 -18 -19 -18 -26 0 -9 9 -11 30 -6 17 3 30 2 30 -2 0 -4 -7 -15 -15 -26 -12 -16 -12 -21 8 -37 25 -20 17 -35 -23 -41 -14 -2 -26 -11 -28 -20 -3 -14 4 -18 31 -18 22 0 41 8 55 23 24 25 28 52 11 63 -7 4 -8 20 -4 41 7 40 -7 63 -39 63 -11 0 -29 -7 -38 -14z"/> <path d="M2106 511 c-31 -32 -22 -48 18 -30 14 7 29 9 32 6 13 -13 -7 -55 -40 -88 -19 -18 -32 -37 -30 -41 3 -4 29 -8 58 -8 35 0 58 5 66 15 18 22 3 36 -25 23 -14 -6 -28 -9 -31 -5 -3 3 4 15 16 27 30 30 42 67 30 90 -10 19 -40 40 -57 40 -5 0 -22 -13 -37 -29z"/> <path d="M1935 520 c4 -6 11 -8 16 -5 14 9 11 15 -7 15 -8 0 -12 -5 -9 -10z"/> <path d="M683 465 c-16 -17 -17 -35 -3 -35 14 0 13 -83 -1 -97 -6 -6 -8 -16 -5 -22 9 -14 63 -14 71 0 4 5 -1 19 -10 29 -14 16 -17 31 -12 80 4 51 3 60 -11 60 -10 -1 -23 -7 -29 -15z"/> <path d="M646 215 c-4 -13 -2 -14 14 -5 23 13 26 20 6 20 -8 0 -16 -7 -20 -15z"/> </g> </svg>