<svg style="font-family: 'Inter', system-ui, sans-serif;" width="240" height="100" viewBox="0 0 240 100" xmlns="http://www.w3.org/2000/svg">
    <!-- Triangle 1 -->
    <polygon points="20,80 90,80 50,20" fill="none" stroke="#ffffff" stroke-width="2"/>
    <!-- Ticks T1 -->
    <path d="M 55,83 L 55,77" stroke="#ff8888" stroke-width="2"/>
    <path d="M 32,53 L 38,49 M 34,55 L 40,51" stroke="#5ba3f5" stroke-width="2"/>
    <path d="M 67,49 L 73,53 M 69,47 L 75,51 M 71,45 L 77,49" stroke="#00ffcc" stroke-width="2"/>

    <!-- Triangle 2 -->
    <polygon points="140,80 210,80 170,20" fill="none" stroke="#ffffff" stroke-width="2"/>
    <!-- Ticks T2 -->
    <path d="M 175,83 L 175,77" stroke="#ff8888" stroke-width="2"/>
    <path d="M 152,53 L 158,49 M 154,55 L 160,51" stroke="#5ba3f5" stroke-width="2"/>
    <path d="M 187,49 L 193,53 M 189,47 L 195,51 M 191,45 L 197,49" stroke="#00ffcc" stroke-width="2"/>
</svg>