<svg style="font-family: 'Inter', system-ui, sans-serif;" viewBox="0 0 550 400" xmlns="http://www.w3.org/2000/svg">
    <style>
        .axis-line { stroke: #ffffff; stroke-width: 2; }
        .axis-label { fill: #00ffcc; font-family: sans-serif; font-size: 12px; font-weight: bold; }
        .graph-line { stroke: #00ffcc; stroke-width: 3; fill: none; }
        .grid-line { stroke: #ffffff; stroke-width: 0.5; stroke-dasharray: 3,3; opacity: 0.3; }
    </style>

    <rect x="60" y="20" width="470" height="340" fill="none" stroke="#00ffcc" stroke-width="1" opacity="0.5"/>
    <line x1="60" y1="20" x2="60" y2="360" class="axis-line"/>
    <line x1="60" y1="360" x2="530" y2="360" class="axis-line"/>

    <!-- Grid lines -->
    <line x1="157" y1="20" x2="157" y2="360" class="grid-line"/>
    <line x1="254" y1="20" x2="254" y2="360" class="grid-line"/>
    <line x1="351" y1="20" x2="351" y2="360" class="grid-line"/>
    <line x1="448" y1="20" x2="448" y2="360" class="grid-line"/>
    
    <line x1="60" y1="288" x2="530" y2="288" class="grid-line"/>
    <line x1="60" y1="216" x2="530" y2="216" class="grid-line"/>
    <line x1="60" y1="144" x2="530" y2="144" class="grid-line"/>
    <line x1="60" y1="72" x2="530" y2="72" class="grid-line"/>

    <!-- X-axis labels (Litres) -->
    <text x="60" y="380" class="axis-label" text-anchor="middle">0</text>
    <text x="157" y="380" class="axis-label" text-anchor="middle">100</text>
    <text x="254" y="380" class="axis-label" text-anchor="middle">200</text>
    <text x="351" y="380" class="axis-label" text-anchor="middle">300</text>
    <text x="448" y="380" class="axis-label" text-anchor="middle">400</text>

    <!-- Y-axis labels (Cost in Maloti) -->
    <text x="50" y="360" class="axis-label" text-anchor="end">0</text>
    <text x="50" y="288" class="axis-label" text-anchor="end">200</text>
    <text x="50" y="216" class="axis-label" text-anchor="end">400</text>
    <text x="50" y="144" class="axis-label" text-anchor="end">600</text>
    <text x="50" y="72" class="axis-label" text-anchor="end">800</text>

    <!-- Axes titles -->
    <text x="295" y="400" fill="#ffffff" font-family="sans-serif" font-size="14" text-anchor="middle">Consumption (litres)</text>
    <text x="20" y="200" fill="#ffffff" font-family="sans-serif" font-size="14" text-anchor="middle" transform="rotate(-90, 20, 200)">Cost (M)</text>

    <!-- Cost line (slope = 2 Maloti per litre) -->
    <polyline points="60,360 157,288 254,216 351,144 448,72" class="graph-line"/>
</svg>