<svg style="font-family: 'Inter', system-ui, sans-serif;" viewBox="0 0 550 400" xmlns="http://www.w3.org/2000/svg">
    <style>
        .axis-line { stroke: #ffffff; stroke-width: 2; }
        .axis-label { fill: #00ffcc; font-family: sans-serif; font-size: 12px; font-weight: bold; }
        .speed-line { stroke: #00ffcc; stroke-width: 3; fill: none; }
        .grid-line { stroke: #ffffff; stroke-width: 0.5; stroke-dasharray: 3,3; opacity: 0.3; }
    </style>

    <rect x="60" y="20" width="470" height="340" fill="none" stroke="#00ffcc" stroke-width="1" opacity="0.5"/>
    <line x1="60" y1="20" x2="60" y2="360" class="axis-line"/>
    <line x1="60" y1="360" x2="530" y2="360" class="axis-line"/>

    <!-- Grid lines -->
    <line x1="157" y1="20" x2="157" y2="360" class="grid-line"/>
    <line x1="254" y1="20" x2="254" y2="360" class="grid-line"/>
    <line x1="351" y1="20" x2="351" y2="360" class="grid-line"/>
    <line x1="448" y1="20" x2="448" y2="360" class="grid-line"/>
    
    <line x1="60" y1="288" x2="530" y2="288" class="grid-line"/>
    <line x1="60" y1="216" x2="530" y2="216" class="grid-line"/>
    <line x1="60" y1="144" x2="530" y2="144" class="grid-line"/>
    <line x1="60" y1="72" x2="530" y2="72" class="grid-line"/>

    <!-- Labels -->
    <text x="60" y="380" class="axis-label" text-anchor="middle">0</text>
    <text x="157" y="380" class="axis-label" text-anchor="middle">5</text>
    <text x="254" y="380" class="axis-label" text-anchor="middle">10</text>
    <text x="351" y="380" class="axis-label" text-anchor="middle">15</text>
    <text x="448" y="380" class="axis-label" text-anchor="middle">20</text>

    <text x="50" y="360" class="axis-label" text-anchor="end">0</text>
    <text x="50" y="288" class="axis-label" text-anchor="end">10</text>
    <text x="50" y="216" class="axis-label" text-anchor="end">20</text>
    <text x="50" y="144" class="axis-label" text-anchor="end">30</text>
    <text x="50" y="72" class="axis-label" text-anchor="end">40</text>

    <text x="295" y="400" fill="#ffffff" font-family="sans-serif" font-size="14" text-anchor="middle">Time (seconds)</text>
    <text x="20" y="200" fill="#ffffff" font-family="sans-serif" font-size="14" text-anchor="middle" transform="rotate(-90, 20, 200)">Speed (m/s)</text>

    <!-- Speed line: accelerating from 0 to 40 m/s over 10 seconds, constant for 5 seconds, decelerating to 0 over 5 seconds -->
    <polyline points="60,360 254,72 351,72 448,360" class="speed-line"/>
</svg>