<svg style="font-family: 'Inter', system-ui, sans-serif;" width="100%" height="100%" viewBox="0 0 900 900" xmlns="http://www.w3.org/2000/svg">
    <style>
        .grid-line { stroke: #ffffff; stroke-width: 0.5; stroke-dasharray: 3,3; opacity: 0.2; }
        .axis-line { stroke: #ffffff; stroke-width: 2; }
        .axis-label { fill: #ffffff; font-family: Arial, sans-serif; font-size: 16px; font-weight: bold; text-anchor: middle; }
        .axis-value { fill: #aaaaaa; font-family: Arial, sans-serif; font-size: 12px; text-anchor: middle; }
        .shape { fill: rgba(255, 255, 255, 0.15); stroke: #ffffff; stroke-width: 2; }
        .shape-image { fill: rgba(0, 255, 204, 0.15); stroke: #00ffcc; stroke-width: 2.5; }
        .point-label { font-family: Arial, sans-serif; font-size: 13px; font-weight: bold; }
        .pre-label { fill: #ffffff; }
        .post-label { fill: #00ffcc; }
    </style>

    <defs>
        <marker id="axis-arrow" viewBox="0 0 10 10" refX="5" refY="5" markerWidth="6" markerHeight="6" orient="auto-start-reverse">
            <path d="M 0 1 L 10 5 L 0 9 z" fill="#ffffff" />
        </marker>
    </defs>

    <!-- Vertical Grid Lines (40px spacing, from x = -10 to x = 10) -->
    <line x1="50" y1="50" x2="50" y2="850" class="grid-line" />
    <line x1="90" y1="50" x2="90" y2="850" class="grid-line" />
    <line x1="130" y1="50" x2="130" y2="850" class="grid-line" />
    <line x1="170" y1="50" x2="170" y2="850" class="grid-line" />
    <line x1="210" y1="50" x2="210" y2="850" class="grid-line" />
    <line x1="250" y1="50" x2="250" y2="850" class="grid-line" />
    <line x1="290" y1="50" x2="290" y2="850" class="grid-line" />
    <line x1="330" y1="50" x2="330" y2="850" class="grid-line" />
    <line x1="370" y1="50" x2="370" y2="850" class="grid-line" />
    <line x1="410" y1="50" x2="410" y2="850" class="grid-line" />
    <line x1="450" y1="50" x2="450" y2="850" class="axis-line" />
    <line x1="490" y1="50" x2="490" y2="850" class="grid-line" />
    <line x1="530" y1="50" x2="530" y2="850" class="grid-line" />
    <line x1="570" y1="50" x2="570" y2="850" class="grid-line" />
    <line x1="610" y1="50" x2="610" y2="850" class="grid-line" />
    <line x1="650" y1="50" x2="650" y2="850" class="grid-line" />
    <line x1="690" y1="50" x2="690" y2="850" class="grid-line" />
    <line x1="730" y1="50" x2="730" y2="850" class="grid-line" />
    <line x1="770" y1="50" x2="770" y2="850" class="grid-line" />
    <line x1="810" y1="50" x2="810" y2="850" class="grid-line" />
    <line x1="850" y1="50" x2="850" y2="850" class="grid-line" />

    <!-- Horizontal Grid Lines (40px spacing, from y = -10 to y = 10) -->
    <line x1="50" y1="50" x2="850" y2="50" class="grid-line" />
    <line x1="50" y1="90" x2="850" y2="90" class="grid-line" />
    <line x1="50" y1="130" x2="850" y2="130" class="grid-line" />
    <line x1="50" y1="170" x2="850" y2="170" class="grid-line" />
    <line x1="50" y1="210" x2="850" y2="210" class="grid-line" />
    <line x1="50" y1="250" x2="850" y2="250" class="grid-line" />
    <line x1="50" y1="290" x2="850" y2="290" class="grid-line" />
    <line x1="50" y1="330" x2="850" y2="330" class="grid-line" />
    <line x1="50" y1="370" x2="850" y2="370" class="grid-line" />
    <line x1="50" y1="410" x2="850" y2="410" class="grid-line" />
    <line x1="50" y1="450" x2="850" y2="450" class="axis-line" />
    <line x1="50" y1="490" x2="850" y2="490" class="grid-line" />
    <line x1="50" y1="530" x2="850" y2="530" class="grid-line" />
    <line x1="50" y1="570" x2="850" y2="570" class="grid-line" />
    <line x1="50" y1="610" x2="850" y2="610" class="grid-line" />
    <line x1="50" y1="650" x2="850" y2="650" class="grid-line" />
    <line x1="50" y1="690" x2="850" y2="690" class="grid-line" />
    <line x1="50" y1="730" x2="850" y2="730" class="grid-line" />
    <line x1="50" y1="770" x2="850" y2="770" class="grid-line" />
    <line x1="50" y1="810" x2="850" y2="810" class="grid-line" />
    <line x1="50" y1="850" x2="850" y2="850" class="grid-line" />

    <!-- Principal Axes -->
    <line x1="30" y1="450" x2="870" y2="450" class="axis-line" marker-end="url(#axis-arrow)" />
    <line x1="450" y1="870" x2="450" y2="30" class="axis-line" marker-end="url(#axis-arrow)" />

    <!-- Axis Variable Descriptors -->
    <text x="880" y="455" class="axis-label">x</text>
    <text x="450" y="20" class="axis-label">y</text>

    <!-- X-Axis Numeric Markers -->
    <text x="50" y="468" class="axis-value">-10</text>
    <text x="90" y="468" class="axis-value">-9</text>
    <text x="130" y="468" class="axis-value">-8</text>
    <text x="170" y="468" class="axis-value">-7</text>
    <text x="210" y="468" class="axis-value">-6</text>
    <text x="250" y="468" class="axis-value">-5</text>
    <text x="290" y="468" class="axis-value">-4</text>
    <text x="330" y="468" class="axis-value">-3</text>
    <text x="370" y="468" class="axis-value">-2</text>
    <text x="410" y="468" class="axis-value">-1</text>
    <text x="438" y="468" class="axis-value">0</text>
    <text x="490" y="468" class="axis-value">1</text>
    <text x="530" y="468" class="axis-value">2</text>
    <text x="570" y="468" class="axis-value">3</text>
    <text x="610" y="468" class="axis-value">4</text>
    <text x="650" y="468" class="axis-value">5</text>
    <text x="690" y="468" class="axis-value">6</text>
    <text x="730" y="468" class="axis-value">7</text>
    <text x="770" y="468" class="axis-value">8</text>
    <text x="810" y="468" class="axis-value">9</text>
    <text x="850" y="468" class="axis-value">10</text>

    <!-- Y-Axis Numeric Markers -->
    <text x="432" y="54" class="axis-value">10</text>
    <text x="434" y="94" class="axis-value">9</text>
    <text x="434" y="134" class="axis-value">8</text>
    <text x="434" y="174" class="axis-value">7</text>
    <text x="434" y="214" class="axis-value">6</text>
    <text x="434" y="254" class="axis-value">5</text>
    <text x="434" y="294" class="axis-value">4</text>
    <text x="434" y="334" class="axis-value">3</text>
    <text x="434" y="374" class="axis-value">2</text>
    <text x="434" y="414" class="axis-value">1</text>
    <text x="431" y="494" class="axis-value">-1</text>
    <text x="431" y="534" class="axis-value">-2</text>
    <text x="431" y="574" class="axis-value">-3</text>
    <text x="431" y="614" class="axis-value">-4</text>
    <text x="431" y="654" class="axis-value">-5</text>
    <text x="431" y="694" class="axis-value">-6</text>
    <text x="431" y="734" class="axis-value">-7</text>
    <text x="431" y="774" class="axis-value">-8</text>
    <text x="431" y="814" class="axis-value">-9</text>
    <text x="428" y="854" class="axis-value">-10</text>

    <!-- Original Triangle ABC - Apex at C(2,3) -->
    <!-- A(1,1): x=490, y=410 -->
    <!-- B(3,1): x=570, y=410 -->
    <!-- C(2,3): x=530, y=330 -->
    <polygon points="490,410 570,410 530,330" class="shape" />
    
    <!-- Vertex Labels (Object) -->
    <circle cx="490" cy="410" r="4" fill="#ffffff" />
    <text x="500" y="425" class="point-label pre-label">A</text>
    
    <circle cx="570" cy="410" r="4" fill="#ffffff" />
    <text x="580" y="425" class="point-label pre-label">B</text>
    
    <circle cx="530" cy="330" r="4" fill="#ffffff" />
    <text x="540" y="325" class="point-label pre-label">C</text>

    <!-- Translated Triangle A'B'C' (4 units right, 5 units down) -->
    <!-- A'(5,-4): x=650, y=610 -->
    <!-- B'(7,-4): x=730, y=610 -->
    <!-- C'(6,-2): x=690, y=530 -->
    <polygon points="650,610 730,610 690,530" class="shape-image" />
    
    <!-- Vertex Labels (Image) -->
    <circle cx="650" cy="610" r="4" fill="#00ffcc" />
    <text x="660" y="625" class="point-label post-label">A'</text>
    
    <circle cx="730" cy="610" r="4" fill="#00ffcc" />
    <text x="740" y="625" class="point-label post-label">B'</text>
    
    <circle cx="690" cy="530" r="4" fill="#00ffcc" />
    <text x="700" y="525" class="point-label post-label">C'</text>
</svg>