<svg style="font-family: 'Inter', system-ui, sans-serif;" width="100%" height="100%" viewBox="0 0 900 700" xmlns="http://www.w3.org/2000/svg">
    <style>
        .grid-line { stroke: #ffffff; stroke-width: 0.5; stroke-dasharray: 3,3; opacity: 0.2; }
        .axis-line { stroke: #ffffff; stroke-width: 2; }
        .axis-label { fill: #ffffff; font-family: Arial, sans-serif; font-size: 16px; font-weight: bold; text-anchor: middle; }
        .axis-value { fill: #aaaaaa; font-family: Arial, sans-serif; font-size: 12px; text-anchor: middle; }
        .object { fill: rgba(255, 255, 255, 0.15); stroke: #ffffff; stroke-width: 2; }
        .image { fill: rgba(0, 255, 204, 0.15); stroke: #00ffcc; stroke-width: 2.5; }
        .ray-line { stroke: #ff8888; stroke-width: 1.5; stroke-dasharray: 6,4; fill: none; }
        .centre-dot { fill: #ffcc00; }
        .point-label { font-family: Arial, sans-serif; font-size: 13px; font-weight: bold; }
        .pre-label { fill: #ffffff; }
        .post-label { fill: #00ffcc; }
    </style>
    <defs>
        <marker id="axis-arrow-neg" viewBox="0 0 10 10" refX="5" refY="5" markerWidth="6" markerHeight="6" orient="auto-start-reverse">
            <path d="M 0 1 L 10 5 L 0 9 z" fill="#ffffff" />
        </marker>
        <marker id="ray-arrow-neg" viewBox="0 0 10 10" refX="5" refY="5" markerWidth="5" markerHeight="5" orient="auto-start-reverse">
            <path d="M 0 1 L 10 5 L 0 9 z" fill="#ff8888" />
        </marker>
    </defs>

    <!-- Grid lines -->
    <line x1="50" y1="50" x2="50" y2="690" class="grid-line" />
    <line x1="90" y1="50" x2="90" y2="690" class="grid-line" />
    <line x1="130" y1="50" x2="130" y2="690" class="grid-line" />
    <line x1="170" y1="50" x2="170" y2="690" class="grid-line" />
    <line x1="210" y1="50" x2="210" y2="690" class="grid-line" />
    <line x1="250" y1="50" x2="250" y2="690" class="grid-line" />
    <line x1="290" y1="50" x2="290" y2="690" class="grid-line" />
    <line x1="330" y1="50" x2="330" y2="690" class="grid-line" />
    <line x1="370" y1="50" x2="370" y2="690" class="grid-line" />
    <line x1="410" y1="50" x2="410" y2="690" class="grid-line" />
    <line x1="450" y1="50" x2="450" y2="690" class="axis-line" />
    <line x1="490" y1="50" x2="490" y2="690" class="grid-line" />
    <line x1="530" y1="50" x2="530" y2="690" class="grid-line" />
    <line x1="570" y1="50" x2="570" y2="690" class="grid-line" />
    <line x1="610" y1="50" x2="610" y2="690" class="grid-line" />
    <line x1="650" y1="50" x2="650" y2="690" class="grid-line" />
    <line x1="690" y1="50" x2="690" y2="690" class="grid-line" />
    <line x1="730" y1="50" x2="730" y2="690" class="grid-line" />
    <line x1="770" y1="50" x2="770" y2="690" class="grid-line" />
    <line x1="810" y1="50" x2="810" y2="690" class="grid-line" />
    <line x1="850" y1="50" x2="850" y2="690" class="grid-line" />

    <line x1="50" y1="50" x2="850" y2="50" class="grid-line" />
    <line x1="50" y1="90" x2="850" y2="90" class="grid-line" />
    <line x1="50" y1="130" x2="850" y2="130" class="grid-line" />
    <line x1="50" y1="170" x2="850" y2="170" class="grid-line" />
    <line x1="50" y1="210" x2="850" y2="210" class="grid-line" />
    <line x1="50" y1="250" x2="850" y2="250" class="grid-line" />
    <line x1="50" y1="290" x2="850" y2="290" class="grid-line" />
    <line x1="50" y1="330" x2="850" y2="330" class="grid-line" />
    <line x1="50" y1="370" x2="850" y2="370" class="grid-line" />
    <line x1="50" y1="410" x2="850" y2="410" class="grid-line" />
    <line x1="50" y1="450" x2="850" y2="450" class="axis-line" />
    <line x1="50" y1="490" x2="850" y2="490" class="grid-line" />
    <line x1="50" y1="530" x2="850" y2="530" class="grid-line" />
    <line x1="50" y1="570" x2="850" y2="570" class="grid-line" />
    <line x1="50" y1="610" x2="850" y2="610" class="grid-line" />
    <line x1="50" y1="650" x2="850" y2="650" class="grid-line" />
    <line x1="50" y1="690" x2="850" y2="690" class="grid-line" />

    <!-- Axes: origin at (450, 450), scale = 40px/unit -->
    <!-- px(x,y) = (450 + 40x, 450 - 40y) -->
    <line x1="30" y1="450" x2="870" y2="450" class="axis-line" marker-end="url(#axis-arrow-neg)" />
    <line x1="450" y1="690" x2="450" y2="30" class="axis-line" marker-end="url(#axis-arrow-neg)" />
    <text x="880" y="455" class="axis-label">x</text>
    <text x="450" y="20" class="axis-label">y</text>

    <!-- Axis numbers -->
    <text x="450" y="468" class="axis-value">0</text>
    <text x="490" y="468" class="axis-value">1</text>
    <text x="530" y="468" class="axis-value">2</text>
    <text x="570" y="468" class="axis-value">3</text>
    <text x="610" y="468" class="axis-value">4</text>
    <text x="650" y="468" class="axis-value">5</text>
    <text x="410" y="468" class="axis-value">-1</text>
    <text x="370" y="468" class="axis-value">-2</text>
    <text x="330" y="468" class="axis-value">-3</text>
    <text x="290" y="468" class="axis-value">-4</text>
    <text x="250" y="468" class="axis-value">-5</text>

    <text x="434" y="414" class="axis-value">1</text>
    <text x="434" y="374" class="axis-value">2</text>
    <text x="434" y="334" class="axis-value">3</text>
    <text x="434" y="294" class="axis-value">4</text>
    <text x="431" y="494" class="axis-value">-1</text>
    <text x="431" y="534" class="axis-value">-2</text>
    <text x="431" y="574" class="axis-value">-3</text>
    <text x="431" y="614" class="axis-value">-4</text>

    <!-- Centre O(1,1) → px(490, 410) -->
    <!-- P(2,1)→(530,410)  Q(4,1)→(610,410)  R(2,3)→(530,330) -->
    <!-- P'(-1,1)→(410,410) Q'(-5,1)→(250,410) R'(-1,-3)→(410,570) -->

    <!-- Rays through centre (negative: start at object, pass through O, end at image) -->
    <!-- Ray P→O→P': from (530,410) through (490,410) to (250,410) — horizontal, extend left -->
    <line x1="640" y1="410" x2="200" y2="410" class="ray-line" marker-end="url(#ray-arrow-neg)" />

    <!-- Ray R→O→R': from (530,330) through (490,410) to (410,570) -->
    <!-- direction from R to O: (490-530, 410-330)=(-40,80). Normalised: slope -2 in y/x terms -->
    <!-- extend from (530,330) past (490,410) to (410,570) and beyond -->
    <line x1="550" y1="290" x2="390" y2="610" class="ray-line" marker-end="url(#ray-arrow-neg)" />

    <!-- Ray Q→O→Q': from (610,410) through (490,410) to (250,410) — same horizontal -->

    <!-- Object Triangle PQR: P(530,410) Q(610,410) R(530,330) -->
    <polygon points="530,410 610,410 530,330" class="object" />
    <circle cx="530" cy="410" r="4" fill="#ffffff" />
    <text x="534" y="428" class="point-label pre-label">P</text>
    <circle cx="610" cy="410" r="4" fill="#ffffff" />
    <text x="614" y="428" class="point-label pre-label">Q</text>
    <circle cx="530" cy="330" r="4" fill="#ffffff" />
    <text x="534" y="323" class="point-label pre-label">R</text>

    <!-- Image Triangle P'Q'R': P'(410,410) Q'(250,410) R'(410,570) -->
    <polygon points="410,410 250,410 410,570" class="image" />
    <circle cx="410" cy="410" r="4" fill="#00ffcc" />
    <text x="395" y="402" class="point-label post-label">P'</text>
    <circle cx="250" cy="410" r="4" fill="#00ffcc" />
    <text x="233" y="402" class="point-label post-label">Q'</text>
    <circle cx="410" cy="570" r="4" fill="#00ffcc" />
    <text x="414" y="585" class="point-label post-label">R'</text>

    <!-- Centre of enlargement O(1,1) → (490,410) -->
    <circle cx="490" cy="410" r="8" class="centre-dot" />
    <circle cx="490" cy="410" r="3" fill="#ffffff" />
    <text x="490" y="398" fill="#ffcc00" font-family="Arial, sans-serif" font-size="12" font-weight="bold" text-anchor="middle">O(1,1)</text>

    <!-- k label -->
    <text x="750" y="310" fill="#ff8888" font-family="Arial, sans-serif" font-size="13" font-weight="bold" text-anchor="middle">k = −2</text>
    <text x="750" y="328" fill="#aaaaaa" font-family="Arial, sans-serif" font-size="12" text-anchor="middle">centre O(1,1)</text>
    <text x="750" y="346" fill="#aaaaaa" font-family="Arial, sans-serif" font-size="12" text-anchor="middle">image is inverted</text>
</svg>