<svg style="font-family: 'Inter', system-ui, sans-serif;" viewBox="0 0 550 180" xmlns="http://www.w3.org/2000/svg">
    <style>
        .shape { stroke: #fff; stroke-width: 2; fill: none; }
        .letter { fill: #00ffcc; font-family: sans-serif; font-size: 13px; font-weight: bold; }
        .sub-txt { fill: #00ffcc; font-family: sans-serif; font-size: 12px; }
    </style>
    <g transform="translate(10, 10)">
        <g transform="translate(0, 0)">
            <path d="M 50 15 L 88 42 L 73 85 L 27 85 L 12 42 Z" class="shape" />
            <text x="45" y="10" class="letter">A</text><text x="92" y="42" class="letter">B</text><text x="75" y="100" class="letter">C</text><text x="15" y="100" class="letter">D</text><text x="0" y="42" class="letter">E</text>
            <text x="50" y="115" class="sub-txt" text-anchor="middle">0°</text>
        </g>
        <g transform="translate(100, 0)">
            <path d="M 50 15 L 88 42 L 73 85 L 27 85 L 12 42 Z" class="shape" transform="rotate(72, 50, 50)" />
            <text x="92" y="42" class="letter">A</text><text x="75" y="100" class="letter">B</text><text x="15" y="100" class="letter">C</text><text x="0" y="42" class="letter">D</text><text x="45" y="10" class="letter">E</text>
            <text x="50" y="115" class="sub-txt" text-anchor="middle">72°</text>
        </g>
        <g transform="translate(200, 0)">
            <path d="M 50 15 L 88 42 L 73 85 L 27 85 L 12 42 Z" class="shape" transform="rotate(144, 50, 50)" />
            <text x="75" y="100" class="letter">A</text><text x="15" y="100" class="letter">B</text><text x="0" y="42" class="letter">C</text><text x="45" y="10" class="letter">D</text><text x="92" y="42" class="letter">E</text>
            <text x="50" y="115" class="sub-txt" text-anchor="middle">144°</text>
        </g>
        <g transform="translate(300, 0)">
            <path d="M 50 15 L 88 42 L 73 85 L 27 85 L 12 42 Z" class="shape" transform="rotate(216, 50, 50)" />
            <text x="15" y="100" class="letter">A</text><text x="0" y="42" class="letter">B</text><text x="45" y="10" class="letter">C</text><text x="92" y="42" class="letter">D</text><text x="75" y="100" class="letter">E</text>
            <text x="50" y="115" class="sub-txt" text-anchor="middle">216°</text>
        </g>
        <g transform="translate(400, 0)">
            <path d="M 50 15 L 88 42 L 73 85 L 27 85 L 12 42 Z" class="shape" transform="rotate(288, 50, 50)" />
            <text x="0" y="42" class="letter">A</text><text x="45" y="10" class="letter">B</text><text x="92" y="42" class="letter">C</text><text x="75" y="100" class="letter">D</text><text x="15" y="100" class="letter">E</text>
            <text x="50" y="115" class="sub-txt" text-anchor="middle">288°</text>
        </g>
    </g>
</svg>